<svg width="16" height="16" viewBox="0 0 16 16" fill="none" xmlns="http://www.w3.org/2000/svg">
<g clip-path="url(#clip0_1447_1831)">
<path fill-rule="evenodd" clip-rule="evenodd" d="M16 0.480001C16 0.445061 15.9963 0.410987 15.9892 0.37816C15.9892 0.378168 15.9892 0.378151 15.9892 0.37816C15.9507 0.2004 15.8136 0.0591469 15.6381 0.0146713C15.6003 0.00509106 15.5608 0 15.52 0H0.48C0.215095 0 0 0.215095 0 0.480001V15.52C0 15.5441 0.00178364 15.5679 0.00522611 15.591C0.0378114 15.8104 0.219026 15.9815 0.443017 15.9986C0.455223 15.9995 0.467557 16 0.48 16H15.52C15.5303 16 15.5406 15.9997 15.5507 15.9991C15.5528 15.9989 15.5549 15.9988 15.557 15.9986C15.7703 15.9823 15.9449 15.8263 15.9891 15.6219C15.9954 15.593 15.9991 15.5631 15.9998 15.5325C15.9999 15.5284 16 15.5242 16 15.52V0.480001ZM15.2 9.90942V1.232C15.2 0.993586 15.0064 0.8 14.768 0.8H9.94137L7.15803 5.62091L9.63431 9.90942H15.2ZM0.8 10.6811L6.50483 0.8H9.22209L3.80141 10.189L6.69457 15.2H1.232C0.993585 15.2 0.8 15.0064 0.8 14.768V10.6811ZM7.41385 15.2L4.7192 10.5327H15.2V14.768C15.2 15.0064 15.0064 15.2 14.768 15.2H7.41385ZM8.91472 9.90942H6.16739C5.8607 9.90942 5.57731 9.74849 5.42396 9.48282C5.27062 9.21724 5.27062 8.89003 5.42396 8.62446L6.79839 6.24388L8.91472 9.90942Z" fill="#FF00FF"/>
</g>
<defs>
<clipPath id="clip0_1447_1831">
<rect width="16" height="16" fill="white"/>
</clipPath>
</defs>
</svg>
