<svg width="16" height="16" viewBox="0 0 16 16" fill="none" xmlns="http://www.w3.org/2000/svg">
<g clip-path="url(#clip0_1447_3065)">
<path fill-rule="evenodd" clip-rule="evenodd" d="M16 5.00676C16 4.8159 16 4.62505 16 4.4342C16 4.27515 16 4.10974 15.9936 3.9507C15.9873 3.6008 15.9619 3.24453 15.8983 2.90099C15.8347 2.55109 15.733 2.22028 15.5677 1.90219C15.4088 1.59046 15.199 1.29781 14.9511 1.0497C14.7032 0.80159 14.4172 0.59165 14.0993 0.432605C13.7815 0.267197 13.4509 0.165407 13.1013 0.101789C12.7517 0.0381709 12.4021 0.0190853 12.0524 0.00636167C11.8935 -1.57603e-07 11.7282 0 11.5693 0C11.3786 0 11.1879 0 10.9972 0H5.00914C4.81843 0 4.62773 0 4.43703 0C4.27811 0 4.11283 -1.57603e-07 3.95391 0.00636167C3.60429 0.0127235 3.24831 0.0381709 2.90505 0.101789C2.55542 0.165407 2.22487 0.267197 1.90703 0.432605C1.58919 0.59165 1.30314 0.795228 1.05522 1.0497C0.800953 1.29781 0.597537 1.5841 0.432261 1.89582C0.266985 2.21392 0.165276 2.54473 0.101708 2.89463C0.0381405 3.24453 0.0190705 3.59443 0.00635692 3.94433C1.45637e-07 4.10338 0 4.26879 0 4.42783C0 4.61869 0 4.80954 0 5.0004V10.9932C0 11.1841 0 11.375 0 11.5658C0 11.7249 1.45637e-07 11.8903 0.00635692 12.0493C0.0127137 12.3992 0.0381405 12.7555 0.101708 13.099C0.165276 13.4489 0.266985 13.7797 0.432261 14.0978C0.59118 14.4095 0.800953 14.7022 1.04887 14.9503C1.29678 15.1984 1.58284 15.4083 1.90068 15.5674C2.21851 15.7328 2.54907 15.8346 2.89869 15.8982C3.24831 15.9618 3.59793 15.9809 3.94756 15.9936C4.10648 16 4.27175 16 4.43067 16C4.62138 16 4.81208 16 5.00278 16H10.9909C11.1816 16 11.3723 16 11.563 16C11.7219 16 11.8872 16 12.0461 15.9936C12.3957 15.9873 12.7517 15.9618 13.095 15.8982C13.4446 15.8346 13.7751 15.7328 14.093 15.5674C14.4044 15.4083 14.6969 15.1984 14.9448 14.9503C15.1927 14.7022 15.4025 14.4159 15.5614 14.0978C15.7267 13.7797 15.8284 13.4489 15.8919 13.099C15.9555 12.7491 15.9746 12.3992 15.9873 12.0493C15.9936 11.8903 15.9936 11.7249 15.9936 11.5658C15.9936 11.375 15.9936 11.1841 15.9936 10.9932V5.00676H16Z" fill="url(#paint0_linear_1447_3065)"/>
<path fill-rule="evenodd" clip-rule="evenodd" d="M11.315 2.44296C11.2769 2.44932 10.9336 2.50658 10.8891 2.51294L6.13426 3.47357C6.00713 3.49902 5.91178 3.54356 5.8355 3.60717C5.7465 3.68352 5.69565 3.79167 5.67658 3.9189C5.67022 3.94435 5.66386 4.00161 5.66386 4.07795C5.66386 4.07795 5.66386 8.93839 5.66386 10.0326C5.66386 10.1726 5.65115 10.3062 5.5558 10.4207C5.46045 10.5352 5.34602 10.5734 5.20618 10.5988L4.89469 10.6624C4.50057 10.7388 4.2463 10.796 4.01746 10.8851C3.79497 10.9742 3.6297 11.0823 3.4962 11.2159C3.23558 11.4895 3.12751 11.8648 3.16565 12.2084C3.19744 12.5074 3.33093 12.7873 3.55977 13.0036C3.71233 13.1436 3.90939 13.2517 4.13824 13.3026C4.37344 13.3535 4.62771 13.3344 4.9964 13.2581C5.19346 13.2199 5.37781 13.1563 5.54944 13.0545C5.72107 12.9527 5.87364 12.8127 5.98806 12.6473C6.10248 12.4819 6.17876 12.2974 6.22326 12.1002C6.26776 11.8966 6.27411 11.7121 6.27411 11.5086V6.34912C6.27411 6.0692 6.35039 5.99922 6.57288 5.94833C6.57288 5.94833 10.5268 5.1531 10.7111 5.11493C10.9654 5.06403 11.0925 5.14037 11.0925 5.40757V8.93202C11.0925 9.07198 11.0925 9.21194 10.9972 9.32646C10.9018 9.44097 10.7874 9.47914 10.6476 9.50459C10.5459 9.52367 10.4378 9.54912 10.3361 9.56821C9.94197 9.64455 9.6877 9.70181 9.45886 9.79087C9.23637 9.87994 9.07109 9.98809 8.9376 10.1217C8.67697 10.3952 8.56255 10.7706 8.59434 11.1141C8.62612 11.4131 8.76597 11.6931 9.00117 11.9094C9.15373 12.0493 9.35079 12.1575 9.57964 12.202C9.81484 12.2529 10.0691 12.2338 10.4378 12.1575C10.6349 12.1193 10.8192 12.062 10.9908 11.9539C11.1625 11.8521 11.315 11.7121 11.4295 11.5467C11.5439 11.3813 11.6202 11.1968 11.6647 10.9996C11.7092 10.796 11.7092 10.6115 11.7092 10.408V2.86284C11.7155 2.58928 11.5693 2.42387 11.315 2.44296Z" fill="white"/>
</g>
<defs>
<linearGradient id="paint0_linear_1447_3065" x1="8.00286" y1="15.9452" x2="8.00286" y2="0.343793" gradientUnits="userSpaceOnUse">
<stop stop-color="#FA233B"/>
<stop offset="1" stop-color="#FB5C74"/>
</linearGradient>
<clipPath id="clip0_1447_3065">
<rect width="16" height="16" fill="white"/>
</clipPath>
</defs>
</svg>
