<svg width="16" height="16" viewBox="0 0 16 16" fill="none" xmlns="http://www.w3.org/2000/svg">
<g clip-path="url(#clip0_1447_3107)">
<rect width="16" height="16" rx="2" fill="#005CFF"/>
<path fill-rule="evenodd" clip-rule="evenodd" d="M7.97706 5.97888C7.97706 7.45856 6.76618 7.55264 6.76618 7.55264C8.33043 7.55264 8.25598 9.52512 8.25298 9.60458L8.2529 9.60704C8.2529 12.1318 5.73066 12.0493 5.73066 12.0493H1.6001V3.77664H5.73066C6.98634 3.77664 7.97706 4.49728 7.97706 5.97888ZM5.73066 5.24608H3.42026V7.09248H5.5873C5.96234 7.09248 6.29258 6.96768 6.29258 6.10624C6.29258 5.24608 5.73066 5.24608 5.73066 5.24608ZM5.61354 10.5786H3.42026V8.36736H5.73066C5.73066 8.36736 6.56778 8.35584 6.56778 9.50336C6.56778 10.471 5.9425 10.5715 5.61354 10.5786ZM8.56458 9.0592C8.56458 9.0592 8.56202 5.88032 11.6155 5.88032C14.8289 5.88032 14.3751 9.472 14.3751 9.472H10.2644C10.2644 11.0093 11.6622 10.912 11.6622 10.912C12.9806 10.912 12.9345 10.0218 12.9345 10.0218H14.331C14.331 12.384 11.6155 12.2214 11.6155 12.2214C8.35594 12.2214 8.56458 9.0592 8.56458 9.0592ZM12.8577 8.36736H10.2503C10.2503 8.36736 10.4206 7.09248 11.6468 7.09248C12.8731 7.09248 12.8577 8.36736 12.8577 8.36736ZM9.9073 4.2624H13.1822V5.28256H9.9073V4.2624Z" fill="white"/>
</g>
<defs>
<clipPath id="clip0_1447_3107">
<rect width="16" height="16" fill="white"/>
</clipPath>
</defs>
</svg>
