<svg width="16" height="16" viewBox="0 0 16 16" fill="none" xmlns="http://www.w3.org/2000/svg">
<path d="M4.864 14.9356C3.94204 14.9356 3.07855 14.5399 2.45535 13.9089C1.24675 12.6853 0.91019 10.5497 2.60438 8.83486C3.59622 7.83089 7.57142 3.80578 9.5551 1.79714C10.2596 1.0841 11.1559 0.808154 12.0137 1.04132C12.8572 1.26949 13.5474 1.96898 13.7734 2.82249C14.003 3.6924 13.7314 4.60011 13.0276 5.31315L6.37993 12.0443C6.00059 12.4286 5.57134 12.656 5.14066 12.7017C4.71355 12.7473 4.3064 12.609 4.02119 12.3202C3.50495 11.7954 3.43079 10.8107 4.29072 9.94078L8.95971 5.21332C9.15152 5.01937 9.4624 5.01937 9.65421 5.21332C9.84602 5.40727 9.84602 5.72243 9.65421 5.91638L4.98451 10.6446C4.58092 11.0524 4.54385 11.4424 4.71569 11.6171C4.79127 11.6927 4.90536 11.7277 5.03727 11.7127C5.23906 11.692 5.46937 11.5587 5.68543 11.3412L12.3331 4.6108C12.7895 4.14875 12.9641 3.60541 12.8251 3.08133C12.6882 2.56437 12.2704 2.14154 11.7605 2.0025C11.2429 1.86203 10.7052 2.03958 10.2489 2.50163C8.26521 4.51098 4.29072 8.53538 3.29816 9.53934C2.00328 10.8506 2.31345 12.3601 3.14914 13.2065C3.98554 14.0529 5.47508 14.3681 6.77067 13.0553L13.7214 6.01763C13.9132 5.82368 14.2241 5.82368 14.4159 6.01763C14.6077 6.21158 14.6077 6.52674 14.4159 6.7214L7.46518 13.7591C6.64589 14.5877 5.72821 14.9356 4.864 14.9356Z" fill="#FF00FF"/>
</svg>
