<svg width="16" height="16" viewBox="0 0 16 16" fill="none" xmlns="http://www.w3.org/2000/svg">
<path fill-rule="evenodd" clip-rule="evenodd" d="M11.7975 4.60416C13.783 4.68802 15.4429 6.03043 16 7.85418V10.5458C15.7206 11.4603 15.164 12.2537 14.4281 12.8281L13.7141 12.1141C14.6146 11.4598 15.2 10.3982 15.2 9.2C15.2 7.21177 13.5882 5.6 11.6 5.6C11.433 5.6 11.2686 5.61137 11.1076 5.63339C10.7641 4.2363 9.50307 3.2 8 3.2C6.80943 3.2 5.77071 3.85018 5.21956 4.81485C2.74644 5.00877 0.8 7.07708 0.8 9.6C0.8 10.7216 1.18472 11.7534 1.8294 12.5706L1.11821 13.2818C0.603489 12.6559 0.217295 11.9204 0 11.1155V8.08435C0.585005 5.91738 2.39423 4.25334 4.6405 3.87912C5.40572 2.86092 6.6252 2.2 8 2.2C9.6779 2.2 11.1244 3.18323 11.7975 4.60416ZM4 12H7.5V7.2H8.5V12H12L8 16L4 12Z" fill="#FF00FF"/>
</svg>
