<svg width="16" height="16" viewBox="0 0 16 16" fill="none" xmlns="http://www.w3.org/2000/svg">
<g clip-path="url(#clip0_1447_2064)">
<path d="M9.16666 1.73325L10.0732 0.929337C10.4597 0.586644 11.0221 0.529692 11.4694 0.78795L12.5492 1.41134C12.9965 1.6696 13.2283 2.18512 13.1248 2.69115L12.8821 3.87707C13.132 4.17102 13.3561 4.48874 13.5518 4.82785C13.7476 5.16696 13.9107 5.51989 14.0404 5.88325L15.1888 6.26604C15.6788 6.42937 16.0093 6.88794 16.0093 7.40446L16.0093 8.65124C16.0093 9.16776 15.6788 9.62632 15.1888 9.78966L14.0393 10.1728C13.779 10.9057 13.3876 11.5861 12.8823 12.1794L13.1248 13.3645C13.2283 13.8706 12.9965 14.3861 12.5492 14.6444L11.4694 15.2677C11.0221 15.526 10.4597 15.4691 10.0732 15.1264L9.1681 14.3237C8.40165 14.4648 7.6167 14.4634 6.8519 14.3225L5.94531 15.1264C5.55886 15.4691 4.99647 15.526 4.54915 15.2677L3.4694 14.6444C3.02209 14.3861 2.79022 13.8706 2.89377 13.3645L3.13645 12.1786C2.8866 11.8847 2.6625 11.567 2.46671 11.2278C2.27093 10.8887 2.10782 10.5358 1.97818 10.1725L0.829804 9.78966C0.339793 9.62632 0.00927738 9.16776 0.00927748 8.65124L0.00927736 7.40446C0.00927734 6.88794 0.339794 6.42937 0.829804 6.26604L1.9793 5.88287C2.2396 5.15003 2.63092 4.46958 3.1363 3.87634L2.89377 2.69115C2.79021 2.18512 3.02209 1.6696 3.4694 1.41134L4.54915 0.78795C4.99647 0.529692 5.55886 0.586644 5.94531 0.929337L6.85046 1.73197C7.61691 1.59092 8.40185 1.59226 9.16666 1.73325ZM6.81907 2.55414C6.69432 2.5813 6.56411 2.54728 6.46859 2.46258L5.41454 1.5279C5.28572 1.41367 5.09826 1.39468 4.94915 1.48077L3.8694 2.10416C3.7203 2.19025 3.64301 2.36209 3.67752 2.53077L3.95996 3.91094C3.98555 4.03601 3.9499 4.16579 3.86401 4.26024C3.32391 4.85418 2.91968 5.55765 2.67563 6.32118C2.63677 6.44277 2.54221 6.53851 2.42111 6.57887L1.08279 7.02498C0.919449 7.07943 0.809277 7.23228 0.809277 7.40446L0.809277 8.65124C0.809277 8.82341 0.91945 8.97627 1.08279 9.03072L2.41969 9.47635C2.54063 9.51666 2.63512 9.61222 2.67407 9.73361C2.79535 10.1116 2.95749 10.4779 3.15954 10.8278C3.36158 11.1778 3.59774 11.5014 3.86444 11.7954C3.95009 11.8898 3.9856 12.0194 3.96004 12.1443L3.67752 13.5249C3.64301 13.6936 3.7203 13.8655 3.8694 13.9515L4.94915 14.5749C5.09826 14.661 5.28572 14.642 5.41454 14.5278L6.47004 13.5918C6.56555 13.5071 6.69574 13.4731 6.82047 13.5003C7.60373 13.6707 8.41507 13.6723 9.19949 13.5016C9.32423 13.4744 9.45445 13.5084 9.54997 13.5931L10.604 14.5278C10.7328 14.642 10.9203 14.661 11.0694 14.5749L12.1492 13.9515C12.2983 13.8654 12.3755 13.6936 12.341 13.5249L12.0586 12.1448C12.033 12.0197 12.0687 11.8899 12.1545 11.7955C12.6946 11.2015 13.0989 10.498 13.3429 9.73451C13.3818 9.61293 13.4763 9.51719 13.5974 9.47682L14.9358 9.03072C15.0991 8.97627 15.2093 8.82341 15.2093 8.65124L15.2093 7.40446C15.2093 7.23228 15.0991 7.07943 14.9358 7.02498L13.5989 6.57935C13.4779 6.53903 13.3834 6.44348 13.3445 6.32209C13.2232 5.9441 13.0611 5.5778 12.859 5.22785C12.657 4.8779 12.4208 4.55433 12.1541 4.2603C12.0685 4.16588 12.0329 4.03627 12.0585 3.91137L12.341 2.53077C12.3755 2.36209 12.2983 2.19025 12.1492 2.10416L11.0694 1.48077C10.9203 1.39468 10.7328 1.41367 10.604 1.5279L9.54851 2.46387C9.453 2.54856 9.32281 2.58258 9.19808 2.55544C8.41482 2.38503 7.60348 2.38336 6.81907 2.55414ZM9.60928 10.7991C8.07874 11.6828 6.12165 11.1584 5.238 9.62785C4.35434 8.09731 4.87874 6.14022 6.40928 5.25657C7.93981 4.37291 9.8969 4.89731 10.7806 6.42785C11.6642 7.95839 11.1398 9.91547 9.60928 10.7991ZM9.20928 10.1063C10.3572 9.44357 10.7505 7.97575 10.0877 6.82785C9.425 5.67995 7.95718 5.28665 6.80928 5.94939C5.66138 6.61213 5.26807 8.07995 5.93082 9.22785C6.59356 10.3758 8.06138 10.7691 9.20928 10.1063Z" fill="#FF00FF"/>
</g>
<defs>
<clipPath id="clip0_1447_2064">
<rect width="16" height="16" fill="white"/>
</clipPath>
</defs>
</svg>
