<svg width="16" height="16" viewBox="0 0 16 16" fill="none" xmlns="http://www.w3.org/2000/svg">
<g clip-path="url(#clip0_1447_2911)">
<circle cx="8" cy="8" r="8" fill="#0056D2"/>
<path fill-rule="evenodd" clip-rule="evenodd" d="M9.69015 3.13348C10.72 3.40763 11.7561 4.07603 12.449 4.91348L12.7377 5.26237L11.6985 5.87345C11.127 6.20948 10.6309 6.48444 10.5961 6.48444C10.5614 6.48444 10.4026 6.34995 10.2433 6.18564C9.72784 5.65377 9.21865 5.45749 8.35468 5.45749C7.50696 5.45749 7.19138 5.57028 6.58352 6.09063C6.04468 6.55186 5.73883 7.24294 5.74562 7.98413C5.7525 8.73549 5.98334 9.27835 6.52699 9.822C7.55215 10.8472 9.19445 10.8325 10.2382 9.78878L10.6589 9.36809L11.6719 9.9789C12.229 10.3148 12.6988 10.6315 12.7159 10.6828C12.7329 10.734 12.4317 11.0896 12.0466 11.4731C10.9498 12.5649 9.8959 13.0011 8.35468 13.0011C6.84409 13.0011 5.74973 12.5586 4.73439 11.5373C3.9791 10.7774 3.51698 9.93934 3.31686 8.96624C3.1404 8.10834 3.14049 7.89635 3.31703 7.03881C3.52903 6.00945 3.91364 5.30354 4.69341 4.51244C5.39128 3.80447 6.0971 3.38012 6.98018 3.13767C7.57367 2.9747 9.08479 2.97238 9.69015 3.13348Z" fill="white"/>
</g>
<defs>
<clipPath id="clip0_1447_2911">
<rect width="16" height="16" fill="white"/>
</clipPath>
</defs>
</svg>
