<svg width="16" height="16" viewBox="0 0 16 16" fill="none" xmlns="http://www.w3.org/2000/svg">
<g clip-path="url(#clip0_1447_1735)">
<path fill-rule="evenodd" clip-rule="evenodd" d="M8 16C12.4183 16 16 12.4183 16 8C16 3.58172 12.4183 0 8 0C3.58172 0 0 3.58172 0 8C0 12.4183 3.58172 16 8 16ZM12.449 4.91348C11.7561 4.07603 10.72 3.40763 9.69015 3.13348C9.08479 2.97238 7.57367 2.9747 6.98018 3.13767C6.0971 3.38012 5.39128 3.80447 4.69341 4.51244C3.91364 5.30354 3.52903 6.00945 3.31703 7.03881C3.14049 7.89635 3.1404 8.10835 3.31686 8.96624C3.51698 9.93934 3.9791 10.7774 4.73439 11.5373C5.74973 12.5586 6.84409 13.0011 8.35468 13.0011C9.8959 13.0011 10.9498 12.5649 12.0466 11.4731C12.4317 11.0896 12.7329 10.734 12.7159 10.6828C12.6988 10.6315 12.229 10.3148 11.6719 9.9789L10.6589 9.36809L10.2382 9.78878C9.19445 10.8325 7.55215 10.8472 6.52699 9.822C5.98334 9.27835 5.7525 8.73549 5.74562 7.98413C5.73883 7.24294 6.04468 6.55186 6.58352 6.09063C7.19138 5.57028 7.50696 5.45749 8.35468 5.45749C9.21865 5.45749 9.72784 5.65377 10.2433 6.18564C10.4026 6.34995 10.5614 6.48444 10.5961 6.48444C10.6309 6.48444 11.127 6.20948 11.6985 5.87345L12.7377 5.26237L12.449 4.91348Z" fill="#FF00FF"/>
</g>
<defs>
<clipPath id="clip0_1447_1735">
<rect width="16" height="16" fill="white"/>
</clipPath>
</defs>
</svg>
