<svg width="16" height="16" viewBox="0 0 16 16" fill="none" xmlns="http://www.w3.org/2000/svg">
<path fill-rule="evenodd" clip-rule="evenodd" d="M14.4 8L15.0166 8.50976L15.4381 8L15.0166 7.49023L15.0151 7.48839L15.0123 7.48509L15.0032 7.47423L14.9709 7.43605C14.9432 7.40353 14.9032 7.35716 14.8519 7.29893C14.7492 7.18254 14.6007 7.01835 14.4133 6.82228C14.0395 6.43113 13.5061 5.90797 12.8686 5.38263C11.6362 4.36692 9.84632 3.2 8.00004 3.2C6.15376 3.2 4.36393 4.36692 3.13146 5.38263C2.49402 5.90797 1.96056 6.43113 1.58676 6.82228C1.39937 7.01835 1.25089 7.18254 1.14822 7.29893C1.09686 7.35716 1.05689 7.40353 1.02916 7.43605L0.996839 7.47423L0.987753 7.48509L0.985013 7.48839L0.984098 7.48949C0.983958 7.48966 0.983488 7.49023 1.60004 8L0.983488 7.49023L0.562012 8L0.983755 8.51009L0.985013 8.5116L0.987753 8.5149L0.996839 8.52576L1.02916 8.56395C1.05689 8.59647 1.09686 8.64283 1.14822 8.70106C1.25089 8.81746 1.39937 8.98164 1.58676 9.17772C1.96056 9.56886 2.49402 10.092 3.13146 10.6174C4.36393 11.6331 6.15376 12.8 8.00004 12.8C9.84632 12.8 11.6362 11.6331 12.8686 10.6174C13.5061 10.092 14.0395 9.56886 14.4133 9.17772C14.6007 8.98164 14.7492 8.81746 14.8519 8.70106C14.9032 8.64283 14.9432 8.59647 14.9709 8.56395L15.0032 8.52576L15.0123 8.5149L15.0151 8.5116L15.016 8.5105C15.0161 8.51033 15.0166 8.50976 14.4 8ZM14.4 8C15.0166 7.49023 15.0167 7.4904 15.0166 7.49023L14.4 8ZM14.4 8C14.4 8 11.0928 12 8.00004 12C4.90725 12 1.60004 8 1.60004 8C1.60004 8 4.90725 4 8.00004 4C11.0928 4 14.4 8 14.4 8ZM1.60004 8L0.983755 8.51009C0.983615 8.50992 0.983488 8.50976 1.60004 8ZM8.00004 10.4C9.32552 10.4 10.4 9.32548 10.4 8C10.4 6.67451 9.32552 5.6 8.00004 5.6C6.67456 5.6 5.60004 6.67451 5.60004 8C5.60004 9.32548 6.67456 10.4 8.00004 10.4Z" fill="#FF00FF"/>
</svg>
