<svg width="16" height="16" viewBox="0 0 16 16" fill="none" xmlns="http://www.w3.org/2000/svg">
<path d="M11.3732 2.8C10.2254 2.8 9.83845 3.6292 7.99945 3.6292C6.19405 3.6292 5.75185 2.8 4.62565 2.8C1.50025 2.8 0.800049 9.025 0.800049 11.4088C0.800049 12.6958 1.29025 13.6 2.28145 13.6C4.35625 13.6 4.03705 10.6 6.43045 10.6H9.56845C11.9618 10.6 11.6426 13.6 13.7174 13.6C14.7086 13.6 15.2 12.6964 15.2 11.4094C15.2 9.0256 14.4986 2.8 11.3732 2.8ZM5.00005 8.8C4.00585 8.8 3.20005 7.9942 3.20005 7C3.20005 6.0058 4.00585 5.2 5.00005 5.2C5.99425 5.2 6.80005 6.0058 6.80005 7C6.80005 7.9942 5.99425 8.8 5.00005 8.8ZM11 5.2C11.3312 5.2 11.6 5.4682 11.6 5.8C11.6 6.1318 11.3312 6.4 11 6.4C10.6688 6.4 10.4 6.1318 10.4 5.8C10.4 5.4682 10.6688 5.2 11 5.2ZM9.80005 7.6C9.46885 7.6 9.20005 7.3318 9.20005 7C9.20005 6.6682 9.46885 6.4 9.80005 6.4C10.1312 6.4 10.4 6.6682 10.4 7C10.4 7.3318 10.1312 7.6 9.80005 7.6ZM11 8.8C10.6688 8.8 10.4 8.5318 10.4 8.2C10.4 7.8682 10.6688 7.6 11 7.6C11.3312 7.6 11.6 7.8682 11.6 8.2C11.6 8.5318 11.3312 8.8 11 8.8ZM12.2 7.6C11.8688 7.6 11.6 7.3318 11.6 7C11.6 6.6682 11.8688 6.4 12.2 6.4C12.5312 6.4 12.8 6.6682 12.8 7C12.8 7.3318 12.5312 7.6 12.2 7.6ZM6.05005 7C6.05005 7.579 5.57905 8.05 5.00005 8.05C4.42105 8.05 3.95005 7.579 3.95005 7C3.95005 6.421 4.42105 5.95 5.00005 5.95C5.57905 5.95 6.05005 6.421 6.05005 7Z" fill="#FF00FF"/>
</svg>
