<svg width="16" height="16" viewBox="0 0 16 16" fill="none" xmlns="http://www.w3.org/2000/svg">
<path d="M1.09091 14.0031H3.63636V7.82127L0 5.09399V12.9122C0 13.5158 0.489091 14.0031 1.09091 14.0031Z" fill="#4285F4"/>
<path d="M12.3635 14.0031H14.909C15.5126 14.0031 15.9999 13.514 15.9999 12.9122V5.09399L12.3635 7.82127" fill="#34A853"/>
<path d="M12.3635 3.094V7.82128L15.9999 5.094V3.63946C15.9999 2.29037 14.4599 1.52128 13.3817 2.33037" fill="#FBBC04"/>
<path d="M3.63647 7.82127V3.09399L8.00011 6.36672L12.3637 3.09399V7.82127L8.00011 11.094" fill="#EA4335"/>
<path d="M0 3.63946V5.094L3.63636 7.82128V3.094L2.61818 2.33037C1.53818 1.52128 0 2.29037 0 3.63946Z" fill="#C5221F"/>
</svg>
