<svg width="16" height="16" viewBox="0 0 16 16" fill="none" xmlns="http://www.w3.org/2000/svg">
<g clip-path="url(#clip0_1447_1815)">
<g opacity="0.6">
<path d="M16 3.78947H12.2105V12.2105H16V3.78947Z" fill="#FF00FF"/>
<path d="M12.2105 12.2105H3.78947V16H12.2105V12.2105Z" fill="#FF00FF"/>
<path d="M12.2105 0H1.26316C0.565263 0 0 0.565263 0 1.26316V12.2105H3.78947V3.78947H12.2105V0Z" fill="#FF00FF"/>
</g>
<path d="M12.2105 16L16 12.2105H12.2105V16Z" fill="#FF00FF"/>
<path d="M0 12.2105V14.7368C0 15.4347 0.565263 16 1.26316 16H3.78947V12.2105H0Z" fill="#FF00FF"/>
<path d="M16 3.78947V1.26316C16 0.565263 15.4347 0 14.7368 0H12.2105V3.78947H16Z" fill="#FF00FF"/>
<path d="M5.51685 10.3221C5.20211 10.1095 4.98422 9.79894 4.86527 9.38841L5.5958 9.08736C5.66211 9.33999 5.7779 9.53578 5.94317 9.67473C6.10738 9.81368 6.30738 9.8821 6.54106 9.8821C6.78001 9.8821 6.98527 9.80947 7.15685 9.6642C7.32843 9.51894 7.41475 9.33368 7.41475 9.10946C7.41475 8.87999 7.32422 8.69262 7.14317 8.54736C6.96211 8.4021 6.73475 8.32947 6.46317 8.32947H6.04106V7.60631H6.42001C6.65369 7.60631 6.85054 7.54315 7.01054 7.41683C7.17054 7.29052 7.25054 7.11789 7.25054 6.89789C7.25054 6.7021 7.17896 6.54631 7.0358 6.42947C6.89264 6.31262 6.71159 6.25368 6.49159 6.25368C6.27685 6.25368 6.10632 6.31052 5.98001 6.42525C5.85378 6.5403 5.75887 6.68555 5.70422 6.84736L4.98106 6.54631C5.07685 6.27473 5.25264 6.03473 5.51054 5.82736C5.76843 5.61999 6.09791 5.51578 6.4979 5.51578C6.79369 5.51578 7.06001 5.57262 7.2958 5.68736C7.53159 5.8021 7.71685 5.96104 7.85053 6.16315C7.98422 6.36631 8.05054 6.59368 8.05054 6.84631C8.05054 7.1042 7.98843 7.3221 7.86422 7.50104C7.74001 7.67999 7.58738 7.81683 7.40632 7.91262V7.95578C7.64011 8.05217 7.84318 8.21048 7.99369 8.41368C8.14633 8.61894 8.22317 8.8642 8.22317 9.15052C8.22317 9.43683 8.15053 9.69263 8.00527 9.91684C7.86001 10.141 7.65896 10.3179 7.40422 10.4463C7.14843 10.5747 6.86106 10.64 6.54211 10.64C6.17264 10.641 5.83159 10.5347 5.51685 10.3221ZM10.0042 6.69683L9.20212 7.27683L8.80106 6.66841L10.24 5.63052H10.7916V10.5263H10.0042V6.69683Z" fill="#FF00FF"/>
</g>
<defs>
<clipPath id="clip0_1447_1815">
<rect width="16" height="16" fill="white"/>
</clipPath>
</defs>
</svg>
