<svg width="16" height="16" viewBox="0 0 16 16" fill="none" xmlns="http://www.w3.org/2000/svg">
<g clip-path="url(#clip0_1447_1821)">
<path d="M4.6125 13.6L6.4125 12L4.6125 10.4V13.6Z" fill="#FF00FF"/>
<path d="M9.2125 6.4C10.2015 6.4 10.7935 6.7888 11.1159 7.115C11.8041 7.811 11.8135 8.6976 11.8125 8.8V13.6H10.2125V8.822C10.2047 8.4486 10.0249 8 9.2125 8C7.5857 8 5.7609 8.8182 5.7427 8.8264L4.6125 9.3384V2.4H6.2125V6.9422C7.0113 6.6822 8.1279 6.4 9.2125 6.4Z" fill="#FF00FF"/>
<path d="M10.2125 2.4C10.0361 3.3068 9.6413 4.175 9.0125 5H10.6125C11.3361 4.18 11.7045 3.3088 11.8125 2.4H10.2125Z" fill="#FF00FF"/>
<path fill-rule="evenodd" clip-rule="evenodd" d="M2.2525 0H13.7725C14.5677 0 15.2125 0.6448 15.2125 1.44V14.56C15.2125 15.3552 14.5677 16 13.7725 16H2.2525C1.4573 16 0.8125 15.3552 0.8125 14.56V1.44C0.8125 0.6448 1.4573 0 2.2525 0ZM13.7725 15.2C14.1255 15.2 14.4125 14.9128 14.4125 14.56V1.44C14.4125 1.087 14.1255 0.8 13.7725 0.8H2.2525C1.8997 0.8 1.6125 1.087 1.6125 1.44V14.56C1.6125 14.9128 1.8997 15.2 2.2525 15.2H13.7725Z" fill="#FF00FF"/>
</g>
<defs>
<clipPath id="clip0_1447_1821">
<rect width="16" height="16" fill="white"/>
</clipPath>
</defs>
</svg>
