<svg width="16" height="16" viewBox="0 0 16 16" fill="none" xmlns="http://www.w3.org/2000/svg">
<path fill-rule="evenodd" clip-rule="evenodd" d="M4.45009 3.83233C1.96546 3.83233 0 5.83681 0 9.15905C0 12.4813 1.96546 14.5043 4.43155 14.5043C5.89637 14.5043 6.93473 13.8547 7.47245 12.9267V14.3744H11.1252V0.640015H7.47245V5.39138C6.89764 4.44481 5.82221 3.83233 4.45009 3.83233ZM5.5997 7.00609C6.61951 7.00609 7.49099 7.76705 7.49099 9.15905C7.49099 10.5696 6.61951 11.3306 5.5997 11.3306C4.56135 11.3306 3.70841 10.5511 3.70841 9.15905C3.70841 7.74849 4.56135 7.00609 5.5997 7.00609Z" fill="#FF00FF"/>
<path d="M14.08 14.56C15.1404 14.56 16 13.7004 16 12.64C16 11.5796 15.1404 10.72 14.08 10.72C13.0196 10.72 12.16 11.5796 12.16 12.64C12.16 13.7004 13.0196 14.56 14.08 14.56Z" fill="#FF00FF"/>
</svg>
