<svg width="16" height="16" viewBox="0 0 16 16" fill="none" xmlns="http://www.w3.org/2000/svg">
<path d="M4.15903 9.22374H4.34039C4.39409 9.37174 4.42098 9.51908 4.42098 9.66681C4.42098 9.81415 4.41424 9.91016 4.40079 9.95502C4.13224 9.99947 3.8927 10.0216 3.68218 10.0216C3.37775 10.0216 3.16182 9.9475 3.03401 9.79899C2.90635 9.65021 2.83459 9.41646 2.83459 9.097L2.83498 4.50641L2.88326 4.50734L3.29901 4.50734C3.50611 4.50733 3.65177 4.50732 3.73601 4.59927C3.82111 4.69238 3.88758 4.85397 3.88758 5.08413V8.9118C3.88758 9.12006 3.96184 9.22374 4.15903 9.22374Z" fill="#FF00FF"/>
<path d="M13.6222 9.00388C13.6222 8.49868 13.3245 8.14162 12.7289 7.93322L12.3119 7.78641C12.1417 7.72429 12.0567 7.64014 12.0567 7.53369C12.0567 7.47155 12.0798 7.42066 12.1268 7.38068C12.1743 7.34058 12.2419 7.32066 12.3318 7.32066C12.5826 7.32066 12.8958 7.40495 13.2721 7.57352C13.3574 7.51138 13.4289 7.40613 13.4872 7.25748C13.5451 7.10896 13.57 6.97257 13.5611 6.84833C13.5208 6.82843 13.4775 6.80421 13.4312 6.77833C13.3027 6.70643 13.1512 6.62168 12.9769 6.58084C12.7394 6.52544 12.5225 6.49773 12.3254 6.49773C11.927 6.49773 11.6102 6.66763 11.3752 6.86495C11.1401 7.06255 11.0226 7.32965 11.0226 7.66666C11.0226 8.1282 11.3024 8.46046 11.8619 8.66438L12.2317 8.80407C12.4376 8.87054 12.5409 8.97027 12.5409 9.10362C12.5409 9.17457 12.5074 9.23104 12.44 9.27311C12.3727 9.31532 12.2761 9.33629 12.1511 9.33629C11.8868 9.33629 11.5754 9.24315 11.2175 9.05718C11.1417 9.13685 11.0755 9.24593 11.0195 9.38323C10.9636 9.52054 10.9331 9.64702 10.9289 9.76231C11.3183 9.9797 11.741 10.1121 12.1981 10.1121C12.6551 10.1121 13.0062 9.9909 13.2524 9.79555C13.4988 9.60034 13.6222 9.33641 13.6222 9.00388Z" fill="#FF00FF"/>
<path d="M9.75366 7.93322C10.3493 8.14162 10.6469 8.49868 10.6469 9.00388C10.6469 9.33641 10.5234 9.60034 10.2775 9.79555C10.0311 9.9909 9.67981 10.1121 9.22291 10.1121C8.76626 10.1121 8.34298 9.9797 7.95374 9.76231C7.95795 9.64702 7.98842 9.52054 8.04447 9.38323C8.10041 9.24593 8.16635 9.13685 8.24247 9.05718C8.60073 9.24315 8.91201 9.33629 9.17621 9.33629C9.30125 9.33629 9.39793 9.31532 9.46495 9.27311C9.53209 9.23104 9.56585 9.17457 9.56585 9.10362C9.56585 8.97027 9.46257 8.87054 9.25668 8.80407L8.88708 8.66438C8.32742 8.46046 8.04753 8.1282 8.04753 7.66666C8.04753 7.32965 8.16505 7.06255 8.40036 6.86495C8.63528 6.66763 8.95197 6.49773 9.35032 6.49773C9.54726 6.49773 9.76476 6.52544 10.0017 6.58084C10.1761 6.62165 10.3274 6.70631 10.4558 6.77817C10.5022 6.80412 10.5456 6.82839 10.586 6.84833C10.595 6.97257 10.57 7.10896 10.5121 7.25748C10.454 7.40613 10.3823 7.51138 10.2971 7.57352C9.92068 7.40495 9.60754 7.32066 9.35654 7.32066C9.26685 7.32066 9.19892 7.34058 9.15169 7.38068C9.10486 7.42066 9.08152 7.47155 9.08152 7.53369C9.08152 7.64014 9.16659 7.72429 9.33688 7.78641L9.75366 7.93322Z" fill="#FF00FF"/>
<path fill-rule="evenodd" clip-rule="evenodd" d="M7.48666 7.41469C7.55155 7.58775 7.584 7.77624 7.584 7.98016C7.584 8.2507 7.55485 8.50276 7.49718 8.68926H5.75101C5.76008 8.8862 5.81132 9.01585 5.90473 9.12547C5.99824 9.23547 6.1523 9.28994 6.36638 9.28994C6.47335 9.28994 6.59721 9.27491 6.73768 9.24509C6.87802 9.21486 7.03987 9.16566 7.22282 9.09695C7.36989 9.24773 7.46143 9.45204 7.49691 9.709C7.13867 9.96159 6.69996 10.112 6.18066 10.112C5.89864 10.112 5.66241 10.0439 5.47208 9.95525C5.28174 9.86675 5.12729 9.74262 5.00858 9.58303C4.88998 9.42315 4.80597 9.23479 4.75677 9.01781C4.70744 8.80057 4.6829 8.56289 4.6829 8.30594C4.6829 8.0577 4.71311 7.8282 4.77353 7.61754C4.83394 7.40691 4.92574 7.22407 5.04907 7.0687C5.17214 6.91345 5.32885 6.79158 5.51905 6.70293L5.56554 6.68109C5.74527 6.59634 5.95253 6.49861 6.18726 6.49861C6.36193 6.49861 6.52257 6.56922 6.66924 6.63369C6.703 6.64853 6.73602 6.66304 6.7683 6.67629C6.94057 6.74726 7.08711 6.84475 7.20807 6.96899C7.3289 7.09324 7.4219 7.24164 7.48666 7.41469ZM5.86769 7.45798C5.79896 7.55769 5.75766 7.79987 5.74436 8.02621H6.62413L6.624 7.95274C6.624 7.78867 6.58736 7.5742 6.514 7.46775C6.4408 7.3613 6.3308 7.30827 6.18424 7.30827C6.04193 7.30827 5.93655 7.35814 5.86769 7.45798Z" fill="#FF00FF"/>
<path d="M15.4645 8.46874C15.2747 8.63454 15.1646 8.87315 15.1646 9.1851V10.3469C15.1646 10.7331 15.0459 11.0269 14.7777 11.2288C14.5098 11.4305 14.1975 11.5303 13.8409 11.5399L13.6296 11.5384V10.9594C13.8159 10.9051 13.8924 10.8419 13.9665 10.7702C14.1008 10.6488 14.2037 10.4514 14.2037 10.1771V9.23918C14.2087 8.92037 14.2332 8.67055 14.3493 8.4901C14.4658 8.30966 14.6925 8.1519 15.0295 8.01565C14.6573 7.84523 14.4073 7.6227 14.2799 7.34822C14.205 7.18519 14.2035 6.96518 14.2035 6.68843V5.8283C14.2035 5.54417 14.1105 5.34515 13.9962 5.23157C13.9218 5.15743 13.8352 5.09821 13.6294 5.05351V4.51006C13.7951 4.51179 13.9068 4.51114 14.0056 4.51056C14.057 4.51025 14.1048 4.50997 14.155 4.51006C14.3808 4.50822 14.57 4.63168 14.7346 4.76028C14.9138 4.90128 15.0412 5.09189 15.1159 5.33181C15.1584 5.47044 15.1644 5.60288 15.1644 5.72897V6.72378C15.1644 7.07516 15.2682 7.33634 15.4457 7.50688C15.5457 7.60582 15.6868 7.69629 15.9291 7.77795V8.22735C15.7144 8.28672 15.5796 8.36717 15.4645 8.46874Z" fill="#FF00FF"/>
<path d="M2.10765 4.51114L2.64414 4.51031V5.07985L2.40196 5.07816C2.2488 5.1193 2.13854 5.17009 2.07655 5.23181C1.96231 5.34551 1.89637 5.54454 1.89637 5.82866V6.6888C1.89637 6.96552 1.86789 7.18553 1.79283 7.3487C1.66541 7.62305 1.41559 7.84545 1.04322 8.01599C1.38062 8.15212 1.60737 8.31014 1.72357 8.49032C1.83977 8.6709 1.89121 8.92047 1.89635 9.23953V10.1776C1.89635 10.4517 1.97233 10.649 2.10648 10.7705C2.18101 10.842 2.2844 10.9052 2.47052 10.9597V11.539L2.23192 11.5406C1.87538 11.5308 1.56318 11.4306 1.29528 11.229C1.02739 11.0274 0.93531 10.7334 0.93531 10.3474V9.1856C0.93531 8.87368 0.798406 8.63492 0.60847 8.46899C0.493729 8.36715 0.28689 8.28696 0.0720215 8.22773V7.77835C0.314459 7.6967 0.527619 7.60636 0.627481 7.50745C0.80476 7.33662 0.935476 7.07559 0.935476 6.72433V5.72951C0.935476 5.71081 0.935348 5.6921 0.93522 5.67332C0.934485 5.56543 0.933736 5.4555 0.957107 5.33236C1.00525 5.08584 1.1589 4.90182 1.33842 4.76082C1.50289 4.6321 1.69203 4.50863 1.91798 4.51061C1.9702 4.51047 2.03551 4.51074 2.10765 4.51114Z" fill="#FF00FF"/>
</svg>
