<svg width="16" height="16" viewBox="0 0 16 16" fill="none" xmlns="http://www.w3.org/2000/svg">
<g clip-path="url(#clip0_1447_2907)">
<path d="M16 1.17647V14.8235C16 15.1355 15.8761 15.4348 15.6554 15.6554C15.4348 15.8761 15.1355 16 14.8235 16H1.17647C0.864451 16 0.565211 15.8761 0.34458 15.6554C0.123949 15.4348 0 15.1355 0 14.8235L0 1.17647C0 0.864451 0.123949 0.565211 0.34458 0.34458C0.565211 0.123949 0.864451 0 1.17647 0L14.8235 0C15.1355 0 15.4348 0.123949 15.6554 0.34458C15.8761 0.565211 16 0.864451 16 1.17647Z" fill="#0A66C2"/>
<path d="M4.70573 6.11761H2.35279V13.647H4.70573V6.11761ZM4.91749 3.52938C4.91873 3.3514 4.8849 3.17492 4.81794 3.01001C4.75097 2.8451 4.65218 2.695 4.5272 2.56828C4.40222 2.44155 4.25351 2.34068 4.08955 2.27143C3.92559 2.20218 3.74959 2.1659 3.57161 2.16467H3.52926C3.16731 2.16467 2.8202 2.30845 2.56426 2.56439C2.30833 2.82032 2.16455 3.16744 2.16455 3.52938C2.16455 3.89132 2.30833 4.23844 2.56426 4.49437C2.8202 4.7503 3.16731 4.89408 3.52926 4.89408C3.70725 4.89846 3.88436 4.86773 4.05047 4.80363C4.21658 4.73954 4.36844 4.64334 4.49736 4.52054C4.62628 4.39774 4.72974 4.25074 4.80183 4.08794C4.87391 3.92514 4.91322 3.74973 4.91749 3.57173V3.52938ZM13.6469 9.07291C13.6469 6.80938 12.2069 5.92938 10.7763 5.92938C10.3079 5.90592 9.84155 6.00569 9.42373 6.21873C9.00592 6.43176 8.65126 6.75062 8.39514 7.1435H8.32926V6.11761H6.11749V13.647H8.47043V9.64232C8.43642 9.23217 8.56562 8.82517 8.82996 8.50972C9.09429 8.19428 9.47242 7.99587 9.8822 7.95761H9.97161C10.7198 7.95761 11.2751 8.4282 11.2751 9.61409V13.647H13.6281L13.6469 9.07291Z" fill="white"/>
</g>
<defs>
<clipPath id="clip0_1447_2907">
<rect width="16" height="16" fill="white"/>
</clipPath>
</defs>
</svg>
