<svg width="16" height="16" viewBox="0 0 16 16" fill="none" xmlns="http://www.w3.org/2000/svg">
<path fill-rule="evenodd" clip-rule="evenodd" d="M5.19995 3.6V5.6C4.09538 5.6 3.19995 6.49543 3.19995 7.6V11.6C3.19995 12.7046 4.09538 13.6 5.19995 13.6H10.8C11.9045 13.6 12.8 12.7046 12.8 11.6V7.6C12.8 6.49543 11.9045 5.6 10.8 5.6V3.6C10.8 2.49543 9.90452 1.6 8.79995 1.6H7.19995C6.09538 1.6 5.19995 2.49543 5.19995 3.6ZM9.99995 5.6V3.6C9.99995 2.93726 9.46269 2.4 8.79995 2.4H7.19995C6.53721 2.4 5.99995 2.93726 5.99995 3.6V5.6H9.99995ZM7.19995 8.8C7.19995 8.35817 7.55812 8 7.99995 8C8.44178 8 8.79995 8.35817 8.79995 8.8V10.4C8.79995 10.8418 8.44178 11.2 7.99995 11.2C7.55812 11.2 7.19995 10.8418 7.19995 10.4V8.8Z" fill="#FF00FF"/>
</svg>
