<svg width="16" height="16" viewBox="0 0 16 16" fill="none" xmlns="http://www.w3.org/2000/svg">
<g clip-path="url(#clip0_1447_2931)">
<path d="M15.1377 9.83224C15.3521 10.1089 15.4624 10.4522 15.4493 10.802C15.4268 11.3476 15.3127 11.8856 15.1118 12.3933L15.1071 12.4052C14.6529 13.4973 13.86 14.4147 12.8451 15.0221C11.7889 15.6365 10.5854 15.952 9.36353 15.935C9.28446 15.935 9.20389 15.9338 9.12449 15.9314C7.91859 15.9062 6.7414 15.5588 5.71511 14.9251C4.81174 14.3589 4.08069 13.5562 3.60131 12.6039C3.04903 12.5182 2.53343 12.2742 2.11684 11.9016C1.5989 11.4591 1.26711 10.8374 1.18783 10.1608C1.15251 9.83208 1.17156 9.49977 1.24424 9.17722L1.01718 8.98522C0.833396 8.82648 0.684038 8.63181 0.578303 8.41319C0.472569 8.19457 0.412696 7.95663 0.402369 7.714C0.38374 7.21036 0.470782 6.7084 0.657892 6.24044C1.12399 4.96792 2.19623 3.45266 3.52634 2.18704C4.1199 1.61105 4.77834 1.10595 5.48844 0.681871C6.0807 0.303063 6.76091 0.0839736 7.46292 0.0459094C7.91569 0.0341005 8.35669 0.190986 8.70027 0.486096C8.71988 0.503204 9.01383 0.790689 9.23678 1.00909C9.29273 0.98548 9.33298 0.968496 9.33416 0.968049C9.99374 0.680748 10.7026 0.523443 11.4218 0.504763C12.7543 0.504763 13.6165 1.21936 13.6182 2.32532C13.6192 3.00772 13.2842 3.77272 12.6665 4.51328C12.8345 4.77312 12.9617 5.05724 13.0434 5.35569C13.1312 5.66121 13.1792 5.97676 13.1864 6.29455C13.1924 6.43127 13.1985 6.65065 13.2034 6.84428C13.6591 6.95962 14.0803 7.18326 14.431 7.49618C14.6688 7.73211 14.8248 8.03804 14.876 8.36909C14.9275 8.69586 14.877 9.03057 14.7314 9.32761C14.7444 9.36481 14.7579 9.4052 14.7713 9.448C14.783 9.48533 14.794 9.5213 14.8043 9.55544C14.9325 9.62487 15.0458 9.71894 15.1377 9.83224Z" fill="white"/>
<path d="M4.60522 10.5497C4.614 10.5603 4.61935 10.5733 4.62058 10.5871C4.62181 10.6008 4.61885 10.6146 4.61209 10.6266C4.57925 10.6799 4.53216 10.723 4.47614 10.7509C4.42013 10.7789 4.35741 10.7907 4.29506 10.7849C4.18394 10.773 4.08151 10.7193 4.00847 10.6347C3.93543 10.5501 3.89722 10.4409 3.90157 10.3292C3.89969 10.177 3.92748 10.0259 3.98338 9.88438C4.01867 9.79567 4.02235 9.69752 3.99381 9.60643C3.96527 9.51533 3.90624 9.43683 3.82664 9.38412C3.77953 9.35295 3.72666 9.33153 3.67114 9.32113C3.61562 9.31074 3.55858 9.31157 3.50338 9.32359C3.44931 9.33496 3.39805 9.35704 3.35263 9.38851C3.30722 9.41999 3.26855 9.46023 3.23891 9.50687C3.19699 9.57864 3.16439 9.65548 3.14191 9.7355C3.13757 9.74959 3.13407 9.76065 3.13142 9.7678C3.09459 9.86715 3.03587 9.89611 2.99608 9.89079C2.97727 9.88819 2.95141 9.87561 2.93483 9.83014C2.91402 9.69868 2.92347 9.56421 2.96244 9.43696C3.00142 9.3097 3.0689 9.193 3.15976 9.09575C3.23606 9.01381 3.33077 8.95122 3.43607 8.91314C3.54136 8.87507 3.6542 8.8626 3.76526 8.87678C3.88292 8.89295 3.99473 8.93805 4.09068 9.00804C4.18663 9.07803 4.26373 9.17072 4.31507 9.27781C4.36706 9.40944 4.38804 9.55127 4.37638 9.69231C4.36472 9.83335 4.32074 9.96981 4.24785 10.0911C4.23862 10.1117 4.23018 10.1307 4.22307 10.1478C4.19686 10.1952 4.18246 10.2482 4.18111 10.3023C4.17976 10.3564 4.19148 10.4101 4.21529 10.4587C4.23542 10.4877 4.26243 10.5113 4.2939 10.5273C4.32537 10.5433 4.36031 10.5512 4.3956 10.5504C4.42888 10.5499 4.46195 10.5452 4.49405 10.5365C4.53583 10.5267 4.57899 10.5166 4.60522 10.5497L4.60522 10.5497ZM14.9037 10.8068C14.8803 11.2863 14.779 11.7589 14.6037 12.2058C13.7291 14.3079 11.642 15.4782 9.15562 15.4041C6.83777 15.335 4.86089 14.1082 3.99568 12.1083C3.44947 12.093 2.92694 11.882 2.52333 11.5137C2.10638 11.1582 1.8385 10.6588 1.77295 10.1149C1.73064 9.74066 1.77692 9.36173 1.90806 9.00868L1.42215 8.5958C-0.801172 6.7128 6.1528 -1.04024 8.37698 0.905641C8.38819 0.915436 9.13356 1.64905 9.13543 1.65086C9.13839 1.64934 9.54669 1.47568 9.54876 1.47483C11.4995 0.664553 13.0825 1.05579 13.0845 2.34861C13.0855 3.02096 12.6584 3.80463 11.9742 4.51599C12.2477 4.79429 12.4413 5.14098 12.5348 5.51977C12.6102 5.78403 12.651 6.05697 12.656 6.33174C12.6679 6.60572 12.6811 7.24403 12.6824 7.2554C12.6998 7.26066 12.8973 7.31502 12.9571 7.33189C13.3551 7.41919 13.7255 7.60319 14.0355 7.86764C14.1991 8.02765 14.3063 8.23653 14.3408 8.46278C14.383 8.75633 14.3098 9.05481 14.1365 9.29549C14.1816 9.39832 14.2207 9.50367 14.2537 9.61101C14.3112 9.79617 14.3531 9.94982 14.3596 9.97262C14.5712 9.97261 14.9037 10.217 14.9037 10.8068L14.9037 10.8068ZM5.07822 9.65328C4.92702 8.67169 4.26503 8.32575 3.81584 8.30107C3.70309 8.29509 3.59003 8.30315 3.47927 8.32508C2.67754 8.48731 2.22473 9.17139 2.31383 10.0603C2.37872 10.459 2.57616 10.8242 2.87425 11.0968C3.17233 11.3695 3.55364 11.5336 3.95655 11.5628C4.03366 11.5649 4.11078 11.5594 4.18684 11.5466C4.99943 11.4076 5.21217 10.5226 5.07822 9.65328ZM6.44857 3.42217C7.1277 2.86383 7.85216 2.36303 8.61443 1.92496C8.61443 1.92496 8.00918 1.22104 7.82639 1.16916C6.70219 0.86434 4.27365 2.54428 2.72311 4.76372C2.09572 5.66174 1.19759 7.25206 1.627 8.06996C1.77955 8.25354 1.95164 8.41996 2.14021 8.56629C2.4273 8.16162 2.86049 7.88444 3.34821 7.79332C3.95839 6.07803 5.03146 4.56512 6.44857 3.42217ZM8.89193 11.1899C8.92173 11.3204 8.9862 11.4403 9.07856 11.5372C9.17091 11.634 9.2877 11.7041 9.4166 11.74C9.55068 11.79 9.68903 11.8277 9.82993 11.8526C11.6082 12.1595 13.2707 11.1396 13.645 10.8827C13.6731 10.8634 13.6917 10.8822 13.6692 10.9163C13.6579 10.9344 13.6457 10.9519 13.6325 10.9687C13.1744 11.5614 11.9428 12.2478 10.3405 12.2476C9.64167 12.2474 8.9432 12.0005 8.68675 11.621C8.28887 11.0323 8.66704 10.1729 9.33001 10.2624C9.33079 10.2626 9.55686 10.2883 9.62041 10.2953C10.651 10.3944 11.6898 10.2277 12.6375 9.81104C13.5421 9.38987 13.8838 8.92638 13.8325 8.55118C13.8154 8.43466 13.7606 8.32694 13.6765 8.24443C13.4292 8.04082 13.1355 7.90128 12.8214 7.83814C12.6777 7.79769 12.5803 7.77187 12.4752 7.73716C12.2885 7.67548 12.1962 7.62583 12.1753 7.27366C12.1662 7.11965 12.1394 6.58311 12.1297 6.36137C12.1127 5.97286 12.0661 5.44182 11.7376 5.22256C11.6539 5.16751 11.5568 5.13638 11.4568 5.13252C11.4007 5.12911 11.3444 5.13464 11.29 5.14891C11.1236 5.18742 10.9719 5.27342 10.8534 5.39647C10.6999 5.53525 10.5193 5.6408 10.3231 5.70651C10.1268 5.77222 9.91911 5.79668 9.71296 5.77833C9.48309 5.76872 9.23948 5.7328 8.96024 5.71617C8.90592 5.71296 8.85136 5.70958 8.79693 5.7068C8.43738 5.71623 8.09318 5.85447 7.82698 6.09634C7.56079 6.33821 7.39031 6.66764 7.34658 7.02464C7.1867 8.12801 7.98332 8.69817 8.2133 9.03275C8.24883 9.07536 8.27087 9.12758 8.2766 9.18277C8.27053 9.24397 8.24123 9.30052 8.19473 9.34077V9.34114C7.87662 9.69554 7.65304 10.1245 7.54468 10.5882C7.43632 11.0519 7.44669 11.5355 7.57482 11.9942C7.60522 12.1043 7.64418 12.2119 7.69135 12.316C8.27262 13.6785 10.0758 14.3129 11.8375 13.7358C12.0681 13.6603 12.292 13.5655 12.5068 13.4523C12.8925 13.2611 13.2399 13.0007 13.5317 12.684C13.9854 12.228 14.2839 11.6407 14.385 11.0055C14.438 10.6543 14.3604 10.5185 14.2545 10.4531C14.1797 10.4114 14.0932 10.3955 14.0084 10.408C13.9636 10.1322 13.8848 9.863 13.7741 9.60647C13.271 9.98612 12.7022 10.2699 12.0963 10.4435C11.3673 10.6495 10.6089 10.7317 9.85265 10.6868C9.36615 10.6474 9.04429 10.5049 8.92323 10.8996C9.65914 11.1456 10.4405 11.2254 11.2109 11.133C11.2164 11.1324 11.2218 11.1329 11.2271 11.1345C11.2323 11.1361 11.2371 11.1386 11.2413 11.1421C11.2456 11.1455 11.2491 11.1498 11.2516 11.1546C11.2542 11.1594 11.2558 11.1647 11.2563 11.1701C11.2571 11.1792 11.2551 11.1883 11.2505 11.1963C11.2459 11.2042 11.239 11.2104 11.2307 11.2142C11.2307 11.2142 10.327 11.6351 8.89193 11.1899ZM6.24547 4.79154C6.84315 4.37193 7.51707 4.07316 8.22934 3.91202C9.03284 3.72582 9.86803 3.72356 10.6725 3.90543C10.7007 3.9119 10.7186 3.86298 10.6934 3.84884C10.276 3.63147 9.81514 3.51031 9.34474 3.49425C9.34021 3.49417 9.33579 3.49284 9.33196 3.4904C9.32814 3.48797 9.32506 3.48453 9.32306 3.48046C9.32107 3.47639 9.32024 3.47185 9.32066 3.46734C9.32108 3.46282 9.32274 3.45851 9.32545 3.45488C9.39851 3.35897 9.48387 3.27308 9.57931 3.1994C9.58358 3.19607 9.58668 3.19145 9.58816 3.18623C9.58963 3.18101 9.5894 3.17545 9.58749 3.17037C9.58559 3.1653 9.58212 3.16096 9.57757 3.15799C9.57303 3.15502 9.56766 3.15358 9.56225 3.15387C8.98621 3.21082 8.43263 3.40686 7.94913 3.72513C7.945 3.72793 7.94012 3.72942 7.93513 3.72941C7.93014 3.72939 7.92527 3.72788 7.92116 3.72506C7.91704 3.72224 7.91387 3.71825 7.91205 3.71361C7.91023 3.70896 7.90986 3.70387 7.91097 3.69901C7.94991 3.55306 8.00726 3.41265 8.08164 3.28117C8.0841 3.27668 8.08506 3.27151 8.08437 3.26642C8.08368 3.26134 8.08138 3.25661 8.0778 3.25294C8.07423 3.24926 8.06956 3.24683 8.0645 3.246C8.05944 3.24518 8.05425 3.24599 8.04969 3.24834C7.35045 3.63429 6.72765 4.14481 6.212 4.75473C6.20796 4.75936 6.20577 4.76531 6.20583 4.77145C6.20589 4.77759 6.20821 4.7835 6.21234 4.78804C6.21647 4.79259 6.22213 4.79545 6.22824 4.7961C6.23434 4.79674 6.24048 4.79512 6.24547 4.79154ZM10.9284 8.53689C10.9771 8.56771 11.0354 8.57952 11.0922 8.57008C11.149 8.56063 11.2004 8.53059 11.2365 8.48569C11.2813 8.39888 11.2162 8.28113 11.091 8.22264C11.0423 8.19183 10.9839 8.18003 10.9271 8.1895C10.8703 8.19897 10.8189 8.22903 10.7829 8.27396C10.738 8.36071 10.8031 8.47846 10.9284 8.53689ZM11.3126 7.12907C11.3426 7.28538 11.4075 7.43292 11.5023 7.56077C11.6002 7.54873 11.6993 7.54873 11.7973 7.56077C11.8545 7.3892 11.8596 7.20448 11.8117 7.03005C11.7409 6.70821 11.6451 6.51342 11.4471 6.54371C11.2491 6.57405 11.2418 6.80723 11.3126 7.12907ZM11.7338 7.86839C11.6838 7.85406 11.6307 7.85574 11.5817 7.87318C11.5328 7.89062 11.4906 7.92296 11.461 7.96564C11.4314 8.00832 11.4159 8.05921 11.4167 8.11115C11.4175 8.16308 11.4346 8.21346 11.4655 8.25521C11.4964 8.29695 11.5396 8.32796 11.589 8.34388C11.6385 8.3598 11.6917 8.35983 11.7411 8.34396C11.7906 8.3281 11.8338 8.29713 11.8648 8.25542C11.8958 8.21371 11.9129 8.16335 11.9137 8.11141C11.9209 8.0555 11.9062 7.99899 11.8726 7.95369C11.8391 7.9084 11.7893 7.87783 11.7338 7.86839Z" fill="black"/>
<path d="M8.44667 7.83963C8.41509 7.83519 8.40163 7.82168 8.39766 7.80378C8.3854 7.74826 8.47079 7.65688 8.5608 7.59092C8.69217 7.49488 8.84604 7.43424 9.00762 7.41484C9.16919 7.39545 9.33304 7.41794 9.48341 7.48017C9.62391 7.53812 9.74473 7.63536 9.83138 7.76023C9.86356 7.81273 9.86978 7.85344 9.84898 7.87477C9.81657 7.90897 9.7339 7.8698 9.59932 7.81077C9.43766 7.73145 9.25901 7.69297 9.07903 7.69871C8.86577 7.7338 8.65465 7.78085 8.44667 7.83963ZM9.788 8.11578C9.72986 8.05465 9.65745 8.0089 9.57728 7.98262C9.49711 7.95634 9.41168 7.95036 9.32863 7.9652C9.20615 7.97823 9.09011 8.02659 8.99464 8.1044C8.95015 8.13633 8.91957 8.18409 8.90919 8.23786C8.90895 8.24384 8.91002 8.2498 8.91234 8.25531C8.91465 8.26083 8.91815 8.26578 8.92258 8.2698C8.93047 8.27696 8.94078 8.28088 8.95144 8.28076C8.9955 8.2743 9.03858 8.26235 9.07968 8.2452C9.2596 8.1774 9.45399 8.15721 9.644 8.1866C9.73206 8.19649 9.77366 8.202 9.79298 8.17178C9.79794 8.16305 9.80012 8.15301 9.79923 8.143C9.79834 8.133 9.79442 8.1235 9.788 8.11578Z" fill="black"/>
</g>
<defs>
<clipPath id="clip0_1447_2931">
<rect width="16" height="16" fill="white"/>
</clipPath>
</defs>
</svg>
