<svg width="16" height="16" viewBox="0 0 16 16" fill="none" xmlns="http://www.w3.org/2000/svg">
<g clip-path="url(#clip0_1447_1720)">
<path d="M14.1057 3.43669L8.52842 0.216189C8.02804 -0.0720629 7.40688 -0.0720629 6.90548 0.216189C6.4051 0.505455 6.09452 1.04339 6.09452 1.62091V2.04111L5.73116 1.83101C5.23078 1.54276 4.60962 1.54276 4.10822 1.83101C3.60784 2.12027 3.29726 2.65821 3.29726 3.23674V3.65694L2.9339 3.44684C2.43352 3.15859 1.81236 3.15859 1.31096 3.44684C0.81058 3.73611 0.5 4.27404 0.5 4.85258V14.9434C0.5 15.2337 0.668484 15.5037 0.930347 15.6295C1.19119 15.7564 1.50787 15.7219 1.73522 15.5422L4.50101 13.3611L8.76592 15.8234C8.88366 15.8914 9.0156 15.9249 9.14755 15.9249C9.2795 15.9249 9.41144 15.8904 9.52918 15.8234C9.76465 15.6874 9.91081 15.4347 9.91081 15.1626V9.09008C9.91081 8.09338 9.37491 7.16569 8.51218 6.66734L7.11355 5.85943V1.62192C7.11355 1.40675 7.22926 1.20579 7.41601 1.0982C7.60277 0.990611 7.83418 0.990611 8.02093 1.0982L13.5982 4.31769C14.1473 4.63436 14.4883 5.22608 14.4883 5.85943V13.421C14.4883 13.6361 14.3726 13.8371 14.1859 13.9447L12.7081 14.7983V7.47425C12.7081 6.47754 12.1722 5.54986 11.3094 5.05151L7.87579 3.06927V4.24359L10.8009 5.9325C11.35 6.24918 11.6911 6.83989 11.6911 7.47425V15.2378C11.6911 15.5088 11.8372 15.7625 12.0727 15.8985C12.1904 15.9665 12.3224 16 12.4543 16C12.5863 16 12.7182 15.9655 12.836 15.8985L14.6954 14.8247C15.1958 14.5354 15.5063 13.9975 15.5063 13.4189V5.8574C15.5043 4.86374 14.9684 3.93504 14.1057 3.43669ZM8.00165 7.54834C8.55075 7.86501 8.89178 8.45572 8.89178 9.09008V14.7232L5.35968 12.6841L6.4934 11.7909C6.8862 11.4813 7.11152 11.0175 7.11152 10.5171V7.03578L8.00165 7.54834ZM6.09452 6.44709V10.5151C6.09452 10.7019 6.01028 10.8754 5.86412 10.9901L1.517 14.4177V4.85156C1.517 4.63639 1.63271 4.43542 1.81946 4.32784C2.00622 4.22025 2.23763 4.22025 2.42438 4.32784L3.29726 4.83126V12.0426L4.31426 11.2408V3.23674C4.31426 3.02157 4.42997 2.8206 4.61672 2.71302C4.80348 2.60543 5.03489 2.60543 5.22164 2.71302L6.09452 3.21644V5.27176L5.07752 4.68409V5.85943L6.09452 6.44709Z" fill="#FF00FF"/>
</g>
<defs>
<clipPath id="clip0_1447_1720">
<rect width="16" height="16" fill="white"/>
</clipPath>
</defs>
</svg>
