<svg width="16" height="16" viewBox="0 0 16 16" fill="none" xmlns="http://www.w3.org/2000/svg">
<g clip-path="url(#clip0_1447_1726)">
<path fill-rule="evenodd" clip-rule="evenodd" d="M0.888889 0C0.397969 0 0 0.39797 0 0.888889V15.1111C0 15.602 0.39797 16 0.888889 16H15.1111C15.602 16 16 15.602 16 15.1111V0.888889C16 0.397969 15.602 0 15.1111 0H0.888889ZM12.8354 7.56557C12.6375 4.99868 10.8241 2.80924 8.36553 2.1689C7.37997 1.91224 5.97997 1.95524 5.00086 2.27224C4.29152 2.5019 3.31464 3.01757 3.31464 3.16235C3.31464 3.18946 3.74764 3.72624 4.27686 4.35524C4.80597 4.98424 5.25397 5.51757 5.27219 5.54046C5.29041 5.56346 5.50852 5.5009 5.75675 5.40157C6.69675 5.02546 7.9033 5.22046 8.66397 5.87157C9.5123 6.59779 9.8493 7.80102 9.51586 8.9139C9.33964 9.50202 8.5403 10.372 7.95441 10.6132C7.36708 10.855 6.29275 10.8595 5.73953 10.6222L5.33108 10.4471L4.46175 11.4733C3.98364 12.0378 3.5253 12.5851 3.4433 12.6896C3.31086 12.8583 3.3543 12.9178 3.83219 13.2209C4.66386 13.7487 5.62019 13.999 6.79852 13.9975C8.58575 13.9951 9.8913 13.4559 11.1113 12.2159C12.3741 10.9327 12.971 9.32279 12.8354 7.56557Z" fill="#FF00FF"/>
</g>
<defs>
<clipPath id="clip0_1447_1726">
<rect width="16" height="16" fill="white"/>
</clipPath>
</defs>
</svg>
