<svg width="16" height="16" viewBox="0 0 16 16" fill="none" xmlns="http://www.w3.org/2000/svg">
<g clip-path="url(#clip0_1447_3001)">
<rect width="16" height="16" fill="#01CAFA"/>
<path fill-rule="evenodd" clip-rule="evenodd" d="M1.125 1.125H14.875V14.875H1.125V1.125Z" fill="#130F31"/>
<path fill-rule="evenodd" clip-rule="evenodd" d="M10.7867 6.98156C10.2606 6.98156 10.0809 7.2479 10.0809 7.46763C10.0809 7.70734 10.2007 7.87381 10.9065 8.24003C11.9519 8.7461 12.2782 9.23217 12.2782 9.94465C12.2782 11.01 11.4658 11.5827 10.3672 11.5827C9.78786 11.5827 9.28845 11.4628 9.00214 11.2964C8.95554 11.2764 8.94888 11.2431 8.94888 11.1898V10.211C8.94888 10.1444 8.98217 10.1244 9.0288 10.1577C9.44829 10.4307 9.9277 10.5506 10.3672 10.5506C10.8932 10.5506 11.1129 10.3309 11.1129 10.0312C11.1129 9.7915 10.9598 9.57842 10.2872 9.23217C9.34171 8.77939 8.94888 8.31995 8.94888 7.55421C8.94888 6.69523 9.62142 5.98277 10.7867 5.98277C11.3593 5.98277 11.7588 6.06935 11.9785 6.16921C12.0318 6.2025 12.0451 6.25577 12.0451 6.30237V7.21458C12.0451 7.26785 12.0118 7.30116 11.9452 7.28116C11.6523 7.09477 11.2195 6.98156 10.7867 6.98156ZM5.06024 7.77394C5.21339 7.78725 5.33326 7.78725 5.59959 7.78725C6.37868 7.78725 7.11111 7.51426 7.11111 6.45555C7.11111 5.60991 6.58507 5.18374 5.69948 5.18374C5.43315 5.18374 5.1801 5.19705 5.06024 5.20371V7.77394ZM3.87503 4.23821C3.87503 4.1916 3.96826 4.15829 4.0215 4.15829C4.44767 4.13832 5.08024 4.125 5.73943 4.125C7.58386 4.125 8.30297 5.13711 8.30297 6.42889C8.30297 8.12017 7.07779 8.84597 5.57296 8.84597C5.31994 8.84597 5.23339 8.83265 5.05358 8.83265V11.3896C5.05358 11.4428 5.0336 11.4695 4.97368 11.4695H3.95492C3.90166 11.4695 3.875 11.4495 3.875 11.3896V4.23821H3.87503Z" fill="#31C5F0"/>
</g>
<defs>
<clipPath id="clip0_1447_3001">
<rect width="16" height="16" fill="white"/>
</clipPath>
</defs>
</svg>
