<svg width="16" height="16" viewBox="0 0 16 16" fill="none" xmlns="http://www.w3.org/2000/svg">
<g clip-path="url(#clip0_1447_1770)">
<path fill-rule="evenodd" clip-rule="evenodd" d="M4.6875 11.3875V7.04667C4.6875 5.12244 6.24386 3.5625 8.16361 3.5625H8.19526C10.1031 3.5625 11.6294 5.10239 11.6245 7.00667L11.6238 7.06802C11.5543 8.93801 10.0105 10.4688 8.17944 10.4688C7.57677 10.4688 7.08821 9.97906 7.08821 9.375C7.08821 8.77094 7.57677 8.28125 8.17944 8.28125C8.82178 8.28125 9.41169 7.69773 9.44201 6.99386C9.43965 6.30066 8.891 5.75 8.19526 5.75H8.16361C7.4492 5.75 6.86996 6.33057 6.86996 7.04667V11.7188C6.86996 12.3228 6.3814 12.8125 5.77873 12.8125C5.51509 12.8125 5.27328 12.7188 5.08466 12.5628C5.2935 12.4616 5.4375 12.2476 5.4375 12C5.4375 11.6548 5.15768 11.375 4.8125 11.375C4.76969 11.375 4.72789 11.3793 4.6875 11.3875ZM8.1875 10.0625C8.5672 10.0625 8.875 9.7547 8.875 9.375C8.875 8.9953 8.5672 8.6875 8.1875 8.6875C7.8078 8.6875 7.5 8.9953 7.5 9.375C7.5 9.7547 7.8078 10.0625 8.1875 10.0625Z" fill="#FF00FF"/>
<path fill-rule="evenodd" clip-rule="evenodd" d="M8 16C3.58172 16 0 12.4183 0 8C0 3.58172 3.58172 0 8 0C12.4183 0 16 3.58172 16 8C16 12.4183 12.4183 16 8 16ZM8 15.2C11.9764 15.2 15.2 11.9764 15.2 8C15.2 4.02355 11.9764 0.8 8 0.8C4.02355 0.8 0.8 4.02355 0.8 8C0.8 11.9764 4.02355 15.2 8 15.2Z" fill="#FF00FF"/>
</g>
<defs>
<clipPath id="clip0_1447_1770">
<rect width="16" height="16" fill="white"/>
</clipPath>
</defs>
</svg>
