<svg width="16" height="16" viewBox="0 0 16 16" fill="none" xmlns="http://www.w3.org/2000/svg">
<g clip-path="url(#clip0_1447_1723)">
<path d="M9.74065 10.842C9.80676 10.7759 9.80676 10.6693 9.74065 10.604C9.67532 10.5387 9.56799 10.5387 9.50187 10.604C9.20632 10.8972 8.7171 11.0403 8.00543 11.0403L7.99921 11.0419L7.99299 11.0403C7.28054 11.0403 6.79132 10.8972 6.49654 10.604C6.43043 10.5387 6.3231 10.5387 6.25776 10.604C6.19165 10.6693 6.19165 10.7759 6.25776 10.8412C6.61943 11.2013 7.18721 11.3763 7.99299 11.3763L7.99921 11.3748L8.00543 11.3763C8.81199 11.3763 9.37899 11.2013 9.74065 10.842Z" fill="#FF00FF"/>
<path d="M6.34799 8.00855C6.7431 8.00855 7.0651 8.329 7.0651 8.72333C7.0651 9.11766 6.7431 9.43811 6.34799 9.43733C5.9521 9.43733 5.6301 9.11689 5.6301 8.72333C5.6301 8.329 5.9521 8.00855 6.34799 8.00855Z" fill="#FF00FF"/>
<path d="M9.6551 8.00933C9.25921 8.00933 8.93799 8.32977 8.93799 8.72411C8.93799 9.11766 9.25999 9.43811 9.6551 9.43811C10.0502 9.43811 10.3722 9.11766 10.3722 8.72411C10.3722 8.32977 10.051 8.00933 9.6551 8.00933Z" fill="#FF00FF"/>
<path fill-rule="evenodd" clip-rule="evenodd" d="M8 16C12.4183 16 16 12.4183 16 8C16 3.58172 12.4183 0 8 0C3.58172 0 0 3.58172 0 8C0 12.4183 3.58172 16 8 16ZM12.2389 6.69955C12.9039 6.69955 13.4444 7.23778 13.4444 7.89966C13.4444 8.35622 13.1847 8.749 12.8067 8.952C12.8277 9.07255 12.8409 9.19466 12.8409 9.31911C12.8409 11.0932 10.6592 12.5368 7.97743 12.5368C5.29565 12.5368 3.11399 11.0932 3.11399 9.31911C3.11399 9.18766 3.12954 9.05778 3.15288 8.93022C2.79743 8.721 2.55554 8.33989 2.55554 7.89966C2.55554 7.23778 3.0961 6.69955 3.76032 6.69878C4.0761 6.69878 4.36154 6.82322 4.57699 7.02155C5.43488 6.46544 6.60076 6.11855 7.88876 6.103L8.63932 3.74011C8.66576 3.65611 8.75365 3.60633 8.83921 3.62733L10.8031 4.08778C10.947 3.723 11.3024 3.46244 11.7201 3.46244C12.2638 3.46244 12.7055 3.90267 12.7055 4.444C12.7055 4.98533 12.2638 5.42555 11.7201 5.42555C11.1764 5.42555 10.7339 4.98533 10.7339 4.444L10.7362 4.41755L8.91388 3.99055L8.2411 6.10922C9.47076 6.15355 10.5822 6.49733 11.4035 7.03789C11.6205 6.82944 11.9145 6.69955 12.2389 6.69955Z" fill="#FF00FF"/>
</g>
<defs>
<clipPath id="clip0_1447_1723">
<rect width="16" height="16" fill="white"/>
</clipPath>
</defs>
</svg>
