<svg width="16" height="16" viewBox="0 0 16 16" fill="none" xmlns="http://www.w3.org/2000/svg">
<path fill-rule="evenodd" clip-rule="evenodd" d="M6.39995 1.2C3.52807 1.2 1.19995 3.52812 1.19995 6.4C1.19995 9.27188 3.52807 11.6 6.39995 11.6C7.54722 11.6 8.60771 11.2285 9.46767 10.5991L13.0342 14.1657L14.1656 13.0343L10.5991 9.46777C11.2284 8.60781 11.6 7.54729 11.6 6.4C11.6 3.52812 9.27183 1.2 6.39995 1.2ZM1.99995 6.4C1.99995 3.96994 3.9699 2 6.39995 2C8.83 2 10.8 3.96994 10.8 6.4C10.8 8.83005 8.83 10.8 6.39995 10.8C3.9699 10.8 1.99995 8.83005 1.99995 6.4Z" fill="#FF00FF"/>
</svg>
