<svg width="16" height="16" viewBox="0 0 16 16" fill="none" xmlns="http://www.w3.org/2000/svg">
<g clip-path="url(#clip0_1447_1739)">
<path fill-rule="evenodd" clip-rule="evenodd" d="M0.00805664 7.9999C0.00805664 3.58123 3.58702 0 8.00095 0C12.4147 0 15.9931 3.58123 15.9931 7.9999C15.9931 12.4175 12.4147 16 8.00095 16C3.58702 16 0.00805664 12.4175 0.00805664 7.9999ZM10.0221 13.2528C10.2131 13.0689 11.4604 11.8676 12.1748 11.079C12.8489 10.3327 13.1879 9.3727 13.1271 8.37714C13.0645 7.35186 12.5864 6.40233 11.78 5.70495C10.448 4.55226 8.29545 4.57576 6.98132 5.75621C6.50197 6.18613 5.96045 6.77586 5.93746 6.80115C5.59191 7.17724 5.61747 7.76282 5.99252 8.1085C6.36817 8.45359 6.95152 8.429 7.29796 8.05329C7.3026 8.04786 7.80199 7.50386 8.21404 7.13458C8.90594 6.51295 10.0123 6.6207 10.5724 7.10544C10.9992 7.47413 11.2513 7.96559 11.2833 8.48914C11.3134 8.98337 11.1435 9.46218 10.8061 9.83512C10.1395 10.5725 8.91227 11.7546 8.74264 11.918C8.73068 11.9295 8.7231 11.9368 8.7231 11.9368C8.35455 12.2902 8.34113 12.8749 8.69399 13.2449C8.87535 13.4346 9.11759 13.5307 9.36181 13.5307C9.59083 13.5307 9.82063 13.4454 9.99913 13.2749C10.0025 13.2717 10.0103 13.2642 10.0221 13.2528ZM4.22608 10.2943C4.88157 10.8617 5.73538 11.1448 6.59048 11.1448C7.47341 11.1448 8.35751 10.8432 9.02474 10.2432C9.46414 9.84818 9.957 9.31919 10.0527 9.21642C10.0613 9.20722 10.0667 9.20143 10.0686 9.19947C10.414 8.82337 10.3889 8.23739 10.0135 7.89211C9.63858 7.54593 9.05385 7.57003 8.70879 7.94653C8.70879 7.94653 8.70774 7.94766 8.70622 7.9493C8.66683 7.99192 8.18862 8.5092 7.79222 8.86594C7.10013 9.48628 5.9941 9.38021 5.43325 8.89438C5.00698 8.52539 4.75487 8.03384 4.7226 7.50979C4.69251 7.01606 4.86272 6.53833 5.20008 6.16391C5.91418 5.37517 7.26915 4.0764 7.28306 4.06307C7.6519 3.71018 7.66444 3.1247 7.31227 2.75512C6.95942 2.38603 6.37537 2.37191 6.00673 2.72539C6.00673 2.72539 6.00331 2.72868 6.00054 2.73134C5.88569 2.84162 4.57194 4.10306 3.83198 4.92144C3.15677 5.66722 2.81911 6.62712 2.8788 7.62228C2.94186 8.64835 3.41993 9.59709 4.22608 10.2943Z" fill="#FF00FF"/>
</g>
<defs>
<clipPath id="clip0_1447_1739">
<rect width="16" height="16" fill="white"/>
</clipPath>
</defs>
</svg>
