<svg width="16" height="16" viewBox="0 0 16 16" fill="none" xmlns="http://www.w3.org/2000/svg">
<g clip-path="url(#clip0_1447_1761)">
<path fill-rule="evenodd" clip-rule="evenodd" d="M1.3098 7.09753C1.27041 7.39276 1.25007 7.69403 1.25007 8.00004C1.25007 11.7335 4.27663 14.76 8.01007 14.76C8.31609 14.76 8.61736 14.7397 8.9126 14.7003C9.51605 15.0255 10.2065 15.21 10.94 15.21C13.3038 15.21 15.22 13.2938 15.22 10.93C15.22 10.1965 15.0355 9.50609 14.7103 8.90265C14.7497 8.60739 14.7701 8.30609 14.7701 8.00004C14.7701 4.26659 11.7435 1.24004 8.01007 1.24004C7.70404 1.24004 7.40276 1.26037 7.1075 1.29977C6.50405 0.97458 5.8136 0.790039 5.08005 0.790039C2.71627 0.790039 0.800049 2.70626 0.800049 5.07004C0.800049 5.8036 0.984596 6.49406 1.3098 7.09753ZM5.54506 7.17005C5.70879 7.45067 5.93455 7.69011 6.20506 7.87005L6.21506 7.83005C6.57678 8.06322 6.96024 8.26081 7.36006 8.42005C7.80506 8.61005 8.15506 8.76505 8.40006 8.89505C8.60784 9.00026 8.797 9.13875 8.96006 9.30505C9.08661 9.44029 9.15486 9.6199 9.15006 9.80505C9.15581 9.93073 9.13108 10.0559 9.07797 10.17C9.02486 10.284 8.94495 10.3836 8.84506 10.46C8.58057 10.639 8.26351 10.7235 7.94506 10.7001C7.76516 10.7034 7.58551 10.6849 7.41006 10.6451C7.26787 10.6151 7.1289 10.5716 6.99506 10.515C6.87367 10.4701 6.73207 10.4009 6.55572 10.3147C6.53594 10.305 6.51573 10.2951 6.49506 10.2851C6.3297 10.1989 6.14648 10.1527 5.96006 10.1501C5.79333 10.142 5.63005 10.1994 5.50506 10.3101C5.44485 10.3667 5.39793 10.436 5.36767 10.5129C5.33742 10.5899 5.32457 10.6726 5.33006 10.755C5.32703 10.9116 5.37243 11.0653 5.46006 11.1951C5.5714 11.3328 5.71356 11.4424 5.87506 11.515C6.50542 11.788 7.18849 11.9178 7.87506 11.8951C8.3772 11.9051 8.87699 11.8238 9.35006 11.6551C9.75006 11.5194 10.099 11.2647 10.3501 10.925C10.5947 10.5719 10.7192 10.1494 10.7051 9.72005C10.7142 9.36954 10.6259 9.02337 10.4501 8.72005C10.2712 8.43089 10.0304 8.18499 9.74506 8.00005C9.38696 7.77218 9.00668 7.58121 8.61006 7.43005L8.48006 7.38005C8.06006 7.21005 7.76506 7.07505 7.56006 6.97505C7.37302 6.88839 7.20353 6.76806 7.06006 6.62005C6.94278 6.4958 6.87825 6.3309 6.88006 6.16005C6.87354 6.02872 6.90263 5.89806 6.96423 5.78189C7.02584 5.66571 7.11768 5.56834 7.23006 5.50005C7.49708 5.34594 7.80193 5.26973 8.11006 5.28005C8.34783 5.27626 8.585 5.30485 8.81506 5.36505C9.06234 5.4372 9.30454 5.52573 9.54006 5.63005C9.63745 5.67455 9.743 5.69838 9.85006 5.70005C9.92654 5.70238 10.0026 5.68843 10.0733 5.65912C10.144 5.62981 10.2077 5.58582 10.2601 5.53005C10.3162 5.46883 10.3597 5.39712 10.388 5.31903C10.4163 5.24094 10.4289 5.15802 10.4251 5.07505C10.4272 4.91679 10.3701 4.76343 10.2651 4.64505C10.1274 4.4975 9.95577 4.38591 9.76506 4.32005C9.55508 4.247 9.33932 4.1918 9.12006 4.15505C8.8125 4.10629 8.50145 4.08287 8.19006 4.08505C7.71499 4.08247 7.24306 4.16197 6.79506 4.32005C6.38265 4.45952 6.01382 4.70426 5.72506 5.03005C5.4506 5.35718 5.30483 5.77316 5.31506 6.20005C5.30684 6.5378 5.38607 6.87194 5.54506 7.17005Z" fill="#FF00FF"/>
</g>
<defs>
<clipPath id="clip0_1447_1761">
<rect width="16" height="16" fill="white"/>
</clipPath>
</defs>
</svg>
