<svg width="16" height="16" viewBox="0 0 16 16" fill="none" xmlns="http://www.w3.org/2000/svg">
<g clip-path="url(#clip0_1447_3039)">
<path fill-rule="evenodd" clip-rule="evenodd" d="M12.9726 10.3632H14.3941V16.0494H1.6001V10.3632H3.02166V14.6278H12.9726V10.3632Z" fill="#BBBBBB"/>
<path d="M4.57103 9.94065L11.5528 11.4081L11.8463 10.0124L4.86451 8.54429L4.57103 9.94065ZM5.49491 6.59753L11.9625 9.60969L12.565 8.3162L6.09727 5.30404L5.49491 6.59753ZM7.28453 3.42448L12.7676 7.9904L13.6808 6.89386L8.19769 2.32807L7.28453 3.42448ZM10.8238 0.0494385L9.67882 0.901082L13.9368 6.62609L15.0818 5.77458L10.8238 0.0494385ZM4.44336 13.2064H11.5512V11.7848H4.44336V13.2064Z" fill="#F58025"/>
</g>
<defs>
<clipPath id="clip0_1447_3039">
<rect width="16" height="16" fill="white"/>
</clipPath>
</defs>
</svg>
