<svg width="16" height="16" viewBox="0 0 16 16" fill="none" xmlns="http://www.w3.org/2000/svg">
<g clip-path="url(#clip0_1448_1454)">
<path fill-rule="evenodd" clip-rule="evenodd" d="M1.2256 3.72243L5.26026 1.37841L5.26269 7.95172C5.25519 10.3879 6.96437 12.5733 9.32664 13.1482L9.37952 13.1611L9.34579 13.2036C9.29228 13.2738 9.24088 13.3409 9.17754 13.4037C8.96372 13.6154 8.72844 13.8075 8.47845 13.9747C8.22646 14.1431 7.95733 14.2877 7.67837 14.4042V14.4043C7.39412 14.5229 7.09708 14.6137 6.79581 14.6742C6.47783 14.7379 6.20289 14.7667 5.90849 14.7667C5.89908 14.7667 5.88945 14.7667 5.87994 14.7667C5.55942 14.7655 5.24006 14.7325 4.93086 14.6684C4.62991 14.6062 4.3335 14.5136 4.04989 14.3931C3.7723 14.2752 3.50392 14.1291 3.25234 13.9588C3.00299 13.7897 2.76908 13.5962 2.55706 13.3835C2.34419 13.1703 2.1512 12.9361 1.98381 12.6874C1.81461 12.4362 1.66953 12.1682 1.55257 11.8904C1.43371 11.6084 1.34256 11.3126 1.28165 11.0113C1.21588 10.6862 1.20794 10.3504 1.2089 10.0648L1.20826 3.73254L1.2256 3.72243ZM11.377 12.0062C11.6102 11.3501 11.7295 10.7082 11.7314 10.0984V3.15636L14.79 1.40685V7.9809C14.7892 8.279 14.7614 8.5614 14.7075 8.82C14.6518 9.08681 14.5692 9.34878 14.4622 9.59863C14.3567 9.8449 14.2264 10.0821 14.0751 10.3036C13.9249 10.5237 13.7526 10.7306 13.5628 10.9186C13.3726 11.1067 13.1639 11.2772 12.9422 11.4252C12.7191 11.5746 12.4799 11.703 12.2312 11.8069C11.9803 11.9148 11.7462 11.9865 11.4491 12.0461C11.439 12.0481 11.4277 12.0501 11.416 12.0521L11.3571 12.0624L11.377 12.0062ZM0 3.08694L0.00285516 10.0616C-0.00687353 13.2924 2.62389 15.9288 5.86714 15.9387H5.88491C6.91541 15.9387 7.92941 15.6693 8.81726 15.16L13.107 12.7046C14.8855 11.7856 15.9933 9.977 15.9994 7.98406L16 0.699634C16 0.678883 15.9888 0.659501 15.9708 0.649073V0.648968L14.92 0.0368672C14.902 0.0263337 14.8795 0.0263337 14.8613 0.0364458L10.5515 2.45936C10.533 2.46968 10.5216 2.48927 10.5216 2.51044L10.5253 10.0936C10.5244 10.4124 10.4913 10.7306 10.4268 11.0392C10.3642 11.3394 10.2714 11.6345 10.1506 11.9166C10.128 11.9692 10.1044 12.0214 10.0799 12.0732L10.069 12.0961L10.0437 12.0929C9.97085 12.0834 9.92284 12.0744 9.79468 12.0504L9.76073 12.044C9.49098 11.9887 8.94173 11.833 8.28705 11.4117C8.0653 11.2614 7.85751 11.0896 7.66907 10.9006C7.4801 10.7113 7.30889 10.5034 7.16032 10.2827C7.00995 10.0595 6.88115 9.82152 6.77752 9.57535C6.67198 9.32476 6.59119 9.06216 6.53715 8.79535C6.48893 8.55708 6.46884 8.30997 6.47 7.96921V0.693946C6.47 0.6733 6.45943 0.654445 6.44166 0.643596L5.39202 0.00853212C5.38261 0.00284404 5.37204 0 5.36136 0C5.35131 0 5.34116 0.00263337 5.33217 0.00779477L0.0295033 3.03606C0.0114206 3.04649 0 3.06598 0 3.08694Z" fill="#FF00FF"/>
</g>
<defs>
<clipPath id="clip0_1448_1454">
<rect width="16" height="16" fill="white"/>
</clipPath>
</defs>
</svg>
