<svg width="16" height="16" viewBox="0 0 16 16" fill="none" xmlns="http://www.w3.org/2000/svg">
<g clip-path="url(#clip0_1448_1451)">
<path d="M12.1273 4.76459L8.00055 2.3823L3.875 4.76459V2.3823L8.00114 0L12.1279 2.3823V4.76459H12.1273Z" fill="#A435F0"/>
<path d="M3.875 6.76514H6.03645V12.0166C6.03645 13.3734 7.04963 14.0348 8.00114 14.0348C8.96087 14.0348 9.96642 13.3558 9.96642 11.9984V6.76514H12.1279V12.1417C12.1279 13.3916 11.7349 14.3561 10.9491 15.0174C10.1626 15.6782 9.18054 16.0001 7.98293 16.0001C6.7865 16.0001 5.80386 15.6788 5.03619 15.0174C4.26794 14.3566 3.875 13.428 3.875 12.1952V6.76514Z" fill="black"/>
</g>
<defs>
<clipPath id="clip0_1448_1451">
<rect width="16" height="16" fill="white"/>
</clipPath>
</defs>
</svg>
