<svg width="16" height="16" viewBox="0 0 16 16" fill="none" xmlns="http://www.w3.org/2000/svg">
<g clip-path="url(#clip0_1448_1452)">
<path d="M8.00055 2.3823L12.1273 4.76459L12.1279 2.3823L8.00114 0L3.875 2.3823V4.76459L8.00055 2.3823Z" fill="#FF00FF"/>
<path d="M6.03645 6.76514H3.875V12.1952C3.875 13.428 4.26794 14.3566 5.03619 15.0174C5.80386 15.6788 6.7865 16.0001 7.98293 16.0001C9.18054 16.0001 10.1626 15.6782 10.9491 15.0174C11.7349 14.3561 12.1279 13.3916 12.1279 12.1417V6.76514H9.96642V11.9984C9.96642 13.3558 8.96087 14.0348 8.00114 14.0348C7.04963 14.0348 6.03645 13.3734 6.03645 12.0166V6.76514Z" fill="#FF00FF"/>
</g>
<defs>
<clipPath id="clip0_1448_1452">
<rect width="16" height="16" fill="white"/>
</clipPath>
</defs>
</svg>
