<svg width="16" height="16" viewBox="0 0 16 16" fill="none" xmlns="http://www.w3.org/2000/svg">
<path fill-rule="evenodd" clip-rule="evenodd" d="M8.00005 2C9.98827 2 11.6 3.61177 11.6 5.6C11.6 6.63332 11.1647 7.56496 10.4674 8.2215C12.0945 9.10022 13.2 10.821 13.2 12.8C13.2 13.213 13.1519 13.6148 13.0609 14H12.2344C12.3423 13.6185 12.4 13.216 12.4 12.8C12.4 10.986 11.3023 9.42836 9.73485 8.7552C9.22033 9.0387 8.62903 9.2 8.00005 9.2C7.37107 9.2 6.77977 9.0387 6.26525 8.7552C4.69781 9.42836 3.60005 10.986 3.60005 12.8C3.60005 13.216 3.65778 13.6185 3.76567 14H2.93919C2.8482 13.6148 2.80005 13.213 2.80005 12.8C2.80005 10.821 3.90556 9.10022 5.5327 8.2215C4.83541 7.56496 4.40005 6.63332 4.40005 5.6C4.40005 3.61177 6.01182 2 8.00005 2ZM8.00005 2.8C6.45365 2.8 5.20005 4.0536 5.20005 5.6C5.20005 7.1464 6.45365 8.4 8.00005 8.4C9.54645 8.4 10.8 7.1464 10.8 5.6C10.8 4.0536 9.54645 2.8 8.00005 2.8Z" fill="#FF00FF"/>
</svg>
