<svg width="16" height="16" viewBox="0 0 16 16" fill="none" xmlns="http://www.w3.org/2000/svg">
<g clip-path="url(#clip0_1447_2927)">
<path d="M15.4341 1.73319L12.1394 0.146852C11.7581 -0.0367655 11.3023 0.0406886 11.003 0.339981L0.217365 10.174C-0.0727413 10.4385 -0.0724078 10.8952 0.218084 11.1593L1.09909 11.9602C1.33658 12.1761 1.69424 12.192 1.94994 11.998L14.9383 2.14473C15.3741 1.81417 15.9999 2.12495 15.9999 2.67189V2.63364C15.9999 2.24972 15.78 1.89974 15.4341 1.73319Z" fill="#0065A9"/>
<path d="M15.4341 14.2708L12.1394 15.8571C11.7581 16.0407 11.3023 15.9632 11.003 15.664L0.217365 5.83C-0.0727413 5.56549 -0.0724078 5.10875 0.218084 4.84467L1.09909 4.04375C1.33658 3.82786 1.69424 3.81196 1.94994 4.00595L14.9383 13.8592C15.3741 14.1898 15.9999 13.879 15.9999 13.332V13.3703C15.9999 13.7542 15.78 14.1042 15.4341 14.2708Z" fill="#007ACC"/>
<path d="M12.1395 15.8573C11.758 16.0407 11.3022 15.9632 11.0029 15.6639C11.3717 16.0327 12.0023 15.7714 12.0023 15.2499V0.753841C12.0023 0.232283 11.3717 -0.0289167 11.0029 0.339882C11.3022 0.0405622 11.758 -0.0370013 12.1395 0.146455L15.4336 1.73061C15.7798 1.89707 15.9999 2.24718 15.9999 2.63127V13.3725C15.9999 13.7566 15.7798 14.1067 15.4336 14.2732L12.1395 15.8573Z" fill="#1F9CF0"/>
<path style="mix-blend-mode:overlay" opacity="0.25" fill-rule="evenodd" clip-rule="evenodd" d="M11.339 15.8878C11.5908 15.9859 11.878 15.9796 12.1322 15.8573L15.4243 14.2732C15.7703 14.1067 15.9903 13.7566 15.9903 13.3725V2.63127C15.9903 2.24718 15.7703 1.89707 15.4243 1.73061L12.1322 0.146455C11.7986 -0.014069 11.4082 0.0252492 11.1154 0.238109C11.0736 0.268517 11.0337 0.302467 10.9963 0.339882L4.69394 6.08966L1.94876 4.00584C1.69321 3.81186 1.33576 3.82775 1.09842 4.04365L0.217952 4.84456C-0.0723641 5.10865 -0.072697 5.56539 0.217233 5.8299L2.59795 8.00187L0.217233 10.1739C-0.072697 10.4384 -0.0723641 10.8951 0.217952 11.1592L1.09842 11.9601C1.33576 12.176 1.69321 12.1919 1.94876 11.9979L4.69394 9.91407L10.9963 15.6639C11.096 15.7636 11.2131 15.8388 11.339 15.8878ZM11.9951 4.3719L7.21305 8.00187L11.9951 11.6318V4.3719Z" fill="url(#paint0_linear_1447_2927)"/>
</g>
<defs>
<linearGradient id="paint0_linear_1447_2927" x1="7.99513" y1="0.0479736" x2="7.99513" y2="15.9558" gradientUnits="userSpaceOnUse">
<stop stop-color="white"/>
<stop offset="1" stop-color="white" stop-opacity="0"/>
</linearGradient>
<clipPath id="clip0_1447_2927">
<rect width="16" height="16" fill="white"/>
</clipPath>
</defs>
</svg>
