<svg width="16" height="16" viewBox="0 0 16 16" fill="none" xmlns="http://www.w3.org/2000/svg">
<g clip-path="url(#clip0_1447_1794)">
<path fill-rule="evenodd" clip-rule="evenodd" d="M1.0591 3.78138L7.72493 0.0106812V2.77799L3.4536 5.12775L3.41952 5.14692L1.0591 3.78138ZM0.780029 4.27988V11.9683L3.15749 10.5963V5.65395L0.780029 4.27988ZM15.2408 4.27988V11.9683L12.8633 10.5963V5.65395L15.2408 4.27988ZM8.29586 16.0479L14.7955 12.3709L12.3456 10.9564L8.29586 13.1847V16.0479ZM1.22527 12.3709L7.72493 16.0479V13.1847L3.67303 10.9564L1.22527 12.3709ZM8.29586 0.0106812L14.9617 3.78138L12.6013 5.14479L12.5672 5.12562L8.29586 2.77799V0.0106812Z" fill="#FF00FF"/>
<path fill-rule="evenodd" clip-rule="evenodd" d="M8.0104 3.27436L3.99897 5.47926L8.0104 7.79493L12.0218 5.47926L8.0104 3.27436ZM7.72493 12.5328L3.72842 10.3343V5.98202L7.72493 8.28917V12.5328ZM8.29586 12.5328L12.2924 10.3364V5.98202L8.29586 8.28917V12.5328Z" fill="#FF00FF"/>
</g>
<defs>
<clipPath id="clip0_1447_1794">
<rect width="16" height="16" fill="white"/>
</clipPath>
</defs>
</svg>
