<svg width="16" height="16" viewBox="0 0 16 16" fill="none" xmlns="http://www.w3.org/2000/svg">
<g clip-path="url(#clip0_1447_3111)">
<path d="M0.275879 15.7247L1.36211 11.7585C0.691976 10.5977 0.339565 9.28078 0.339987 7.93204C0.341745 3.71192 3.77634 0.278564 7.99638 0.278564C10.0446 0.279489 11.9669 1.07659 13.4123 2.52329C14.8579 3.96998 15.6536 5.89295 15.6528 7.93803C15.651 12.1583 12.2162 15.5919 7.99669 15.5919C7.99638 15.5919 7.9969 15.5919 7.99669 15.5919H7.99328C6.71194 15.5915 5.45291 15.2699 4.33468 14.6604L0.275879 15.7247Z" fill="url(#paint0_linear_1447_3111)"/>
<path fill-rule="evenodd" clip-rule="evenodd" d="M6.01554 4.61512C5.8671 4.2851 5.71082 4.27849 5.56961 4.27272C5.4541 4.26777 5.32187 4.26807 5.18985 4.26807C5.05772 4.26807 4.84301 4.31772 4.66144 4.51602C4.47977 4.71432 3.96777 5.19369 3.96777 6.16864C3.96777 7.1437 4.67796 8.08584 4.77695 8.21816C4.87604 8.35029 6.14787 10.415 8.16209 11.2093C9.83608 11.8694 10.1767 11.7381 10.5401 11.7051C10.9034 11.672 11.7125 11.2258 11.8777 10.7631C12.0428 10.3004 12.0428 9.90382 11.9933 9.82092C11.9437 9.73834 11.8116 9.68879 11.6134 9.5897C11.4152 9.4906 10.441 9.01112 10.2593 8.94506C10.0776 8.879 9.9455 8.84596 9.81338 9.04437C9.68125 9.24256 9.30169 9.68879 9.18608 9.82092C9.07046 9.95335 8.95485 9.96987 8.75666 9.87077C8.55847 9.77137 7.92023 9.56233 7.16309 8.88724C6.57398 8.36203 6.17626 7.71337 6.06064 7.51498C5.94503 7.31679 6.04825 7.20944 6.14766 7.11064C6.23664 7.02187 6.34585 6.87932 6.44495 6.7636C6.54383 6.64788 6.57686 6.5653 6.64293 6.43317C6.70899 6.30084 6.67596 6.18513 6.62641 6.08604C6.57686 5.98694 6.19174 5.00695 6.01554 4.61512Z" fill="white"/>
<path d="M13.6077 2.32663C12.1102 0.828124 10.119 0.00243347 7.99759 0.00149536C3.62595 0.00149536 0.0683359 3.55799 0.0665786 7.92944C0.0660634 9.3268 0.431169 10.6908 1.12514 11.8932L0 16.0015L4.20431 14.899C5.36269 15.5308 6.66693 15.8637 7.99418 15.8642H7.99755H7.99759C12.3685 15.8642 15.9266 12.3071 15.9285 7.93583C15.9292 5.81726 15.105 3.82525 13.6077 2.32663ZM7.99759 14.5252H7.99501C6.81196 14.5246 5.65183 14.2069 4.63992 13.6065L4.39909 13.4637L1.90417 14.1179L2.57027 11.6862L2.41337 11.4369C1.75347 10.3876 1.40509 9.17506 1.4056 7.92997C1.40704 4.29657 4.364 1.34063 8.00007 1.34063C9.76087 1.34136 11.4158 2.02769 12.6604 3.27321C13.905 4.51872 14.5899 6.17443 14.5894 7.93534C14.5878 11.5688 11.6308 14.5252 7.99759 14.5252Z" fill="white"/>
</g>
<defs>
<linearGradient id="paint0_linear_1447_3111" x1="7.96433" y1="15.7247" x2="7.96433" y2="0.27859" gradientUnits="userSpaceOnUse">
<stop stop-color="#20B038"/>
<stop offset="1" stop-color="#60D66A"/>
</linearGradient>
<clipPath id="clip0_1447_3111">
<rect width="16" height="16" fill="white"/>
</clipPath>
</defs>
</svg>
