<svg width="16" height="16" viewBox="0 0 16 16" fill="none" xmlns="http://www.w3.org/2000/svg">
<g clip-path="url(#clip0_1447_2993)">
<path d="M15.7885 10.474L12.4753 11.1784L12.8126 14.4731L9.70858 13.1418L7.99827 16.0003L6.28755 13.1409L3.18315 14.4719L3.52083 11.178L0.208008 10.4719L2.46441 8.00032L0.20885 5.52791L3.52125 4.8235L3.18483 1.52878L6.28881 2.86014L7.99827 0.000793457L9.709 2.86014L12.8134 1.52963L12.4761 4.82392L15.7885 5.5296L13.533 8.00158L15.7885 10.474Z" fill="#F16850"/>
<path d="M7.99703 4.99408L6.28757 2.85894L3.18359 1.52716L5.03116 3.96378L7.99703 4.99408Z" fill="#FD694F"/>
<path d="M3.52083 4.8219L0.208008 5.52674L2.46357 7.99914L5.11871 7.03704L3.52083 4.8219Z" fill="#FF3413"/>
<path d="M5.03116 3.96378L3.18359 1.52716L3.52001 4.82187L5.1179 7.03702L5.03116 3.96378Z" fill="#DC1D23"/>
<path d="M9.70827 2.85893L7.99755 0L6.28809 2.85893L7.99755 4.99407L9.70827 2.85893Z" fill="#FF9281"/>
<path d="M13.5326 8.0003L15.7886 5.52832L12.4762 4.82306L10.8774 7.03694L13.5326 8.0003Z" fill="#FF8B79"/>
<path d="M10.8774 7.03703L12.4762 4.82315L12.8134 1.52802L10.9642 3.96379L10.8774 7.03703Z" fill="#FD694F"/>
<path d="M10.9634 3.96379L12.8127 1.52802L9.70828 2.85895L7.99756 4.9941L10.9634 3.96379Z" fill="#EF5240"/>
<path d="M12.797 9.47318L15.7881 10.4723L13.5326 8.00035L10.8774 7.03699L12.797 9.47318Z" fill="#FF482C"/>
<path d="M5.11913 7.03699L2.46399 7.99909L0.208008 10.4706L3.19957 9.47318L5.11913 7.03699Z" fill="#EC2101"/>
<path d="M7.99756 12.8782V15.999L9.70744 13.1405L9.77692 10.3427L7.99756 12.8782Z" fill="#D21C22"/>
<path d="M12.7967 9.47327L9.77734 10.3427L12.475 11.1773L15.7878 10.4724L12.7967 9.47327Z" fill="#C90901"/>
<path d="M9.70703 13.1405L12.811 14.4719L12.4742 11.1772L9.7765 10.3427L9.70703 13.1405Z" fill="#EC2101"/>
<path d="M3.19957 9.47327L0.208008 10.4707L3.52083 11.1764L6.21891 10.3427L3.19957 9.47327Z" fill="#B6171E"/>
<path d="M6.21777 10.3427L6.2864 13.1401L7.99713 15.999V12.8782L6.21777 10.3427Z" fill="#B4151B"/>
<path d="M3.51932 11.1763L3.18164 14.4706L6.28604 13.1401L6.21741 10.3427L3.51932 11.1763Z" fill="#D21C22"/>
<path d="M10.8767 7.03699L10.9634 3.96375L7.99756 4.99405V7.98435L10.8767 7.03699Z" fill="#E63320"/>
<path d="M7.99859 4.99405L5.03271 3.96375L5.11945 7.03699L7.99859 7.98435V4.99405Z" fill="#FF4527"/>
<path d="M6.21777 10.3427L7.99713 12.8782L9.77649 10.3427L7.99713 7.98438L6.21777 10.3427Z" fill="#FF9281"/>
<path d="M7.99756 7.98435L9.77692 10.3426L12.7963 9.47318L10.8767 7.03699L7.99756 7.98435Z" fill="#FD684D"/>
<path d="M5.11781 7.03699L3.19824 9.47318L6.21759 10.3426L7.99695 7.98435L5.11781 7.03699Z" fill="#FD745C"/>
</g>
<defs>
<clipPath id="clip0_1447_2993">
<rect width="16" height="16" fill="white"/>
</clipPath>
</defs>
</svg>
