<svg width="16" height="16" viewBox="0 0 16 16" fill="none" xmlns="http://www.w3.org/2000/svg">
<g clip-path="url(#clip0_1447_1772)">
<path d="M12.5377 9.99007C13.5685 11.3191 14.7155 12.6096 15.9986 13.8677C15.4283 13.5184 14.8918 13.1809 14.3891 12.8559C12.0375 11.3058 9.88647 9.68185 7.94615 7.96292C6.0376 9.85071 3.91803 11.5272 1.56653 12.9931C1.06407 13.3085 0.522476 13.6307 -0.0593262 13.963C0.593307 13.3748 1.31705 12.6071 2.11923 11.6564C3.39508 10.1483 4.68161 8.37671 6.01041 6.33116L4.11237 4.4962L4.1026 4.48643C3.4216 3.8053 2.84468 3.22826 2.39345 2.72461C2.03487 2.33984 1.68819 1.9445 1.35295 1.53906C1.93661 1.98141 2.65121 2.41269 3.49675 2.82997C4.11879 3.14633 4.85703 3.47324 5.73209 3.82106L5.74818 3.82742L5.74919 3.82784C6.10435 3.96785 6.84679 4.26054 7.94662 4.68573C10.0135 3.8951 11.5848 3.23076 12.671 2.66139C13.3597 2.31189 13.9304 1.96721 14.3852 1.63065C12.2081 3.9911 10.7135 5.55771 9.9016 6.32027C10.9772 7.88101 11.8522 9.10434 12.5377 9.99007Z" fill="#FF00FF"/>
</g>
<defs>
<clipPath id="clip0_1447_1772">
<rect width="16" height="16" fill="white"/>
</clipPath>
</defs>
</svg>
