<svg width="16" height="16" fill="none" xmlns="http://www.w3.org/2000/svg"><g clip-path="url(#a)"><path fill-rule="evenodd" clip-rule="evenodd" d="M0 8a8 8 0 1 0 16 0A8 8 0 0 0 0 8zm8-6.069a6.069 6.069 0 1 1-6.068 6.17L1.93 8A6.069 6.069 0 0 1 8 1.931zm4.552 6.1c0-2.545-2.038-4.583-4.521-4.583a4.565 4.565 0 0 0-4.583 4.583c0 2.483 2.038 4.52 4.582 4.52 2.484 0 4.522-2.037 4.522-4.52zM6.897 5.089c0-.22.157-.4.351-.4h1.504c.194 0 .351.18.351.4v3.09c0 .071-.024.139-.068.189l-.22.249a.293.293 0 0 0 0 .377l.22.25c.044.05.068.117.068.188v1.479c0 .22-.157.4-.351.4H7.248c-.194 0-.351-.18-.351-.4v-3.09c0-.07.024-.138.068-.188l.22-.25a.294.294 0 0 0 0-.377l-.22-.25a.285.285 0 0 1-.068-.187v-1.48z" fill="#F0F"/></g><defs><clipPath id="a"><path fill="#fff" d="M0 0h16v16H0z"/></clipPath></defs></svg>