<svg width="16" height="16" fill="none" xmlns="http://www.w3.org/2000/svg"><g clip-path="url(#a)"><path fill-rule="evenodd" clip-rule="evenodd" d="M.276 8a7.724 7.724 0 1 0 15.448 0A7.724 7.724 0 0 0 .276 8z" fill="#fff"/><path fill-rule="evenodd" clip-rule="evenodd" d="M8 1.931A6.069 6.069 0 1 1 8 14.07 6.069 6.069 0 0 1 8 1.931z" fill="#1A8CFF"/><path opacity=".5" d="M0 8a8 8 0 1 0 16 0A8 8 0 0 0 0 8zm.276 0a7.724 7.724 0 1 1 15.448 0A7.724 7.724 0 0 1 .276 8z" fill="#000"/><path fill-rule="evenodd" clip-rule="evenodd" d="M15.713 7.586a7.724 7.724 0 1 1-15.427 0 7.724 7.724 0 0 0 15.422.094l.005-.094zM8 1.104a6.759 6.759 0 0 1 4.327 11.95 6.345 6.345 0 1 0-8.653 0A6.759 6.759 0 0 1 8 1.104z" fill="#000" fill-opacity=".052"/><path opacity=".256" d="M8 1.93A6.069 6.069 0 1 1 1.932 8.1V8A6.069 6.069 0 0 1 8 1.93zm0 .277a5.793 5.793 0 1 0 0 11.586A5.793 5.793 0 0 0 8 2.207z" fill="#000"/><path d="M8.03 3.172a4.84 4.84 0 0 0-4.858 4.859c0 2.645 2.172 4.796 4.859 4.796 2.635 0 4.796-2.16 4.796-4.796 0-2.687-2.15-4.859-4.796-4.859zm0 .276c2.484 0 4.522 2.038 4.522 4.582 0 2.484-2.038 4.522-4.521 4.522-2.545 0-4.583-2.038-4.583-4.521A4.565 4.565 0 0 1 8.03 3.447z" fill="#000" fill-opacity=".25"/><path fill-rule="evenodd" clip-rule="evenodd" d="M8.03 3.448c2.484 0 4.522 2.038 4.522 4.583 0 2.483-2.038 4.52-4.521 4.52-2.545 0-4.583-2.037-4.583-4.52a4.565 4.565 0 0 1 4.583-4.583z" fill="#F7F7F7"/><path fill-rule="evenodd" clip-rule="evenodd" d="M10.07 8A2.069 2.069 0 1 1 5.93 8a2.069 2.069 0 0 1 4.138 0z" fill="#000" fill-opacity=".05"/><path d="M8 5.655a2.345 2.345 0 1 0 0 4.69 2.345 2.345 0 0 0 0-4.69zm0 .276a2.069 2.069 0 1 1 0 4.138A2.069 2.069 0 0 1 8 5.93z" fill="#fff"/><path d="M8 5.93a2.069 2.069 0 1 1 0 4.139A2.069 2.069 0 0 1 8 5.93zm0 .277a1.793 1.793 0 1 0 0 3.586 1.793 1.793 0 0 0 0-3.586z" fill="#000" fill-opacity=".15"/><path d="M8.77 4.414H7.23c-.34 0-.61.298-.61.658v1.489c0 .135.05.266.138.364l.226.25c.005.007.005.023 0 .029l-.226.25a.545.545 0 0 0-.137.365v3.109c0 .36.269.658.61.658h1.538c.341 0 .61-.298.61-.658V9.439a.545.545 0 0 0-.137-.364l-.226-.25c-.006-.007-.006-.023 0-.029l.226-.25a.545.545 0 0 0 .137-.365V5.072c0-.36-.269-.658-.61-.658zm-.018.28c.194 0 .351.18.351.4V8.18c0 .07-.024.138-.068.187l-.22.25a.291.291 0 0 0 0 .375l.22.25c.044.05.068.117.068.187v1.478c0 .22-.157.398-.351.398H7.248c-.194 0-.352-.178-.352-.398V7.82c0-.07.025-.138.07-.187l.219-.25a.291.291 0 0 0 0-.375l-.22-.25a.285.285 0 0 1-.069-.187V5.093c0-.22.158-.398.352-.398h1.504z" fill="#fff"/><path fill-rule="evenodd" clip-rule="evenodd" d="M6.896 6.568v-1.48c0-.22.158-.398.352-.398h1.504c.194 0 .351.178.351.399v3.09c0 .071-.024.14-.068.19l-.22.249a.292.292 0 0 0 0 .376l.22.25c.044.05.068.117.068.188v1.48c0 .22-.157.398-.351.398H7.248c-.194 0-.352-.178-.352-.399v-3.09c0-.071.025-.14.07-.189l.219-.25a.292.292 0 0 0 0-.376l-.22-.25a.285.285 0 0 1-.069-.188z" fill="#0A2D4D"/><path d="M8.752 4.69c.194 0 .351.178.351.399v3.09c0 .071-.024.14-.068.19l-.22.249a.292.292 0 0 0 0 .376l.22.25c.044.05.068.117.068.188v1.48c0 .22-.157.398-.351.398H7.248c-.194 0-.352-.178-.352-.399v-3.09c0-.071.025-.14.07-.189l.219-.25a.292.292 0 0 0 0-.376l-.22-.25a.285.285 0 0 1-.069-.188v-1.48c0-.22.158-.398.352-.398h1.504zm-.04.283-1.424-.002c-.056 0-.108.053-.115.127V6.58l.001.01.002.004.23.247c.18.194.187.497.02.698l-.02.021-.23.248a.017.017 0 0 0-.003.008v3.07c0 .077.048.135.103.142h.012l1.424.003c.056 0 .108-.053.115-.127V9.422c0-.004 0-.008-.002-.01l-.002-.004-.23-.248a.532.532 0 0 1-.018-.697l.018-.021.23-.248a.017.017 0 0 0 .004-.008v-3.07c0-.077-.048-.135-.103-.142h-.012z" fill="#000" fill-opacity=".4"/></g><defs><clipPath id="a"><path fill="#fff" d="M0 0h16v16H0z"/></clipPath></defs></svg>