<svg width="16" height="16" fill="none" xmlns="http://www.w3.org/2000/svg"><g clip-path="url(#a)"><path d="M2.833.2h10.334A2.831 2.831 0 0 1 16 3.033v9.934a2.831 2.831 0 0 1-2.833 2.833H2.833A2.831 2.831 0 0 1 0 12.967V3.033A2.831 2.831 0 0 1 2.833.2z" fill="#001E36"/><path d="M3.6 11.14V4.28c0-.047.02-.073.067-.073.113 0 .22 0 .373-.007.16-.007.327-.007.507-.013.18-.007.373-.007.58-.014.206-.006.406-.006.606-.006.547 0 1 .066 1.374.206.333.114.64.3.893.547.213.213.38.473.487.76.1.28.153.567.153.867 0 .573-.133 1.046-.4 1.42-.267.373-.64.653-1.073.813-.454.167-.954.227-1.5.227-.16 0-.267 0-.334-.007-.066-.007-.16-.007-.286-.007v2.14c.006.047-.027.087-.074.094H3.68c-.053 0-.08-.027-.08-.087zm1.453-5.647v2.24c.094.007.18.014.26.014h.354c.26 0 .52-.04.766-.12.214-.06.4-.187.547-.354.14-.166.207-.393.207-.686a1.097 1.097 0 0 0-.154-.594.967.967 0 0 0-.466-.38c-.247-.1-.514-.14-.787-.133-.173 0-.327 0-.453.007-.134-.007-.227 0-.274.006zM12.8 7.327a2.36 2.36 0 0 0-.64-.227 3.515 3.515 0 0 0-.747-.087 1.342 1.342 0 0 0-.4.047.342.342 0 0 0-.206.133.354.354 0 0 0-.054.18c0 .06.027.12.067.174.06.073.14.133.227.18.153.08.313.153.473.22.36.12.707.286 1.027.486.22.14.4.327.526.554.107.213.16.446.154.686a1.55 1.55 0 0 1-.26.887 1.67 1.67 0 0 1-.747.593c-.327.14-.727.214-1.207.214-.306 0-.606-.027-.906-.087a2.69 2.69 0 0 1-.68-.213c-.047-.027-.08-.074-.074-.127V9.78c0-.02.007-.047.027-.06.02-.013.04-.007.06.007.26.153.533.26.827.326.253.067.52.1.786.1.254 0 .434-.033.554-.093a.31.31 0 0 0 .18-.28c0-.093-.054-.18-.16-.267-.107-.086-.327-.186-.654-.313a4.08 4.08 0 0 1-.946-.48 1.726 1.726 0 0 1-.507-.567 1.43 1.43 0 0 1-.153-.68c0-.286.08-.56.226-.806.167-.267.414-.48.7-.614.314-.16.707-.233 1.18-.233.274 0 .554.02.827.06.2.027.393.08.573.153.027.007.054.034.067.06.007.027.013.054.013.08V7.26a.082.082 0 0 1-.033.067c-.06.013-.093.013-.12 0z" fill="#31A8FF"/></g><defs><clipPath id="a"><path fill="#fff" d="M0 0h16v16H0z"/></clipPath></defs></svg>