<svg width="16" height="16" fill="none" xmlns="http://www.w3.org/2000/svg"><g clip-path="url(#a)"><path d="M0 0v16h16V0H0z" fill="#FF2BC2"/><path d="M11.233 7.287c.16 0 .287.02.387.066h-.007v3.3c-.126.054-.3.074-.46.074-.746 0-1.32-.494-1.32-1.72 0-1.074.56-1.72 1.4-1.72z" fill="#2E001E"/><path fill-rule="evenodd" clip-rule="evenodd" d="M15.2.8H.8v14.4h14.4V.8zM6.36 7.98l1.867 3.62c.033.053.013.107-.04.107h-1.16c-.074 0-.107-.02-.14-.087-.427-.88-.86-1.793-1.307-2.74h-.013c-.4.893-.84 1.867-1.267 2.747-.033.053-.067.073-.12.073H3.073c-.066 0-.073-.053-.04-.093L4.86 8.093 3.093 4.6c-.04-.053 0-.1.047-.1h1.147c.066 0 .1.013.12.073.11.235.222.469.334.702.31.649.618 1.295.912 1.952h.014c.281-.641.584-1.286.885-1.927l.335-.713v-.002c.034-.052.054-.085.12-.085H8.08c.053 0 .073.04.04.1L6.36 7.98zm4.913-1.687c-1.64 0-2.64 1.214-2.64 2.767 0 1.813 1.034 2.707 2.48 2.707.56 0 1.147-.12 1.707-.387.04-.02.04-.027.04-.073-.033-.247-.033-.474-.033-.654V4.56c0-.033-.014-.053-.067-.053h-1.073a.067.067 0 0 0-.067.066v1.734c-.133-.014-.207-.014-.347-.014z" fill="#2E001E"/></g><defs><clipPath id="a"><path fill="#fff" d="M0 0h16v16H0z"/></clipPath></defs></svg>