<svg width="20" height="20" viewBox="0 0 20 20" fill="none" xmlns="http://www.w3.org/2000/svg">
<path d="M0 0V20H20V0H0Z" fill="#FF2BC2"/>
<path fill-rule="evenodd" clip-rule="evenodd" d="M19 1H1V19H19V1ZM7.95 9.975L10.2833 14.5C10.325 14.5667 10.3 14.6333 10.2333 14.6333H8.78333C8.69167 14.6333 8.65 14.6083 8.60833 14.525C8.075 13.425 7.53333 12.2833 6.975 11.1H6.95833C6.45833 12.2167 5.90833 13.4333 5.375 14.5333C5.33333 14.6 5.29167 14.625 5.225 14.625H3.84167C3.75833 14.625 3.75 14.5583 3.79167 14.5083L6.075 10.1167L3.86667 5.75C3.81667 5.68333 3.86667 5.625 3.925 5.625H5.35833C5.44167 5.625 5.48333 5.64167 5.50833 5.71667C5.64721 6.00986 5.78667 6.30188 5.92595 6.59351L5.92613 6.59389C6.31329 7.40456 6.69899 8.21219 7.06667 9.03333H7.08333C7.43548 8.2319 7.81416 7.42605 8.19038 6.62544L8.1904 6.62541C8.33055 6.32715 8.47036 6.02963 8.60833 5.73333L8.60986 5.73089C8.65062 5.66565 8.67602 5.625 8.75833 5.625H10.1C10.1667 5.625 10.1917 5.675 10.15 5.75L7.95 9.975ZM14.0917 7.86667C12.0417 7.86667 10.7917 9.38333 10.7917 11.325C10.7917 13.5917 12.0833 14.7083 13.8917 14.7083C14.5917 14.7083 15.325 14.5583 16.025 14.225C16.075 14.2 16.075 14.1917 16.075 14.1333C16.0333 13.825 16.0333 13.5417 16.0333 13.3167V5.7C16.0333 5.65833 16.0167 5.63333 15.95 5.63333H14.6083C14.5667 5.63333 14.525 5.66667 14.525 5.71667V7.88333C14.3583 7.86667 14.2667 7.86667 14.0917 7.86667H14.0917ZM14.0417 9.10833C14.2417 9.10833 14.4 9.13333 14.525 9.19167H14.5167V13.3167C14.3583 13.3833 14.1417 13.4083 13.9417 13.4083C13.0083 13.4083 12.2917 12.7917 12.2917 11.2583C12.2917 9.91667 12.9917 9.10833 14.0417 9.10833Z" fill="#2E001E"/>
</svg>
