<svg width="16" height="16" fill="none" xmlns="http://www.w3.org/2000/svg"><g clip-path="url(#a)"><path d="M13.167.2H2.833A2.833 2.833 0 0 0 0 3.033v9.934A2.833 2.833 0 0 0 2.833 15.8h10.334A2.833 2.833 0 0 0 16 12.967V3.033A2.833 2.833 0 0 0 13.167.2z" fill="#49021F"/><path d="M5.81 4.281v6.837c0 .072-.032.108-.096.108H4.415c-.057 0-.086-.036-.086-.108V4.281c0-.057.033-.086.097-.086h1.299a.076.076 0 0 1 .086.086zM9.653 11.333a3.327 3.327 0 0 1-1.433-.3 2.279 2.279 0 0 1-1.003-.908c-.244-.404-.365-.91-.365-1.518A2.803 2.803 0 0 1 7.217 7.2a2.68 2.68 0 0 1 1.062-1.03c.465-.258 1.027-.387 1.685-.387.036 0 .082.002.14.005l.204.016V3.691c0-.05.021-.075.064-.075h1.353a.057.057 0 0 1 .064.064v6.343c0 .122.005.255.016.398l.027.386a.111.111 0 0 1-.065.107 5.33 5.33 0 0 1-1.083.322 5.82 5.82 0 0 1-1.03.097zm.655-1.331v-2.93a1.065 1.065 0 0 0-.177-.032 2.142 2.142 0 0 0-.22-.011 1.657 1.657 0 0 0-.752.172 1.467 1.467 0 0 0-.563.493c-.147.215-.22.498-.22.848-.005.234.033.467.112.687.065.177.168.339.301.472.127.124.282.215.45.269.18.058.366.086.554.086.1 0 .193-.004.279-.011.08-.006.159-.02.236-.043z" fill="#F36"/></g><defs><clipPath id="a"><path fill="#fff" d="M0 0h16v16H0z"/></clipPath></defs></svg>