<svg width="16" height="16" fill="none" xmlns="http://www.w3.org/2000/svg"><g clip-path="url(#a)"><path d="M2.833.2h10.334A2.831 2.831 0 0 1 16 3.033v9.934a2.831 2.831 0 0 1-2.833 2.833H2.833A2.831 2.831 0 0 1 0 12.967V3.033A2.831 2.831 0 0 1 2.833.2z" fill="#300"/><path d="M7.753 9.56h-2.48l-.506 1.567a.117.117 0 0 1-.127.093H3.387c-.074 0-.094-.04-.074-.12L5.46 4.92c.02-.067.04-.14.067-.22.026-.14.04-.287.04-.433-.007-.034.02-.067.053-.074h1.727c.053 0 .08.02.086.054l2.434 6.866c.02.074 0 .107-.067.107H8.407c-.047.007-.094-.027-.107-.073L7.753 9.56zM5.66 8.207h1.693a9.474 9.474 0 0 0-.153-.48c-.06-.18-.12-.374-.18-.574-.067-.206-.127-.406-.193-.613-.067-.207-.127-.4-.18-.593-.054-.187-.1-.36-.147-.52h-.013c-.06.286-.134.573-.227.86-.1.32-.2.653-.307.986-.093.34-.193.654-.293.934zM11.32 5.333a.825.825 0 0 1-.593-.233.866.866 0 0 1-.227-.613.784.784 0 0 1 .24-.594.854.854 0 0 1 .593-.233c.26 0 .46.08.607.233.147.16.227.374.22.594a.843.843 0 0 1-.233.613.784.784 0 0 1-.607.233zm-.747 5.787V5.987c0-.067.027-.094.087-.094h1.32c.06 0 .087.034.087.094v5.133c0 .073-.027.107-.087.107h-1.307c-.066 0-.1-.04-.1-.107z" fill="#FF9A00"/></g><defs><clipPath id="a"><path fill="#fff" d="M0 0h16v16H0z"/></clipPath></defs></svg>