<svg width="16" height="16" fill="none" xmlns="http://www.w3.org/2000/svg"><g clip-path="url(#a)"><path d="M2.833.2h10.334A2.831 2.831 0 0 1 16 3.033v9.934a2.831 2.831 0 0 1-2.833 2.833H2.833A2.831 2.831 0 0 1 0 12.967V3.033A2.831 2.831 0 0 1 2.833.2z" fill="#001E36"/><path d="M8.4 11.227H4.173c-.073 0-.106-.04-.106-.12V4.293c-.007-.046.026-.086.073-.093h1.333c.034-.007.074.02.074.053V9.873h3.08c.066 0 .086.034.073.094l-.193 1.16c0 .033-.02.06-.04.08a.113.113 0 0 1-.067.02zM9.467 5.893h1.166a.15.15 0 0 1 .14.107c.027.047.047.1.054.153a2.21 2.21 0 0 1 .046.447c.2-.233.44-.427.714-.573a1.99 1.99 0 0 1 .993-.24c.047-.007.087.026.093.073v1.327c0 .053-.033.073-.106.073a2.717 2.717 0 0 0-1.26.227c-.134.06-.26.14-.36.246v3.4c0 .067-.027.094-.087.094h-1.3c-.053.006-.1-.027-.107-.08v-3.72c0-.16 0-.327-.006-.5-.007-.174-.007-.347-.014-.52a4.903 4.903 0 0 0-.04-.44.061.061 0 0 1 .047-.074c.007-.006.013-.006.027 0z" fill="#31A8FF"/></g><defs><clipPath id="a"><path fill="#fff" d="M0 0h16v16H0z"/></clipPath></defs></svg>