<svg width="16" height="16" fill="none" xmlns="http://www.w3.org/2000/svg"><g clip-path="url(#a)"><path d="M13.167.2H2.833A2.833 2.833 0 0 0 0 3.033v9.934A2.833 2.833 0 0 0 2.833 15.8h10.334A2.833 2.833 0 0 0 16 12.967V3.033A2.833 2.833 0 0 0 13.167.2z" fill="#00005B"/><path d="M6.428 9.533h-2.48l-.504 1.57a.126.126 0 0 1-.129.097H2.059c-.071 0-.097-.04-.075-.118l2.147-6.157c.021-.064.043-.127.064-.21.028-.143.043-.288.043-.434a.066.066 0 0 1 .075-.075H6.02c.05 0 .078.017.086.053l2.436 6.834c.022.071 0 .107-.064.107H7.082a.1.1 0 0 1-.107-.075l-.547-1.592zM4.335 8.21H6.03a28.298 28.298 0 0 0-.15-.483 113.996 113.996 0 0 1-.376-1.186 20.63 20.63 0 0 1-.178-.59l-.144-.52h-.011a8.66 8.66 0 0 1-.226.858l-.305.988c-.104.336-.206.647-.306.933zM12.492 8.922h-2.114c.026.21.095.41.204.592.12.179.29.318.488.402.27.117.56.174.853.167.233-.004.465-.03.693-.076.204-.027.403-.08.595-.155.035-.028.053-.01.053.054v1.02a.16.16 0 0 1-.016.08.155.155 0 0 1-.048.048 2.73 2.73 0 0 1-.665.198 4.713 4.713 0 0 1-.944.08c-.509 0-.934-.078-1.278-.235a2.277 2.277 0 0 1-.837-.633 2.48 2.48 0 0 1-.461-.875A3.445 3.445 0 0 1 9.04 7.56c.107-.333.277-.642.5-.912.22-.267.494-.483.804-.633.315-.154.687-.21 1.117-.21.356-.008.71.061 1.036.205.274.116.515.299.703.53.175.227.31.484.397.757.084.264.128.539.128.816 0 .157-.005.3-.016.43a7.47 7.47 0 0 1-.027.278.097.097 0 0 1-.096.086 2.48 2.48 0 0 0-.22.016c-.104.011-.233.018-.387.022-.154.003-.316-.023-.488-.023zm-2.114-.978h1.406c.171 0 .298-.001.38-.005a.375.375 0 0 0 .156-.051v-.065a.877.877 0 0 0-.912-.859.933.933 0 0 0-.885.505c-.074.15-.123.31-.145.475z" fill="#99F"/></g><defs><clipPath id="a"><path fill="#fff" d="M0 0h16v16H0z"/></clipPath></defs></svg>