<svg width="16" height="16" fill="none" xmlns="http://www.w3.org/2000/svg"><g clip-path="url(#a)"><path d="M2.833.2h10.334A2.831 2.831 0 0 1 16 3.033v9.934a2.831 2.831 0 0 1-2.833 2.833H2.833A2.831 2.831 0 0 1 0 12.967V3.033A2.831 2.831 0 0 1 2.833.2z" fill="#000B1D"/><path d="M5.947 11.333a5.37 5.37 0 0 1-1.087-.1 3.56 3.56 0 0 1-.82-.26c-.06-.026-.087-.086-.087-.18v-1.28c0-.02.007-.046.027-.06.02-.013.047-.006.067.007.3.187.62.327.953.42.32.093.653.14.987.14.406 0 .7-.06.873-.187.16-.1.26-.273.26-.466a.631.631 0 0 0-.087-.327 1.025 1.025 0 0 0-.3-.287 3.244 3.244 0 0 0-.593-.286L5.6 8.24c-.433-.187-.78-.387-1.027-.593-.226-.18-.4-.414-.506-.68a2.249 2.249 0 0 1-.14-.787 1.937 1.937 0 0 1 1.146-1.8c.38-.18.854-.273 1.42-.273.32 0 .64.02.96.066.247.027.487.1.714.207.046.027.08.08.073.14v1.213c0 .02-.013.034-.027.047-.02.02-.04.013-.066-.007a3.075 3.075 0 0 0-.754-.266 3.666 3.666 0 0 0-.893-.094c-.18 0-.353.014-.527.054-.12.026-.24.073-.346.133a.498.498 0 0 0-.2.207.574.574 0 0 0-.067.253c0 .107.033.22.093.307.087.113.2.2.32.266.2.114.407.22.62.314l.4.153c.474.193.84.4 1.107.62.24.187.433.433.56.707.107.26.16.54.16.82.007.4-.113.786-.34 1.113-.24.327-.567.58-.94.733-.373.154-.847.24-1.393.24zM12.26 10.16v.88c0 .08-.027.127-.087.14-.14.047-.286.08-.426.107-.174.033-.34.046-.514.04-.466 0-.833-.12-1.093-.367s-.4-.633-.4-1.167V7.12h-.647c-.06 0-.086-.033-.086-.093l.006-1.06c0-.06.034-.087.094-.087h.646c.007-.12.007-.253.02-.413l.04-.48c.014-.16.034-.294.047-.394a.27.27 0 0 1 .033-.06.104.104 0 0 1 .054-.04l1.28-.16a.073.073 0 0 1 .053 0c.013.007.02.027.02.067a11.89 11.89 0 0 0-.033.673c-.007.28-.007.547-.014.814h.947c.04 0 .067.026.067.086l-.007 1.08c.007.034-.02.067-.053.074h-.947V9.44c0 .24.027.42.107.52.08.1.233.153.453.153.067 0 .127 0 .18-.006.053-.007.113-.007.173-.014a.065.065 0 0 1 .06.007c.02.007.027.027.027.06z" fill="#fff"/></g><defs><clipPath id="a"><path fill="#fff" d="M0 0h16v16H0z"/></clipPath></defs></svg>