<svg width="16" height="16" fill="none" xmlns="http://www.w3.org/2000/svg"><g clip-path="url(#a)" fill="#F0F"><path d="M8.227 11.6 6.36 7.98 8.12 4.6c.033-.06.013-.1-.04-.1H7.007c-.066 0-.087.033-.12.085v.002c-.11.237-.223.475-.335.713-.3.64-.604 1.286-.885 1.927h-.014c-.294-.657-.602-1.303-.912-1.952-.112-.233-.223-.467-.334-.702-.02-.06-.054-.073-.12-.073H3.14c-.047 0-.087.047-.047.1L4.86 8.093l-1.827 3.514c-.033.04-.026.093.04.093H4.18c.053 0 .087-.02.12-.073.427-.88.867-1.854 1.267-2.747h.013c.447.947.88 1.86 1.307 2.74.033.067.066.087.14.087h1.16c.053 0 .073-.054.04-.107z"/><path fill-rule="evenodd" clip-rule="evenodd" d="M8.633 9.06c0-1.553 1-2.767 2.64-2.767.14 0 .214 0 .347.014V4.573c0-.04.033-.066.067-.066h1.073c.053 0 .067.02.067.053v6.093c0 .18 0 .407.033.654 0 .046 0 .053-.04.073a3.97 3.97 0 0 1-1.707.387c-1.446 0-2.48-.894-2.48-2.707zm2.987-1.707a.916.916 0 0 0-.387-.066c-.84 0-1.4.646-1.4 1.72 0 1.226.574 1.72 1.32 1.72.16 0 .334-.02.46-.074v-3.3h.007z"/><path fill-rule="evenodd" clip-rule="evenodd" d="M0 16V0h16v16H0zM.8.8h14.4v14.4H.8V.8z"/></g><defs><clipPath id="a"><path fill="#fff" d="M0 0h16v16H0z"/></clipPath></defs></svg>