<svg width="20" height="20" viewBox="0 0 20 20" fill="none" xmlns="http://www.w3.org/2000/svg">
<path fill-rule="evenodd" clip-rule="evenodd" d="M0 20V0H20V20H0ZM1 1H19V19H1V1ZM10.2833 14.5L7.95 9.975L10.15 5.75C10.1917 5.675 10.1667 5.625 10.1 5.625H8.75833C8.67602 5.625 8.65062 5.66565 8.60986 5.73089L8.60833 5.73333C8.47042 6.02951 8.33067 6.32691 8.19057 6.62504L8.1904 6.62541L8.19038 6.62544C7.81416 7.42605 7.43548 8.2319 7.08333 9.03333H7.06667C6.69899 8.21219 6.31329 7.40456 5.92613 6.59389L5.92595 6.59351L5.92577 6.59314C5.78656 6.30163 5.64715 6.00973 5.50833 5.71667C5.48333 5.64167 5.44167 5.625 5.35833 5.625H3.925C3.86667 5.625 3.81667 5.68333 3.86667 5.75L6.075 10.1167L3.79167 14.5083C3.75 14.5583 3.75833 14.625 3.84167 14.625H5.225C5.29167 14.625 5.33333 14.6 5.375 14.5333C5.90833 13.4333 6.45833 12.2167 6.95833 11.1H6.975C7.53333 12.2833 8.075 13.425 8.60833 14.525C8.65 14.6083 8.69167 14.6333 8.78333 14.6333H10.2333C10.3 14.6333 10.325 14.5667 10.2833 14.5ZM10.7917 11.325C10.7917 9.38333 12.0417 7.86667 14.0917 7.86667H14.0917C14.2667 7.86667 14.3583 7.86667 14.525 7.88333V5.71667C14.525 5.66667 14.5667 5.63333 14.6083 5.63333H15.95C16.0167 5.63333 16.0333 5.65833 16.0333 5.7V13.3167C16.0333 13.5417 16.0333 13.825 16.075 14.1333C16.075 14.1917 16.075 14.2 16.025 14.225C15.325 14.5583 14.5917 14.7083 13.8917 14.7083C12.0833 14.7083 10.7917 13.5917 10.7917 11.325ZM14.525 9.19167C14.4 9.13333 14.2417 9.10833 14.0417 9.10833C12.9917 9.10833 12.2917 9.91667 12.2917 11.2583C12.2917 12.7917 13.0083 13.4083 13.9417 13.4083C14.1417 13.4083 14.3583 13.3833 14.5167 13.3167V9.19167H14.525Z" fill="#FF00FF"/>
</svg>
