<svg width="16" height="16" fill="none" xmlns="http://www.w3.org/2000/svg"><g clip-path="url(#a)"><path d="M2.833.2h10.334A2.831 2.831 0 0 1 16 3.033v9.934a2.831 2.831 0 0 1-2.833 2.833H2.833A2.831 2.831 0 0 1 0 12.967V3.033A2.831 2.831 0 0 1 2.833.2z" fill="#00005B"/><path d="M3.8 11.14V4.28c0-.047.02-.073.067-.073.113 0 .22 0 .373-.007.16-.007.327-.007.507-.013.18-.007.373-.007.58-.014.206-.006.406-.006.606-.006.547 0 1 .066 1.374.206.333.114.64.3.893.547.213.213.38.473.487.76.1.28.153.567.153.867 0 .573-.133 1.046-.4 1.42-.267.373-.64.653-1.073.813-.454.167-.954.227-1.5.227-.16 0-.267 0-.334-.007-.066-.007-.16-.007-.286-.007v2.14c.006.047-.027.087-.074.094H3.88c-.053 0-.08-.027-.08-.087zm1.453-5.647v2.24c.094.007.18.014.26.014h.354c.26 0 .52-.04.766-.12.214-.06.4-.187.547-.354.14-.166.207-.393.207-.686a1.097 1.097 0 0 0-.154-.594.967.967 0 0 0-.466-.38c-.247-.1-.514-.14-.787-.133-.173 0-.327 0-.453.007-.134-.007-.227 0-.274.006zM9.773 5.88h1.167a.15.15 0 0 1 .14.107c.02.053.033.106.04.166a2.21 2.21 0 0 1 .047.447c.2-.233.44-.427.713-.573.307-.174.66-.26 1.013-.26.047-.007.087.026.094.073v1.327c0 .053-.034.073-.107.073a2.899 2.899 0 0 0-.72.067c-.193.04-.38.1-.56.18-.127.06-.247.14-.34.246v3.4c0 .067-.027.094-.087.094H9.86c-.053.006-.1-.027-.107-.08v-3.72c0-.16 0-.327-.006-.5-.007-.174-.007-.347-.014-.52 0-.154-.013-.3-.026-.454a.061.061 0 0 1 .046-.073c0-.007.014-.007.02 0z" fill="#99F"/></g><defs><clipPath id="a"><path fill="#fff" d="M0 0h16v16H0z"/></clipPath></defs></svg>