<svg width="20" height="20" viewBox="0 0 20 20" fill="none" xmlns="http://www.w3.org/2000/svg">
<path fill-rule="evenodd" clip-rule="evenodd" d="M20 0.600001C20 0.268869 19.7311 0 19.4 0H0.6C0.268868 0 0 0.268869 0 0.600001V19.4C0 19.7312 0.268868 20 0.6 20H19.4C19.7311 20 20 19.7312 20 19.4V0.600001Z" fill="#1B72BE"/>
<mask id="mask0" mask-type="alpha" maskUnits="userSpaceOnUse" x="0" y="0" width="20" height="20">
<path fill-rule="evenodd" clip-rule="evenodd" d="M20 0.600001C20 0.268869 19.7311 0 19.4 0H0.6C0.268868 0 0 0.268869 0 0.600001V19.4C0 19.7312 0.268868 20 0.6 20H19.4C19.7311 20 20 19.7312 20 19.4V0.600001Z" fill="white"/>
</mask>
<g mask="url(#mask0)">
<path fill-rule="evenodd" clip-rule="evenodd" d="M19.9866 0.617833C19.9866 0.287032 19.718 0.0184326 19.3872 0.0184326H8.19838L0.0065918 14.2071V19.399C0.0065918 19.7298 0.275191 19.9984 0.605991 19.9984H19.3872C19.718 19.9984 19.9866 19.7298 19.9866 19.399V0.617833Z" fill="#0568AA"/>
<path fill-rule="evenodd" clip-rule="evenodd" d="M9.24435 19.9984H7.85092L4.25176 12.7625L11.2655 0.0184326H12.3942L5.05156 12.7363L9.24431 19.9984H9.24435ZM13.019 19.9984H9.54405L5.44945 12.9064H19.988L19.9866 14.2305L13.019 19.9984ZM9.56514 0.0184326H8.39818L0.0065918 14.5531V16.5744L9.56514 0.0184326ZM11.5922 12.645H7.64023C7.17894 12.645 6.75 12.4036 6.51933 12.0042C6.2887 11.6047 6.2887 11.1126 6.51933 10.7131L8.49808 7.2858L11.5922 12.645ZM19.9866 12.645H11.8919L8.64791 7.0262L12.6939 0.0184326L14.1598 0.0193555L12.0306 7.26291L13.019 9.29321L19.9866 12.0332V12.645Z" fill="#074F7F"/>
<path fill-rule="evenodd" clip-rule="evenodd" d="M19.9865 19.9983H9.84371L5.89906 13.1659H19.9865V19.9983ZM8.94461 19.9983H0.0065918V15.0722L8.69785 0.0183411H12.0944L4.75182 12.7362L8.94461 19.9983ZM11.1435 12.3868H7.70929C7.32593 12.3868 6.97169 12.1856 6.78001 11.8535C6.58833 11.5216 6.58833 11.1125 6.78001 10.7806C7.54286 9.45925 8.49805 7.80486 8.49805 7.80486L11.1435 12.3868ZM19.9865 12.3868H12.0429L8.9476 7.02615L12.9935 0.0183411H19.9865V12.3868Z" fill="url(#paint0_radial)"/>
<path fill-rule="evenodd" clip-rule="evenodd" d="M20.45 20.3657H10.0558L5.89896 13.1659H20.4428L20.45 20.3657ZM4.75172 12.7362L9.15666 20.3657H-0.606703L-0.639404 16.1908L8.93905 -0.399597H12.3356L4.75172 12.7362ZM6.31425 13.4057L10.1942 20.1261H20.21L20.2034 13.4057H6.31425ZM9.07746 -0.159799L-0.399138 16.2542L-0.368817 20.1261H8.74139L4.47487 12.7362L11.9203 -0.159799H9.07746ZM11.1434 12.3868H7.70021L7.69573 12.3866H7.68677L7.68228 12.3864H7.67782L7.67335 12.3862L7.66888 12.386L7.66441 12.3858L7.65994 12.3856L7.65549 12.3854L7.65103 12.3852L7.64658 12.385L7.64213 12.3846L7.63768 12.3844L7.63325 12.384L7.6288 12.3839L7.62437 12.3835L7.61994 12.3831L7.61551 12.3827L7.61109 12.3823L7.60668 12.3819L7.60225 12.3815L7.59784 12.3811L7.59343 12.3805L7.58902 12.3801L7.58463 12.3796L7.58022 12.3792L7.57583 12.3786L7.57144 12.378L7.56707 12.3774L7.56268 12.3768L7.55831 12.3762L7.55394 12.3757L7.54957 12.3751L7.54519 12.3743L7.54084 12.3737L7.53649 12.3729L7.53214 12.3723L7.52779 12.3716L7.52344 12.3708L7.51911 12.37L7.51478 12.3692L7.51046 12.3684L7.50613 12.3677L7.50182 12.3669L7.49751 12.3659L7.4932 12.3651L7.4889 12.3641L7.48459 12.3634L7.4803 12.3624L7.47603 12.3614L7.47173 12.3604L7.46746 12.3597L7.46319 12.3585L7.45891 12.3575L7.45466 12.3565L7.45041 12.3556L7.44615 12.3544L7.44192 12.3534L7.43769 12.3524L7.43345 12.3513L7.42922 12.3501L7.425 12.3489L7.42079 12.3478L7.41657 12.3466L7.41236 12.3454L7.40816 12.3442L7.40397 12.3431L7.39979 12.3419L7.39562 12.3405L7.39144 12.3394L7.38727 12.338L7.38311 12.3366L7.37896 12.3355L7.3748 12.3341L7.37066 12.3327L7.36653 12.3314L7.36239 12.33L7.35827 12.3284L7.35416 12.3271L7.35004 12.3257L7.34594 12.3243L7.34185 12.3228L7.33775 12.3212L7.33367 12.3199L7.32959 12.3183L7.32553 12.3167L7.32146 12.3152L7.3174 12.3136L7.31336 12.312L7.30932 12.3105L7.30528 12.3089L7.30126 12.3072L7.29724 12.3056L7.29322 12.3039L7.28922 12.3023L7.28522 12.3005L7.28122 12.2988L7.27724 12.297L7.27326 12.2955L7.2693 12.2935L7.26534 12.2918L7.26138 12.29L7.25744 12.2882L7.2535 12.2865L7.24957 12.2845L7.24565 12.2828L7.24173 12.2808L7.23783 12.2791L7.23393 12.2771L7.23004 12.2752L7.22616 12.2732L7.22228 12.2713L7.21841 12.2693L7.21455 12.2674L7.21071 12.2654L7.20686 12.2635L7.20302 12.2613L7.1992 12.2594L7.19539 12.2572L7.19159 12.2553L7.18778 12.2531L7.184 12.251L7.18021 12.2488L7.17643 12.2467L7.17266 12.2447L7.16891 12.2426L7.16517 12.2402L7.16142 12.2381L7.15769 12.236L7.15399 12.2336L7.15026 12.2315L7.14657 12.2293L7.14287 12.227L7.13918 12.2246L7.13551 12.2223L7.13184 12.2201L7.12819 12.2178L7.12454 12.2155L7.12091 12.2131L7.11729 12.2108L7.11366 12.2082L7.11005 12.2059L7.10646 12.2036L7.10287 12.201L7.09928 12.1987L7.09571 12.1961L7.09215 12.1936L7.0886 12.1913L7.08505 12.1887L7.08152 12.1862L7.07801 12.1837L7.0745 12.1811L7.07098 12.1786L7.06751 12.1761L7.06402 12.1733L7.06055 12.1708L7.05709 12.1682L7.05364 12.1655L7.0502 12.163L7.04677 12.1602L7.04336 12.1575L7.03994 12.1548L7.03655 12.1522L7.03315 12.1495L7.02978 12.1468L7.02642 12.1439L7.02306 12.1411L7.01971 12.1384L7.01639 12.1357L7.01305 12.1327L7.00976 12.13L7.00644 12.1273L7.00316 12.1243L6.99988 12.1214L6.99661 12.1187L6.99335 12.1158L6.99011 12.1128L6.98687 12.1099L6.98365 12.107L6.98045 12.1041L6.97725 12.1011L6.97405 12.0982L6.97087 12.0951L6.96771 12.0922L6.96457 12.089L6.96141 12.0861L6.95829 12.083L6.95516 12.0801L6.95206 12.0769L6.94896 12.0738L6.94588 12.0707L6.94281 12.0676L6.93975 12.0644L6.93671 12.0613L6.93366 12.0582L6.93064 12.0551L6.92763 12.052L6.92463 12.0486L6.92164 12.0455L6.91868 12.0424L6.91571 12.0391L6.91276 12.0358L6.90982 12.0326L6.90691 12.0293L6.90398 12.026L6.9011 12.0227L6.89821 12.0194L6.89532 12.0161L6.89247 12.0127L6.88962 12.0094L6.88678 12.0061L6.88397 12.0028L6.88116 11.9993L6.87835 11.996L6.87558 11.9924L6.87281 11.9891L6.87003 11.9856L6.8673 11.9821L6.86457 11.9788L6.86184 11.9753L6.85915 11.9718L6.85645 11.9683L6.85378 11.9647L6.85111 11.9612L6.84845 11.9577L6.84582 11.9542L6.84321 11.9507L6.84059 11.947L6.838 11.9435L6.8354 11.9398L6.83285 11.9363L6.83029 11.9325L6.82773 11.9288L6.82522 11.9253L6.8227 11.9216L6.8202 11.9179L6.81772 11.9142L6.81525 11.9105L6.81279 11.9068L6.81035 11.9031L6.80791 11.8994L6.80551 11.8957L6.80311 11.8918L6.80071 11.8881L6.79835 11.8844L6.79599 11.8804L6.79365 11.8767L6.79132 11.8728L6.789 11.8689L6.7867 11.8652L6.78442 11.8613L6.78215 11.8574L6.77991 11.8535L6.77767 11.8496L6.77544 11.8457L6.77324 11.8418L6.77105 11.8379L6.76889 11.834L6.76674 11.8301L6.76461 11.8262L6.76249 11.8223L6.7604 11.8182L6.75831 11.8143L6.75626 11.8104L6.75421 11.8063L6.75218 11.8024L6.75017 11.7985L6.74818 11.7944L6.74621 11.7905L6.74424 11.7864L6.74231 11.7825L6.7404 11.7784L6.73849 11.7743L6.73659 11.7704L6.73474 11.7663L6.73289 11.7622L6.73105 11.7583L6.72924 11.7542L6.72742 11.7501L6.72565 11.7462L6.72389 11.7421L6.72214 11.738L6.72042 11.7339L6.7187 11.7298L6.717 11.7257L6.71533 11.7216L6.71367 11.7175L6.71203 11.7134L6.71041 11.7093L6.70881 11.7052L6.70721 11.7011L6.70565 11.697L6.70409 11.6929L6.70255 11.6887L6.70104 11.6846L6.69954 11.6805L6.69806 11.6764L6.6966 11.6723L6.69513 11.668L6.69371 11.6639L6.6923 11.6598L6.6909 11.6555L6.68953 11.6514L6.68817 11.6471L6.68682 11.643L6.68549 11.6389L6.68419 11.6346L6.6829 11.6305L6.68163 11.6262L6.68038 11.6219L6.67913 11.6178L6.67792 11.6135L6.67671 11.6094L6.67552 11.6051L6.67437 11.601L6.67322 11.5968L6.67209 11.5925L6.67098 11.5884L6.66986 11.5841L6.66879 11.5798L6.66774 11.5755L6.66668 11.5714L6.66565 11.5671L6.66465 11.5628L6.66366 11.5585L6.66268 11.5544L6.66173 11.5501L6.66079 11.5458L6.65987 11.5415L6.65896 11.5372L6.65808 11.5329L6.6572 11.5287L6.65636 11.5244L6.65552 11.5201L6.6547 11.5158L6.6539 11.5117L6.65312 11.5074L6.65236 11.5031L6.65162 11.4988L6.6509 11.4943L6.65018 11.4902L6.64949 11.4857L6.64881 11.4814L6.64815 11.4771L6.6475 11.4729L6.6469 11.4686L6.64628 11.4643L6.64569 11.46L6.64512 11.4557L6.64458 11.4514L6.64403 11.4471L6.64352 11.4428L6.64302 11.4383L6.64253 11.434L6.64208 11.4297L6.64163 11.4254L6.6412 11.4211L6.64079 11.4169L6.64038 11.4124L6.64001 11.4081L6.63966 11.4038L6.63931 11.3995L6.63898 11.3952L6.63868 11.3907L6.63839 11.3864L6.63812 11.3821L6.63787 11.3778L6.63763 11.3735L6.6374 11.369L6.6372 11.3648L6.63703 11.3605L6.63685 11.3562L6.63669 11.3517L6.63658 11.3474L6.63646 11.3431L6.63636 11.3388L6.63628 11.3343L6.63623 11.33L6.63617 11.3257L6.63615 11.3214V11.3127L6.63617 11.3084L6.63623 11.3041L6.63628 11.2996L6.63636 11.2953L6.63646 11.291L6.63658 11.2867L6.63669 11.2822L6.63685 11.2779L6.63703 11.2736L6.6372 11.2693L6.6374 11.2649L6.63763 11.2606L6.63787 11.2563L6.63812 11.252L6.63839 11.2475L6.63868 11.2432L6.63898 11.2389L6.63931 11.2346L6.63966 11.2303L6.64001 11.226L6.64038 11.2215L6.64079 11.2172L6.6412 11.213L6.64163 11.2087L6.64208 11.2044L6.64253 11.1999L6.64302 11.1956L6.64352 11.1913L6.64403 11.187L6.64458 11.1827L6.64512 11.1784L6.64569 11.1741L6.64628 11.1698L6.6469 11.1653L6.6475 11.1611L6.64815 11.1568L6.64881 11.1525L6.64949 11.1482L6.65018 11.1439L6.6509 11.1396L6.65162 11.1353L6.65236 11.131L6.65312 11.1267L6.6539 11.1224L6.6547 11.1181L6.65552 11.1138L6.65636 11.1095L6.6572 11.1053L6.65808 11.1012L6.65896 11.0969L6.65987 11.0926L6.66079 11.0883L6.66173 11.084L6.66268 11.0797L6.66366 11.0754L6.66465 11.0713L6.66565 11.067L6.66668 11.0627L6.66774 11.0584L6.66879 11.0543L6.66986 11.05L6.67098 11.0457L6.67209 11.0414L6.67322 11.0374L6.67437 11.0331L6.67552 11.0288L6.67671 11.0247L6.67792 11.0204L6.67913 11.0163L6.68038 11.012L6.68163 11.0079L6.6829 11.0036L6.68419 10.9995L6.68549 10.9952L6.68682 10.9911L6.68817 10.9868L6.68953 10.9827L6.6909 10.9784L6.6923 10.9743L6.69371 10.9702L6.69513 10.9661L6.6966 10.9618L6.69806 10.9577L6.69954 10.9536L6.70104 10.9495L6.70255 10.9453L6.70409 10.9412L6.70565 10.9371L6.70721 10.933L6.70881 10.9289L6.71041 10.9248L6.71203 10.9207L6.71367 10.9166L6.71533 10.9125L6.717 10.9084L6.7187 10.9043L6.72042 10.9002L6.72214 10.8961L6.72389 10.892L6.72565 10.8879L6.72742 10.8838L6.72924 10.8799L6.73105 10.8758L6.73289 10.8717L6.73474 10.8678L6.73659 10.8637L6.73849 10.8596L6.7404 10.8557L6.74231 10.8516L6.74424 10.8475L6.74621 10.8436L6.74818 10.8397L6.75017 10.8356L6.75218 10.8317L6.75421 10.8276L6.75626 10.8237L6.75831 10.8198L6.7604 10.8159L6.76249 10.8118L6.76461 10.8079L6.76674 10.804L6.76889 10.8001L6.77105 10.7962L6.77324 10.7923L6.77544 10.7882L6.77767 10.7845L6.77991 10.7806L8.49795 7.80486L11.1434 12.3868ZM20.4379 12.3868H12.0424L8.9475 7.02615L13.2347 -0.399597H20.3511L20.4379 12.3868ZM6.98769 10.9002L6.9858 10.9035L6.98406 10.9064L6.98238 10.9094L6.98067 10.9125L6.97901 10.9156L6.97729 10.9187L6.97565 10.9216L6.97401 10.9248L6.97237 10.9279L6.97077 10.9308L6.96917 10.9339L6.96757 10.9371L6.96597 10.9402L6.96445 10.9431L6.96289 10.9462L6.96133 10.9495L6.95985 10.9525L6.95834 10.9556L6.95684 10.9587L6.95538 10.9618L6.9539 10.965L6.95243 10.9681L6.95099 10.9714L6.94958 10.9743L6.9482 10.9775L6.94677 10.9808L6.94539 10.9839L6.94402 10.987L6.94268 10.9901L6.94133 10.9933L6.94 10.9966L6.93868 10.9997L6.93737 11.0028L6.9361 11.0059L6.93481 11.0093L6.93354 11.0124L6.93232 11.0155L6.93109 11.0188L6.92986 11.0219L6.92865 11.0253L6.92746 11.0284L6.92629 11.0315L6.92514 11.0348L6.92396 11.0381L6.92283 11.0413L6.92172 11.0444L6.92059 11.0477L6.9195 11.051L6.91842 11.0541L6.91735 11.0574L6.9163 11.0606L6.91526 11.0639L6.91423 11.0672L6.91321 11.0703L6.9122 11.0736L6.91122 11.077L6.91025 11.0801L6.90927 11.0834L6.90834 11.0867L6.90742 11.0898L6.90648 11.0934L6.90558 11.0965L6.90469 11.0998L6.90381 11.1031L6.90295 11.1064L6.90209 11.1097L6.90125 11.1129L6.90043 11.1162L6.89961 11.1195L6.89881 11.1228L6.89805 11.1261L6.89727 11.1294L6.89651 11.1328L6.89577 11.1361L6.89503 11.1394L6.89433 11.1427L6.89362 11.146L6.89294 11.1493L6.89226 11.1527L6.89159 11.156L6.89097 11.1593L6.89033 11.1626L6.8897 11.1659L6.8891 11.1693L6.88851 11.1726L6.88793 11.1759L6.88736 11.1792L6.8868 11.1825L6.88627 11.186L6.88574 11.1892L6.88523 11.1927L6.88473 11.196L6.88426 11.1993L6.88377 11.2026L6.88332 11.2059L6.88287 11.2092L6.88244 11.2126L6.88203 11.2161L6.88162 11.2194L6.88125 11.2227L6.88086 11.226L6.88051 11.2295L6.88016 11.2329L6.87983 11.2362L6.8795 11.2395L6.8792 11.243L6.87891 11.2463L6.87862 11.2496L6.87837 11.253L6.87811 11.2563L6.87788 11.2598L6.87764 11.2631L6.87743 11.2664L6.87723 11.2699L6.87706 11.2732L6.87688 11.2766L6.87673 11.2799L6.87659 11.2834L6.87645 11.2867L6.87634 11.29L6.87624 11.2933L6.87614 11.2969L6.87606 11.3002L6.87601 11.3035L6.87597 11.3068L6.87593 11.3103L6.87591 11.3136V11.3205L6.87593 11.3238L6.87597 11.3271L6.87601 11.3304L6.87606 11.3339L6.87614 11.3372L6.87624 11.3406L6.87634 11.3441L6.87645 11.3474L6.87659 11.3507L6.87673 11.3542L6.87688 11.3575L6.87706 11.3609L6.87723 11.3642L6.87743 11.3677L6.87764 11.371L6.87788 11.3743L6.87811 11.3776L6.87837 11.3811L6.87862 11.3845L6.87891 11.3878L6.8792 11.3911L6.8795 11.3946L6.87983 11.3979L6.88016 11.4012L6.88051 11.4046L6.88086 11.4079L6.88123 11.4114L6.88162 11.4147L6.88203 11.418L6.88244 11.4213L6.88287 11.4247L6.88332 11.428L6.88377 11.4313L6.88426 11.4348L6.88473 11.4381L6.88523 11.4414L6.88574 11.4448L6.88627 11.4481L6.8868 11.4514L6.88736 11.4549L6.88793 11.4582L6.88851 11.4615L6.8891 11.4649L6.8897 11.4682L6.89033 11.4715L6.89095 11.4748L6.89161 11.4781L6.89226 11.4814L6.89294 11.4848L6.89362 11.4881L6.89433 11.4914L6.89505 11.4947L6.89577 11.498L6.89651 11.5013L6.89727 11.5047L6.89803 11.508L6.89881 11.5113L6.89961 11.5144L6.90043 11.5179L6.90127 11.521L6.90209 11.5244L6.90295 11.5277L6.90381 11.531L6.90469 11.5343L6.90558 11.5376L6.90648 11.5408L6.9074 11.5441L6.90836 11.5474L6.90929 11.5507L6.91023 11.5538L6.91122 11.5571L6.9122 11.5605L6.91319 11.5636L6.91423 11.5669L6.91526 11.5702L6.9163 11.5733L6.91735 11.5767L6.91842 11.58L6.9195 11.5831L6.92059 11.5864L6.9217 11.5895L6.92283 11.5928L6.92396 11.596L6.92512 11.5993L6.92627 11.6024L6.92746 11.6057L6.92865 11.6088L6.92986 11.6122L6.93109 11.6153L6.93232 11.6184L6.93356 11.6217L6.93481 11.6248L6.93608 11.628L6.93739 11.6313L6.93868 11.6344L6.94 11.6375L6.94133 11.6407L6.94266 11.6438L6.94402 11.6471L6.94539 11.6502L6.94677 11.6533L6.9482 11.6565L6.94958 11.6596L6.95101 11.6629L6.95245 11.666L6.9539 11.6691L6.95536 11.6721L6.95684 11.6752L6.95834 11.6785L6.95983 11.6814L6.96137 11.6846L6.96289 11.6877L6.96443 11.6908L6.96599 11.6939L6.96757 11.697L6.96915 11.7L6.97077 11.7031L6.97239 11.7062L6.97401 11.7093L6.97565 11.7125L6.97729 11.7154L6.97897 11.7185L6.98068 11.7216L6.98238 11.7246L6.98406 11.7277L6.9858 11.7306L6.98751 11.7337L6.98929 11.7366L6.99108 11.7398L6.99284 11.7427L6.99458 11.7456L6.99637 11.7486L6.99821 11.7517L7.00002 11.7546L7.00182 11.7575L7.00367 11.7605L7.00554 11.7634L7.0074 11.7663L7.00927 11.7692L7.01116 11.7722L7.01302 11.7749L7.01493 11.7778L7.01684 11.7807L7.01875 11.7835L7.02074 11.7864L7.02265 11.7893L7.02459 11.7921L7.02658 11.795L7.02857 11.7977L7.03056 11.8005L7.03259 11.8034L7.03456 11.8061L7.03659 11.8088L7.03861 11.8116L7.04062 11.8143L7.04267 11.817L7.0448 11.82L7.04683 11.8225L7.04888 11.8252L7.05102 11.828L7.05317 11.8307L7.05524 11.8332L7.05731 11.836L7.05945 11.8387L7.06168 11.8414L7.0638 11.844L7.06591 11.8465L7.06812 11.8492L7.07032 11.8518L7.07253 11.8545L7.07469 11.857L7.07694 11.8596L7.07912 11.8621L7.08136 11.8646L7.08365 11.8674L7.08585 11.8697L7.08814 11.8723L7.09038 11.8748L7.0927 11.8773L7.095 11.8799L7.09729 11.8824L7.09957 11.8847L7.10191 11.8873L7.10427 11.8898L7.10657 11.8922L7.1089 11.8945L7.11128 11.897L7.1137 11.8996L7.11604 11.9019L7.11838 11.9043L7.12082 11.9066L7.1232 11.9089L7.1256 11.9113L7.12804 11.9136L7.13051 11.9162L7.13293 11.9183L7.13535 11.9206L7.13787 11.923L7.14031 11.9253L7.14275 11.9275L7.14523 11.9298L7.14778 11.9322L7.15032 11.9345L7.15272 11.9366L7.15524 11.9388L7.15781 11.9411L7.16043 11.9433L7.16294 11.9456L7.16546 11.9478L7.16804 11.9499L7.17057 11.9521L7.17323 11.9542L7.17578 11.9564L7.17836 11.9585L7.18097 11.9606L7.18357 11.9628L7.18618 11.9647L7.18887 11.9669L7.19151 11.969L7.19404 11.971L7.19678 11.9731L7.19953 11.9753L7.20212 11.9772L7.2048 11.9792L7.20755 11.9813L7.21016 11.9833L7.21285 11.9852L7.21564 11.9874L7.21838 11.9893L7.22109 11.9913L7.22382 11.9932L7.22649 11.995L7.22924 11.9969L7.23207 11.9989L7.23484 12.0008L7.23763 12.0028L7.24042 12.0047L7.24312 12.0065L7.24593 12.0083L7.24883 12.0102L7.25154 12.012L7.25437 12.0139L7.25732 12.0157L7.26007 12.0174L7.26282 12.0192L7.26577 12.0211L7.26866 12.0229L7.27145 12.0246L7.27432 12.0262L7.27722 12.028L7.28013 12.0297L7.28304 12.0315L7.28594 12.0332L7.28889 12.035L7.29172 12.0365L7.29457 12.0381L7.29761 12.0399L7.30058 12.0416L7.30345 12.0432L7.30643 12.0447L7.3093 12.0463L7.3123 12.0479L7.31529 12.0496L7.31829 12.0512L7.32132 12.0527L7.32425 12.0541L7.32717 12.0557L7.33022 12.0572L7.33326 12.0588L7.33621 12.0602L7.33927 12.0617L7.34233 12.0633L7.3453 12.0646L7.3484 12.0662L7.35148 12.0676L7.35447 12.0689L7.35747 12.0703L7.36058 12.0719L7.36372 12.0732L7.36674 12.0746L7.36986 12.076L7.37289 12.0773L7.37595 12.0785L7.37911 12.0799L7.38225 12.0812L7.38532 12.0826L7.38838 12.0838L7.39158 12.0851L7.39478 12.0865L7.39786 12.0877L7.40096 12.0888L7.40405 12.09L7.40727 12.0914L7.41039 12.0925L7.41351 12.0937L7.41677 12.0949L7.41989 12.0961L7.42315 12.0972L7.42629 12.0984L7.42943 12.0994L7.43273 12.1005L7.43589 12.1017L7.43905 12.1027L7.44237 12.1039L7.44555 12.1048L7.44873 12.106L7.45193 12.107L7.45513 12.108L7.45835 12.1089L7.46169 12.1101L7.4649 12.1111L7.46812 12.1121L7.47148 12.113L7.4746 12.1138L7.47784 12.1148L7.48122 12.1158L7.48448 12.1167L7.48773 12.1175L7.49113 12.1185L7.49441 12.1193L7.49757 12.1202L7.50086 12.121L7.50428 12.1218L7.50758 12.1228L7.51074 12.1236L7.51405 12.1243L7.51751 12.1251L7.52083 12.1259L7.52414 12.1265L7.52748 12.1273L7.53068 12.1281L7.53415 12.1288L7.53751 12.1294L7.54073 12.1302L7.54422 12.1308L7.54758 12.1316L7.55081 12.1322L7.55419 12.1327L7.55758 12.1333L7.56096 12.1339L7.56447 12.1345L7.56775 12.1351L7.57103 12.1357L7.57456 12.1362L7.57796 12.1368L7.58125 12.1372L7.58469 12.1378L7.5881 12.1384L7.59154 12.1388L7.59497 12.1394L7.59829 12.1398L7.60172 12.1402L7.60517 12.1405L7.60863 12.1409L7.61208 12.1415L7.61542 12.1419L7.61875 12.1421L7.62223 12.1425L7.62586 12.1429L7.62919 12.1433L7.63255 12.1435L7.63618 12.1439L7.63955 12.1441L7.64291 12.1444L7.64656 12.1446L7.64993 12.1448L7.65331 12.1452L7.65684 12.1454L7.66035 12.1456L7.66388 12.1458L7.66728 12.146L7.67069 12.1462H7.67423L7.67778 12.1464L7.68119 12.1466H7.68461L7.68818 12.1468H7.69516L7.6986 12.147H10.7281L8.49795 8.28426L6.98769 10.9002ZM13.3731 -0.159799L9.22435 7.02615L12.1809 12.147H20.1965L20.113 -0.159799H13.3731Z" fill="url(#paint1_linear)"/>
</g>
<defs>
<radialGradient id="paint0_radial" cx="0" cy="0" r="1" gradientUnits="userSpaceOnUse" gradientTransform="translate(15.2779 -3.73668) scale(23.7349)">
<stop stop-color="#6BE1FB"/>
<stop offset="1" stop-color="#38BDFA"/>
</radialGradient>
<linearGradient id="paint1_linear" x1="25.9103" y1="19.9988" x2="25.9099" y2="0.01883" gradientUnits="userSpaceOnUse">
<stop stop-color="#4AC5FA"/>
<stop offset="1" stop-color="#97E8FC"/>
</linearGradient>
</defs>
</svg>
