<svg width="16" height="16" viewBox="0 0 16 16" fill="none" xmlns="http://www.w3.org/2000/svg">
<g clip-path="url(#clip0_1447_3105)">
<path fill-rule="evenodd" clip-rule="evenodd" d="M16 0.480001C16 0.215095 15.7849 0 15.52 0H0.48C0.215095 0 0 0.215095 0 0.480001V15.52C0 15.7849 0.215095 16 0.48 16H15.52C15.7849 16 16 15.7849 16 15.52V0.480001Z" fill="#1B72BE"/>
<mask id="mask0_1447_3105" style="mask-type:alpha" maskUnits="userSpaceOnUse" x="0" y="0" width="16" height="16">
<path fill-rule="evenodd" clip-rule="evenodd" d="M16 0.480001C16 0.215095 15.7849 0 15.52 0H0.48C0.215095 0 0 0.215095 0 0.480001V15.52C0 15.7849 0.215095 16 0.48 16H15.52C15.7849 16 16 15.7849 16 15.52V0.480001Z" fill="white"/>
</mask>
<g mask="url(#mask0_1447_3105)">
<path fill-rule="evenodd" clip-rule="evenodd" d="M15.9894 0.494291C15.9894 0.22965 15.7745 0.0147705 15.5098 0.0147705H6.5588L0.00537109 11.3657V15.5193C0.00537109 15.7839 0.22025 15.9988 0.484891 15.9988H15.5098C15.7745 15.9988 15.9894 15.7839 15.9894 15.5193V0.494291Z" fill="#0568AA"/>
<path fill-rule="evenodd" clip-rule="evenodd" d="M7.39558 15.9988H6.28084L3.40151 10.2101L9.01251 0.0147705H9.91544L4.04134 10.189L7.39554 15.9988H7.39558ZM10.4153 15.9988H7.63534L4.35966 10.3251H15.9905L15.9894 11.3845L10.4153 15.9988ZM7.65221 0.0147705H6.71864L0.00537109 11.6425V13.2595L7.65221 0.0147705ZM9.27387 10.116H6.11229C5.74325 10.116 5.40009 9.92293 5.21556 9.6034C5.03106 9.28382 5.03106 8.89008 5.21556 8.57049L6.79856 5.82867L9.27387 10.116ZM15.9894 10.116H9.51362L6.91842 5.62098L10.1552 0.0147705L11.328 0.0155088L9.62455 5.81036L10.4153 7.4346L15.9894 9.62658V10.116V10.116Z" fill="#074F7F"/>
<path fill-rule="evenodd" clip-rule="evenodd" d="M15.9893 15.9986H7.87506L4.71935 10.5327H15.9893V15.9986ZM7.15579 15.9986H0.00537109V12.0577L6.95838 0.014679H9.67564L3.80155 10.189L7.15579 15.9986ZM8.91486 9.90943H6.16753C5.86084 9.90943 5.57745 9.74849 5.42411 9.48282C5.27076 9.21725 5.27076 8.89004 5.42411 8.62447C6.03438 7.5674 6.79854 6.24389 6.79854 6.24389L8.91486 9.90943V9.90943ZM15.9893 9.90943H9.63445L7.15818 5.62092L10.3949 0.014679H15.9893V9.90943Z" fill="url(#paint0_radial_1447_3105)"/>
<path fill-rule="evenodd" clip-rule="evenodd" d="M16.3598 16.2925H8.04441L4.71897 10.5327H16.354L16.3598 16.2925V16.2925ZM3.80118 10.189L7.32513 16.2925H-0.485558L-0.511719 12.9526L7.15104 -0.319672H9.86831L3.80118 10.189ZM5.0512 10.7245L8.15516 16.1009H16.1678L16.1625 10.7245H5.0512ZM7.26178 -0.127833L-0.319506 13.0034L-0.295249 16.1009H6.99292L3.5797 10.189L9.53608 -0.127833H7.26178V-0.127833ZM8.91449 9.90943H6.15998L6.15639 9.90927H6.14922L6.14563 9.90912H6.14206L6.13848 9.90896L6.13491 9.9088L6.13133 9.90865L6.12776 9.90849L6.1242 9.90834L6.12062 9.90818L6.11707 9.90802L6.11351 9.90771L6.10995 9.90755L6.1064 9.90724L6.10285 9.90709L6.0993 9.90677L6.09576 9.90646L6.09222 9.90615L6.08867 9.90584L6.08515 9.90553L6.0816 9.90521L6.07807 9.9049L6.07455 9.90443L6.07102 9.90412L6.06751 9.90365L6.06398 9.90334L6.06047 9.90287L6.05695 9.9024L6.05346 9.90194L6.04995 9.90147L6.04645 9.901L6.04295 9.90053L6.03946 9.90006L6.03596 9.89944L6.03248 9.89897L6.029 9.89835L6.02552 9.89788L6.02204 9.89725L6.01856 9.89663L6.01509 9.896L6.01163 9.89538L6.00818 9.89476L6.00471 9.89413L6.00126 9.89351L5.99781 9.89273L5.99436 9.8921L5.99093 9.89132L5.98748 9.8907L5.98404 9.88992L5.98063 9.88914L5.97719 9.88836L5.97377 9.88773L5.97035 9.88679L5.96694 9.88601L5.96353 9.88523L5.96013 9.88445L5.95673 9.88352L5.95334 9.88274L5.94995 9.88196L5.94657 9.88102L5.94318 9.88008L5.93981 9.87915L5.93644 9.87821L5.93306 9.87727L5.92969 9.87634L5.92634 9.8754L5.92298 9.87446L5.91964 9.87353L5.9163 9.87243L5.91296 9.8715L5.90962 9.8704L5.90629 9.86931L5.90297 9.86838L5.89964 9.86728L5.89633 9.86619L5.89303 9.8651L5.88972 9.864L5.88642 9.86276L5.88313 9.86166L5.87984 9.86057L5.87656 9.85948L5.87328 9.85823L5.87 9.85698L5.86674 9.85589L5.86348 9.85464L5.86023 9.85339L5.85697 9.85214L5.85372 9.85089L5.85049 9.84964L5.84726 9.8484L5.84403 9.84715L5.84081 9.84574L5.8376 9.84449L5.83438 9.84309L5.83118 9.84184L5.82798 9.84043L5.82478 9.83903L5.8216 9.83762L5.81841 9.83638L5.81524 9.83482L5.81208 9.83341L5.80891 9.83201L5.80575 9.8306L5.8026 9.8292L5.79946 9.82763L5.79633 9.82623L5.79319 9.82467L5.79007 9.82326L5.78695 9.8217L5.78384 9.82014L5.78073 9.81858L5.77763 9.81702L5.77454 9.81546L5.77145 9.8139L5.76837 9.81234L5.76529 9.81078L5.76222 9.80906L5.75916 9.8075L5.75612 9.80578L5.75307 9.80422L5.75003 9.8025L5.747 9.80079L5.74397 9.79907L5.74094 9.79735L5.73793 9.79579L5.73493 9.79407L5.73194 9.7922L5.72894 9.79048L5.72596 9.78877L5.72299 9.78689L5.72001 9.78518L5.71706 9.78346L5.7141 9.78159L5.71115 9.77971L5.70821 9.77784L5.70528 9.77612L5.70236 9.77425L5.69944 9.77238L5.69654 9.7705L5.69363 9.76863L5.69073 9.7666L5.68784 9.76473L5.68497 9.76286L5.6821 9.76083L5.67923 9.75895L5.67637 9.75692L5.67353 9.7549L5.67069 9.75302L5.66785 9.75099L5.66502 9.74896L5.66221 9.74693L5.6594 9.74491L5.65659 9.74288L5.65381 9.74085L5.65102 9.73866L5.64824 9.73663L5.64548 9.7346L5.64272 9.73242L5.63997 9.73039L5.63722 9.7282L5.63449 9.72602L5.63176 9.72383L5.62904 9.7218L5.62633 9.71962L5.62362 9.71743L5.62094 9.71509L5.61826 9.71291L5.61557 9.71072L5.61292 9.70854L5.61025 9.70619L5.60761 9.70401L5.60496 9.70182L5.60233 9.69948L5.59971 9.69714L5.59709 9.69496L5.59448 9.69261L5.59189 9.69027L5.5893 9.68793L5.58672 9.68559L5.58416 9.68325L5.5816 9.68091L5.57904 9.67857L5.5765 9.67607L5.57397 9.67373L5.57146 9.67123L5.56893 9.66889L5.56643 9.66639L5.56394 9.66405L5.56145 9.66155L5.55897 9.65905L5.5565 9.65656L5.55405 9.65406L5.5516 9.65156L5.54917 9.64906L5.54673 9.64657L5.54431 9.64407L5.54191 9.64157L5.53951 9.63892L5.53712 9.63642L5.53475 9.63392L5.53237 9.63127L5.53002 9.62862L5.52766 9.62612L5.52533 9.62346L5.52299 9.62081L5.52068 9.61816L5.51837 9.6155L5.51606 9.61285L5.51378 9.6102L5.5115 9.60754L5.50922 9.60489L5.50698 9.60224L5.50473 9.59943L5.50248 9.59677L5.50026 9.59396L5.49805 9.59131L5.49583 9.5885L5.49365 9.58569L5.49146 9.58304L5.48928 9.58023L5.48712 9.57742L5.48497 9.57461L5.48283 9.5718L5.48069 9.56899L5.47857 9.56618L5.47646 9.56337L5.47437 9.56056L5.47228 9.55759L5.4702 9.55478L5.46813 9.55182L5.46608 9.54901L5.46404 9.54604L5.46199 9.54308L5.45998 9.54027L5.45796 9.5373L5.45597 9.53434L5.45398 9.53137L5.452 9.5284L5.45003 9.52544L5.44808 9.52247L5.44613 9.51951L5.44421 9.51654L5.44229 9.51342L5.44037 9.51045L5.43848 9.50749L5.43659 9.50437L5.43472 9.5014L5.43286 9.49828L5.43101 9.49516L5.42916 9.49219L5.42734 9.48907L5.42553 9.48595L5.42373 9.48282L5.42194 9.4797L5.42016 9.47658L5.41839 9.47346L5.41665 9.47034L5.41491 9.46722L5.4132 9.46409L5.41149 9.46097L5.40979 9.45785L5.40812 9.45457L5.40645 9.45145L5.40481 9.44833L5.40317 9.44505L5.40155 9.44193L5.39994 9.43881L5.39835 9.43553L5.39678 9.43241L5.3952 9.42913L5.39365 9.42601L5.39212 9.42273L5.39059 9.41945L5.38908 9.41633L5.3876 9.41305L5.38611 9.40977L5.38465 9.40665L5.38319 9.40337L5.38174 9.4001L5.38032 9.39697L5.37892 9.3937L5.37751 9.39042L5.37614 9.38714L5.37477 9.38386L5.37341 9.38058L5.37207 9.37731L5.37074 9.37403L5.36943 9.37075L5.36813 9.36747L5.36685 9.36419L5.36557 9.36092L5.36432 9.35764L5.36307 9.35436L5.36184 9.35093L5.36064 9.34765L5.35944 9.34437L5.35825 9.34109L5.35708 9.33781L5.35591 9.33438L5.35477 9.3311L5.35365 9.32782L5.35252 9.32439L5.35143 9.32111L5.35034 9.31768L5.34926 9.3144L5.3482 9.31112L5.34715 9.30769L5.34612 9.30441L5.34511 9.30098L5.34411 9.29754L5.34311 9.29426L5.34214 9.29083L5.34117 9.28755L5.34022 9.28412L5.3393 9.28084L5.33838 9.27741L5.33748 9.27397L5.33659 9.27069L5.3357 9.26726L5.33484 9.26383L5.33399 9.26039L5.33315 9.25711L5.33232 9.25368L5.33153 9.25025L5.33073 9.24681L5.32995 9.24353L5.32919 9.2401L5.32844 9.23667L5.3277 9.23323L5.32697 9.2298L5.32627 9.22636L5.32557 9.22293L5.32489 9.2195L5.32422 9.21606L5.32357 9.21263L5.32293 9.20935L5.3223 9.20592L5.32169 9.20248L5.3211 9.19905L5.32052 9.19546L5.31995 9.19218L5.3194 9.18859L5.31885 9.18516L5.31832 9.18172L5.31781 9.17829L5.31732 9.17485L5.31682 9.17142L5.31636 9.16799L5.3159 9.16455L5.31547 9.16112L5.31503 9.15768L5.31462 9.15425L5.31422 9.15066L5.31383 9.14722L5.31347 9.14379L5.31311 9.14036L5.31277 9.13692L5.31244 9.13349L5.31211 9.1299L5.31181 9.12646L5.31153 9.12303L5.31125 9.1196L5.31099 9.11616L5.31075 9.11257L5.31052 9.10914L5.3103 9.1057L5.3101 9.10227L5.30991 9.09884L5.30972 9.09525L5.30957 9.09181L5.30943 9.08838L5.30928 9.08494L5.30916 9.08135L5.30907 9.07792L5.30897 9.07449L5.30889 9.07105L5.30883 9.06746L5.30879 9.06403L5.30874 9.06059L5.30872 9.05716V9.05013L5.30874 9.0467L5.30879 9.04327L5.30883 9.03968L5.30889 9.03624L5.30897 9.03281L5.30907 9.02937L5.30916 9.02578L5.30928 9.02235L5.30943 9.01892L5.30957 9.01548L5.30972 9.01189L5.30991 9.00846L5.3101 9.00502L5.3103 9.00159L5.31052 8.998L5.31075 8.99457L5.31099 8.99113L5.31125 8.9877L5.31153 8.98426L5.31181 8.98083L5.31211 8.97724L5.31244 8.9738L5.31277 8.97037L5.31311 8.96694L5.31347 8.9635L5.31383 8.95991L5.31422 8.95648L5.31462 8.95304L5.31503 8.94961L5.31547 8.94618L5.3159 8.94274L5.31636 8.93931L5.31682 8.93587L5.31732 8.93228L5.31781 8.92885L5.31832 8.92542L5.31885 8.92198L5.3194 8.91855L5.31995 8.91511L5.32052 8.91168L5.3211 8.90825L5.32169 8.90481L5.3223 8.90138L5.32293 8.89794L5.32357 8.89451L5.32422 8.89108L5.32489 8.88764L5.32557 8.88421L5.32627 8.88093L5.32697 8.8775L5.3277 8.87406L5.32844 8.87063L5.32919 8.86719L5.32995 8.86376L5.33073 8.86033L5.33153 8.85705L5.33232 8.85361L5.33315 8.85018L5.33399 8.84675L5.33484 8.84347L5.3357 8.84003L5.33659 8.8366L5.33748 8.83317L5.33838 8.82989L5.3393 8.82645L5.34022 8.82302L5.34117 8.81974L5.34214 8.81631L5.34311 8.81303L5.34411 8.80959L5.34511 8.80632L5.34612 8.80288L5.34715 8.79961L5.3482 8.79617L5.34926 8.79289L5.35034 8.78946L5.35143 8.78618L5.35252 8.78275L5.35365 8.77947L5.35477 8.77619L5.35591 8.77291L5.35708 8.76948L5.35825 8.7662L5.35944 8.76292L5.36064 8.75965L5.36184 8.75621L5.36307 8.75293L5.36432 8.74966L5.36557 8.74638L5.36685 8.7431L5.36813 8.73982L5.36943 8.73654L5.37074 8.73327L5.37207 8.72999L5.37341 8.72671L5.37477 8.72343L5.37614 8.72015L5.37751 8.71688L5.37892 8.7136L5.38032 8.71032L5.38174 8.70704L5.38319 8.70392L5.38465 8.70064L5.38611 8.69736L5.3876 8.69424L5.38908 8.69096L5.39059 8.68769L5.39212 8.68456L5.39365 8.68129L5.3952 8.67801L5.39678 8.67489L5.39835 8.67176L5.39994 8.66849L5.40155 8.66536L5.40317 8.66209L5.40481 8.65896L5.40645 8.65584L5.40812 8.65272L5.40979 8.64944L5.41149 8.64632L5.4132 8.6432L5.41491 8.64008L5.41665 8.63696L5.41839 8.63383L5.42016 8.63056L5.42194 8.62759L5.42373 8.62447L6.79816 6.24389L8.91449 9.90943V9.90943ZM16.3501 9.90943H9.63376L7.1578 5.62092L10.5876 -0.319672H16.2807L16.3501 9.90943V9.90943ZM5.58996 8.72015L5.58844 8.72281L5.58705 8.72515L5.58571 8.72749L5.58434 8.72999L5.58301 8.73249L5.58164 8.73498L5.58033 8.73732L5.57901 8.73982L5.5777 8.74232L5.57642 8.74466L5.57514 8.74716L5.57386 8.74966L5.57258 8.75215L5.57137 8.75449L5.57012 8.75699L5.56887 8.75965L5.56768 8.76199L5.56648 8.76448L5.56528 8.76698L5.56411 8.76948L5.56292 8.77198L5.56175 8.77447L5.5606 8.77713L5.55947 8.77947L5.55836 8.78197L5.55722 8.78462L5.55612 8.78712L5.55502 8.78962L5.55395 8.79211L5.55287 8.79461L5.55181 8.79726L5.55075 8.79976L5.5497 8.80226L5.54869 8.80476L5.54766 8.80741L5.54664 8.80991L5.54566 8.8124L5.54467 8.81506L5.54369 8.81756L5.54272 8.82021L5.54177 8.82271L5.54083 8.8252L5.53991 8.82786L5.53898 8.83051L5.53807 8.83301L5.53718 8.83551L5.53628 8.83816L5.5354 8.84081L5.53454 8.84331L5.53368 8.84596L5.53284 8.84846L5.53201 8.85112L5.53119 8.85377L5.53038 8.85627L5.52956 8.85892L5.52878 8.86157L5.528 8.86407L5.52722 8.86673L5.52647 8.86938L5.52574 8.87188L5.52499 8.87469L5.52427 8.87718L5.52355 8.87984L5.52285 8.88249L5.52217 8.88514L5.52148 8.8878L5.52081 8.8903L5.52015 8.89295L5.5195 8.8956L5.51886 8.89826L5.51825 8.90091L5.51762 8.90356L5.51701 8.90622L5.51642 8.90887L5.51583 8.91152L5.51527 8.91418L5.5147 8.91683L5.51416 8.91948L5.51361 8.92214L5.51308 8.92479L5.51258 8.92745L5.51207 8.9301L5.51157 8.93275L5.51108 8.93541L5.51061 8.93806L5.51015 8.94071L5.50969 8.94337L5.50924 8.94602L5.50882 8.94883L5.5084 8.95133L5.50799 8.95414L5.50759 8.95679L5.50721 8.95944L5.50682 8.9621L5.50646 8.96475L5.5061 8.96741L5.50576 8.97006L5.50543 8.97287L5.5051 8.97552L5.50481 8.97818L5.5045 8.98083L5.50421 8.98364L5.50393 8.98629L5.50367 8.98895L5.5034 8.9916L5.50317 8.99441L5.50293 8.99706L5.5027 8.99972L5.5025 9.00237L5.50229 9.00502L5.50211 9.00783L5.50192 9.01049L5.50175 9.01314L5.50159 9.01595L5.50145 9.0186L5.50131 9.02126L5.50119 9.02391L5.50108 9.02672L5.50097 9.02937L5.50087 9.03203L5.5008 9.03468L5.50072 9.03749L5.50066 9.04014L5.50061 9.0428L5.50058 9.04545L5.50055 9.04826L5.50053 9.05092V9.05638L5.50055 9.05903L5.50058 9.06169L5.50061 9.06434L5.50066 9.06715L5.50072 9.0698L5.5008 9.07246L5.50087 9.07527L5.50097 9.07792L5.50108 9.08057L5.50119 9.08338L5.50131 9.08604L5.50145 9.08869L5.50159 9.09134L5.50175 9.09415L5.50192 9.09681L5.50211 9.09946L5.50229 9.10211L5.5025 9.10492L5.5027 9.10758L5.50293 9.11023L5.50317 9.11288L5.5034 9.11569L5.50367 9.11835L5.50393 9.121L5.50421 9.12365L5.5045 9.12631L5.50479 9.12912L5.5051 9.13177L5.50543 9.13443L5.50576 9.13708L5.5061 9.13973L5.50646 9.14239L5.50682 9.14504L5.50721 9.14785L5.50759 9.1505L5.50799 9.15316L5.5084 9.15581L5.50882 9.15846L5.50924 9.16112L5.50969 9.16393L5.51015 9.16658L5.51061 9.16923L5.51108 9.17189L5.51157 9.17454L5.51207 9.17719L5.51257 9.17985L5.5131 9.1825L5.51361 9.18516L5.51416 9.18781L5.5147 9.19046L5.51527 9.19312L5.51584 9.19577L5.51642 9.19842L5.51701 9.20108L5.51762 9.20373L5.51823 9.20638L5.51886 9.20904L5.5195 9.21153L5.52015 9.21434L5.52082 9.21684L5.52148 9.2195L5.52217 9.22215L5.52285 9.2248L5.52355 9.22746L5.52427 9.23011L5.52499 9.23261L5.52572 9.23526L5.52649 9.23791L5.52724 9.24057L5.52799 9.24307L5.52878 9.24572L5.52956 9.24837L5.53036 9.25087L5.53119 9.25352L5.53201 9.25618L5.53284 9.25868L5.53368 9.26133L5.53454 9.26398L5.5354 9.26648L5.53628 9.26913L5.53717 9.27163L5.53807 9.27428L5.53898 9.27678L5.5399 9.27944L5.54082 9.28193L5.54177 9.28459L5.54272 9.28708L5.54369 9.28974L5.54467 9.29224L5.54566 9.29473L5.54666 9.29739L5.54766 9.29988L5.54867 9.30238L5.54972 9.30503L5.55075 9.30753L5.55181 9.31003L5.55287 9.31253L5.55393 9.31502L5.55502 9.31768L5.55612 9.32018L5.55722 9.32267L5.55836 9.32517L5.55947 9.32767L5.56061 9.33032L5.56177 9.33282L5.56292 9.33532L5.56409 9.33766L5.56528 9.34016L5.56648 9.34281L5.56767 9.34515L5.5689 9.34765L5.57012 9.35015L5.57135 9.35264L5.5726 9.35514L5.57386 9.35764L5.57513 9.35998L5.57642 9.36248L5.57772 9.36497L5.57901 9.36747L5.58033 9.36997L5.58164 9.37231L5.58298 9.37481L5.58435 9.37731L5.58571 9.37965L5.58705 9.38214L5.58844 9.38449L5.58982 9.38698L5.59124 9.38933L5.59267 9.39182L5.59408 9.39416L5.59547 9.39651L5.5969 9.39885L5.59837 9.40134L5.59982 9.40369L5.60126 9.40603L5.60274 9.40837L5.60424 9.41071L5.60572 9.41305L5.60722 9.41539L5.60873 9.41773L5.61022 9.41992L5.61175 9.42226L5.61328 9.4246L5.61481 9.42679L5.6164 9.42913L5.61793 9.43147L5.61947 9.43366L5.62107 9.436L5.62266 9.43818L5.62425 9.44037L5.62587 9.44271L5.62745 9.44489L5.62907 9.44708L5.6307 9.44926L5.6323 9.45145L5.63394 9.45364L5.63564 9.45598L5.63727 9.45801L5.63891 9.46019L5.64062 9.46238L5.64234 9.46456L5.644 9.46659L5.64565 9.46878L5.64737 9.47096L5.64915 9.47315L5.65085 9.47518L5.65253 9.47721L5.6543 9.47939L5.65606 9.48142L5.65783 9.48361L5.65956 9.48563L5.66135 9.48766L5.6631 9.48969L5.6649 9.49172L5.66672 9.49391L5.66849 9.49578L5.67031 9.49781L5.67211 9.49984L5.67397 9.50187L5.67581 9.5039L5.67763 9.50593L5.67946 9.5078L5.68133 9.50983L5.68322 9.51186L5.68506 9.51373L5.68692 9.5156L5.68883 9.51763L5.69076 9.51966L5.69263 9.52154L5.69451 9.52341L5.69646 9.52528L5.69836 9.52716L5.70028 9.52903L5.70223 9.5309L5.70422 9.53293L5.70615 9.53465L5.70809 9.53652L5.7101 9.53839L5.71205 9.54027L5.714 9.54198L5.71599 9.54386L5.71803 9.54573L5.72006 9.5476L5.72198 9.54932L5.72399 9.55104L5.72605 9.55291L5.72815 9.55463L5.73016 9.5565L5.73217 9.55822L5.73423 9.55994L5.73626 9.56165L5.73839 9.56337L5.74043 9.56509L5.74249 9.5668L5.74458 9.56852L5.74666 9.57024L5.74875 9.5718L5.7509 9.57352L5.75301 9.57523L5.75504 9.57679L5.75723 9.57851L5.75943 9.58023L5.7615 9.58179L5.76364 9.58335L5.76584 9.58507L5.76793 9.58663L5.77009 9.58819L5.77232 9.58991L5.77451 9.59147L5.77667 9.59303L5.77886 9.59459L5.781 9.59599L5.7832 9.59755L5.78546 9.59911L5.78768 9.60068L5.78991 9.60224L5.79214 9.6038L5.7943 9.6052L5.79655 9.60661L5.79887 9.60817L5.80104 9.60957L5.8033 9.61113L5.80566 9.61254L5.80786 9.61394L5.81006 9.61535L5.81242 9.61691L5.81473 9.61831L5.81696 9.61972L5.81926 9.62097L5.82158 9.62237L5.82391 9.62378L5.82623 9.62518L5.82856 9.62659L5.83092 9.62799L5.83318 9.62924L5.83546 9.63049L5.83789 9.63189L5.84027 9.6333L5.84256 9.63455L5.84495 9.6358L5.84724 9.63705L5.84965 9.63829L5.85204 9.6397L5.85444 9.64095L5.85686 9.6422L5.8592 9.64329L5.86154 9.64454L5.86398 9.64579L5.86641 9.64704L5.86877 9.64813L5.87122 9.64938L5.87367 9.65063L5.87604 9.65172L5.87853 9.65297L5.88099 9.65406L5.88338 9.65515L5.88578 9.65624L5.88827 9.65749L5.89078 9.65859L5.8932 9.65968L5.8957 9.66077L5.89812 9.66186L5.90057 9.6628L5.90309 9.66389L5.90561 9.66499L5.90806 9.66608L5.91051 9.66701L5.91307 9.66811L5.91563 9.6692L5.91809 9.67014L5.92058 9.67107L5.92304 9.67201L5.92562 9.6731L5.92812 9.67404L5.93061 9.67498L5.93322 9.67591L5.93572 9.67685L5.93832 9.67779L5.94084 9.67872L5.94335 9.6795L5.94599 9.68044L5.94852 9.68138L5.95105 9.68216L5.9537 9.68309L5.95624 9.68387L5.95879 9.68481L5.96135 9.68559L5.96391 9.68637L5.96648 9.68715L5.96915 9.68809L5.97173 9.68887L5.9743 9.68965L5.97699 9.69043L5.97949 9.69105L5.98208 9.69183L5.98478 9.69261L5.98738 9.69339L5.98999 9.69402L5.99271 9.6948L5.99533 9.69542L5.99786 9.6962L6.0005 9.69683L6.00323 9.69745L6.00587 9.69823L6.00839 9.69886L6.01105 9.69948L6.01381 9.70011L6.01646 9.70073L6.01912 9.7012L6.02179 9.70182L6.02435 9.70245L6.02713 9.70307L6.02981 9.70354L6.03239 9.70417L6.03518 9.70463L6.03787 9.70526L6.04046 9.70573L6.04316 9.70619L6.04587 9.70666L6.04857 9.70713L6.05138 9.7076L6.05401 9.70807L6.05663 9.70854L6.05945 9.709L6.06217 9.70947L6.06481 9.70978L6.06755 9.71025L6.07029 9.71072L6.07303 9.71103L6.07578 9.7115L6.07843 9.71181L6.08118 9.71213L6.08394 9.71244L6.08671 9.71275L6.08947 9.71322L6.09214 9.71353L6.09481 9.71369L6.09759 9.714L6.10049 9.71431L6.10316 9.71462L6.10584 9.71478L6.10875 9.71509L6.11145 9.71525L6.11413 9.71556L6.11705 9.71572L6.11975 9.71587L6.12245 9.71618L6.12528 9.71634L6.12809 9.7165L6.13091 9.71665L6.13363 9.71681L6.13636 9.71696H6.13919L6.14203 9.71712L6.14476 9.71728H6.14749L6.15035 9.71743H6.15593L6.15868 9.71759H8.58227L6.79816 6.62741L5.58996 8.72015V8.72015ZM10.6983 -0.127833L7.37928 5.62092L9.74451 9.71759H16.157L16.0902 -0.127833H10.6983V-0.127833Z" fill="url(#paint1_linear_1447_3105)"/>
</g>
</g>
<defs>
<radialGradient id="paint0_radial_1447_3105" cx="0" cy="0" r="1" gradientUnits="userSpaceOnUse" gradientTransform="translate(12.2224 -2.98933) scale(18.9879 18.988)">
<stop stop-color="#6BE1FB"/>
<stop offset="1" stop-color="#38BDFA"/>
</radialGradient>
<linearGradient id="paint1_linear_1447_3105" x1="20.728" y1="15.999" x2="20.7277" y2="0.0150701" gradientUnits="userSpaceOnUse">
<stop stop-color="#4AC5FA"/>
<stop offset="1" stop-color="#97E8FC"/>
</linearGradient>
<clipPath id="clip0_1447_3105">
<rect width="16" height="16" fill="white"/>
</clipPath>
</defs>
</svg>
