<svg width="16" height="16" viewBox="0 0 16 16" fill="none" xmlns="http://www.w3.org/2000/svg">
<g clip-path="url(#clip0_1447_3103)">
<path fill-rule="evenodd" clip-rule="evenodd" d="M16 0.48C16 0.215095 15.7849 0 15.52 0H0.48C0.215095 0 0 0.215095 0 0.48V15.52C0 15.7849 0.215095 16 0.48 16H15.52C15.7849 16 16 15.7849 16 15.52V0.48Z" fill="#C9284D"/>
<mask id="mask0_1447_3103" style="mask-type:alpha" maskUnits="userSpaceOnUse" x="0" y="0" width="16" height="16">
<path fill-rule="evenodd" clip-rule="evenodd" d="M16 0.48C16 0.215095 15.7849 0 15.52 0H0.48C0.215095 0 0 0.215095 0 0.48V15.52C0 15.7849 0.215095 16 0.48 16H15.52C15.7849 16 16 15.7849 16 15.52V0.48Z" fill="white"/>
</mask>
<g mask="url(#mask0_1447_3103)">
<path fill-rule="evenodd" clip-rule="evenodd" d="M16.0692 0.468507C16.0692 0.201405 15.8523 -0.0154724 15.5852 -0.0154724H6.55093L-0.0634766 11.441V15.6332C-0.0634766 15.9003 0.153402 16.1172 0.420505 16.1172H15.5852C15.8523 16.1172 16.0692 15.9003 16.0692 15.6332V0.468507Z" fill="#BD163D"/>
<path fill-rule="evenodd" clip-rule="evenodd" d="M7.39548 16.1172H-0.0634766L-0.063412 11.7204L2.39683 7.45916L7.39548 16.1172ZM10.864 16.1172H7.63747C6.06026 13.3889 4.52276 10.7335 2.95189 8.00153C2.68992 7.54176 2.68499 6.96171 2.95471 6.49219L4.13114 4.45533L10.864 16.1172ZM14.3325 16.1172H11.106L4.25213 4.24577L5.86536 1.45152L14.3325 16.1172ZM14.5745 16.1172L5.98635 1.24194L6.71232 -0.0154724H8.48686L16.0692 13.1092V16.1172H14.5745ZM16.0692 -0.0154724V12.6984L8.72885 -0.0154724H16.0692Z" fill="#8D102D"/>
<path fill-rule="evenodd" clip-rule="evenodd" d="M2.39676 7.87829L7.15349 16.1172H-0.0634766V12.1395L2.39676 7.87829ZM16.0692 16.1172H14.8165L6.22828 1.24194L6.95425 -0.0154724H8.24487L16.0692 13.5367V16.1172ZM14.0905 16.1172H11.348L4.53434 4.17591L5.86529 1.87064L14.0905 16.1172ZM10.622 16.1172H7.87946C7.87946 16.1172 4.32673 9.96153 3.13649 7.90212C2.90309 7.49829 2.90302 7.00058 3.1363 6.59668C3.56667 5.85155 4.13109 4.87431 4.13109 4.87431L10.622 16.1172ZM8.97084 -0.0154724H16.0692V12.2792L8.97084 -0.0154724Z" fill="url(#paint0_radial_1447_3103)"/>
<path fill-rule="evenodd" clip-rule="evenodd" d="M14.4124 16.6752L11.6683 16.679L4.53409 4.1759L5.86504 1.87063L14.4124 16.6752ZM10.9414 16.6708L8.19257 16.6598L8.02413 16.368L7.56989 15.5811L6.90655 14.4319L6.52041 13.763L6.11074 13.0533L5.68713 12.3195L5.25914 11.5781L4.83638 10.8459L4.42842 10.1393L4.04485 9.47505L3.86519 9.16396L3.69524 8.86969L3.53615 8.59429L3.38917 8.33983L3.25546 8.10842L3.13624 7.9021L3.13351 7.89736L3.13082 7.89262L3.12812 7.88787L3.12546 7.8831L3.12283 7.87834L3.12022 7.87355L3.11762 7.86877L3.11504 7.86398L3.11249 7.85917L3.10996 7.85436L3.10744 7.84954L3.10496 7.84472L3.10249 7.83988L3.10004 7.83504L3.09762 7.83018L3.09521 7.82533L3.09283 7.82047L3.09047 7.8156L3.08813 7.81071L3.08581 7.80582L3.08352 7.80093L3.08123 7.79603L3.07898 7.79112L3.07674 7.7862L3.07453 7.78128L3.07234 7.77635L3.07018 7.77141L3.06803 7.76647L3.0659 7.76152L3.06379 7.75657L3.06171 7.7516L3.05966 7.74663L3.05761 7.74165L3.05559 7.73668L3.05359 7.73168L3.05161 7.72669L3.04965 7.72169L3.04772 7.71667L3.04581 7.71167L3.04393 7.70664L3.04206 7.70162L3.0402 7.69659L3.03838 7.69155L3.03657 7.6865L3.03478 7.68145L3.03302 7.67641L3.03128 7.67134L3.02955 7.66627L3.02786 7.66121L3.02618 7.65614L3.02452 7.65106L3.02289 7.64596L3.02128 7.64088L3.01968 7.63578L3.01812 7.63069L3.01657 7.62557L3.01503 7.62046L3.01353 7.61534L3.01205 7.61023L3.01058 7.6051L3.00913 7.59997L3.00771 7.59484L3.00631 7.58971L3.00493 7.58456L3.00358 7.57942L3.00224 7.57425L3.00093 7.56911L2.99963 7.56394L2.99837 7.55878L2.99711 7.55362L2.99588 7.54844L2.99467 7.54326L2.99348 7.53808L2.99232 7.53291L2.99117 7.52771L2.99006 7.52253L2.98896 7.51734L2.98788 7.51214L2.98682 7.50693L2.98579 7.50174L2.98477 7.49653L2.98377 7.49132L2.9828 7.4861L2.98185 7.48089L2.98091 7.47567L2.98001 7.47044L2.97912 7.46523L2.97825 7.46L2.97741 7.45476L2.97659 7.44953L2.97578 7.44429L2.97501 7.43906L2.97425 7.43382L2.97351 7.42858L2.9728 7.42333L2.97209 7.41809L2.97143 7.41283L2.97077 7.40759L2.97014 7.40233L2.96952 7.39707L2.96894 7.39181L2.96838 7.38655L2.96783 7.38129L2.9673 7.37603L2.9668 7.37077L2.96631 7.3655L2.96586 7.36024L2.96543 7.35496L2.96501 7.3497L2.9646 7.34443L2.96423 7.33915L2.96388 7.33388L2.96355 7.3286L2.96323 7.32333L2.96296 7.31805L2.96268 7.31278L2.96244 7.3075L2.96222 7.30223L2.96201 7.29695L2.96183 7.29166L2.96167 7.28638L2.96152 7.28111L2.96141 7.27582L2.96131 7.27054L2.96123 7.26525L2.96118 7.25997L2.96115 7.25468L2.96113 7.24941L2.96115 7.24413L2.96118 7.23884L2.96123 7.23356L2.9613 7.22827L2.96139 7.223L2.96152 7.21771L2.96165 7.21243L2.96181 7.20716L2.96199 7.20186L2.9622 7.19659L2.96242 7.19131L2.96267 7.18604L2.96293 7.18076L2.96322 7.17549L2.96352 7.17021L2.96386 7.16494L2.96422 7.15966L2.96459 7.15439L2.96497 7.14911L2.96539 7.14384L2.96583 7.13858L2.96628 7.1333L2.96676 7.12804L2.96726 7.12278L2.9678 7.11751L2.96833 7.11225L2.96889 7.10699L2.96949 7.10175L2.97009 7.09649L2.97072 7.09123L2.97138 7.08598L2.97204 7.08072L2.97273 7.07548L2.97346 7.07024L2.97419 7.06499L2.97494 7.05975L2.97573 7.05451L2.97653 7.04928L2.97735 7.04404L2.97819 7.03881L2.97906 7.03358L2.97995 7.02836L2.98085 7.02315L2.98178 7.01792L2.98274 7.01271L2.9837 7.0075L2.98469 7.00229L2.9857 6.99708L2.98674 6.99187L2.9878 6.98667L2.98888 6.98148L2.98998 6.97628L2.99109 6.97109L2.99224 6.96591L2.9934 6.96071L2.99459 6.95553L2.9958 6.95036L2.99703 6.94519L2.99827 6.94002L2.99955 6.93485L3.00084 6.92971L3.00214 6.92454L3.00348 6.9194L3.00484 6.91425L3.00621 6.90911L3.00761 6.90396L3.00903 6.89883L3.01047 6.8937L3.01194 6.88857L3.01342 6.88345L3.01492 6.87834L3.01645 6.87323L3.018 6.86811L3.01957 6.86301L3.02116 6.85792L3.02278 6.85283L3.02441 6.84774L3.02607 6.84265L3.02775 6.83759L3.02944 6.83251L3.03115 6.82744L3.03289 6.82239L3.03465 6.81733L3.03644 6.81228L3.03825 6.80724L3.04007 6.80221L3.04191 6.79718L3.04378 6.79214L3.04567 6.78713L3.04759 6.78211L3.04953 6.77711L3.05148 6.77211L3.05345 6.76711L3.05545 6.76212L3.05746 6.75714L3.05951 6.75215L3.06156 6.74718L3.06364 6.74223L3.06575 6.73726L3.06787 6.73231L3.07001 6.72737L3.07219 6.72243L3.07437 6.7175L3.07658 6.71258L3.07882 6.70766L3.08106 6.70275L3.08334 6.69785L3.08565 6.69296L3.08795 6.68807L3.09029 6.68318L3.09266 6.67831L3.09504 6.67346L3.09744 6.66858L3.09986 6.66374L3.10231 6.6589L3.10478 6.65406L3.10726 6.64924L3.10978 6.64442L3.11231 6.63961L3.11486 6.6348L3.11743 6.63001L3.12003 6.62522L3.12264 6.62044L3.12528 6.61567L3.12795 6.61091L3.13062 6.60615L3.13332 6.60141L3.13605 6.59666L4.13084 4.8743L10.9414 16.6708ZM7.46563 16.6582L-0.640137 16.639L-0.463113 12.8313L2.39651 7.87827L7.46563 16.6582ZM16.4323 14.1659L16.5004 16.639L15.1239 16.65L6.22802 1.24192L7.30309 -0.620139L7.89535 -0.620413L16.4323 14.1659ZM4.7573 4.17646L11.7807 16.4853L14.0774 16.4821L5.86504 2.25781L4.7573 4.17646ZM3.30381 6.69328L3.30137 6.69751L3.29907 6.70156L3.29681 6.70558L3.2945 6.70971L3.29226 6.71376L3.29005 6.7178L3.28784 6.72187L3.28561 6.72602L3.28343 6.73011L3.2813 6.73416L3.27917 6.73828L3.27706 6.74237L3.27496 6.74649L3.27285 6.75067L3.27079 6.7548L3.26877 6.75886L3.26672 6.76307L3.2647 6.76722L3.26272 6.77136L3.26075 6.77551L3.2588 6.77969L3.25685 6.7839L3.25496 6.788L3.25306 6.79219L3.25115 6.79642L3.24926 6.80066L3.24744 6.80484L3.24562 6.80903L3.24381 6.81323L3.24202 6.81746L3.24023 6.82171L3.23849 6.82593L3.23675 6.8302L3.23504 6.83441L3.23334 6.83865L3.23165 6.84293L3.22999 6.84716L3.22834 6.85146L3.2267 6.85574L3.2251 6.86L3.22352 6.86426L3.22195 6.8685L3.2204 6.87281L3.21885 6.87713L3.21734 6.88141L3.21584 6.88575L3.21434 6.89007L3.21289 6.89434L3.21145 6.89867L3.21001 6.90301L3.20861 6.90731L3.20722 6.91164L3.20584 6.91599L3.2045 6.9203L3.20316 6.92466L3.20183 6.92901L3.20053 6.93337L3.19925 6.93774L3.19799 6.94205L3.19675 6.94644L3.19551 6.95081L3.19432 6.95516L3.19311 6.95957L3.19195 6.96394L3.1908 6.9683L3.18965 6.97273L3.18852 6.97712L3.18744 6.98148L3.18636 6.98586L3.1853 6.99027L3.18425 6.99469L3.18322 6.99911L3.1822 7.00351L3.18122 7.0079L3.18025 7.01232L3.1793 7.01677L3.17835 7.02119L3.17744 7.0256L3.17654 7.03005L3.17565 7.03447L3.1748 7.03888L3.17396 7.04333L3.17312 7.04778L3.17231 7.0522L3.17152 7.05669L3.17075 7.06111L3.16999 7.06554L3.16925 7.07004L3.16854 7.07445L3.16784 7.07892L3.16715 7.08339L3.1665 7.08781L3.16586 7.09231L3.16521 7.09678L3.16462 7.10124L3.16402 7.1057L3.16345 7.11017L3.16289 7.11465L3.16236 7.11912L3.16184 7.1236L3.16134 7.12807L3.16086 7.13257L3.16041 7.13703L3.15995 7.1415L3.15952 7.14601L3.15912 7.15051L3.15873 7.15498L3.15836 7.15947L3.158 7.16392L3.15766 7.16842L3.15734 7.17295L3.15705 7.17742L3.15676 7.18191L3.1565 7.18641L3.15626 7.19089L3.15603 7.19539L3.15582 7.1999L3.15563 7.20441L3.15545 7.2089L3.15531 7.21337L3.15516 7.21788L3.15505 7.22238L3.15495 7.2269L3.15487 7.23139L3.15481 7.23589L3.15476 7.24037L3.15474 7.24486L3.15473 7.24939L3.15474 7.25388L3.15476 7.25836L3.15481 7.26289L3.15487 7.26738L3.15495 7.27186L3.15507 7.27636L3.15518 7.28088L3.15531 7.28538L3.15547 7.28987L3.15565 7.29435L3.15584 7.29887L3.15605 7.30337L3.15628 7.30784L3.15652 7.31234L3.15679 7.31686L3.15707 7.32133L3.15737 7.32583L3.1577 7.33033L3.15802 7.33481L3.15837 7.33928L3.15876 7.34377L3.15915 7.34827L3.15955 7.35277L3.15999 7.35725L3.16042 7.36171L3.16089 7.36619L3.16137 7.37068L3.16187 7.37518L3.16239 7.37963L3.16294 7.3841L3.16349 7.38857L3.16407 7.39307L3.16466 7.39754L3.16526 7.40197L3.16589 7.40644L3.16654 7.41089L3.16721 7.41538L3.16789 7.41985L3.16859 7.42428L3.16931 7.42874L3.17005 7.43319L3.1708 7.43764L3.17159 7.44211L3.17238 7.44656L3.17317 7.45095L3.17401 7.4554L3.17486 7.45987L3.17572 7.46428L3.1766 7.46871L3.17751 7.47315L3.17843 7.47755L3.17936 7.48202L3.18031 7.48641L3.18128 7.49082L3.18228 7.49524L3.18328 7.49962L3.18433 7.50408L3.18536 7.50848L3.18643 7.51285L3.18751 7.51724L3.18862 7.52166L3.18973 7.52607L3.19086 7.53042L3.19203 7.53481L3.1932 7.53918L3.1944 7.54355L3.19561 7.54794L3.19683 7.55231L3.19808 7.55667L3.19933 7.56101L3.20062 7.56538L3.20193 7.56972L3.20325 7.57409L3.20459 7.57845L3.20593 7.58276L3.2073 7.58708L3.20871 7.59144L3.21011 7.59574L3.21155 7.60008L3.213 7.60441L3.21445 7.60868L3.21595 7.61302L3.21745 7.61734L3.21895 7.6216L3.22048 7.62589L3.22205 7.63019L3.22363 7.63449L3.22521 7.63875L3.22682 7.64304L3.22845 7.64729L3.2301 7.65153L3.23178 7.65582L3.23345 7.6601L3.23515 7.66432L3.23686 7.66855L3.23862 7.67282L3.24038 7.67703L3.24213 7.68125L3.24394 7.6855L3.24575 7.6897L3.24755 7.69388L3.24944 7.69814L3.2513 7.70233L3.25317 7.70651L3.25506 7.71067L3.25698 7.71483L3.25891 7.719L3.2609 7.72322L3.26286 7.72738L3.26485 7.73151L3.26687 7.73566L3.26888 7.73979L3.27096 7.74399L3.27303 7.74813L3.27508 7.7522L3.27717 7.75629L3.27932 7.76046L3.28147 7.76457L3.2836 7.76862L3.28577 7.77272L3.288 7.77686L3.29018 7.78088L3.29242 7.78495L3.29466 7.78901L3.29694 7.79309L3.29923 7.79716L3.30153 7.80119L3.30397 7.80545L3.42308 8.01156L3.5568 8.243L3.70379 8.49746L3.86287 8.77288L4.03283 9.06715L4.21248 9.37824L4.59607 10.0425L5.00403 10.7491L5.42681 11.4814L5.85479 12.2227L6.27841 12.9565L6.68806 13.6662L7.07422 14.3351L7.73756 15.4843L8.19179 16.2712L8.30461 16.4667L10.6053 16.4759L4.1308 5.26143L3.30381 6.69328ZM-0.271908 12.8873L-0.437349 16.4459L7.12986 16.4638L2.39651 8.26546L-0.271908 12.8873ZM7.41489 -0.426596L6.45156 1.24192L15.2352 16.4554L16.3014 16.4469L16.2401 14.2202L7.78362 -0.426757L7.41489 -0.426596ZM16.5409 13.0965L8.6222 -0.618913L16.4295 -0.640015L16.5409 13.0965ZM8.95698 -0.426225L16.3413 12.3638L16.2376 -0.445907L8.95698 -0.426225Z" fill="url(#paint1_linear_1447_3103)"/>
</g>
</g>
<defs>
<radialGradient id="paint0_radial_1447_3103" cx="0" cy="0" r="1" gradientUnits="userSpaceOnUse" gradientTransform="translate(12.2658 -3.04746) scale(19.1647 19.1646)">
<stop stop-color="#FFAE71"/>
<stop offset="1" stop-color="#FF9350"/>
</radialGradient>
<linearGradient id="paint1_linear_1447_3103" x1="22.4654" y1="-0.0154882" x2="22.4654" y2="16.1171" gradientUnits="userSpaceOnUse">
<stop stop-color="#FFBC8F"/>
<stop offset="1" stop-color="#FFA16B"/>
</linearGradient>
<clipPath id="clip0_1447_3103">
<rect width="16" height="16" fill="white"/>
</clipPath>
</defs>
</svg>
