<svg width="20" height="20" viewBox="0 0 20 20" fill="none" xmlns="http://www.w3.org/2000/svg">
<path fill-rule="evenodd" clip-rule="evenodd" d="M10.3854 0H11.2929H19.4C19.7311 0 20 0.268869 20 0.600001V15.0811V16.6529V19.4C20 19.7312 19.7311 20 19.4 20H18.5043H17.5968H14.1697H13.2612H9.833H8.9255H0.6C0.268868 20 0 19.7312 0 19.4V15.1938V0.600001C0 0.268869 0.268868 0 0.6 0H8.77216H10.3854ZM1 13.4617V18.46C1 18.758 1.24198 19 1.54 19H8.34815L3.0753 9.8672L1 13.4617ZM9.25582 19H12.6838L5.24321 6.11223L3.99972 8.26519C3.70812 8.77006 3.7082 9.3922 3.99996 9.89699C5.12846 11.8496 7.95597 16.748 9.25582 19ZM13.5992 19H17.0195L7.41096 2.35764L5.74728 5.23923L13.5992 19ZM17.9269 19H18.46C18.758 19 19 18.758 19 18.46V14.9208L10.9628 1H8.1948L7.86469 1.57176L17.9269 19ZM11.8702 1L19 13.349V1.54C19 1.24198 18.758 1 18.46 1H11.8702Z" fill="#FF00FF"/>
</svg>
