<svg width="16" height="16" viewBox="0 0 16 16" fill="none" xmlns="http://www.w3.org/2000/svg">
<g clip-path="url(#clip0_1447_1829)">
<path fill-rule="evenodd" clip-rule="evenodd" d="M9.4962 0.8L15.2 10.6792V1.232C15.2 0.993586 15.0064 0.8 14.768 0.8H9.4962ZM8.77022 0.8L15.2 11.9367V14.768C15.2 15.0064 15.0064 15.2 14.768 15.2H14.3416L6.29175 1.25741L6.55584 0.8H8.77022ZM8.30834 0H9.03431H15.52C15.7849 0 16 0.215095 16 0.480001V12.0649V13.3223V15.52C16 15.7849 15.7849 16 15.52 16H14.8034H14.0775H11.3358H10.6089H7.8664H7.1404H0.48C0.215095 16 0 15.7849 0 15.52V12.155V0.480001C0 0.215095 0.215095 0 0.48 0H7.01773H8.30834ZM6.67852 15.2H1.232C0.993585 15.2 0.8 15.0064 0.8 14.768V10.7694L2.46024 7.89376L6.67852 15.2ZM7.40465 15.2C6.36477 13.3984 4.10277 9.47966 3.19997 7.91759C2.96656 7.51376 2.9665 7.01605 3.19978 6.61215L4.19457 4.88978L10.1471 15.2H7.40465ZM10.8793 15.2L4.59782 4.19139L5.92877 1.88611L13.6156 15.2H10.8793Z" fill="#FF00FF"/>
</g>
<defs>
<clipPath id="clip0_1447_1829">
<rect width="16" height="16" fill="white"/>
</clipPath>
</defs>
</svg>
