<svg width="16" height="16" fill="none" xmlns="http://www.w3.org/2000/svg"><g clip-path="url(#a)"><path fill-rule="evenodd" clip-rule="evenodd" d="M14.438 0C15.3 0 16 .7 16 1.563v12.874C16 15.3 15.3 16 14.437 16H1.563C.7 16 0 15.3 0 14.437V1.563C0 .7.7 0 1.563 0h12.874zm.39 14.203v-4.045H7.387l2.697 4.67h4.132a.625.625 0 0 0 .612-.625zm-12.668.625h7.31L5.816 8.504 2.16 14.828zm-.986-.579a.626.626 0 0 0 .4.538l4.892-8.47H4.143L1.172 11.46l.002 2.788zM9.09 6.603a.599.599 0 0 0-.5-.296H7.413a.6.6 0 0 0-.5.297l-.616 1.07-.005.008c-.1.178-.1.405 0 .58l.616 1.066.007.012a.594.594 0 0 0 .503.285h1.177a.593.593 0 0 0 .5-.292l.202-.35.42-.727c.1-.18.096-.4-.004-.576l-.005-.009-.615-1.063-.003-.005zm.451 3.022 4.864-8.42a.626.626 0 0 1 .423.592v7.828H9.541zm4.268-8.453H7.115l-.273.473 3.347 5.795 3.62-6.268zM4.45 5.784h4.167L6.534 2.177 4.451 5.784z" fill="#F0F"/></g><defs><clipPath id="a"><path fill="#fff" d="M0 0h16v16H0z"/></clipPath></defs></svg>