<svg width="16" height="16" fill="none" xmlns="http://www.w3.org/2000/svg"><g clip-path="url(#a)"><path fill-rule="evenodd" clip-rule="evenodd" d="M14.438 0C15.3 0 16 .7 16 1.563v12.874C16 15.3 15.3 16 14.437 16H1.563C.7 16 0 15.3 0 14.437V1.563C0 .7.7 0 1.563 0h12.874zm-.235 14.828a.625.625 0 0 0 .625-.62v-4.05H5.2l2.696 4.67h6.308zM1.172 11.461v2.742c0 .345.28.625.625.625H7.28L4.415 9.865l5.019-8.693H7.112l-5.94 10.29zm5.265-1.835h2.347L6.976 6.494 5.802 8.528a.733.733 0 0 0 .635 1.098zm8.391-7.834a.625.625 0 0 0-.625-.62h-4.155l-2.765 4.79 2.116 3.664h5.43V1.792z" fill="#F0F"/></g><defs><clipPath id="a"><path fill="#fff" d="M0 0h16v16H0z"/></clipPath></defs></svg>