<svg width="16" height="16" fill="none" xmlns="http://www.w3.org/2000/svg"><g clip-path="url(#a)" fill-rule="evenodd" clip-rule="evenodd"><path d="M16 1.563C16 .7 15.3 0 14.437 0H1.563C.7 0 0 .7 0 1.563v12.874C0 15.3.7 16 1.563 16h12.874C15.3 16 16 15.3 16 14.437V1.563z" fill="#4E3188"/><path d="M14.828 10.158v4.045c0 .34-.273.618-.612.625h-4.132l-2.697-4.67h7.441zm-5.359 4.67H2.16l3.657-6.324 3.652 6.324zm-7.896-.041a.626.626 0 0 1-.4-.538l-.001-2.788 2.971-5.145h2.323l-4.893 8.47zm7.017-8.48c.202 0 .396.12.5.296l.003.005.615 1.063.005.01c.1.175.104.396.004.575-.206.36-.415.718-.623 1.077a.593.593 0 0 1-.5.291c-.39.002-1.175.001-1.176.001a.594.594 0 0 1-.503-.285l-.007-.011-.616-1.066a.598.598 0 0 1 0-.581l.005-.008.617-1.07a.6.6 0 0 1 .51-.297H8.59zm5.815-5.102L9.54 9.625h5.287V1.797a.626.626 0 0 0-.423-.592zm-7.29-.033h6.694l-3.62 6.268-3.347-5.795.273-.473zm1.503 4.612H4.45l2.083-3.607 2.084 3.607z" fill="url(#b)"/></g><defs><radialGradient id="b" cx="0" cy="0" r="1" gradientUnits="userSpaceOnUse" gradientTransform="matrix(16.2227 0 0 16.2226 11.61 -1.395)"><stop stop-color="#F9A6FF"/><stop offset="1" stop-color="#EA73FF"/></radialGradient><clipPath id="a"><path fill="#fff" d="M0 0h16v16H0z"/></clipPath></defs></svg>