<svg width="20" height="20" viewBox="0 0 20 20" fill="none" xmlns="http://www.w3.org/2000/svg">
<path fill-rule="evenodd" clip-rule="evenodd" d="M20 0.600001C20 0.556314 19.9953 0.513712 19.9864 0.472667C19.9383 0.250468 19.767 0.0739337 19.5477 0.0183391C19.5004 0.00636383 19.4509 0 19.4 0H0.6C0.268868 0 0 0.268869 0 0.600001V19.4C0 19.4143 0.000496187 19.4284 0.00147218 19.4423C0.00256506 19.458 0.00425954 19.4735 0.00653264 19.4888C0.047264 19.763 0.27378 19.9769 0.553768 19.9983C0.566602 19.9992 0.579549 19.9998 0.592596 20C0.595061 20 0.597529 20 0.6 20H19.4C19.4153 20 19.4305 19.9995 19.4455 19.9983C19.4457 19.9983 19.446 19.9983 19.4462 19.9983C19.7129 19.9779 19.9311 19.7828 19.9864 19.5274C19.9953 19.4863 20 19.4437 20 19.4V0.600001ZM19 12.3868V1.54C19 1.24198 18.758 1 18.46 1H12.4267L8.94754 7.02614L12.0429 12.3868H19ZM1 13.3514L8.11779 1.02294L8.13103 1H11.5276L4.75176 12.7362L8.36821 19H1.54C1.24198 19 1 18.758 1 18.46V13.3514ZM9.26732 19L5.899 13.1659H19V18.46C19 18.758 18.758 19 18.46 19H9.26732ZM11.1434 12.3868H7.70923C7.32587 12.3868 6.97164 12.1856 6.77995 11.8535C6.58827 11.5216 6.58827 11.1125 6.77995 10.7806L8.49799 7.80485L11.1434 12.3868Z" fill="#FF00FF"/>
</svg>
