<svg width="16" height="16" fill="none" xmlns="http://www.w3.org/2000/svg"><g clip-path="url(#a)"><path fill-rule="evenodd" clip-rule="evenodd" d="M14.438 0C15.3 0 16 .7 16 1.563v12.874C16 15.3 15.3 16 14.437 16H1.563C.7 16 0 15.3 0 14.437V1.563C0 .7.7 0 1.563 0h12.874zM3.255 7.854l4.029 6.974H1.797a.625.625 0 0 1-.625-.625v-2.742l2.083-3.607zm4.643 6.974h2.323L4.724 5.311 3.882 6.77a1.104 1.104 0 0 0 0 1.105c1.008 1.743 4.016 6.954 4.016 6.954zm2.938 0h2.322L6.193 2.768 5.066 4.72l5.77 10.108zm3.992-.625v-1.569L8.208 1.172H7.115L6.5 2.236l7.273 12.592h.43c.345 0 .625-.28.625-.625zM8.823 1.172h5.38c.345 0 .625.28.625.625v9.773L8.823 1.172z" fill="#F0F"/></g><defs><clipPath id="a"><path fill="#fff" d="M0 0h16v16H0z"/></clipPath></defs></svg>