<svg width="20" height="20" viewBox="0 0 20 20" fill="none" xmlns="http://www.w3.org/2000/svg">
<path fill-rule="evenodd" clip-rule="evenodd" d="M20 0.6C20 0.268868 19.7311 0 19.4 0H0.6C0.268868 0 0 0.268868 0 0.6V19.4C0 19.7311 0.268868 20 0.6 20H19.4C19.7311 20 20 19.7311 20 19.4V0.6Z" fill="#7E4DD2"/>
<mask id="mask0" mask-type="alpha" maskUnits="userSpaceOnUse" x="0" y="0" width="20" height="20">
<path fill-rule="evenodd" clip-rule="evenodd" d="M20 0.6C20 0.268868 19.7311 0 19.4 0H0.6C0.268868 0 0 0.268868 0 0.6V19.4C0 19.7311 0.268868 20 0.6 20H19.4C19.7311 20 20 19.7311 20 19.4V0.6Z" fill="white"/>
</mask>
<g mask="url(#mask0)">
<path fill-rule="evenodd" clip-rule="evenodd" d="M19.9747 0.619359C19.9747 0.288558 19.7061 0.0199585 19.3753 0.0199585H8.18646L-0.00537109 14.2086V19.4006C-0.00537109 19.7314 0.263229 20 0.594031 20H19.3753C19.7061 20 19.9747 19.7314 19.9747 19.4006V0.619359Z" fill="#7140C2"/>
<path fill-rule="evenodd" clip-rule="evenodd" d="M20.233 12.6465V-0.238434H19.2261L11.7869 12.6465H20.233ZM10.8504 7.28849C11.2346 7.29329 11.6011 7.50398 11.7983 7.83575C12.0023 8.18574 12.2044 8.53683 12.4065 8.88793C12.5076 9.06351 12.6087 9.23909 12.71 9.41454C12.8945 9.73796 12.9084 10.1536 12.7275 10.4922C12.7232 10.5003 12.7187 10.5084 12.7141 10.5165C12.5107 10.8726 12.3051 11.2274 12.0996 11.5823L12.0995 11.5824C12.0005 11.7533 11.9015 11.9242 11.8027 12.0953C11.6137 12.4198 11.2556 12.6339 10.8782 12.6465C10.8737 12.6467 10.8671 12.6467 10.8614 12.6466L10.8506 12.6465H9.14171H9.12695C8.75014 12.6449 8.38487 12.4473 8.1853 12.1267C8.18027 12.1189 8.17552 12.1109 8.17072 12.1029C7.96905 11.7568 7.76923 11.4096 7.5694 11.0624L7.56912 11.062L7.56886 11.0615C7.46573 10.8823 7.36259 10.7031 7.2592 10.5241C7.07278 10.1979 7.06379 9.77935 7.24144 9.44638L7.25482 9.42206C7.4511 9.07856 7.64941 8.73623 7.84771 8.39393C7.95401 8.21043 8.06031 8.02693 8.16629 7.84327C8.35511 7.51948 8.71355 7.30164 9.09077 7.28909C9.10018 7.28877 9.10937 7.28863 9.11855 7.28849C9.69599 7.28604 10.2732 7.28604 10.8504 7.28849ZM-0.260686 20.2583H0.696142V20.2583C1.94471 18.0958 3.19373 15.933 4.44275 13.7702C5.69076 11.6091 6.93876 9.4481 8.18631 7.28734H4.1903L-0.263916 15.0046L-0.260686 20.2583ZM12.5769 20.2583H0.992244L6.78785 10.2314L12.5769 20.2583ZM20.2249 20.2569L12.8794 20.2585L8.63543 12.9079H20.2357C20.2343 14.1205 20.2323 15.334 20.2303 16.5476V16.5477C20.2283 17.7844 20.2263 19.0212 20.2249 20.2569ZM13.1813 9.70745L7.98785 0.712116L8.53673 -0.238434H18.9236L13.1813 9.70745ZM4.34211 7.02663L11.3332 7.02773C10.7678 6.04851 10.2019 5.06901 9.63609 4.0895C9.03611 3.05088 8.43612 2.01226 7.83664 0.973933L4.34211 7.02663Z" fill="#58328A"/>
<path fill-rule="evenodd" clip-rule="evenodd" d="M0.546834 19.9999H-0.00261822L-0.00561523 15.0737L4.34005 7.54681H7.73666L0.546834 19.9999ZM19.9747 13.1668V20L13.0284 19.9999L9.08332 13.1668H19.9747ZM12.1293 19.9999H1.43994L6.78761 10.7479L12.1293 19.9999ZM19.9747 12.3876H12.2346L19.375 0.019928H19.9745L19.9747 12.3876ZM10.843 7.53275C11.1389 7.53399 11.422 7.70789 11.575 7.96562C11.5766 7.96823 11.5796 7.97349 11.5796 7.97349L12.4777 9.52921C12.4777 9.52921 12.4829 9.5379 12.4853 9.5421C12.6322 9.7989 12.6378 10.1225 12.4911 10.384C12.19 10.9107 11.8843 11.435 11.581 11.9605C11.432 12.216 11.1499 12.3828 10.8502 12.3865C10.2781 12.3889 9.13127 12.3876 9.12967 12.3876C8.83377 12.3863 8.54605 12.2285 8.39301 11.9707C8.38961 11.9652 8.38302 11.9538 8.38302 11.9538C8.38302 11.9538 7.48471 10.3979 7.48271 10.3943C7.33586 10.1375 7.33606 9.80567 7.48271 9.5442L7.48931 9.53267C7.48931 9.53267 8.09051 8.48937 8.39161 7.96771C8.54066 7.71215 8.82318 7.53633 9.12288 7.53257C9.12787 7.53255 9.13786 7.53233 9.13786 7.53233L10.8328 7.53275H10.843ZM8.68571 0.019928H18.4759L13.1812 9.19063L8.28611 0.712055L8.68571 0.019928ZM10.8835 6.76817H4.7896L7.83656 1.4907L10.8835 6.76817Z" fill="url(#paint0_radial)"/>
<path fill-rule="evenodd" clip-rule="evenodd" d="M0.0685145 20.8285L-0.470947 20.8114L-0.464554 15.8688L4.34005 7.54684H7.73666L0.0685145 20.8285ZM12.5788 20.7786L1.02656 20.7153L6.78761 10.7479L12.5788 20.7786ZM20.3998 20.7488L13.4336 20.7017L9.08332 13.1668H20.4262L20.3998 20.7488ZM4.47852 7.7866L-0.224993 15.9332L-0.230987 20.5792L-0.0673499 20.5844L7.32148 7.7866H4.47852ZM1.44075 20.4779L12.1622 20.5366L6.78761 11.2273L1.44075 20.4779ZM9.49851 13.4066L13.5726 20.4629L20.1609 20.5075L20.1854 13.4066H9.49851ZM10.8328 7.53277H10.843L10.8466 7.53279L10.85 7.53283L10.8534 7.53289L10.857 7.53295L10.8603 7.53305L10.8637 7.53315L10.8671 7.53327L10.8707 7.53339L10.8741 7.53355L10.8775 7.53371L10.8811 7.53389L10.8845 7.53407L10.8879 7.53429L10.8913 7.53451L10.8949 7.53475L10.8983 7.53501L10.9017 7.53529L10.9051 7.53557L10.9087 7.53587L10.9121 7.53619L10.9155 7.53651L10.9189 7.53687L10.9223 7.53723L10.9259 7.53761L10.9293 7.53798L10.9327 7.5384L10.9361 7.53882L10.9395 7.53926L10.9429 7.5397L10.9463 7.54018L10.9497 7.54066L10.9531 7.54116L10.9598 7.5422L10.9666 7.5433L10.9734 7.54444L10.9802 7.54566L10.987 7.54694L10.9938 7.54825L11.0006 7.54965L11.0072 7.55109L11.014 7.55259L11.0208 7.55415L11.0274 7.55577L11.0342 7.55745L11.0408 7.55916L11.0474 7.56096L11.054 7.5628L11.0607 7.56468L11.0673 7.56664L11.0739 7.56863L11.0805 7.57069L11.0869 7.57281L11.0935 7.57499L11.1001 7.57721L11.1065 7.57948L11.1131 7.5818L11.1195 7.58418L11.1259 7.58662L11.1325 7.58911L11.1389 7.59165L11.1453 7.59425L11.1517 7.59689L11.1579 7.59958L11.1642 7.60232L11.1706 7.60512L11.1768 7.60798L11.1832 7.61087L11.1894 7.61381L11.1956 7.61681L11.2018 7.61986L11.208 7.62296L11.2142 7.6261L11.2204 7.62929L11.2264 7.63255L11.2326 7.63585L11.2386 7.63918L11.2446 7.64256L11.2506 7.646L11.2566 7.64949L11.2625 7.65303L11.2685 7.65661L11.2743 7.66022L11.2803 7.6639L11.2861 7.66761L11.2919 7.67137L11.2977 7.67519L11.3035 7.67904L11.3093 7.68294L11.3149 7.6869L11.3207 7.69087L11.3263 7.69491L11.3319 7.699L11.3375 7.70312L11.3431 7.70728L11.3487 7.71149L11.3541 7.71575L11.3596 7.72004L11.365 7.72438L11.3704 7.72875L11.3758 7.73319L11.3812 7.73765L11.3864 7.74216L11.3918 7.7467L11.397 7.75129L11.4022 7.75593L11.4074 7.76058L11.4126 7.7653L11.4176 7.77005L11.4228 7.77485L11.4278 7.77966L11.4328 7.78454L11.4378 7.78945L11.4426 7.79439L11.4476 7.79938L11.4524 7.80442L11.4572 7.80947L11.4619 7.81457L11.4665 7.8197L11.4713 7.82488L11.4759 7.83009L11.4805 7.83535L11.4851 7.84062L11.4897 7.84596L11.4943 7.85131L11.4987 7.85671L11.5031 7.86214L11.5075 7.86759L11.5117 7.87309L11.5161 7.87862L11.5203 7.8842L11.5245 7.88979L11.5287 7.89545L11.5329 7.9011L11.5369 7.90682L11.5409 7.91255L11.5449 7.91832L11.5489 7.92412L11.5527 7.92995L11.5565 7.93583L11.5602 7.94172L11.564 7.94765L11.5678 7.95363L11.5714 7.95962L11.575 7.96564L11.5796 7.97351L12.4777 9.52923L12.4853 9.54212L12.4887 9.54815L12.4921 9.55421L12.4953 9.56028L12.4985 9.56639L12.5019 9.57251L12.5049 9.57866L12.5081 9.58484L12.5111 9.59103L12.5141 9.59724L12.5171 9.60348L12.5199 9.60973L12.5229 9.616L12.5257 9.6223L12.5283 9.62861L12.5311 9.63495L12.5337 9.6413L12.5363 9.64767L12.5389 9.65407L12.5413 9.66048L12.5437 9.66689L12.5461 9.67335L12.5485 9.6798L12.5507 9.68627L12.5529 9.69277L12.5551 9.69928L12.5573 9.7058L12.5593 9.71233L12.5613 9.71888L12.5632 9.72546L12.565 9.73203L12.567 9.73862L12.5688 9.74524L12.5704 9.75185L12.5722 9.75848L12.5738 9.76514L12.5754 9.77179L12.577 9.77844L12.5784 9.78514L12.5798 9.79181L12.5812 9.7985L12.5826 9.80522L12.5838 9.81193L12.585 9.81866L12.5862 9.8254L12.5872 9.83213L12.5884 9.83888L12.5894 9.84564L12.5902 9.85241L12.5912 9.85918L12.592 9.86596L12.5928 9.87275L12.5936 9.87952L12.5942 9.88631L12.5948 9.89313L12.5954 9.89992L12.596 9.90673L12.5964 9.91355L12.5968 9.92036L12.5972 9.92717L12.5976 9.93401L12.5978 9.94082L12.598 9.94765L12.5982 9.95449V9.9818L12.598 9.98863V9.99545L12.5976 10.0023L12.5974 10.0091L12.597 10.0159L12.5966 10.0228L12.5962 10.0296L12.5958 10.0364L12.5952 10.0432L12.5946 10.05L12.594 10.0568L12.5932 10.0636L12.5924 10.0704L12.5916 10.0772L12.5908 10.084L12.5898 10.0908L12.5888 10.0976L12.5878 10.1043L12.5866 10.1111L12.5856 10.1178L12.5844 10.1246L12.583 10.1313L12.5818 10.1381L12.5804 10.1448L12.579 10.1515L12.5774 10.1582L12.576 10.1649L12.5744 10.1716L12.5728 10.1783L12.571 10.1849L12.5692 10.1916L12.5674 10.1982L12.5656 10.2048L12.5636 10.2114L12.5619 10.218L12.5597 10.2246L12.5577 10.2312L12.5555 10.2378L12.5533 10.2443L12.5511 10.2508L12.5489 10.2574L12.5465 10.2639L12.5441 10.2704L12.5415 10.2768L12.5391 10.2833L12.5365 10.2897L12.5339 10.2961L12.5311 10.3025L12.5285 10.3089L12.5255 10.3153L12.5227 10.3216L12.5199 10.328L12.5169 10.3343L12.5139 10.3406L12.5107 10.3468L12.5077 10.3531L12.5045 10.3593L12.5011 10.3655L12.4979 10.3717L12.4945 10.3778L12.4911 10.384L12.4629 10.4334L12.4346 10.4827L12.4064 10.5321L12.378 10.5814L12.3497 10.6307L12.3213 10.68L12.2929 10.7294L12.2645 10.7786L12.2362 10.8279L12.2078 10.8772L12.1509 10.9757L12.0939 11.0742L12.037 11.1727L11.9798 11.2712L11.9229 11.3696L11.8088 11.5665L11.7519 11.665L11.6949 11.7635L11.638 11.862L11.581 11.9605L11.5774 11.9665L11.5738 11.9724L11.5702 11.9783L11.5666 11.9842L11.563 11.99L11.5593 11.9958L11.5555 12.0016L11.5515 12.0073L11.5477 12.013L11.5437 12.0187L11.5397 12.0244L11.5357 12.0299L11.5317 12.0355L11.5275 12.0411L11.5233 12.0466L11.5191 12.052L11.5149 12.0574L11.5105 12.0628L11.5063 12.0682L11.5019 12.0735L11.4975 12.0788L11.4929 12.084L11.4885 12.0892L11.4839 12.0944L11.4793 12.0995L11.4747 12.1046L11.4701 12.1096L11.4653 12.1147L11.4605 12.1196L11.4558 12.1246L11.451 12.1295L11.4462 12.1343L11.4412 12.1392L11.4362 12.1439L11.4314 12.1487L11.4262 12.1534L11.4212 12.158L11.4162 12.1627L11.411 12.1673L11.4058 12.1718L11.4006 12.1763L11.3954 12.1807L11.3902 12.1852L11.3848 12.1895L11.3796 12.1939L11.3742 12.1981L11.3688 12.2024L11.3632 12.2066L11.3579 12.2108L11.3523 12.2149L11.3469 12.219L11.3413 12.223L11.3357 12.227L11.3301 12.2309L11.3245 12.2348L11.3187 12.2387L11.3129 12.2425L11.3073 12.2463L11.3015 12.25L11.2957 12.2537L11.2897 12.2573L11.2839 12.2609L11.2781 12.2644L11.2721 12.2679L11.2661 12.2714L11.2601 12.2748L11.2542 12.2781L11.2482 12.2815L11.2422 12.2847L11.236 12.2879L11.23 12.2911L11.2238 12.2942L11.2176 12.2973L11.2114 12.3003L11.2052 12.3033L11.199 12.3062L11.1928 12.3091L11.1864 12.3119L11.1802 12.3147L11.1738 12.3175L11.1674 12.3201L11.161 12.3228L11.1547 12.3254L11.1483 12.3279L11.1419 12.3304L11.1355 12.3328L11.1291 12.3352L11.1225 12.3375L11.1159 12.3398L11.1095 12.342L11.1029 12.3442L11.0963 12.3463L11.0897 12.3484L11.0831 12.3504L11.0765 12.3524L11.0699 12.3543L11.0631 12.3562L11.0566 12.358L11.0498 12.3597L11.0432 12.3614L11.0364 12.3631L11.0296 12.3647L11.023 12.3662L11.0162 12.3677L11.0094 12.3692L11.0026 12.3705L10.9958 12.3718L10.989 12.3731L10.982 12.3743L10.9752 12.3755L10.9684 12.3766L10.9614 12.3776L10.9547 12.3786L10.9477 12.3795L10.9409 12.3804L10.9339 12.3812L10.9269 12.382L10.9201 12.3827L10.9131 12.3833L10.9061 12.3839L10.8991 12.3845L10.8921 12.3849L10.8851 12.3853L10.8781 12.3857L10.8711 12.386L10.8641 12.3862L10.8572 12.3864L10.8502 12.3865L10.7948 12.3867L10.7365 12.3869L10.6755 12.3871L10.612 12.3873L10.5465 12.3874L10.4791 12.3875L10.4102 12.3876L10.3403 12.3877L10.198 12.3878L10.0548 12.3879L9.91329 12.388H9.77603L9.64536 12.3879L9.52388 12.3879L9.41419 12.3878L9.31869 12.3878L9.18062 12.3877L9.12967 12.3876L9.12268 12.3875L9.11589 12.3874L9.1089 12.3873L9.1019 12.387L9.09511 12.3867L9.08812 12.3864L9.08132 12.386L9.07433 12.3855L9.06754 12.385L9.06054 12.3845L9.05375 12.3838L9.04676 12.3832L9.03996 12.3824L9.03317 12.3816L9.02618 12.3808L9.01938 12.3799L9.01259 12.3789L9.0058 12.3779L8.99881 12.3769L8.99201 12.3758L8.98522 12.3746L8.97843 12.3734L8.97183 12.3721L8.96504 12.3707L8.95825 12.3694L8.95145 12.3679L8.94466 12.3664L8.93807 12.3649L8.93127 12.3633L8.92468 12.3616L8.91789 12.3599L8.91129 12.3582L8.9047 12.3564L8.89811 12.3545L8.89151 12.3526L8.88472 12.3506L8.87813 12.3486L8.87173 12.3466L8.86514 12.3445L8.85855 12.3423L8.85215 12.3401L8.84556 12.3378L8.83896 12.3355L8.83257 12.3331L8.82618 12.3307L8.81978 12.3282L8.81339 12.3257L8.807 12.3231L8.8006 12.3205L8.79421 12.3178L8.78802 12.3151L8.78162 12.3123L8.77543 12.3095L8.76903 12.3067L8.76284 12.3038L8.75665 12.3008L8.75045 12.2978L8.74426 12.2947L8.73807 12.2916L8.73207 12.2885L8.72588 12.2853L8.71988 12.282L8.71389 12.2787L8.7079 12.2754L8.7019 12.272L8.69591 12.2685L8.68991 12.2651L8.68392 12.2615L8.67813 12.2579L8.67233 12.2543L8.66634 12.2506L8.66054 12.2469L8.65495 12.2432L8.64915 12.2394L8.64336 12.2355L8.63777 12.2316L8.63217 12.2277L8.62638 12.2237L8.62098 12.2197L8.61539 12.2156L8.60979 12.2115L8.6044 12.2073L8.5988 12.2031L8.59341 12.1988L8.58802 12.1945L8.58262 12.1902L8.57743 12.1858L8.57203 12.1814L8.56684 12.1769L8.56164 12.1724L8.55645 12.1679L8.55125 12.1633L8.54606 12.1586L8.54106 12.1539L8.53607 12.1492L8.53107 12.1445L8.52608 12.1396L8.52108 12.1348L8.51629 12.1299L8.51149 12.125L8.5067 12.12L8.5019 12.115L8.49711 12.1099L8.49251 12.1048L8.48771 12.0997L8.48312 12.0945L8.47852 12.0893L8.47413 12.084L8.46953 12.0787L8.46514 12.0734L8.46074 12.068L8.45635 12.0626L8.45215 12.0572L8.44775 12.0517L8.44356 12.0461L8.43936 12.0406L8.43537 12.035L8.43117 12.0293L8.42718 12.0236L8.42318 12.0179L8.41918 12.0121L8.41719 12.0093L8.41539 12.0063L8.41339 12.0034L8.41139 12.0005L8.40959 11.9976L8.40759 11.9946L8.4058 11.9917L8.4038 11.9887L8.402 11.9858L8.4002 11.9828L8.3984 11.9798L8.39661 11.9768L8.39461 11.9738L8.39301 11.9708L8.38302 11.9538L7.48272 10.3943L7.48092 10.3913L7.47932 10.3883L7.47772 10.3852L7.47592 10.3822L7.47433 10.3791L7.47273 10.3761L7.46933 10.37L7.46613 10.3639L7.46314 10.3577L7.45994 10.3515L7.45694 10.3453L7.45395 10.339L7.45095 10.3328L7.44815 10.3265L7.44536 10.3202L7.44256 10.3139L7.43976 10.3075L7.43716 10.3011L7.43457 10.2947L7.43197 10.2883L7.42957 10.2819L7.42697 10.2754L7.42458 10.269L7.42238 10.2625L7.41998 10.256L7.41778 10.2494L7.41559 10.2429L7.41359 10.2363L7.41139 10.2297L7.40939 10.2231L7.40739 10.2165L7.40559 10.2099L7.4038 10.2032L7.402 10.1966L7.4002 10.1899L7.3984 10.1832L7.3968 10.1765L7.39521 10.1698L7.39381 10.163L7.39221 10.1563L7.39081 10.1495L7.38941 10.1428L7.38821 10.136L7.38681 10.1292L7.38561 10.1224L7.38462 10.1156L7.38342 10.1088L7.38242 10.1019L7.38142 10.0951L7.38042 10.0883L7.37962 10.0814L7.37882 10.0745L7.37802 10.0677L7.37722 10.0608L7.37662 10.0539L7.37582 10.047L7.37542 10.0401L7.37483 10.0332L7.37443 10.0263L7.37403 10.0194L7.37363 10.0125L7.37343 10.0056L7.37323 9.99868L7.37303 9.99177L7.37283 9.98486V9.97792L7.37263 9.97101L7.37283 9.96408V9.95714L7.37303 9.95023L7.37323 9.9433L7.37343 9.93637L7.37363 9.92945L7.37403 9.92254L7.37443 9.91561L7.37483 9.90869L7.37542 9.90178L7.37602 9.89487L7.37662 9.88795L7.37722 9.88106L7.37802 9.87417L7.37882 9.86727L7.37962 9.86038L7.38042 9.85349L7.38142 9.84661L7.38242 9.83974L7.38342 9.83289L7.38462 9.82603L7.38581 9.81918L7.38701 9.81235L7.38821 9.80552L7.38961 9.7987L7.39081 9.79189L7.39241 9.78508L7.39381 9.77828L7.3954 9.77151L7.397 9.76474L7.3986 9.75798L7.4002 9.75123L7.402 9.7445L7.4038 9.73778L7.40559 9.73107L7.40759 9.72438L7.40959 9.7177L7.41159 9.71103L7.41359 9.7044L7.41578 9.69776L7.41798 9.69113L7.42018 9.68454L7.42238 9.67794L7.42478 9.67139L7.42717 9.66484L7.42957 9.6583L7.43217 9.65179L7.43477 9.64528L7.43736 9.6388L7.43996 9.63235L7.44256 9.62592L7.44536 9.6195L7.44815 9.61309L7.45115 9.60671L7.45395 9.60036L7.45694 9.59403L7.45994 9.58773L7.46314 9.58144L7.46633 9.57517L7.46953 9.56893L7.47273 9.56272L7.47592 9.55652L7.47932 9.55035L7.48272 9.54422L7.48931 9.53269L7.58801 9.36152L7.69551 9.17507L7.82757 8.94584L7.97383 8.69213L8.12368 8.43233L8.26654 8.18476L8.33187 8.07127L8.39161 7.96773L8.39521 7.96176L8.3988 7.95581L8.4024 7.94989L8.406 7.94402L8.40979 7.93816L8.41359 7.93233L8.41739 7.92654L8.42118 7.92078L8.42498 7.91505L8.42897 7.90933L8.43297 7.90368L8.43697 7.89802L8.44116 7.89243L8.44516 7.88686L8.44935 7.88132L8.45355 7.87581L8.45794 7.87035L8.46214 7.8649L8.46654 7.8595L8.47093 7.85413L8.47533 7.84879L8.47972 7.8435L8.48432 7.83822L8.48871 7.83299L8.49351 7.8278L8.49811 7.82264L8.5027 7.81752L8.5075 7.81243L8.51209 7.80737L8.51689 7.80236L8.52188 7.79739L8.52668 7.79245L8.53147 7.78755L8.53647 7.78268L8.54146 7.77786L8.54646 7.77307L8.55165 7.76833L8.55665 7.76362L8.56184 7.75894L8.56684 7.75433L8.57223 7.74973L8.57743 7.74518L8.58262 7.74066L8.58802 7.73621L8.59321 7.73177L8.5986 7.72738L8.604 7.72304L8.60939 7.71872L8.61499 7.71447L8.62038 7.71025L8.62598 7.70608L8.63157 7.70194L8.63717 7.69784L8.64276 7.69379L8.64836 7.68979L8.65415 7.68582L8.65994 7.6819L8.66554 7.67802L8.67133 7.67421L8.67713 7.67041L8.68312 7.66668L8.68891 7.66298L8.69491 7.65934L8.7007 7.65573L8.7067 7.65217L8.71269 7.64865L8.71869 7.6452L8.72468 7.64178L8.73087 7.6384L8.73687 7.63509L8.74306 7.63181L8.74905 7.62859L8.75525 7.62542L8.76144 7.62228L8.76764 7.6192L8.77383 7.61617L8.78022 7.61319L8.78642 7.61025L8.79281 7.60738L8.799 7.60454L8.8054 7.60176L8.81179 7.59902L8.81819 7.59635L8.82458 7.59371L8.83097 7.59113L8.83757 7.58859L8.84396 7.58612L8.85055 7.5837L8.85695 7.58134L8.86354 7.57902L8.87013 7.57675L8.87673 7.57453L8.88332 7.57237L8.88991 7.57027L8.89651 7.56821L8.9031 7.56624L8.90969 7.56428L8.91649 7.5624L8.92308 7.56056L8.92987 7.55878L8.93667 7.55707L8.94326 7.55541L8.95005 7.55379L8.95685 7.55225L8.96364 7.55075L8.97043 7.54931L8.97723 7.54793L8.98402 7.5466L8.99101 7.54534L8.99781 7.54412L9.0046 7.54298L9.01159 7.54188L9.01499 7.54136L9.01839 7.54086L9.02178 7.54036L9.02538 7.53988L9.02878 7.53942L9.03217 7.53896L9.03577 7.53852L9.03917 7.53811L9.04256 7.53771L9.04616 7.53731L9.04955 7.53695L9.05295 7.53659L9.05655 7.53623L9.05994 7.53591L9.06334 7.53559L9.06694 7.53529L9.07033 7.53501L9.07393 7.53475L9.07733 7.53449L9.08092 7.53425L9.08432 7.53403L9.08792 7.53381L9.09131 7.53363L9.09491 7.53345L9.09831 7.53329L9.1019 7.53315L9.1053 7.53301L9.1089 7.53289L9.11229 7.53279L9.11589 7.53271L9.11929 7.53265L9.12288 7.53259L9.12748 7.53255L9.13227 7.53247L9.13787 7.53235L10.8328 7.53277ZM20.3868 12.3876H12.2346L19.7866 -0.692937L20.4082 -0.731079L20.3868 12.3876ZM9.13687 7.77217L9.13067 7.77229L9.12588 7.77233L9.12348 7.77237L9.12108 7.77241L9.11849 7.77247L9.11609 7.77255L9.11369 7.77263L9.11129 7.77271L9.1089 7.77281L9.1065 7.77293L9.1039 7.77305L9.1015 7.77319L9.09911 7.77333L9.09671 7.77349L9.09431 7.77365L9.09171 7.77383L9.08932 7.77403L9.08692 7.77421L9.08452 7.77443L9.08212 7.77465L9.07972 7.77487L9.07713 7.77511L9.07473 7.77537L9.07233 7.77563L9.06993 7.77591L9.06754 7.77619L9.06514 7.77649L9.06254 7.77679L9.06014 7.77711L9.05775 7.77743L9.05535 7.77777L9.05295 7.7781L9.05055 7.77848L9.04836 7.7788L9.04316 7.7796L9.03837 7.78042L9.03357 7.78128L9.02878 7.78216L9.02398 7.7831L9.01899 7.78408L9.01419 7.7851L9.00939 7.78616L9.0046 7.78728L8.9998 7.78841L8.99501 7.78959L8.99021 7.79081L8.98542 7.79209L8.98062 7.79339L8.97603 7.79475L8.97123 7.79613L8.96644 7.79757L8.96164 7.79902L8.95685 7.80054L8.95225 7.80208L8.94746 7.80368L8.94286 7.8053L8.93807 7.80698L8.93327 7.80867L8.92868 7.81043L8.92408 7.81221L8.91928 7.81403L8.91469 7.81591L8.91009 7.81781L8.9055 7.81976L8.9009 7.82172L8.89631 7.82374L8.89171 7.8258L8.88712 7.8279L8.88252 7.83003L8.87793 7.83221L8.87333 7.83441L8.86893 7.83665L8.86434 7.83892L8.85994 7.84124L8.85535 7.8436L8.85095 7.846L8.84656 7.84841L8.84216 7.85087L8.83757 7.85337L8.83317 7.85591L8.82878 7.85846L8.82458 7.86108L8.82018 7.86372L8.81579 7.86638L8.81159 7.86909L8.8072 7.87183L8.803 7.87461L8.79881 7.87743L8.79461 7.88026L8.79041 7.88314L8.78622 7.88604L8.78202 7.88899L8.77783 7.89195L8.77383 7.89495L8.76963 7.898L8.76564 7.90106L8.76164 7.90416L8.75765 7.9073L8.75365 7.91045L8.74965 7.91365L8.74566 7.91687L8.74166 7.92012L8.73787 7.9234L8.73387 7.92672L8.73007 7.93005L8.72628 7.93343L8.72248 7.93685L8.71869 7.94026L8.71509 7.9437L8.71129 7.9472L8.7077 7.95069L8.7039 7.95423L8.7003 7.9578L8.69671 7.96138L8.69331 7.96502L8.68971 7.96865L8.68612 7.97231L8.68272 7.97601L8.67932 7.97974L8.67593 7.98346L8.67253 7.98724L8.66913 7.99101L8.66574 7.99483L8.66254 7.99868L8.65934 8.00256L8.65595 8.00644L8.65295 8.01035L8.64975 8.01427L8.64656 8.0182L8.64356 8.02218L8.64036 8.02618L8.63737 8.03021L8.63437 8.03425L8.63157 8.0383L8.62857 8.04238L8.62578 8.04648L8.62278 8.05059L8.61998 8.05473L8.61719 8.05888L8.61459 8.06306L8.61179 8.06724L8.60919 8.07147L8.6066 8.07569L8.604 8.07992L8.6014 8.0842L8.5988 8.08845L8.53966 8.19111L8.47413 8.30456L8.33127 8.55211L8.18162 8.81189L8.03537 9.06556L7.9033 9.29479L7.79581 9.48124L7.6973 9.65205L7.69171 9.66192L7.68951 9.66588L7.68711 9.67027L7.68472 9.67467L7.68252 9.67912L7.68012 9.68358L7.67792 9.68805L7.67572 9.69255L7.67353 9.69704L7.67133 9.7016L7.66933 9.70616L7.66713 9.71073L7.66514 9.71531L7.66314 9.71992L7.66134 9.72458L7.65934 9.72919L7.65754 9.73385L7.65555 9.73854L7.65375 9.74324L7.65215 9.74795L7.65035 9.75267L7.64875 9.7574L7.64695 9.76218L7.64536 9.76695L7.64376 9.77175L7.64236 9.77654L7.64076 9.78136L7.63936 9.78617L7.63796 9.79105L7.63656 9.79591L7.63517 9.80078L7.63377 9.80566L7.63257 9.81053L7.63137 9.81545L7.63017 9.82038L7.62897 9.8253L7.62797 9.83021L7.62677 9.83517L7.62578 9.84014L7.62478 9.84512L7.62378 9.85007L7.62298 9.85505L7.62198 9.86004L7.62118 9.86504L7.62038 9.87007L7.61958 9.87507L7.61878 9.88008L7.61818 9.88512L7.61758 9.89013L7.61698 9.89519L7.61638 9.90022L7.61579 9.90526L7.61539 9.91033L7.61479 9.91539L7.61439 9.92042L7.61399 9.92548L7.61379 9.93055L7.61339 9.93561L7.61319 9.94068L7.61299 9.94574L7.61279 9.95081L7.61259 9.95587V9.96601L7.61239 9.97107L7.61259 9.97612V9.98625L7.61279 9.99131L7.61299 9.99634L7.61319 10.0014L7.61339 10.0065L7.61379 10.0115L7.61399 10.0165L7.61439 10.0216L7.61479 10.0266L7.61519 10.0316L7.61579 10.0366L7.61638 10.0416L7.61678 10.0467L7.61738 10.0516L7.61818 10.0566L7.61878 10.0616L7.61958 10.0666L7.62018 10.0715L7.62098 10.0765L7.62198 10.0814L7.62278 10.0863L7.62378 10.0913L7.62458 10.0962L7.62558 10.1011L7.62657 10.1059L7.62777 10.1108L7.62877 10.1157L7.62997 10.1205L7.63117 10.1254L7.63237 10.1302L7.63357 10.135L7.63497 10.1398L7.63616 10.1446L7.63756 10.1493L7.63896 10.1541L7.64056 10.1588L7.64196 10.1635L7.64356 10.1682L7.64496 10.1729L7.64655 10.1776L7.64835 10.1822L7.64995 10.1868L7.65155 10.1914L7.65335 10.196L7.65515 10.2006L7.65694 10.2052L7.65874 10.2097L7.66074 10.2142L7.66254 10.2187L7.66454 10.2232L7.66653 10.2277L7.66853 10.2321L7.67073 10.2365L7.67273 10.2409L7.67493 10.2453L7.67712 10.2496L7.67932 10.2539L7.68152 10.2583L7.68392 10.2628L7.68492 10.2647L7.68612 10.2668L7.68731 10.2689L7.68851 10.271L7.68971 10.2732L7.69071 10.275L8.59041 11.8335L8.5994 11.8489L8.6002 11.8504L8.6016 11.8525L8.6028 11.8546L8.6042 11.8567L8.6054 11.8588L8.6068 11.8609L8.608 11.863L8.60939 11.8651L8.61079 11.8672L8.61219 11.8693L8.61339 11.8713L8.61479 11.8733L8.61619 11.8754L8.61739 11.8773L8.62038 11.8815L8.62318 11.8856L8.62598 11.8896L8.62897 11.8936L8.63177 11.8975L8.63477 11.9015L8.63777 11.9054L8.64076 11.9093L8.64396 11.9132L8.64696 11.917L8.65015 11.9209L8.65335 11.9246L8.65655 11.9284L8.65974 11.9321L8.66294 11.9359L8.66614 11.9395L8.66953 11.9432L8.67293 11.9469L8.67633 11.9505L8.67972 11.954L8.68312 11.9576L8.68652 11.9611L8.69011 11.9646L8.69351 11.9681L8.69711 11.9716L8.7007 11.975L8.7043 11.9784L8.7081 11.9817L8.71169 11.9851L8.71549 11.9884L8.71908 11.9917L8.72288 11.9949L8.72668 11.9981L8.73047 12.0013L8.73427 12.0045L8.73827 12.0076L8.74206 12.0107L8.74606 12.0138L8.74985 12.0168L8.75385 12.0199L8.75785 12.0228L8.76204 12.0258L8.76604 12.0287L8.77003 12.0316L8.77423 12.0345L8.77823 12.0373L8.78242 12.0401L8.78662 12.0428L8.79081 12.0456L8.79501 12.0483L8.7992 12.0509L8.8034 12.0536L8.8078 12.0562L8.81199 12.0587L8.81639 12.0613L8.82078 12.0638L8.82518 12.0663L8.82937 12.0687L8.83377 12.0711L8.83837 12.0734L8.84276 12.0758L8.84716 12.0781L8.85155 12.0803L8.85615 12.0826L8.86074 12.0848L8.86514 12.0869L8.86973 12.0891L8.87433 12.0911L8.87893 12.0932L8.88352 12.0952L8.88812 12.0972L8.89271 12.0991L8.89731 12.1011L8.9019 12.1029L8.9067 12.1048L8.91129 12.1066L8.91609 12.1083L8.92068 12.11L8.92548 12.1117L8.93027 12.1134L8.93487 12.115L8.93966 12.1166L8.94446 12.1181L8.94925 12.1196L8.95405 12.1211L8.95885 12.1225L8.96364 12.1239L8.96844 12.1253L8.97323 12.1266L8.97823 12.1279L8.98302 12.1291L8.98782 12.1303L8.99281 12.1314L8.99761 12.1326L9.0024 12.1336L9.0074 12.1347L9.01219 12.1357L9.01719 12.1367L9.02198 12.1376L9.02698 12.1385L9.03177 12.1393L9.03677 12.1401L9.04176 12.1409L9.04656 12.1416L9.05155 12.1423L9.05655 12.143L9.06134 12.1436L9.06634 12.1441L9.07133 12.1447L9.07633 12.1451L9.08112 12.1456L9.08612 12.146L9.09111 12.1464L9.09611 12.1467L9.1009 12.147L9.1059 12.1472L9.11089 12.1474L9.11589 12.1476L9.12088 12.1477L9.12568 12.1478L9.13087 12.1478L9.18082 12.1479L9.31889 12.148L9.41439 12.1481L9.52388 12.1481L9.64536 12.1482L9.77603 12.1482H9.91329L10.0548 12.1482L10.1978 12.1481L10.3401 12.1479L10.41 12.1479L10.4787 12.1478L10.5461 12.1476L10.6116 12.1475L10.6749 12.1473L10.7359 12.1472L10.794 12.147L10.8476 12.1468L10.8522 12.1467L10.8572 12.1466L10.8621 12.1464L10.8671 12.1462L10.8721 12.1459L10.8769 12.1457L10.8819 12.1453L10.8869 12.1449L10.8919 12.1445L10.8969 12.1441L10.9017 12.1436L10.9067 12.143L10.9117 12.1424L10.9167 12.1418L10.9215 12.1411L10.9265 12.1404L10.9315 12.1397L10.9363 12.1389L10.9413 12.1381L10.9461 12.1372L10.9511 12.1363L10.9559 12.1353L10.9608 12.1343L10.9656 12.1333L10.9704 12.1323L10.9754 12.1311L10.9802 12.13L10.985 12.1288L10.9898 12.1276L10.9948 12.1263L10.9996 12.125L11.0044 12.1237L11.0092 12.1223L11.014 12.1209L11.0188 12.1194L11.0234 12.1179L11.0282 12.1164L11.033 12.1148L11.0376 12.1132L11.0424 12.1115L11.047 12.1098L11.0518 12.1081L11.0564 12.1064L11.0611 12.1046L11.0657 12.1027L11.0703 12.1009L11.0749 12.099L11.0795 12.097L11.0841 12.095L11.0887 12.093L11.0933 12.0909L11.0979 12.0889L11.1023 12.0867L11.1069 12.0846L11.1113 12.0824L11.1159 12.0801L11.1203 12.0779L11.1247 12.0755L11.1293 12.0732L11.1337 12.0708L11.1381 12.0684L11.1423 12.066L11.1467 12.0635L11.1511 12.061L11.1553 12.0585L11.1596 12.0559L11.1638 12.0533L11.1682 12.0506L11.1724 12.048L11.1766 12.0453L11.1808 12.0425L11.1848 12.0397L11.189 12.0369L11.1932 12.0341L11.1972 12.0312L11.2012 12.0283L11.2054 12.0254L11.2094 12.0224L11.2134 12.0194L11.2174 12.0164L11.2212 12.0133L11.2252 12.0103L11.2292 12.0072L11.233 12.004L11.2368 12.0008L11.2406 11.9976L11.2444 11.9944L11.2482 11.9911L11.252 11.9879L11.2558 11.9845L11.2593 11.9812L11.2629 11.9778L11.2665 11.9744L11.2701 11.971L11.2737 11.9675L11.2773 11.9641L11.2809 11.9606L11.2843 11.957L11.2877 11.9535L11.2911 11.9499L11.2945 11.9463L11.2979 11.9426L11.3013 11.939L11.3045 11.9353L11.3079 11.9315L11.3111 11.9278L11.3143 11.9241L11.3175 11.9203L11.3207 11.9164L11.3237 11.9126L11.3267 11.9088L11.3299 11.9049L11.3329 11.901L11.3359 11.897L11.3387 11.8931L11.3417 11.8891L11.3445 11.8851L11.3473 11.8811L11.3503 11.8771L11.3529 11.873L11.3557 11.8689L11.3585 11.8648L11.361 11.8607L11.3636 11.8565L11.3662 11.8524L11.3688 11.8482L11.3714 11.844L11.3738 11.8397L11.4304 11.742L11.4873 11.6434L11.5443 11.5449L11.6014 11.4464L11.7155 11.2495L11.7724 11.151L11.8294 11.0526L11.8863 10.9542L11.9433 10.8558L12 10.7573L12.0284 10.7082L12.0568 10.6589L12.0851 10.6097L12.1135 10.5605L12.1419 10.5112L12.17 10.462L12.1984 10.4128L12.2266 10.3635L12.2548 10.3142L12.2823 10.2663L12.2845 10.2624L12.2869 10.258L12.2891 10.2536L12.2915 10.2492L12.2937 10.2448L12.2959 10.2403L12.2981 10.2359L12.3003 10.2314L12.3025 10.2269L12.3045 10.2224L12.3065 10.2179L12.3085 10.2134L12.3105 10.2089L12.3123 10.2043L12.3143 10.1997L12.3161 10.1951L12.3179 10.1905L12.3197 10.1859L12.3213 10.1813L12.3231 10.1766L12.3247 10.172L12.3263 10.1673L12.3279 10.1627L12.3293 10.158L12.3309 10.1533L12.3323 10.1486L12.3337 10.1438L12.3351 10.1391L12.3365 10.1344L12.3377 10.1296L12.3389 10.1248L12.3401 10.1201L12.3413 10.1153L12.3425 10.1105L12.3437 10.1057L12.3447 10.1009L12.3457 10.096L12.3467 10.0912L12.3477 10.0864L12.3485 10.0816L12.3493 10.0767L12.3501 10.0718L12.3509 10.067L12.3517 10.0621L12.3525 10.0572L12.3531 10.0523L12.3537 10.0474L12.3543 10.0425L12.3549 10.0376L12.3555 10.0327L12.3559 10.0278L12.3563 10.0229L12.3567 10.018L12.3571 10.013L12.3575 10.0082L12.3577 10.0032L12.3579 9.99826L12.3581 9.99333L12.3583 9.98839L12.3585 9.98346V9.95876L12.3583 9.95381V9.94887L12.3581 9.94392L12.3579 9.93898L12.3575 9.93407L12.3573 9.92911L12.3569 9.92418L12.3565 9.91926L12.3561 9.91433L12.3557 9.90939L12.3551 9.90448L12.3547 9.89954L12.3541 9.89465L12.3535 9.88975L12.3529 9.88484L12.3521 9.87992L12.3513 9.87505L12.3507 9.87015L12.3499 9.86526L12.3489 9.86038L12.3481 9.85553L12.3471 9.85067L12.3461 9.84582L12.3453 9.84098L12.3441 9.83613L12.3431 9.83127L12.3419 9.82646L12.3409 9.82166L12.3397 9.81684L12.3385 9.81205L12.3371 9.80727L12.3359 9.8025L12.3345 9.79774L12.3331 9.79299L12.3317 9.78823L12.3303 9.78352L12.3289 9.77878L12.3273 9.77407L12.3257 9.76939L12.3241 9.76472L12.3225 9.76004L12.3207 9.75539L12.3191 9.75073L12.3173 9.74612L12.3155 9.7415L12.3137 9.7369L12.3119 9.73233L12.3099 9.72773L12.3081 9.72318L12.3061 9.71862L12.3041 9.71413L12.3021 9.70961L12.2999 9.70512L12.2979 9.70064L12.2957 9.69617L12.2935 9.69175L12.2913 9.68733L12.2889 9.68292L12.2867 9.67852L12.2843 9.67415L12.2819 9.66977L12.2795 9.66546L12.2771 9.66116L12.2701 9.64911L11.3722 8.09381L11.3686 8.08766L11.3662 8.08374L11.3636 8.07938L11.361 8.07505L11.3583 8.07075L11.3555 8.06644L11.3527 8.06218L11.3499 8.05793L11.3469 8.05371L11.3441 8.04949L11.3411 8.04532L11.3381 8.04114L11.3351 8.03699L11.3321 8.03289L11.3291 8.02877L11.3259 8.02468L11.3229 8.02066L11.3197 8.01663L11.3165 8.01261L11.3133 8.00863L11.3099 8.00468L11.3067 8.00074L11.3033 7.99683L11.2999 7.99295L11.2965 7.98911L11.2931 7.98528L11.2897 7.98146L11.2861 7.97768L11.2827 7.97395L11.2791 7.97021L11.2755 7.96652L11.2719 7.96284L11.2683 7.9592L11.2647 7.95559L11.2609 7.95199L11.2574 7.94843L11.2536 7.9449L11.2498 7.9414L11.246 7.93795L11.2422 7.93449L11.2384 7.93107L11.2346 7.9277L11.2306 7.92436L11.2268 7.92104L11.2228 7.91775L11.2188 7.91449L11.2148 7.91125L11.2108 7.90806L11.2068 7.9049L11.2028 7.90176L11.1986 7.89866L11.1946 7.89561L11.1904 7.89257L11.1862 7.88955L11.1822 7.8866L11.178 7.88366L11.1738 7.88076L11.1696 7.8779L11.1654 7.87507L11.161 7.87227L11.1569 7.86951L11.1525 7.8668L11.1483 7.8641L11.1439 7.86144L11.1395 7.85882L11.1353 7.85625L11.1309 7.85371L11.1265 7.85117L11.1219 7.84869L11.1175 7.84628L11.1131 7.84386L11.1087 7.8415L11.1043 7.83918L11.0997 7.83689L11.0953 7.83463L11.0907 7.83241L11.0861 7.83025L11.0817 7.82809L11.0771 7.826L11.0725 7.82394L11.0679 7.82192L11.0635 7.81994L11.059 7.81798L11.0544 7.81609L11.0498 7.81423L11.045 7.81239L11.0404 7.81059L11.0358 7.80885L11.0312 7.80714L11.0266 7.80548L11.0218 7.80384L11.0172 7.80226L11.0124 7.8007L11.0078 7.7992L11.0032 7.79775L10.9984 7.79631L10.9938 7.79491L10.989 7.79357L10.9844 7.79227L10.9796 7.79101L10.9748 7.78977L10.9702 7.78859L10.9654 7.78746L10.9606 7.78636L10.9561 7.7853L10.9513 7.78428L10.9465 7.78332L10.9419 7.78238L10.9371 7.78148L10.9323 7.78064L10.9275 7.77982L10.9227 7.77906L10.9177 7.77831L10.9157 7.77798L10.9133 7.77767L10.9109 7.77733L10.9085 7.77703L10.9061 7.77673L10.9037 7.77643L10.9013 7.77613L10.8991 7.77587L10.8967 7.77561L10.8943 7.77535L10.8919 7.77511L10.8895 7.77489L10.8871 7.77467L10.8847 7.77445L10.8823 7.77425L10.8799 7.77407L10.8777 7.77389L10.8753 7.77373L10.8729 7.77357L10.8705 7.77343L10.8681 7.77329L10.8657 7.77317L10.8633 7.77307L10.8609 7.77295L10.8586 7.77287L10.8564 7.77279L10.854 7.77271L10.8516 7.77265L10.8492 7.77261L10.8468 7.77257L10.8444 7.77255L10.8422 7.77253H10.8328L9.14046 7.77211L9.13687 7.77217ZM19.9299 -0.461509L12.65 12.1478H20.1475L20.1681 -0.476114L19.9299 -0.461509ZM13.1812 9.19065L8.28612 0.712077L9.06634 -0.639111L18.8815 -0.682408L13.1812 9.19065ZM9.205 -0.39997L8.56304 0.712077L13.1812 8.71113L18.4652 -0.44081L9.205 -0.39997ZM10.8835 6.7682H4.7896L7.83657 1.49072L10.8835 6.7682ZM5.20499 6.52844H10.4683L7.83657 1.97024L5.20499 6.52844Z" fill="url(#paint1_linear)"/>
</g>
<defs>
<radialGradient id="paint0_radial" cx="0" cy="0" r="1" gradientUnits="userSpaceOnUse" gradientTransform="translate(15.2659 -3.73514) scale(23.7351 23.7348)">
<stop stop-color="#F9A6FF"/>
<stop offset="1" stop-color="#EA73FF"/>
</radialGradient>
<linearGradient id="paint1_linear" x1="4.14775" y1="0.0199692" x2="4.14775" y2="20" gradientUnits="userSpaceOnUse">
<stop stop-color="#F7B3FF"/>
<stop offset="1" stop-color="#EE8AFF"/>
</linearGradient>
</defs>
</svg>
