<svg width="16" height="16" fill="none" xmlns="http://www.w3.org/2000/svg"><g clip-path="url(#a)" fill-rule="evenodd" clip-rule="evenodd"><path d="M16 1.563C16 .7 15.3 0 14.437 0H1.563C.7 0 0 .7 0 1.563v12.874C0 15.3.7 16 1.563 16h12.874C15.3 16 16 15.3 16 14.437V1.563z" fill="#891B26"/><path d="M7.283 14.828 3.255 7.854 1.172 11.46v2.742c0 .345.28.625.625.625h5.486zm2.938 0H7.898L3.882 7.874a1.104 1.104 0 0 1 0-1.105l.842-1.458 5.497 9.517zm2.937 0h-2.322L5.066 4.72l1.127-1.952 6.965 12.06zm1.67-2.194v1.57c0 .344-.28.624-.625.624h-.43L6.5 2.236l.615-1.064h1.093l6.62 11.462zm-.625-11.462h-5.38l6.005 10.398V1.797a.625.625 0 0 0-.625-.625z" fill="url(#b)"/></g><defs><radialGradient id="b" cx="0" cy="0" r="1" gradientUnits="userSpaceOnUse" gradientTransform="translate(11.609 -1.395) scale(16.2228)"><stop stop-color="#FFAE71"/><stop offset="1" stop-color="#FF9350"/></radialGradient><clipPath id="a"><path fill="#fff" d="M0 0h16v16H0z"/></clipPath></defs></svg>