<svg width="16" height="16" fill="none" xmlns="http://www.w3.org/2000/svg"><g clip-path="url(#a)" fill-rule="evenodd" clip-rule="evenodd"><path d="M16 1.563C16 .7 15.3 0 14.437 0H1.563C.7 0 0 .7 0 1.563v12.874C0 15.3.7 16 1.563 16h12.874C15.3 16 16 15.3 16 14.437V1.563z" fill="#134881"/><path d="M14.828 14.208a.625.625 0 0 1-.625.62H7.895L5.2 10.158h9.63v4.05zm-13.656-.005v-2.742l5.94-10.29h2.322L4.415 9.866l2.866 4.963H1.797a.625.625 0 0 1-.625-.625zm7.612-4.577H6.437a.731.731 0 0 1-.635-1.098l1.174-2.034 1.808 3.132zm5.42-8.454c.342 0 .621.277.624.62v7.834h-5.43L7.284 5.962l2.765-4.79h4.155z" fill="url(#b)"/></g><defs><radialGradient id="b" cx="0" cy="0" r="1" gradientUnits="userSpaceOnUse" gradientTransform="translate(11.61 -1.395) scale(16.2228)"><stop stop-color="#6BE1FB"/><stop offset="1" stop-color="#38BDFA"/></radialGradient><clipPath id="a"><path fill="#fff" d="M0 0h16v16H0z"/></clipPath></defs></svg>