<svg width="20" height="20" viewBox="0 0 20 20" fill="none" xmlns="http://www.w3.org/2000/svg">
<path fill-rule="evenodd" clip-rule="evenodd" d="M20 0.6C20 0.268868 19.7311 0 19.4 0H0.6C0.268868 0 0 0.268868 0 0.6V19.4C0 19.7311 0.268868 20 0.6 20H19.4C19.7311 20 20 19.7311 20 19.4V0.6Z" fill="#C9284D"/>
<mask id="mask0" mask-type="alpha" maskUnits="userSpaceOnUse" x="0" y="0" width="20" height="20">
<path fill-rule="evenodd" clip-rule="evenodd" d="M20 0.6C20 0.268868 19.7311 0 19.4 0H0.6C0.268868 0 0 0.268868 0 0.6V19.4C0 19.7311 0.268868 20 0.6 20H19.4C19.7311 20 20 19.7311 20 19.4V0.6Z" fill="white"/>
</mask>
<g mask="url(#mask0)">
<path fill-rule="evenodd" clip-rule="evenodd" d="M20.0863 0.585626C20.0863 0.251749 19.8152 -0.0193481 19.4813 -0.0193481H8.18842L-0.0795898 14.3012V19.5415C-0.0795898 19.8753 0.191509 20.1464 0.525387 20.1464H19.4813C19.8152 20.1464 20.0863 19.8753 20.0863 19.5415V0.585626Z" fill="#BD163D"/>
<path fill-rule="evenodd" clip-rule="evenodd" d="M9.2441 20.1464H-0.0795898L-0.0795092 14.6505L2.99579 9.32395L9.2441 20.1464ZM13.5798 20.1464H9.54659C7.57508 16.7361 5.65321 13.4169 3.68961 10.0019C3.36216 9.4272 3.35599 8.70213 3.69314 8.11523L5.16368 5.56916L13.5798 20.1464ZM17.9154 20.1464H13.8823L5.31492 5.3072L7.33145 1.81439L17.9154 20.1464ZM18.2179 20.1464L7.4827 1.55241L8.39016 -0.0193481H10.6083L20.0863 16.3864V20.1464H18.2179ZM20.0863 -0.0193481V15.873L10.9108 -0.0193481H20.0863Z" fill="#8D102D"/>
<path fill-rule="evenodd" clip-rule="evenodd" d="M2.99571 9.84785L8.94162 20.1464H-0.0795898V15.1744L2.99571 9.84785ZM20.0863 20.1464H18.5204L7.7851 1.55241L8.69257 -0.0193481H10.3058L20.0863 16.9208V20.1464ZM17.6129 20.1464H14.1847L5.66769 5.21989L7.33137 2.33829L17.6129 20.1464ZM13.2773 20.1464H9.84908C9.84908 20.1464 5.40817 12.4519 3.92037 9.87764C3.62861 9.37285 3.62853 8.75071 3.92013 8.24584C4.4581 7.31443 5.16362 6.09288 5.16362 6.09288L13.2773 20.1464ZM11.2133 -0.0193481H20.0863V15.349L11.2133 -0.0193481Z" fill="url(#paint0_radial)"/>
<path fill-rule="evenodd" clip-rule="evenodd" d="M18.0157 20.844L14.5855 20.8488L5.66773 5.2199L7.33142 2.33831L18.0157 20.844ZM13.6769 20.8386L10.2408 20.8248L10.0303 20.46L9.46249 19.4764L8.63331 18.0399L8.15064 17.2037L7.63854 16.3166L7.10903 15.3994L6.57405 14.4727L6.0456 13.5574L5.53565 12.6742L5.05618 11.8438L4.83162 11.455L4.61917 11.0871L4.42031 10.7429L4.23658 10.4248L4.06945 10.1356L3.92042 9.87766L3.91701 9.87173L3.91364 9.8658L3.91028 9.85987L3.90695 9.8539L3.90366 9.84795L3.9004 9.84196L3.89715 9.83599L3.89392 9.83001L3.89074 9.824L3.88757 9.81799L3.88442 9.81196L3.88132 9.80593L3.87823 9.79988L3.87517 9.79383L3.87214 9.78776L3.86914 9.78169L3.86615 9.77562L3.86321 9.76953L3.86029 9.76342L3.85738 9.75731L3.85452 9.7512L3.85166 9.74507L3.84885 9.73894L3.84605 9.73279L3.84329 9.72664L3.84054 9.72046L3.83784 9.71429L3.83516 9.70812L3.8325 9.70193L3.82986 9.69574L3.82725 9.68953L3.82469 9.68332L3.82213 9.67709L3.81961 9.67088L3.81711 9.66463L3.81463 9.65839L3.81219 9.65214L3.80977 9.64587L3.80739 9.63962L3.80503 9.63333L3.80269 9.62706L3.80037 9.62077L3.79809 9.61447L3.79584 9.60816L3.7936 9.60185L3.7914 9.59554L3.78922 9.58921L3.78706 9.58287L3.78495 9.57654L3.78285 9.57021L3.78077 9.56386L3.77874 9.55748L3.77672 9.55113L3.77472 9.54476L3.77277 9.53839L3.77083 9.532L3.76891 9.5256L3.76704 9.51921L3.76518 9.51282L3.76335 9.5064L3.76153 9.49999L3.75976 9.49358L3.758 9.48717L3.75629 9.48073L3.7546 9.4743L3.75292 9.46785L3.75129 9.46142L3.74966 9.45496L3.74808 9.44851L3.74651 9.44206L3.74498 9.43558L3.74346 9.42911L3.74197 9.42264L3.74052 9.41616L3.73909 9.40967L3.7377 9.4032L3.73633 9.3967L3.73497 9.39021L3.73364 9.3837L3.73235 9.3772L3.73108 9.37069L3.72983 9.36418L3.72862 9.35766L3.72743 9.35115L3.72626 9.34461L3.72513 9.33808L3.72402 9.33157L3.72294 9.32503L3.72189 9.31848L3.72086 9.31195L3.71985 9.30539L3.71888 9.29886L3.71794 9.2923L3.71701 9.28575L3.71612 9.2792L3.71523 9.27264L3.71441 9.26607L3.71358 9.25952L3.71279 9.25294L3.71203 9.24637L3.7113 9.23979L3.71059 9.23322L3.70991 9.22664L3.70924 9.22007L3.70862 9.2135L3.70801 9.2069L3.70745 9.20033L3.7069 9.19373L3.70638 9.18716L3.70588 9.18057L3.70541 9.17397L3.70497 9.16738L3.70457 9.16078L3.70416 9.15419L3.70382 9.1476L3.70348 9.141L3.70317 9.13441L3.70289 9.12781L3.70263 9.12122L3.70241 9.1146L3.70221 9.10801L3.70202 9.10142L3.70188 9.0948L3.70176 9.08821L3.70166 9.08159L3.7016 9.075L3.70156 9.06838L3.70154 9.06179L3.70156 9.0552L3.7016 9.04858L3.70166 9.04199L3.70174 9.03537L3.70186 9.02878L3.70202 9.02216L3.70219 9.01557L3.70239 9.00898L3.70261 9.00236L3.70287 8.99577L3.70315 8.98917L3.70346 8.98258L3.70378 8.97598L3.70414 8.96939L3.70452 8.9628L3.70495 8.9562L3.70539 8.94961L3.70586 8.94301L3.70634 8.93642L3.70686 8.92982L3.70741 8.92325L3.70797 8.91666L3.70858 8.91008L3.7092 8.90351L3.70987 8.89691L3.71053 8.89034L3.71124 8.88377L3.71199 8.87721L3.71273 8.87064L3.71352 8.86406L3.71435 8.85751L3.71517 8.85094L3.71604 8.84438L3.71695 8.83783L3.71785 8.83127L3.7188 8.82472L3.71979 8.81817L3.72078 8.81163L3.72181 8.80508L3.72286 8.79855L3.72394 8.79201L3.72505 8.78548L3.72618 8.77896L3.72735 8.77243L3.72854 8.76592L3.72975 8.7594L3.73098 8.75289L3.73225 8.74638L3.73354 8.73986L3.73487 8.73337L3.73623 8.72688L3.7376 8.72038L3.73899 8.71389L3.74042 8.70742L3.74187 8.70092L3.74336 8.69445L3.74488 8.68798L3.74641 8.68152L3.74796 8.67505L3.74956 8.6686L3.75117 8.66216L3.7528 8.65571L3.75448 8.64928L3.75617 8.64285L3.75788 8.63641L3.75964 8.62998L3.76141 8.62357L3.76321 8.61715L3.76504 8.61074L3.7669 8.60435L3.76877 8.59796L3.77069 8.59156L3.77262 8.58517L3.77458 8.5788L3.77658 8.57243L3.77859 8.56607L3.78063 8.5597L3.78271 8.55335L3.7848 8.54702L3.78692 8.54067L3.78906 8.53433L3.79124 8.52802L3.79344 8.52169L3.79567 8.51538L3.79793 8.50909L3.80021 8.50279L3.80251 8.4965L3.80485 8.49021L3.80721 8.48394L3.80961 8.47767L3.81203 8.47142L3.81447 8.46516L3.81693 8.45891L3.81943 8.45268L3.82195 8.44645L3.82451 8.44022L3.82707 8.43401L3.82967 8.42782L3.83232 8.42161L3.83496 8.41542L3.83764 8.40924L3.84036 8.40307L3.84308 8.3969L3.84585 8.39075L3.84865 8.3846L3.85145 8.37847L3.8543 8.37234L3.85718 8.36623L3.86006 8.36012L3.86299 8.35401L3.86595 8.34792L3.86892 8.34185L3.87192 8.33576L3.87495 8.32971L3.87801 8.32366L3.8811 8.31761L3.8842 8.31158L3.88735 8.30555L3.89051 8.29954L3.8937 8.29353L3.89691 8.28754L3.90015 8.28156L3.90342 8.27559L3.90673 8.26962L3.91006 8.26367L3.9134 8.25772L3.91677 8.25179L3.92018 8.24586L5.16367 6.0929L13.6769 20.8386ZM9.33216 20.8228L-0.800049 20.7988L-0.578769 16.0391L2.99575 9.84787L9.33216 20.8228ZM20.5405 17.7073L20.6256 20.7988L18.905 20.8125L7.78515 1.55243L9.12898 -0.775144L9.86931 -0.775486L20.5405 17.7073ZM5.94675 5.22061L14.726 20.6066L17.5969 20.6026L7.33142 2.82229L5.94675 5.22061ZM4.12988 8.36663L4.12684 8.37192L4.12395 8.37698L4.12113 8.382L4.11825 8.38716L4.11544 8.39223L4.11268 8.39729L4.10992 8.40237L4.10714 8.40755L4.10441 8.41267L4.10175 8.41774L4.09909 8.42288L4.09645 8.428L4.09383 8.43314L4.09119 8.43836L4.0886 8.44353L4.08608 8.44861L4.08352 8.45387L4.081 8.45905L4.07852 8.46424L4.07606 8.46942L4.07362 8.47464L4.07118 8.47991L4.06882 8.48503L4.06644 8.49027L4.06406 8.49555L4.0617 8.50086L4.05942 8.50608L4.05715 8.51132L4.05489 8.51657L4.05265 8.52185L4.05041 8.52717L4.04823 8.53244L4.04605 8.53778L4.04392 8.54305L4.0418 8.54835L4.03968 8.55369L4.0376 8.55898L4.03555 8.56436L4.03349 8.5697L4.03149 8.57503L4.02952 8.58035L4.02756 8.58566L4.02563 8.59104L4.02369 8.59644L4.02179 8.60179L4.01992 8.60721L4.01804 8.61262L4.01623 8.61796L4.01443 8.62337L4.01264 8.62879L4.01088 8.63417L4.00915 8.63958L4.00742 8.64502L4.00574 8.65041L4.00407 8.65585L4.00241 8.6613L4.00078 8.66674L3.99919 8.67221L3.99762 8.67759L3.99606 8.68308L3.99451 8.68854L3.99302 8.69399L3.99151 8.69949L3.99005 8.70496L3.98862 8.7104L3.98719 8.71595L3.98578 8.72143L3.98443 8.72688L3.98308 8.73236L3.98174 8.73787L3.98043 8.74339L3.97914 8.74892L3.97787 8.75442L3.97664 8.75991L3.97543 8.76543L3.97424 8.771L3.97305 8.77652L3.97192 8.78203L3.97079 8.7876L3.96969 8.79312L3.96862 8.79863L3.96757 8.80419L3.96652 8.80976L3.96551 8.81528L3.96452 8.82089L3.96356 8.82642L3.96261 8.83196L3.96168 8.83759L3.96079 8.84309L3.95993 8.84868L3.95906 8.85426L3.95825 8.85979L3.95745 8.86542L3.95664 8.871L3.95589 8.87659L3.95515 8.88215L3.95444 8.88774L3.95373 8.89334L3.95307 8.89893L3.95242 8.90454L3.9518 8.91012L3.95119 8.91575L3.95063 8.92132L3.95006 8.9269L3.94952 8.93255L3.94902 8.93817L3.94853 8.94376L3.94807 8.94937L3.94762 8.95493L3.9472 8.96056L3.9468 8.96622L3.94643 8.97181L3.94607 8.97742L3.94575 8.98304L3.94545 8.98865L3.94516 8.99428L3.9449 8.9999L3.94466 9.00555L3.94444 9.01115L3.94426 9.01674L3.94408 9.02239L3.94393 9.02801L3.94381 9.03366L3.94371 9.03926L3.94363 9.04489L3.94357 9.0505L3.94355 9.0561L3.94353 9.06177L3.94355 9.06738L3.94357 9.07298L3.94363 9.07865L3.94371 9.08425L3.94381 9.08986L3.94395 9.09549L3.9441 9.10113L3.94426 9.10676L3.94446 9.11237L3.94468 9.11797L3.94492 9.12362L3.94518 9.12924L3.94547 9.13483L3.94577 9.14046L3.94611 9.1461L3.94645 9.15169L3.94684 9.15732L3.94724 9.16294L3.94764 9.16855L3.94809 9.17413L3.94857 9.17974L3.94906 9.18537L3.94956 9.19099L3.9501 9.1966L3.95065 9.20216L3.95123 9.20777L3.95184 9.21338L3.95246 9.219L3.95311 9.22457L3.95379 9.23015L3.95448 9.23574L3.95521 9.24137L3.95595 9.24695L3.9567 9.2525L3.95749 9.25808L3.95829 9.26365L3.95914 9.26926L3.95999 9.27484L3.96085 9.28039L3.96176 9.28595L3.96269 9.29152L3.96362 9.29708L3.9646 9.30267L3.96559 9.30824L3.96658 9.31372L3.96763 9.31929L3.9687 9.32487L3.96977 9.33038L3.97088 9.33592L3.972 9.34147L3.97315 9.34697L3.97432 9.35256L3.97551 9.35805L3.97672 9.36355L3.97797 9.36908L3.97922 9.37456L3.98054 9.38013L3.98183 9.38563L3.98316 9.3911L3.98451 9.39658L3.9859 9.40211L3.98729 9.40761L3.9887 9.41306L3.99015 9.41854L3.99163 9.42401L3.99312 9.42947L3.99463 9.43496L3.99616 9.44042L3.99772 9.44587L3.99929 9.45129L4.0009 9.45676L4.00254 9.46218L4.00419 9.46765L4.00586 9.47309L4.00754 9.47848L4.00925 9.48388L4.01101 9.48932L4.01276 9.49471L4.01455 9.50013L4.01637 9.50554L4.01818 9.51088L4.02006 9.51631L4.02194 9.52171L4.02381 9.52703L4.02573 9.5324L4.02768 9.53776L4.02966 9.54315L4.03164 9.54847L4.03365 9.55383L4.03569 9.55914L4.03775 9.56444L4.03984 9.56981L4.04194 9.57515L4.04406 9.58043L4.0462 9.58572L4.04839 9.59106L4.05059 9.59632L4.05279 9.60159L4.05505 9.60691L4.05731 9.61215L4.05957 9.61738L4.06192 9.6227L4.06424 9.62794L4.06658 9.63317L4.06894 9.63837L4.07134 9.64357L4.07376 9.64878L4.07624 9.65406L4.0787 9.65926L4.08118 9.66442L4.0837 9.66961L4.08622 9.67477L4.08883 9.68001L4.09141 9.68519L4.09397 9.69028L4.09659 9.6954L4.09927 9.7006L4.10195 9.70574L4.10462 9.71081L4.10734 9.71593L4.11012 9.72111L4.11284 9.72613L4.11565 9.73121L4.11845 9.7363L4.12129 9.7414L4.12416 9.74648L4.12704 9.75152L4.13008 9.75684L4.27897 10.0145L4.44612 10.3038L4.62986 10.6219L4.82871 10.9661L5.04116 11.334L5.26573 11.7228L5.74521 12.5532L6.25517 13.4364L6.78363 14.3517L7.31861 15.2784L7.84813 16.1956L8.3602 17.0827L8.84289 17.9189L9.67207 19.3554L10.2399 20.339L10.3809 20.5835L13.2568 20.5949L5.16363 6.57682L4.12988 8.36663ZM-0.339763 16.1091L-0.546564 20.5574L8.91244 20.5798L2.99575 10.3319L-0.339763 16.1091ZM9.26873 -0.533215L8.06457 1.55243L19.0441 20.5693L20.3769 20.5586L20.3003 17.7753L9.72964 -0.533416L9.26873 -0.533215ZM20.6762 16.3707L10.7779 -0.773611L20.537 -0.799988L20.6762 16.3707ZM11.1964 -0.532751L20.4267 15.4547L20.2971 -0.557353L11.1964 -0.532751Z" fill="url(#paint1_linear)"/>
</g>
<defs>
<radialGradient id="paint0_radial" cx="0" cy="0" r="1" gradientUnits="userSpaceOnUse" gradientTransform="translate(15.3321 -3.80933) scale(23.9559 23.9557)">
<stop stop-color="#FFAE71"/>
<stop offset="1" stop-color="#FF9350"/>
</radialGradient>
<linearGradient id="paint1_linear" x1="28.0819" y1="-0.0193297" x2="28.0819" y2="20.1465" gradientUnits="userSpaceOnUse">
<stop stop-color="#FFBC8F"/>
<stop offset="1" stop-color="#FFA16B"/>
</linearGradient>
</defs>
</svg>
