<svg width="16" height="16" viewBox="0 0 16 16" fill="none" xmlns="http://www.w3.org/2000/svg">
<g clip-path="url(#clip0_1447_1830)">
<path d="M13.9082 16H11.2739L4.6229 4.43667L5.90068 2.24113L13.9082 16Z" fill="#FF00FF"/>
<path d="M14.6051 16L6.24911 1.64248L7.20502 0H7.92621L16 13.8726V16H14.6051Z" fill="#FF00FF"/>
<path d="M16 12.675L8.62324 0H16V12.675Z" fill="#FF00FF"/>
<path d="M7.0336 16H0V12.9213L0.00880781 12.7334L2.57063 8.33156L7.0336 16Z" fill="#FF00FF"/>
<path d="M10.5782 16H7.94529L3.28081 7.98545L3.2782 7.98094L3.27302 7.9719L3.27047 7.96736L3.26794 7.96282L3.26543 7.95826L3.26294 7.95371L3.26046 7.94915L3.25801 7.94457L3.25558 7.93999L3.25317 7.9354L3.25078 7.9308L3.24841 7.92619L3.24606 7.92158L3.24373 7.91696L3.24143 7.91233L3.23913 7.90771L3.23687 7.90307L3.23463 7.89841L3.2324 7.89376L3.2302 7.8891L3.228 7.88443L3.22584 7.87976L3.22369 7.87507L3.22157 7.87039L3.21946 7.86569L3.21739 7.86099L3.21533 7.85628L3.21328 7.85157L3.21125 7.84685L3.20926 7.84212L3.20729 7.83738L3.20532 7.83264L3.20339 7.8279L3.20147 7.82314L3.19956 7.81839L3.19769 7.81363L3.19583 7.80885L3.194 7.80409L3.19219 7.7993L3.19039 7.79452L3.18861 7.78972L3.18686 7.78493L3.18513 7.78012L3.18341 7.77531L3.18172 7.7705L3.18005 7.76568L3.17839 7.76085L3.17676 7.75603L3.17515 7.7512L3.17356 7.74636L3.17199 7.74151L3.17044 7.73667L3.16891 7.73181L3.16741 7.72696L3.16592 7.72209L3.16445 7.71722L3.16301 7.71235L3.16158 7.70748L3.16017 7.70259L3.15878 7.6977L3.15742 7.69282L3.15607 7.68793L3.15475 7.68303L3.15345 7.67813L3.15217 7.67321L3.14966 7.66339L3.14724 7.65356L3.14606 7.64863L3.1449 7.6437L3.14376 7.63876L3.14264 7.63383L3.14154 7.62889L3.14047 7.62395L3.13942 7.61901L3.13838 7.61406L3.13736 7.6091L3.13637 7.60415L3.13539 7.59919L3.13443 7.59422L3.1335 7.58926L3.13259 7.5843L3.13169 7.57932L3.13082 7.57434L3.12997 7.56938L3.12914 7.5644L3.12833 7.55941L3.12754 7.55443L3.12677 7.54943L3.12602 7.54446L3.12529 7.53946L3.12458 7.53447L3.12322 7.52448L3.12195 7.51448L3.12135 7.50947L3.12076 7.50446L3.1202 7.49945L3.11966 7.49444L3.11913 7.48944L3.11862 7.48443L3.11814 7.47942L3.11767 7.47439L3.11724 7.46938L3.11682 7.46436L3.11642 7.45935L3.11603 7.45433L3.11568 7.4493L3.11534 7.44428L3.11472 7.43423L3.11419 7.42418L3.11396 7.41916L3.11374 7.41413L3.11354 7.40911L3.11337 7.40407L3.11321 7.39904L3.11307 7.39402L3.11297 7.38898L3.11287 7.38396L3.1128 7.37892L3.11275 7.37389L3.11272 7.36885L3.1127 7.36383L3.11272 7.3588L3.11275 7.35376L3.1128 7.34874L3.11286 7.3437L3.11295 7.33868L3.1132 7.32861L3.11335 7.32359L3.11352 7.31855L3.11373 7.31352L3.11394 7.3085L3.11417 7.30348L3.11442 7.29845L3.1147 7.29343L3.115 7.2884L3.11532 7.28338L3.11566 7.27835L3.11602 7.27333L3.11639 7.26831L3.11679 7.26328L3.11721 7.25827L3.11764 7.25325L3.11811 7.24824L3.11859 7.24323L3.11961 7.2332L3.12015 7.22819L3.1213 7.21819L3.1219 7.21318L3.12317 7.20317L3.12384 7.19818L3.12523 7.18819L3.12596 7.1832L3.12748 7.17323L3.12827 7.16824L3.12907 7.16326L3.12991 7.15828L3.13076 7.1533L3.13163 7.14834L3.13253 7.14336L3.13344 7.1384L3.13437 7.13343L3.13532 7.12847L3.13629 7.12351L3.13728 7.11855L3.1383 7.1136L3.13934 7.10865L3.1404 7.1037L3.14146 7.09876L3.14256 7.09382L3.14368 7.08888L3.14483 7.08394L3.14599 7.07901L3.14716 7.0741L3.14836 7.06916L3.14958 7.06425L3.15082 7.05935L3.15207 7.05443L3.15336 7.04953L3.15466 7.04463L3.15598 7.03972L3.15732 7.03482L3.15869 7.02994L3.16007 7.02505L3.16148 7.02017L3.1629 7.0153L3.16434 7.01042L3.16581 7.00555L3.1673 7.00068L3.1688 6.99583L3.17033 6.99097L3.17188 6.98613L3.17345 6.98128L3.17504 6.97644L3.17665 6.97161L3.17828 6.96677L3.17992 6.96195L3.18159 6.95714L3.18328 6.95231L3.185 6.94751L3.18674 6.94271L3.18849 6.93792L3.19025 6.93312L3.19205 6.92833L3.19386 6.92355L3.1957 6.91877L3.19756 6.91401L3.19944 6.90925L3.20133 6.90448L3.20325 6.89974L3.20518 6.89499L3.20715 6.89024L3.20912 6.88551L3.21112 6.88079L3.21314 6.87606L3.21517 6.87134L3.21723 6.86664L3.22142 6.85724L3.22354 6.85255L3.22569 6.84787L3.22784 6.84319L3.23003 6.83852L3.23446 6.82921L3.2367 6.82456L3.23898 6.81992L3.24126 6.81529L3.24356 6.81065L3.24589 6.80604L3.24824 6.80143L3.25061 6.79682L3.253 6.79223L3.25541 6.78764L3.25784 6.78306L3.26029 6.77848L3.26275 6.77391L3.26525 6.76935L3.26776 6.7648L3.2703 6.76026L3.27285 6.75572L3.27542 6.75119L3.27801 6.74667L3.28063 6.74216L4.23568 5.10177L10.5782 16Z" fill="#FF00FF"/>
</g>
<defs>
<clipPath id="clip0_1447_1830">
<rect width="16" height="16" fill="white"/>
</clipPath>
</defs>
</svg>
