<svg width="20" height="20" viewBox="0 0 20 20" fill="none" xmlns="http://www.w3.org/2000/svg">
<path fill-rule="evenodd" clip-rule="evenodd" d="M18.4998 0H19.3998H19.4C19.726 0 19.9917 0.260643 19.9998 0.584737C19.9999 0.589807 20 0.5949 20 0.600001V12.3799V13.1598V19.4C20 19.7312 19.7311 20 19.4 20H0.6C0.584469 20 0.569075 19.9994 0.553839 19.9983C0.263067 19.9761 0.0299488 19.7463 0.00266974 19.4569C0.00243941 19.4545 0.00222375 19.452 0.00202286 19.4496C0.000683107 19.4333 0 19.4167 0 19.4V15.0686V0.600001C0 0.268869 0.268868 0 0.6 0H8.69991H18.4998ZM1 13.3366V18.46C1 18.6292 1.07796 18.7803 1.19987 18.8793L7.74992 7.53432H4.34996L1 13.3366ZM11.5697 19H2.02482L6.79993 10.7386L11.5697 19ZM12.4697 19H18.46C18.758 19 19 18.758 19 18.46V13.1598H9.09791L12.4697 19ZM19 12.3799V1.54C19 1.35603 18.9078 1.19341 18.7671 1.09589L12.2523 12.3799H19ZM17.9225 1H8.47727L13.1999 9.17976L17.9225 1ZM10.8593 7.52024C11.1555 7.52148 11.4389 7.69556 11.5921 7.95354L11.5967 7.96142L12.4957 9.51867L12.5033 9.53158C12.6503 9.78863 12.6559 10.1125 12.5091 10.3743C12.3103 10.7219 12.1096 11.0685 11.9089 11.4151C11.8052 11.5941 11.7015 11.7731 11.5981 11.9523C11.4489 12.2081 11.1665 12.375 10.8665 12.3788C10.3092 12.3811 9.2067 12.3799 9.14685 12.3799H9.14629L9.14431 12.3799C8.84811 12.3786 8.56011 12.2206 8.40692 11.9626L8.39692 11.9456L7.49572 10.3846C7.34873 10.1275 7.34893 9.79541 7.49572 9.53368L7.50233 9.52213C7.50233 9.52213 8.10412 8.47781 8.40552 7.95564C8.55471 7.69982 8.83751 7.52382 9.13751 7.52006L9.15251 7.51982L10.8491 7.52024H10.8593ZM10.8999 6.75491H4.79995L7.84992 1.47222L10.8999 6.75491Z" fill="#FF00FF"/>
</svg>
