<svg width="16" height="16" viewBox="0 0 16 16" fill="none" xmlns="http://www.w3.org/2000/svg">
<g clip-path="url(#clip0_1447_3101)">
<path fill-rule="evenodd" clip-rule="evenodd" d="M16 0.48C16 0.215095 15.7849 0 15.52 0H0.48C0.215095 0 0 0.215095 0 0.48V15.52C0 15.7849 0.215095 16 0.48 16H15.52C15.7849 16 16 15.7849 16 15.52V0.48Z" fill="#7E4DD2"/>
<mask id="mask0_1447_3101" style="mask-type:alpha" maskUnits="userSpaceOnUse" x="0" y="0" width="16" height="16">
<path fill-rule="evenodd" clip-rule="evenodd" d="M16 0.48C16 0.215095 15.7849 0 15.52 0H0.48C0.215095 0 0 0.215095 0 0.48V15.52C0 15.7849 0.215095 16 0.48 16H15.52C15.7849 16 16 15.7849 16 15.52V0.48Z" fill="white"/>
</mask>
<g mask="url(#mask0_1447_3101)">
<path fill-rule="evenodd" clip-rule="evenodd" d="M15.9797 0.495481C15.9797 0.23084 15.7648 0.0159607 15.5001 0.0159607H6.54907L-0.00439453 11.3669V15.5204C-0.00439453 15.7851 0.210486 16 0.475127 16H15.5001C15.7648 16 15.9797 15.7851 15.9797 15.5204V0.495481Z" fill="#7140C2"/>
<path fill-rule="evenodd" clip-rule="evenodd" d="M16.1866 10.1172V-0.190765H15.3811L9.4297 10.1172H16.1866ZM8.68055 5.83077C8.9879 5.83461 9.28104 6.00316 9.43882 6.26858C9.60207 6.54858 9.76376 6.82948 9.92544 7.11037L9.92551 7.11048C10.0063 7.25089 10.0872 7.39131 10.1682 7.53161C10.3158 7.79035 10.3269 8.12284 10.1822 8.39371C10.1787 8.40025 10.1752 8.40671 10.1715 8.41321C10.0087 8.69807 9.8443 8.98193 9.67985 9.2658L9.67982 9.26584L9.6798 9.26588L9.67978 9.26592C9.60056 9.40265 9.52135 9.53939 9.44232 9.67624C9.29112 9.93586 9.0047 10.1071 8.70274 10.1172C8.69539 10.1174 8.6807 10.1172 8.6807 10.1172H7.31356H7.30175C7.00031 10.1159 6.70809 9.95786 6.54843 9.70134C6.54487 9.69578 6.54148 9.69014 6.53809 9.68449L6.53677 9.68229C6.37537 9.40528 6.21544 9.12743 6.05551 8.84957L6.05488 8.84847L6.05468 8.84813L6.05448 8.84779C5.97224 8.70491 5.89 8.56203 5.80756 8.41926C5.65842 8.15827 5.65122 7.82346 5.79334 7.55708L5.80405 7.53763C5.96108 7.26281 6.11974 6.98893 6.27839 6.71507C6.36342 6.56829 6.44845 6.42151 6.53323 6.2746C6.68428 6.01557 6.97103 5.84129 7.27281 5.83125L7.29503 5.83077C7.75698 5.82882 8.21875 5.82882 8.68055 5.83077ZM-0.208353 16.2066H0.557109V16.2066C1.55386 14.4803 2.55098 12.7537 3.54809 11.0271L3.55118 11.0217L3.55426 11.0164L3.55734 11.011C4.55476 9.28391 5.55218 7.55677 6.54925 5.82985H3.35244L-0.210938 12.0036L-0.208353 16.2066ZM10.0617 16.2066H0.793991L5.43047 8.18507L10.0617 16.2066ZM16.1801 16.2055L10.3037 16.2068L6.90854 10.3263H16.1887C16.1876 11.2959 16.186 12.2664 16.1845 13.2368V13.2368V13.2369V13.2369V13.2369V13.2369C16.1828 14.2267 16.1812 15.2165 16.1801 16.2055ZM10.5452 7.76594L6.39048 0.569674L6.82958 -0.190765H15.1391L10.5452 7.76594ZM3.47389 5.62128L9.06672 5.62217C8.61429 4.83859 8.1615 4.05478 7.70871 3.27096C7.22884 2.44027 6.74897 1.60958 6.26951 0.779128L3.47389 5.62128Z" fill="#58328A"/>
<path fill-rule="evenodd" clip-rule="evenodd" d="M0.437565 16H-0.00199692L-0.00439453 12.059L3.47214 6.03747H6.18943L0.437565 16ZM15.9798 10.5335V16L10.4228 16L7.26675 10.5335H15.9798ZM9.70352 16H1.15205L5.43018 8.59835L9.70352 16ZM15.9798 9.91008H9.78776L15.5001 0.0159607H15.9797L15.9798 9.91008ZM8.67447 6.02622C8.91119 6.02721 9.13769 6.16633 9.26012 6.37251C9.2614 6.37461 9.2638 6.37881 9.2638 6.37881L9.98228 7.62339C9.98228 7.62339 9.98644 7.63034 9.98836 7.6337C10.1058 7.83914 10.1103 8.09802 9.99299 8.3072C9.75211 8.7286 9.50756 9.14799 9.26492 9.56838C9.14568 9.77284 8.91998 9.90622 8.68022 9.90921C8.2226 9.91113 7.30511 9.91007 7.30383 9.91007C7.06711 9.90908 6.83694 9.78279 6.7145 9.57662C6.71179 9.57214 6.70651 9.56303 6.70651 9.56303C6.70651 9.56303 5.98787 8.31832 5.98627 8.31543C5.86879 8.10999 5.86895 7.84456 5.98627 7.63538L5.99154 7.62615C5.99154 7.62615 6.4725 6.79152 6.71338 6.37419C6.83262 6.16974 7.05864 6.02908 7.2984 6.02607C7.3024 6.02606 7.31039 6.02588 7.31039 6.02588L8.66632 6.02622H8.67447ZM6.94867 0.0159607H14.7809L10.5451 7.35252L6.62899 0.569663L6.94867 0.0159607ZM8.70691 5.41456H3.83178L6.26935 1.19257L8.70691 5.41456Z" fill="url(#paint0_radial_1447_3101)"/>
<path fill-rule="evenodd" clip-rule="evenodd" d="M0.0551046 16.6628L-0.376465 16.6491L-0.37135 12.695L3.47234 6.03746H6.18963L0.0551046 16.6628ZM10.0634 16.6229L0.82154 16.5722L5.43038 8.59834L10.0634 16.6229ZM16.3202 16.5991L10.7472 16.5613L7.26695 10.5334H16.3413L16.3202 16.5991ZM3.58311 6.22927L-0.179701 12.7466L-0.184496 16.4634L-0.053587 16.4675L5.85748 6.22927H3.58311ZM1.15289 16.3823L9.73009 16.4293L5.43038 8.9818L1.15289 16.3823ZM7.5991 10.7253L10.8584 16.3703L16.129 16.406L16.1486 10.7253H7.5991ZM8.66651 6.02621H8.67467L8.67754 6.02623L8.68026 6.02626L8.68298 6.02631L8.68585 6.02635L8.68857 6.02643L8.69129 6.02651L8.69401 6.02661L8.69688 6.02671L8.6996 6.02683L8.70232 6.02696L8.7052 6.0271L8.70791 6.02725L8.71063 6.02742L8.71335 6.0276L8.71622 6.02779L8.71894 6.028L8.72166 6.02822L8.72438 6.02845L8.72725 6.02869L8.72997 6.02894L8.73269 6.0292L8.7354 6.02949L8.73812 6.02977L8.741 6.03008L8.74372 6.03038L8.74643 6.03072L8.74915 6.03105L8.75187 6.0314L8.75459 6.03176L8.7573 6.03214L8.76002 6.03252L8.76274 6.03292L8.76817 6.03375L8.77361 6.03463L8.77904 6.03554L8.78448 6.03652L8.78991 6.03754L8.79535 6.0386L8.80078 6.03972L8.80605 6.04087L8.81149 6.04207L8.81692 6.04331L8.8222 6.04461L8.82763 6.04595L8.83291 6.04732L8.83818 6.04876L8.84346 6.05023L8.84889 6.05174L8.85417 6.0533L8.85944 6.0549L8.86472 6.05655L8.86983 6.05824L8.87511 6.05998L8.88038 6.06176L8.8855 6.06358L8.89077 6.06543L8.89588 6.06734L8.901 6.06929L8.90627 6.07128L8.91139 6.07331L8.9165 6.07539L8.92162 6.0775L8.92657 6.07966L8.93169 6.08185L8.9368 6.08409L8.94176 6.08637L8.94687 6.08869L8.95183 6.09104L8.95678 6.09344L8.96174 6.09588L8.96669 6.09836L8.97165 6.10087L8.9766 6.10343L8.9814 6.10603L8.98635 6.10867L8.99115 6.11134L8.99594 6.11404L9.00074 6.11679L9.00554 6.11959L9.01033 6.12242L9.01513 6.12528L9.01976 6.12817L9.02456 6.13111L9.02919 6.13409L9.03383 6.13709L9.03846 6.14014L9.0431 6.14323L9.04773 6.14635L9.05221 6.14951L9.05684 6.15269L9.06132 6.15592L9.06579 6.1592L9.07027 6.16249L9.07475 6.16581L9.07922 6.16919L9.08354 6.17259L9.08801 6.17603L9.09233 6.1795L9.09664 6.183L9.10096 6.18655L9.10528 6.19011L9.10943 6.19372L9.11375 6.19735L9.1179 6.20103L9.12206 6.20474L9.12621 6.20846L9.13037 6.21223L9.13437 6.21604L9.13852 6.21987L9.14252 6.22372L9.14651 6.22762L9.15051 6.23156L9.15435 6.2355L9.15834 6.2395L9.16218 6.24353L9.16602 6.24757L9.16985 6.25165L9.17353 6.25576L9.17736 6.2599L9.18104 6.26407L9.18472 6.26827L9.18839 6.27249L9.19207 6.27676L9.19575 6.28104L9.19926 6.28536L9.20278 6.28971L9.2063 6.29407L9.20965 6.29847L9.21317 6.30289L9.21653 6.30735L9.21988 6.31183L9.22324 6.31635L9.22659 6.32087L9.22979 6.32545L9.23299 6.33003L9.23619 6.33465L9.23938 6.33929L9.24242 6.34396L9.24546 6.34866L9.24849 6.35337L9.25153 6.35812L9.25457 6.3629L9.25744 6.36769L9.26032 6.3725L9.264 6.3788L9.98248 7.62338L9.98855 7.63369L9.99127 7.63852L9.99399 7.64336L9.99655 7.64822L9.9991 7.65311L10.0018 7.658L10.0042 7.66292L10.0068 7.66786L10.0092 7.67282L10.0116 7.67779L10.014 7.68278L10.0162 7.68778L10.0186 7.6928L10.0208 7.69783L10.0229 7.70288L10.0252 7.70795L10.0272 7.71303L10.0293 7.71813L10.0314 7.72325L10.0333 7.72838L10.0352 7.73351L10.0371 7.73867L10.0391 7.74383L10.0408 7.74901L10.0426 7.75421L10.0443 7.75942L10.0461 7.76463L10.0477 7.76986L10.0493 7.7751L10.0509 7.78036L10.0523 7.78562L10.0539 7.79089L10.0554 7.79618L10.0566 7.80147L10.0581 7.80678L10.0594 7.8121L10.0606 7.81742L10.0619 7.82275L10.063 7.8281L10.0642 7.83344L10.0653 7.8388L10.0664 7.84417L10.0674 7.84954L10.0683 7.85492L10.0693 7.86031L10.0701 7.8657L10.071 7.8711L10.0718 7.8765L10.0725 7.88192L10.0733 7.88734L10.0739 7.89276L10.0745 7.89819L10.0752 7.90361L10.0757 7.90905L10.0761 7.9145L10.0766 7.91993L10.0771 7.92538L10.0774 7.93083L10.0777 7.93628L10.0781 7.94173L10.0784 7.9472L10.0785 7.95265L10.0787 7.95812L10.0789 7.96358V7.98543L10.0787 7.9909V7.99635L10.0784 8.00182L10.0782 8.00728L10.0779 8.01273L10.0776 8.0182L10.0773 8.02365L10.0769 8.0291L10.0765 8.03455L10.076 8.04L10.0755 8.04545L10.0749 8.0509L10.0742 8.05634L10.0736 8.06177L10.073 8.06719L10.0722 8.07263L10.0714 8.07804L10.0706 8.08346L10.0696 8.08887L10.0688 8.09427L10.0678 8.09967L10.0667 8.10506L10.0658 8.11044L10.0646 8.11583L10.0635 8.1212L10.0622 8.12656L10.0611 8.13191L10.0598 8.13727L10.0586 8.1426L10.0571 8.14793L10.0557 8.15325L10.0542 8.15856L10.0528 8.16386L10.0512 8.16915L10.0498 8.17443L10.048 8.1797L10.0464 8.18496L10.0447 8.1902L10.0429 8.19545L10.0411 8.20067L10.0394 8.20588L10.0375 8.21109L10.0355 8.21627L10.0335 8.22145L10.0316 8.22662L10.0295 8.23176L10.0274 8.23689L10.0252 8.24202L10.0231 8.24712L10.0207 8.25222L10.0184 8.25731L10.0162 8.26236L10.0138 8.26741L10.0114 8.27244L10.0089 8.27746L10.0065 8.28245L10.0039 8.28743L10.0012 8.29239L9.99862 8.29735L9.99591 8.30227L9.99319 8.30719L9.97065 8.34669L9.94796 8.38617L9.92542 8.42565L9.90272 8.46513L9.88002 8.50458L9.85733 8.54403L9.83463 8.58347L9.81193 8.62291L9.78923 8.66234L9.76654 8.70176L9.72098 8.78057L9.67543 8.85937L9.62987 8.93816L9.58416 9.01693L9.5386 9.0957L9.44734 9.25322L9.40178 9.33199L9.35623 9.41077L9.31067 9.48956L9.26512 9.56838L9.26224 9.57316L9.25936 9.5779L9.25648 9.58263L9.25361 9.58733L9.25073 9.592L9.24769 9.59665L9.24466 9.60127L9.24146 9.60586L9.23842 9.61043L9.23523 9.61497L9.23203 9.61948L9.22883 9.62395L9.22564 9.62841L9.22228 9.63284L9.21892 9.63724L9.21557 9.6416L9.21221 9.64593L9.20869 9.65025L9.20534 9.65453L9.20182 9.65878L9.1983 9.663L9.19463 9.66719L9.19111 9.67136L9.18743 9.67549L9.18376 9.67959L9.18008 9.68367L9.1764 9.68771L9.17257 9.69173L9.16873 9.69571L9.1649 9.69965L9.16106 9.70357L9.15722 9.70747L9.15323 9.71132L9.14923 9.71514L9.1454 9.71893L9.14124 9.7227L9.13724 9.72643L9.13325 9.73012L9.12909 9.7338L9.12494 9.73742L9.12078 9.74102L9.11662 9.74458L9.11247 9.74812L9.10815 9.75162L9.104 9.75509L9.09968 9.75851L9.09537 9.76191L9.09089 9.76527L9.08657 9.76861L9.0821 9.7719L9.07778 9.77516L9.07331 9.77839L9.06883 9.78159L9.06436 9.78474L9.05988 9.78785L9.05525 9.79094L9.05061 9.79399L9.04613 9.79701L9.0415 9.79998L9.03686 9.80293L9.03207 9.80583L9.02743 9.80871L9.0228 9.81154L9.018 9.81434L9.01321 9.8171L9.00841 9.81982L9.00362 9.82251L8.99882 9.82516L8.99403 9.82777L8.98907 9.83034L8.98428 9.83288L8.97932 9.83537L8.97437 9.83784L8.96941 9.84025L8.96446 9.84263L8.9595 9.84498L8.95455 9.84728L8.94943 9.84955L8.94448 9.85177L8.93936 9.85396L8.93425 9.8561L8.92913 9.85821L8.92402 9.86028L8.9189 9.86231L8.91379 9.86429L8.90867 9.86624L8.90356 9.86814L8.89828 9.87001L8.89301 9.87183L8.88789 9.87362L8.88262 9.87537L8.87734 9.87706L8.87207 9.87872L8.86679 9.88034L8.86152 9.8819L8.85624 9.88344L8.85081 9.88494L8.84554 9.88638L8.8401 9.88778L8.83483 9.88914L8.82939 9.89047L8.82396 9.89175L8.81868 9.89298L8.81325 9.89416L8.80781 9.89531L8.80238 9.89642L8.79694 9.89747L8.79151 9.89848L8.78591 9.89945L8.78048 9.90038L8.77505 9.90126L8.76945 9.90209L8.76402 9.90287L8.75842 9.90363L8.75299 9.90433L8.74739 9.90498L8.7418 9.90559L8.73636 9.90615L8.73077 9.90666L8.72517 9.90714L8.71958 9.90756L8.71399 9.90794L8.70839 9.90826L8.7028 9.90855L8.6972 9.90879L8.69161 9.90898L8.68601 9.90912L8.68042 9.9092L8.63614 9.90938L8.58947 9.90954L8.54072 9.90967L8.48989 9.90979L8.43746 9.90991L8.3836 9.91L8.32845 9.91008L8.27251 9.91015L8.1587 9.91026L8.0441 9.91032L7.93093 9.91035H7.82112L7.71658 9.91034L7.6194 9.91031L7.53165 9.91026L7.45524 9.91019L7.34479 9.91012L7.30403 9.91007L7.29844 9.91002L7.293 9.90992L7.28741 9.90979L7.28182 9.9096L7.27638 9.90938L7.27079 9.90911L7.26535 9.90879L7.25976 9.90842L7.25432 9.90802L7.24873 9.90756L7.24329 9.90706L7.2377 9.90652L7.23226 9.90594L7.22683 9.9053L7.22124 9.90463L7.2158 9.90391L7.21037 9.90315L7.20493 9.90235L7.19934 9.9015L7.1939 9.9006L7.18847 9.89966L7.18303 9.89869L7.17776 9.89766L7.17232 9.89659L7.16689 9.89549L7.16146 9.89434L7.15602 9.89314L7.15075 9.89191L7.14531 9.89063L7.14004 9.8893L7.1346 9.88795L7.12933 9.88654L7.12405 9.8851L7.11878 9.88361L7.1135 9.88208L7.10807 9.88051L7.10279 9.8789L7.09768 9.87725L7.0924 9.87556L7.08713 9.87381L7.08201 9.87204L7.07674 9.87022L7.07147 9.86836L7.06635 9.86648L7.06124 9.86454L7.05612 9.86256L7.05101 9.86055L7.04589 9.85849L7.04078 9.85639L7.03566 9.85425L7.03071 9.85208L7.02559 9.84987L7.02064 9.84762L7.01552 9.84531L7.01057 9.843L7.00561 9.84062L7.00066 9.83822L6.9957 9.83577L6.99075 9.83328L6.98595 9.83075L6.981 9.8282L6.9762 9.82559L6.97141 9.82295L6.96661 9.82028L6.96181 9.81757L6.95702 9.81482L6.95222 9.81204L6.94743 9.80921L6.94279 9.80635L6.93816 9.80345L6.93336 9.80051L6.92873 9.79754L6.92425 9.79453L6.91962 9.79148L6.91498 9.78841L6.91051 9.7853L6.90603 9.78213L6.90139 9.77895L6.89708 9.77572L6.8926 9.77246L6.88813 9.76917L6.88381 9.76583L6.87934 9.76247L6.87502 9.75907L6.87071 9.75563L6.86639 9.75216L6.86223 9.74864L6.85792 9.74511L6.85376 9.74153L6.84961 9.73792L6.84545 9.73427L6.84129 9.7306L6.83714 9.72689L6.83314 9.72315L6.82915 9.71936L6.82515 9.71556L6.82116 9.71171L6.81716 9.70782L6.81332 9.70392L6.80949 9.69997L6.80565 9.69599L6.80181 9.69198L6.79798 9.68794L6.7943 9.68386L6.79047 9.67975L6.78679 9.67561L6.78311 9.67143L6.7796 9.66722L6.77592 9.66299L6.7724 9.65872L6.76889 9.65442L6.76537 9.65009L6.76201 9.64572L6.7585 9.64133L6.75514 9.6369L6.75178 9.63246L6.74859 9.62796L6.74523 9.62344L6.74203 9.6189L6.73884 9.61432L6.73564 9.60971L6.73404 9.60739L6.7326 9.60506L6.731 9.60274L6.72941 9.60039L6.72797 9.59806L6.72637 9.59569L6.72493 9.59334L6.72333 9.59096L6.72189 9.5886L6.72046 9.58622L6.71902 9.58382L6.71758 9.58142L6.71598 9.57902L6.7147 9.57661L6.70671 9.56302L5.98647 8.31542L5.98503 8.31301L5.98375 8.3106L5.98247 8.30817L5.98103 8.30574L5.97975 8.30331L5.97848 8.30088L5.97576 8.29599L5.9732 8.29108L5.9708 8.28614L5.96825 8.28119L5.96585 8.27621L5.96345 8.27123L5.96105 8.26622L5.95882 8.26119L5.95658 8.25615L5.95434 8.25109L5.9521 8.246L5.95002 8.2409L5.94795 8.23579L5.94587 8.23066L5.94395 8.22551L5.94187 8.22035L5.93995 8.21517L5.9382 8.20998L5.93628 8.20477L5.93452 8.19954L5.93276 8.1943L5.93116 8.18904L5.9294 8.18378L5.92781 8.17849L5.92621 8.1732L5.92477 8.16789L5.92333 8.16258L5.92189 8.15724L5.92045 8.15191L5.91901 8.14655L5.91774 8.14118L5.91646 8.13581L5.91534 8.13042L5.91406 8.12504L5.91294 8.11962L5.91182 8.11422L5.91086 8.10878L5.90974 8.10336L5.90879 8.09791L5.90799 8.09246L5.90703 8.08701L5.90623 8.08154L5.90543 8.07608L5.90463 8.0706L5.90399 8.06511L5.90335 8.05963L5.90271 8.05413L5.90207 8.04863L5.90159 8.04314L5.90095 8.03762L5.90063 8.03211L5.90015 8.02659L5.89983 8.02106L5.89951 8.01553L5.89919 8.01002L5.89903 8.00449L5.89888 7.99894L5.89872 7.99341L5.89856 7.98788V7.98233L5.8984 7.9768L5.89856 7.97126V7.96571L5.89872 7.96018L5.89888 7.95463L5.89903 7.94909L5.89919 7.94355L5.89951 7.93802L5.89983 7.93248L5.90015 7.92695L5.90063 7.92142L5.90111 7.91589L5.90159 7.91036L5.90207 7.90484L5.90271 7.89933L5.90335 7.89381L5.90399 7.8883L5.90463 7.88278L5.90543 7.87729L5.90623 7.87179L5.90703 7.8663L5.90799 7.86082L5.90895 7.85534L5.9099 7.84987L5.91086 7.84441L5.91198 7.83896L5.91294 7.8335L5.91422 7.82805L5.91534 7.82262L5.91662 7.8172L5.9179 7.81178L5.91917 7.80638L5.92045 7.80098L5.92189 7.79559L5.92333 7.79022L5.92477 7.78485L5.92637 7.7795L5.92797 7.77416L5.92956 7.76882L5.93116 7.76351L5.93292 7.7582L5.93468 7.7529L5.93644 7.74762L5.9382 7.74235L5.94011 7.73711L5.94203 7.73186L5.94395 7.72664L5.94603 7.72143L5.94811 7.71621L5.95018 7.71104L5.95226 7.70587L5.95434 7.70073L5.95658 7.69559L5.95882 7.69046L5.96121 7.68537L5.96345 7.68028L5.96585 7.67522L5.96825 7.67018L5.9708 7.66515L5.97336 7.66013L5.97592 7.65514L5.97848 7.65017L5.98103 7.64521L5.98375 7.64027L5.98647 7.63537L5.99174 7.62614L6.0707 7.48921L6.1567 7.34005L6.26235 7.15666L6.37936 6.9537L6.49924 6.74586L6.61352 6.5478L6.66579 6.45701L6.71358 6.37418L6.71646 6.3694L6.71934 6.36464L6.72221 6.35991L6.72509 6.35521L6.72813 6.35053L6.73116 6.34586L6.7342 6.34122L6.73724 6.33662L6.74028 6.33203L6.74347 6.32746L6.74667 6.32294L6.74987 6.31841L6.75322 6.31394L6.75642 6.30948L6.75978 6.30505L6.76313 6.30064L6.76665 6.29628L6.77001 6.29191L6.77352 6.2876L6.77704 6.2833L6.78056 6.27903L6.78407 6.27479L6.78775 6.27057L6.79126 6.26639L6.7951 6.26223L6.79878 6.25811L6.80245 6.25401L6.80629 6.24994L6.80997 6.24589L6.8138 6.24188L6.8178 6.2379L6.82163 6.23395L6.82547 6.23004L6.82947 6.22614L6.83346 6.22229L6.83746 6.21845L6.84161 6.21466L6.84561 6.21089L6.84977 6.20715L6.85376 6.20346L6.85808 6.19978L6.86223 6.19614L6.86639 6.19252L6.87071 6.18896L6.87486 6.18541L6.87918 6.18189L6.88349 6.17843L6.88781 6.17497L6.89228 6.17157L6.8966 6.1682L6.90107 6.16486L6.90555 6.16155L6.91003 6.15827L6.9145 6.15503L6.91898 6.15183L6.92361 6.14865L6.92825 6.14551L6.93272 6.14241L6.93736 6.13936L6.94199 6.13632L6.94679 6.13333L6.95143 6.13038L6.95622 6.12747L6.96086 6.12458L6.96565 6.12173L6.97045 6.11892L6.97524 6.11615L6.98004 6.11342L6.98499 6.11072L6.98979 6.10806L6.99474 6.10544L6.99954 6.10287L7.00449 6.10033L7.00945 6.09782L7.0144 6.09536L7.01936 6.09293L7.02447 6.09055L7.02943 6.0882L7.03454 6.08589L7.0395 6.08362L7.04461 6.0814L7.04973 6.07921L7.05484 6.07707L7.05996 6.07496L7.06507 6.0729L7.07035 6.07087L7.07546 6.06889L7.08074 6.06695L7.08585 6.06507L7.09113 6.06321L7.0964 6.06139L7.10168 6.05962L7.10695 6.05789L7.11222 6.05621L7.1175 6.05457L7.12277 6.05298L7.12805 6.05142L7.13348 6.04991L7.13876 6.04844L7.14419 6.04702L7.14963 6.04565L7.1549 6.04432L7.16034 6.04303L7.16577 6.04179L7.17121 6.0406L7.17664 6.03944L7.18207 6.03834L7.18751 6.03727L7.1931 6.03626L7.19854 6.03529L7.20397 6.03438L7.20957 6.0335L7.21228 6.03308L7.215 6.03268L7.21772 6.03228L7.2206 6.0319L7.22331 6.03153L7.22603 6.03116L7.22891 6.03081L7.23163 6.03048L7.23434 6.03016L7.23722 6.02984L7.23994 6.02955L7.24265 6.02926L7.24553 6.02898L7.24825 6.02872L7.25097 6.02846L7.25384 6.02822L7.25656 6.028L7.25944 6.02779L7.26216 6.02758L7.26503 6.02739L7.26775 6.02722L7.27063 6.02704L7.27334 6.0269L7.27622 6.02675L7.27894 6.02663L7.28182 6.02651L7.28453 6.0264L7.28741 6.02631L7.29013 6.02623L7.293 6.02616L7.29572 6.02611L7.2986 6.02607L7.30227 6.02603L7.30611 6.02597L7.31059 6.02587L8.66651 6.02621ZM16.3098 9.91007H9.78795L15.8296 -0.554356L16.3269 -0.584869L16.3098 9.91007ZM7.30979 6.21773L7.30483 6.21783L7.301 6.21786L7.29908 6.21789L7.29716 6.21792L7.29508 6.21797L7.29316 6.21803L7.29125 6.2181L7.28933 6.21816L7.28741 6.21824L7.28549 6.21834L7.28341 6.21843L7.2815 6.21855L7.27958 6.21866L7.27766 6.21879L7.27574 6.21891L7.27366 6.21906L7.27175 6.21922L7.26983 6.21936L7.26791 6.21954L7.26599 6.21971L7.26407 6.21989L7.262 6.22008L7.26008 6.22029L7.25816 6.2205L7.25624 6.22072L7.25432 6.22094L7.2524 6.22118L7.25033 6.22142L7.24841 6.22168L7.24649 6.22193L7.24457 6.22221L7.24265 6.22248L7.24074 6.22278L7.23898 6.22304L7.23482 6.22368L7.23099 6.22433L7.22715 6.22502L7.22331 6.22572L7.21948 6.22647L7.21548 6.22726L7.21165 6.22807L7.20781 6.22892L7.20397 6.22981L7.20014 6.23073L7.1963 6.23167L7.19246 6.23264L7.18863 6.23367L7.18479 6.23471L7.18112 6.23579L7.17728 6.2369L7.17344 6.23805L7.16961 6.23921L7.16577 6.24043L7.1621 6.24166L7.15826 6.24294L7.15458 6.24423L7.15075 6.24557L7.14691 6.24693L7.14323 6.24834L7.13956 6.24976L7.13572 6.25122L7.13204 6.25272L7.12837 6.25424L7.12469 6.2558L7.12102 6.25737L7.11734 6.25899L7.11366 6.26063L7.10999 6.26231L7.10631 6.26402L7.10263 6.26576L7.09896 6.26752L7.09544 6.26931L7.09176 6.27113L7.08825 6.27299L7.08457 6.27487L7.08106 6.27679L7.07754 6.27873L7.07402 6.28069L7.07035 6.28269L7.06683 6.28472L7.06331 6.28677L7.05996 6.28886L7.05644 6.29097L7.05292 6.2931L7.04957 6.29527L7.04605 6.29746L7.04269 6.29968L7.03934 6.30193L7.03598 6.3042L7.03262 6.30651L7.02927 6.30882L7.02591 6.31119L7.02255 6.31355L7.01936 6.31595L7.016 6.3184L7.0128 6.32084L7.00961 6.32332L7.00641 6.32583L7.00321 6.32836L7.00002 6.33091L6.99682 6.33349L6.99362 6.33609L6.99059 6.33871L6.98739 6.34137L6.98435 6.34404L6.98132 6.34674L6.97828 6.34947L6.97524 6.3522L6.97236 6.35495L6.96933 6.35775L6.96645 6.36055L6.96341 6.36338L6.96054 6.36624L6.95766 6.3691L6.95494 6.37201L6.95206 6.37492L6.94919 6.37784L6.94647 6.3808L6.94375 6.38379L6.94104 6.38676L6.93832 6.38978L6.9356 6.3928L6.93288 6.39586L6.93033 6.39894L6.92777 6.40204L6.92505 6.40514L6.92265 6.40828L6.9201 6.41141L6.91754 6.41456L6.91514 6.41774L6.91258 6.42094L6.91019 6.42416L6.90779 6.42739L6.90555 6.43064L6.90315 6.4339L6.90092 6.43718L6.89852 6.44047L6.89628 6.44378L6.89404 6.4471L6.89196 6.45044L6.88973 6.45378L6.88765 6.45717L6.88557 6.46054L6.88349 6.46393L6.88141 6.46735L6.87934 6.47076L6.83202 6.55288L6.7796 6.64364L6.66531 6.84168L6.54559 7.04951L6.42859 7.25244L6.32293 7.43582L6.23694 7.58499L6.15814 7.72163L6.15366 7.72953L6.1519 7.73269L6.14998 7.73621L6.14807 7.73973L6.14631 7.74329L6.14439 7.74686L6.14263 7.75044L6.14087 7.75403L6.13912 7.75763L6.13736 7.76127L6.13576 7.76492L6.134 7.76858L6.1324 7.77224L6.1308 7.77593L6.12936 7.77966L6.12777 7.78335L6.12633 7.78707L6.12473 7.79083L6.12329 7.79458L6.12201 7.79836L6.12057 7.80213L6.1193 7.80592L6.11786 7.80974L6.11658 7.81356L6.1153 7.81739L6.11418 7.82123L6.1129 7.82508L6.11178 7.82893L6.11066 7.83283L6.10954 7.83672L6.10843 7.84062L6.10731 7.84452L6.10635 7.84842L6.10539 7.85235L6.10443 7.8563L6.10347 7.86023L6.10267 7.86416L6.10171 7.86813L6.10091 7.87211L6.10011 7.87609L6.09932 7.88005L6.09868 7.88403L6.09788 7.88803L6.09724 7.89202L6.0966 7.89605L6.09596 7.90005L6.09532 7.90406L6.09484 7.90809L6.09436 7.9121L6.09388 7.91614L6.0934 7.92017L6.09292 7.9242L6.0926 7.92826L6.09212 7.9323L6.0918 7.93633L6.09148 7.94037L6.09132 7.94443L6.091 7.94848L6.09084 7.95254L6.09068 7.95658L6.09052 7.96064L6.09036 7.96469V7.97281L6.0902 7.97685L6.09036 7.98089V7.989L6.09052 7.99304L6.09068 7.99707L6.09084 8.00111L6.091 8.00516L6.09132 8.0092L6.09148 8.01323L6.0918 8.01726L6.09212 8.02129L6.09244 8.02528L6.09292 8.02929L6.0934 8.03331L6.09372 8.03732L6.0942 8.04131L6.09484 8.04528L6.09532 8.04927L6.09596 8.05324L6.09644 8.05722L6.09708 8.06118L6.09788 8.06513L6.09852 8.06906L6.09932 8.07301L6.09995 8.07694L6.10075 8.08084L6.10155 8.08474L6.10251 8.08864L6.10331 8.09254L6.10427 8.09643L6.10523 8.10029L6.10619 8.10413L6.10715 8.10798L6.10827 8.11182L6.10923 8.11564L6.11034 8.11944L6.11146 8.12325L6.11274 8.12704L6.11386 8.13079L6.11514 8.13456L6.11626 8.1383L6.11754 8.14205L6.11898 8.14577L6.12025 8.14946L6.12153 8.15314L6.12297 8.15681L6.12441 8.16049L6.12585 8.16413L6.12729 8.16775L6.12889 8.17136L6.13032 8.17497L6.13192 8.17855L6.13352 8.18212L6.13512 8.18567L6.13688 8.1892L6.13848 8.1927L6.14023 8.19621L6.14199 8.1997L6.14375 8.20315L6.14551 8.2066L6.14743 8.21023L6.14823 8.21172L6.14919 8.21343L6.15014 8.21514L6.1511 8.21683L6.15206 8.21853L6.15286 8.22003L6.87262 9.46678L6.87982 9.47914L6.88046 9.48032L6.88157 9.48203L6.88253 9.48371L6.88365 9.48539L6.88461 9.48707L6.88573 9.48873L6.88669 9.49039L6.88781 9.49207L6.88893 9.49373L6.89005 9.49539L6.89101 9.49704L6.89212 9.49867L6.89324 9.50032L6.8942 9.5018L6.8966 9.50521L6.89884 9.50844L6.90108 9.51165L6.90347 9.51485L6.90571 9.51803L6.90811 9.52119L6.91051 9.52433L6.9129 9.52743L6.91546 9.53053L6.91786 9.53361L6.92042 9.53668L6.92297 9.5397L6.92553 9.54271L6.92809 9.54571L6.93065 9.54869L6.9332 9.55163L6.93592 9.55457L6.93864 9.55748L6.94136 9.56037L6.94407 9.56323L6.94679 9.56608L6.94951 9.5689L6.95238 9.5717L6.9551 9.5745L6.95798 9.57725L6.96086 9.57998L6.96373 9.5827L6.96677 9.58538L6.96965 9.58805L6.97268 9.59069L6.97556 9.59333L6.9786 9.59593L6.98164 9.59851L6.98467 9.60106L6.98771 9.60359L6.99091 9.60608L6.99394 9.60858L6.99714 9.61104L7.00018 9.61347L7.00337 9.61588L7.00657 9.61826L7.00993 9.62063L7.01312 9.62296L7.01632 9.62526L7.01968 9.62757L7.02287 9.62982L7.02623 9.63206L7.02959 9.63426L7.03294 9.63645L7.0363 9.63861L7.03966 9.64075L7.04301 9.64286L7.04653 9.64494L7.04989 9.64699L7.0534 9.64902L7.05692 9.65101L7.06044 9.653L7.06379 9.65495L7.06731 9.65686L7.07099 9.65875L7.0745 9.66062L7.07802 9.66246L7.08154 9.66426L7.08521 9.66605L7.08889 9.66781L7.0924 9.66954L7.09608 9.67123L7.09976 9.67291L7.10343 9.67454L7.10711 9.67617L7.11079 9.67776L7.11446 9.67931L7.11814 9.68084L7.12182 9.68233L7.12565 9.6838L7.12933 9.68524L7.13316 9.68666L7.13684 9.68803L7.14068 9.68939L7.14451 9.6907L7.14819 9.692L7.15203 9.69326L7.15586 9.69449L7.1597 9.69571L7.16353 9.69687L7.16737 9.69801L7.17121 9.69913L7.17504 9.70021L7.17888 9.70125L7.18287 9.70228L7.18671 9.70327L7.19055 9.70422L7.19454 9.70515L7.19838 9.70605L7.20221 9.70691L7.20621 9.70774L7.21005 9.70856L7.21404 9.70932L7.21788 9.71006L7.22188 9.71076L7.22571 9.71145L7.22971 9.71209L7.2337 9.7127L7.23754 9.71329L7.24154 9.71383L7.24553 9.71436L7.24937 9.71484L7.25336 9.71529L7.25736 9.71572L7.26136 9.7161L7.26519 9.71647L7.26919 9.71679L7.27318 9.71708L7.27718 9.71735L7.28102 9.71757L7.28501 9.71776L7.28901 9.71794L7.293 9.71807L7.297 9.71816L7.30084 9.71823L7.30499 9.71826L7.34495 9.71831L7.4554 9.71839L7.53181 9.71845L7.6194 9.7185L7.71658 9.71853L7.82112 9.71855H7.93093L8.0441 9.71851L8.15854 9.71845L8.27235 9.71834L8.32829 9.71828L8.38328 9.71819L8.43714 9.7181L8.48957 9.71799L8.54024 9.71786L8.58899 9.71773L8.6355 9.71757L8.67834 9.71741L8.68202 9.71735L8.68602 9.71725L8.69001 9.71711L8.69401 9.71695L8.698 9.71674L8.70184 9.71652L8.70584 9.71624L8.70983 9.71594L8.71383 9.71561L8.71782 9.71524L8.72166 9.71484L8.72566 9.71441L8.72965 9.71393L8.73365 9.71343L8.73748 9.7129L8.74148 9.71233L8.74548 9.71174L8.74931 9.71111L8.75331 9.71044L8.75714 9.70976L8.76114 9.70902L8.76498 9.70827L8.76897 9.70747L8.77281 9.70665L8.77664 9.70581L8.78064 9.70491L8.78448 9.704L8.78831 9.70304L8.79215 9.70207L8.79614 9.70106L8.79998 9.70001L8.80382 9.69893L8.80765 9.69783L8.81149 9.6967L8.81533 9.69551L8.819 9.69433L8.82284 9.6931L8.82667 9.69184L8.83035 9.69054L8.83419 9.68923L8.83786 9.68787L8.8417 9.6865L8.84538 9.68509L8.84921 9.68365L8.85289 9.68217L8.85656 9.68068L8.86024 9.67916L8.86392 9.6776L8.86759 9.67601L8.87127 9.67438L8.87495 9.67274L8.87862 9.67107L8.88214 9.66938L8.88582 9.66764L8.88933 9.66588L8.89301 9.66409L8.89652 9.66228L8.90004 9.66043L8.90372 9.65856L8.90723 9.65666L8.91075 9.65474L8.91411 9.65279L8.91762 9.65079L8.92114 9.64879L8.9245 9.64676L8.92801 9.6447L8.93137 9.64261L8.93489 9.6405L8.93824 9.63836L8.9416 9.6362L8.94496 9.63399L8.94815 9.63177L8.95151 9.62952L8.95487 9.62726L8.95806 9.62498L8.96126 9.62264L8.96462 9.62029L8.96781 9.61793L8.97101 9.61553L8.97421 9.61312L8.97724 9.61067L8.98044 9.60821L8.98364 9.60572L8.98667 9.60321L8.98971 9.60067L8.99275 9.59811L8.99579 9.59552L8.99882 9.59291L9.00186 9.59027L9.0049 9.58762L9.00777 9.58495L9.01065 9.58225L9.01353 9.57953L9.01641 9.57679L9.01928 9.57402L9.02216 9.57125L9.02504 9.56844L9.02775 9.56561L9.03047 9.56277L9.03319 9.55989L9.03591 9.557L9.03862 9.55409L9.04134 9.55116L9.0439 9.54821L9.04661 9.54523L9.04917 9.54224L9.05173 9.53924L9.05429 9.53622L9.05684 9.53315L9.05924 9.5301L9.06164 9.52699L9.0642 9.52389L9.0666 9.52078L9.06899 9.51763L9.07123 9.51448L9.07363 9.51128L9.07587 9.50809L9.0781 9.50487L9.0805 9.50164L9.08258 9.4984L9.08482 9.49512L9.08705 9.49183L9.08913 9.48855L9.09121 9.48523L9.09329 9.48189L9.09537 9.47853L9.09744 9.47516L9.09936 9.47175L9.1446 9.39358L9.19015 9.31473L9.23571 9.23591L9.28142 9.15711L9.37269 8.99957L9.41824 8.92083L9.4638 8.84208L9.50935 8.76336L9.55491 8.68462L9.6003 8.60587L9.623 8.56652L9.6457 8.52713L9.6684 8.48776L9.69109 8.44838L9.71379 8.40899L9.73633 8.36959L9.75902 8.33021L9.78156 8.29081L9.8041 8.25139L9.82616 8.213L9.82792 8.20988L9.82983 8.20638L9.83159 8.20288L9.83351 8.19935L9.83527 8.1958L9.83703 8.19225L9.83879 8.1887L9.84054 8.18512L9.8423 8.18153L9.8439 8.17793L9.8455 8.17432L9.8471 8.1707L9.84869 8.16708L9.85013 8.16341L9.85173 8.15975L9.85317 8.15609L9.85461 8.1524L9.85605 8.14873L9.85733 8.14502L9.85876 8.14129L9.86004 8.1376L9.86132 8.13386L9.8626 8.13012L9.86372 8.12636L9.865 8.12261L9.86612 8.11885L9.86724 8.11506L9.86835 8.11128L9.86947 8.10749L9.87043 8.10367L9.87139 8.09986L9.87235 8.09606L9.87331 8.09221L9.87427 8.08839L9.87523 8.08455L9.87603 8.08068L9.87683 8.07683L9.87763 8.07296L9.87843 8.06911L9.87906 8.06524L9.8797 8.06134L9.88034 8.05744L9.88098 8.05356L9.88162 8.04967L9.88226 8.04577L9.88274 8.04184L9.88322 8.03794L9.8837 8.03403L9.88418 8.03009L9.88466 8.02618L9.88498 8.02226L9.8853 8.01831L9.88562 8.01436L9.88594 8.01043L9.88626 8.00652L9.88642 8.00255L9.88658 7.9986L9.88674 7.99466L9.8869 7.99071L9.88706 7.98676V7.967L9.8869 7.96304V7.95909L9.88674 7.95513L9.88658 7.95118L9.88626 7.94725L9.8861 7.94328L9.88578 7.93934L9.88546 7.9354L9.88514 7.93146L9.88482 7.92751L9.88434 7.92358L9.88402 7.91963L9.88354 7.91571L9.88306 7.9118L9.88258 7.90786L9.88194 7.90393L9.8813 7.90003L9.88082 7.89612L9.88018 7.8922L9.87938 7.8883L9.87875 7.88441L9.87795 7.88053L9.87715 7.87665L9.87651 7.87278L9.87555 7.86889L9.87475 7.86501L9.87379 7.86116L9.87299 7.85732L9.87203 7.85347L9.87107 7.84963L9.86995 7.84581L9.86899 7.84199L9.86788 7.83819L9.86676 7.83438L9.86564 7.83058L9.86452 7.82681L9.8634 7.82302L9.86212 7.81925L9.86084 7.81551L9.85956 7.81177L9.85829 7.80803L9.85685 7.8043L9.85557 7.80058L9.85413 7.79689L9.85269 7.79319L9.85125 7.78952L9.84981 7.78586L9.84822 7.78218L9.84678 7.77854L9.84518 7.77489L9.84358 7.7713L9.84198 7.76768L9.84022 7.76409L9.83862 7.76051L9.83687 7.75693L9.83511 7.75339L9.83335 7.74986L9.83143 7.74633L9.82967 7.74281L9.82776 7.73931L9.82584 7.73581L9.82392 7.73236L9.822 7.72892L9.81641 7.71928L9.09808 6.47504L9.09521 6.47012L9.09329 6.46699L9.09121 6.4635L9.08913 6.46003L9.08689 6.4566L9.08466 6.45314L9.08242 6.44974L9.08018 6.44633L9.07778 6.44296L9.07555 6.43959L9.07315 6.43625L9.07075 6.43291L9.06835 6.42958L9.06596 6.42631L9.06356 6.42301L9.061 6.41974L9.0586 6.41652L9.05605 6.4133L9.05349 6.41008L9.05093 6.4069L9.04821 6.40374L9.04566 6.40059L9.04294 6.39745L9.04022 6.39435L9.0375 6.39128L9.03479 6.38822L9.03207 6.38516L9.02919 6.38214L9.02647 6.37915L9.0236 6.37616L9.02072 6.37321L9.01784 6.37027L9.01497 6.36736L9.01209 6.36446L9.00905 6.36159L9.00618 6.35874L9.00314 6.35591L9.0001 6.35312L8.99706 6.35035L8.99403 6.34758L8.99099 6.34485L8.98795 6.34215L8.98476 6.33948L8.98172 6.33683L8.97852 6.33419L8.97533 6.33158L8.97213 6.329L8.96893 6.32644L8.96574 6.32391L8.96254 6.3214L8.95918 6.31893L8.95599 6.31648L8.95263 6.31405L8.94927 6.31164L8.94608 6.30927L8.94272 6.30692L8.93936 6.3046L8.93601 6.30232L8.93265 6.30005L8.92913 6.29781L8.92578 6.2956L8.92226 6.29343L8.9189 6.29127L8.91539 6.28915L8.91187 6.28705L8.90851 6.28499L8.905 6.28296L8.90148 6.28093L8.8978 6.27895L8.89429 6.27702L8.89077 6.27508L8.88725 6.2732L8.88374 6.27134L8.88006 6.2695L8.87654 6.2677L8.87287 6.26592L8.86919 6.2642L8.86568 6.26247L8.862 6.26079L8.85832 6.25915L8.85465 6.25753L8.85113 6.25595L8.84745 6.25438L8.84378 6.25286L8.8401 6.25138L8.83626 6.24991L8.83259 6.24847L8.82891 6.24708L8.82524 6.2457L8.82156 6.24438L8.81772 6.24307L8.81405 6.2418L8.81021 6.24056L8.80653 6.23936L8.80286 6.23819L8.79902 6.23704L8.79535 6.23592L8.79151 6.23485L8.78783 6.23381L8.784 6.2328L8.78016 6.23181L8.77648 6.23087L8.77265 6.22996L8.76881 6.22908L8.76514 6.22823L8.7613 6.22742L8.75746 6.22665L8.75379 6.2259L8.74995 6.22518L8.74611 6.22451L8.74228 6.22385L8.73844 6.22325L8.73445 6.22264L8.73285 6.22238L8.73093 6.22213L8.72901 6.22185L8.72709 6.22161L8.72518 6.22137L8.72326 6.22114L8.72134 6.2209L8.71958 6.22069L8.71766 6.22048L8.71574 6.22027L8.71383 6.22008L8.71191 6.2199L8.70999 6.21973L8.70807 6.21955L8.70615 6.21939L8.70424 6.21925L8.70248 6.21911L8.70056 6.21898L8.69864 6.21885L8.69672 6.21874L8.69481 6.21863L8.69289 6.21853L8.69097 6.21845L8.68905 6.21835L8.68713 6.21829L8.68538 6.21823L8.68346 6.21816L8.68154 6.21811L8.67962 6.21808L8.6777 6.21805L8.67579 6.21803L8.67403 6.21802H8.66651L7.31266 6.21768L7.30979 6.21773ZM15.9442 -0.369213L10.1203 9.71826H16.1183L16.1347 -0.380898L15.9442 -0.369213ZM10.5453 7.35252L6.62919 0.569655L7.25336 -0.511295L15.1055 -0.545932L10.5453 7.35252ZM7.36429 -0.319982L6.85073 0.569655L10.5453 6.9689L14.7724 -0.352654L7.36429 -0.319982ZM8.70711 5.41455H3.83198L6.26954 1.19257L8.70711 5.41455ZM4.16429 5.22274H8.37496L6.26954 1.57618L4.16429 5.22274Z" fill="url(#paint1_linear_1447_3101)"/>
</g>
</g>
<defs>
<radialGradient id="paint0_radial_1447_3101" cx="0" cy="0" r="1" gradientUnits="userSpaceOnUse" gradientTransform="translate(12.2129 -2.98809) scale(18.9881 18.9879)">
<stop stop-color="#F9A6FF"/>
<stop offset="1" stop-color="#EA73FF"/>
</radialGradient>
<linearGradient id="paint1_linear_1447_3101" x1="3.31849" y1="0.0159692" x2="3.31849" y2="16" gradientUnits="userSpaceOnUse">
<stop stop-color="#F7B3FF"/>
<stop offset="1" stop-color="#EE8AFF"/>
</linearGradient>
<clipPath id="clip0_1447_3101">
<rect width="16" height="16" fill="white"/>
</clipPath>
</defs>
</svg>
