<svg width="20" height="20" viewBox="0 0 20 20" fill="none" xmlns="http://www.w3.org/2000/svg">
<path d="M17.2161 16.1468C9.12073 19.9998 4.09667 16.7761 0.880614 14.8181C0.681606 14.6947 0.343361 14.8469 0.636835 15.1841C1.70826 16.4833 5.21957 19.6148 9.80284 19.6148C14.3893 19.6148 17.1178 17.1121 17.4591 16.6755C17.7981 16.2426 17.5586 16.0038 17.216 16.1468H17.2161ZM19.4896 14.8911C19.2722 14.608 18.1677 14.5552 17.4726 14.6406C16.7764 14.7235 15.7315 15.1491 15.8223 15.4045C15.8689 15.5002 15.9641 15.4573 16.4423 15.4143C16.9219 15.3665 18.2653 15.1969 18.5453 15.5629C18.8265 15.9314 18.1168 17.6868 17.9872 17.9699C17.8619 18.253 18.035 18.326 18.2703 18.1375C18.5023 17.949 18.9223 17.4609 19.2042 16.7701C19.4841 16.0755 19.6548 15.1067 19.4896 14.8911H19.4896Z" fill="#FF9900"/>
<path fill-rule="evenodd" clip-rule="evenodd" d="M11.774 8.28487C11.774 9.29582 11.7995 10.1389 11.2885 11.0367C10.8761 11.7667 10.2228 12.2156 9.49286 12.2156C8.49644 12.2156 7.91614 11.4564 7.91614 10.336C7.91614 8.12424 9.89791 7.72281 11.774 7.72281V8.28487ZM14.3908 14.6098C14.2193 14.7631 13.9711 14.7741 13.7777 14.6718C12.9163 13.9565 12.763 13.6244 12.2886 12.9419C10.8652 14.3945 9.85783 14.8288 8.01107 14.8288C5.8285 14.8288 4.12769 13.482 4.12769 10.7849C4.12769 8.67906 5.27013 7.24468 6.89417 6.54399C8.30303 5.92347 10.2703 5.81399 11.774 5.64251V5.30671C11.774 4.68988 11.8214 3.95995 11.4601 3.42713C11.1425 2.949 10.5367 2.7519 10.0038 2.7519C9.01473 2.7519 8.13147 3.25919 7.91614 4.3103C7.87229 4.54394 7.7008 4.77388 7.46724 4.78481L4.94886 4.51478C4.73722 4.46724 4.50365 4.29576 4.56204 3.97088C5.14234 0.919789 7.89783 0 10.365 0C11.6279 0 13.2775 0.335804 14.274 1.29206C15.5368 2.47087 15.4163 4.04389 15.4163 5.7556V9.79949C15.4163 11.0148 15.92 11.5477 16.3945 12.2047C16.5623 12.4382 16.5989 12.7193 16.3871 12.8944C15.8579 13.336 14.9163 14.1573 14.3981 14.6171L14.3908 14.6098" fill="black"/>
</svg>
