<svg width="16" height="16" fill="none" xmlns="http://www.w3.org/2000/svg"><g clip-path="url(#a)" fill="#F0F"><path d="M13.773 12.917C7.296 16 3.277 13.421.704 11.854c-.159-.098-.43.024-.195.293.858 1.04 3.667 3.545 7.333 3.545 3.67 0 5.852-2.002 6.125-2.352.271-.346.08-.537-.194-.423zm1.819-1.004c-.174-.227-1.058-.269-1.614-.2-.557.066-1.393.406-1.32.61.037.077.113.043.496.008.383-.038 1.458-.173 1.682.12.225.294-.343 1.698-.446 1.925-.1.226.038.285.226.134.186-.15.522-.541.747-1.094.224-.556.36-1.33.229-1.503z"/><path fill-rule="evenodd" clip-rule="evenodd" d="M9.42 6.628c0 .809.02 1.483-.39 2.201-.33.584-.852.943-1.436.943-.797 0-1.261-.607-1.261-1.503 0-1.77 1.585-2.09 3.086-2.09v.449zm2.092 5.06a.433.433 0 0 1-.49.05c-.689-.573-.812-.838-1.191-1.384-1.139 1.162-1.945 1.509-3.422 1.509-1.746 0-3.107-1.077-3.107-3.235 0-1.685.914-2.832 2.213-3.393 1.127-.496 2.701-.584 3.904-.721v-.269c0-.493.038-1.077-.251-1.503-.254-.383-.739-.54-1.165-.54-.791 0-1.498.405-1.67 1.246-.035.187-.172.371-.36.38L3.96 3.612c-.17-.038-.356-.175-.31-.435C4.115.736 6.32 0 8.293 0c1.01 0 2.33.269 3.127 1.034 1.01.943.914 2.201.914 3.57V7.84c0 .972.403 1.398.782 1.924.135.187.164.412-.005.552a87.947 87.947 0 0 0-1.592 1.378l-.006-.006z"/></g><defs><clipPath id="a"><path fill="#fff" d="M0 0h16v16H0z"/></clipPath></defs></svg>