<svg width="20" height="20" viewBox="0 0 20 20" fill="none" xmlns="http://www.w3.org/2000/svg">
<path d="M14.6104 11.4194C14.445 11.4194 14.2834 11.3703 14.146 11.2785C14.0085 11.1866 13.9014 11.0561 13.8381 10.9034C13.7748 10.7506 13.7583 10.5826 13.7906 10.4204C13.8228 10.2583 13.9024 10.1093 14.0193 9.99243C14.1362 9.87553 14.2851 9.79592 14.4473 9.76367C14.6094 9.73142 14.7775 9.74797 14.9302 9.81124C15.083 9.8745 15.2135 9.98164 15.3054 10.1191C15.3972 10.2566 15.4462 10.4182 15.4462 10.5835C15.4462 10.8052 15.3582 11.0178 15.2014 11.1745C15.0447 11.3313 14.8321 11.4194 14.6104 11.4194ZM5.40705 11.4194C5.24173 11.4194 5.08012 11.3703 4.94266 11.2785C4.8052 11.1866 4.69807 11.0561 4.6348 10.9034C4.57154 10.7506 4.55499 10.5826 4.58724 10.4204C4.61949 10.2583 4.6991 10.1093 4.816 9.99243C4.9329 9.87553 5.08184 9.79592 5.24398 9.76367C5.40612 9.73142 5.57419 9.74797 5.72693 9.81124C5.87966 9.8745 6.01021 9.98164 6.10206 10.1191C6.1939 10.2566 6.24292 10.4182 6.24292 10.5835C6.24292 10.8052 6.15486 11.0178 5.9981 11.1745C5.84134 11.3313 5.62874 11.4194 5.40705 11.4194ZM14.9064 6.40412L16.5781 3.5221C16.6007 3.48264 16.6152 3.43911 16.6209 3.39401C16.6266 3.34891 16.6233 3.30313 16.6113 3.25931C16.5992 3.21548 16.5786 3.17447 16.5507 3.13863C16.5227 3.10279 16.4879 3.07283 16.4484 3.05046C16.4088 3.02809 16.3652 3.01377 16.3201 3.0083C16.2749 3.00283 16.2292 3.00634 16.1854 3.01861C16.1417 3.03088 16.1007 3.05168 16.065 3.07981C16.0293 3.10794 15.9995 3.14284 15.9774 3.18252L14.2882 6.09937C12.9466 5.48631 11.4881 5.17143 10.0131 5.17643C8.53632 5.17281 7.07582 5.48451 5.72921 6.09067L4.04005 3.17382C3.99478 3.09462 3.91999 3.03657 3.83203 3.01237C3.74407 2.98816 3.65011 2.99978 3.57069 3.04466C3.49128 3.08955 3.43287 3.16406 3.40824 3.2519C3.38361 3.33974 3.39477 3.43376 3.43927 3.51339L5.10231 6.39541C3.66438 7.17964 2.44475 8.31011 1.55384 9.68449C0.662925 11.0589 0.128864 12.6337 0 14.2666H20C19.8751 12.6349 19.3435 11.0605 18.4538 9.68713C17.564 8.31373 16.3445 7.18505 14.9064 6.40412Z" fill="#3DDC84"/>
</svg>
