<svg width="20" height="20" viewBox="0 0 20 20" fill="none" xmlns="http://www.w3.org/2000/svg">
<path d="M17.3439 14.028C17.0717 14.6569 16.7495 15.2357 16.3762 15.7679C15.8673 16.4935 15.4506 16.9957 15.1295 17.2746C14.6318 17.7323 14.0985 17.9668 13.5274 17.9801C13.1174 17.9801 12.623 17.8634 12.0474 17.6268C11.47 17.3912 10.9394 17.2746 10.4542 17.2746C9.94529 17.2746 9.39953 17.3912 8.81577 17.6268C8.23113 17.8634 7.76014 17.9868 7.40004 17.999C6.8524 18.0223 6.30653 17.7812 5.76166 17.2746C5.41389 16.9712 4.97891 16.4513 4.45782 15.7146C3.89873 14.928 3.43908 14.0158 3.07898 12.9758C2.69333 11.8525 2.5 10.7648 2.5 9.71169C2.5 8.50539 2.76066 7.46498 3.28275 6.59311C3.69307 5.8928 4.23894 5.34037 4.92213 4.93483C5.60533 4.52929 6.34353 4.32263 7.1385 4.30941C7.57348 4.30941 8.14391 4.44396 8.85277 4.70839C9.55963 4.97372 10.0135 5.10827 10.2125 5.10827C10.3613 5.10827 10.8655 4.95094 11.7202 4.63728C12.5285 4.3464 13.2107 4.22596 13.7696 4.27341C15.284 4.39563 16.4217 4.99261 17.1784 6.06813C15.824 6.88877 15.154 8.03818 15.1673 9.51269C15.1795 10.6612 15.5962 11.617 16.4151 12.3758C16.7861 12.728 17.2006 13.0003 17.6617 13.1936C17.5617 13.4836 17.4561 13.7613 17.3439 14.028ZM13.8707 0.360637C13.8707 1.26084 13.5418 2.10136 12.8863 2.87934C12.0952 3.8042 11.1384 4.33863 10.1007 4.2543C10.0875 4.1463 10.0798 4.03264 10.0798 3.9132C10.0798 3.049 10.456 2.12414 11.1241 1.36794C11.4577 0.985062 11.8819 0.666705 12.3963 0.412746C12.9096 0.162575 13.3952 0.0242258 13.8518 0.000534058C13.8651 0.120877 13.8707 0.24124 13.8707 0.360637Z" fill="black"/>
</svg>
