<svg width="20" height="20" viewBox="0 0 20 20" fill="none" xmlns="http://www.w3.org/2000/svg">
<path fill-rule="evenodd" clip-rule="evenodd" d="M20 5.54274V6.25845H19.9921V13.7416V14.4573C19.9921 14.6561 19.9921 14.8628 19.9841 15.0616C19.9682 15.499 19.9444 15.9364 19.8649 16.3738C19.7855 16.8111 19.6583 17.2247 19.4517 17.6223C19.2531 18.0199 18.9909 18.3777 18.681 18.6879C18.3711 18.998 18.0056 19.2604 17.6162 19.4592C17.2189 19.666 16.8057 19.7932 16.3687 19.8728C15.9396 19.9523 15.4946 19.9841 15.0576 19.9921C14.859 20 14.6525 20 14.4539 20H14.4537H13.7386H6.25348H5.53834H5.5382C5.33959 20 5.13305 20 4.93445 19.9921C4.49742 19.9761 4.06039 19.9523 3.62336 19.8728C3.18633 19.7932 2.77314 19.666 2.37584 19.4592C1.97855 19.2604 1.62098 18.998 1.31108 18.6879C1.00119 18.3777 0.738975 18.0119 0.540326 17.6223C0.333731 17.2247 0.206595 16.8111 0.127135 16.3738C0.0476757 15.9443 0.0158921 15.499 0.00794615 15.0616C0 14.8628 0 14.6561 0 14.4573V13.7416V6.2505V5.53479C0 5.33598 0 5.12922 0.00794615 4.93042C0.0238381 4.49304 0.0476757 4.05567 0.127135 3.61829C0.206595 3.18091 0.333731 2.7674 0.540326 2.36978C0.746921 1.98012 1.00119 1.62227 1.31903 1.31213C1.62892 0.994036 1.98649 0.739563 2.38379 0.540756C2.78109 0.333996 3.19428 0.206759 3.63131 0.127236C4.06039 0.0477136 4.50536 0.0159044 4.94239 0.00795209C5.14104 0 5.34764 0 5.54629 0H6.26142H13.7465H14.4617C14.6603 0 14.8669 0 15.0656 0.00795209C15.5026 0.0238567 15.9396 0.0477136 16.3766 0.127236C16.8137 0.206759 17.2269 0.333996 17.6242 0.540756C18.0215 0.739563 18.379 1.00199 18.6889 1.31213C18.9988 1.62227 19.261 1.98807 19.4597 2.37773C19.6663 2.77535 19.7934 3.18887 19.8729 3.62624C19.9523 4.05567 19.9841 4.50099 19.9921 4.93837C20 5.13713 20 5.34384 20 5.5426V5.54274ZM14.1437 3.05364L14.1438 3.05362C14.4616 3.02977 14.6444 3.23652 14.6364 3.57847V13.0099C14.6364 13.2644 14.6364 13.495 14.5808 13.7494C14.5252 13.996 14.4298 14.2266 14.2868 14.4333C14.1438 14.6401 13.9531 14.8151 13.7386 14.9423C13.524 15.0775 13.2936 15.149 13.0473 15.1968C12.5864 15.2922 12.2685 15.316 11.9745 15.2524C11.6885 15.1968 11.4422 15.0616 11.2515 14.8866C10.9575 14.6162 10.7826 14.2663 10.7429 13.8926C10.7032 13.4632 10.8462 12.994 11.172 12.652C11.3389 12.485 11.5455 12.3498 11.8236 12.2385C12.1096 12.1272 12.4275 12.0556 12.9201 11.9602C12.9837 11.9483 13.0492 11.9343 13.1148 11.9204C13.1803 11.9065 13.2459 11.8926 13.3095 11.8807C13.4843 11.8489 13.6273 11.8011 13.7465 11.658C13.8657 11.5149 13.8657 11.3399 13.8657 11.165V6.75939C13.8657 6.42539 13.7068 6.32996 13.3889 6.39358C13.1585 6.4413 8.2161 7.43533 8.2161 7.43533C7.93799 7.49895 7.84264 7.58642 7.84264 7.93633V14.3856C7.84264 14.6401 7.8347 14.8707 7.77907 15.1252C7.72345 15.3717 7.6281 15.6023 7.48507 15.8091C7.34205 16.0158 7.15134 16.1908 6.9368 16.318C6.72226 16.4453 6.49183 16.5248 6.2455 16.5725C5.78464 16.6679 5.4668 16.6918 5.1728 16.6282C4.88674 16.5646 4.64042 16.4294 4.44971 16.2544C4.16366 15.984 3.99679 15.6341 3.95706 15.2604C3.90939 14.831 4.04447 14.3618 4.37025 14.0198C4.53712 13.8528 4.74371 13.7176 5.02182 13.6063C5.30788 13.495 5.62572 13.4234 6.11837 13.328L6.50772 13.2485C6.68253 13.2166 6.82556 13.1689 6.94475 13.0258C7.06394 12.8826 7.07983 12.7156 7.07983 12.5407V5.09736C7.07983 5.00193 7.08777 4.93036 7.09572 4.89855C7.11956 4.73951 7.18313 4.60432 7.29437 4.50889C7.38972 4.42937 7.50891 4.3737 7.66783 4.34189L13.6114 3.1411C13.667 3.13315 14.0955 3.06168 14.1437 3.05364Z" fill="#FF00FF"/>
</svg>
