<svg width="16" height="16" fill="none" xmlns="http://www.w3.org/2000/svg"><g clip-path="url(#a)"><path fill-rule="evenodd" clip-rule="evenodd" d="M16 4.434v.573h-.006v6.559c0 .159 0 .324-.007.483-.012.35-.031.7-.095 1.05a3.48 3.48 0 0 1-.33.999 3.283 3.283 0 0 1-.617.852c-.248.248-.54.458-.852.617a3.476 3.476 0 0 1-.998.331c-.343.064-.7.09-1.049.096-.159.006-.324.006-.483.006H4.431c-.16 0-.325 0-.483-.006-.35-.013-.7-.032-1.05-.096a3.476 3.476 0 0 1-.997-.33 3.282 3.282 0 0 1-.852-.618 3.394 3.394 0 0 1-.617-.852 3.483 3.483 0 0 1-.33-.999 6.445 6.445 0 0 1-.096-1.05C0 11.89 0 11.725 0 11.566V4.428c0-.16 0-.325.006-.484.013-.35.032-.7.096-1.05.063-.35.165-.68.33-.998.166-.312.369-.598.623-.846a3.14 3.14 0 0 1 .852-.617c.318-.166.648-.268.998-.331.343-.064.7-.09 1.049-.096C4.113 0 4.278 0 4.437 0h7.132c.16 0 .324 0 .483.006.35.013.7.032 1.05.096.349.063.68.165.997.33.318.16.604.37.852.618s.458.54.617.852c.165.318.267.65.33.999.064.344.09.7.096 1.05.006.159.006.324.006.483zm-4.685-1.991c.254-.02.4.146.394.42v7.545c0 .204 0 .388-.044.592-.045.197-.121.381-.235.547a1.412 1.412 0 0 1-.44.407 1.568 1.568 0 0 1-.552.203c-.369.077-.623.096-.858.045A1.192 1.192 0 0 1 9 11.909a1.256 1.256 0 0 1-.407-.795 1.284 1.284 0 0 1 .344-.992 1.5 1.5 0 0 1 .52-.331c.23-.09.484-.147.878-.223.05-.01.103-.02.156-.032.052-.01.105-.022.156-.031.14-.026.254-.064.35-.179.095-.114.095-.254.095-.394V5.408c0-.268-.128-.344-.382-.293l-4.138.833c-.223.051-.299.121-.299.401v5.16c0 .203-.006.388-.05.591-.045.197-.122.382-.236.547a1.412 1.412 0 0 1-.439.407 1.704 1.704 0 0 1-.553.204c-.368.076-.623.095-.858.045a1.258 1.258 0 0 1-.578-.3 1.27 1.27 0 0 1-.064-1.787 1.5 1.5 0 0 1 .521-.331c.23-.089.484-.146.878-.223l.311-.063c.14-.026.254-.064.35-.178.095-.115.108-.248.108-.388V4.078c0-.076.006-.134.013-.16a.493.493 0 0 1 .159-.31.65.65 0 0 1 .298-.134l4.755-.961c.045-.006.388-.064.426-.07z" fill="#F0F"/></g><defs><clipPath id="a"><path fill="#fff" d="M0 0h16v16H0z"/></clipPath></defs></svg>