<svg width="16" height="16" viewBox="0 0 16 16" fill="none" xmlns="http://www.w3.org/2000/svg">
<g clip-path="url(#clip0_1447_1725)">
<path fill-rule="evenodd" clip-rule="evenodd" d="M3.55947 0H12.4405C14.4064 0 16 1.59363 16 3.55947V12.4405C16 14.4064 14.4064 16 12.4405 16H3.55947C1.59363 16 0 14.4064 0 12.4405V3.55947C0 1.59363 1.59363 0 3.55947 0ZM6.73596 12.2453C6.876 13.218 6.96827 13.6135 7.18428 13.8224C7.21847 13.8677 7.2569 13.9075 7.3008 13.9418C7.41813 14.0378 7.57813 14.0858 7.7008 14.1125C7.82346 14.1392 7.91413 14.1392 8.01013 14.1392C8.10613 14.1392 8.20747 14.1392 8.31947 14.1125C8.43147 14.0858 8.5488 14.0378 8.65013 13.9578C8.75147 13.8778 8.84213 13.7658 8.91147 13.5952C8.9808 13.4298 9.03413 13.2058 9.1088 12.6938C9.18347 12.1845 9.27947 11.3893 9.32747 10.8469C9.37547 10.3029 9.37547 10.0117 9.3648 9.80157C9.3488 9.59197 9.32213 9.46397 9.2688 9.35623C9.21547 9.2485 9.13013 9.15997 9.0128 9.07463C8.99886 9.0647 8.98446 9.0548 8.96963 9.04497C8.72676 8.84007 8.35808 8.72884 7.90396 8.73068C7.23996 8.73335 6.76529 8.96641 6.59036 9.37708C6.45862 9.68694 6.50822 10.6651 6.73596 12.2453ZM2.38449 8.37868C2.76849 10.2037 3.82449 11.5755 5.47249 12.3861L5.49916 12.4059C5.78716 12.5445 6.05916 12.6619 6.09649 12.6619C6.15516 12.6619 6.16049 12.5925 6.13382 12.3525C6.09116 11.9579 6.04316 11.8779 5.81916 11.7819C5.71782 11.7392 5.47249 11.6005 5.26982 11.4672C4.23516 10.8005 3.44582 9.68055 3.14182 8.45921C3.01916 7.95788 3.01916 6.73655 3.14182 6.23521C3.60049 4.38988 5.10449 2.92321 6.92316 2.54988C7.45116 2.44321 8.40049 2.44321 8.92316 2.54988C10.7205 2.92321 12.1872 4.32055 12.6725 6.11788C12.8272 6.68321 12.8432 7.90454 12.7045 8.45388C12.4858 9.33388 12.0112 10.1712 11.3658 10.8112C10.9925 11.1856 10.3845 11.6187 10.0272 11.768C9.80316 11.8619 9.75516 11.944 9.70716 12.3387C9.68049 12.5845 9.68582 12.6453 9.74449 12.6453C9.90449 12.6453 10.8965 12.1109 11.3018 11.8048C12.4378 10.9483 13.2165 9.67361 13.4618 8.27415C13.5365 7.83148 13.5365 6.75841 13.4565 6.36481C13.2218 5.18241 12.7632 4.28481 11.9472 3.43681C10.8752 2.31308 9.46716 1.71201 7.90982 1.71201C6.33649 1.71201 4.92316 2.32428 3.82449 3.48268C3.06182 4.28481 2.60316 5.19201 2.36316 6.35201C2.27249 6.78401 2.28849 7.90775 2.38449 8.37868ZM4.24582 8.21868C4.44849 8.98881 4.93916 9.77388 5.49382 10.2165L5.51622 10.224C5.68156 10.3573 5.83622 10.464 5.85756 10.464C5.87942 10.464 5.89702 10.2827 5.89702 10.0587V9.65335L5.62182 9.32268C4.57649 8.06935 4.65116 6.31095 5.79782 5.17494C6.26556 4.71201 6.79249 4.44855 7.47249 4.33761C7.92049 4.26401 8.01116 4.26401 8.43782 4.34295C9.09916 4.46401 9.61116 4.72641 10.0538 5.17335C11.1952 6.32108 11.2698 8.07041 10.2245 9.32268L9.94716 9.65335V10.0565C9.94716 10.2773 9.96316 10.4587 9.97916 10.4587C10.0752 10.4587 10.6192 9.97815 10.8432 9.69174C11.2965 9.12481 11.5525 8.51468 11.6538 7.77175C11.9098 5.92801 10.5925 4.06935 8.73649 3.65601C8.19782 3.53708 7.22716 3.57175 6.78982 3.72641C5.50982 4.18241 4.58716 5.15308 4.25116 6.40534C4.12316 6.86935 4.12316 7.75361 4.24582 8.21868ZM7.06136 7.86397C6.76863 7.62723 6.61264 7.28123 6.60849 6.85868C6.60849 6.37068 6.88049 5.94508 7.34982 5.69601C7.54555 5.59326 7.83977 5.55784 8.10339 5.59006C8.78692 5.6456 9.32432 6.21793 9.32432 6.91578C9.32432 7.65039 8.7288 8.24591 7.99419 8.24591C7.63079 8.24591 7.30143 8.10018 7.06136 7.86397Z" fill="#FF00FF"/>
</g>
<defs>
<clipPath id="clip0_1447_1725">
<rect width="16" height="16" fill="white"/>
</clipPath>
</defs>
</svg>
