<svg width="16" height="16" viewBox="0 0 16 16" fill="none" xmlns="http://www.w3.org/2000/svg">
<path d="M13.8751 11.2224C13.6574 11.7255 13.3996 12.1886 13.1009 12.6144C12.6938 13.1948 12.3605 13.5965 12.1036 13.8197C11.7054 14.1859 11.2788 14.3734 10.8219 14.3841C10.4939 14.3841 10.0984 14.2907 9.63795 14.1014C9.17601 13.913 8.75149 13.8197 8.36333 13.8197C7.95623 13.8197 7.51962 13.913 7.05262 14.1014C6.5849 14.2907 6.20811 14.3894 5.92004 14.3992C5.48192 14.4179 5.04522 14.225 4.60933 13.8197C4.33112 13.577 3.98313 13.161 3.56625 12.5717C3.11898 11.9424 2.75126 11.2126 2.46318 10.3806C2.15466 9.48201 2 8.61181 2 7.76935C2 6.80431 2.20853 5.97198 2.6262 5.27449C2.95445 4.71424 3.39115 4.2723 3.93771 3.94786C4.48427 3.62343 5.07482 3.4581 5.7108 3.44752C6.05879 3.44752 6.51513 3.55517 7.08222 3.76671C7.64771 3.97897 8.01081 4.08662 8.17 4.08662C8.28902 4.08662 8.69238 3.96075 9.37618 3.70983C10.0228 3.47712 10.5686 3.38077 11.0157 3.41873C12.2272 3.5165 13.1374 3.99409 13.7427 4.8545C12.6592 5.51102 12.1232 6.43054 12.1339 7.61015C12.1436 8.52897 12.477 9.29357 13.132 9.90066C13.4289 10.1824 13.7605 10.4002 14.1293 10.5549C14.0493 10.7869 13.9649 11.0091 13.8751 11.2224ZM11.0966 0.288509C11.0966 1.00867 10.8335 1.68109 10.309 2.30347C9.67617 3.04336 8.91068 3.4709 8.08058 3.40344C8.07 3.31704 8.06387 3.22611 8.06387 3.13056C8.06387 2.4392 8.36484 1.69931 8.89931 1.09435C9.16614 0.78805 9.50551 0.533364 9.91705 0.330196C10.3277 0.13006 10.7161 0.0193807 11.0814 0.000427246C11.0921 0.096702 11.0966 0.192992 11.0966 0.288509Z" fill="black"/>
</svg>
