<svg width="16" height="16" viewBox="0 0 16 16" fill="none" xmlns="http://www.w3.org/2000/svg">
<g clip-path="url(#clip0_1447_2965)">
<path d="M12.4405 0H3.55947C1.59363 0 0 1.59363 0 3.55947V12.4405C0 14.4064 1.59363 16 3.55947 16H12.4405C14.4064 16 16 14.4064 16 12.4405V3.55947C16 1.59363 14.4064 0 12.4405 0Z" fill="url(#paint0_linear_1447_2965)"/>
<path d="M7.1845 13.8225C6.9684 13.6137 6.87613 13.2183 6.73605 12.2454C6.50832 10.6651 6.45872 9.68697 6.59045 9.3771C6.76539 8.96644 7.24005 8.73337 7.90405 8.7307C8.35808 8.72887 8.7267 8.84005 8.96957 9.04486C8.98447 9.05473 8.99892 9.06467 9.01292 9.07465C9.13026 9.15998 9.21559 9.24851 9.26892 9.35625C9.32226 9.46398 9.34892 9.59198 9.36492 9.80158C9.37559 10.0117 9.37559 10.3029 9.32759 10.8469C9.27959 11.3893 9.18359 12.1845 9.10892 12.6938C9.03426 13.2058 8.98092 13.4298 8.91159 13.5952C8.84225 13.7658 8.75159 13.8778 8.65026 13.9578C8.54892 14.0378 8.43159 14.0858 8.31959 14.1125C8.20759 14.1392 8.10625 14.1392 8.01025 14.1392C7.91425 14.1392 7.82359 14.1392 7.70092 14.1125C7.57825 14.0858 7.41825 14.0378 7.30092 13.9418C7.25706 13.9075 7.21866 13.8677 7.1845 13.8225Z" fill="white"/>
<path d="M5.47259 12.3862C3.82459 11.5755 2.76859 10.2038 2.38459 8.3787C2.28859 7.90777 2.27259 6.78404 2.36325 6.35204C2.60325 5.19204 3.06192 4.28484 3.82459 3.4827C4.92325 2.3243 6.33659 1.71204 7.90992 1.71204C9.46725 1.71204 10.8753 2.3131 11.9473 3.43684C12.7633 4.28484 13.2219 5.18244 13.4566 6.36484C13.5366 6.75844 13.5366 7.8315 13.4619 8.27417C13.2166 9.67364 12.4379 10.9483 11.3019 11.8048C10.8966 12.111 9.90459 12.6454 9.74459 12.6454C9.68592 12.6454 9.68059 12.5846 9.70725 12.3387C9.75525 11.944 9.80326 11.8619 10.0273 11.768C10.3846 11.6187 10.9926 11.1856 11.3659 10.8112C12.0113 10.1712 12.4859 9.3339 12.7046 8.4539C12.8433 7.90457 12.8273 6.68324 12.6726 6.1179C12.1873 4.32057 10.7206 2.92324 8.92325 2.5499C8.40059 2.44324 7.45125 2.44324 6.92325 2.5499C5.10459 2.92324 3.60059 4.3899 3.14192 6.23524C3.01925 6.73657 3.01925 7.9579 3.14192 8.45924C3.44592 9.68057 4.23525 10.8006 5.26992 11.4672C5.47259 11.6006 5.71792 11.7392 5.81925 11.7819C6.04325 11.8779 6.09125 11.9579 6.13392 12.3526C6.16059 12.5926 6.15525 12.6619 6.09659 12.6619C6.05925 12.6619 5.78725 12.5446 5.49925 12.4059L5.47259 12.3862Z" fill="white"/>
<path d="M5.49392 10.2166C4.93925 9.7739 4.44859 8.98884 4.24592 8.2187C4.12325 7.75364 4.12325 6.86937 4.25125 6.40537C4.58725 5.1531 5.50992 4.18244 6.78992 3.72644C7.22725 3.57177 8.19792 3.5371 8.73659 3.65604C10.5926 4.06937 11.9099 5.92804 11.6539 7.77177C11.5526 8.5147 11.2966 9.12484 10.8433 9.69177C10.6193 9.97817 10.0753 10.4587 9.97926 10.4587C9.96325 10.4587 9.94726 10.2774 9.94726 10.0566V9.65337L10.2246 9.3227C11.2699 8.07044 11.1953 6.3211 10.0539 5.17337C9.61125 4.72644 9.09925 4.46404 8.43792 4.34297C8.01126 4.26404 7.92059 4.26404 7.47259 4.33764C6.79259 4.44857 6.26565 4.71204 5.79792 5.17497C4.65125 6.31097 4.57659 8.06937 5.62192 9.3227L5.89712 9.65337V10.0587C5.89712 10.2827 5.87952 10.464 5.85765 10.464C5.83632 10.464 5.68165 10.3574 5.51632 10.224L5.49392 10.2166Z" fill="white"/>
<path d="M6.60859 6.8587C6.61274 7.28142 6.76885 7.62752 7.0618 7.86427C7.30185 8.10029 7.63108 8.24589 7.99432 8.24589C8.72893 8.24589 9.32445 7.65037 9.32445 6.91576C9.32445 6.21759 8.78653 5.64505 8.10254 5.58997C7.83916 5.55795 7.54541 5.5934 7.34992 5.69604C6.88059 5.9451 6.60859 6.3707 6.60859 6.8587Z" fill="white"/>
</g>
<defs>
<linearGradient id="paint0_linear_1447_2965" x1="7.98347" y1="16.2032" x2="7.848" y2="-7.50007e-07" gradientUnits="userSpaceOnUse">
<stop stop-color="#822CBE"/>
<stop offset="1" stop-color="#D772FB"/>
</linearGradient>
<clipPath id="clip0_1447_2965">
<rect width="16" height="16" fill="white"/>
</clipPath>
</defs>
</svg>
