<svg width="16" height="16" fill="none" xmlns="http://www.w3.org/2000/svg"><path d="M13.875 11.223a7.819 7.819 0 0 1-.774 1.391c-.407.58-.74.983-.997 1.206-.399.366-.825.553-1.282.564-.328 0-.724-.093-1.184-.283-.462-.188-.887-.281-1.275-.281-.407 0-.843.093-1.31.281-.468.19-.845.288-1.133.298-.438.019-.875-.174-1.31-.58-.279-.242-.627-.658-1.044-1.247a8.633 8.633 0 0 1-1.103-2.191C2.155 9.482 2 8.61 2 7.769c0-.965.209-1.797.626-2.494a3.673 3.673 0 0 1 1.312-1.327 3.528 3.528 0 0 1 1.773-.5c.348 0 .804.107 1.371.319.566.212.929.32 1.088.32.119 0 .522-.126 1.206-.377.647-.233 1.193-.33 1.64-.291 1.211.098 2.121.575 2.727 1.436-1.084.656-1.62 1.576-1.61 2.755.01.919.344 1.684.999 2.29.297.282.629.5.997.655-.08.232-.164.454-.254.668zM11.097.289c0 .72-.263 1.392-.788 2.015-.633.74-1.398 1.167-2.228 1.1a2.241 2.241 0 0 1-.017-.273c0-.692.3-1.432.835-2.037A3.217 3.217 0 0 1 9.917.33c.41-.2.8-.31 1.164-.33.011.097.016.193.016.289z" fill="#000"/></svg>