<svg width="20" height="20" viewBox="0 0 20 20" fill="none" xmlns="http://www.w3.org/2000/svg">
<path fill-rule="evenodd" clip-rule="evenodd" d="M20 6.25845C20 6.01988 20 5.78131 20 5.54274C20 5.34394 20 5.13718 19.9921 4.93837C19.9841 4.50099 19.9523 4.05567 19.8729 3.62624C19.7934 3.18887 19.6663 2.77535 19.4597 2.37773C19.261 1.98807 18.9988 1.62227 18.6889 1.31213C18.379 1.00199 18.0215 0.739563 17.6242 0.540756C17.2269 0.333996 16.8137 0.206759 16.3766 0.127236C15.9396 0.0477136 15.5026 0.0238567 15.0656 0.00795209C14.8669 -1.97003e-07 14.6603 0 14.4617 0C14.2233 0 13.9849 0 13.7465 0H6.26142C6.02304 0 5.78466 0 5.54629 0C5.34764 0 5.14104 -1.97003e-07 4.94239 0.00795209C4.50536 0.0159044 4.06039 0.0477136 3.63131 0.127236C3.19428 0.206759 2.78109 0.333996 2.38379 0.540756C1.98649 0.739563 1.62892 0.994036 1.31903 1.31213C1.00119 1.62227 0.746921 1.98012 0.540326 2.36978C0.333731 2.7674 0.206595 3.18091 0.127135 3.61829C0.0476757 4.05567 0.0238381 4.49304 0.00794615 4.93042C1.82046e-07 5.12922 0 5.33598 0 5.53479C0 5.77336 0 6.01193 0 6.2505V13.7416C0 13.9801 0 14.2187 0 14.4573C0 14.6561 1.82046e-07 14.8628 0.00794615 15.0616C0.0158921 15.499 0.0476757 15.9443 0.127135 16.3738C0.206595 16.8111 0.333731 17.2247 0.540326 17.6223C0.738975 18.0119 1.00119 18.3777 1.31108 18.6879C1.62098 18.998 1.97855 19.2604 2.37584 19.4592C2.77314 19.666 3.18633 19.7932 3.62336 19.8728C4.06039 19.9523 4.49742 19.9761 4.93445 19.9921C5.13309 20 5.33969 20 5.53834 20C5.77672 20 6.0151 20 6.25348 20H13.7386C13.977 20 14.2153 20 14.4537 20C14.6524 20 14.859 20 15.0576 19.9921C15.4946 19.9841 15.9396 19.9523 16.3687 19.8728C16.8057 19.7932 17.2189 19.666 17.6162 19.4592C18.0056 19.2604 18.3711 18.998 18.681 18.6879C18.9909 18.3777 19.2531 18.0199 19.4517 17.6223C19.6583 17.2247 19.7855 16.8111 19.8649 16.3738C19.9444 15.9364 19.9682 15.499 19.9841 15.0616C19.9921 14.8628 19.9921 14.6561 19.9921 14.4573C19.9921 14.2187 19.9921 13.9801 19.9921 13.7416V6.25845H20Z" fill="url(#paint0_linear)"/>
<path fill-rule="evenodd" clip-rule="evenodd" d="M14.1438 3.05368C14.0961 3.06164 13.667 3.13321 13.6114 3.14116L7.66783 4.34195C7.50891 4.37376 7.38972 4.42943 7.29437 4.50895C7.18313 4.60438 7.11956 4.73957 7.09572 4.89861C7.08777 4.93042 7.07983 5.00199 7.07983 5.09742C7.07983 5.09742 7.07983 11.173 7.07983 12.5408C7.07983 12.7157 7.06394 12.8827 6.94475 13.0258C6.82556 13.169 6.68253 13.2167 6.50772 13.2485L6.11837 13.328C5.62572 13.4235 5.30788 13.495 5.02182 13.6064C4.74371 13.7177 4.53712 13.8529 4.37025 14.0199C4.04447 14.3618 3.90939 14.831 3.95706 15.2604C3.99679 15.6342 4.16366 15.9841 4.44971 16.2545C4.64042 16.4294 4.88674 16.5646 5.1728 16.6282C5.4668 16.6919 5.78464 16.668 6.2455 16.5726C6.49183 16.5249 6.72226 16.4453 6.9368 16.3181C7.15134 16.1909 7.34205 16.0159 7.48507 15.8091C7.6281 15.6024 7.72345 15.3718 7.77907 15.1253C7.8347 14.8708 7.84264 14.6402 7.84264 14.3857V7.93639C7.84264 7.58649 7.93799 7.49901 8.2161 7.43539C8.2161 7.43539 13.1585 6.44136 13.3889 6.39364C13.7068 6.33002 13.8657 6.42545 13.8657 6.75945V11.165C13.8657 11.34 13.8657 11.5149 13.7465 11.6581C13.6273 11.8012 13.4843 11.8489 13.3095 11.8807C13.1823 11.9046 13.0473 11.9364 12.9201 11.9602C12.4275 12.0557 12.1096 12.1272 11.8236 12.2386C11.5455 12.3499 11.3389 12.4851 11.172 12.6521C10.8462 12.994 10.7032 13.4632 10.7429 13.8926C10.7826 14.2664 10.9575 14.6163 11.2515 14.8867C11.4422 15.0616 11.6885 15.1968 11.9745 15.2525C12.2685 15.3161 12.5864 15.2923 13.0473 15.1968C13.2936 15.1491 13.524 15.0775 13.7386 14.9423C13.9531 14.8151 14.1438 14.6402 14.2868 14.4334C14.4298 14.2266 14.5252 13.996 14.5808 13.7495C14.6364 13.495 14.6364 13.2644 14.6364 13.0099V3.57853C14.6444 3.23659 14.4616 3.02983 14.1438 3.05368Z" fill="white"/>
<defs>
<linearGradient id="paint0_linear" x1="10.0036" y1="19.9315" x2="10.0036" y2="0.429741" gradientUnits="userSpaceOnUse">
<stop stop-color="#FA233B"/>
<stop offset="1" stop-color="#FB5C74"/>
</linearGradient>
</defs>
</svg>
