<svg width="16" height="16" viewBox="0 0 16 16" fill="none" xmlns="http://www.w3.org/2000/svg">
<path fill-rule="evenodd" clip-rule="evenodd" d="M13.75 8C13.75 8.41421 13.4142 8.75 13 8.75L5.31066 8.75L8.03033 11.4697C8.32322 11.7626 8.32322 12.2374 8.03033 12.5303C7.73744 12.8232 7.26256 12.8232 6.96967 12.5303L2.96967 8.53033C2.82902 8.38968 2.75 8.19891 2.75 8C2.75 7.80109 2.82902 7.61032 2.96967 7.46967L6.96967 3.46967C7.26256 3.17678 7.73744 3.17678 8.03033 3.46967C8.32322 3.76256 8.32322 4.23744 8.03033 4.53033L5.31066 7.25L13 7.25C13.4142 7.25 13.75 7.58579 13.75 8Z" fill="#FF00FF"/>
</svg>
