<svg width="16" height="16" viewBox="0 0 16 16" fill="none" xmlns="http://www.w3.org/2000/svg">
<g clip-path="url(#clip0_1447_1758)">
<path d="M4.74583 7.3844C4.6983 7.3222 4.63552 7.27332 4.56357 7.24247C4.49162 7.21162 4.41293 7.19986 4.3351 7.20831C4.25727 7.21677 4.18294 7.24516 4.1193 7.29074C4.05565 7.33632 4.00484 7.39755 3.97177 7.4685L0.0494839 15.3106C0.0137524 15.3821 -0.00311818 15.4615 0.000474049 15.5413C0.00406627 15.6212 0.028002 15.6987 0.0700087 15.7667C0.112015 15.8347 0.170699 15.8908 0.240487 15.9297C0.310275 15.9686 0.388852 15.9891 0.468757 15.9891H5.93034C6.01781 15.9911 6.104 15.9677 6.17842 15.9217C6.25285 15.8757 6.31232 15.8091 6.34961 15.7299C7.52775 13.2954 6.81376 9.5938 4.74583 7.3844Z" fill="#FF00FF"/>
<path d="M7.6222 0.251576C6.64488 1.75536 6.07534 3.48741 5.96947 5.27776C5.86359 7.0681 6.22503 8.8552 7.0183 10.4637L9.65139 15.7299C9.69032 15.8077 9.75016 15.8732 9.82421 15.919C9.89827 15.9648 9.9836 15.989 10.0707 15.989H15.5313C15.6112 15.989 15.6897 15.9686 15.7595 15.9297C15.8293 15.8908 15.888 15.8347 15.93 15.7667C15.972 15.6987 15.996 15.6211 15.9995 15.5413C16.0031 15.4615 15.9863 15.3821 15.9505 15.3106C15.9505 15.3106 8.60419 0.616172 8.41956 0.248634C8.38306 0.173821 8.3262 0.110812 8.25552 0.0668356C8.18484 0.0228591 8.1032 -0.000304154 8.01996 3.01581e-06C7.93672 0.000310185 7.85525 0.0240753 7.78489 0.0685723C7.71454 0.113069 7.65815 0.176496 7.6222 0.251576Z" fill="#FF00FF"/>
</g>
<defs>
<clipPath id="clip0_1447_1758">
<rect width="16" height="16" fill="white"/>
</clipPath>
</defs>
</svg>
