<svg width="16" height="16" viewBox="0 0 16 16" fill="none" xmlns="http://www.w3.org/2000/svg">
<g clip-path="url(#clip0_1447_2917)">
<path d="M4.74583 7.38432C4.6983 7.32212 4.63552 7.27323 4.56357 7.24239C4.49162 7.21154 4.41293 7.19977 4.3351 7.20823C4.25727 7.21668 4.18294 7.24507 4.1193 7.29065C4.05565 7.33623 4.00484 7.39746 3.97177 7.46842L0.0494839 15.3105C0.0137524 15.382 -0.00311818 15.4614 0.000474049 15.5413C0.00406627 15.6211 0.028002 15.6987 0.0700087 15.7666C0.112015 15.8346 0.170699 15.8907 0.240487 15.9296C0.310275 15.9685 0.388852 15.989 0.468757 15.989H5.93034C6.01781 15.991 6.104 15.9676 6.17842 15.9216C6.25285 15.8756 6.31232 15.809 6.34961 15.7298C7.52775 13.2953 6.81376 9.59372 4.74583 7.38432Z" fill="url(#paint0_linear_1447_2917)"/>
<path d="M7.62244 0.251576C6.64512 1.75536 6.07557 3.48741 5.9697 5.27776C5.86383 7.0681 6.22527 8.8552 7.01854 10.4637L9.65162 15.7299C9.69055 15.8077 9.7504 15.8732 9.82445 15.919C9.8985 15.9648 9.98384 15.989 10.0709 15.989H15.5315C15.6114 15.989 15.69 15.9686 15.7598 15.9297C15.8296 15.8908 15.8882 15.8347 15.9302 15.7667C15.9723 15.6987 15.9962 15.6211 15.9998 15.5413C16.0034 15.4615 15.9865 15.3821 15.9508 15.3106C15.9508 15.3106 8.60442 0.616172 8.4198 0.248634C8.38329 0.173821 8.32644 0.110812 8.25576 0.0668356C8.18508 0.0228591 8.10344 -0.000304154 8.0202 3.01581e-06C7.93695 0.000310185 7.85548 0.0240753 7.78513 0.0685723C7.71478 0.113069 7.65839 0.176496 7.62244 0.251576Z" fill="#2684FF"/>
</g>
<defs>
<linearGradient id="paint0_linear_1447_2917" x1="6.8954" y1="8.59457" x2="2.75612" y2="15.7641" gradientUnits="userSpaceOnUse">
<stop stop-color="#0052CC"/>
<stop offset="0.923" stop-color="#2684FF"/>
</linearGradient>
<clipPath id="clip0_1447_2917">
<rect width="16" height="16" fill="white"/>
</clipPath>
</defs>
</svg>
