<svg width="16" height="16" viewBox="0 0 16 16" fill="none" xmlns="http://www.w3.org/2000/svg">
<g clip-path="url(#clip0_1843_1260)">
<g clip-path="url(#clip1_1843_1260)">
<path d="M2.58663 1L14.6903 3.72728H16.0001V15.5108H2.2716C2.04294 15.5108 1.82364 15.42 1.66195 15.2583C1.50026 15.0966 1.40942 14.8773 1.40942 14.6487V13.7766L2.5612 1.03749L2.58663 1Z" fill="#705A01"/>
<path d="M2.58643 1H13.9605C14.1892 1 14.4085 1.09084 14.5702 1.25253C14.7319 1.41422 14.8227 1.63351 14.8227 1.86218V12.9378H2.58643V1Z" fill="#DBAE03"/>
<path d="M0 14.4964L2.58653 12.9378V1L0 2.55855V14.4964Z" fill="#EACD5D"/>
</g>
<path d="M9.53587 4.85511V9.10115H10.387V10.2927H7.03931V9.10115H7.88096V4.85511H7.03931V3.67303H10.387V4.85511H9.53587Z" fill="white"/>
</g>
<defs>
<clipPath id="clip0_1843_1260">
<rect width="16" height="16" fill="white"/>
</clipPath>
<clipPath id="clip1_1843_1260">
<rect width="16" height="16" fill="white"/>
</clipPath>
</defs>
</svg>
