<svg width="16" height="16" viewBox="0 0 16 16" fill="none" xmlns="http://www.w3.org/2000/svg">
<g clip-path="url(#clip0_1843_1261)">
<g clip-path="url(#clip1_1843_1261)">
<path d="M2.58663 1L14.6903 3.72728H16.0001V15.5108H2.2716C2.04294 15.5108 1.82364 15.42 1.66195 15.2583C1.50026 15.0966 1.40942 14.8773 1.40942 14.6487V13.7766L2.5612 1.03749L2.58663 1Z" fill="#78082A"/>
<path d="M2.58643 1H13.9605C14.1892 1 14.4085 1.09084 14.5702 1.25253C14.7319 1.41422 14.8227 1.63351 14.8227 1.86218V12.9378H2.58643V1Z" fill="#E51050"/>
<path d="M0 14.4964L2.58653 12.9378V1L0 2.55855V14.4964Z" fill="#E85984"/>
</g>
<path d="M9.65886 8.84582H7.67297L7.30416 10.2927H5.65869L7.55003 3.67303H9.75342L11.7488 10.2927H10.0655L9.65886 8.84582ZM8.64699 4.76055L7.97557 7.61645H9.33731L8.64699 4.76055Z" fill="white"/>
</g>
<defs>
<clipPath id="clip0_1843_1261">
<rect width="16" height="16" fill="white"/>
</clipPath>
<clipPath id="clip1_1843_1261">
<rect width="16" height="16" fill="white"/>
</clipPath>
</defs>
</svg>
