<svg width="16" height="16" viewBox="0 0 16 16" fill="none" xmlns="http://www.w3.org/2000/svg">
<path fill-rule="evenodd" clip-rule="evenodd" d="M6.23753 3.82322C6.28441 3.77634 6.348 3.75 6.41431 3.75H13.5001C13.6382 3.75 13.7501 3.86193 13.7501 4V12C13.7501 12.1381 13.6382 12.25 13.5001 12.25H6.41431C6.348 12.25 6.28441 12.2237 6.23753 12.1768L2.23753 8.17678C2.1399 8.07915 2.1399 7.92086 2.23753 7.82322L6.23753 3.82322ZM6.41431 2.25C5.95018 2.25 5.50506 2.43437 5.17687 2.76256L1.17687 6.76256C0.493453 7.44598 0.493451 8.55402 1.17687 9.23744L5.17687 13.2374C5.50506 13.5656 5.95018 13.75 6.41431 13.75H13.5001C14.4666 13.75 15.2501 12.9665 15.2501 12V4C15.2501 3.0335 14.4666 2.25 13.5001 2.25H6.41431ZM7.53042 5.46967C7.23753 5.17678 6.76266 5.17678 6.46976 5.46967C6.17687 5.76256 6.17687 6.23744 6.46976 6.53033L7.93943 8L6.46976 9.46967C6.17687 9.76256 6.17687 10.2374 6.46976 10.5303C6.76266 10.8232 7.23753 10.8232 7.53042 10.5303L9.00009 9.06066L10.4698 10.5303C10.7627 10.8232 11.2375 10.8232 11.5304 10.5303C11.8233 10.2374 11.8233 9.76256 11.5304 9.46967L10.0608 8L11.5304 6.53033C11.8233 6.23744 11.8233 5.76256 11.5304 5.46967C11.2375 5.17678 10.7627 5.17678 10.4698 5.46967L9.00009 6.93934L7.53042 5.46967Z" fill="#FF00FF"/>
</svg>
