<svg width="20" height="20" viewBox="0 0 20 20" fill="none" xmlns="http://www.w3.org/2000/svg">
<path fill-rule="evenodd" clip-rule="evenodd" d="M2 0C0.895431 0 0 0.895431 0 2V18C0 19.1046 0.895431 20 2 20H18C19.1046 20 20 19.1046 20 18V2C20 0.895431 19.1046 0 18 0H2ZM8.4576 9.4408C8.4576 9.4408 9.9712 9.3232 9.9712 7.4736C9.9712 5.6216 8.7328 4.7208 7.1632 4.7208H2V15.0616H7.1632C7.1632 15.0616 10.316 15.1648 10.316 12.0088L10.3161 12.0057C10.3198 11.9064 10.4129 9.4408 8.4576 9.4408ZM4.2752 6.5576H7.1632C7.1632 6.5576 7.8656 6.5576 7.8656 7.6328C7.8656 8.7096 7.4528 8.8656 6.984 8.8656H4.2752V6.5576ZM4.2752 13.2232H7.0168C7.428 13.2144 8.2096 13.0888 8.2096 11.8792C8.2096 10.4448 7.1632 10.4592 7.1632 10.4592H4.2752V13.2232ZM14.5192 7.3504C10.7024 7.3504 10.7056 11.324 10.7056 11.324C10.7056 11.324 10.4448 15.2768 14.5192 15.2768C14.5192 15.2768 17.9136 15.48 17.9136 12.5272H16.168C16.168 12.5272 16.2256 13.64 14.5776 13.64C14.5776 13.64 12.8304 13.7616 12.8304 11.84H17.9688C17.9696 11.8392 18.536 7.3504 14.5192 7.3504ZM12.8128 10.4592H16.072C16.072 10.4592 16.0912 8.8656 14.5584 8.8656C13.0256 8.8656 12.8128 10.4592 12.8128 10.4592ZM16.4776 5.328H12.384V6.6032H16.4776V5.328Z" fill="#FF00FF"/>
</svg>
