<svg width="16" height="16" viewBox="0 0 16 16" fill="none" xmlns="http://www.w3.org/2000/svg">
<g clip-path="url(#clip0_1447_1832)">
<path d="M3.42016 5.24608H5.73056C5.73056 5.24608 6.29248 5.24608 6.29248 6.10624C6.29248 6.96768 5.96224 7.09248 5.5872 7.09248H3.42016V5.24608Z" fill="#FF00FF"/>
<path d="M3.42016 10.5786H5.61344C5.9424 10.5715 6.56768 10.471 6.56768 9.50336C6.56768 8.35584 5.73056 8.36736 5.73056 8.36736H3.42016V10.5786Z" fill="#FF00FF"/>
<path d="M10.2502 8.36736H12.8576C12.8576 8.36736 12.873 7.09248 11.6467 7.09248C10.4205 7.09248 10.2502 8.36736 10.2502 8.36736Z" fill="#FF00FF"/>
<path fill-rule="evenodd" clip-rule="evenodd" d="M2 0C0.895431 0 0 0.895431 0 2V14C0 15.1046 0.895431 16 2 16H14C15.1046 16 16 15.1046 16 14V2C16 0.895431 15.1046 0 14 0H2ZM6.76608 7.55264C6.76608 7.55264 7.97696 7.45856 7.97696 5.97888C7.97696 4.49728 6.98624 3.77664 5.73056 3.77664H1.6V12.0493H5.73056C5.73056 12.0493 8.2528 12.1318 8.2528 9.60704L8.25288 9.60457C8.25588 9.52511 8.33033 7.55264 6.76608 7.55264ZM11.6154 5.88032C8.56192 5.88032 8.56448 9.0592 8.56448 9.0592C8.56448 9.0592 8.35584 12.2214 11.6154 12.2214C11.6154 12.2214 14.3309 12.384 14.3309 10.0218H12.9344C12.9344 10.0218 12.9805 10.912 11.6621 10.912C11.6621 10.912 10.2643 11.0093 10.2643 9.472H14.375C14.375 9.472 14.8288 5.88032 11.6154 5.88032ZM13.1821 4.2624H9.9072V5.28256H13.1821V4.2624Z" fill="#FF00FF"/>
</g>
<defs>
<clipPath id="clip0_1447_1832">
<rect width="16" height="16" fill="white"/>
</clipPath>
</defs>
</svg>
