<svg width="20" height="20" viewBox="0 0 20 20" fill="none" xmlns="http://www.w3.org/2000/svg">
<rect width="20" height="20" rx="2" fill="#005CFF"/>
<path fill-rule="evenodd" clip-rule="evenodd" d="M9.9712 7.47359C9.9712 9.32319 8.4576 9.44079 8.4576 9.44079C10.4129 9.44079 10.3198 11.9064 10.3161 12.0057L10.316 12.0088C10.316 15.1648 7.1632 15.0616 7.1632 15.0616H2V4.72079H7.1632C8.7328 4.72079 9.9712 5.62159 9.9712 7.47359ZM7.1632 6.55759H4.2752V8.86559H6.984C7.4528 8.86559 7.8656 8.70959 7.8656 7.63279C7.8656 6.55759 7.1632 6.55759 7.1632 6.55759ZM7.0168 13.2232H4.2752V10.4592H7.1632C7.1632 10.4592 8.2096 10.4448 8.2096 11.8792C8.2096 13.0888 7.428 13.2144 7.0168 13.2232ZM10.7056 11.324C10.7056 11.324 10.7024 7.35039 14.5192 7.35039C18.536 7.35039 17.9696 11.8392 17.9688 11.84H12.8304C12.8304 13.7616 14.5776 13.64 14.5776 13.64C16.2256 13.64 16.168 12.5272 16.168 12.5272H17.9136C17.9136 15.48 14.5192 15.2768 14.5192 15.2768C10.4448 15.2768 10.7056 11.324 10.7056 11.324ZM16.072 10.4592H12.8128C12.8128 10.4592 13.0256 8.86559 14.5584 8.86559C16.0912 8.86559 16.072 10.4592 16.072 10.4592ZM12.384 5.32799H16.4776V6.60319H12.384V5.32799Z" fill="white"/>
</svg>
