<svg width="16" height="16" viewBox="0 0 16 16" fill="none" xmlns="http://www.w3.org/2000/svg">
<path d="M0.746523 1.06404C0.673541 1.0631 0.601238 1.07814 0.53469 1.10812C0.468142 1.13809 0.408962 1.18227 0.361306 1.23755C0.313649 1.29284 0.278671 1.35788 0.258827 1.42812C0.238984 1.49836 0.234755 1.57209 0.24644 1.64413L2.36929 14.5313C2.39574 14.689 2.47691 14.8323 2.59855 14.9361C2.72018 15.0399 2.8745 15.0976 3.0344 15.0989H13.2186C13.3385 15.1004 13.4549 15.0589 13.5467 14.9818C13.6385 14.9046 13.6995 14.7971 13.7187 14.6788L15.8415 1.64663C15.8532 1.57459 15.849 1.50086 15.8292 1.43062C15.8093 1.36038 15.7743 1.29534 15.7267 1.24005C15.679 1.18477 15.6198 1.14059 15.5533 1.11062C15.4867 1.08064 15.4144 1.0656 15.3415 1.06654L0.746523 1.06404ZM9.68551 10.3781H6.43497L5.55483 5.77982H10.4731L9.68551 10.3781Z" fill="#FF00FF"/>
</svg>
