<svg width="20" height="20" viewBox="0 0 20 20" fill="none" xmlns="http://www.w3.org/2000/svg">
<path fill-rule="evenodd" clip-rule="evenodd" d="M0.456067 1.54806C0.576633 1.4082 0.752872 1.32882 0.937508 1.3312L19.1781 1.33432C19.3628 1.33194 19.539 1.41133 19.6596 1.55118C19.7801 1.69104 19.8327 1.87705 19.8031 2.05932L17.15 18.3468C17.1005 18.6525 16.8346 18.8758 16.525 18.8718H3.79688C3.38437 18.8684 3.03387 18.5693 2.96563 18.1624L0.312508 2.0562C0.282949 1.87393 0.335501 1.68792 0.456067 1.54806ZM8.04688 12.9718H12.1094L13.0938 7.22495H6.94688L8.04688 12.9718Z" fill="#2684FF"/>
<path d="M18.9594 7.22501H13.0938L12.1094 12.9719H8.04688L3.25 18.6656C3.40204 18.7971 3.59588 18.8702 3.79688 18.8719H16.5281C16.8377 18.8759 17.1036 18.6525 17.1531 18.3469L18.9594 7.22501Z" fill="url(#paint0_linear)"/>
<defs>
<linearGradient id="paint0_linear" x1="15.2134" y1="5.24091" x2="8.43758" y2="14.8616" gradientUnits="userSpaceOnUse">
<stop offset="0.18" stop-color="#0052CC"/>
<stop offset="1" stop-color="#2684FF"/>
</linearGradient>
</defs>
</svg>
