<svg width="16" height="16" viewBox="0 0 16 16" fill="none" xmlns="http://www.w3.org/2000/svg">
<path d="M0.746767 1.06401C0.673785 1.06307 0.601482 1.07811 0.534934 1.10809C0.468386 1.13806 0.409206 1.18224 0.36155 1.23752C0.313893 1.29281 0.278915 1.35785 0.259071 1.42809C0.239228 1.49833 0.235 1.57206 0.246684 1.6441L2.36954 14.5313C2.39599 14.689 2.47716 14.8323 2.59879 14.9361C2.72043 15.0399 2.87475 15.0975 3.03465 15.0988H13.2188C13.3387 15.1004 13.4551 15.0588 13.5469 14.9817C13.6387 14.9046 13.6998 14.7971 13.7189 14.6788L15.8418 1.6466C15.8535 1.57456 15.8492 1.50083 15.8294 1.43059C15.8096 1.36035 15.7746 1.29531 15.7269 1.24002C15.6793 1.18474 15.6201 1.14056 15.5535 1.11059C15.487 1.08061 15.4147 1.06557 15.3417 1.06651L0.746767 1.06401ZM9.68576 10.3781H6.43522L5.55507 5.77979H10.4734L9.68576 10.3781Z" fill="#FF00FF"/>
</svg>
