<svg width="16" height="16" viewBox="0 0 16 16" fill="none" xmlns="http://www.w3.org/2000/svg">
<path fill-rule="evenodd" clip-rule="evenodd" d="M0.364951 1.23847C0.461404 1.12659 0.602396 1.06308 0.750104 1.06498L15.3426 1.06748C15.4903 1.06558 15.6313 1.12909 15.7278 1.24097C15.8242 1.35286 15.8663 1.50167 15.8426 1.64748L13.7201 14.6775C13.6805 14.922 13.4678 15.1007 13.2201 15.0975H3.0376C2.7076 15.0947 2.42719 14.8555 2.3726 14.53L0.250104 1.64498C0.226457 1.49917 0.268498 1.35036 0.364951 1.23847ZM6.4376 10.3775H9.6876L10.4751 5.77997H5.5576L6.4376 10.3775Z" fill="#2684FF"/>
<path d="M15.1676 5.78003H10.4751L9.6876 10.3775H6.4376L2.6001 14.9325C2.72173 15.0377 2.8768 15.0962 3.0376 15.0975H13.2226C13.4703 15.1007 13.683 14.9221 13.7226 14.6775L15.1676 5.78003Z" fill="url(#paint0_linear_1447_2925)"/>
<defs>
<linearGradient id="paint0_linear_1447_2925" x1="12.1708" y1="4.19275" x2="6.75017" y2="11.8893" gradientUnits="userSpaceOnUse">
<stop offset="0.18" stop-color="#0052CC"/>
<stop offset="1" stop-color="#2684FF"/>
</linearGradient>
</defs>
</svg>
