<svg width="20" height="20" viewBox="0 0 20 20" fill="none" xmlns="http://www.w3.org/2000/svg">
<g clip-path="url(#clip0)">
<path d="M8.20921 19.887C6.37277 19.4696 5.20412 18.9374 3.87896 17.9357C2.1886 16.6523 0.811269 14.5863 0.25825 12.489C-0.0860832 11.1952 -0.0860832 8.75354 0.25825 7.48055C0.686057 5.93627 1.25995 4.80936 2.29294 3.53637C3.46159 2.09644 5.53802 0.78171 7.47881 0.259994C8.21964 0.0617416 8.62658 0.0200043 9.98304 0.0200043C11.8195 0.0200043 12.7481 0.207822 14.1568 0.865185C14.9602 1.24082 16.2436 2.04426 16.2436 2.17991C16.2436 2.22165 15.4506 2.88944 14.4802 3.66159L12.7273 5.08065L12.1116 4.80936C11.6004 4.56937 11.2978 4.5172 10.3378 4.47546C8.30312 4.39199 7.39533 4.73632 6.018 6.12409C5.30846 6.83362 5.06848 7.15708 4.81805 7.74141C4.51546 8.44051 4.50502 8.53442 4.49459 10.0787L4.48415 11.696L2.89813 12.9899C2.03209 13.7098 1.33299 14.3046 1.35385 14.3255C1.37472 14.3463 2.29294 14.1272 3.39898 13.8351L5.41281 13.2925L6.08061 13.9707C7.23882 15.1289 8.21964 15.515 10.0352 15.515C11.7569 15.515 12.6438 15.1602 13.875 13.9603C14.6889 13.1673 15.2419 12.2073 15.4402 11.216L15.5758 10.5691L17.6523 10.0161C18.8001 9.7135 19.8017 9.46307 19.8748 9.46307C19.9583 9.46307 20 9.69263 20 10.2978C20 12.9377 18.5601 15.9324 16.4836 17.6227C15.1272 18.7288 14.1255 19.2505 12.529 19.6991C11.5899 19.96 9.03352 20.0748 8.20921 19.887Z" fill="#E60800"/>
</g>
<defs>
<clipPath id="clip0">
<rect width="20" height="20" fill="white"/>
</clipPath>
</defs>
</svg>
