<svg width="16" height="16" viewBox="0 0 16 16" fill="none" xmlns="http://www.w3.org/2000/svg">
<g clip-path="url(#clip0_1447_1759)">
<path d="M6.56737 15.9097C5.09821 15.5758 4.1633 15.1501 3.10317 14.3487C1.75088 13.322 0.649015 11.6692 0.2066 9.99133C-0.0688666 8.95625 -0.0688666 7.00294 0.2066 5.98455C0.548846 4.74913 1.00796 3.8476 1.83435 2.82921C2.76927 1.67726 4.43042 0.625478 5.98304 0.208105C6.57571 0.0495031 6.90127 0.0161133 7.98644 0.0161133C9.45559 0.0161133 10.1985 0.166368 11.3254 0.692258C11.9682 0.992767 12.9949 1.63552 12.9949 1.74404C12.9949 1.77743 12.3605 2.31167 11.5842 2.92938L10.1818 4.06463L9.68932 3.8476C9.28029 3.65561 9.03822 3.61387 8.27025 3.58048C6.64249 3.5137 5.91626 3.78917 4.8144 4.89938C4.24677 5.46701 4.05478 5.72578 3.85444 6.19324C3.61236 6.75252 3.60402 6.82764 3.59567 8.06307L3.58732 9.35693L2.31851 10.392C1.62567 10.968 1.06639 11.4438 1.08308 11.4605C1.09978 11.4772 1.83435 11.3019 2.71919 11.0682L4.33025 10.6341L4.86448 11.1767C5.79105 12.1032 6.57571 12.4121 8.02817 12.4121C9.4055 12.4121 10.115 12.1283 11.1 11.1683C11.7511 10.5339 12.1936 9.76595 12.3522 8.97294L12.4607 8.4554L14.1218 8.01298C15.04 7.77091 15.8414 7.57057 15.8998 7.57057C15.9666 7.57057 16 7.75421 16 8.23837C16 10.3503 14.8481 12.746 13.1869 14.0983C12.1017 14.9831 11.3004 15.4005 10.0232 15.7594C9.27194 15.9681 7.22682 16.0599 6.56737 15.9097Z" fill="#FF00FF"/>
</g>
<defs>
<clipPath id="clip0_1447_1759">
<rect width="16" height="16" fill="white"/>
</clipPath>
</defs>
</svg>
