<svg width="16" height="16" viewBox="0 0 16 16" fill="none" xmlns="http://www.w3.org/2000/svg">
<path fill-rule="evenodd" clip-rule="evenodd" d="M8.63811 3.9483L9.9542 5.26439L8.63811 6.58049V3.9483ZM8.63811 12.0517L9.9542 10.7356L8.63811 9.41951V12.0517ZM7.228 8.0094L4.37019 5.13278L5.19745 4.30552L7.47242 6.58049V1.12808L11.6087 5.26439L8.88252 8.0094L11.6275 10.7544L7.49122 14.8907V9.41951L5.19745 11.6945L4.37019 10.8672L7.228 8.0094ZM7.99886 16C11.4959 16 13.9025 14.3455 13.9025 7.9906C13.9025 1.65452 11.4959 0 7.99886 0C4.5018 0 2.09521 1.65452 2.09521 8.0094C2.09521 14.3455 4.5018 16 7.99886 16Z" fill="#FF00FF"/>
</svg>
