<svg width="16" height="16" viewBox="0 0 16 16" fill="none" xmlns="http://www.w3.org/2000/svg">
<rect opacity="0.3" x="3" y="2" width="3" height="12" fill="#FF00FF"/>
<path fill-rule="evenodd" clip-rule="evenodd" d="M3.5 2.25C3.36193 2.25 3.25 2.36193 3.25 2.5V13.5C3.25 13.6381 3.36193 13.75 3.5 13.75H5.5H12.5C12.6381 13.75 12.75 13.6381 12.75 13.5V2.5C12.75 2.36193 12.6381 2.25 12.5 2.25H5.5H3.5ZM1.75 2.5C1.75 1.5335 2.5335 0.75 3.5 0.75H5.5H12.5C13.4665 0.75 14.25 1.5335 14.25 2.5V13.5C14.25 14.4665 13.4665 15.25 12.5 15.25H5.5H3.5C2.5335 15.25 1.75 14.4665 1.75 13.5V2.5Z" fill="#FF00FF"/>
</svg>
