<svg width="20" height="20" viewBox="0 0 20 20" fill="none" xmlns="http://www.w3.org/2000/svg">
<path fill-rule="evenodd" clip-rule="evenodd" d="M14 5.82929C15.1651 5.41745 15.9999 4.30622 15.9999 3C15.9999 1.34315 14.6568 0 12.9999 0C11.3431 0 9.99995 1.34315 9.99995 3C9.99995 4.30622 10.8348 5.41746 12 5.8293V14.1707C11.8996 14.2062 11.8017 14.2468 11.7065 14.2924L8.70759 11.2935C8.89503 10.9018 8.99999 10.4632 8.99999 10C8.99999 8.34315 7.65684 7 5.99999 7C4.34314 7 3 8.34315 3 10C3 11.6569 4.34314 13 5.99999 13C6.46312 13 6.90173 12.8951 7.29335 12.7077L10.2923 15.7066C10.1049 16.0982 9.99995 16.5369 9.99995 17C9.99995 18.6569 11.3431 20 12.9999 20C14.6568 20 15.9999 18.6569 15.9999 17C15.9999 15.6938 15.1651 14.5825 14 14.1707V5.82929ZM7.99999 10C7.99999 11.1046 7.10456 12 5.99999 12C4.89543 12 4 11.1046 4 10C4 8.89543 4.89543 8 5.99999 8C7.10456 8 7.99999 8.89543 7.99999 10Z" fill="#FF00FF"/>
</svg>
