<svg width="16" height="16" viewBox="0 0 16 16" fill="none" xmlns="http://www.w3.org/2000/svg">
<path fill-rule="evenodd" clip-rule="evenodd" d="M11.1999 4.66343C12.132 4.33396 12.7999 3.44497 12.7999 2.4C12.7999 1.07452 11.7253 0 10.3999 0C9.07438 0 7.99986 1.07452 7.99986 2.4C7.99986 3.44498 8.66771 4.33397 9.59986 4.66344V11.3366C9.51956 11.3649 9.44123 11.3975 9.36511 11.4339L6.96597 9.03478C7.11592 8.72146 7.19989 8.37053 7.19989 8C7.19989 6.67452 6.12538 5.6 4.7999 5.6C3.47442 5.6 2.3999 6.67452 2.3999 8C2.3999 9.32548 3.47442 10.4 4.7999 10.4C5.1704 10.4 5.52129 10.316 5.83458 10.1661L8.23375 12.5653C8.08382 12.8786 7.99986 13.2295 7.99986 13.6C7.99986 14.9255 9.07438 16 10.3999 16C11.7253 16 12.7999 14.9255 12.7999 13.6C12.7999 12.555 12.132 11.666 11.1999 11.3366V4.66343ZM6.39989 8C6.39989 8.88366 5.68355 9.6 4.7999 9.6C3.91624 9.6 3.1999 8.88366 3.1999 8C3.1999 7.11634 3.91624 6.4 4.7999 6.4C5.68355 6.4 6.39989 7.11634 6.39989 8Z" fill="#FF00FF"/>
</svg>
