<svg width="16" height="16" viewBox="0 0 16 16" fill="none" xmlns="http://www.w3.org/2000/svg">
<g clip-path="url(#clip0_2224_8287)">
<path fill-rule="evenodd" clip-rule="evenodd" d="M11.75 5.9055C13.0439 5.57247 14 4.39789 14 3.00001C14 1.34315 12.6568 0 11 0C9.34313 0 7.99999 1.34315 7.99999 3.00001C7.99999 4.39789 8.95607 5.57247 10.25 5.9055V10.0945C9.81028 10.2077 9.4096 10.418 9.07218 10.7013L7.28202 9.42262C7.4228 9.05887 7.5 8.66345 7.5 8.25001C7.5 6.45508 6.04493 5 4.25 5C2.45507 5 1 6.45508 1 8.25001C1 10.0449 2.45507 11.5 4.25 11.5C5.08975 11.5 5.85512 11.1815 6.43189 10.6587L8.1997 11.9215C8.0707 12.2562 7.99999 12.6198 7.99999 13C7.99999 14.6569 9.34313 16 11 16C12.6568 16 14 14.6569 14 13C14 11.6021 13.0439 10.4275 11.75 10.0945V5.9055ZM4.25 6.5C3.2835 6.5 2.5 7.2835 2.5 8.25001C2.5 9.21651 3.2835 10 4.25 10C5.2165 10 6 9.21651 6 8.25001C6 7.2835 5.2165 6.5 4.25 6.5Z" fill="#FF00FF"/>
</g>
<defs>
<clipPath id="clip0_2224_8287">
<rect width="16" height="16" fill="white"/>
</clipPath>
</defs>
</svg>
