<svg width="20" height="20" viewBox="0 0 20 20" fill="none" xmlns="http://www.w3.org/2000/svg">
<g clip-path="url(#clip0)">
<path d="M10.4804 9.23897C9.76201 9.54651 8.94675 9.89521 7.89015 9.89521C7.44815 9.89433 7.00827 9.83369 6.58252 9.71494L7.31329 17.2178C7.33915 17.5313 7.48202 17.8237 7.71349 18.0368C7.94497 18.25 8.24814 18.3682 8.56279 18.3682C8.56279 18.3682 9.59894 18.422 9.94469 18.422C10.3168 18.422 11.4326 18.3682 11.4326 18.3682C11.7472 18.3682 12.0503 18.2498 12.2817 18.0367C12.5132 17.8236 12.656 17.5313 12.6818 17.2178L13.4645 8.92685C13.1148 8.8074 12.7617 8.72803 12.3638 8.72803C11.6756 8.72776 11.121 8.96481 10.4804 9.23897Z" fill="#FFDD00"/>
<path d="M4.32056 6.03809L4.33293 6.04966L4.34101 6.05451C4.33479 6.04833 4.32793 6.04282 4.32056 6.03809Z" fill="#FF00FF"/>
<path d="M16.8441 5.34557L16.734 4.79049C16.6353 4.29246 16.4112 3.82188 15.8999 3.64188C15.7361 3.58428 15.5502 3.55955 15.4245 3.44034C15.2989 3.32116 15.2617 3.13604 15.2327 2.96438C15.1788 2.6493 15.1283 2.33396 15.0731 2.01944C15.0255 1.74902 14.9878 1.44526 14.8638 1.19719C14.7023 0.864088 14.3674 0.669287 14.0343 0.540407C13.8636 0.476691 13.6894 0.422791 13.5126 0.378971C12.6803 0.159417 11.8054 0.0786985 10.9492 0.0326891C9.9216 -0.0240152 8.89123 -0.00693094 7.86604 0.0838105C7.10299 0.153228 6.2993 0.237176 5.57418 0.501124C5.30917 0.597717 5.03606 0.713681 4.83454 0.918438C4.58727 1.17001 4.50655 1.55907 4.68709 1.87279C4.81544 2.09557 5.03284 2.25298 5.26343 2.35711C5.56377 2.49127 5.87744 2.59337 6.19922 2.66169C7.09519 2.85972 8.02318 2.93747 8.93852 2.97057C9.95306 3.01151 10.9692 2.97833 11.9789 2.87127C12.2286 2.84383 12.4778 2.81091 12.7266 2.77254C13.0196 2.7276 13.2077 2.34446 13.1213 2.07754C13.018 1.75845 12.7403 1.63468 12.4264 1.68285C12.3801 1.6901 12.3341 1.69683 12.2878 1.70355L12.2544 1.7084C12.1481 1.72186 12.0417 1.7344 11.9353 1.74607C11.7156 1.76974 11.4953 1.78912 11.2745 1.80419C10.78 1.83862 10.2841 1.8545 9.78849 1.85531C9.30149 1.85531 8.81422 1.84158 8.32829 1.80957C8.10659 1.79504 7.88541 1.77656 7.66479 1.75414C7.56443 1.74364 7.46433 1.73262 7.36426 1.72023L7.26899 1.70813L7.24829 1.70518L7.14954 1.69091C6.94774 1.6605 6.74594 1.62554 6.5463 1.58328C6.52616 1.57881 6.50813 1.56762 6.49522 1.55151C6.4823 1.53542 6.47526 1.5154 6.47526 1.49477C6.47526 1.47413 6.4823 1.45411 6.49522 1.43802C6.50813 1.42192 6.52616 1.41071 6.5463 1.40624H6.55007C6.72308 1.36938 6.89742 1.3379 7.07231 1.31046C7.13062 1.30131 7.18909 1.29234 7.24774 1.28355H7.24935C7.35886 1.27629 7.46891 1.25665 7.57788 1.24373C8.52596 1.14512 9.47967 1.1115 10.4324 1.1431C10.8949 1.15656 11.3571 1.18373 11.8175 1.23055C11.9165 1.24077 12.015 1.25154 12.1134 1.26364C12.1511 1.26822 12.189 1.2736 12.227 1.27817L12.3034 1.2892C12.5262 1.32239 12.7478 1.36266 12.9682 1.41001C13.2949 1.48104 13.7144 1.50418 13.8596 1.86203C13.9059 1.97557 13.9269 2.10177 13.9525 2.22095L13.985 2.37298C13.9859 2.3757 13.9865 2.3785 13.9869 2.38131C14.0639 2.74006 14.1409 3.09881 14.218 3.45756C14.2237 3.48407 14.2238 3.51145 14.2184 3.538C14.213 3.56457 14.2022 3.58971 14.1867 3.61192C14.1711 3.6341 14.1512 3.65285 14.128 3.66699C14.1049 3.68113 14.0791 3.69034 14.0523 3.69407H14.0501L14.0031 3.70053L13.9565 3.70671C13.8091 3.72591 13.6614 3.74385 13.5136 3.76053C13.2225 3.79371 12.9309 3.82241 12.6389 3.84663C12.0586 3.89487 11.4772 3.92654 10.8946 3.94161C10.5977 3.94949 10.301 3.95318 10.0043 3.95264C8.82336 3.95171 7.64347 3.88306 6.47043 3.74707C6.34343 3.73201 6.21644 3.71586 6.08943 3.69945C6.18791 3.7121 6.01786 3.68976 5.98343 3.68493C5.90271 3.67362 5.82199 3.66188 5.74127 3.64968C5.47032 3.60904 5.201 3.559 4.93059 3.51514C4.60368 3.46133 4.29103 3.48824 3.99534 3.64968C3.75261 3.7825 3.55616 3.98618 3.43219 4.23354C3.30466 4.49722 3.26672 4.7843 3.20968 5.06763C3.15264 5.35095 3.06385 5.65579 3.09748 5.94665C3.16986 6.57437 3.6087 7.0845 4.23991 7.19859C4.83373 7.30621 5.43078 7.39339 6.02943 7.46765C8.38111 7.75567 10.7569 7.79012 13.116 7.57043C13.3081 7.55249 13.4999 7.53295 13.6915 7.51178C13.7513 7.50521 13.8119 7.51209 13.8687 7.53195C13.9255 7.55181 13.9772 7.58413 14.0199 7.62654C14.0626 7.66894 14.0953 7.72038 14.1156 7.77704C14.1359 7.83373 14.1432 7.89423 14.137 7.95411L14.0773 8.53475C13.957 9.70802 13.8366 10.8812 13.7162 12.0543C13.5907 13.2863 13.4643 14.5181 13.3371 15.7498C13.3013 16.0968 13.2654 16.4436 13.2295 16.7903C13.1951 17.1318 13.1902 17.484 13.1254 17.8214C13.0231 18.352 12.6639 18.6779 12.1398 18.797C11.6596 18.9063 11.1691 18.9637 10.6767 18.9681C10.1307 18.9711 9.58508 18.9468 9.03916 18.9498C8.45636 18.9531 7.74255 18.8993 7.29268 18.4655C6.89742 18.0846 6.8428 17.488 6.78899 16.9722C6.71725 16.2893 6.64613 15.6066 6.57562 14.9239L6.18011 11.1277L5.92424 8.67143C5.91992 8.63081 5.91562 8.59071 5.91159 8.5498C5.88091 8.25681 5.67347 7.96999 5.34655 7.98479C5.06674 7.99715 4.74871 8.23501 4.78153 8.5498L4.97121 10.3708L5.3635 14.1377C5.47526 15.2076 5.58674 16.2777 5.69795 17.3481C5.71949 17.5531 5.73966 17.7587 5.76225 17.9637C5.88522 19.0841 6.74083 19.6879 7.80039 19.8579C8.41924 19.9575 9.05314 19.978 9.68113 19.9881C10.4862 20.0011 11.2993 20.0321 12.0911 19.8862C13.2645 19.6708 14.1448 18.8874 14.2705 17.6721C14.3064 17.3212 14.3423 16.9703 14.3781 16.6192C14.4974 15.4583 14.6165 14.2973 14.7354 13.1362L15.1245 9.34247L15.3029 7.6038C15.3118 7.51758 15.3482 7.43651 15.4067 7.3726C15.4653 7.30869 15.5428 7.26532 15.6279 7.2489C15.9634 7.18352 16.2842 7.07185 16.5228 6.81651C16.9027 6.40998 16.9783 5.87992 16.8441 5.34557ZM4.22269 5.72064C4.2278 5.71822 4.21839 5.76206 4.21435 5.78252C4.21355 5.75157 4.21516 5.72413 4.22269 5.72064ZM4.25525 5.97248C4.25794 5.97059 4.26601 5.98136 4.27435 5.99428C4.26171 5.98242 4.25364 5.97356 4.25498 5.97248H4.25525ZM4.28727 6.01471C4.29884 6.03436 4.30503 6.04674 4.28727 6.01471V6.01471ZM4.35157 6.06691H4.35319C4.35319 6.0688 4.35615 6.07068 4.35722 6.07257C4.35544 6.07049 4.35346 6.0686 4.3513 6.06691H4.35157ZM15.6123 5.98888C15.4918 6.1035 15.3102 6.15678 15.1307 6.18342C13.1181 6.48208 11.0762 6.63329 9.04157 6.56657C7.58541 6.51679 6.1446 6.35507 4.70297 6.1514C4.56171 6.13149 4.40861 6.10566 4.31148 6.00153C4.12852 5.80511 4.21839 5.4096 4.26601 5.17229C4.3096 4.95489 4.39301 4.66511 4.65158 4.63417C5.05517 4.58682 5.52386 4.75712 5.92316 4.81767C6.40388 4.89102 6.8864 4.94977 7.3707 4.9939C9.43762 5.18225 11.5393 5.15292 13.597 4.8774C13.9721 4.82699 14.3458 4.76843 14.7182 4.7017C15.05 4.64224 15.4178 4.53059 15.6182 4.87417C15.7557 5.10826 15.774 5.42144 15.7528 5.68593C15.7462 5.80116 15.6959 5.90954 15.612 5.98888H15.6123Z" fill="#FF00FF"/>
</g>
<defs>
<clipPath id="clip0">
<rect width="20" height="20" fill="white"/>
</clipPath>
</defs>
</svg>
