<svg width="16" height="16" viewBox="0 0 16 16" fill="none" xmlns="http://www.w3.org/2000/svg">
<g clip-path="url(#clip0_1447_1738)">
<path d="M8.38429 7.39118C7.80958 7.63721 7.15737 7.91616 6.31209 7.91616C5.95849 7.91546 5.60659 7.86695 5.26599 7.77195L5.85061 13.7742C5.8713 14.025 5.98559 14.259 6.17077 14.4295C6.35595 14.6 6.59849 14.6946 6.85021 14.6946C6.85021 14.6946 7.67913 14.7376 7.95573 14.7376C8.25341 14.7376 9.14604 14.6946 9.14604 14.6946C9.39774 14.6946 9.64021 14.5999 9.82536 14.4294C10.0105 14.2588 10.1248 14.025 10.1454 13.7742L10.7716 7.14148C10.4918 7.04592 10.2094 6.98242 9.89102 6.98242C9.34042 6.98221 8.89679 7.17184 8.38429 7.39118Z" fill="#FF00FF"/>
<path d="M3.4563 4.83047L3.4662 4.83973L3.47266 4.8436C3.46769 4.83866 3.4622 4.83426 3.4563 4.83047Z" fill="#FF00FF"/>
<path d="M13.4751 4.27645L13.3871 3.83239C13.3081 3.43397 13.1288 3.0575 12.7198 2.9135C12.5887 2.86743 12.44 2.84764 12.3395 2.75228C12.2389 2.65693 12.2092 2.50884 12.186 2.3715C12.1429 2.11944 12.1025 1.86717 12.0583 1.61555C12.0202 1.39922 11.9901 1.15621 11.8909 0.957748C11.7617 0.69127 11.4937 0.53543 11.2273 0.432325C11.0907 0.381353 10.9514 0.338233 10.8099 0.303177C10.1441 0.127533 9.44415 0.0629588 8.75922 0.0261513C7.93713 -0.0192121 7.11284 -0.00554475 6.29268 0.0670484C5.68224 0.122583 5.03929 0.189741 4.4592 0.400899C4.24719 0.478174 4.0287 0.570945 3.86749 0.73475C3.66967 0.936007 3.6051 1.24726 3.74952 1.49823C3.8522 1.67646 4.02613 1.80238 4.21059 1.88569C4.45087 1.99302 4.7018 2.0747 4.95923 2.12935C5.676 2.28777 6.41839 2.34997 7.15067 2.37646C7.9623 2.40921 8.77522 2.38266 9.58298 2.29702C9.78274 2.27506 9.98213 2.24873 10.1812 2.21803C10.4156 2.18208 10.566 1.87557 10.4969 1.66204C10.4143 1.40676 10.1921 1.30775 9.94095 1.34628C9.90392 1.35208 9.86711 1.35746 9.83008 1.36284L9.8034 1.36672C9.7183 1.37749 9.63321 1.38752 9.54811 1.39685C9.37233 1.41579 9.19611 1.43129 9.01946 1.44335C8.62383 1.4709 8.22713 1.4836 7.83065 1.48425C7.44104 1.48425 7.05123 1.47326 6.66249 1.44766C6.48512 1.43603 6.30818 1.42125 6.13168 1.40331C6.0514 1.39491 5.97132 1.3861 5.89126 1.37619L5.81505 1.36651L5.79849 1.36414L5.71949 1.35273C5.55805 1.3284 5.39661 1.30043 5.2369 1.26663C5.22078 1.26305 5.20636 1.25409 5.19603 1.24121C5.18569 1.22834 5.18006 1.21232 5.18006 1.19581C5.18006 1.1793 5.18569 1.16329 5.19603 1.15041C5.20636 1.13754 5.22078 1.12857 5.2369 1.125H5.23991C5.37832 1.09551 5.51779 1.07032 5.6577 1.04837C5.70435 1.04105 5.75112 1.03387 5.79805 1.02684H5.79934C5.88694 1.02103 5.97499 1.00532 6.06215 0.994985C6.82062 0.916093 7.58359 0.889196 8.34574 0.914482C8.71574 0.925245 9.08554 0.946985 9.45383 0.984438C9.53304 0.992618 9.61183 1.00123 9.6906 1.01091C9.72074 1.01457 9.75109 1.01888 9.78145 1.02254L9.84257 1.03136C10.0208 1.05791 10.1981 1.09013 10.3744 1.12801C10.6358 1.18484 10.9713 1.20335 11.0876 1.48963C11.1246 1.58046 11.1414 1.68141 11.1618 1.77676L11.1879 1.89838C11.1886 1.90056 11.1891 1.9028 11.1894 1.90505C11.2509 2.19205 11.3126 2.47905 11.3743 2.76605C11.3788 2.78725 11.3789 2.80916 11.3746 2.8304C11.3703 2.85165 11.3616 2.87177 11.3492 2.88953C11.3367 2.90728 11.3208 2.92228 11.3023 2.93359C11.2838 2.9449 11.2632 2.95227 11.2417 2.95526H11.24L11.2023 2.96043L11.1651 2.96537C11.0471 2.98073 10.929 2.99508 10.8108 3.00843C10.5779 3.03497 10.3446 3.05793 10.111 3.0773C9.64677 3.1159 9.18162 3.14123 8.71553 3.15329C8.47804 3.15959 8.24062 3.16255 8.00327 3.16211C7.05854 3.16137 6.11463 3.10645 5.1762 2.99765C5.07459 2.98561 4.973 2.97269 4.8714 2.95956C4.95019 2.96968 4.81414 2.95181 4.78659 2.94794C4.72202 2.9389 4.65744 2.9295 4.59287 2.91974C4.37611 2.88723 4.16066 2.8472 3.94432 2.81211C3.6828 2.76906 3.43268 2.79059 3.19612 2.91974C3.00194 3.026 2.84478 3.18894 2.74561 3.38683C2.64358 3.59777 2.61323 3.82744 2.5676 4.0541C2.52196 4.28076 2.45093 4.52463 2.47784 4.75732C2.53574 5.2595 2.88681 5.6676 3.39178 5.75887C3.86684 5.84497 4.34447 5.91471 4.8234 5.97412C6.70474 6.20454 8.60539 6.23209 10.4926 6.05634C10.6463 6.042 10.7998 6.02636 10.953 6.00942C11.0009 6.00417 11.0493 6.00967 11.0948 6.02556C11.1403 6.04144 11.1816 6.0673 11.2158 6.10123C11.25 6.13516 11.2761 6.1763 11.2923 6.22164C11.3085 6.26698 11.3144 6.31538 11.3095 6.36328L11.2617 6.8278C11.1654 7.76642 11.0691 8.70498 10.9728 9.64346C10.8724 10.629 10.7713 11.6145 10.6696 12.5998C10.6409 12.8774 10.6122 13.1549 10.5835 13.4322C10.5559 13.7055 10.552 13.9872 10.5002 14.2571C10.4184 14.6816 10.131 14.9423 9.7117 15.0376C9.32755 15.1251 8.93512 15.171 8.54118 15.1745C8.10444 15.1769 7.66792 15.1575 7.23118 15.1598C6.76494 15.1625 6.19389 15.1194 5.834 14.7724C5.51779 14.4677 5.47409 13.9904 5.43105 13.5777C5.37365 13.0314 5.31676 12.4852 5.26035 11.9391L4.73925 6.93715C4.73579 6.90464 4.73235 6.87257 4.72912 6.83984C4.70458 6.60545 4.53863 6.37599 4.2771 6.38783C4.05325 6.39772 3.79882 6.58801 3.82508 6.83984L4.29066 11.3101C4.38006 12.1661 4.46925 13.0222 4.55822 13.8785C4.57544 14.0425 4.59158 14.207 4.60966 14.371C4.70803 15.2673 5.39252 15.7503 6.24017 15.8863C6.73524 15.966 7.24236 15.9824 7.74476 15.9905C8.38878 16.0009 9.03927 16.0256 9.67274 15.9089C10.6114 15.7367 11.3157 15.1099 11.4162 14.1377C11.445 13.857 11.4737 13.5762 11.5024 13.2954C11.5978 12.3667 11.6931 11.4378 11.7882 10.509L12.2422 6.08304C12.2493 6.01406 12.2784 5.94921 12.3252 5.89808C12.3721 5.84696 12.4341 5.81225 12.5022 5.79912C12.7706 5.74681 13.0272 5.65748 13.2181 5.45321C13.522 5.12798 13.5825 4.70394 13.4751 4.27645ZM3.37801 4.57651C3.3821 4.57457 3.37456 4.60965 3.37134 4.62601C3.37069 4.60126 3.37198 4.5793 3.37801 4.57651ZM3.40405 4.77798C3.40621 4.77647 3.41266 4.78509 3.41934 4.79542C3.40922 4.78594 3.40298 4.77885 3.40405 4.77798ZM3.42967 4.81177C3.43892 4.82748 3.44387 4.83739 3.42967 4.81177V4.81177ZM3.48111 4.85353H3.4824C3.4824 4.85504 3.48477 4.85654 3.48563 4.85806C3.4842 4.85639 3.48283 4.85488 3.48111 4.85353ZM12.4897 4.79111C12.3933 4.8828 12.248 4.92542 12.1044 4.94674C10.4943 5.18566 8.86083 5.30663 7.23311 5.25325C6.06818 5.21344 4.91553 5.08406 3.76223 4.92112C3.64922 4.90519 3.52674 4.88453 3.44904 4.80123C3.30267 4.64409 3.37456 4.32768 3.41266 4.13783C3.44753 3.96391 3.51426 3.73209 3.72111 3.70733C4.04399 3.66945 4.41895 3.8057 4.73838 3.85414C5.12296 3.91282 5.50897 3.95982 5.89641 3.99512C7.54995 4.1458 9.23127 4.12233 10.8775 3.90192C11.1775 3.86159 11.4765 3.81474 11.7744 3.76136C12.0398 3.71379 12.3341 3.62447 12.4944 3.89933C12.6044 4.08661 12.6191 4.33715 12.6021 4.54874C12.5968 4.64093 12.5568 4.72763 12.4897 4.79111Z" fill="#FF00FF"/>
</g>
<defs>
<clipPath id="clip0_1447_1738">
<rect width="16" height="16" fill="white"/>
</clipPath>
</defs>
</svg>
