<svg width="16" height="16" viewBox="0 0 16 16" fill="none" xmlns="http://www.w3.org/2000/svg">
<g clip-path="url(#clip0_1447_2889)">
<path d="M8.38441 7.39118C7.8097 7.63721 7.1575 7.91616 6.31221 7.91616C5.95861 7.91546 5.60672 7.86695 5.26611 7.77195L5.85073 13.7742C5.87142 14.025 5.98571 14.259 6.17089 14.4295C6.35607 14.6 6.59861 14.6946 6.85033 14.6946C6.85033 14.6946 7.67925 14.7376 7.95585 14.7376C8.25353 14.7376 9.14617 14.6946 9.14617 14.6946C9.39786 14.6946 9.64034 14.5999 9.82548 14.4294C10.0106 14.2588 10.1249 14.025 10.1456 13.7742L10.7717 7.14148C10.4919 7.04592 10.2095 6.98242 9.89114 6.98242C9.34054 6.98221 8.89691 7.17184 8.38441 7.39118Z" fill="#FFDD00"/>
<path d="M3.45654 4.83057L3.46644 4.83982L3.4729 4.8437C3.46793 4.83876 3.46245 4.83436 3.45654 4.83057Z" fill="#0D0C22"/>
<path d="M13.4754 4.27645L13.3873 3.83239C13.3083 3.43397 13.129 3.0575 12.72 2.9135C12.589 2.86743 12.4402 2.84764 12.3397 2.75228C12.2392 2.65693 12.2095 2.50884 12.1862 2.3715C12.1432 2.11944 12.1027 1.86717 12.0586 1.61555C12.0205 1.39922 11.9904 1.15621 11.8911 0.957748C11.762 0.69127 11.494 0.53543 11.2275 0.432325C11.091 0.381353 10.9516 0.338233 10.8101 0.303177C10.1444 0.127533 9.44439 0.0629588 8.75947 0.0261513C7.93738 -0.0192121 7.11308 -0.00554475 6.29293 0.0670484C5.68249 0.122583 5.03954 0.189741 4.45945 0.400899C4.24743 0.478174 4.02895 0.570945 3.86773 0.73475C3.66991 0.936007 3.60534 1.24726 3.74977 1.49823C3.85245 1.67646 4.02637 1.80238 4.21084 1.88569C4.45111 1.99302 4.70205 2.0747 4.95947 2.12935C5.67625 2.28777 6.41864 2.34997 7.15091 2.37646C7.96254 2.40921 8.77547 2.38266 9.58322 2.29702C9.78298 2.27506 9.98237 2.24873 10.1814 2.21803C10.4158 2.18208 10.5663 1.87557 10.4972 1.66204C10.4145 1.40676 10.1924 1.30775 9.94119 1.34628C9.90416 1.35208 9.86736 1.35746 9.83033 1.36284L9.80365 1.36672C9.71854 1.37749 9.63345 1.38752 9.54836 1.39685C9.37257 1.41579 9.19636 1.43129 9.01971 1.44335C8.62407 1.4709 8.22738 1.4836 7.83089 1.48425C7.44129 1.48425 7.05147 1.47326 6.66273 1.44766C6.48537 1.43603 6.30843 1.42125 6.13193 1.40331C6.05164 1.39491 5.97156 1.3861 5.8915 1.37619L5.81529 1.36651L5.79873 1.36414L5.71973 1.35273C5.55829 1.3284 5.39685 1.30043 5.23714 1.26663C5.22103 1.26305 5.2066 1.25409 5.19627 1.24121C5.18594 1.22834 5.18031 1.21232 5.18031 1.19581C5.18031 1.1793 5.18594 1.16329 5.19627 1.15041C5.2066 1.13754 5.22103 1.12857 5.23714 1.125H5.24016C5.37856 1.09551 5.51803 1.07032 5.65794 1.04837C5.70459 1.04105 5.75137 1.03387 5.79829 1.02684H5.79958C5.88719 1.02103 5.97523 1.00532 6.0624 0.994985C6.82087 0.916093 7.58384 0.889196 8.34598 0.914482C8.71598 0.925245 9.08579 0.946985 9.45407 0.984438C9.53329 0.992618 9.61207 1.00123 9.69085 1.01091C9.72098 1.01457 9.75133 1.01888 9.78169 1.02254L9.84281 1.03136C10.021 1.05791 10.1983 1.09013 10.3747 1.12801C10.636 1.18484 10.9716 1.20335 11.0878 1.48963C11.1248 1.58046 11.1416 1.68141 11.1621 1.77676L11.1881 1.89838C11.1888 1.90056 11.1893 1.9028 11.1896 1.90505C11.2512 2.19205 11.3128 2.47905 11.3745 2.76605C11.3791 2.78725 11.3792 2.80916 11.3748 2.8304C11.3705 2.85165 11.3619 2.87177 11.3494 2.88953C11.337 2.90728 11.321 2.92228 11.3025 2.93359C11.284 2.9449 11.2634 2.95227 11.2419 2.95526H11.2402L11.2025 2.96043L11.1653 2.96537C11.0473 2.98073 10.9292 2.99508 10.811 3.00843C10.5781 3.03497 10.3448 3.05793 10.1112 3.0773C9.64701 3.1159 9.18186 3.14123 8.71577 3.15329C8.47829 3.15959 8.24086 3.16255 8.00351 3.16211C7.05879 3.16137 6.11488 3.10645 5.17644 2.99765C5.07484 2.98561 4.97325 2.97269 4.87164 2.95956C4.95043 2.96968 4.81439 2.95181 4.78684 2.94794C4.72226 2.9389 4.65769 2.9295 4.59311 2.91974C4.37636 2.88723 4.1609 2.8472 3.94457 2.81211C3.68304 2.76906 3.43292 2.79059 3.19637 2.91974C3.00219 3.026 2.84503 3.18894 2.74585 3.38683C2.64382 3.59777 2.61347 3.82744 2.56784 4.0541C2.52221 4.28076 2.45118 4.52463 2.47808 4.75732C2.53598 5.2595 2.88705 5.6676 3.39203 5.75887C3.86708 5.84497 4.34472 5.91471 4.82364 5.97412C6.70499 6.20454 8.60564 6.23209 10.4929 6.05634C10.6466 6.042 10.8 6.02636 10.9533 6.00942C11.0012 6.00417 11.0496 6.00967 11.0951 6.02556C11.1405 6.04144 11.1818 6.0673 11.216 6.10123C11.2502 6.13516 11.2763 6.1763 11.2926 6.22164C11.3088 6.26698 11.3147 6.31538 11.3097 6.36328L11.2619 6.8278C11.1657 7.76642 11.0694 8.70498 10.9731 9.64346C10.8726 10.629 10.7715 11.6145 10.6698 12.5998C10.6411 12.8774 10.6124 13.1549 10.5837 13.4322C10.5561 13.7055 10.5523 13.9872 10.5004 14.2571C10.4186 14.6816 10.1313 14.9423 9.71195 15.0376C9.3278 15.1251 8.93537 15.171 8.54142 15.1745C8.10468 15.1769 7.66816 15.1575 7.23142 15.1598C6.76518 15.1625 6.19414 15.1194 5.83424 14.7724C5.51804 14.4677 5.47434 13.9904 5.43129 13.5777C5.3739 13.0314 5.317 12.4852 5.2606 11.9391L4.94419 8.90214L4.73949 6.93715C4.73604 6.90464 4.7326 6.87257 4.72937 6.83984C4.70482 6.60545 4.53887 6.37599 4.27734 6.38783C4.05349 6.39772 3.79907 6.58801 3.82533 6.83984L3.97707 8.29666L4.2909 11.3101C4.38031 12.1661 4.46949 13.0222 4.55846 13.8785C4.57569 14.0425 4.59182 14.207 4.6099 14.371C4.70828 15.2673 5.39276 15.7503 6.24041 15.8863C6.73549 15.966 7.24261 15.9824 7.745 15.9905C8.38903 16.0009 9.03951 16.0256 9.67298 15.9089C10.6117 15.7367 11.316 15.1099 11.4165 14.1377C11.4452 13.857 11.4739 13.5762 11.5026 13.2954C11.598 12.3666 11.6933 11.4378 11.7884 10.509L12.0997 7.47398L12.2424 6.08304C12.2495 6.01406 12.2786 5.94921 12.3255 5.89808C12.3723 5.84696 12.4344 5.81225 12.5024 5.79912C12.7708 5.74681 13.0274 5.65748 13.2184 5.45321C13.5223 5.12798 13.5828 4.70394 13.4754 4.27645ZM3.37825 4.57651C3.38234 4.57457 3.37481 4.60965 3.37158 4.62601C3.37093 4.60126 3.37222 4.5793 3.37825 4.57651ZM3.4043 4.77798C3.40645 4.77647 3.41291 4.78509 3.41958 4.79542C3.40946 4.78594 3.40301 4.77885 3.40408 4.77798H3.4043ZM3.42991 4.81177C3.43917 4.82748 3.44412 4.83739 3.42991 4.81177V4.81177ZM3.48136 4.85353H3.48265C3.48265 4.85504 3.48502 4.85654 3.48588 4.85806C3.48445 4.85639 3.48286 4.85488 3.48114 4.85353H3.48136ZM12.4899 4.79111C12.3935 4.8828 12.2482 4.92542 12.1046 4.94674C10.4946 5.18566 8.86107 5.30663 7.23335 5.25325C6.06843 5.21344 4.91578 5.08406 3.76248 4.92112C3.64947 4.90519 3.52699 4.88453 3.44928 4.80123C3.30291 4.64409 3.37481 4.32768 3.41291 4.13783C3.44778 3.96391 3.5145 3.73209 3.72136 3.70733C4.04423 3.66945 4.41919 3.8057 4.73863 3.85414C5.1232 3.91282 5.50922 3.95982 5.89666 3.99512C7.5502 4.1458 9.23151 4.12233 10.8777 3.90192C11.1778 3.86159 11.4768 3.81474 11.7747 3.76136C12.0401 3.71379 12.3343 3.62447 12.4947 3.89933C12.6047 4.08661 12.6193 4.33715 12.6023 4.54874C12.5971 4.64093 12.5568 4.72763 12.4897 4.79111H12.4899Z" fill="#0D0C22"/>
</g>
<defs>
<clipPath id="clip0_1447_2889">
<rect width="16" height="16" fill="white"/>
</clipPath>
</defs>
</svg>
