<svg width="20" height="20" viewBox="0 0 20 20" fill="none" xmlns="http://www.w3.org/2000/svg">
<path fill-rule="evenodd" clip-rule="evenodd" d="M5.33325 0.833333V0.625C5.33325 0.348858 5.55711 0.125 5.83325 0.125C6.10939 0.125 6.33325 0.348858 6.33325 0.625V0.833333H13.6666V0.625C13.6666 0.348858 13.8904 0.125 14.1666 0.125C14.4427 0.125 14.6666 0.348858 14.6666 0.625V0.833333H17.0833C18.2338 0.833333 19.1666 1.76607 19.1666 2.91667V17.0833C19.1666 18.2339 18.2338 19.1667 17.0833 19.1667H2.91659C1.76599 19.1667 0.833252 18.2339 0.833252 17.0833V2.91667C0.833252 1.76607 1.76599 0.833333 2.91659 0.833333H5.33325ZM6.33325 1.83333H13.6666V3.33333C13.6666 3.60948 13.8904 3.83333 14.1666 3.83333C14.4427 3.83333 14.6666 3.60948 14.6666 3.33333V1.83333H17.0833L17.2013 1.83969C17.7441 1.89851 18.1666 2.35825 18.1666 2.91667V17.0833C18.1666 17.6816 17.6816 18.1667 17.0833 18.1667H2.91659C2.31828 18.1667 1.83325 17.6816 1.83325 17.0833V2.91667C1.83325 2.31836 2.31828 1.83333 2.91659 1.83333H5.33325V3.33333C5.33325 3.60948 5.55711 3.83333 5.83325 3.83333C6.10939 3.83333 6.33325 3.60948 6.33325 3.33333V1.83333ZM8.25182 8.0519C9.47844 6.82528 11.4507 6.7798 12.7309 7.94042C12.7923 7.99606 12.797 8.09092 12.7413 8.1523C12.6857 8.21368 12.5908 8.21832 12.5294 8.16268C11.3676 7.10938 9.57732 7.15066 8.46395 8.26404C7.3119 9.41608 7.3119 11.2839 8.46395 12.436C9.56798 13.54 11.3395 13.5908 12.5029 12.5611C12.565 12.5062 12.6598 12.5119 12.7147 12.574C12.7696 12.636 12.7638 12.7308 12.7018 12.7857C11.4197 13.9204 9.46815 13.8644 8.25182 12.6481C6.98261 11.3789 6.98261 9.32111 8.25182 8.0519Z" fill="#FF00FF"/>
</svg>
