<svg width="16" height="16" viewBox="0 0 16 16" fill="none" xmlns="http://www.w3.org/2000/svg">
<g clip-path="url(#clip0_1447_1836)">
<path d="M6.6016 6.4415C7.5829 5.4602 9.16071 5.42382 10.1849 6.35231C10.234 6.39682 10.2377 6.47271 10.1932 6.52181C10.1487 6.57092 10.0728 6.57463 10.0237 6.53012C9.09422 5.68748 7.662 5.72051 6.77131 6.6112C5.84967 7.53284 5.84967 9.02711 6.77131 9.94875C7.65453 10.832 9.07173 10.8726 10.0025 10.0488C10.0521 10.0049 10.128 10.0095 10.1719 10.0592C10.2158 10.1088 10.2112 10.1846 10.1616 10.2285C9.13592 11.1363 7.57467 11.0915 6.6016 10.1185C5.58624 9.10309 5.58624 7.45686 6.6016 6.4415Z" fill="#FF00FF"/>
<path fill-rule="evenodd" clip-rule="evenodd" d="M4.26675 0.666642V0.499976C4.26675 0.279062 4.44583 0.0999756 4.66675 0.0999756C4.88766 0.0999756 5.06675 0.279062 5.06675 0.499976V0.666642H10.9334V0.499976C10.9334 0.279062 11.1125 0.0999756 11.3334 0.0999756C11.5543 0.0999756 11.7334 0.279062 11.7334 0.499976V0.666642H13.6667C14.5872 0.666642 15.3334 1.41283 15.3334 2.33331V13.6666C15.3334 14.5871 14.5872 15.3333 13.6667 15.3333H2.33341C1.41294 15.3333 0.666748 14.5871 0.666748 13.6666V2.33331C0.666748 1.41283 1.41294 0.666642 2.33341 0.666642H4.26675ZM5.06675 1.46664H10.9334V2.66664C10.9334 2.88756 11.1125 3.06664 11.3334 3.06664C11.5543 3.06664 11.7334 2.88756 11.7334 2.66664V1.46664H13.6667L13.7612 1.47173C14.1954 1.51878 14.5334 1.88657 14.5334 2.33331V13.6666C14.5334 14.1453 14.1454 14.5333 13.6667 14.5333H2.33341C1.85477 14.5333 1.46675 14.1453 1.46675 13.6666V2.33331C1.46675 1.85466 1.85477 1.46664 2.33341 1.46664H4.26675V2.66664C4.26675 2.88756 4.44583 3.06664 4.66675 3.06664C4.88766 3.06664 5.06675 2.88756 5.06675 2.66664V1.46664Z" fill="#FF00FF"/>
</g>
<defs>
<clipPath id="clip0_1447_1836">
<rect width="16" height="16" fill="white"/>
</clipPath>
</defs>
</svg>
