<svg width="16" height="16" viewBox="0 0 16 16" fill="none" xmlns="http://www.w3.org/2000/svg">
<path fill-rule="evenodd" clip-rule="evenodd" d="M4.3 1.99999V0.799988H5.3V1.99999H10.7V0.799988H11.7V1.99999H12C13.1046 1.99999 14 2.89542 14 3.99999V12C14 13.1046 13.1046 14 12 14H4C2.89543 14 2 13.1046 2 12V3.99999C2 2.89542 2.89543 1.99999 4 1.99999H4.3ZM4.3 2.79999H4C3.33726 2.79999 2.8 3.33725 2.8 3.99999V12C2.8 12.6627 3.33726 13.2 4 13.2H12C12.6627 13.2 13.2 12.6627 13.2 12V3.99999C13.2 3.33725 12.6627 2.79999 12 2.79999H11.7V5.59999H10.7V2.79999H5.3V5.59999H4.3V2.79999Z" fill="#FF00FF"/>
</svg>
