<svg width="20" height="20" viewBox="0 0 20 20" fill="none" xmlns="http://www.w3.org/2000/svg">
<path fill-rule="evenodd" clip-rule="evenodd" d="M5.5 2.5V1H6.5V2.5H13.5V1H14.5V2.5H15C16.3807 2.5 17.5 3.61929 17.5 5V15C17.5 16.3807 16.3807 17.5 15 17.5H5C3.61929 17.5 2.5 16.3807 2.5 15V5C2.5 3.61929 3.61929 2.5 5 2.5H5.5ZM5.5 3.5H5C4.17157 3.5 3.5 4.17157 3.5 5V15C3.5 15.8284 4.17157 16.5 5 16.5H15C15.8284 16.5 16.5 15.8284 16.5 15V5C16.5 4.17157 15.8284 3.5 15 3.5H14.5V7H13.5V3.5H6.5V7H5.5V3.5Z" fill="#FF00FF"/>
</svg>
