<svg width="16" height="16" viewBox="0 0 16 16" fill="none" xmlns="http://www.w3.org/2000/svg">
<path fill-rule="evenodd" clip-rule="evenodd" d="M4.3 2V0.800003H5.3V2H10.7V0.800003H11.7V2H12C13.1046 2 14 2.89543 14 4V12C14 13.1046 13.1046 14 12 14H4C2.89543 14 2 13.1046 2 12V4C2 2.89543 2.89543 2 4 2H4.3ZM4.3 2.8H4C3.33726 2.8 2.8 3.33726 2.8 4V12C2.8 12.6627 3.33726 13.2 4 13.2H12C12.6627 13.2 13.2 12.6627 13.2 12V4C13.2 3.33726 12.6627 2.8 12 2.8H11.7V5.6H10.7V2.8H5.3V5.6H4.3V2.8Z" fill="#FF00FF"/>
</svg>
