<svg width="16" height="16" viewBox="0 0 16 16" fill="none" xmlns="http://www.w3.org/2000/svg">
<g clip-path="url(#clip0_1447_1836)">
<path d="M6.6016 6.44153C7.5829 5.46023 9.16071 5.42385 10.1849 6.35234C10.234 6.39686 10.2377 6.47274 10.1932 6.52184C10.1487 6.57095 10.0728 6.57466 10.0237 6.53015C9.09422 5.68751 7.662 5.72054 6.77131 6.61123C5.84967 7.53287 5.84967 9.02714 6.77131 9.94878C7.65453 10.832 9.07173 10.8726 10.0025 10.0489C10.0521 10.0049 10.128 10.0096 10.1719 10.0592C10.2158 10.1088 10.2112 10.1846 10.1616 10.2286C9.13592 11.1363 7.57467 11.0916 6.6016 10.1185C5.58624 9.10312 5.58624 7.45689 6.6016 6.44153Z" fill="#FF00FF"/>
<path fill-rule="evenodd" clip-rule="evenodd" d="M4.26675 0.666673V0.500006C4.26675 0.279092 4.44583 0.100006 4.66675 0.100006C4.88766 0.100006 5.06675 0.279092 5.06675 0.500006V0.666673H10.9334V0.500006C10.9334 0.279092 11.1125 0.100006 11.3334 0.100006C11.5543 0.100006 11.7334 0.279092 11.7334 0.500006V0.666673H13.6667C14.5872 0.666673 15.3334 1.41286 15.3334 2.33334V13.6667C15.3334 14.5871 14.5872 15.3333 13.6667 15.3333H2.33341C1.41294 15.3333 0.666748 14.5871 0.666748 13.6667V2.33334C0.666748 1.41286 1.41294 0.666673 2.33341 0.666673H4.26675ZM5.06675 1.46667H10.9334V2.66667C10.9334 2.88759 11.1125 3.06667 11.3334 3.06667C11.5543 3.06667 11.7334 2.88759 11.7334 2.66667V1.46667H13.6667L13.7612 1.47176C14.1954 1.51881 14.5334 1.8866 14.5334 2.33334V13.6667C14.5334 14.1453 14.1454 14.5333 13.6667 14.5333H2.33341C1.85477 14.5333 1.46675 14.1453 1.46675 13.6667V2.33334C1.46675 1.85469 1.85477 1.46667 2.33341 1.46667H4.26675V2.66667C4.26675 2.88759 4.44583 3.06667 4.66675 3.06667C4.88766 3.06667 5.06675 2.88759 5.06675 2.66667V1.46667Z" fill="#FF00FF"/>
</g>
<defs>
<clipPath id="clip0_1447_1836">
<rect width="16" height="16" fill="white"/>
</clipPath>
</defs>
</svg>
