<svg width="16" height="16" viewBox="0 0 16 16" fill="none" xmlns="http://www.w3.org/2000/svg">
<path fill-rule="evenodd" clip-rule="evenodd" d="M14.721 4.02979C14.4335 3.72864 14.0366 3.5507 13.5848 3.5507H11.3126V3.52332C11.3126 3.18112 11.1757 2.8526 10.943 2.63359C10.7103 2.40089 10.3955 2.26401 10.0533 2.26401H5.94682C5.59092 2.26401 5.27609 2.40089 5.04339 2.63359C4.8107 2.86629 4.67381 3.18112 4.67381 3.52332V3.5507H2.41526C1.96355 3.5507 1.56659 3.72864 1.27914 4.02979C0.991684 4.31724 0.800049 4.72788 0.800049 5.16591V11.9826C0.800049 12.4343 0.977996 12.8313 1.27914 13.1187C1.56659 13.4062 1.97724 13.5978 2.41526 13.5978H13.5848C14.0366 13.5978 14.4335 13.4199 14.721 13.1187C15.0084 12.8313 15.2 12.4207 15.2 11.9826V5.16591C15.2 4.7142 15.0221 4.31724 14.721 4.02979ZM14.4883 11.9826H14.4746C14.4746 12.229 14.3788 12.448 14.2145 12.6123C14.0502 12.7765 13.8312 12.8724 13.5848 12.8724H2.41526C2.16887 12.8724 1.94986 12.7765 1.7856 12.6123C1.62134 12.448 1.52552 12.229 1.52552 11.9826V5.16591C1.52552 4.91952 1.62134 4.70051 1.7856 4.53625C1.94986 4.37199 2.16887 4.27617 2.41526 4.27617H5.05708C5.26241 4.27617 5.42666 4.11191 5.42666 3.90659V3.50963C5.42666 3.35906 5.48142 3.22218 5.57724 3.12636C5.67305 3.03055 5.80993 2.97579 5.96051 2.97579H10.0533C10.2039 2.97579 10.3407 3.03055 10.4366 3.12636C10.5324 3.22218 10.5871 3.35906 10.5871 3.50963V3.90659C10.5871 4.11191 10.7514 4.27617 10.9567 4.27617H13.5985C13.8449 4.27617 14.0639 4.37199 14.2282 4.53625C14.3924 4.70051 14.4883 4.91952 14.4883 5.16591V11.9826ZM7.99999 5.20698C7.06919 5.20698 6.22052 5.59025 5.61824 6.19253C5.00227 6.8085 4.63269 7.64348 4.63269 8.57427C4.63269 9.50507 5.01596 10.3537 5.61824 10.956C6.23421 11.572 7.06919 11.9416 7.99999 11.9416C8.93079 11.9416 9.77946 11.5583 10.3817 10.956C10.9977 10.34 11.3673 9.50507 11.3673 8.57427C11.3673 7.64348 10.984 6.79481 10.3817 6.19253C9.77946 5.59025 8.93079 5.20698 7.99999 5.20698ZM9.86159 10.4496C9.3825 10.915 8.72547 11.2161 7.99999 11.2161C7.27452 11.2161 6.61748 10.915 6.13839 10.4496C5.65931 9.97047 5.37185 9.31344 5.37185 8.58796C5.37185 7.86249 5.673 7.20545 6.13839 6.72637C6.61748 6.24728 7.27452 5.95983 7.99999 5.95983C8.72547 5.95983 9.3825 6.26097 9.86159 6.72637C10.3407 7.20545 10.6281 7.86249 10.6281 8.58796C10.6418 9.31344 10.3407 9.97047 9.86159 10.4496ZM13.5438 5.86401C13.5438 6.23444 13.2435 6.53474 12.8731 6.53474C12.5027 6.53474 12.2024 6.23444 12.2024 5.86401C12.2024 5.49358 12.5027 5.19329 12.8731 5.19329C13.2435 5.19329 13.5438 5.49358 13.5438 5.86401Z" fill="#FF00FF"/>
</svg>
