<svg width="20" height="20" viewBox="0 0 20 20" fill="none" xmlns="http://www.w3.org/2000/svg">
<path d="M18.4011 5.03718C18.0418 4.66075 17.5456 4.43832 16.981 4.43832H14.1407V4.4041C14.1407 3.97634 13.9696 3.5657 13.6787 3.29193C13.3878 3.00106 12.9943 2.82996 12.5665 2.82996H7.43346C6.98859 2.82996 6.59506 3.00106 6.30418 3.29193C6.01331 3.58281 5.84221 3.97634 5.84221 4.4041V4.43832H3.01901C2.45437 4.43832 1.95817 4.66075 1.59886 5.03718C1.23954 5.39649 1 5.9098 1 6.45733V14.9782C1 15.5429 1.22243 16.0391 1.59886 16.3984C1.95817 16.7577 2.47148 16.9972 3.01901 16.9972H16.981C17.5456 16.9972 18.0418 16.7748 18.4011 16.3984C18.7605 16.0391 19 15.5258 19 14.9782V6.45733C19 5.89269 18.7776 5.39649 18.4011 5.03718ZM18.1103 14.9782H18.0932C18.0932 15.2862 17.9734 15.56 17.7681 15.7653C17.5627 15.9706 17.289 16.0904 16.981 16.0904H3.01901C2.71103 16.0904 2.43726 15.9706 2.23194 15.7653C2.02662 15.56 1.90684 15.2862 1.90684 14.9782V6.45733C1.90684 6.14934 2.02662 5.87558 2.23194 5.67026C2.43726 5.46493 2.71103 5.34516 3.01901 5.34516H6.32129C6.57795 5.34516 6.78327 5.13984 6.78327 4.88319V4.38699C6.78327 4.19878 6.85171 4.02767 6.97148 3.9079C7.09126 3.78813 7.26236 3.71969 7.45057 3.71969H12.5665C12.7548 3.71969 12.9259 3.78813 13.0456 3.9079C13.1654 4.02767 13.2338 4.19878 13.2338 4.38699V4.88319C13.2338 5.13984 13.4392 5.34516 13.6958 5.34516H16.9981C17.3061 5.34516 17.5798 5.46493 17.7852 5.67026C17.9905 5.87558 18.1103 6.14934 18.1103 6.45733V14.9782Z" fill="#FF00FF"/>
<path d="M10 6.50867C8.83652 6.50867 7.77569 6.98775 7.02283 7.7406C6.25287 8.51057 5.79089 9.55429 5.79089 10.7178C5.79089 11.8813 6.26998 12.9421 7.02283 13.695C7.7928 14.4649 8.83652 14.9269 10 14.9269C11.1635 14.9269 12.2244 14.4478 12.9772 13.695C13.7472 12.925 14.2092 11.8813 14.2092 10.7178C14.2092 9.55429 13.7301 8.49345 12.9772 7.7406C12.2244 6.98775 11.1635 6.50867 10 6.50867ZM12.327 13.0619C11.7282 13.6436 10.9069 14.0201 10 14.0201C9.09318 14.0201 8.27188 13.6436 7.67302 13.0619C7.07416 12.463 6.71485 11.6417 6.71485 10.7349C6.71485 9.82805 7.09127 9.00676 7.67302 8.4079C8.27188 7.80904 9.09318 7.44973 10 7.44973C10.9069 7.44973 11.7282 7.82616 12.327 8.4079C12.9259 9.00676 13.2852 9.82805 13.2852 10.7349C13.3023 11.6417 12.9259 12.463 12.327 13.0619Z" fill="#FF00FF"/>
<path d="M16.0914 8.16838C16.5544 8.16838 16.9298 7.79302 16.9298 7.32998C16.9298 6.86694 16.5544 6.49158 16.0914 6.49158C15.6284 6.49158 15.253 6.86694 15.253 7.32998C15.253 7.79302 15.6284 8.16838 16.0914 8.16838Z" fill="#FF00FF"/>
</svg>
