<svg width="16" height="16" viewBox="0 0 16 16" fill="none" xmlns="http://www.w3.org/2000/svg">
<path fill-rule="evenodd" clip-rule="evenodd" d="M2.40005 4.80001C3.2837 4.80001 4.00005 4.08366 4.00005 3.20001C4.00005 2.31635 3.2837 1.60001 2.40005 1.60001C1.51639 1.60001 0.800049 2.31635 0.800049 3.20001C0.800049 4.08366 1.51639 4.80001 2.40005 4.80001ZM5.60005 4.00001H15.2V2.40001H5.60005V4.00001ZM5.60005 13.6H15.2V12H5.60005V13.6ZM15.2 8.80001H5.60005V7.20001H15.2V8.80001ZM4.00005 12.8C4.00005 13.6837 3.2837 14.4 2.40005 14.4C1.51639 14.4 0.800049 13.6837 0.800049 12.8C0.800049 11.9164 1.51639 11.2 2.40005 11.2C3.2837 11.2 4.00005 11.9164 4.00005 12.8ZM2.40005 9.60001C3.2837 9.60001 4.00005 8.88366 4.00005 8.00001C4.00005 7.11635 3.2837 6.40001 2.40005 6.40001C1.51639 6.40001 0.800049 7.11635 0.800049 8.00001C0.800049 8.88366 1.51639 9.60001 2.40005 9.60001Z" fill="#FF00FF"/>
</svg>
