<svg width="16" height="16" viewBox="0 0 16 16" fill="none" xmlns="http://www.w3.org/2000/svg">
<path fill-rule="evenodd" clip-rule="evenodd" d="M4 1C2.34315 1 1 2.34315 1 4V12C1 13.6569 2.34315 15 4 15H12C13.6569 15 15 13.6569 15 12V4C15 2.34315 13.6569 1 12 1H4ZM12.5303 5.53033C12.8232 5.23744 12.8232 4.76256 12.5303 4.46967C12.2374 4.17678 11.7626 4.17678 11.4697 4.46967L6.5 9.43934L5.03033 7.96967C4.73744 7.67678 4.26256 7.67678 3.96967 7.96967C3.67678 8.26256 3.67678 8.73744 3.96967 9.03033L5.96967 11.0303C6.26256 11.3232 6.73744 11.3232 7.03033 11.0303L12.5303 5.53033Z" fill="#FF00FF"/>
</svg>
