<svg width="20" height="20" viewBox="0 0 20 20" fill="none" xmlns="http://www.w3.org/2000/svg">
<path fill-rule="evenodd" clip-rule="evenodd" d="M3 6C4.10457 6 5 5.10457 5 4C5 2.89543 4.10457 2 3 2C1.89543 2 1 2.89543 1 4C1 5.10457 1.89543 6 3 6ZM7 5H19V3H7V5ZM7 17H19V15H7V17ZM19 11H7V9H19V11ZM5 16C5 17.1046 4.10457 18 3 18C1.89543 18 1 17.1046 1 16C1 14.8954 1.89543 14 3 14C4.10457 14 5 14.8954 5 16ZM3 12C4.10457 12 5 11.1046 5 10C5 8.89543 4.10457 8 3 8C1.89543 8 1 8.89543 1 10C1 11.1046 1.89543 12 3 12Z" fill="#FF00FF"/>
</svg>
