<svg width="21" height="20" viewBox="0 0 21 20" fill="none" xmlns="http://www.w3.org/2000/svg">
<path fill-rule="evenodd" clip-rule="evenodd" d="M0.329073 7.5C1.43979 3.18715 5.35489 0 10.0142 0C15.5372 0 20.0142 4.47731 20.0142 10C20.0142 15.5227 15.5372 20 10.0142 20C5.35489 20 1.43979 16.8129 0.329073 12.5C0.319193 12.4621 0.3125 12.4222 0.3125 12.3811C0.3125 12.1182 0.52572 11.905 0.788979 11.905H4.82104C5.00697 11.9052 5.17566 12.0139 5.25258 12.1832C5.25258 12.1832 5.25864 12.1944 5.26087 12.2001C6.0924 13.9935 7.90748 15.2381 10.0142 15.2381C12.9072 15.2381 15.2519 12.8933 15.2519 10C15.2519 7.10671 12.9065 4.76192 10.0135 4.76192C7.90684 4.76192 6.09144 6.0065 5.26023 7.80023C5.25832 7.80565 5.25226 7.8168 5.25226 7.8168C5.17705 7.98094 5.01291 8.09504 4.82072 8.09504H0.78866C0.52572 8.09504 0.3125 7.88182 0.3125 7.61888C0.3125 7.57777 0.319512 7.53793 0.329073 7.5ZM12.3953 10C12.3953 11.3151 11.3292 12.3811 10.0142 12.3811C8.69913 12.3811 7.63306 11.3151 7.63306 10C7.63306 8.68494 8.69913 7.61888 10.0142 7.61888C11.3292 7.61888 12.3953 8.68494 12.3953 10Z" fill="#141414"/>
</svg>
