<svg width="16" height="16" viewBox="0 0 16 16" fill="none" xmlns="http://www.w3.org/2000/svg">
<g clip-path="url(#clip0_1447_3083)">
<path fill-rule="evenodd" clip-rule="evenodd" d="M0.263259 6C1.15184 2.54972 4.28391 0 8.01135 0C12.4298 0 16.0113 3.58185 16.0113 8C16.0113 12.4182 12.4298 16 8.01135 16C4.28391 16 1.15184 13.4503 0.263259 10C0.255354 9.96966 0.25 9.93779 0.25 9.9049C0.25 9.69454 0.420576 9.52397 0.631183 9.52397H3.85683C4.00558 9.52413 4.14053 9.61114 4.20207 9.74656C4.20207 9.74656 4.20691 9.75548 4.20869 9.76007C4.87392 11.1948 6.32598 12.1905 8.01135 12.1905C10.3257 12.1905 12.2016 10.3146 12.2016 8C12.2016 5.68536 10.3252 3.80954 8.01084 3.80954C6.32547 3.80954 4.87315 4.8052 4.20818 6.24018C4.20665 6.24452 4.20181 6.25344 4.20181 6.25344C4.14164 6.38475 4.01033 6.47603 3.85658 6.47603H0.630928C0.420576 6.47603 0.25 6.30546 0.25 6.0951C0.25 6.06221 0.255609 6.03034 0.263259 6ZM9.91624 8C9.91624 9.05204 9.06339 9.9049 8.01135 9.9049C6.9593 9.9049 6.10645 9.05204 6.10645 8C6.10645 6.94796 6.9593 6.0951 8.01135 6.0951C9.06339 6.0951 9.91624 6.94796 9.91624 8Z" fill="#141414"/>
</g>
<defs>
<clipPath id="clip0_1447_3083">
<rect width="16" height="16" fill="white"/>
</clipPath>
</defs>
</svg>
