<svg width="16" height="16" viewBox="0 0 16 16" fill="none" xmlns="http://www.w3.org/2000/svg">
<path d="M4.864 14.9356C3.94204 14.9356 3.07855 14.5399 2.45535 13.9089C1.24675 12.6853 0.91019 10.5497 2.60438 8.83487C3.59622 7.83091 7.57142 3.80579 9.5551 1.79716C10.2596 1.08412 11.1559 0.808169 12.0137 1.04133C12.8572 1.26951 13.5474 1.969 13.7734 2.82251C14.003 3.69242 13.7314 4.60012 13.0276 5.31316L6.37993 12.0443C6.00059 12.4286 5.57134 12.6561 5.14066 12.7017C4.71355 12.7473 4.3064 12.609 4.02119 12.3202C3.50495 11.7954 3.43079 10.8107 4.29072 9.9408L8.95971 5.21334C9.15152 5.01939 9.4624 5.01939 9.65421 5.21334C9.84602 5.40728 9.84602 5.72245 9.65421 5.91639L4.98451 10.6446C4.58092 11.0524 4.54385 11.4425 4.71569 11.6172C4.79127 11.6927 4.90536 11.7277 5.03727 11.7127C5.23906 11.692 5.46937 11.5587 5.68543 11.3412L12.3331 4.61082C12.7895 4.14877 12.9641 3.60543 12.8251 3.08134C12.6882 2.56439 12.2704 2.14156 11.7605 2.00251C11.2429 1.86204 10.7052 2.03959 10.2489 2.50164C8.26521 4.51099 4.29072 8.53539 3.29816 9.53935C2.00328 10.8506 2.31345 12.3601 3.14914 13.2065C3.98554 14.0529 5.47508 14.3681 6.77067 13.0554L13.7214 6.01765C13.9132 5.8237 14.2241 5.8237 14.4159 6.01765C14.6077 6.21159 14.6077 6.52676 14.4159 6.72142L7.46518 13.7591C6.64589 14.5877 5.72821 14.9356 4.864 14.9356Z" fill="#FF00FF"/>
</svg>
