<svg width="16" height="16" viewBox="0 0 16 16" fill="none" xmlns="http://www.w3.org/2000/svg">
<path fill-rule="evenodd" clip-rule="evenodd" d="M8.46963 1.46967C9.8671 0.0722044 12.1328 0.0722038 13.5303 1.46967C14.9278 2.86713 14.9278 5.13286 13.5303 6.53033L8.0303 12.0303C7.18512 12.8755 5.81481 12.8755 4.96963 12.0303C4.12446 11.1851 4.12446 9.81485 4.96963 8.96967L8.96964 4.96967C9.26253 4.67677 9.7374 4.67677 10.0303 4.96967C10.3232 5.26256 10.3232 5.73743 10.0303 6.03033L6.03029 10.0303C5.7709 10.2897 5.7709 10.7103 6.0303 10.9697C6.28969 11.2291 6.71024 11.2291 6.96963 10.9697L12.4696 5.46967C13.2813 4.65799 13.2813 3.342 12.4696 2.53033C11.658 1.71865 10.342 1.71865 9.53029 2.53033L4.03029 8.03033C2.66633 9.39429 2.66633 11.6057 4.0303 12.9697C5.39426 14.3336 7.60567 14.3336 8.96963 12.9697L13.4696 8.46967C13.7625 8.17677 14.2374 8.17677 14.5303 8.46967C14.8232 8.76256 14.8232 9.23743 14.5303 9.53033L10.0303 14.0303C8.08055 15.9801 4.91938 15.9801 2.96963 14.0303C1.01989 12.0806 1.01989 8.91942 2.96963 6.96967L8.46963 1.46967Z" fill="#FF00FF"/>
</svg>
