<svg width="20" height="20" viewBox="0 0 20 20" fill="none" xmlns="http://www.w3.org/2000/svg">
<path d="M6.08006 18.6696C4.92761 18.6696 3.84825 18.1749 3.06925 17.3861C1.55849 15.8566 1.1378 13.1872 3.25553 11.0436C4.49533 9.78863 9.46433 4.75723 11.9439 2.24644C12.8245 1.35514 13.9449 1.0102 15.0171 1.30166C16.0715 1.58688 16.9343 2.46124 17.2169 3.52813C17.5039 4.61552 17.1643 5.75014 16.2846 6.64144L7.97497 15.0553C7.5008 15.5357 6.96423 15.8201 6.42589 15.8771C5.892 15.9341 5.38307 15.7612 5.02655 15.4003C4.38124 14.7443 4.28855 13.5134 5.36346 12.426L11.1997 6.51666C11.4395 6.27423 11.8281 6.27423 12.0678 6.51666C12.3076 6.7591 12.3076 7.15305 12.0678 7.39548L6.23069 13.3057C5.72622 13.8155 5.67987 14.3031 5.89467 14.5214C5.98915 14.6159 6.13176 14.6596 6.29665 14.6409C6.54889 14.615 6.83678 14.4484 7.10684 14.1765L15.4164 5.76351C15.9869 5.18595 16.2052 4.50678 16.0314 3.85167C15.8603 3.20548 15.338 2.67694 14.7007 2.50313C14.0536 2.32755 13.3816 2.54948 12.8112 3.12704C10.3316 5.63873 5.36346 10.6692 4.12277 11.9242C2.50416 13.5633 2.89188 15.4502 3.93648 16.5081C4.98198 17.5661 6.84391 17.9601 8.4634 16.3192L17.1518 7.52205C17.3916 7.27962 17.7802 7.27962 18.0199 7.52205C18.2597 7.76448 18.2597 8.15844 18.0199 8.40176L9.33153 17.1989C8.30743 18.2346 7.16032 18.6696 6.08006 18.6696Z" fill="#FF00FF"/>
</svg>
