<svg width="20" height="20" viewBox="0 0 20 20" fill="none" xmlns="http://www.w3.org/2000/svg">
<path d="M19.5 10C19.5 15.2467 15.2467 19.5 10 19.5C4.75329 19.5 0.5 15.2467 0.5 10C0.5 4.75329 4.75329 0.5 10 0.5C15.2467 0.5 19.5 4.75329 19.5 10Z" stroke="#FF00FF"/>
<path d="M9.5 3V2.5H9V3H9.5ZM9.5 11H9V11.5H9.5V11ZM10.5 3H11V2.5H10.5V3ZM10.5 11V11.5H11V11H10.5ZM10 11H9.5V11.5H10V11ZM15 11V11.5H15.5V11H15ZM10 10V9.5H9.5V10H10ZM15 10H15.5V9.5H15V10ZM9 3V11H10V3H9ZM10.5 2.5H9.5V3.5H10.5V2.5ZM11 11V3H10V11H11ZM9.5 11.5H10.5V10.5H9.5V11.5ZM10 11.5H15V10.5H10V11.5ZM9.5 10V11H10.5V10H9.5ZM15 9.5H10V10.5H15V9.5ZM15.5 11V10H14.5V11H15.5Z" fill="#FF00FF"/>
</svg>
