<svg width="16" height="16" viewBox="0 0 16 16" fill="none" xmlns="http://www.w3.org/2000/svg">
<g clip-path="url(#clip0_1447_2082)">
<path d="M15.5 8C15.5 12.1421 12.1421 15.5 8 15.5C3.85786 15.5 0.5 12.1421 0.5 8C0.5 3.85786 3.85786 0.5 8 0.5C12.1421 0.5 15.5 3.85786 15.5 8Z" stroke="#FF00FF"/>
<path d="M7.5 2.4V1.9H7V2.4H7.5ZM7.5 8.8H7V9.3H7.5V8.8ZM8.5 2.4H9V1.9H8.5V2.4ZM8.5 8.8V9.3H9V8.8H8.5ZM8 8.9H7.5V9.4H8V8.9ZM12 8.9V9.4H12.5V8.9H12ZM8 7.9V7.4H7.5V7.9H8ZM12 7.9H12.5V7.4H12V7.9ZM7 2.4V8.8H8V2.4H7ZM8.5 1.9H7.5V2.9H8.5V1.9ZM9 8.8V2.4H8V8.8H9ZM7.5 9.3H8.5V8.3H7.5V9.3ZM8 9.4H12V8.4H8V9.4ZM7.5 7.9V8.9H8.5V7.9H7.5ZM12 7.4H8V8.4H12V7.4ZM12.5 8.9V7.9H11.5V8.9H12.5Z" fill="#FF00FF"/>
</g>
<defs>
<clipPath id="clip0_1447_2082">
<rect width="16" height="16" fill="white"/>
</clipPath>
</defs>
</svg>
