<svg width="16" height="16" viewBox="0 0 16 16" fill="none" xmlns="http://www.w3.org/2000/svg">
<g clip-path="url(#clip0_1447_2082)">
<path d="M15.5 8C15.5 12.1421 12.1421 15.5 8 15.5C3.85786 15.5 0.5 12.1421 0.5 8C0.5 3.85786 3.85786 0.5 8 0.5C12.1421 0.5 15.5 3.85786 15.5 8Z" stroke="#FF00FF"/>
<path d="M7.5 2.39999V1.89999H7V2.39999H7.5ZM7.5 8.79999H7V9.29999H7.5V8.79999ZM8.5 2.39999H9V1.89999H8.5V2.39999ZM8.5 8.79999V9.29999H9V8.79999H8.5ZM8 8.89999H7.5V9.39999H8V8.89999ZM12 8.89999V9.39999H12.5V8.89999H12ZM8 7.89999V7.39999H7.5V7.89999H8ZM12 7.89999H12.5V7.39999H12V7.89999ZM7 2.39999V8.79999H8V2.39999H7ZM8.5 1.89999H7.5V2.89999H8.5V1.89999ZM9 8.79999V2.39999H8V8.79999H9ZM7.5 9.29999H8.5V8.29999H7.5V9.29999ZM8 9.39999H12V8.39999H8V9.39999ZM7.5 7.89999V8.89999H8.5V7.89999H7.5ZM12 7.39999H8V8.39999H12V7.39999ZM12.5 8.89999V7.89999H11.5V8.89999H12.5Z" fill="#FF00FF"/>
</g>
<defs>
<clipPath id="clip0_1447_2082">
<rect width="16" height="16" fill="white"/>
</clipPath>
</defs>
</svg>
