<svg width="16" height="16" viewBox="0 0 16 16" fill="none" xmlns="http://www.w3.org/2000/svg">
<path fill-rule="evenodd" clip-rule="evenodd" d="M16 7.85418C15.4429 6.03043 13.783 4.68802 11.7975 4.60417C11.1244 3.18323 9.6779 2.2 8 2.2C6.6252 2.2 5.40572 2.86093 4.6405 3.87912C2.39423 4.25334 0.585005 5.91738 0 8.08435V11.1155C0.217295 11.9204 0.603489 12.6559 1.11821 13.2818L1.8294 12.5706C1.18472 11.7534 0.8 10.7216 0.8 9.6C0.8 7.07708 2.74644 5.00877 5.21956 4.81486C5.77071 3.85019 6.80943 3.2 8 3.2C9.50307 3.2 10.7641 4.2363 11.1076 5.6334C11.2686 5.61138 11.433 5.6 11.6 5.6C13.5882 5.6 15.2 7.21177 15.2 9.2C15.2 10.3983 14.6146 11.4598 13.7141 12.1141L14.4281 12.8281C15.164 12.2537 15.7206 11.4603 16 10.5458V7.85418Z" fill="#FF00FF"/>
<path fill-rule="evenodd" clip-rule="evenodd" d="M8 7.2L4 11.2H7.5V16H8.5V11.2H12L8 7.2Z" fill="#FF00FF"/>
</svg>
