<svg width="20" height="20" viewBox="0 0 20 20" fill="none" xmlns="http://www.w3.org/2000/svg">
<mask id="mask0" mask-type="alpha" maskUnits="userSpaceOnUse" x="0" y="0" width="20" height="18">
<path fill-rule="evenodd" clip-rule="evenodd" d="M20 0H0V18L10 8L20 18V0Z" fill="white"/>
</mask>
<g mask="url(#mask0)">
<mask id="path-2-outside-1" maskUnits="userSpaceOnUse" x="0" y="3" width="20" height="16" fill="black">
<rect fill="white" y="3" width="20" height="16"/>
<path fill-rule="evenodd" clip-rule="evenodd" d="M13.8845 7.04175C13.4551 5.29538 11.8788 4 10 4C8.51178 4 7.21339 4.81273 6.52445 6.01857C3.43305 6.26097 1 8.84635 1 12C1 15.3137 3.68629 18 7 18C9.10954 18 10.9648 16.9113 12.0346 15.2652C12.7427 15.7298 13.5898 16 14.5 16C16.9853 16 19 13.9853 19 11.5C19 9.01472 16.9853 7 14.5 7C14.2912 7 14.0857 7.01422 13.8845 7.04175Z"/>
</mask>
<path d="M13.8845 7.04175L12.9134 7.28049L13.1283 8.15449L14.02 8.03252L13.8845 7.04175ZM6.52445 6.01857L6.60262 7.01551L7.13021 6.97414L7.39273 6.51465L6.52445 6.01857ZM12.0346 15.2652L12.5832 14.4291L11.7434 13.8781L11.1961 14.7202L12.0346 15.2652ZM14.8556 6.803C14.3189 4.62011 12.3499 3 10 3V5C11.4078 5 12.5914 5.97064 12.9134 7.28049L14.8556 6.803ZM10 3C8.13845 3 6.51586 4.0178 5.65617 5.52249L7.39273 6.51465C7.91092 5.60767 8.88512 5 10 5V3ZM6.44628 5.02163C2.83862 5.30451 0 8.32026 0 12H2C2 9.37243 4.02748 7.21743 6.60262 7.01551L6.44628 5.02163ZM0 12C0 15.866 3.13401 19 7 19V17C4.23858 17 2 14.7614 2 12H0ZM7 19C9.46215 19 11.6267 17.728 12.8731 15.8101L11.1961 14.7202C10.3029 16.0946 8.75693 17 7 17V19ZM11.486 16.1012C12.3521 16.6695 13.389 17 14.5 17V15C13.7906 15 13.1333 14.79 12.5832 14.4291L11.486 16.1012ZM14.5 17C17.5376 17 20 14.5376 20 11.5H18C18 13.433 16.433 15 14.5 15V17ZM20 11.5C20 8.46243 17.5376 6 14.5 6V8C16.433 8 18 9.567 18 11.5H20ZM14.5 6C14.2457 6 13.995 6.01732 13.749 6.05097L14.02 8.03252C14.1765 8.01112 14.3367 8 14.5 8V6Z" fill="#FF00FF" mask="url(#path-2-outside-1)"/>
</g>
<path fill-rule="evenodd" clip-rule="evenodd" d="M9.5 9V15H5L10 20L15 15H10.5V9H9.5Z" fill="#FF00FF"/>
</svg>
