<svg width="16" height="16" viewBox="0 0 16 16" fill="none" xmlns="http://www.w3.org/2000/svg">
<path fill-rule="evenodd" clip-rule="evenodd" d="M11.7975 4.60418C13.783 4.68803 15.4429 6.03044 16 7.8542V10.5458C15.7206 11.4603 15.164 12.2537 14.4281 12.8282L13.7141 12.1142C14.6146 11.4598 15.2 10.3983 15.2 9.20001C15.2 7.21179 13.5882 5.60001 11.6 5.60001C11.433 5.60001 11.2686 5.61139 11.1076 5.63341C10.7641 4.23631 9.50307 3.20001 8 3.20001C6.80943 3.20001 5.77071 3.8502 5.21956 4.81487C2.74644 5.00879 0.8 7.07709 0.8 9.60001C0.8 10.7217 1.18472 11.7534 1.8294 12.5706L1.11821 13.2818C0.603489 12.656 0.217295 11.9204 0 11.1155V8.08437C0.585005 5.91739 2.39423 4.25336 4.6405 3.87914C5.40572 2.86094 6.6252 2.20001 8 2.20001C9.6779 2.20001 11.1244 3.18324 11.7975 4.60418ZM4 11.2L8 7.20001L12 11.2H8.5V16H7.5V11.2H4Z" fill="#FF00FF"/>
</svg>
