<svg width="16" height="16" viewBox="0 0 16 16" fill="none" xmlns="http://www.w3.org/2000/svg">
<g clip-path="url(#clip0_1447_2064)">
<path d="M9.16666 1.73326L10.0732 0.929345C10.4597 0.586651 11.0221 0.529699 11.4694 0.787958L12.5492 1.41135C12.9965 1.66961 13.2283 2.18513 13.1248 2.69116L12.8821 3.87708C13.132 4.17103 13.3561 4.48875 13.5518 4.82786C13.7476 5.16697 13.9107 5.5199 14.0404 5.88325L15.1887 6.26605C15.6788 6.42938 16.0093 6.88795 16.0093 7.40446L16.0093 8.65125C16.0093 9.16777 15.6788 9.62633 15.1888 9.78967L14.0393 10.1728C13.779 10.9057 13.3876 11.5861 12.8823 12.1794L13.1248 13.3646C13.2283 13.8706 12.9965 14.3861 12.5492 14.6444L11.4694 15.2678C11.0221 15.526 10.4597 15.4691 10.0732 15.1264L9.1681 14.3237C8.40165 14.4648 7.6167 14.4634 6.8519 14.3225L5.94531 15.1264C5.55886 15.4691 4.99647 15.526 4.54915 15.2678L3.4694 14.6444C3.02209 14.3861 2.79022 13.8706 2.89377 13.3646L3.13645 12.1786C2.8866 11.8847 2.6625 11.567 2.46671 11.2279C2.27093 10.8887 2.10782 10.5358 1.97818 10.1725L0.829804 9.78967C0.339793 9.62633 0.00927744 9.16777 0.00927742 8.65125L0.00927737 7.40446C0.00927735 6.88795 0.339794 6.42938 0.829804 6.26604L1.9793 5.88288C2.2396 5.15004 2.63092 4.46959 3.1363 3.87635L2.89377 2.69116C2.79021 2.18513 3.02209 1.66961 3.4694 1.41135L4.54915 0.787958C4.99647 0.529699 5.55886 0.586651 5.94531 0.929345L6.85046 1.73198C7.61691 1.59093 8.40185 1.59227 9.16666 1.73326ZM6.81907 2.55415C6.69432 2.58131 6.56411 2.54729 6.46859 2.46259L5.41454 1.52791C5.28572 1.41368 5.09826 1.39469 4.94915 1.48078L3.8694 2.10417C3.7203 2.19026 3.64301 2.3621 3.67752 2.53077L3.95996 3.91095C3.98555 4.03602 3.9499 4.1658 3.86401 4.26025C3.32391 4.85419 2.91968 5.55766 2.67563 6.32119C2.63677 6.44278 2.54221 6.53852 2.42111 6.57888L1.08279 7.02499C0.919449 7.07944 0.809277 7.23229 0.809277 7.40446L0.809277 8.65125C0.809277 8.82342 0.91945 8.97628 1.08279 9.03072L2.41969 9.47636C2.54063 9.51667 2.63512 9.61223 2.67407 9.73362C2.79535 10.1116 2.95749 10.4779 3.15954 10.8279C3.36158 11.1778 3.59774 11.5014 3.86444 11.7954C3.95009 11.8898 3.9856 12.0194 3.96004 12.1443L3.67752 13.5249C3.64301 13.6936 3.7203 13.8655 3.8694 13.9515L4.94915 14.5749C5.09826 14.661 5.28572 14.642 5.41454 14.5278L6.47004 13.5918C6.56555 13.5071 6.69574 13.4731 6.82047 13.5003C7.60373 13.6707 8.41507 13.6723 9.19949 13.5016C9.32423 13.4744 9.45445 13.5084 9.54997 13.5931L10.604 14.5278C10.7328 14.642 10.9203 14.661 11.0694 14.5749L12.1492 13.9515C12.2983 13.8655 12.3755 13.6936 12.341 13.5249L12.0586 12.1448C12.033 12.0197 12.0687 11.8899 12.1545 11.7955C12.6946 11.2015 13.0989 10.4981 13.3429 9.73452C13.3818 9.61294 13.4763 9.5172 13.5974 9.47683L14.9358 9.03072C15.0991 8.97628 15.2093 8.82342 15.2093 8.65125L15.2093 7.40446C15.2093 7.23229 15.0991 7.07944 14.9358 7.02499L13.5989 6.57936C13.4779 6.53904 13.3834 6.44349 13.3445 6.32209C13.2232 5.94411 13.0611 5.57781 12.859 5.22786C12.657 4.8779 12.4208 4.55434 12.1541 4.26031C12.0685 4.16588 12.0329 4.03628 12.0585 3.91138L12.341 2.53077C12.3755 2.3621 12.2983 2.19026 12.1492 2.10417L11.0694 1.48078C10.9203 1.39469 10.7328 1.41368 10.604 1.52791L9.54851 2.46388C9.453 2.54857 9.32281 2.58259 9.19808 2.55545C8.41482 2.38504 7.60348 2.38337 6.81907 2.55415ZM9.60928 10.7991C8.07874 11.6828 6.12165 11.1584 5.238 9.62786C4.35434 8.09732 4.87874 6.14023 6.40928 5.25658C7.93981 4.37292 9.8969 4.89732 10.7806 6.42786C11.6642 7.95839 11.1398 9.91548 9.60928 10.7991ZM9.20928 10.1063C10.3572 9.44358 10.7505 7.97576 10.0877 6.82786C9.425 5.67995 7.95718 5.28665 6.80928 5.9494C5.66138 6.61214 5.26807 8.07995 5.93082 9.22786C6.59356 10.3758 8.06138 10.7691 9.20928 10.1063Z" fill="#FF00FF"/>
</g>
<defs>
<clipPath id="clip0_1447_2064">
<rect width="16" height="16" fill="white"/>
</clipPath>
</defs>
</svg>
