<svg width="20" height="20" viewBox="0 0 20 20" fill="none" xmlns="http://www.w3.org/2000/svg">
<g clip-path="url(#clip0)">
<path d="M11.4582 2.16658L12.5914 1.16169C13.0745 0.733319 13.7775 0.662129 14.3366 0.984952L15.6863 1.76419C16.2455 2.08702 16.5353 2.73141 16.4059 3.36395L16.1025 4.84635C16.4148 5.21379 16.6949 5.61094 16.9397 6.03483C17.1844 6.45871 17.3883 6.89988 17.5503 7.35407L18.9858 7.83256C19.5983 8.03673 20.0115 8.60994 20.0115 9.25558L20.0115 10.8141C20.0115 11.4597 19.5983 12.0329 18.9858 12.2371L17.5489 12.7161C17.2236 13.6321 16.7344 14.4827 16.1027 15.2242L16.4059 16.7057C16.5353 17.3382 16.2455 17.9826 15.6863 18.3055L14.3366 19.0847C13.7775 19.4075 13.0745 19.3363 12.5914 18.908L11.46 17.9047C10.5019 18.081 9.52076 18.0793 8.56475 17.9031L7.43152 18.908C6.94845 19.3363 6.24546 19.4075 5.68632 19.0847L4.33663 18.3055C3.77749 17.9826 3.48765 17.3382 3.61709 16.7057L3.92044 15.2233C3.60812 14.8559 3.328 14.4587 3.08327 14.0348C2.83854 13.6109 2.63466 13.1698 2.4726 12.7156L1.03713 12.2371C0.424619 12.0329 0.0114746 11.4597 0.0114747 10.8141L0.0114747 9.25559C0.0114747 8.60994 0.42462 8.03673 1.03713 7.83256L2.47401 7.3536C2.79938 6.43756 3.28853 5.58699 3.92025 4.84545L3.61709 3.36395C3.48765 2.73141 3.77749 2.08702 4.33663 1.76419L5.68632 0.984952C6.24546 0.662129 6.94845 0.73332 7.43152 1.16169L8.56295 2.16498C9.52101 1.98867 10.5022 1.99034 11.4582 2.16658ZM8.52371 3.19269C8.36778 3.22664 8.20501 3.18412 8.08561 3.07824L6.76805 1.90989C6.60703 1.7671 6.3727 1.74337 6.18632 1.85098L4.83663 2.63022C4.65025 2.73783 4.55364 2.95263 4.59678 3.16347L4.94982 4.88869C4.98182 5.04503 4.93726 5.20726 4.82989 5.32532C4.15476 6.06774 3.64948 6.94708 3.34442 7.9015C3.29584 8.05348 3.17764 8.17315 3.02627 8.22361L1.35336 8.78124C1.14919 8.8493 1.01147 9.04037 1.01147 9.25559L1.01147 10.8141C1.01147 11.0293 1.14919 11.2204 1.35336 11.2884L3.02449 11.8455C3.17567 11.8958 3.29378 12.0153 3.34246 12.167C3.49407 12.6395 3.69674 13.0974 3.9493 13.5348C4.20185 13.9723 4.49705 14.3767 4.83043 14.7443C4.9375 14.8623 4.98188 15.0243 4.94993 15.1804L4.59678 16.9062C4.55364 17.117 4.65025 17.3318 4.83663 17.4394L6.18632 18.2187C6.3727 18.3263 6.60703 18.3026 6.76805 18.1598L8.08743 16.9898C8.20682 16.8839 8.36955 16.8414 8.52546 16.8753C9.50455 17.0883 10.5187 17.0904 11.4992 16.877C11.6552 16.843 11.8179 16.8855 11.9373 16.9914L13.2549 18.1598C13.4159 18.3026 13.6503 18.3263 13.8366 18.2187L15.1863 17.4394C15.3727 17.3318 15.4693 17.117 15.4262 16.9062L15.0731 15.181C15.0411 15.0246 15.0857 14.8624 15.1931 14.7443C15.8682 14.0019 16.3735 13.1226 16.6785 12.1682C16.7271 12.0162 16.8453 11.8965 16.9967 11.846L18.6696 11.2884C18.8738 11.2204 19.0115 11.0293 19.0115 10.8141L19.0115 9.25559C19.0115 9.04037 18.8738 8.8493 18.6696 8.78124L16.9985 8.2242C16.8473 8.17381 16.7292 8.05436 16.6805 7.90262C16.5289 7.43014 16.3262 6.97227 16.0737 6.53483C15.8211 6.09738 15.5259 5.69293 15.1925 5.32539C15.0855 5.20736 15.0411 5.04536 15.073 4.88923L15.4262 3.16347C15.4693 2.95263 15.3727 2.73783 15.1863 2.63022L13.8366 1.85098C13.6503 1.74337 13.4159 1.7671 13.2549 1.90989L11.9355 3.07985C11.8161 3.18571 11.6534 3.22824 11.4975 3.19432C10.5184 2.98131 9.50423 2.97922 8.52371 3.19269ZM12.0115 13.4989C10.0983 14.6035 7.65194 13.948 6.54737 12.0348C5.4428 10.1217 6.0983 7.67529 8.01147 6.57073C9.92465 5.46616 12.371 6.12166 13.4756 8.03483C14.5801 9.948 13.9246 12.3944 12.0115 13.4989ZM11.5115 12.6329C12.9464 11.8045 13.438 9.9697 12.6096 8.53483C11.7811 7.09995 9.94635 6.60832 8.51147 7.43675C7.0766 8.26518 6.58497 10.0999 7.4134 11.5348C8.24183 12.9697 10.0766 13.4613 11.5115 12.6329Z" fill="#FF00FF"/>
</g>
<defs>
<clipPath id="clip0">
<rect width="20" height="20" fill="white"/>
</clipPath>
</defs>
</svg>
