<svg width="16" height="16" viewBox="0 0 16 16" fill="none" xmlns="http://www.w3.org/2000/svg">
<g clip-path="url(#clip0_1447_1771)">
<path fill-rule="evenodd" clip-rule="evenodd" d="M13.6668 1.78828L13.6634 1.78535C13.6534 1.77679 13.6393 1.76477 13.621 1.74965C13.5845 1.71941 13.5316 1.67673 13.4631 1.62451C13.3262 1.52012 13.1265 1.37731 12.8711 1.21941C12.3609 0.904047 11.6235 0.525779 10.7142 0.274997C8.88313 -0.229999 6.37639 -0.210089 3.6684 1.82265L3.66715 1.82358L3.66591 1.82453L3.72555 1.90246C3.66587 1.82458 3.666 1.82446 3.66591 1.82453L3.66443 1.82567L3.6619 1.82763L3.6538 1.83397C3.64707 1.83928 3.6377 1.84675 3.62587 1.85638C3.60221 1.87564 3.5687 1.90353 3.5268 1.93998C3.47266 1.98706 3.40444 2.0485 3.32528 2.12412C3.11779 2.2728 2.94027 2.46066 2.80355 2.67687C2.60516 2.90852 2.38911 3.18689 2.1747 3.51109C1.44655 4.61207 0.734791 6.24605 0.804825 8.3681C0.875309 10.5038 1.8106 12.0746 2.72073 13.1055C3.17558 13.6207 3.62596 14.0034 3.96364 14.258C4.13266 14.3854 4.27398 14.4811 4.37425 14.5457C4.42441 14.578 4.46435 14.6025 4.49241 14.6194C4.50644 14.6278 4.51751 14.6343 4.52541 14.6388L4.5272 14.6399L4.53207 14.6431C4.54162 14.6493 4.55517 14.658 4.57258 14.669C4.60739 14.6909 4.65771 14.7217 4.72258 14.7592C4.85226 14.8342 5.04038 14.9363 5.27926 15.0481C5.75645 15.2712 6.4396 15.5344 7.26645 15.6954C8.92211 16.0177 11.1519 15.9287 13.4343 14.3026L13.4448 14.2966C13.4634 14.2861 13.4892 14.271 13.5208 14.2515C13.584 14.2126 13.6711 14.1557 13.7708 14.0814C13.9686 13.934 14.2247 13.7119 14.4413 13.419C14.6585 13.1253 14.8433 12.7499 14.8778 12.3019C14.9126 11.8495 14.7914 11.3558 14.4506 10.8351L14.4369 10.8142L14.4203 10.7956L14.1693 11.0192C14.4203 10.7956 14.4204 10.7957 14.4203 10.7956L14.4193 10.7945L14.4179 10.7929L14.4137 10.7883L14.4 10.7736C14.3886 10.7615 14.3725 10.7448 14.3522 10.7246C14.3116 10.6843 14.2535 10.6294 14.1805 10.5679C14.0363 10.4463 13.826 10.2921 13.572 10.1769C13.3181 10.0618 13.0044 9.97846 12.6632 10.0221C12.3151 10.0667 11.9726 10.2392 11.6629 10.5768C11.1864 11.0961 10.3134 11.6502 9.28105 11.8044C8.26549 11.956 7.08199 11.7236 5.94233 10.6532C4.83711 9.61513 4.56984 8.00221 5.04217 6.61493C5.51084 5.23839 6.69522 4.12219 8.46794 4.05425L8.78244 4.04219C8.94028 4.04508 9.15449 4.06044 9.40466 4.10752C9.95246 4.21062 10.6694 4.46496 11.35 5.07251L11.3562 5.07928C11.3687 5.09286 11.3864 5.11148 11.4088 5.134C11.4535 5.17895 11.5178 5.23997 11.599 5.30782C11.7598 5.44221 11.9953 5.61019 12.2846 5.72982C12.5753 5.85004 12.9303 5.92528 13.3189 5.85748C13.7108 5.78912 14.1052 5.58082 14.48 5.18709C14.87 4.77748 15.026 4.33557 15.0122 3.90098C14.9989 3.4791 14.8268 3.09947 14.6269 2.79459C14.4259 2.48789 14.1825 2.23497 13.9934 2.06097C13.8981 1.97322 13.8146 1.90373 13.7543 1.85565C13.7241 1.83158 13.6995 1.81278 13.682 1.79964L13.6668 1.78828ZM3.6637 2.73403C3.56909 2.82962 3.46262 2.94298 3.34892 3.07386C3.23585 3.267 3.17105 3.49183 3.17105 3.73179C3.17105 4.45208 3.75496 5.03599 4.47525 5.03599C5.19554 5.03599 5.77945 4.45208 5.77945 3.73179C5.77945 3.0115 5.19554 2.42759 4.47525 2.42759C4.20796 2.42759 3.95945 2.508 3.75259 2.64594C3.72436 2.67337 3.69468 2.70274 3.6637 2.73403ZM1.47673 8.34593C1.41831 6.57576 1.94989 5.17826 2.54926 4.17756C2.75139 5.05445 3.53697 5.70826 4.47525 5.70826C4.55496 5.70826 4.63356 5.70354 4.7108 5.69437C4.59004 5.92054 4.48816 6.15628 4.40577 6.39826C3.9959 7.60208 4.06129 8.98198 4.68984 10.1228C4.64558 10.1199 4.60093 10.1184 4.55591 10.1184C3.55026 10.1184 2.72003 10.8694 2.59556 11.8412C2.00638 10.9508 1.52439 9.7902 1.47673 8.34593ZM4.84969 14.0496L4.86252 14.0572L4.86821 14.0605L4.88048 14.0674L4.89172 14.075L4.89292 14.0758L4.89964 14.0802C4.90608 14.0844 4.9164 14.091 4.93049 14.0999C4.95868 14.1176 5.00191 14.1441 5.05924 14.1773C5.17394 14.2437 5.34474 14.3365 5.56406 14.4391C6.00326 14.6445 6.63355 14.8872 7.39493 15.0355C8.91178 15.3308 10.9509 15.253 13.0595 13.7442L13.0779 13.7309L13.0973 13.7207L13.0997 13.7194L13.1127 13.7121C13.1249 13.7052 13.1438 13.6942 13.1683 13.6791C13.2172 13.649 13.2876 13.6031 13.3691 13.5423C13.5339 13.4195 13.7358 13.2425 13.9008 13.0194C14.0651 12.7971 14.1853 12.5397 14.2075 12.2504C14.229 11.9708 14.1617 11.6304 13.9034 11.2269C13.897 11.2202 13.8886 11.2117 13.8784 11.2016C13.8487 11.1721 13.8041 11.1298 13.7472 11.0819C13.6318 10.9846 13.474 10.8706 13.2944 10.7892C13.1148 10.7077 12.9293 10.6658 12.7486 10.689C12.5748 10.7112 12.3728 10.7975 12.1582 11.0313C11.5859 11.655 10.5766 12.2907 9.38033 12.4693C8.48841 12.6025 7.5001 12.4799 6.52498 11.9226C6.52988 11.9793 6.53238 12.0368 6.53238 12.0948C6.53238 13.0866 5.80194 13.9077 4.84969 14.0496ZM6.45172 3.73179C6.45172 3.79542 6.44871 3.85834 6.44284 3.92042C7.00989 3.60843 7.67477 3.41383 8.42917 3.38299L8.44046 3.38181C8.45634 3.38022 8.47838 3.37826 8.50613 3.37636C8.5616 3.37258 8.64003 3.36907 8.73776 3.36941C8.93301 3.3701 9.20668 3.38619 9.529 3.44685C10.1743 3.56831 11.0181 3.86935 11.8127 4.58448L11.8282 4.59839L11.8411 4.61327L11.8418 4.6141L11.8497 4.62282C11.8571 4.63081 11.8691 4.64347 11.8853 4.65976C11.9178 4.69244 11.9669 4.73919 12.03 4.79193C12.1578 4.89871 12.335 5.02317 12.5415 5.10858C12.7466 5.1934 12.9706 5.23582 13.2034 5.19521C13.433 5.15516 13.7024 5.02901 13.9931 4.72358C14.2687 4.43403 14.348 4.16334 14.3403 3.92229C14.3323 3.66855 14.2262 3.40952 14.0647 3.16314C13.9044 2.91858 13.7033 2.70764 13.5381 2.55558C13.4564 2.48031 13.3853 2.42123 13.3354 2.38149C13.3105 2.36165 13.291 2.34674 13.2782 2.33713L13.2643 2.32679L13.2615 2.32478L13.2466 2.31415L13.2333 2.30228L13.232 2.30112L13.2248 2.29486C13.2179 2.28896 13.207 2.27964 13.1921 2.26726C13.1622 2.2425 13.1164 2.20553 13.0556 2.15917C12.9339 2.06639 12.7523 1.9363 12.5176 1.79126C12.0476 1.50074 11.369 1.15296 10.5354 0.92307C9.06341 0.51709 7.09129 0.472486 4.898 1.80064C5.78644 1.99423 6.45172 2.78532 6.45172 3.73179ZM3.25171 12.0948C3.25171 11.3745 3.83562 10.7906 4.55591 10.7906C5.27621 10.7906 5.86012 11.3745 5.86012 12.0948C5.86012 12.8151 5.2762 13.399 4.55591 13.399C3.83562 13.399 3.25171 12.8151 3.25171 12.0948Z" fill="#FF00FF"/>
</g>
<defs>
<clipPath id="clip0_1447_1771">
<rect width="16" height="16" fill="white"/>
</clipPath>
</defs>
</svg>
