<svg width="16" height="16" viewBox="0 0 16 16" fill="none" xmlns="http://www.w3.org/2000/svg">
<path d="M5.59208 11.1691C4.75001 10.3294 4.27674 9.18915 4.27674 7.99999C4.27674 6.81083 4.75001 5.67057 5.59208 4.83091C6.27509 4.14789 6.27509 3.0405 5.59208 2.35748C4.90906 1.67446 3.80166 1.67446 3.11865 2.35748C1.63855 3.86336 0.806299 5.88852 0.799805 7.99999C0.820802 10.1086 1.65091 12.1285 3.11865 13.6425C3.56048 14.0843 4.20447 14.2569 4.80803 14.0952C5.41159 13.9334 5.88302 13.462 6.04474 12.8585C6.20647 12.2549 6.03391 11.6109 5.59208 11.1691Z" fill="#FFD85F"/>
<path d="M5.59214 4.83084C6.4318 3.98878 7.57206 3.51551 8.76122 3.51551C9.95038 3.51551 11.0906 3.98878 11.9303 4.83084C12.6133 5.51386 13.7207 5.51386 14.4037 4.83084C15.0868 4.14783 15.0868 3.04043 14.4037 2.35741C12.8978 0.877324 10.8727 0.0450684 8.76122 0.0385742C6.65266 0.0595712 4.63272 0.889684 3.11871 2.35741C2.43569 3.04043 2.43569 4.14783 3.11871 4.83084C3.80173 5.51386 4.90912 5.51386 5.59214 4.83084Z" fill="#3BB4E7"/>
<path d="M11.9303 11.169C11.0906 12.0111 9.95038 12.4844 8.76122 12.4844C7.57206 12.4844 6.4318 12.0111 5.59214 11.169C4.90912 10.486 3.80173 10.486 3.11871 11.169C2.43569 11.8521 2.43569 12.9595 3.11871 13.6425C4.62459 15.1226 6.64975 15.9548 8.76122 15.9613C10.8698 15.9403 12.8897 15.1102 14.4037 13.6425C14.8456 13.2006 15.0181 12.5566 14.8564 11.9531C14.6947 11.3495 14.2232 10.8781 13.6197 10.7164C13.0161 10.5547 12.3721 10.7272 11.9303 11.169Z" fill="#ED5C68"/>
<path d="M5.64716 4.85378C6.34119 4.15928 6.34079 3.03365 5.64629 2.33963C4.95178 1.6456 3.82615 1.646 3.13213 2.3405C2.43811 3.03501 2.4385 4.16064 3.13301 4.85466C3.82751 5.54869 4.95314 5.54829 5.64716 4.85378Z" fill="#308BC5"/>
<path d="M5.63935 13.6563C6.33337 12.9618 6.33298 11.8361 5.63847 11.1421C4.94397 10.4481 3.81834 10.4485 3.12432 11.143C2.43029 11.8375 2.43069 12.9631 3.12519 13.6572C3.8197 14.3512 4.94533 14.3508 5.63935 13.6563Z" fill="#D5465F"/>
</svg>
