<svg width="20" height="20" viewBox="0 0 20 20" fill="none" xmlns="http://www.w3.org/2000/svg">
<path d="M7.16221 13.9613C6.10963 12.9118 5.51805 11.4864 5.51805 10C5.51805 8.51355 6.10963 7.08822 7.16221 6.03864C8.01599 5.18487 8.01599 3.80063 7.16221 2.94686C6.30844 2.09308 4.9242 2.09308 4.07043 2.94686C2.22031 4.82921 1.17999 7.36066 1.17188 10C1.19812 12.6357 2.23576 15.1606 4.07043 17.0531C4.62272 17.6054 5.42771 17.8211 6.18216 17.619C6.9366 17.4168 7.5259 16.8275 7.72805 16.0731C7.9302 15.3186 7.71451 14.5136 7.16221 13.9613Z" fill="#FFD85F"/>
<path d="M7.16229 6.03865C8.21187 4.98607 9.6372 4.39448 11.1236 4.39448C12.6101 4.39448 14.0354 4.98607 15.085 6.03865C15.9388 6.89242 17.323 6.89242 18.1768 6.03865C19.0306 5.18487 19.0306 3.80063 18.1768 2.94686C16.2944 1.09675 13.763 0.0564271 11.1236 0.0483093C8.48795 0.0745556 5.96302 1.1122 4.07051 2.94686C3.21673 3.80063 3.21673 5.18487 4.07051 6.03865C4.92428 6.89242 6.30852 6.89242 7.16229 6.03865Z" fill="#3BB4E7"/>
<path d="M15.085 13.9613C14.0354 15.0139 12.6101 15.6055 11.1236 15.6055C9.6372 15.6055 8.21187 15.0139 7.16229 13.9613C6.30852 13.1076 4.92428 13.1076 4.07051 13.9613C3.21673 14.8151 3.21673 16.1994 4.07051 17.0531C5.95286 18.9033 8.48431 19.9436 11.1236 19.9517C13.7593 19.9254 16.2843 18.8878 18.1768 17.0531C18.7291 16.5008 18.9448 15.6959 18.7426 14.9414C18.5405 14.187 17.9512 13.5977 17.1967 13.3955C16.4423 13.1934 15.6373 13.4091 15.085 13.9613Z" fill="#ED5C68"/>
<path d="M7.23095 6.06724C8.09848 5.1991 8.09799 3.79207 7.22985 2.92454C6.36172 2.05701 4.95469 2.0575 4.08716 2.92564C3.21963 3.79377 3.22012 5.20081 4.08825 6.06834C4.95639 6.93586 6.36342 6.93537 7.23095 6.06724Z" fill="#308BC5"/>
<path d="M7.22094 17.0703C8.08847 16.2022 8.08798 14.7952 7.21984 13.9276C6.35171 13.0601 4.94468 13.0606 4.07715 13.9287C3.20962 14.7969 3.21011 16.2039 4.07824 17.0714C4.94638 17.939 6.35341 17.9385 7.22094 17.0703Z" fill="#D5465F"/>
</svg>
