<svg width="20" height="20" viewBox="0 0 20 20" fill="none" xmlns="http://www.w3.org/2000/svg">
<path fill-rule="evenodd" clip-rule="evenodd" d="M17.0834 2.23535L17.0792 2.23169C17.0667 2.22099 17.049 2.20597 17.0262 2.18706C16.9806 2.14926 16.9145 2.09591 16.8288 2.03064C16.6576 1.90015 16.4081 1.72164 16.0888 1.52426C15.451 1.13006 14.5293 0.657224 13.3927 0.343746C11.1038 -0.287499 7.97043 -0.262612 4.58544 2.27831L4.58388 2.27948L4.58233 2.28066L4.65688 2.37808L4.65682 2.37811C4.58222 2.28075 4.5821 2.28083 4.58199 2.28092L4.58156 2.28125L4.58047 2.28209L4.57732 2.28453L4.56719 2.29246C4.55878 2.2991 4.54706 2.30844 4.53227 2.32048C4.5027 2.34455 4.46082 2.37941 4.40844 2.42497C4.34076 2.48383 4.25549 2.56062 4.15654 2.65515C3.89718 2.841 3.67528 3.07582 3.50437 3.34609C3.25639 3.63565 2.98633 3.98362 2.71831 4.38886C1.80812 5.76508 0.918427 7.80757 1.00597 10.4601C1.09408 13.1297 2.26319 15.0933 3.40085 16.3819C3.96941 17.0259 4.53239 17.5043 4.95449 17.8225C5.16576 17.9818 5.34241 18.1014 5.46775 18.1821C5.53045 18.2225 5.58037 18.2532 5.61545 18.2742C5.63299 18.2847 5.64683 18.2928 5.6567 18.2985L5.65894 18.2998L5.66503 18.3038C5.67697 18.3116 5.6939 18.3225 5.71566 18.3362C5.75918 18.3636 5.82208 18.4021 5.90316 18.449C6.06526 18.5428 6.30042 18.6704 6.59901 18.8101C7.1955 19.089 8.04944 19.418 9.083 19.6192C11.1526 20.0222 13.9398 19.9108 16.7928 17.8782L16.806 17.8708C16.8292 17.8576 16.8614 17.8388 16.901 17.8144C16.9799 17.7658 17.0888 17.6946 17.2134 17.6017C17.4607 17.4175 17.7809 17.1399 18.0516 16.7738C18.323 16.4067 18.5541 15.9374 18.5972 15.3774C18.6407 14.8119 18.4892 14.1947 18.0632 13.5439L18.0461 13.5178L18.0253 13.4945L17.7116 13.774C18.0253 13.4945 18.0252 13.4943 18.0251 13.4942L18.0248 13.4939L18.0241 13.4931L18.0223 13.4911L18.0171 13.4854L18 13.467C17.9857 13.4518 17.9656 13.431 17.9402 13.4057C17.8894 13.3554 17.8168 13.2867 17.7256 13.2098C17.5453 13.0578 17.2825 12.8652 16.965 12.7212C16.6475 12.5772 16.2554 12.4731 15.829 12.5277C15.3938 12.5834 14.9657 12.799 14.5785 13.221C13.9829 13.8701 12.8917 14.5628 11.6013 14.7555C10.3318 14.9451 8.85243 14.6545 7.42785 13.3165C6.04632 12.0189 5.71224 10.0028 6.30265 8.26867C6.88849 6.54799 8.36896 5.15274 10.5849 5.06781L10.978 5.05274C11.1753 5.05635 11.443 5.07555 11.7558 5.1344C12.4405 5.26327 13.3367 5.58121 14.1874 6.34064L14.1952 6.34909C14.2109 6.36608 14.2329 6.38935 14.2609 6.4175C14.3169 6.47368 14.3972 6.54996 14.4987 6.63478C14.6997 6.80276 14.9941 7.01274 15.3557 7.16228C15.719 7.31255 16.1628 7.4066 16.6486 7.32185C17.1384 7.23641 17.6315 6.97602 18.1 6.48387C18.5874 5.97185 18.7825 5.41946 18.7652 4.87623C18.7485 4.34887 18.5334 3.87433 18.2836 3.49324C18.0323 3.10986 17.728 2.79371 17.4917 2.57621C17.3726 2.46652 17.2682 2.37966 17.1928 2.31957C17.155 2.28948 17.1243 2.26597 17.1025 2.24955L17.0834 2.23535ZM4.57957 3.41754C4.4613 3.53702 4.32822 3.67873 4.18609 3.84233C4.04476 4.08376 3.96375 4.36479 3.96375 4.66474C3.96375 5.5651 4.69364 6.29499 5.594 6.29499C6.49436 6.29499 7.22425 5.5651 7.22425 4.66474C7.22425 3.76438 6.49436 3.03449 5.594 3.03449C5.25989 3.03449 4.94925 3.135 4.69068 3.30743C4.65539 3.34172 4.61829 3.37842 4.57957 3.41754ZM1.84585 10.4324C1.77282 8.2197 2.4373 6.47282 3.18651 5.22195C3.43918 6.31806 4.42115 7.13533 5.594 7.13533C5.69364 7.13533 5.79189 7.12943 5.88844 7.11796C5.73748 7.40067 5.61014 7.69535 5.50716 7.99782C4.99482 9.5026 5.07655 11.2275 5.86224 12.6535C5.80692 12.6498 5.7511 12.6479 5.69483 12.6479C4.43777 12.6479 3.39998 13.5868 3.24439 14.8016C2.50791 13.6886 1.90543 12.2378 1.84585 10.4324ZM6.06195 17.562C6.06877 17.5661 6.07417 17.5692 6.07808 17.5715L6.08521 17.5756L6.08547 17.5757L6.08565 17.5758L6.10054 17.5842L6.11459 17.5937L6.11481 17.5938L6.11509 17.594L6.11609 17.5947L6.12449 17.6002C6.13253 17.6055 6.14544 17.6138 6.16305 17.6249C6.19829 17.647 6.25233 17.6802 6.32399 17.7216C6.46736 17.8046 6.68087 17.9207 6.95501 18.0489C7.50401 18.3056 8.29188 18.609 9.24361 18.7944C11.1397 19.1635 13.6886 19.0663 16.3243 17.1802L16.3474 17.1637L16.3716 17.1509L16.3717 17.1508L16.3719 17.1507L16.3722 17.1506L16.3725 17.1504L16.3746 17.1492L16.3908 17.1402C16.406 17.1315 16.4297 17.1177 16.4603 17.0989C16.5215 17.0612 16.6094 17.0038 16.7114 16.9279C16.9173 16.7744 17.1697 16.5531 17.3759 16.2742C17.5813 15.9964 17.7315 15.6747 17.7593 15.3129C17.7862 14.9635 17.702 14.5379 17.3792 14.0336C17.3711 14.0253 17.3607 14.0146 17.348 14.002C17.3109 13.9651 17.2551 13.9123 17.184 13.8523C17.0397 13.7307 16.8424 13.5883 16.6179 13.4865C16.3934 13.3847 16.1615 13.3323 15.9357 13.3612C15.7185 13.389 15.4659 13.4969 15.1977 13.7892C14.4824 14.5687 13.2206 15.3633 11.7254 15.5866C10.6105 15.7531 9.37507 15.5999 8.15616 14.9032C8.16229 14.9742 8.16542 15.046 8.16542 15.1185C8.16542 16.3583 7.25231 17.3847 6.06195 17.562ZM8.06459 4.66474C8.06459 4.74427 8.06083 4.82292 8.05348 4.90053C8.7623 4.51054 9.5934 4.26728 10.5364 4.22874L10.5505 4.22727C10.5704 4.22528 10.5979 4.22282 10.6326 4.22045C10.7019 4.21572 10.8 4.21133 10.9221 4.21177C11.1662 4.21263 11.5083 4.23274 11.9112 4.30856C12.7179 4.46038 13.7726 4.83669 14.7658 5.7306L14.7851 5.74799L14.8013 5.76659L14.8014 5.76677L14.8019 5.76735L14.8022 5.76762L14.8026 5.76815L14.8121 5.77853C14.8213 5.78851 14.8363 5.80434 14.8566 5.8247C14.8972 5.86555 14.9586 5.92399 15.0375 5.98991C15.1972 6.12339 15.4187 6.27896 15.6768 6.38573C15.9332 6.49175 16.2132 6.54477 16.5042 6.49401C16.7912 6.44395 17.1279 6.28626 17.4913 5.90447C17.8359 5.54254 17.9349 5.20417 17.9253 4.90287C17.9153 4.58569 17.7827 4.26191 17.5808 3.95392C17.3804 3.64822 17.1291 3.38454 16.9226 3.19448C16.8204 3.10039 16.7316 3.02653 16.6692 2.97686C16.6381 2.95207 16.6137 2.93342 16.5977 2.92142L16.5803 2.90849L16.5769 2.90597L16.5766 2.90582L16.5765 2.9057L16.5763 2.9056L16.5582 2.89269L16.5416 2.87785L16.5415 2.87772L16.5412 2.87747L16.54 2.87639L16.5309 2.86858C16.5224 2.8612 16.5087 2.84955 16.49 2.83408C16.4527 2.80313 16.3954 2.75691 16.3194 2.69896C16.1673 2.58299 15.9403 2.42038 15.647 2.23908C15.0594 1.87593 14.2112 1.4412 13.1692 1.15384C11.3292 0.646363 8.86405 0.590607 6.12244 2.2508C7.23299 2.49278 8.06459 3.48165 8.06459 4.66474ZM4.06458 15.1185C4.06458 14.2182 4.79447 13.4883 5.69483 13.4883C6.59519 13.4883 7.32508 14.2182 7.32508 15.1185C7.32508 16.0189 6.59519 16.7488 5.69483 16.7488C4.79447 16.7488 4.06458 16.0189 4.06458 15.1185Z" fill="#FF00FF"/>
</svg>
