<svg width="16" height="16" viewBox="0 0 16 16" fill="none" xmlns="http://www.w3.org/2000/svg">
<g clip-path="url(#clip0_1447_2911)">
<circle cx="8" cy="8" r="8" fill="#0056D2"/>
<path fill-rule="evenodd" clip-rule="evenodd" d="M9.69015 3.13335C10.72 3.4075 11.7561 4.07591 12.449 4.91336L12.7377 5.26225L11.6985 5.87333C11.127 6.20936 10.6309 6.48431 10.5961 6.48431C10.5614 6.48431 10.4026 6.34983 10.2433 6.18552C9.72784 5.65365 9.21865 5.45737 8.35468 5.45737C7.50696 5.45737 7.19138 5.57016 6.58352 6.0905C6.04468 6.55173 5.73883 7.24282 5.74562 7.98401C5.7525 8.73537 5.98334 9.27822 6.52699 9.82188C7.55215 10.8471 9.19445 10.8324 10.2382 9.78866L10.6589 9.36797L11.6719 9.97878C12.229 10.3146 12.6988 10.6314 12.7159 10.6826C12.7329 10.7339 12.4317 11.0895 12.0466 11.4729C10.9498 12.5648 9.8959 13.001 8.35468 13.001C6.84409 13.001 5.74973 12.5585 4.73439 11.5371C3.9791 10.7773 3.51698 9.93922 3.31686 8.96612C3.1404 8.10822 3.14049 7.89623 3.31703 7.03868C3.52903 6.00933 3.91364 5.30342 4.69341 4.51232C5.39128 3.80435 6.0971 3.38 6.98018 3.13755C7.57367 2.97458 9.08479 2.97226 9.69015 3.13335Z" fill="white"/>
</g>
<defs>
<clipPath id="clip0_1447_2911">
<rect width="16" height="16" fill="white"/>
</clipPath>
</defs>
</svg>
