<svg width="16" height="16" viewBox="0 0 16 16" fill="none" xmlns="http://www.w3.org/2000/svg">
<path fill-rule="evenodd" clip-rule="evenodd" d="M13.6001 1.20001H9.6001V5.20001L11.3144 3.48567C12.7006 4.50505 13.6001 6.14749 13.6001 8.00002C13.6001 10.5368 11.9133 12.6797 9.6001 13.3681V14.1984C12.3605 13.4879 14.4001 10.9822 14.4001 8.00001C14.4001 5.92678 13.4143 4.0838 11.8859 2.91424L13.6001 1.20001ZM1.6001 8.00001C1.6001 5.01786 3.63973 2.5121 6.4001 1.80163V2.63193C4.08691 3.32037 2.4001 5.46321 2.4001 8.00002C2.4001 9.86283 3.30964 11.5132 4.70885 12.5313L6.4001 10.84V14.84H2.4001L4.13704 13.1031C2.59567 11.9344 1.6001 10.0835 1.6001 8.00001Z" fill="#FF00FF"/>
</svg>
