<svg width="16" height="16" viewBox="0 0 16 16" fill="none" xmlns="http://www.w3.org/2000/svg">
<path fill-rule="evenodd" clip-rule="evenodd" d="M13.6001 1.2H9.6001V5.2L11.3144 3.48566C12.7006 4.50503 13.6001 6.14747 13.6001 8.00001C13.6001 10.5368 11.9133 12.6797 9.6001 13.3681V14.1984C12.3605 13.4879 14.4001 10.9821 14.4001 7.99999C14.4001 5.92677 13.4143 4.08379 11.8859 2.91423L13.6001 1.2ZM1.6001 7.99999C1.6001 5.01785 3.63973 2.51209 6.4001 1.80162V2.63191C4.08691 3.32035 2.4001 5.46319 2.4001 8.00001C2.4001 9.86281 3.30964 11.5132 4.70885 12.5312L6.4001 10.84V14.84H2.4001L4.13704 13.1031C2.59567 11.9344 1.6001 10.0835 1.6001 7.99999Z" fill="#FF00FF"/>
</svg>
