<svg width="20" height="20" viewBox="0 0 20 20" fill="none" xmlns="http://www.w3.org/2000/svg">
<path fill-rule="evenodd" clip-rule="evenodd" d="M17 1.5H12V6.5L14.1429 4.35708C15.8756 5.63129 17 7.68434 17 10C17 13.171 14.8915 15.8496 12 16.7101V17.748C15.4505 16.8599 18 13.7277 18 9.99999C18 7.40846 16.7678 5.10474 14.8572 3.64278L17 1.5ZM2 9.99999C2 6.27231 4.54955 3.14011 8 2.25203V3.28989C5.10851 4.15044 3 6.82899 3 10C3 12.3285 4.13693 14.3915 5.88594 15.6641L8 13.55V18.55H3L5.17117 16.3788C3.24446 14.918 2 12.6043 2 9.99999Z" fill="#FF00FF"/>
</svg>
