<svg width="20" height="20" viewBox="0 0 20 20" fill="none" xmlns="http://www.w3.org/2000/svg">
<path opacity="0.3" fill-rule="evenodd" clip-rule="evenodd" d="M15.7622 4.05106L12.3694 0.658272C12.0711 0.358523 11.4481 0 10.9221 0C10.4695 0 10.0258 0.0911001 9.7378 0.263015L3.4225 3.42066L3.42265 3.42067H3.42126L3.42465 3.42407L3.4225 3.42215V3.45566L3.42066 3.42067L0.263015 9.99898C0.149874 10.2385 0 10.6543 0 10.9203C0 11.4948 0.252729 12.0825 0.658272 12.4998L4.07893 15.9205L4.07891 15.9201L4.08078 15.922L4.60681 16.448H4.60813L8.15808 19.9994H16.4482V16.448H16.4483L16.4482 16.4478V16.4465H20V8.28865L15.7903 4.07894C15.7809 4.06952 15.7716 4.06022 15.7622 4.05106Z" fill="#FF00FF"/>
<path opacity="0.4" fill-rule="evenodd" clip-rule="evenodd" d="M3.42476 3.424L16.4467 16.446L16.4484 16.4479H4.60691L4.08088 15.9219C3.55485 15.3944 3.42261 15.1343 3.42261 14.0793V3.42209L3.42476 3.424Z" fill="#FF00FF"/>
<path fill-rule="evenodd" clip-rule="evenodd" d="M4.07893 15.9205L0.658272 12.4999C0.252729 12.0826 0 11.4948 0 10.9203C0 10.6544 0.149874 10.2385 0.263015 9.99902L3.42066 3.42072L3.4225 3.4557V14.0794C3.4225 15.1332 3.55443 15.3939 4.07891 15.9201L4.07893 15.9205ZM16.4466 16.4461L16.4471 16.4466H20V8.28869L15.7903 4.07899C15.1996 3.48537 14.6736 3.42072 13.9477 3.42072H3.42126L3.42465 3.42411L16.4466 16.4461Z" fill="#FF00FF"/>
</svg>
