<svg width="20" height="20" viewBox="0 0 20 20" fill="none" xmlns="http://www.w3.org/2000/svg">
<g clip-path="url(#clip0)">
<path d="M4.07943 15.9211L0.658492 12.5002C0.253001 12.0834 0.000488281 11.4955 0.000488281 10.9213C0.000488281 10.6556 0.151015 10.2398 0.263788 10.0005L3.42142 3.42194L4.07943 15.9211Z" fill="#01579B"/>
<path d="M15.7896 4.07937L12.3687 0.658431C12.0696 0.358358 11.4479 0.000427246 10.9213 0.000427246C10.4692 0.000427246 10.025 0.0906454 9.73715 0.263727L3.4209 3.42136L15.7896 4.07937Z" fill="#40C4FF"/>
<path d="M8.15854 19.9994H16.4473V16.4471L10.264 14.4736L4.6062 16.4471L8.15854 19.9994Z" fill="#40C4FF"/>
<path d="M3.42188 14.0788C3.42188 15.134 3.55426 15.3934 4.07988 15.921L4.60599 16.4471H16.4476L10.6584 9.86849L3.42188 3.42133V14.0788Z" fill="#29B6F6"/>
<path d="M13.9475 3.42133H3.42188L16.4476 16.4471H20V8.28967L15.7896 4.07933C15.1983 3.48556 14.6727 3.42133 13.9475 3.42133Z" fill="#01579B"/>
<path opacity="0.2" d="M4.21128 16.0524C3.68518 15.5238 3.55328 15.0036 3.55328 14.0788V3.55273L3.42188 3.42133V14.0788C3.42188 15.0036 3.42188 15.26 4.21128 16.0524L4.60599 16.4471L4.21128 16.0524Z" fill="white"/>
<path opacity="0.2" d="M19.8688 8.15784V16.3157H16.3154L16.4473 16.4471H20.0002V8.28973L19.8688 8.15784Z" fill="#263238"/>
<path opacity="0.2" d="M15.7896 4.07933C15.1375 3.42721 14.6026 3.42133 13.8161 3.42133H3.42188L3.55328 3.55273H13.8161C14.2088 3.55273 15.1993 3.48703 15.7896 4.07933Z" fill="white"/>
<path opacity="0.2" d="M19.8686 8.15788L15.7896 4.07894L12.3687 0.658004C12.0696 0.357931 11.4479 0 10.9213 0C10.4692 0 10.025 0.0902182 9.73719 0.2633L3.42093 3.42094L0.2633 9.99951C0.150527 10.2388 0 10.6546 0 10.9203C0 11.495 0.252513 12.0824 0.658004 12.4991L3.81074 15.6288C3.88624 15.721 3.9745 15.8151 4.07894 15.9201L4.21034 16.0515L4.60505 16.4462L8.02598 19.8671L8.15739 19.9985H16.3148H16.4462V16.4462H19.9985V16.4369V8.28977L19.8686 8.15788Z" fill="url(#paint0_radial)"/>
</g>
<defs>
<radialGradient id="paint0_radial" cx="0" cy="0" r="1" gradientUnits="userSpaceOnUse" gradientTransform="translate(9.99951 9.99911) scale(9.99926)">
<stop stop-color="white" stop-opacity="0.1"/>
<stop offset="1" stop-color="white" stop-opacity="0"/>
</radialGradient>
<clipPath id="clip0">
<rect width="20" height="20" fill="white"/>
</clipPath>
</defs>
</svg>
