<svg width="16" height="16" viewBox="0 0 16 16" fill="none" xmlns="http://www.w3.org/2000/svg">
<g clip-path="url(#clip0_1747_1243)">
<path d="M4.7053 9.6414L0 16H6.69329C6.69329 16 7.9764 15.3357 8.7289 14.1249C8.72724 14.1274 8.72559 14.1298 8.72394 14.132C8.72653 14.1277 8.72911 14.124 8.7317 14.1204C8.94385 13.7781 9.11347 13.3922 9.19971 12.9654C9.59037 11.0254 7.65849 9.64147 4.7053 9.6414Z" fill="#FF00FF"/>
<path d="M4.08777 1.65647C4.44157 1.14311 4.81717 0.598127 5.2293 0.000112594C5.2293 0.000112594 5.3573 0.00144592 5.64796 0.000112594C7.69728 -0.00788735 15.9999 0.390776 15.9999 7.54673C15.9999 15.6981 6.734 15.9987 6.69329 16C6.69521 15.9997 6.71771 15.9954 6.7575 15.9863C7.25977 15.8728 10.5397 15.0054 10.5796 11.7088C10.5798 11.6886 10.5799 11.6684 10.5799 11.6481C10.5799 8.02541 7.06928 7.58939 4.81063 7.58939H0C1.62946 5.22343 2.68801 3.6875 4.08777 1.65647Z" fill="#FF00FF"/>
</g>
<defs>
<clipPath id="clip0_1747_1243">
<rect width="16" height="16" fill="white"/>
</clipPath>
</defs>
</svg>
