<svg width="16" height="16" viewBox="0 0 16 16" fill="none" xmlns="http://www.w3.org/2000/svg">
<g clip-path="url(#clip0_1747_1242)">
<path fill-rule="evenodd" clip-rule="evenodd" d="M5.64663 0.000112594C5.35596 0.00144592 5.22796 0.000112594 5.22796 0.000112594C3.18664 2.96409 2.04132 4.62541 0 7.58939C0 7.58939 2.55198 7.58939 4.81063 7.58939C5.21996 7.58939 5.66929 7.60406 6.13196 7.64939L4.7053 9.64138L0 16H6.69329C6.69329 16 15.9999 15.7147 15.9999 7.54673C15.9999 0.390776 7.69728 -0.00788735 5.64663 0.000112594Z" fill="#3793EF"/>
<path fill-rule="evenodd" clip-rule="evenodd" d="M6.69329 16C6.69329 16 10.5799 15.2694 10.5799 11.6481C10.5799 8.68141 8.22528 7.85208 6.13196 7.64941L4.7053 9.6414L0 16H6.69329ZM8.72394 14.132C8.72794 14.1254 8.73194 14.12 8.73594 14.1147C8.73194 14.12 8.72794 14.1267 8.72394 14.132Z" fill="#1560AB"/>
<path fill-rule="evenodd" clip-rule="evenodd" d="M4.70508 9.6414C7.65839 9.6414 9.59038 11.0254 9.19971 12.9654C8.80772 14.9054 6.69306 16 6.69306 16C6.69306 16 10.5797 15.2694 10.5797 11.6481C10.5797 8.68141 8.22505 7.85208 6.13173 7.64941L4.70508 9.6414Z" fill="#012447"/>
</g>
<defs>
<clipPath id="clip0_1747_1242">
<rect width="16" height="16" fill="white"/>
</clipPath>
</defs>
</svg>
