<svg width="16" height="16" viewBox="0 0 16 16" fill="none" xmlns="http://www.w3.org/2000/svg">
<path d="M2.97781 11.1932H0V12.1336H2.97781V11.1932Z" fill="#FF00FF"/>
<path d="M2.97781 10.0963H0V11.0367H2.97781V10.0963Z" fill="#FF00FF"/>
<path d="M2.97781 8.99889H0V9.7825H2.97781V8.99889Z" fill="#FF00FF"/>
<path d="M2.97781 7.90197H0V8.68559H2.97781V7.90197Z" fill="#FF00FF"/>
<path d="M2.97781 6.64814H0V7.58853H2.97781V6.64814Z" fill="#FF00FF"/>
<path d="M6.0983 11.1932H3.27715V12.1336H6.0983V11.1932Z" fill="#FF00FF"/>
<path d="M6.0983 10.0963H3.27715V11.0367H6.0983V10.0963Z" fill="#FF00FF"/>
<path d="M6.0983 8.99888H3.27715V9.78249H6.0983V8.99888Z" fill="#FF00FF"/>
<path d="M9.37564 11.1932H6.55449V12.1336H9.37564V11.1932Z" fill="#FF00FF"/>
<path d="M9.37564 10.0963H6.55449V11.0367H9.37564V10.0963Z" fill="#FF00FF"/>
<path d="M9.37564 8.99886H6.55449V9.78248H9.37564V8.99886Z" fill="#FF00FF"/>
<path d="M9.37564 7.90195H6.55449V8.68557H9.37564V7.90195Z" fill="#FF00FF"/>
<path d="M9.37564 6.64812H6.55449V7.58851H9.37564V6.64812Z" fill="#FF00FF"/>
<path d="M9.37564 5.55056H6.55449V6.49095H9.37564V5.55056Z" fill="#FF00FF"/>
<path d="M9.37564 4.45376H6.55449V5.23737H9.37564V4.45376Z" fill="#FF00FF"/>
<path d="M12.7228 11.1932H9.74492V12.1336H12.7228V11.1932Z" fill="#FF00FF"/>
<path d="M12.7228 10.0963H9.74492V11.0367H12.7228V10.0963Z" fill="#FF00FF"/>
<path d="M12.7228 8.99889H9.74492V9.7825H12.7228V8.99889Z" fill="#FF00FF"/>
<path d="M12.7228 7.90197H9.74492V8.68559H12.7228V7.90197Z" fill="#FF00FF"/>
<path d="M12.7228 6.64814H9.74492V7.58853H12.7228V6.64814Z" fill="#FF00FF"/>
<path d="M16 11.1932H13.0221V12.1336H16V11.1932Z" fill="#FF00FF"/>
<path d="M16 10.0963H13.0221V11.0367H16V10.0963Z" fill="#FF00FF"/>
<path d="M16 8.99889H13.0221V9.7825H16V8.99889Z" fill="#FF00FF"/>
<path d="M16 7.90197H13.0221V8.68559H16V7.90197Z" fill="#FF00FF"/>
<path d="M16 6.64814H13.0221V7.58853H16V6.64814Z" fill="#FF00FF"/>
<path d="M16 5.55058H13.0221V6.49097H16V5.55058Z" fill="#FF00FF"/>
<path d="M16 4.45378H13.0221V5.23739H16V4.45378Z" fill="#FF00FF"/>
<path d="M16 3.19995H13.0221V4.14034H16V3.19995Z" fill="#FF00FF"/>
</svg>
