<svg width="16" height="16" viewBox="0 0 16 16" fill="none" xmlns="http://www.w3.org/2000/svg">
<path d="M2.97781 11.1933H0V12.1337H2.97781V11.1933Z" fill="#FF00FF"/>
<path d="M2.97781 10.0964H0V11.0368H2.97781V10.0964Z" fill="#FF00FF"/>
<path d="M2.97781 8.99895H0V9.78256H2.97781V8.99895Z" fill="#FF00FF"/>
<path d="M2.97781 7.90203H0V8.68565H2.97781V7.90203Z" fill="#FF00FF"/>
<path d="M2.97781 6.64821H0V7.58859H2.97781V6.64821Z" fill="#FF00FF"/>
<path d="M6.0983 11.1933H3.27715V12.1337H6.0983V11.1933Z" fill="#FF00FF"/>
<path d="M6.0983 10.0964H3.27715V11.0368H6.0983V10.0964Z" fill="#FF00FF"/>
<path d="M6.0983 8.99894H3.27715V9.78255H6.0983V8.99894Z" fill="#FF00FF"/>
<path d="M9.37564 11.1933H6.55449V12.1337H9.37564V11.1933Z" fill="#FF00FF"/>
<path d="M9.37564 10.0964H6.55449V11.0368H9.37564V10.0964Z" fill="#FF00FF"/>
<path d="M9.37564 8.99893H6.55449V9.78254H9.37564V8.99893Z" fill="#FF00FF"/>
<path d="M9.37564 7.90201H6.55449V8.68563H9.37564V7.90201Z" fill="#FF00FF"/>
<path d="M9.37564 6.64818H6.55449V7.58857H9.37564V6.64818Z" fill="#FF00FF"/>
<path d="M9.37564 5.55062H6.55449V6.49101H9.37564V5.55062Z" fill="#FF00FF"/>
<path d="M9.37564 4.45382H6.55449V5.23744H9.37564V4.45382Z" fill="#FF00FF"/>
<path d="M12.7228 11.1933H9.74492V12.1337H12.7228V11.1933Z" fill="#FF00FF"/>
<path d="M12.7228 10.0964H9.74492V11.0368H12.7228V10.0964Z" fill="#FF00FF"/>
<path d="M12.7228 8.99895H9.74492V9.78256H12.7228V8.99895Z" fill="#FF00FF"/>
<path d="M12.7228 7.90203H9.74492V8.68565H12.7228V7.90203Z" fill="#FF00FF"/>
<path d="M12.7228 6.64821H9.74492V7.58859H12.7228V6.64821Z" fill="#FF00FF"/>
<path d="M16 11.1933H13.0221V12.1337H16V11.1933Z" fill="#FF00FF"/>
<path d="M16 10.0964H13.0221V11.0368H16V10.0964Z" fill="#FF00FF"/>
<path d="M16 8.99895H13.0221V9.78256H16V8.99895Z" fill="#FF00FF"/>
<path d="M16 7.90203H13.0221V8.68565H16V7.90203Z" fill="#FF00FF"/>
<path d="M16 6.6482H13.0221V7.58859H16V6.6482Z" fill="#FF00FF"/>
<path d="M16 5.55065H13.0221V6.49103H16V5.55065Z" fill="#FF00FF"/>
<path d="M16 4.45384H13.0221V5.23746H16V4.45384Z" fill="#FF00FF"/>
<path d="M16 3.20001H13.0221V4.1404H16V3.20001Z" fill="#FF00FF"/>
</svg>
