<svg width="16" height="16" viewBox="0 0 16 16" fill="none" xmlns="http://www.w3.org/2000/svg">
<path d="M2.97781 11.1932H0V12.1336H2.97781V11.1932Z" fill="#E21E25"/>
<path d="M2.97781 10.0964H0V11.0368H2.97781V10.0964Z" fill="#E21E25"/>
<path d="M2.97781 8.9989H0V9.78251H2.97781V8.9989Z" fill="#E21E25"/>
<path d="M2.97781 7.90198H0V8.68559H2.97781V7.90198Z" fill="#F3997A"/>
<path d="M2.97781 6.64819H0V7.58858H2.97781V6.64819Z" fill="#F3997A"/>
<path d="M6.09825 11.1932H3.2771V12.1336H6.09825V11.1932Z" fill="#FAEC0A"/>
<path d="M6.09825 10.0964H3.2771V11.0368H6.09825V10.0964Z" fill="#FAEC0A"/>
<path d="M6.09825 8.9989H3.2771V9.78252H6.09825V8.9989Z" fill="#FAEC0A"/>
<path d="M9.3756 11.1932H6.55444V12.1336H9.3756V11.1932Z" fill="#E5067E"/>
<path d="M9.3756 10.0963H6.55444V11.0367H9.3756V10.0963Z" fill="#E5067E"/>
<path d="M9.3756 8.9989H6.55444V9.78252H9.3756V8.9989Z" fill="#E5067E"/>
<path d="M9.3756 7.90198H6.55444V8.68559H9.3756V7.90198Z" fill="#F19DC4"/>
<path d="M9.3756 6.64819H6.55444V7.58858H9.3756V6.64819Z" fill="#F19DC4"/>
<path d="M9.3756 5.55066H6.55444V6.49104H9.3756V5.55066Z" fill="#F19DC4"/>
<path d="M9.3756 4.45386H6.55444V5.23747H9.3756V4.45386Z" fill="#F19DC4"/>
<path d="M12.7228 11.1932H9.74487V12.1336H12.7228V11.1932Z" fill="#C6D32D"/>
<path d="M12.7228 10.0964H9.74487V11.0368H12.7228V10.0964Z" fill="#C6D32D"/>
<path d="M12.7228 8.9989H9.74487V9.78251H12.7228V8.9989Z" fill="#C6D32D"/>
<path d="M12.7228 7.90198H9.74487V8.68559H12.7228V7.90198Z" fill="#E5E999"/>
<path d="M12.7228 6.64819H9.74487V7.58858H12.7228V6.64819Z" fill="#E5E999"/>
<path d="M15.9999 11.1932H13.022V12.1336H15.9999V11.1932Z" fill="#42C0EF"/>
<path d="M15.9999 10.0964H13.022V11.0368H15.9999V10.0964Z" fill="#42C0EF"/>
<path d="M15.9999 8.9989H13.022V9.78252H15.9999V8.9989Z" fill="#42C0EF"/>
<path d="M15.9999 7.90198H13.022V8.68559H15.9999V7.90198Z" fill="#BCE4F9"/>
<path d="M15.9999 6.64819H13.022V7.58858H15.9999V6.64819Z" fill="#BCE4F9"/>
<path d="M15.9999 5.55066H13.022V6.49104H15.9999V5.55066Z" fill="#BCE4F9"/>
<path d="M15.9999 4.45386H13.022V5.23747H15.9999V4.45386Z" fill="#BCE4F9"/>
<path d="M15.9999 3.19995H13.022V4.14034H15.9999V3.19995Z" fill="#BCE4F9"/>
</svg>
