<svg width="20" height="20" viewBox="0 0 20 20" fill="none" xmlns="http://www.w3.org/2000/svg">
<path d="M3.72226 13.9916H0V15.1671H3.72226V13.9916Z" fill="#FF00FF"/>
<path d="M3.72226 12.6205H0V13.796H3.72226V12.6205Z" fill="#FF00FF"/>
<path d="M3.72226 11.2487H0V12.2282H3.72226V11.2487Z" fill="#FF00FF"/>
<path d="M3.72226 9.87753H0V10.8571H3.72226V9.87753Z" fill="#FF00FF"/>
<path d="M3.72226 8.31024H0V9.48572H3.72226V8.31024Z" fill="#FF00FF"/>
<path d="M7.62288 13.9916H4.09644V15.1671H7.62288V13.9916Z" fill="#FF00FF"/>
<path d="M7.62288 12.6205H4.09644V13.796H7.62288V12.6205Z" fill="#FF00FF"/>
<path d="M7.62288 11.2487H4.09644V12.2282H7.62288V11.2487Z" fill="#FF00FF"/>
<path d="M11.7196 13.9916H8.19312V15.1671H11.7196V13.9916Z" fill="#FF00FF"/>
<path d="M11.7196 12.6205H8.19312V13.7959H11.7196V12.6205Z" fill="#FF00FF"/>
<path d="M11.7196 11.2486H8.19312V12.2281H11.7196V11.2486Z" fill="#FF00FF"/>
<path d="M11.7196 9.8775H8.19312V10.857H11.7196V9.8775Z" fill="#FF00FF"/>
<path d="M11.7196 8.31021H8.19312V9.48569H11.7196V8.31021Z" fill="#FF00FF"/>
<path d="M11.7196 6.93826H8.19312V8.11374H11.7196V6.93826Z" fill="#FF00FF"/>
<path d="M11.7196 5.56726H8.19312V6.54678H11.7196V5.56726Z" fill="#FF00FF"/>
<path d="M15.9036 13.9916H12.1812V15.1671H15.9036V13.9916Z" fill="#FF00FF"/>
<path d="M15.9036 12.6205H12.1812V13.796H15.9036V12.6205Z" fill="#FF00FF"/>
<path d="M15.9036 11.2487H12.1812V12.2282H15.9036V11.2487Z" fill="#FF00FF"/>
<path d="M15.9036 9.87753H12.1812V10.8571H15.9036V9.87753Z" fill="#FF00FF"/>
<path d="M15.9036 8.31024H12.1812V9.48572H15.9036V8.31024Z" fill="#FF00FF"/>
<path d="M20 13.9916H16.2776V15.1671H20V13.9916Z" fill="#FF00FF"/>
<path d="M20 12.6205H16.2776V13.796H20V12.6205Z" fill="#FF00FF"/>
<path d="M20 11.2487H16.2776V12.2282H20V11.2487Z" fill="#FF00FF"/>
<path d="M20 9.87753H16.2776V10.8571H20V9.87753Z" fill="#FF00FF"/>
<path d="M20 8.31024H16.2776V9.48572H20V8.31024Z" fill="#FF00FF"/>
<path d="M20 6.93829H16.2776V8.11377H20V6.93829Z" fill="#FF00FF"/>
<path d="M20 5.56729H16.2776V6.54681H20V5.56729Z" fill="#FF00FF"/>
<path d="M20 4H16.2776V5.17548H20V4Z" fill="#FF00FF"/>
</svg>
