<svg width="20" height="20" viewBox="0 0 20 20" fill="none" xmlns="http://www.w3.org/2000/svg">
<g clip-path="url(#clip0)">
<path fill-rule="evenodd" clip-rule="evenodd" d="M3.97171 2.02393H16.0317C17.0487 2.02393 17.8767 2.85193 17.8767 3.87793V20.0239L15.9417 18.3139L14.8527 17.3059L13.7007 16.2349L14.1777 17.8999H3.97171C2.95471 17.8999 2.12671 17.0719 2.12671 16.0459V3.87793C2.12671 2.85193 2.95471 2.02393 3.97171 2.02393ZM11.9637 13.0489C12.2337 13.3909 12.5577 13.7779 12.5577 13.7779C14.5467 13.7149 15.3117 12.4099 15.3117 12.4099C15.3117 9.51192 14.0157 7.16293 14.0157 7.16293C12.7197 6.19093 11.4867 6.21793 11.4867 6.21793L11.3607 6.36193C12.8907 6.82993 13.6017 7.50493 13.6017 7.50493C12.6657 6.99193 11.7477 6.73993 10.8927 6.64093C10.2447 6.56893 9.62371 6.58693 9.07471 6.65893C9.02757 6.65893 8.98729 6.66578 8.94189 6.67351C8.93528 6.67464 8.92857 6.67578 8.92171 6.67693C8.60671 6.70393 7.84171 6.82093 6.87871 7.24393C6.54571 7.39693 6.34771 7.50493 6.34771 7.50493C6.34771 7.50493 7.09471 6.79393 8.71471 6.32593L8.62471 6.21793C8.62471 6.21793 7.39171 6.19093 6.09571 7.16293C6.09571 7.16293 4.79971 9.51192 4.79971 12.4099C4.79971 12.4099 5.55571 13.7149 7.54471 13.7779C7.54471 13.7779 7.87771 13.3729 8.14771 13.0309C7.00471 12.6889 6.57271 11.9689 6.57271 11.9689C6.57271 11.9689 6.66271 12.0319 6.82471 12.1219C6.83371 12.1309 6.84271 12.1399 6.86071 12.1489C6.87421 12.1579 6.88771 12.1647 6.90121 12.1714C6.91471 12.1782 6.92821 12.1849 6.94171 12.1939C7.16671 12.3199 7.39171 12.4189 7.59871 12.4999C7.96771 12.6439 8.40871 12.7879 8.92171 12.8869C9.59671 13.0129 10.3887 13.0579 11.2527 12.8959C11.6757 12.8239 12.1077 12.6979 12.5577 12.5089C12.8727 12.3919 13.2237 12.2209 13.5927 11.9779C13.5927 11.9779 13.1427 12.7159 11.9637 13.0489ZM7.45459 10.5738C7.45459 10.0248 7.85959 9.5748 8.37259 9.5748C8.88559 9.5748 9.29959 10.0248 9.29059 10.5738C9.29059 11.1228 8.88559 11.5728 8.37259 11.5728C7.86859 11.5728 7.45459 11.1228 7.45459 10.5738ZM10.7396 10.5738C10.7396 10.0248 11.1446 9.5748 11.6576 9.5748C12.1706 9.5748 12.5756 10.0248 12.5756 10.5738C12.5756 11.1228 12.1706 11.5728 11.6576 11.5728C11.1536 11.5728 10.7396 11.1228 10.7396 10.5738Z" fill="#FF00FF"/>
</g>
<defs>
<clipPath id="clip0">
<rect width="20" height="20" fill="white"/>
</clipPath>
</defs>
</svg>
