<svg width="20" height="20" viewBox="0 0 20 20" fill="none" xmlns="http://www.w3.org/2000/svg">
<g clip-path="url(#clip0)">
<path d="M16.0317 2.02393H3.97171C2.95471 2.02393 2.12671 2.85193 2.12671 3.87793V16.0459C2.12671 17.0719 2.95471 17.8999 3.97171 17.8999H14.1777L13.7007 16.2349L14.8527 17.3059L15.9417 18.3139L17.8767 20.0239C17.8767 13.7185 17.8767 10.1833 17.8767 3.87793C17.8767 2.85193 17.0487 2.02393 16.0317 2.02393Z" fill="#5865F2"/>
<path fill-rule="evenodd" clip-rule="evenodd" d="M11.9638 13.049C12.2338 13.391 12.5578 13.778 12.5578 13.778C14.5468 13.715 15.3118 12.41 15.3118 12.41C15.3118 9.51197 14.0158 7.16297 14.0158 7.16297C12.7198 6.19097 11.4868 6.21797 11.4868 6.21797L11.3608 6.36197C12.8908 6.82997 13.6018 7.50497 13.6018 7.50497C12.6658 6.99197 11.7478 6.73997 10.8928 6.64097C10.2448 6.56897 9.62381 6.58697 9.0748 6.65897C9.02766 6.65897 8.98738 6.66583 8.94198 6.67356C8.93538 6.67468 8.92866 6.67583 8.92181 6.67697C8.60681 6.70397 7.84181 6.82097 6.87881 7.24397C6.54581 7.39697 6.34781 7.50497 6.34781 7.50497C6.34781 7.50497 7.09481 6.79397 8.71481 6.32597L8.6248 6.21797C8.6248 6.21797 7.3918 6.19097 6.0958 7.16297C6.0958 7.16297 4.7998 9.51197 4.7998 12.41C4.7998 12.41 5.5558 13.715 7.54481 13.778C7.54481 13.778 7.87781 13.373 8.14781 13.031C7.00481 12.689 6.57281 11.969 6.57281 11.969C6.57281 11.969 6.6628 12.032 6.8248 12.122C6.8338 12.131 6.84281 12.14 6.86081 12.149C6.87431 12.158 6.8878 12.1647 6.9013 12.1715C6.9148 12.1782 6.9283 12.185 6.9418 12.194C7.1668 12.32 7.39181 12.419 7.59881 12.5C7.96781 12.644 8.40881 12.788 8.92181 12.887C9.59681 13.013 10.3888 13.058 11.2528 12.896C11.6758 12.824 12.1078 12.698 12.5578 12.509C12.8728 12.392 13.2238 12.221 13.5928 11.978C13.5928 11.978 13.1428 12.716 11.9638 13.049ZM7.45476 10.5738C7.45476 10.0248 7.85976 9.57477 8.37276 9.57477C8.88576 9.57477 9.29976 10.0248 9.29076 10.5738C9.29076 11.1228 8.88576 11.5728 8.37276 11.5728C7.86876 11.5728 7.45476 11.1228 7.45476 10.5738ZM10.7398 10.5738C10.7398 10.0248 11.1448 9.57477 11.6578 9.57477C12.1708 9.57477 12.5758 10.0248 12.5758 10.5738C12.5758 11.1228 12.1708 11.5728 11.6578 11.5728C11.1538 11.5728 10.7398 11.1228 10.7398 10.5738Z" fill="white"/>
</g>
<defs>
<clipPath id="clip0">
<rect width="20" height="20" fill="white"/>
</clipPath>
</defs>
</svg>
