<svg width="16" height="16" viewBox="0 0 16 16" fill="none" xmlns="http://www.w3.org/2000/svg">
<g clip-path="url(#clip0_1447_2961)">
<path d="M12.8252 1.61914H3.17717C2.36357 1.61914 1.70117 2.28154 1.70117 3.10234V12.8367C1.70117 13.6575 2.36357 14.3199 3.17717 14.3199H11.342L10.9604 12.9879L11.882 13.8447L12.7532 14.6511L14.3012 16.0191C14.3012 10.9748 14.3012 8.14666 14.3012 3.10234C14.3012 2.28154 13.6388 1.61914 12.8252 1.61914Z" fill="#5865F2"/>
<path fill-rule="evenodd" clip-rule="evenodd" d="M9.57104 10.4392C9.78704 10.7128 10.0462 11.0224 10.0462 11.0224C11.6374 10.972 12.2494 9.92796 12.2494 9.92796C12.2494 7.60956 11.2126 5.73036 11.2126 5.73036C10.1758 4.95276 9.18944 4.97436 9.18944 4.97436L9.08864 5.08956C10.3126 5.46396 10.8814 6.00396 10.8814 6.00396C10.1326 5.59356 9.39824 5.39196 8.71424 5.31276C8.19584 5.25516 7.69904 5.26956 7.25984 5.32716C7.22213 5.32716 7.1899 5.33265 7.15358 5.33884C7.1483 5.33973 7.14293 5.34065 7.13744 5.34156C6.88544 5.36316 6.27344 5.45676 5.50304 5.79516C5.23664 5.91756 5.07824 6.00396 5.07824 6.00396C5.07824 6.00396 5.67584 5.43516 6.97184 5.06076L6.89984 4.97436C6.89984 4.97436 5.91344 4.95276 4.87664 5.73036C4.87664 5.73036 3.83984 7.60956 3.83984 9.92796C3.83984 9.92796 4.44464 10.972 6.03584 11.0224C6.03584 11.0224 6.30224 10.6984 6.51824 10.4248C5.60384 10.1512 5.25824 9.57516 5.25824 9.57516C5.25824 9.57516 5.33024 9.62556 5.45984 9.69756C5.46704 9.70476 5.47424 9.71196 5.48864 9.71916C5.49944 9.72636 5.51024 9.73176 5.52104 9.73716C5.53184 9.74256 5.54264 9.74796 5.55344 9.75516C5.73344 9.85596 5.91344 9.93516 6.07904 9.99996C6.37424 10.1152 6.72704 10.2304 7.13744 10.3096C7.67744 10.4104 8.31104 10.4464 9.00224 10.3168C9.34064 10.2592 9.68624 10.1584 10.0462 10.0072C10.2982 9.91356 10.579 9.77676 10.8742 9.58236C10.8742 9.58236 10.5142 10.1728 9.57104 10.4392ZM5.96381 8.45901C5.96381 8.0198 6.28781 7.6598 6.69821 7.6598C7.10861 7.6598 7.43981 8.0198 7.43261 8.45901C7.43261 8.89821 7.10861 9.25821 6.69821 9.25821C6.29501 9.25821 5.96381 8.89821 5.96381 8.45901ZM8.59181 8.45901C8.59181 8.0198 8.91581 7.6598 9.32621 7.6598C9.73661 7.6598 10.0606 8.0198 10.0606 8.45901C10.0606 8.89821 9.73661 9.25821 9.32621 9.25821C8.92301 9.25821 8.59181 8.89821 8.59181 8.45901Z" fill="white"/>
</g>
<defs>
<clipPath id="clip0_1447_2961">
<rect width="16" height="16" fill="white"/>
</clipPath>
</defs>
</svg>
