<svg width="16" height="16" viewBox="0 0 16 16" fill="none" xmlns="http://www.w3.org/2000/svg">
<g clip-path="url(#clip0_1447_1745)">
<path d="M5.96372 8.45904C5.96372 8.01984 6.28772 7.65984 6.69812 7.65984C7.10852 7.65984 7.43972 8.01984 7.43252 8.45904C7.43252 8.89825 7.10852 9.25825 6.69812 9.25825C6.29492 9.25825 5.96372 8.89825 5.96372 8.45904Z" fill="#FF00FF"/>
<path d="M8.59172 8.45904C8.59172 8.01984 8.91572 7.65984 9.32612 7.65984C9.73652 7.65984 10.0605 8.01984 10.0605 8.45904C10.0605 8.89825 9.73652 9.25825 9.32612 9.25825C8.92292 9.25825 8.59172 8.89825 8.59172 8.45904Z" fill="#FF00FF"/>
<path fill-rule="evenodd" clip-rule="evenodd" d="M3.17742 1.61914H12.8254C13.639 1.61914 14.3014 2.28154 14.3014 3.10234V16.0191L12.7534 14.6511L11.8822 13.8447L10.9606 12.9879L11.3422 14.3199H3.17742C2.36382 14.3199 1.70142 13.6575 1.70142 12.8367V3.10234C1.70142 2.28154 2.36382 1.61914 3.17742 1.61914ZM9.57102 10.4391C9.78702 10.7127 10.0462 11.0223 10.0462 11.0223C11.6374 10.9719 12.2494 9.92794 12.2494 9.92794C12.2494 7.60954 11.2126 5.73034 11.2126 5.73034C10.1758 4.95274 9.18942 4.97434 9.18942 4.97434L9.08862 5.08954C10.3126 5.46394 10.8814 6.00394 10.8814 6.00394C10.1326 5.59354 9.39822 5.39194 8.71422 5.31274C8.19582 5.25514 7.69902 5.26954 7.25982 5.32714C7.2221 5.32714 7.18988 5.33263 7.15356 5.33881C7.14827 5.33971 7.1429 5.34063 7.13742 5.34154C6.88542 5.36314 6.27342 5.45674 5.50302 5.79514C5.23662 5.91754 5.07822 6.00394 5.07822 6.00394C5.07822 6.00394 5.67582 5.43514 6.97182 5.06074L6.89982 4.97434C6.89982 4.97434 5.91342 4.95274 4.87662 5.73034C4.87662 5.73034 3.83982 7.60954 3.83982 9.92794C3.83982 9.92794 4.44462 10.9719 6.03582 11.0223C6.03582 11.0223 6.30222 10.6983 6.51822 10.4247C5.60382 10.1511 5.25822 9.57514 5.25822 9.57514C5.25822 9.57514 5.33022 9.62554 5.45982 9.69754C5.46702 9.70474 5.47422 9.71194 5.48862 9.71914C5.49942 9.72634 5.51021 9.73174 5.52101 9.73714C5.53181 9.74254 5.54262 9.74794 5.55342 9.75514C5.73342 9.85594 5.91342 9.93514 6.07902 9.99994C6.37422 10.1151 6.72702 10.2303 7.13742 10.3095C7.67742 10.4103 8.31102 10.4463 9.00222 10.3167C9.34062 10.2591 9.68622 10.1583 10.0462 10.0071C10.2982 9.91354 10.579 9.77674 10.8742 9.58234C10.8742 9.58234 10.5142 10.1727 9.57102 10.4391Z" fill="#FF00FF"/>
</g>
<defs>
<clipPath id="clip0_1447_1745">
<rect width="16" height="16" fill="white"/>
</clipPath>
</defs>
</svg>
