<svg width="16" height="16" fill="none" xmlns="http://www.w3.org/2000/svg"><g clip-path="url(#a)"><path fill-rule="evenodd" clip-rule="evenodd" d="M8.234.003a11.123 11.123 0 0 0-1.09.08 1.183 1.183 0 0 0-.066.008l-.07.01c-.056.006-.186.024-.319.045l-.086.013a12.505 12.505 0 0 0-.697.13 12.607 12.607 0 0 1-.24.052 11.564 11.564 0 0 0-.407.098 14.415 14.415 0 0 1-.31.082l-.084.023a10.293 10.293 0 0 0-.361.106l-.09.027-.166.053a18.491 18.491 0 0 0-1.645.611 1.733 1.733 0 0 0-.127.055c-.307.137-.525.32-.63.527a.553.553 0 0 0-.062.328.48.48 0 0 0 .27.368.56.56 0 0 0 .131.046c.05.012.147.017.215.01a.88.88 0 0 0 .273-.077c.042-.02.046-.02.075-.02.046 0 .133.01.176.021.129.033.223.098.265.185a.278.278 0 0 1 .018.057c.005.03.006.04.002.066a.29.29 0 0 1-.09.167.86.86 0 0 1-.04.038.807.807 0 0 1-.306.141 1.053 1.053 0 0 1-.232.041 2.76 2.76 0 0 1-.167.022 34.398 34.398 0 0 1-.466.06c-.184.02-.334.054-.46.105-.07.029-.13.06-.187.096a.991.991 0 0 0-.316.316 1.003 1.003 0 0 0-.123.741l.01.045a1.065 1.065 0 0 0 .152.342 1.011 1.011 0 0 0 .629.423c.076.018.19.028.305.028.038 0 .163.004.277.008l.314.01c.06 0 .206.005.327.01.203.007.222.008.267.018a.42.42 0 0 1 .152.057.259.259 0 0 1 .079.087c.013.026.013.028.013.076 0 .045 0 .05-.011.074a.358.358 0 0 1-.227.185.627.627 0 0 1-.143.026 23.558 23.558 0 0 0-.303.037 1.51 1.51 0 0 1-.068.008 1.335 1.335 0 0 0-.064.008l-.063.007a2.386 2.386 0 0 0-.082.01l-.08.01a2.65 2.65 0 0 0-.084.01.388.388 0 0 1-.115.004.937.937 0 0 0-.188.001.645.645 0 0 0-.244.069.59.59 0 0 0-.323.436.579.579 0 0 0-.009.152c0 .104.001.112.011.16a.979.979 0 0 0 .108.293c.086.161.24.31.41.4.094.048.166.074.284.102a2.832 2.832 0 0 1 .125.033 17.833 17.833 0 0 1 .267.073 9.277 9.277 0 0 1 .813.273 5.162 5.162 0 0 1 .777.386c.043.027.14.092.164.11.127.093.196.152.292.248a3.42 3.42 0 0 1 .12.13c.055.064.112.145.154.218.104.182.165.395.165.583 0 .032 0 .036-.007.036l-.108-.006a3.706 3.706 0 0 0-.659.023 2.57 2.57 0 0 0-.355.075 1.85 1.85 0 0 0-.45.196l-.036.024a1.94 1.94 0 0 0-.118.088c-.082.069-.17.171-.221.258a.671.671 0 0 0-.09.257.437.437 0 0 0-.001.14.447.447 0 0 0 .132.267c.085.084.179.13.329.161.049.01.055.01.18.01a.963.963 0 0 0 .18-.008 1.723 1.723 0 0 1 .163-.02 7.572 7.572 0 0 1 1.014-.044c.655.021 1.139.176 1.413.452a.664.664 0 0 1 .16.244l.017.046c.008.018.024.09.033.144.036.213-.005.484-.113.76a3.726 3.726 0 0 1-.098.218 3 3 0 0 1-.127.237 4.463 4.463 0 0 1-.197.305c-.067.097-.14.194-.218.292l-.075.093a.16.16 0 0 1-.025.028s.024-.04.055-.086c.09-.136.095-.143.174-.275a13.06 13.06 0 0 1 .075-.127l.025-.046a3.902 3.902 0 0 0 .092-.173 5.449 5.449 0 0 0 .15-.338 2.316 2.316 0 0 0 .145-.532c.01-.055.011-.08.013-.186a.764.764 0 0 0-.027-.276.883.883 0 0 0-.053-.143.385.385 0 0 0-.183-.186c-.133-.054-.367-.07-.562-.04a1.783 1.783 0 0 0-.444.127l-.039.016a2.752 2.752 0 0 0-.543.32 3.62 3.62 0 0 0-.581.543 3.137 3.137 0 0 0-.099.115l-.106.135a5.245 5.245 0 0 0-.396.61 4.425 4.425 0 0 0-.246.543c.001.001.024-.029.052-.066a7.568 7.568 0 0 1 .341-.425c.186-.22.436-.473.627-.635.275-.233.515-.375.742-.441.08-.023.131-.03.215-.03a.398.398 0 0 1 .186.03c.106.061.121.207.046.45-.019.06-.025.078-.063.167a3.169 3.169 0 0 1-.33.58 2.862 2.862 0 0 1-.519.569c-.037.03-.13.094-.16.11a.7.7 0 0 1-.25.093.33.33 0 0 1-.13-.002.334.334 0 0 1-.28-.257.334.334 0 0 1-.011-.122.78.78 0 0 1 .004-.106 2.114 2.114 0 0 1 .03-.129l-.057.088a4.336 4.336 0 0 0-.31.587 2.739 2.739 0 0 0-.108.318c-.09.34-.072.629.052.842.081.14.213.248.377.307L3.69 16h.739l.037-.01a2.688 2.688 0 0 0 .404-.134 4.121 4.121 0 0 0 .783-.44 5.266 5.266 0 0 0 .453-.365 5.231 5.231 0 0 0 .48-.5 9.917 9.917 0 0 0 .376-.46l.04-.052a15.236 15.236 0 0 0 .274-.375 8.983 8.983 0 0 0 .183-.28c.094-.147.209-.359.292-.542a3.436 3.436 0 0 0 .087-.219c.044-.114.085-.28.105-.424a1.375 1.375 0 0 0 0-.326.95.95 0 0 0-.14-.382 1.204 1.204 0 0 0-.435-.386 2.711 2.711 0 0 0-.148-.075c-.024-.012-.014-.013.044-.005.05.007.112.022.157.04l.04.015a1.067 1.067 0 0 1 .423.336 1.467 1.467 0 0 1 .285.707c.01.074.015.241.008.33-.01.149-.047.325-.095.46l-.007.022.011-.011a12.684 12.684 0 0 0 .186-.2 10.45 10.45 0 0 0 .13-.138l.097-.103a3.958 3.958 0 0 1 .474-.443l.013-.01.053.053a2.93 2.93 0 0 0 .152.139c.321.276.67.452 1.015.514.105.018.164.024.277.024a1.159 1.159 0 0 0 .303-.032 1.39 1.39 0 0 0 .17-.052c.197-.075.361-.212.434-.36a.392.392 0 0 0-.023-.407.587.587 0 0 0-.162-.156 1.265 1.265 0 0 0-.186-.095 1.803 1.803 0 0 1-.225-.113l-.047-.03a2.256 2.256 0 0 1-.158-.115 1.53 1.53 0 0 1-.223-.225.608.608 0 0 1-.09-.144.904.904 0 0 1 .11-.062c.086-.046.253-.127.365-.176l.08-.036a4.377 4.377 0 0 1 .223-.09 6.884 6.884 0 0 1 .326-.116 8.978 8.978 0 0 1 .787-.223 6.41 6.41 0 0 0 .645-.194l.048-.018a6.55 6.55 0 0 0 .273-.109 4.334 4.334 0 0 0 .819-.46 3.49 3.49 0 0 0 .34-.287c.017-.009.202-.213.25-.274l.1-.133a3.59 3.59 0 0 0 .146-.232 3.108 3.108 0 0 0 .172-.356 3.363 3.363 0 0 0 .17-.568l.01-.051c.019-.097.035-.21.049-.338a5.387 5.387 0 0 0-.036-1.274 10.667 10.667 0 0 0-.325-1.552 8.822 8.822 0 0 0-.31-.864l-.04-.09a6.602 6.602 0 0 0-.6-1.066 5.61 5.61 0 0 0-.75-.865 6.264 6.264 0 0 0-.535-.438 9.594 9.594 0 0 0-.25-.168 6.572 6.572 0 0 0-.32-.189 5.5 5.5 0 0 0-.601-.283 7.01 7.01 0 0 0-1.79-.452 4.348 4.348 0 0 1-.166-.019A8.849 8.849 0 0 0 8.75.003a10.488 10.488 0 0 0-.516 0zM8.83.16a5.833 5.833 0 0 1 .336.018 7.3 7.3 0 0 1 1.93.39.264.264 0 0 1 .03.01l.02.008a7.157 7.157 0 0 1 .463.191 9.215 9.215 0 0 1 .398.206 6.361 6.361 0 0 0 .095.054 1.163 1.163 0 0 0 .065.039l.043.028a5.174 5.174 0 0 1 .788.605 9.08 9.08 0 0 1 .312.318 4.993 4.993 0 0 1 .257.307 12.98 12.98 0 0 0 .091.121l.043.06a3.033 3.033 0 0 1 .133.196 1.103 1.103 0 0 0 .044.066 1.735 1.735 0 0 1 .073.12 7.558 7.558 0 0 1 .43.86l.008.019a.085.085 0 0 1 .008.021c0 .004.001.008.003.01s.01.02.018.041a1.152 1.152 0 0 0 .032.08 2.923 2.923 0 0 0 .05.139l.013.031a10.633 10.633 0 0 1 .152.47 2.792 2.792 0 0 0 .032.118 2.79 2.79 0 0 0 .036.132 8.04 8.04 0 0 1 .17.799 3.58 3.58 0 0 1 .035.212l.01.068.005.045c.004.018.008.048.01.066l.011.09c.02.145.04.366.045.512.004.126.001.477-.005.543a3.772 3.772 0 0 1-.129.746 4.8 4.8 0 0 1-.082.246.369.369 0 0 1-.026.062 2.878 2.878 0 0 1-.205.402 2.816 2.816 0 0 1-.13.189l-.06.079c-.025.032-.041.05-.112.13a2.959 2.959 0 0 1-.602.502.684.684 0 0 1-.072.046l-.053.032-.042.025a5.39 5.39 0 0 1-.72.332c-.008.003-.03.01-.048.018a9.742 9.742 0 0 1-.424.134l-.053.015a4.857 4.857 0 0 1-.121.033l-.053.012a2.071 2.071 0 0 0-.105.032 5.032 5.032 0 0 1-.221.068l-.057.016a2.601 2.601 0 0 0-.176.045 6.411 6.411 0 0 1-.777.142l-.105.012a5.17 5.17 0 0 1-.45.034 9.354 9.354 0 0 1-.754-.008 6.932 6.932 0 0 1-.84-.096c-.05-.01-.044-.006.05.026l.029.011a5.987 5.987 0 0 0 .671.236.198.198 0 0 1 .027.01l.024.01c.007.001.04.014.075.029l.033.014c.14.06.229.12.258.178.01.02.011.027.011.06a.12.12 0 0 1-.01.062c-.03.066-.09.134-.199.225a2.871 2.871 0 0 1-.213.163c-.046.031-.115.08-.11.079l.036-.018a90.663 90.663 0 0 1 .785-.376c.038-.019.037-.019.053.008a.244.244 0 0 1 .014.026l.007.012.036.054a1.533 1.533 0 0 0 .312.329 2.318 2.318 0 0 0 .183.127l.034.021a1.593 1.593 0 0 0 .23.113c.047.019.102.048.149.079.04.026.098.079.113.102a.28.28 0 0 1 .039.076c.023.066.009.144-.039.22a.533.533 0 0 1-.108.117 1.1 1.1 0 0 1-.103.069.985.985 0 0 1-.377.114 1.634 1.634 0 0 1-.351-.01 1.576 1.576 0 0 1-.393-.116 4.332 4.332 0 0 1-.254-.134.477.477 0 0 0-.025-.015.083.083 0 0 1-.02-.014c-.002-.003-.006-.006-.008-.006a.178.178 0 0 1-.04-.025 2.902 2.902 0 0 1-.425-.358c-.09-.09-.081-.085-.12-.068a1.435 1.435 0 0 0-.28.14c-.105.071-.18.134-.282.236l-.08.079a1.95 1.95 0 0 0-.126-.596 1.29 1.29 0 0 0-.4-.532 1.726 1.726 0 0 0-.707-.317 3.16 3.16 0 0 0-.78-.06 5.35 5.35 0 0 0-.428.041l-.056.009.025.004a7.308 7.308 0 0 0 .332.044l.114.017a6.274 6.274 0 0 1 .468.088 2.604 2.604 0 0 1 .388.124l.042.019a1.285 1.285 0 0 1 .197.108 1 1 0 0 1 .249.238c.068.1.116.229.13.35.005.055.005.224 0 .283a2.092 2.092 0 0 1-.138.523 1.706 1.706 0 0 1-.035.087l-.053.119a4.784 4.784 0 0 1-.327.591.502.502 0 0 0-.015.024.082.082 0 0 1-.014.02c-.003.002-.006.006-.006.008a12.736 12.736 0 0 1-.269.39 102.722 102.722 0 0 0-.126.168 6.23 6.23 0 0 1-.259.319 9.102 9.102 0 0 0-.152.173 7.38 7.38 0 0 1-.604.588 1.86 1.86 0 0 1-.06.05l-.061.05a4.566 4.566 0 0 1-.375.267l-.029.02a.81.81 0 0 1-.064.037c-.027.017-.04.024-.087.05a3.973 3.973 0 0 1-.318.153 1.691 1.691 0 0 1-.678.147c-.258 0-.445-.072-.59-.223a.663.663 0 0 1-.158-.297.78.78 0 0 1-.024-.217.828.828 0 0 1 .006-.16 1.815 1.815 0 0 1 .133-.482c0-.008.097-.208.114-.237.01-.015.015-.011.015.01a.365.365 0 0 0 .191.324c.116.058.257.058.424 0a.65.65 0 0 0 .127-.054.645.645 0 0 0 .069-.038 1.9 1.9 0 0 0 .394-.314 1.944 1.944 0 0 0 .178-.191 2.201 2.201 0 0 0 .08-.099 5.281 5.281 0 0 0 .18-.25l.035-.056.039-.062a2.816 2.816 0 0 0 .191-.381c.051-.129.08-.221.096-.315a.74.74 0 0 0-.01-.321.35.35 0 0 0-.25-.234c-.038-.012-.04-.012-.132-.012-.088 0-.097 0-.141.01a.997.997 0 0 0-.172.053 2.008 2.008 0 0 0-.248.126 2.97 2.97 0 0 0-.387.292c-.079.068-.212.195-.304.292l-.059.062a7.222 7.222 0 0 0-.392.458.201.201 0 0 0-.028.035c-.003.004-.006.006-.008.004a.656.656 0 0 1 .069-.118 5.822 5.822 0 0 1 .257-.373l.034-.043a1.16 1.16 0 0 1 .08-.1.6.6 0 0 1 .054-.064 7.03 7.03 0 0 1 .094-.107c.018-.021.232-.235.254-.255a3.402 3.402 0 0 1 .078-.068 3.788 3.788 0 0 1 .293-.224c.014-.01.03-.02.035-.025a7.717 7.717 0 0 1 .228-.144 3.587 3.587 0 0 1 .42-.212l.044-.016c.182-.067.363-.1.476-.086.1.012.15.029.213.07.147.097.213.317.187.62a2.288 2.288 0 0 1-.165.657.806.806 0 0 0-.02.051l-.015.04a7.302 7.302 0 0 1-.127.273 5.907 5.907 0 0 1-.315.563.898.898 0 0 0-.034.055 2.625 2.625 0 0 1-.1.16.054.054 0 0 0-.01.018c0 .002-.004.007-.008.01-.005.005-.008.01-.008.011a10.42 10.42 0 0 0-.283.458l-.012.02.024-.02a5.726 5.726 0 0 0 .816-.832 3.168 3.168 0 0 1 .272-.362l.044-.068a2.445 2.445 0 0 0 .078-.124c.028-.045.087-.147.108-.188a4.274 4.274 0 0 0 .152-.327 2.054 2.054 0 0 0 .124-.478.976.976 0 0 0 .006-.144 1.028 1.028 0 0 0-.11-.483.84.84 0 0 0-.157-.22.72.72 0 0 0-.087-.073 1.16 1.16 0 0 0-.217-.12l-.06-.028a3.693 3.693 0 0 0-.315-.1 5.622 5.622 0 0 0-1.08-.135 9.803 9.803 0 0 0-.532 0c-.204.01-.365.023-.488.039-.07.01-.198.009-.264 0a.52.52 0 0 1-.26-.1.307.307 0 0 1-.119-.244.452.452 0 0 1 .045-.183.745.745 0 0 1 .098-.15 1.16 1.16 0 0 1 .17-.16 1.147 1.147 0 0 1 .117-.075 2.2 2.2 0 0 1 .262-.119.644.644 0 0 0 .052-.015.889.889 0 0 1 .106-.03 2.51 2.51 0 0 1 .713-.078c.21 0 .24.001.318.009.048.005.106.01.13.01l.044.003v-.134c0-.271.01-.351.054-.444a.282.282 0 0 1 .154-.139.662.662 0 0 1 .288-.023l.075.01a1.84 1.84 0 0 1 .263.062 1.036 1.036 0 0 1 .092.028.576.576 0 0 1 .049.017l.05.018a.898.898 0 0 1 .095.035.84.84 0 0 1 .112.043l.042.017.04.017a3.164 3.164 0 0 1 .222.098 2.632 2.632 0 0 0-.271-.221 2.064 2.064 0 0 0-.161-.11 2.265 2.265 0 0 0-.154-.098 1.74 1.74 0 0 1-.079-.047 1.243 1.243 0 0 0-.094-.055 1.505 1.505 0 0 1-.134-.075 87.865 87.865 0 0 1-1.254-.6.439.439 0 0 1-.059-.026.256.256 0 0 0-.029-.012.081.081 0 0 1-.018-.007 1.965 1.965 0 0 0-2.154-.758 7.9 7.9 0 0 0-.094-.024 1.03 1.03 0 0 1-.295-.11.857.857 0 0 1-.424-.597.568.568 0 0 1 .046-.354.398.398 0 0 1 .247-.204.593.593 0 0 1 .204-.028c.045 0 .092.002.108.005a.21.21 0 0 0 .075 0 16.023 16.023 0 0 1 .258-.032 23.492 23.492 0 0 1 .293-.035l.227-.028c.17-.017.267-.046.355-.107a.428.428 0 0 0 .15-.171c.02-.043.028-.052.075-.082a.616.616 0 0 1 .11-.063c.06-.03.073-.036.082-.036a.893.893 0 0 1 .263-.043c.115 0 .209.014.357.052.044.01.159.046.183.056.01.004.006-.006-.014-.035a.436.436 0 0 0-.08-.085.635.635 0 0 0-.09-.062 1.171 1.171 0 0 0-.148-.07 1.388 1.388 0 0 0-.224-.074 3.653 3.653 0 0 0-.43-.086 6.335 6.335 0 0 0-.8-.059 154.024 154.024 0 0 1-1-.031.875.875 0 0 1-.366-.11.864.864 0 0 1-.426-.653.886.886 0 0 1 .104-.538l.026-.04a.828.828 0 0 1 .227-.225 1.082 1.082 0 0 1 .505-.175 7.985 7.985 0 0 0 .289-.037 1.567 1.567 0 0 0 .912-.167c.031-.013.095-.044.11-.053l.078-.052a.777.777 0 0 0 .117-.11.512.512 0 0 0 .112-.217 3.672 3.672 0 0 1 .038-.14.979.979 0 0 1 .07-.174.625.625 0 0 1 .303-.263.672.672 0 0 1 .146-.053c.11-.035.302-.07.432-.08.12-.009.207-.019.162-.019a2.545 2.545 0 0 0-.498-.028 4.527 4.527 0 0 0-.503.046 6.293 6.293 0 0 0-.948.213.31.31 0 0 0-.041.017.375.375 0 0 1-.061.025.518.518 0 0 1-.138.038.516.516 0 0 1-.219-.006.332.332 0 0 1-.234-.21c-.011-.033-.012-.037-.012-.1s0-.07.011-.104a.572.572 0 0 1 .103-.19.861.861 0 0 1 .205-.187 1.502 1.502 0 0 1 .123-.077 1.98 1.98 0 0 1 .238-.115 10.356 10.356 0 0 1 .344-.142 1.191 1.191 0 0 0 .07-.029l.037-.014a9.728 9.728 0 0 1 .281-.11 3.77 3.77 0 0 1 .256-.094 6.444 6.444 0 0 0 .23-.082 1.241 1.241 0 0 0 .102-.035C3.94.99 3.99.973 4.045.955a14.01 14.01 0 0 1 .632-.2 3.265 3.265 0 0 0 .107-.031A2.508 2.508 0 0 0 4.902.69a29.595 29.595 0 0 0 .236-.064 11.786 11.786 0 0 1 .569-.14L5.785.47a6.402 6.402 0 0 1 .348-.072 4.464 4.464 0 0 1 .183-.035A14.183 14.183 0 0 1 7.553.194L7.67.185c.033-.003.083-.007.111-.008L7.92.168c.17-.011.635-.016.91-.009zm.648 4.917a.3.3 0 0 0-.09.033.456.456 0 0 0-.153.157.9.9 0 0 0-.11.43c0 .064.01.136.023.173l.005.015.047.001.047.001.002-.04c.016-.237.075-.435.157-.522a.18.18 0 0 1 .126-.062c.053-.003.095.014.138.058a.505.505 0 0 1 .113.22.65.65 0 0 1 .021.092c.013.066.023.142.025.197l.002.057h.048c.056 0 .051.006.066-.069a.462.462 0 0 0 .01-.14.861.861 0 0 0-.101-.4.856.856 0 0 0-.062-.087.327.327 0 0 0-.314-.114zm4.403 0a.374.374 0 0 0-.235.175.814.814 0 0 0-.115.442.439.439 0 0 0 .024.19.158.158 0 0 0 .049.003h.046l.002-.013a1.45 1.45 0 0 1 .048-.33.572.572 0 0 1 .099-.207.194.194 0 0 1 .091-.066.159.159 0 0 1 .103 0c.069.02.118.076.163.185a1.139 1.139 0 0 1 .073.33l.006.065.003.036h.091l.007-.017a.621.621 0 0 0 .023-.172.95.95 0 0 0-.062-.334.748.748 0 0 0-.084-.15.62.62 0 0 0-.076-.077.32.32 0 0 0-.256-.06zm-.486 1.44a4.297 4.297 0 0 0-.44.058 1.463 1.463 0 0 0-.18.038 4.344 4.344 0 0 1-2.01-.004.698.698 0 0 0-.066-.011 2.849 2.849 0 0 1-.148-.023 3.024 3.024 0 0 0-.564-.054 1.37 1.37 0 0 0-.201.005.6.6 0 0 0-.267.098.592.592 0 0 0-.13.129.695.695 0 0 0-.08.174 1.27 1.27 0 0 0-.034.394 1.513 1.513 0 0 0 .282.818 1.694 1.694 0 0 0 .452.426.39.39 0 0 1 .019.013.053.053 0 0 0 .016.009c.002 0 .007.003.01.007l.01.008.044.024a2.206 2.206 0 0 0 .364.173 1.138 1.138 0 0 0 .126.045 3.566 3.566 0 0 0 .777.155 3.92 3.92 0 0 0 1.281-.104 3.797 3.797 0 0 0 .465-.156l.045-.02a2.791 2.791 0 0 0 .27-.14c.091-.05.227-.148.306-.219a1.718 1.718 0 0 0 .355-.43 1.625 1.625 0 0 0 .116-.263c.026-.088.038-.137.054-.23a.99.99 0 0 0 .01-.222c0-.156 0-.159-.01-.209a.586.586 0 0 0-.16-.322.604.604 0 0 0-.344-.167 4.99 4.99 0 0 0-.368 0zm.271.168c.04.002.074.005.075.006.003.003-.01.043-.06.177-.083.228-.164.384-.243.468a.368.368 0 0 1-.1.071c-.045.017-.083.004-.117-.042-.032-.042-.054-.098-.12-.304a.692.692 0 0 0-.11-.243.138.138 0 0 0-.066-.046c-.026-.005-.019-.02.012-.023l.073-.012a3.112 3.112 0 0 1 .414-.055c.016-.003.178-.001.242.003zm-3.434.013.084.01a1.548 1.548 0 0 1 .147.023c.089.014.18.032.18.035 0 .001-.006.005-.014.007-.05.018-.09.08-.126.193-.01.027-.03.107-.048.178a1.126 1.126 0 0 1-.073.238c-.042.087-.093.105-.164.057-.079-.054-.16-.175-.254-.379a9.302 9.302 0 0 1-.146-.358c0-.003.041-.007.108-.01a2.65 2.65 0 0 1 .306.006z" fill="#738F3D"/><path fill-rule="evenodd" clip-rule="evenodd" d="m5.731.482-.024.005A6.55 6.55 0 0 0 5.44.55a4.73 4.73 0 0 0-.702.187 3.265 3.265 0 0 1-.12.036l-.05.015A10.967 10.967 0 0 0 4.2.903a14.01 14.01 0 0 0-.42.141 6.444 6.444 0 0 1-.18.065 3.77 3.77 0 0 0-.29.107.063.063 0 0 1-.016.006 1.98 1.98 0 0 0-1.043.467.861.861 0 0 0-.221.208.572.572 0 0 0-.087.169.261.261 0 0 0-.01.103c0 .064 0 .068.011.1a.332.332 0 0 0 .234.21.516.516 0 0 0 .266-.003.518.518 0 0 0 .111-.035l.04-.018a.31.31 0 0 1 .075-.027 1.835 1.835 0 0 1 .116-.035 2.214 2.214 0 0 1 .127-.036.278.278 0 0 1 .039-.01 6.293 6.293 0 0 1 .71-.133c.129-.017.213-.024.427-.035a2.545 2.545 0 0 1 .497.028c.045 0-.041.01-.162.02a2.284 2.284 0 0 0-.539.115.947.947 0 0 0-.171.091.625.625 0 0 0-.171.19.979.979 0 0 0-.081.217c-.01.03-.02.068-.027.096a.512.512 0 0 1-.112.216.777.777 0 0 1-.344.233.31.31 0 0 1-.033.011 1.567 1.567 0 0 1-.387.08 19.23 19.23 0 0 0-.453.059 7.985 7.985 0 0 1-.29.037 1.39 1.39 0 0 0-.34.087 1.082 1.082 0 0 0-.164.088.828.828 0 0 0-.309.382.886.886 0 0 0 .058.746l.022.04a.863.863 0 0 0 .535.378c.03.008.045.01.129.02a78.293 78.293 0 0 1 1 .032c.37.01.547.023.8.058a3.653 3.653 0 0 1 .477.1 1.388 1.388 0 0 1 .338.138c.003 0 .053.035.076.054a.436.436 0 0 1 .08.085c.02.03.024.039.015.035a2.733 2.733 0 0 0-.183-.056 1.32 1.32 0 0 0-.357-.052.893.893 0 0 0-.181.018.379.379 0 0 0-.082.025c-.009 0-.021.006-.083.036a.616.616 0 0 0-.11.063c-.046.03-.054.039-.075.082a.428.428 0 0 1-.149.171c-.088.061-.186.09-.355.107a13.857 13.857 0 0 0-.373.045 23.492 23.492 0 0 0-.405.05.21.21 0 0 1-.075 0 .935.935 0 0 0-.108-.005.593.593 0 0 0-.286.063.398.398 0 0 0-.165.17.568.568 0 0 0-.046.353.83.83 0 0 0 .293.506c.038.03.101.075.131.091a1.03 1.03 0 0 0 .295.11 7.9 7.9 0 0 1 .524.147 16.71 16.71 0 0 1 1.222.431 3.727 3.727 0 0 1 .13.051 3.625 3.625 0 0 1 .14.057 11.37 11.37 0 0 1 .357.148 3.361 3.361 0 0 0 .122.053 87.865 87.865 0 0 0 .353.16 12.702 12.702 0 0 1 1.008.521 1.21 1.21 0 0 1 .09.055l.037.023a2.265 2.265 0 0 1 .13.085 2.064 2.064 0 0 1 .166.116 2.632 2.632 0 0 1 .222.186s-.003 0-.005-.003a3.164 3.164 0 0 0-.216-.095l-.023-.01-.018-.007a6.193 6.193 0 0 0-.348-.13 1.84 1.84 0 0 0-.43-.1.662.662 0 0 0-.288.023.282.282 0 0 0-.154.139c-.044.093-.054.173-.054.444v.134l-.044-.002a3.677 3.677 0 0 1-.13-.011 2.716 2.716 0 0 0-.318-.009 2.51 2.51 0 0 0-.911.139 2.2 2.2 0 0 0-.237.113 1.147 1.147 0 0 0-.102.066 1.16 1.16 0 0 0-.17.159.745.745 0 0 0-.125.219.452.452 0 0 0-.018.114c0 .097.043.185.118.245a.52.52 0 0 0 .261.099c.066.009.193.01.264 0 .123-.016.284-.029.488-.038.102-.005.426-.005.532 0a5.622 5.622 0 0 1 1.131.148l.058.017c.039.01.188.061.205.07a1.16 1.16 0 0 1 .277.148.72.72 0 0 1 .088.072.84.84 0 0 1 .158.22 1.028 1.028 0 0 1 .11.483.976.976 0 0 1-.017.215 2.054 2.054 0 0 1-.16.52c0 .004-.075.157-.106.214a4.702 4.702 0 0 1-.647.912 3.71 3.71 0 0 1-.078.088 6.185 6.185 0 0 1-.593.575l-.024.02.012-.02a1.383 1.383 0 0 0 .033-.057l.02-.031a10.42 10.42 0 0 1 .212-.339.212.212 0 0 0 .018-.032c0-.002.003-.006.008-.01.004-.004.008-.009.008-.011s.004-.01.01-.017a.069.069 0 0 0 .01-.015 2.625 2.625 0 0 0 .105-.17.898.898 0 0 1 .034-.055l.036-.062a8.788 8.788 0 0 0 .264-.477l.045-.09.082-.183.015-.04a.806.806 0 0 1 .02-.05 3.044 3.044 0 0 0 .096-.284c.028-.097.059-.264.069-.374.026-.303-.04-.523-.187-.62a.428.428 0 0 0-.213-.07c-.113-.014-.294.019-.476.086a2.843 2.843 0 0 1-.065.025.058.058 0 0 1-.015.006 6.443 6.443 0 0 0-.301.149 3.587 3.587 0 0 0-.31.192l-.036.025a2.241 2.241 0 0 0-.125.09 3.788 3.788 0 0 0-.246.203c-.022.02-.236.233-.254.253a7.03 7.03 0 0 0-.228.272l-.034.043a3.865 3.865 0 0 0-.113.156 5.822 5.822 0 0 0-.152.229.656.656 0 0 0-.06.106c0 .002.004 0 .007-.004a4.326 4.326 0 0 0 .028-.035 7.222 7.222 0 0 1 .392-.457l.059-.063a4.795 4.795 0 0 1 .48-.437 2.3 2.3 0 0 1 .242-.166c.038-.025.168-.088.217-.107.07-.027.1-.037.172-.053a.482.482 0 0 1 .14-.01c.094 0 .095 0 .133.012a.35.35 0 0 1 .26.27.74.74 0 0 1 0 .286 1.587 1.587 0 0 1-.096.314 2.816 2.816 0 0 1-.23.443l-.035.056a1.668 1.668 0 0 1-.07.103 5.281 5.281 0 0 1-.11.148l-.037.045a2.201 2.201 0 0 1-.08.096c-.05.057-.058.065-.14.148a2.673 2.673 0 0 1-.215.192 1.9 1.9 0 0 1-.194.13.645.645 0 0 1-.055.03.65.65 0 0 1-.127.054c-.167.058-.308.058-.423 0a.365.365 0 0 1-.143-.14.466.466 0 0 1-.049-.184c0-.021-.005-.025-.015-.01a3.428 3.428 0 0 0-.137.296 1.815 1.815 0 0 0-.11.423.828.828 0 0 0-.006.16.78.78 0 0 0 .114.425.45.45 0 0 0 .069.089c.144.151.331.222.59.223a1.691 1.691 0 0 0 .567-.105.943.943 0 0 0 .11-.042 1.257 1.257 0 0 0 .088-.037 3.973 3.973 0 0 0 .381-.204l.03-.019a1.137 1.137 0 0 0 .073-.048l.067-.045.004-.003.023-.016.017-.012a1.373 1.373 0 0 0 .083-.061l.107-.082.06-.05a1.86 1.86 0 0 0 .116-.098 2.457 2.457 0 0 0 .099-.088 7.38 7.38 0 0 0 .987-1.112c.02-.027.039-.052.04-.056l.092-.127a12.736 12.736 0 0 0 .137-.207c0-.002.003-.006.006-.009a.082.082 0 0 0 .014-.019 4.784 4.784 0 0 0 .341-.615c.02-.04.026-.055.032-.07.006-.011.01-.023.022-.05a28.216 28.216 0 0 1 .035-.086 8.43 8.43 0 0 1 .038-.107c.04-.103.088-.305.1-.416a2.228 2.228 0 0 0 0-.283.796.796 0 0 0-.13-.35 1 1 0 0 0-.354-.3 1.285 1.285 0 0 0-.092-.046l-.042-.02a.167.167 0 0 0-.024-.009.123.123 0 0 1-.018-.007.096.096 0 0 0-.02-.008 2.604 2.604 0 0 0-.326-.1 5.606 5.606 0 0 0-.468-.087l-.114-.017a7.308 7.308 0 0 1-.332-.044l-.025-.004.056-.009a5.35 5.35 0 0 1 .428-.04c.246-.014.55.01.78.059.276.06.527.173.707.317a1.29 1.29 0 0 1 .429.61 1.95 1.95 0 0 1 .097.518l.08-.08a1.749 1.749 0 0 1 .374-.29 1.435 1.435 0 0 1 .188-.085c.013-.006.02-.01.028-.01.015 0 .031.017.091.078a2.84 2.84 0 0 0 .586.457c.023.014.165.085.187.095a2.331 2.331 0 0 0 .141.053 1.576 1.576 0 0 0 .322.073 1.634 1.634 0 0 0 .351-.01.985.985 0 0 0 .307-.104 1.1 1.1 0 0 0 .103-.07l.032-.029a.533.533 0 0 0 .076-.088c.048-.075.062-.154.039-.22a.28.28 0 0 0-.04-.075.533.533 0 0 0-.113-.102.905.905 0 0 0-.2-.101l-.008-.004a.596.596 0 0 1-.012-.006l-.014-.006a1.593 1.593 0 0 1-.156-.083l-.022-.013a2.318 2.318 0 0 1-.201-.142 1.533 1.533 0 0 1-.294-.314l-.036-.054a.061.061 0 0 1-.007-.012.244.244 0 0 0-.014-.026l-.001-.001c-.007-.012-.01-.018-.016-.02-.006-.002-.015.003-.034.012l-.002.001a3.281 3.281 0 0 1-.154.074 15.557 15.557 0 0 1-.174.083l-.185.09a90.663 90.663 0 0 0-.309.147l.111-.08a3.927 3.927 0 0 0 .213-.162c.11-.091.17-.159.199-.225a.12.12 0 0 0 .01-.061c0-.034 0-.04-.011-.06-.03-.058-.118-.12-.258-.179l-.033-.014a1.195 1.195 0 0 0-.126-.049.053.053 0 0 1-.015-.005 1.34 1.34 0 0 1-.637-.223.14.14 0 0 1-.02-.008.333.333 0 0 0-.029-.011c-.093-.032-.1-.035-.048-.026a2.258 2.258 0 0 0 .128.02 9.535 9.535 0 0 0 .42.053 5.418 5.418 0 0 0 .444.031 9.354 9.354 0 0 0 .752-.008 5.17 5.17 0 0 0 .299-.026l.105-.011a1.46 1.46 0 0 0 .129-.018 6.411 6.411 0 0 0 .824-.17l.057-.016c.087-.025.112-.033.22-.068l.106-.032.032-.007.02-.005.122-.033.022-.006.03-.009a7.413 7.413 0 0 1 .128-.037l.049-.015a9.742 9.742 0 0 0 .359-.124 2.85 2.85 0 0 0 .179-.071 5.39 5.39 0 0 0 .478-.237l.042-.025a2.124 2.124 0 0 0 .133-.083 4.427 4.427 0 0 0 .295-.215 2.959 2.959 0 0 0 .41-.412l.022-.028.04-.051a2.816 2.816 0 0 0 .231-.368 2.878 2.878 0 0 0 .246-.665c.04-.147.07-.347.094-.612.006-.066.009-.417.005-.543a5.779 5.779 0 0 0-.066-.668.385.385 0 0 1-.005-.045 11.772 11.772 0 0 1-.045-.28.655.655 0 0 1-.01-.059 6.35 6.35 0 0 1-.043-.228 2.32 2.32 0 0 0-.185-.762 5.997 5.997 0 0 0-.1-.312 7.326 7.326 0 0 1-.052-.158 1.152 1.152 0 0 1-.095-.25.299.299 0 0 0-.021-.05.085.085 0 0 0-.008-.022.113.113 0 0 1-.008-.019 7.558 7.558 0 0 0-.445-.886 1.795 1.795 0 0 1-.059-.093 1.103 1.103 0 0 1-.03-.048c-.005-.01-.012-.019-.013-.019a3.033 3.033 0 0 0-.175-.256 1.625 1.625 0 0 0-.092-.12 6.66 6.66 0 0 0-.305-.36 9.08 9.08 0 0 0-.33-.327 3.801 3.801 0 0 0-.24-.203 1.714 1.714 0 0 0-.112-.087.849.849 0 0 1-.072-.053 5.174 5.174 0 0 0-.629-.393 9.215 9.215 0 0 0-.27-.134 7.157 7.157 0 0 0-.44-.185.12.12 0 0 0-.022-.007.096.096 0 0 1-.021-.007.992.992 0 0 0-.415-.135 4.418 4.418 0 0 0-.274-.072 7.3 7.3 0 0 0-.814-.149 8.913 8.913 0 0 0-.578-.053m.344 4.94a.327.327 0 0 1 .403.082.856.856 0 0 1 .076.115.861.861 0 0 1 .086.371.462.462 0 0 1-.009.14c-.008.04-.01.058-.02.065-.008.005-.02.004-.046.004H9.83L9.83 5.83a1.308 1.308 0 0 0-.046-.289.505.505 0 0 0-.113-.22c-.043-.044-.085-.061-.138-.058a.18.18 0 0 0-.126.062c-.082.087-.141.285-.157.522l-.002.04H9.2l-.047-.002-.005-.015a.628.628 0 0 1-.023-.174.9.9 0 0 1 .11-.43.456.456 0 0 1 .154-.156zm4.258.142a.374.374 0 0 1 .234-.176.32.32 0 0 1 .256.061.62.62 0 0 1 .076.077c.027.034.07.111.084.15a.95.95 0 0 1 .062.334c0 .062-.01.14-.023.172l-.007.017h-.091l-.003-.036a1.502 1.502 0 0 0-.014-.131 1.139 1.139 0 0 0-.065-.264c-.045-.109-.094-.164-.163-.186a.159.159 0 0 0-.103.002.194.194 0 0 0-.091.065.572.572 0 0 0-.099.208 1.45 1.45 0 0 0-.048.33l-.002.012h-.046a.158.158 0 0 1-.05-.004.47.47 0 0 1-.023-.19.814.814 0 0 1 .115-.441zm-.584 1.305c.105-.017.223-.032.332-.04a4.99 4.99 0 0 1 .368 0 .604.604 0 0 1 .345.167.586.586 0 0 1 .159.322c.01.05.01.053.01.21 0 .153 0 .16-.01.22a1.546 1.546 0 0 1-.091.332 1.625 1.625 0 0 1-.226.377 1.718 1.718 0 0 1-.208.215 2.171 2.171 0 0 1-.35.246c-.061.034-.168.088-.226.113l-.045.02a3.731 3.731 0 0 1-.175.068c-.054.02-.212.068-.29.088a3.92 3.92 0 0 1-1.28.104 3.566 3.566 0 0 1-.811-.166 1.138 1.138 0 0 1-.131-.048 2.206 2.206 0 0 1-.58-.335 1.694 1.694 0 0 1-.367-.42 1.513 1.513 0 0 1-.173-1.126c0-.003.005-.015.01-.027a.695.695 0 0 1 .065-.124.592.592 0 0 1 .13-.13.6.6 0 0 1 .267-.097 1.37 1.37 0 0 1 .201-.005c.219.003.315.012.564.054.098.016.114.019.148.023.02.002.05.008.067.012a4.344 4.344 0 0 0 2.035-.004c.005-.004.085-.02.154-.031l.108-.018zm.678.134a2.919 2.919 0 0 0-.317-.01 3.112 3.112 0 0 0-.414.055l-.073.013c-.03.003-.038.018-.012.023.02.003.046.022.066.046.04.046.068.11.11.243.066.206.088.262.12.304.034.046.072.06.117.042a.368.368 0 0 0 .1-.071c.079-.084.16-.24.243-.468.05-.134.063-.174.06-.177zm-3.425.017-.084-.01a2.65 2.65 0 0 0-.306-.006.552.552 0 0 0-.108.01c0 .007.12.302.146.358.094.204.175.325.254.38.07.047.122.03.164-.058.024-.05.037-.091.073-.238.018-.07.039-.15.048-.178.036-.112.077-.175.126-.193.008-.002.014-.006.014-.007 0-.003-.091-.021-.18-.035a1.548 1.548 0 0 0-.146-.023z" fill="#CFE317"/><path fill-rule="evenodd" clip-rule="evenodd" d="M13.395 6.515a4.297 4.297 0 0 0-.44.06 1.463 1.463 0 0 0-.18.037 4.344 4.344 0 0 1-2.01-.004.698.698 0 0 0-.066-.011 2.849 2.849 0 0 1-.148-.023 3.024 3.024 0 0 0-.564-.054 1.37 1.37 0 0 0-.201.005.6.6 0 0 0-.267.098.592.592 0 0 0-.13.129.695.695 0 0 0-.08.174 1.27 1.27 0 0 0-.034.394 1.513 1.513 0 0 0 .282.818 1.694 1.694 0 0 0 .452.426.39.39 0 0 1 .019.013.053.053 0 0 0 .016.009c.002 0 .007.003.01.007l.01.008.044.024a2.206 2.206 0 0 0 .364.173 1.138 1.138 0 0 0 .126.045 3.566 3.566 0 0 0 .777.155 3.92 3.92 0 0 0 1.281-.104 3.797 3.797 0 0 0 .465-.156l.045-.02a2.791 2.791 0 0 0 .27-.14c.091-.05.227-.148.306-.219a1.718 1.718 0 0 0 .355-.43 1.625 1.625 0 0 0 .116-.263c.026-.088.038-.137.054-.23a.99.99 0 0 0 .01-.222c0-.156 0-.159-.01-.209a.586.586 0 0 0-.16-.322.604.604 0 0 0-.344-.167 4.99 4.99 0 0 0-.368 0zm.346.175a2.919 2.919 0 0 0-.317-.01 3.112 3.112 0 0 0-.414.055l-.073.013c-.03.003-.038.018-.012.023.02.003.046.022.066.046.04.046.068.11.11.243.066.206.088.262.12.304.034.046.072.06.117.042a.368.368 0 0 0 .1-.071c.079-.084.16-.24.243-.468.05-.134.063-.174.06-.177zm-3.425.017-.084-.01a2.65 2.65 0 0 0-.306-.006.552.552 0 0 0-.108.01c0 .007.12.302.146.358.094.204.175.325.254.38.07.047.122.03.164-.058.024-.05.037-.091.073-.238.018-.07.039-.15.048-.178.036-.112.077-.175.126-.193.008-.002.014-.006.014-.007 0-.003-.091-.021-.18-.035a1.548 1.548 0 0 0-.146-.023z" fill="#CFE317"/><path fill-rule="evenodd" clip-rule="evenodd" d="M13.395 6.515a4.3 4.3 0 0 0-.44.06 1.457 1.457 0 0 0-.18.037 4.343 4.343 0 0 1-2.01-.004.703.703 0 0 0-.066-.011 2.849 2.849 0 0 1-.148-.023 3.024 3.024 0 0 0-.564-.054 1.368 1.368 0 0 0-.201.005.6.6 0 0 0-.267.098.593.593 0 0 0-.13.129.695.695 0 0 0-.08.174 1.27 1.27 0 0 0-.034.394c.007.137.029.266.067.39a1.513 1.513 0 0 0 .216.428 1.694 1.694 0 0 0 .451.426.39.39 0 0 1 .019.013.053.053 0 0 0 .016.009c.002 0 .007.003.01.007l.01.008.044.024a2.198 2.198 0 0 0 .364.173 1.143 1.143 0 0 0 .126.045 3.566 3.566 0 0 0 .777.155 3.919 3.919 0 0 0 1.281-.104 3.787 3.787 0 0 0 .465-.156l.045-.02a2.791 2.791 0 0 0 .27-.139c.09-.052.226-.15.306-.22a1.708 1.708 0 0 0 .355-.43 1.625 1.625 0 0 0 .115-.263c.027-.088.039-.136.055-.23.01-.062.01-.068.01-.222 0-.156 0-.159-.01-.209a.586.586 0 0 0-.16-.322.604.604 0 0 0-.344-.167 4.99 4.99 0 0 0-.368 0zm.346.175a2.919 2.919 0 0 0-.317-.01c-.003.002-.035.004-.07.007a3.112 3.112 0 0 0-.344.049l-.073.012c-.031.003-.038.018-.012.023.02.003.046.022.066.046.04.046.068.11.11.243.066.206.088.262.12.304.034.046.072.06.117.042a.366.366 0 0 0 .1-.071c.079-.084.16-.24.243-.468a1.22 1.22 0 0 0 .06-.177zm-3.425.017-.084-.01a2.65 2.65 0 0 0-.306-.006.552.552 0 0 0-.108.01c0 .007.12.302.146.358.094.204.175.325.254.38.07.047.122.03.164-.058.024-.05.037-.091.073-.238l.047-.178c.036-.112.078-.175.127-.193.008-.002.014-.006.014-.007 0-.003-.091-.021-.18-.035a1.548 1.548 0 0 0-.146-.023z" fill="#738F3D"/><path fill-rule="evenodd" clip-rule="evenodd" d="M13.666 6.684c.04.002.073.005.075.006a1.22 1.22 0 0 1-.06.177c-.083.228-.164.384-.243.468a.366.366 0 0 1-.1.071c-.045.017-.083.004-.118-.042-.031-.042-.053-.098-.119-.304a.696.696 0 0 0-.11-.243.138.138 0 0 0-.066-.046c-.026-.005-.02-.02.012-.023l.073-.012a3.112 3.112 0 0 1 .414-.055c.015-.003.178-.001.242.003zm-3.434.013.084.01a1.548 1.548 0 0 1 .147.023c.089.014.18.032.18.035 0 .001-.007.005-.014.007-.05.018-.09.08-.127.193-.008.027-.03.107-.047.178a1.133 1.133 0 0 1-.073.238c-.042.087-.093.105-.164.057-.08-.054-.16-.175-.254-.379a9.292 9.292 0 0 1-.146-.358c0-.003.04-.007.108-.01a2.65 2.65 0 0 1 .306.006z" fill="#738F3D"/><path fill-rule="evenodd" clip-rule="evenodd" d="M13.741 6.69a2.923 2.923 0 0 0-.317-.01 3.108 3.108 0 0 0-.414.055l-.073.013c-.03.003-.038.018-.012.023.02.003.046.022.066.045.04.047.068.11.11.244.066.206.088.262.12.304.034.045.072.06.117.042a.368.368 0 0 0 .1-.071c.079-.084.16-.24.243-.468.05-.134.063-.174.06-.177zm-3.425.017-.084-.01a2.65 2.65 0 0 0-.306-.006.552.552 0 0 0-.108.01c0 .007.12.302.146.358.094.204.175.325.254.38.07.047.122.03.164-.058.024-.05.037-.091.073-.238.018-.07.039-.15.048-.178.036-.112.077-.175.126-.193.008-.002.014-.006.014-.007 0-.004-.091-.021-.18-.035a1.551 1.551 0 0 0-.146-.023z" fill="#fff"/><path fill-rule="evenodd" clip-rule="evenodd" d="M13.666 6.683a.66.66 0 0 1 .075.007c.003.003-.01.043-.06.177-.083.228-.164.384-.243.468a.368.368 0 0 1-.1.071c-.045.017-.083.003-.117-.042-.032-.042-.054-.098-.12-.304-.042-.133-.07-.197-.11-.244a.138.138 0 0 0-.066-.045c-.026-.005-.019-.02.012-.023l.073-.012a3.108 3.108 0 0 1 .414-.055c.016-.003.178-.001.242.002zm-3.434.014.084.01a1.551 1.551 0 0 1 .147.023c.089.014.18.031.18.035 0 .001-.006.005-.014.007-.05.018-.09.08-.126.193-.009.027-.03.107-.048.178a1.127 1.127 0 0 1-.073.238c-.042.087-.093.105-.164.057-.079-.054-.16-.175-.254-.379a9.292 9.292 0 0 1-.146-.358c0-.003.041-.007.108-.01a2.65 2.65 0 0 1 .306.006z" fill="#fff"/><path fill-rule="evenodd" clip-rule="evenodd" d="M9.843 6.694h.015c.004-.001 0-.002-.008-.002-.009 0-.012 0-.007.002zm3.903.001a3.125 3.125 0 0 1-.135.357 1.532 1.532 0 0 1-.1.19c0 .008-.05.073-.073.096a.36.36 0 0 1-.092.068.125.125 0 0 1-.078.002.133.133 0 0 1-.033-.026c-.037-.039-.064-.1-.115-.265a6.461 6.461 0 0 0-.06-.176.69.69 0 0 0-.05-.1.172.172 0 0 0-.081-.067c-.013-.004-.022-.009-.021-.011.001-.003-.002-.004-.013-.001a4.734 4.734 0 0 1-.522.099 12.99 12.99 0 0 0-.164.02 4.493 4.493 0 0 1-.286.018 4.815 4.815 0 0 1-.573-.018 5.399 5.399 0 0 1-.543-.086c-.123-.028-.162-.034-.162-.027 0 .002-.005.005-.011.007-.036.009-.073.053-.103.12a1.827 1.827 0 0 0-.064.214 1.73 1.73 0 0 1-.072.254c-.04.095-.088.123-.155.09a.49.49 0 0 1-.143-.145 2.256 2.256 0 0 1-.191-.387 7.496 7.496 0 0 0-.047-.115 2.323 2.323 0 0 0-.045-.11.4.4 0 0 0-.31.2.58.58 0 0 0-.039.12c-.015.07-.02.23-.012.349a1.341 1.341 0 0 0 .451.898c.078.07.108.094.196.152l.057.038c.02.014.135.077.185.101.29.14.647.234 1.013.268l.111.01c.078.008.427.006.509-.002l.11-.01a3.379 3.379 0 0 0 .27-.038 3.537 3.537 0 0 0 .656-.185c.16-.066.312-.144.421-.217.254-.17.437-.369.549-.597.103-.21.143-.43.124-.68-.014-.194-.092-.316-.243-.38-.046-.02-.116-.037-.116-.028zm-1.723 1.408c.222.014.395.042.575.094.182.052.358.132.478.216.02.014.021.016.015.02a3.64 3.64 0 0 1-.195.08 3.465 3.465 0 0 1-1.408.2 3.237 3.237 0 0 1-.781-.143 1.473 1.473 0 0 1-.18-.066c-.01-.009.114-.1.202-.15a1.78 1.78 0 0 1 .478-.182 2.83 2.83 0 0 1 .816-.07z" fill="#900"/><path d="M12.024 8.103c.22.014.394.042.574.094.182.052.358.132.478.216.02.014.021.016.015.02a3.64 3.64 0 0 1-.195.08 3.465 3.465 0 0 1-1.408.2 3.237 3.237 0 0 1-.781-.143 1.473 1.473 0 0 1-.18-.066c-.01-.009.114-.1.202-.15a1.78 1.78 0 0 1 .478-.182 2.83 2.83 0 0 1 .816-.07z" fill="#900"/><path d="M12.024 8.103c.22.014.394.042.574.094.182.052.358.132.478.216.02.014.021.016.015.02a3.64 3.64 0 0 1-.195.08 3.465 3.465 0 0 1-1.408.2 3.237 3.237 0 0 1-.781-.143 1.473 1.473 0 0 1-.18-.066c-.01-.009.114-.1.202-.15a1.78 1.78 0 0 1 .478-.182 2.83 2.83 0 0 1 .816-.07z" fill="red"/><path fill-rule="evenodd" clip-rule="evenodd" d="M9.858 6.694a.043.043 0 0 1-.015 0c-.005-.001-.002-.002.007-.002.008 0 .012 0 .008.002z" fill="red"/></g><defs><clipPath id="a"><path fill="#fff" d="M0 0h16v16H0z"/></clipPath></defs></svg>