<svg width="16" height="16" viewBox="0 0 16 16" fill="none" xmlns="http://www.w3.org/2000/svg">
<path d="M7.35235 3.50535H8.76468C8.83291 3.50535 8.88831 3.45024 8.88869 3.38203V2.12331C8.88831 2.05508 8.83291 2 8.76468 2H7.35235C7.28424 2 7.22904 2.0552 7.22904 2.12331V3.38201C7.22904 3.45013 7.28426 3.50535 7.35235 3.50535Z" fill="#FF00FF"/>
<path d="M4.83639 5.31591H3.42406C3.35572 5.31553 3.30044 5.26025 3.30005 5.19191V3.9339C3.30044 3.86567 3.35586 3.81059 3.42406 3.81059H4.83639C4.90448 3.81059 4.9597 3.86579 4.9597 3.9339V5.19191C4.9597 5.26011 4.9046 5.31553 4.83639 5.31591Z" fill="#FF00FF"/>
<path d="M14.5394 5.99386C15.3937 5.99386 15.7988 6.29974 15.8422 6.3342L16 6.4589L15.9345 6.65042C15.8302 6.9146 15.6693 7.15278 15.4633 7.34831C15.1533 7.65488 14.5911 8.02072 13.6769 8.02072H13.5294C13.1595 8.95628 12.6621 10.009 11.8271 10.9542C11.3276 11.5194 10.7402 12.0003 10.0875 12.3783C9.29534 12.8269 8.43377 13.1398 7.5384 13.3042C6.89429 13.424 6.24038 13.4833 5.58523 13.4813C4.13502 13.4813 2.85565 13.2057 2.06819 12.7234C1.36546 12.2942 0.825324 11.5929 0.462261 10.6408C0.144809 9.77365 -0.0116211 8.85585 0.000672135 7.93254C0.0021724 7.65728 0.225555 7.43481 0.500842 7.43443H11.0403C11.1691 7.42962 11.8057 7.37518 12.2025 7.15404C11.8739 6.63457 11.7809 6.02694 11.9338 5.38001C12.0148 5.04137 12.1527 4.71898 12.3417 4.42651L12.4926 4.2088L12.722 4.34109C12.7646 4.36622 13.701 4.9188 13.8663 6.05172C14.0887 6.0142 14.3138 5.99485 14.5394 5.99386Z" fill="#FF00FF"/>
<path d="M2.89004 7.12573H1.47771C1.40959 7.12573 1.35439 7.07052 1.35439 7.0024V5.7444C1.35439 5.6763 1.40959 5.62039 1.47771 5.62039H2.89004C2.95813 5.62077 3.01373 5.67628 3.01335 5.7444V7.00242C3.01335 7.07052 2.95815 7.12573 2.89004 7.12573Z" fill="#FF00FF"/>
<path d="M3.42408 7.12573H4.83641C4.90453 7.12573 4.95973 7.07052 4.95973 7.00242V5.7444C4.96011 5.67628 4.9052 5.62077 4.83708 5.62039H3.42406C3.35556 5.62039 3.30005 5.6759 3.30005 5.7444V7.0024C3.30046 7.07063 3.35586 7.12573 3.42408 7.12573Z" fill="#FF00FF"/>
<path d="M6.81221 7.12573H5.39988C5.33179 7.12573 5.27657 7.07052 5.27655 7.0024V5.7444C5.27655 5.6763 5.33174 5.62039 5.39986 5.62039H6.81218C6.8803 5.62077 6.9359 5.67628 6.93552 5.7444V7.00242C6.93552 7.07052 6.88032 7.12573 6.81221 7.12573Z" fill="#FF00FF"/>
<path d="M7.35235 7.12573H8.76468C8.83291 7.12573 8.88831 7.07065 8.88869 7.00242V5.7444C8.88869 5.6759 8.83318 5.62039 8.76468 5.62039H7.35235C7.28424 5.62039 7.22904 5.67561 7.22904 5.7437V7.0024C7.22904 7.07052 7.28426 7.12573 7.35235 7.12573Z" fill="#FF00FF"/>
<path d="M5.39986 5.31591H6.81219C6.8804 5.31553 6.9355 5.26011 6.9355 5.19191V3.9339C6.9355 3.86579 6.88028 3.81059 6.81219 3.81059H5.39986C5.33174 3.81059 5.27655 3.86581 5.27655 3.9339V5.19191C5.27655 5.26011 5.33166 5.31553 5.39986 5.31591Z" fill="#FF00FF"/>
<path d="M8.76468 5.31591H7.35235C7.28415 5.31553 7.22904 5.26011 7.22904 5.19191V3.9339C7.22904 3.86581 7.28424 3.81059 7.35235 3.81059H8.76468C8.83291 3.81059 8.88831 3.86567 8.88869 3.9339V5.19191C8.88831 5.26025 8.83302 5.31553 8.76468 5.31591Z" fill="#FF00FF"/>
<path d="M10.7343 7.12573H9.32202C9.25392 7.12573 9.1987 7.07052 9.1987 7.0024V5.7444C9.1987 5.6763 9.25392 5.62039 9.32202 5.62039H10.7343C10.8028 5.62039 10.8584 5.6759 10.8584 5.7444V7.00242C10.858 7.07065 10.8026 7.12573 10.7343 7.12573Z" fill="#FF00FF"/>
</svg>
