<svg width="16" height="16" viewBox="0 0 16 16" fill="none" xmlns="http://www.w3.org/2000/svg">
<path fill-rule="evenodd" clip-rule="evenodd" d="M4.80005 1.2C3.69548 1.2 2.80005 2.09543 2.80005 3.2V12C2.80005 13.1046 3.69548 14 4.80005 14H11.2C12.3046 14 13.2 13.1046 13.2 12V5.46274C13.2 4.93231 12.9893 4.4236 12.6143 4.04853L10.3515 1.78579C9.97645 1.41071 9.46774 1.2 8.93731 1.2H4.80005ZM3.60005 3.2C3.60005 2.53726 4.13731 2 4.80005 2H8.93731C9.25557 2 9.56079 2.12643 9.78583 2.35147L12.0486 4.61421C12.2736 4.83926 12.4 5.14448 12.4 5.46274V12C12.4 12.6627 11.8628 13.2 11.2 13.2H4.80005C4.13731 13.2 3.60005 12.6627 3.60005 12V3.2ZM10.4 6H4.80005V5.2H10.4V6ZM4.80005 8.4H11.2V7.6H4.80005V8.4ZM4.80005 10.8H11.2V10H4.80005V10.8Z" fill="#FF00FF"/>
</svg>
