<svg width="16" height="16" viewBox="0 0 16 16" fill="none" xmlns="http://www.w3.org/2000/svg">
<path fill-rule="evenodd" clip-rule="evenodd" d="M4.80005 1.20001C3.69548 1.20001 2.80005 2.09544 2.80005 3.20001V12C2.80005 13.1046 3.69548 14 4.80005 14H11.2C12.3046 14 13.2 13.1046 13.2 12V5.46275C13.2 4.93232 12.9893 4.42361 12.6143 4.04854L10.3515 1.7858C9.97645 1.41073 9.46774 1.20001 8.93731 1.20001H4.80005ZM3.60005 3.20001C3.60005 2.53727 4.13731 2.00001 4.80005 2.00001H8.93731C9.25557 2.00001 9.56079 2.12644 9.78583 2.35148L12.0486 4.61423C12.2736 4.83927 12.4 5.14449 12.4 5.46275V12C12.4 12.6628 11.8628 13.2 11.2 13.2H4.80005C4.13731 13.2 3.60005 12.6628 3.60005 12V3.20001ZM10.4 6.00001H4.80005V5.20001H10.4V6.00001ZM4.80005 8.40001H11.2V7.60001H4.80005V8.40001ZM4.80005 10.8H11.2V10H4.80005V10.8Z" fill="#FF00FF"/>
</svg>
