<svg width="20" height="20" viewBox="0 0 20 20" fill="none" xmlns="http://www.w3.org/2000/svg">
<path fill-rule="evenodd" clip-rule="evenodd" d="M6 1.5C4.61929 1.5 3.5 2.61929 3.5 4V15C3.5 16.3807 4.61929 17.5 6 17.5H14C15.3807 17.5 16.5 16.3807 16.5 15V6.82843C16.5 6.16539 16.2366 5.5295 15.7678 5.06066L12.9393 2.23223C12.4705 1.76339 11.8346 1.5 11.1716 1.5H6ZM4.5 4C4.5 3.17157 5.17157 2.5 6 2.5H11.1716C11.5694 2.5 11.9509 2.65804 12.2322 2.93934L15.0607 5.76777C15.342 6.04907 15.5 6.4306 15.5 6.82843V15C15.5 15.8284 14.8284 16.5 14 16.5H6C5.17157 16.5 4.5 15.8284 4.5 15V4ZM13 7.5H6V6.5H13V7.5ZM6 10.5H14V9.5H6V10.5ZM6 13.5H14V12.5H6V13.5Z" fill="#FF00FF"/>
</svg>
