<svg width="16" height="16" viewBox="0 0 16 16" fill="none" xmlns="http://www.w3.org/2000/svg">
<path fill-rule="evenodd" clip-rule="evenodd" d="M3.25 2.5C3.25 2.36193 3.36193 2.25 3.5 2.25H5.5H9.58579C9.65209 2.25 9.71568 2.27634 9.76256 2.32322L12.6768 5.23744C12.7237 5.28432 12.75 5.34791 12.75 5.41421V13.5C12.75 13.6381 12.6381 13.75 12.5 13.75H5.5H3.5C3.36193 13.75 3.25 13.6381 3.25 13.5V2.5ZM3.5 0.75C2.5335 0.75 1.75 1.5335 1.75 2.5V13.5C1.75 14.4665 2.5335 15.25 3.5 15.25H5.5H12.5C13.4665 15.25 14.25 14.4665 14.25 13.5V5.41421C14.25 4.95008 14.0656 4.50497 13.7374 4.17678L10.8232 1.26256C10.495 0.934374 10.0499 0.75 9.58579 0.75H5.5H3.5ZM5.5 4.75C5.08579 4.75 4.75 5.08579 4.75 5.5C4.75 5.91421 5.08579 6.25 5.5 6.25H9.5C9.91421 6.25 10.25 5.91421 10.25 5.5C10.25 5.08579 9.91421 4.75 9.5 4.75H5.5ZM4.75 8.5C4.75 8.08579 5.08579 7.75 5.5 7.75H10.5C10.9142 7.75 11.25 8.08579 11.25 8.5C11.25 8.91421 10.9142 9.25 10.5 9.25H5.5C5.08579 9.25 4.75 8.91421 4.75 8.5ZM5.5 10.75C5.08579 10.75 4.75 11.0858 4.75 11.5C4.75 11.9142 5.08579 12.25 5.5 12.25H10.5C10.9142 12.25 11.25 11.9142 11.25 11.5C11.25 11.0858 10.9142 10.75 10.5 10.75H5.5Z" fill="#FF00FF"/>
</svg>
