<svg width="16" height="16" viewBox="0 0 16 16" fill="none" xmlns="http://www.w3.org/2000/svg">
<path fill-rule="evenodd" clip-rule="evenodd" d="M9.73538 1.21927C10.3293 1.30849 10.9357 1.51595 11.2521 1.6126C11.8892 1.80749 12.9238 2.41274 13.2891 2.7032C13.4619 2.84049 13.8252 3.20006 13.966 3.38106C14.103 3.55735 14.3649 3.93935 14.5319 4.17474C14.7977 4.56306 15.1108 5.1416 15.3765 5.67408C15.6732 6.26879 15.6936 6.44115 15.7832 6.93828L15.9793 7.81496C15.9976 7.96641 16.0129 8.52239 15.6866 8.60038C15.3603 8.67827 15.0588 8.52764 14.9166 8.30778C14.7198 8.00325 14.747 7.57091 14.5244 7.07623C14.3508 6.67629 14.2749 6.09519 13.9977 5.67719L13.7804 5.30964C13.3957 4.71762 12.9948 4.24751 12.7556 3.94097C12.5452 3.68355 12.1519 3.33344 11.7791 3.08413C11.4343 2.87518 10.8773 2.63679 10.4752 2.51412C10.3471 2.47242 9.7991 2.31126 9.45839 2.26589C8.99598 2.21392 8.69187 2.1409 8.25265 2.10984C7.71029 2.07166 7.45006 2.02331 6.74657 2.10552C6.48012 2.17788 6.05777 2.20649 5.67781 2.35186C5.37086 2.47712 4.94408 2.67933 4.52577 2.92498C4.07577 3.17187 3.39249 3.67653 2.93952 4.10753C2.48288 4.59547 2.25451 4.85718 1.93973 5.47567C1.80016 5.78179 1.5305 6.25515 1.42183 6.58936C1.3476 6.92858 1.20586 7.56134 1.22977 7.8687C1.24041 8.41925 1.19225 8.53276 1.23367 8.9828C1.23515 9.38798 1.36812 9.66887 1.42344 10.0002C1.47082 10.2293 1.69058 11.0215 1.82635 11.2055C2.44414 12.5365 3.27331 13.1128 4.1975 13.5287C4.45786 13.6612 5.273 13.8794 5.50883 13.942C5.9109 14.0145 6.44003 14.0629 6.9493 14.0728C7.48502 14.0833 8.22362 14.0107 8.67176 13.8458C9.15659 13.6673 9.71754 13.4138 9.71108 13.4208C9.9362 13.2968 10.2796 13.0945 10.3865 13.0054C10.5933 12.8729 10.7178 12.8215 10.8403 12.694C11.0171 12.5394 11.124 12.4504 11.2579 12.2588C11.3324 12.1507 11.4508 11.9855 11.5662 11.8393C11.6901 11.636 11.7614 11.4218 11.8826 11.157C12.0276 10.765 12.005 10.7839 12.0325 10.3677C12.0585 10.2469 12.0297 9.8415 12.0079 9.77267C11.9427 9.39866 11.9656 9.06849 11.88 8.70526C11.7644 8.21382 11.6682 7.84586 11.5206 7.3744C11.3817 6.84354 10.9739 6.3518 10.6679 6.00045C10.4783 5.78272 9.89017 5.26848 9.07411 4.94723C8.84425 4.86987 8.46806 4.78227 8.22929 4.7387C7.71948 4.68538 7.63648 4.71952 7.1484 4.75528C6.98046 4.78459 6.59024 4.86434 6.44691 4.91468C6.02766 5.06195 5.87338 5.15563 5.4447 5.41817C5.24508 5.53396 5.0947 5.62267 4.89076 5.81392C4.72784 5.96468 4.61163 6.22059 4.47974 6.37084C4.29902 6.61662 4.09791 6.94461 3.96305 7.29814C3.81674 7.6499 3.76964 8.14513 3.79176 8.46379C3.79176 8.70664 3.8579 9.15125 3.88423 9.24855C3.91042 9.346 3.976 9.64783 3.99031 9.70844C4.00462 9.76891 4.16159 10.0884 4.18319 10.1346C4.27175 10.323 4.44128 10.5939 4.7269 10.8703C4.93758 11.1006 5.3448 11.3264 5.64974 11.4139C5.92307 11.564 6.38426 11.5893 6.63938 11.5899C6.76491 11.5823 7.08561 11.5625 7.25313 11.5224C7.59232 11.441 7.6551 11.4387 8.00496 11.2868C8.31878 11.1412 8.53178 11.0888 8.7503 10.9274C8.7503 10.9274 9.05051 10.6921 9.18696 10.5202C9.2589 10.4293 9.38226 9.99672 9.36025 9.72869C9.35003 9.36168 9.40344 9.15353 9.32843 8.85173C9.25351 8.5499 9.12566 8.1999 8.9872 7.98421C8.84681 7.76597 8.54501 7.55311 8.20161 7.38369C8.00942 7.28867 7.55386 7.20069 7.3607 7.17785C6.99342 7.13442 6.68637 7.30083 6.49995 7.49143C6.33824 7.67633 6.01861 8.06009 6.14605 8.45691C6.26118 8.81597 6.40019 9.19862 6.93889 9.17029C7.30849 9.24721 7.73596 9.13546 7.87822 9.20104C8.08972 9.32105 8.17086 9.58601 8.09391 9.77077C8.04031 10.1271 7.69909 10.1699 7.33492 10.1969C7.00897 10.2515 6.1814 10.092 5.99933 9.95571C5.87746 9.88321 5.69048 9.70895 5.5589 9.5914C5.46426 9.50678 5.3571 9.31808 5.28409 9.18255C5.19432 9.016 5.14884 8.89344 5.12576 8.7849C5.09836 8.65615 5.04193 8.4102 5.06325 8.16427C5.0777 7.99838 5.1221 7.92778 5.16636 7.68525C5.25437 7.4103 5.3637 7.20093 5.53972 6.96258C5.76892 6.72989 6.06007 6.4529 6.34418 6.32426C6.59484 6.19184 7.03378 6.14326 7.43102 6.16648C7.75323 6.19724 8.13454 6.23639 8.38655 6.32101C8.81778 6.47505 8.94104 6.50581 9.29522 6.72906C9.59446 6.91424 9.89546 7.2548 10.0632 7.53718C10.4207 8.26821 10.6256 9.08159 10.4765 10.1767C10.4644 10.3617 10.4068 10.5424 10.2914 10.7873C10.1849 11.0134 9.99805 11.2883 9.71782 11.4955C9.605 11.6 9.42694 11.7285 9.28212 11.8038C9.07642 11.9287 8.9382 11.9936 8.72345 12.1015C8.53503 12.19 8.31526 12.2912 8.02884 12.3709C7.71854 12.4935 7.48015 12.4987 7.08993 12.5569C6.70551 12.6532 5.65406 12.5844 5.02763 12.3081C4.60016 12.1283 4.12044 11.8115 3.75572 11.4252C3.55313 11.213 3.35499 10.8277 3.29667 10.749C3.00672 10.1914 2.94991 9.66701 2.90347 9.55685C2.84017 9.40716 2.80886 9.07146 2.76647 8.84188C2.71868 8.58459 2.74839 7.50505 3.00821 6.81206C3.15482 6.53618 3.24052 6.29026 3.33958 6.16095C3.51788 5.90746 3.60389 5.74914 3.75558 5.56935C3.98399 5.29222 4.1504 5.06613 4.37296 4.90687C4.94017 4.4455 5.41381 4.20241 6.05465 3.89789C6.85088 3.5737 7.08993 3.64077 7.84353 3.65279C8.18257 3.65576 8.6758 3.76226 8.91834 3.80639C9.36879 3.86631 9.62684 3.97484 9.9315 4.05988C10.2572 4.15072 10.4456 4.29595 10.7127 4.45753C10.9329 4.59965 11.1916 4.7943 11.3627 4.95235C11.8001 5.27305 12.0114 5.61036 12.2794 6.0246C12.328 6.09412 12.6466 6.77267 12.6973 6.96175C12.7208 7.05639 12.7927 7.32809 12.839 7.48684C12.8984 7.7387 12.9273 7.96182 12.9936 8.24596C13.0531 8.5387 13.1541 9.09157 13.198 9.60826C13.2715 10.0514 13.1536 10.9563 13.0839 11.2339C12.9289 11.7518 12.6579 12.3838 12.1226 12.9926C11.8952 13.262 11.6536 13.4711 11.3741 13.6977C11.1605 13.8759 10.9774 13.9797 10.6474 14.1766C10.1992 14.444 9.85821 14.6147 9.23001 14.8602C8.97424 14.9424 8.65203 15.0503 8.30476 15.1223C7.63188 15.1843 6.94052 15.244 6.18572 15.1542C5.43095 15.0646 4.67493 14.8519 4.22828 14.7146C3.98181 14.6222 3.50441 14.422 3.30423 14.3141C3.17396 14.2479 2.73734 13.9494 2.66322 13.8775C2.36398 13.6924 1.69421 13.0625 1.26187 12.4756C1.16712 12.2942 0.82645 11.75 0.752608 11.5114C0.556201 11.1082 0.419228 10.6203 0.338751 10.4121C0.253851 9.92575 0.110658 9.61231 0.0545074 9.12398C0.0609721 9.00909 0.0315632 8.7386 0.00537109 8.58891C0.0435536 8.2547 -0.00744271 7.93981 0.0589649 7.57606C0.117258 7.26897 0.194348 7.14074 0.212697 6.86324C0.230665 6.74444 0.383429 6.38742 0.424204 6.22858C0.547459 5.96683 0.578074 5.75114 0.739096 5.45891C0.970991 5.00311 1.21329 4.47885 1.58581 4.02087C1.69217 3.87902 1.99387 3.53818 2.0966 3.42007C2.33955 3.1774 2.48208 3.13894 2.75783 2.89516C2.78644 2.87719 2.96854 2.66948 3.15914 2.5982C3.47497 2.35417 3.74805 2.26468 4.0485 2.04263C4.65102 1.74256 4.87051 1.64135 5.46871 1.39246C5.81426 1.26907 6.29629 1.20106 6.46985 1.13368C6.80002 1.11319 7.13516 1.00777 7.48233 1.02881C7.87227 1.02504 8.26519 1.05296 8.6569 1.08848C8.92307 1.10507 9.26768 1.11789 9.73537 1.21927" fill="#4365A2"/>
</svg>
