<svg width="20" height="20" viewBox="0 0 20 20" fill="none" xmlns="http://www.w3.org/2000/svg">
<path fill-rule="evenodd" clip-rule="evenodd" d="M12.1691 1.52412C12.9115 1.63564 13.6695 1.89497 14.065 2.01578C14.8614 2.25939 16.1546 3.01596 16.6112 3.37903C16.8272 3.55064 17.2814 4.00011 17.4574 4.22635C17.6286 4.44672 17.9559 4.92422 18.1648 5.21845C18.497 5.70385 18.8884 6.42703 19.2205 7.09263C19.5914 7.83602 19.6168 8.05147 19.7288 8.67289L19.974 9.76873C19.9969 9.95805 20.016 10.653 19.6081 10.7505C19.2002 10.8479 18.8233 10.6596 18.6457 10.3847C18.3997 10.0041 18.4336 9.46366 18.1554 8.84531C17.9384 8.3454 17.8436 7.61902 17.497 7.09652L17.2253 6.63707C16.7445 5.89705 16.2434 5.30941 15.9444 4.92625C15.6814 4.60446 15.1897 4.16683 14.7237 3.85519C14.2928 3.59401 13.5965 3.29602 13.0939 3.14269C12.9337 3.09055 12.2487 2.8891 11.8229 2.83239C11.2449 2.76743 10.8647 2.67616 10.3157 2.63733C9.63774 2.5896 9.31246 2.52917 8.43309 2.63193C8.10003 2.72238 7.57209 2.75814 7.09714 2.93985C6.71345 3.09643 6.17998 3.34919 5.65709 3.65625C5.09459 3.96486 4.24049 4.5957 3.67428 5.13444C3.10348 5.74437 2.81802 6.07151 2.42453 6.84462C2.25008 7.22727 1.913 7.81897 1.77716 8.23673C1.68438 8.66075 1.5072 9.4517 1.53709 9.8359C1.55039 10.5241 1.49019 10.666 1.54197 11.2285C1.54382 11.735 1.71003 12.0861 1.77918 12.5003C1.8384 12.7867 2.11311 13.7769 2.28281 14.0069C3.05506 15.6706 4.09151 16.3911 5.24675 16.9109C5.57221 17.0766 6.59113 17.3493 6.88592 17.4275C7.38851 17.5181 8.04992 17.5787 8.6865 17.591C9.35616 17.6042 10.2794 17.5134 10.8396 17.3072C11.4456 17.0842 12.1468 16.7673 12.1387 16.7761C12.4201 16.621 12.8494 16.3681 12.983 16.2568C13.2415 16.0911 13.3971 16.027 13.5503 15.8675C13.7713 15.6743 13.9049 15.563 14.0723 15.3236C14.1654 15.1884 14.3134 14.9819 14.4576 14.7992C14.6125 14.5451 14.7016 14.2773 14.8531 13.9463C15.0343 13.4563 15.0062 13.48 15.0406 12.9596C15.0729 12.8086 15.037 12.3019 15.0097 12.2159C14.9282 11.7484 14.9569 11.3356 14.8499 10.8816C14.7053 10.2673 14.5852 9.80735 14.4006 9.21803C14.227 8.55445 13.7173 7.93978 13.3348 7.50059C13.0977 7.22843 12.3626 6.58564 11.3425 6.18407C11.0552 6.08736 10.585 5.97787 10.2865 5.9234C9.64922 5.85676 9.54547 5.89943 8.93537 5.94414C8.72546 5.98076 8.23768 6.08045 8.05852 6.14338C7.53446 6.32747 7.3416 6.44457 6.80575 6.77275C6.55623 6.91749 6.36825 7.02836 6.11333 7.26744C5.90967 7.45589 5.76441 7.77577 5.59955 7.96358C5.37365 8.27081 5.12227 8.68079 4.95368 9.1227C4.77081 9.5624 4.71193 10.1814 4.73958 10.5798C4.73958 10.8833 4.82225 11.4391 4.85516 11.5607C4.8879 11.6825 4.96988 12.0598 4.98776 12.1356C5.00565 12.2112 5.20187 12.6105 5.22887 12.6682C5.33957 12.9038 5.55147 13.2424 5.9085 13.5879C6.17185 13.8758 6.68088 14.158 7.06206 14.2674C7.40371 14.455 7.98021 14.4867 8.2991 14.4874C8.45602 14.4779 8.85689 14.4531 9.06629 14.403C9.49027 14.3013 9.56875 14.2984 10.0061 14.1086C10.3984 13.9266 10.6646 13.8611 10.9378 13.6593C10.9378 13.6593 11.313 13.3652 11.4836 13.1503C11.5735 13.0367 11.7277 12.4959 11.7002 12.1609C11.6874 11.7021 11.7542 11.4419 11.6604 11.0647C11.5668 10.6874 11.407 10.2499 11.2339 9.98029C11.0584 9.70749 10.6811 9.44142 10.2519 9.22964C10.0117 9.11086 9.4422 9.0009 9.20075 8.97235C8.74165 8.91805 8.35784 9.12607 8.12482 9.36432C7.92267 9.59545 7.52314 10.0751 7.68244 10.5712C7.82635 11.02 8.00012 11.4983 8.67349 11.4629C9.13549 11.559 9.66983 11.4194 9.84765 11.5013C10.112 11.6513 10.2135 11.9825 10.1173 12.2135C10.0503 12.6589 9.62374 12.7124 9.16853 12.7462C8.76109 12.8144 7.72662 12.6151 7.49904 12.4447C7.3467 12.354 7.11298 12.1362 6.9485 11.9893C6.8302 11.8835 6.69626 11.6476 6.60499 11.4782C6.49278 11.27 6.43593 11.1168 6.40708 10.9812C6.37283 10.8202 6.3023 10.5128 6.32894 10.2054C6.347 9.998 6.4025 9.90976 6.45783 9.60659C6.56784 9.2629 6.70451 9.0012 6.92453 8.70325C7.21103 8.41239 7.57497 8.06616 7.9301 7.90535C8.24342 7.73984 8.7921 7.67911 9.28865 7.70813C9.69142 7.74657 10.1681 7.79551 10.4831 7.90129C11.0221 8.09385 11.1762 8.13229 11.6189 8.41136C11.993 8.64283 12.3692 9.06854 12.5789 9.42151C13.0257 10.3353 13.2818 11.352 13.0955 12.7209C13.0804 12.9522 13.0083 13.1781 12.8641 13.4841C12.7309 13.7668 12.4974 14.1104 12.1472 14.3694C12.0061 14.5 11.7836 14.6607 11.6025 14.7548C11.3454 14.9109 11.1726 14.9921 10.9042 15.1269C10.6687 15.2375 10.394 15.3641 10.0359 15.4636C9.64806 15.617 9.35007 15.6234 8.86229 15.6961C8.38177 15.8166 7.06746 15.7305 6.28441 15.3851C5.75007 15.1604 5.15043 14.7644 4.69453 14.2815C4.44129 14.0163 4.19362 13.5346 4.12071 13.4362C3.75828 12.7392 3.68727 12.0838 3.62922 11.9461C3.55009 11.759 3.51096 11.3394 3.45796 11.0524C3.39822 10.7308 3.43537 9.38134 3.76014 8.51511C3.9434 8.17025 4.05052 7.86285 4.17436 7.70122C4.39723 7.38436 4.50474 7.18645 4.69435 6.96172C4.97986 6.61531 5.18788 6.3327 5.46608 6.13362C6.17509 5.55691 6.76714 5.25305 7.56819 4.87239C8.56348 4.46715 8.86229 4.55099 9.80428 4.56602C10.2281 4.56973 10.8446 4.70286 11.1478 4.75802C11.7109 4.83291 12.0334 4.96858 12.4143 5.07488C12.8214 5.18843 13.0569 5.36997 13.3908 5.57194C13.666 5.74959 13.9894 5.9929 14.2032 6.19046C14.75 6.59134 15.0141 7.01299 15.3492 7.53078C15.4099 7.61769 15.8081 8.46587 15.8715 8.70222C15.9009 8.82052 15.9908 9.16015 16.0487 9.35858C16.1229 9.67341 16.159 9.95231 16.2419 10.3075C16.3163 10.6734 16.4425 11.3645 16.4973 12.0104C16.5893 12.5643 16.4418 13.6954 16.3547 14.0425C16.1611 14.6898 15.8223 15.4798 15.1531 16.2408C14.8688 16.5775 14.5668 16.8388 14.2176 17.1222C13.9505 17.3449 13.7217 17.4746 13.3091 17.7208C12.7488 18.055 12.3226 18.2684 11.5374 18.5753C11.2177 18.6781 10.8149 18.8129 10.3808 18.9029C9.53973 18.9804 8.67553 19.055 7.73202 18.9428C6.78856 18.8308 5.84354 18.5649 5.28523 18.3933C4.97714 18.2777 4.38039 18.0275 4.13017 17.8927C3.96733 17.8099 3.42155 17.4368 3.3289 17.3469C2.95485 17.1156 2.11764 16.3281 1.57721 15.5945C1.45878 15.3678 1.03294 14.6875 0.940638 14.3893C0.695129 13.8852 0.523912 13.2754 0.423316 13.0151C0.317192 12.4072 0.138201 12.0154 0.0680122 11.405C0.076093 11.2614 0.0393319 10.9233 0.0065918 10.7362C0.0543199 10.3184 -0.00942546 9.92479 0.073584 9.4701C0.14645 9.08625 0.242813 8.92596 0.265749 8.57907C0.288209 8.43058 0.479165 7.98431 0.530132 7.78575C0.684201 7.45856 0.72247 7.18895 0.923748 6.82367C1.21362 6.25391 1.51648 5.59859 1.98215 5.02611C2.11509 4.84881 2.49221 4.42275 2.62062 4.27512C2.92431 3.97178 3.10248 3.9237 3.44716 3.61898C3.48292 3.59652 3.71055 3.33688 3.9488 3.24778C4.34359 2.94275 4.68494 2.83088 5.0605 2.55332C5.81365 2.17823 6.08801 2.05172 6.83577 1.7406C7.2677 1.58636 7.87024 1.50136 8.0872 1.41713C8.4999 1.39152 8.91883 1.25974 9.35279 1.28604C9.84022 1.28133 10.3314 1.31623 10.821 1.36064C11.1537 1.38137 11.5845 1.39739 12.1691 1.52412" fill="#4365A2"/>
</svg>
