<svg width="20" height="20" viewBox="0 0 20 20" fill="none" xmlns="http://www.w3.org/2000/svg">
<path d="M16.752 16.9577C16.7562 17.2349 16.5851 17.5097 16.2485 17.7663C15.9118 18.0228 15.4162 18.256 14.7902 18.4526C14.1641 18.6491 13.42 18.805 12.6005 18.9114C11.7809 19.0179 10.9022 19.0726 10.0147 19.0726C9.1272 19.0726 8.24845 19.0179 7.42893 18.9114C6.6094 18.805 5.86525 18.6491 5.23921 18.4526C4.61317 18.256 4.11759 18.0228 3.78092 17.7663C3.44426 17.5097 3.27315 17.2349 3.27742 16.9577C3.27315 16.6804 3.44426 16.4056 3.78092 16.1491C4.11759 15.8925 4.61317 15.6593 5.23921 15.4628C5.86525 15.2662 6.6094 15.1103 7.42893 15.0039C8.24845 14.8975 9.1272 14.8427 10.0147 14.8427C10.9022 14.8427 11.7809 14.8975 12.6005 15.0039C13.42 15.1103 14.1641 15.2662 14.7902 15.4628C15.4162 15.6593 15.9118 15.8925 16.2485 16.1491C16.5851 16.4056 16.7562 16.6804 16.752 16.9577Z" fill="url(#paint0_radial)"/>
<path d="M10.0781 2.18719C5.595 2.18719 1.95312 5.82906 1.95312 10.3122C1.95312 14.7953 5.595 18.4372 10.0781 18.4372C14.5612 18.4372 18.2031 14.7953 18.2031 10.3122C18.2031 5.82906 14.5612 2.18719 10.0781 2.18719Z" fill="url(#paint1_radial)"/>
<path opacity="0.5" d="M10.0781 2.18719C5.595 2.18719 1.95312 5.82906 1.95312 10.3122C1.95312 14.7953 5.595 18.4372 10.0781 18.4372C14.5612 18.4372 18.2031 14.7953 18.2031 10.3122C18.2031 5.82906 14.5612 2.18719 10.0781 2.18719V2.18719Z" stroke="#00537D" stroke-width="0.15625" stroke-linecap="round" stroke-linejoin="round"/>
<path opacity="0.5" d="M18.0469 10.3122C18.0469 14.7133 14.4791 18.2809 10.0781 18.2809C5.67703 18.2809 2.10938 14.7133 2.10938 10.3122C2.10938 5.91125 5.67703 2.34344 10.0781 2.34344C14.4791 2.34344 18.0469 5.91125 18.0469 10.3122Z" stroke="url(#paint2_linear)" stroke-width="0.15625" stroke-linecap="round" stroke-linejoin="round"/>
<path opacity="0.05" d="M10.0781 4.37406C6.71402 4.37406 3.9834 7.10469 3.9834 10.4687C3.9834 13.8328 6.71387 16.5634 10.0781 16.5634C13.4421 16.5634 16.1728 13.833 16.1728 10.4687C16.1728 7.10469 13.4423 4.37406 10.0781 4.37406ZM10.0781 5.18312C12.4796 5.18312 14.5006 6.78531 15.1453 8.97609C14.6011 10.0791 13.837 11.0742 12.9073 11.8792C12.4531 12.2727 11.9606 12.6198 11.4218 12.8628C10.8836 13.1055 10.2945 13.2416 9.71465 13.2083C9.37715 13.1889 9.05012 13.0948 8.73996 12.963C9.71027 12.3973 10.5928 11.6797 11.3228 10.8245C11.8476 10.21 12.3156 9.50312 12.4978 8.69047C12.589 8.28359 12.6051 7.85547 12.5186 7.44141C12.432 7.02656 12.2404 6.62984 11.9461 6.31687C11.6586 6.01109 11.2846 5.79672 10.8843 5.68641C10.4846 5.57609 10.0628 5.56844 9.65996 5.64203C8.85465 5.78922 8.14762 6.25266 7.58449 6.82016C6.59137 7.82078 5.97559 9.23109 6.08918 10.6487C6.1459 11.3573 6.38309 12.0539 6.79199 12.6394C6.83684 12.7036 6.88934 12.7612 6.93809 12.8222C6.47908 12.9712 6.00851 13.0819 5.53121 13.1531C5.06512 12.3656 4.79246 11.4508 4.79246 10.4687C4.79246 7.54781 7.15715 5.18312 10.0781 5.18312ZM10.1123 6.28297C10.4632 6.28344 10.8162 6.39078 11.0909 6.59828C11.3386 6.78531 11.5259 7.05531 11.632 7.35344C11.7382 7.6525 11.7667 7.98125 11.7296 8.30266C11.6556 8.94641 11.3268 9.5514 10.9192 10.0873C10.1962 11.0375 9.23262 11.8008 8.1598 12.3352C8.08527 12.3723 8.00887 12.4067 7.93277 12.4417C7.73871 12.2594 7.5609 12.0589 7.43074 11.8283C7.12512 11.2872 7.02121 10.6359 7.08152 10.0061C7.14199 9.37516 7.35996 8.76031 7.65621 8.18672C7.99918 7.52266 8.46199 6.90641 9.09215 6.55891C9.40652 6.38547 9.76027 6.28234 10.1123 6.28297ZM15.3473 10.2247C15.3511 10.3064 15.3637 10.3859 15.3637 10.4687C15.3637 13.3897 12.999 15.7544 10.0781 15.7544C8.52965 15.7544 7.15371 15.0744 6.18715 14.0145C6.69293 13.8844 7.18949 13.7198 7.6684 13.5123C7.91152 13.6873 8.16996 13.8428 8.4509 13.9505C9.34684 14.2939 10.3528 14.2427 11.2467 13.9331C12.1389 13.6242 12.9221 13.0733 13.6014 12.4383C14.2911 11.7936 14.8643 11.0358 15.3473 10.2245V10.2247Z" fill="black"/>
<path opacity="0.15" d="M10.0781 4.53125C6.79891 4.53125 4.14062 7.18953 4.14062 10.4688C4.14062 13.748 6.79891 16.4062 10.0781 16.4062C13.3573 16.4062 16.0156 13.748 16.0156 10.4688C16.0156 7.18953 13.3573 4.53125 10.0781 4.53125ZM10.0781 5.02609C12.5712 5.02609 14.6728 6.70234 15.3173 8.98938C14.7597 10.138 13.9748 11.1616 13.0103 11.9983C12.5483 12.3984 12.0438 12.7552 11.4864 13.0064C10.9291 13.2577 10.3161 13.4002 9.70578 13.3652C9.24546 13.3395 8.79678 13.2108 8.39281 12.9886C9.45688 12.4119 10.4172 11.643 11.2031 10.7223C11.7191 10.118 12.1705 9.43125 12.3442 8.65594C12.4312 8.26844 12.4458 7.86219 12.3647 7.47344C12.2834 7.08438 12.1038 6.71391 11.8316 6.42438C11.5658 6.14156 11.2167 5.94141 10.8425 5.83812C10.4684 5.735 10.0703 5.72687 9.68844 5.79672C8.92484 5.93625 8.24312 6.38 7.69625 6.93109C6.7325 7.90219 6.13672 9.2725 6.24594 10.6364C6.30062 11.3183 6.52906 11.9884 6.92078 12.5494C7.00828 12.6745 7.10422 12.7937 7.20703 12.9069C6.63617 13.1069 6.0464 13.2483 5.44688 13.3288C4.91495 12.4698 4.6339 11.4791 4.63547 10.4688C4.63547 7.46281 7.07219 5.02609 10.0781 5.02609ZM10.1128 6.12578C10.4953 6.12625 10.8806 6.24203 11.1858 6.47266C11.4608 6.68047 11.6647 6.97609 11.7802 7.30078C11.8958 7.62562 11.9255 7.97828 11.8859 8.32078C11.8072 9.00562 11.4616 9.63375 11.0442 10.1823C10.3052 11.1539 9.32266 11.9314 8.23016 12.4758C8.11828 12.5314 8.00469 12.5844 7.89047 12.6353C7.65184 12.4274 7.45004 12.1807 7.29359 11.9056C6.96906 11.3308 6.86203 10.6483 6.925 9.99125C6.98797 9.33437 7.21344 8.70109 7.51641 8.11469C7.8675 7.435 8.34609 6.79094 9.01625 6.42141C9.35125 6.23656 9.73016 6.12516 10.1128 6.12578ZM15.4719 9.74016C15.5037 9.97844 15.5206 10.2217 15.5206 10.4688C15.5206 13.4747 13.0839 15.9114 10.078 15.9114C8.38984 15.9114 6.88109 15.143 5.88266 13.9366C6.49927 13.796 7.10082 13.5961 7.67891 13.3397C7.93151 13.5329 8.21036 13.6892 8.50703 13.8038C9.36109 14.1311 10.3306 14.0837 11.195 13.7845C12.0592 13.4853 12.8258 12.9481 13.4939 12.3236C14.2913 11.5775 14.9596 10.7045 15.4719 9.74016Z" fill="black"/>
<path d="M10.0781 4.375C6.79891 4.375 4.14062 7.03328 4.14062 10.3125C4.14062 13.5917 6.79891 16.25 10.0781 16.25C13.3573 16.25 16.0156 13.5917 16.0156 10.3125C16.0156 7.03328 13.3573 4.375 10.0781 4.375ZM10.0781 4.86984C12.5712 4.86984 14.6728 6.54609 15.3173 8.83313C14.7597 9.98175 13.9748 11.0053 13.0103 11.842C12.5483 12.2422 12.0438 12.5989 11.4864 12.8502C10.9291 13.1014 10.3161 13.2439 9.70578 13.2089C9.24546 13.1832 8.79678 13.0545 8.39281 12.8323C9.45688 12.2556 10.4172 11.4867 11.2031 10.5661C11.7191 9.96172 12.1705 9.275 12.3442 8.49969C12.4311 8.11219 12.4458 7.70594 12.3647 7.31719C12.2834 6.92813 12.1038 6.55766 11.8316 6.26813C11.5658 5.98531 11.2167 5.78516 10.8425 5.68187C10.4684 5.57875 10.0703 5.57062 9.68844 5.64047C8.92484 5.78 8.24312 6.22375 7.69625 6.77484C6.7325 7.74594 6.13672 9.11625 6.24594 10.4802C6.30062 11.162 6.52906 11.8322 6.92078 12.3931C7.00828 12.5183 7.10422 12.6375 7.20703 12.7506C6.63617 12.9507 6.0464 13.092 5.44688 13.1725C4.91495 12.3135 4.6339 11.3229 4.63547 10.3125C4.63547 7.30656 7.07219 4.86984 10.0781 4.86984ZM10.1128 5.96953C10.4953 5.97 10.8806 6.08578 11.1858 6.31641C11.4608 6.52422 11.6647 6.81984 11.7802 7.14453C11.8958 7.46937 11.9255 7.82203 11.8859 8.16453C11.8072 8.84937 11.4616 9.4775 11.0442 10.0261C10.3052 10.9977 9.32266 11.7752 8.23016 12.3195C8.11828 12.3752 8.00469 12.4281 7.89047 12.4791C7.65184 12.2712 7.45004 12.0245 7.29359 11.7494C6.96906 11.1745 6.86203 10.492 6.925 9.835C6.98797 9.17812 7.21344 8.54484 7.51641 7.95844C7.8675 7.27875 8.34609 6.63469 9.01625 6.26516C9.35125 6.08031 9.73016 5.96891 10.1128 5.96953ZM15.4719 9.58391C15.5037 9.82219 15.5206 10.0655 15.5206 10.3125C15.5206 13.3184 13.0839 15.7552 10.078 15.7552C8.38984 15.7552 6.88109 14.9867 5.88266 13.7803C6.49927 13.6398 7.10082 13.4399 7.67891 13.1834C7.93151 13.3767 8.21036 13.5329 8.50703 13.6475C9.36109 13.9748 10.3306 13.9275 11.195 13.6283C12.0592 13.3291 12.8258 12.7919 13.4939 12.1673C14.2913 11.4212 14.9596 10.5483 15.4719 9.58391Z" fill="white"/>
<defs>
<radialGradient id="paint0_radial" cx="0" cy="0" r="1" gradientUnits="userSpaceOnUse" gradientTransform="translate(10.0146 16.9577) scale(6.73727 2.10492)">
<stop stop-color="#3D3D3D"/>
<stop offset="0.5" stop-color="#686868" stop-opacity="0.498"/>
<stop offset="1" stop-color="#686868" stop-opacity="0"/>
</radialGradient>
<radialGradient id="paint1_radial" cx="0" cy="0" r="1" gradientUnits="userSpaceOnUse" gradientTransform="translate(10.0777 -3.95591) rotate(90) scale(39.6342 41.9282)">
<stop stop-color="#90DBEC"/>
<stop offset="0.262" stop-color="#42BAEA"/>
<stop offset="0.705" stop-color="#3689E6"/>
<stop offset="1" stop-color="#2B63A0"/>
</radialGradient>
<linearGradient id="paint2_linear" x1="9.44561" y1="2.18104" x2="9.44561" y2="18.5288" gradientUnits="userSpaceOnUse">
<stop stop-color="white"/>
<stop offset="0.424" stop-color="white" stop-opacity="0.235"/>
<stop offset="0.821" stop-color="white" stop-opacity="0.157"/>
<stop offset="1" stop-color="white" stop-opacity="0.392"/>
</linearGradient>
</defs>
</svg>
