<svg width="16" height="16" viewBox="0 0 16 16" fill="none" xmlns="http://www.w3.org/2000/svg">
<path d="M13.4015 13.5661C13.4049 13.7879 13.268 14.0078 12.9987 14.213C12.7294 14.4182 12.3329 14.6048 11.8321 14.762C11.3313 14.9193 10.7359 15.044 10.0803 15.1292C9.42469 15.2143 8.72169 15.2581 8.0117 15.2581C7.30171 15.2581 6.59871 15.2143 5.94309 15.1292C5.28747 15.044 4.69215 14.9193 4.19132 14.762C3.69049 14.6048 3.29402 14.4182 3.02469 14.213C2.75536 14.0078 2.61847 13.7879 2.62189 13.5661C2.61847 13.3443 2.75536 13.1245 3.02469 12.9193C3.29402 12.714 3.69049 12.5274 4.19132 12.3702C4.69215 12.213 5.28747 12.0882 5.94309 12.0031C6.59871 11.918 7.30171 11.8741 8.0117 11.8741C8.72169 11.8741 9.42469 11.918 10.0803 12.0031C10.7359 12.0882 11.3313 12.213 11.8321 12.3702C12.3329 12.5274 12.7294 12.714 12.9987 12.9193C13.268 13.1245 13.4049 13.3443 13.4015 13.5661V13.5661Z" fill="url(#paint0_radial_2179_3765)"/>
<path d="M8.0625 1.74976C4.476 1.74976 1.5625 4.66326 1.5625 8.24976C1.5625 11.8363 4.476 14.7498 8.0625 14.7498C11.649 14.7498 14.5625 11.8363 14.5625 8.24976C14.5625 4.66326 11.649 1.74976 8.0625 1.74976V1.74976Z" fill="url(#paint1_radial_2179_3765)"/>
<path opacity="0.5" d="M8.0625 1.74976C4.476 1.74976 1.5625 4.66326 1.5625 8.24976C1.5625 11.8363 4.476 14.7498 8.0625 14.7498C11.649 14.7498 14.5625 11.8363 14.5625 8.24976C14.5625 4.66326 11.649 1.74976 8.0625 1.74976V1.74976Z" stroke="#00537D" stroke-width="0.15625" stroke-linecap="round" stroke-linejoin="round"/>
<path opacity="0.5" d="M14.4375 8.24976C14.4375 11.7706 11.5833 14.6248 8.0625 14.6248C4.54163 14.6248 1.6875 11.7706 1.6875 8.24976C1.6875 4.72901 4.54163 1.87476 8.0625 1.87476C11.5833 1.87476 14.4375 4.72901 14.4375 8.24976Z" stroke="url(#paint2_linear_2179_3765)" stroke-width="0.15625" stroke-linecap="round" stroke-linejoin="round"/>
<path opacity="0.05" d="M8.06252 3.49927C5.37127 3.49927 3.18677 5.68377 3.18677 8.37502C3.18677 11.0663 5.37114 13.2508 8.06252 13.2508C10.7538 13.2508 12.9383 11.0664 12.9383 8.37502C12.9383 5.68377 10.7539 3.49927 8.06252 3.49927ZM8.06252 4.14652C9.98377 4.14652 11.6005 5.42827 12.1163 7.18089C11.6809 8.06327 11.0696 8.85939 10.3259 9.50339C9.96252 9.81814 9.56852 10.0959 9.13752 10.2903C8.70689 10.4844 8.23564 10.5933 7.77177 10.5666C7.50177 10.5511 7.24014 10.4759 6.99202 10.3704C7.76827 9.91789 8.47427 9.34377 9.05827 8.65964C9.47814 8.16802 9.85252 7.60252 9.99827 6.95239C10.0713 6.62689 10.0841 6.28439 10.0149 5.95314C9.94564 5.62127 9.79239 5.30389 9.55689 5.05352C9.32689 4.80889 9.02777 4.63739 8.70752 4.54914C8.38777 4.46089 8.05027 4.45477 7.72802 4.51364C7.08377 4.63139 6.51814 5.00214 6.06764 5.45614C5.27314 6.25664 4.78052 7.38489 4.87139 8.51902C4.91677 9.08589 5.10652 9.64314 5.43364 10.1115C5.46952 10.1629 5.51152 10.209 5.55052 10.2578C5.18331 10.377 4.80686 10.4655 4.42502 10.5225C4.05214 9.89252 3.83402 9.16064 3.83402 8.37502C3.83402 6.03827 5.72577 4.14652 8.06252 4.14652ZM8.08989 5.02639C8.37064 5.02677 8.65302 5.11264 8.87277 5.27864C9.07089 5.42827 9.22077 5.64427 9.30564 5.88277C9.39064 6.12202 9.41339 6.38502 9.38377 6.64214C9.32452 7.15714 9.06152 7.64114 8.73539 8.06989C8.15702 8.83002 7.38614 9.44064 6.52789 9.86814C6.46827 9.89789 6.40714 9.92539 6.34627 9.95339C6.19102 9.80752 6.04877 9.64714 5.94464 9.46264C5.70014 9.02977 5.61702 8.50877 5.66527 8.00489C5.71364 7.50014 5.88802 7.00827 6.12502 6.54939C6.39939 6.01814 6.76964 5.52514 7.27377 5.24714C7.52527 5.10839 7.80827 5.02589 8.08989 5.02639V5.02639ZM12.2779 8.17977C12.2809 8.24514 12.291 8.30877 12.291 8.37502C12.291 10.7118 10.3993 12.6035 8.06252 12.6035C6.82377 12.6035 5.72302 12.0595 4.94977 11.2116C5.35439 11.1075 5.75164 10.9759 6.13477 10.8099C6.32927 10.9499 6.53602 11.0743 6.76077 11.1604C7.47752 11.4351 8.28227 11.3941 8.99739 11.1465C9.71114 10.8994 10.3378 10.4586 10.8811 9.95064C11.4329 9.43489 11.8915 8.82864 12.2779 8.17964V8.17977Z" fill="black"/>
<path opacity="0.15" d="M8.0625 3.625C5.43913 3.625 3.3125 5.75163 3.3125 8.375C3.3125 10.9984 5.43913 13.125 8.0625 13.125C10.6859 13.125 12.8125 10.9984 12.8125 8.375C12.8125 5.75163 10.6859 3.625 8.0625 3.625ZM8.0625 4.02087C10.057 4.02087 11.7382 5.36188 12.2539 7.1915C11.8077 8.1104 11.1799 8.92928 10.4082 9.59863C10.0386 9.91875 9.635 10.2041 9.18913 10.4051C8.74325 10.6061 8.25288 10.7201 7.76463 10.6921C7.39637 10.6716 7.03742 10.5686 6.71425 10.3909C7.5655 9.9295 8.33375 9.31438 8.9625 8.57788C9.37525 8.09438 9.73637 7.545 9.87537 6.92475C9.945 6.61475 9.95663 6.28975 9.89175 5.97875C9.82675 5.6675 9.683 5.37113 9.46525 5.1395C9.25263 4.91325 8.97337 4.75312 8.674 4.6705C8.37475 4.588 8.05625 4.5815 7.75075 4.63737C7.13988 4.749 6.5945 5.104 6.157 5.54488C5.386 6.32175 4.90937 7.418 4.99675 8.50912C5.0405 9.05462 5.22325 9.59075 5.53662 10.0395C5.60662 10.1396 5.68338 10.235 5.76562 10.3255C5.30893 10.4855 4.83712 10.5986 4.3575 10.663C3.93196 9.9758 3.70712 9.18328 3.70837 8.375C3.70837 5.97025 5.65775 4.02087 8.0625 4.02087ZM8.09025 4.90063C8.39625 4.901 8.7045 4.99362 8.94862 5.17812C9.16862 5.34437 9.33175 5.58087 9.42412 5.84062C9.51662 6.1005 9.54037 6.38262 9.50875 6.65662C9.44575 7.2045 9.16925 7.707 8.83537 8.14587C8.24412 8.92312 7.45813 9.54513 6.58413 9.98063C6.49463 10.0251 6.40375 10.0675 6.31238 10.1082C6.12147 9.94194 5.96003 9.74458 5.83488 9.5245C5.57525 9.06462 5.48962 8.51863 5.54 7.993C5.59037 7.4675 5.77075 6.96087 6.01312 6.49175C6.294 5.948 6.67687 5.43275 7.213 5.13713C7.481 4.98925 7.78413 4.90013 8.09025 4.90063V4.90063ZM12.3775 7.79213C12.403 7.98275 12.4165 8.17738 12.4165 8.375C12.4165 10.7798 10.4671 12.7291 8.06238 12.7291C6.71188 12.7291 5.50487 12.1144 4.70612 11.1493C5.19941 11.0368 5.68066 10.8769 6.14313 10.6718C6.34521 10.8263 6.56828 10.9513 6.80562 11.043C7.48887 11.3049 8.2645 11.267 8.956 11.0276C9.64738 10.7883 10.2606 10.3585 10.7951 9.85888C11.433 9.26198 11.9677 8.56363 12.3775 7.79213V7.79213Z" fill="black"/>
<path d="M8.0625 3.5C5.43913 3.5 3.3125 5.62663 3.3125 8.25C3.3125 10.8734 5.43913 13 8.0625 13C10.6859 13 12.8125 10.8734 12.8125 8.25C12.8125 5.62663 10.6859 3.5 8.0625 3.5ZM8.0625 3.89587C10.057 3.89587 11.7382 5.23688 12.2539 7.0665C11.8077 7.9854 11.1799 8.80428 10.4082 9.47363C10.0386 9.79375 9.635 10.0791 9.18913 10.2801C8.74325 10.4811 8.25288 10.5951 7.76463 10.5671C7.39637 10.5466 7.03742 10.4436 6.71425 10.2659C7.5655 9.8045 8.33375 9.18938 8.9625 8.45288C9.37525 7.96938 9.73637 7.42 9.87537 6.79975C9.94487 6.48975 9.95663 6.16475 9.89175 5.85375C9.82675 5.5425 9.683 5.24613 9.46525 5.0145C9.25263 4.78825 8.97337 4.62812 8.674 4.5455C8.37475 4.463 8.05625 4.4565 7.75075 4.51237C7.13988 4.624 6.5945 4.979 6.157 5.41988C5.386 6.19675 4.90937 7.293 4.99675 8.38412C5.0405 8.92962 5.22325 9.46575 5.53662 9.9145C5.60662 10.0146 5.68338 10.11 5.76562 10.2005C5.30893 10.3605 4.83712 10.4736 4.3575 10.538C3.93196 9.8508 3.70712 9.05828 3.70837 8.25C3.70837 5.84525 5.65775 3.89587 8.0625 3.89587ZM8.09025 4.77563C8.39625 4.776 8.7045 4.86862 8.94862 5.05312C9.16862 5.21937 9.33175 5.45587 9.42412 5.71562C9.51662 5.9755 9.54037 6.25762 9.50875 6.53162C9.44575 7.0795 9.16925 7.582 8.83537 8.02087C8.24412 8.79812 7.45813 9.42013 6.58413 9.85563C6.49463 9.90013 6.40375 9.9425 6.31238 9.98325C6.12147 9.81694 5.96003 9.61958 5.83488 9.3995C5.57525 8.93962 5.48962 8.39363 5.54 7.868C5.59037 7.3425 5.77075 6.83587 6.01312 6.36675C6.294 5.823 6.67687 5.30775 7.213 5.01213C7.481 4.86425 7.78413 4.77513 8.09025 4.77563V4.77563ZM12.3775 7.66713C12.403 7.85775 12.4165 8.05238 12.4165 8.25C12.4165 10.6548 10.4671 12.6041 8.06238 12.6041C6.71188 12.6041 5.50487 11.9894 4.70612 11.0243C5.19941 10.9118 5.68066 10.7519 6.14313 10.5468C6.34521 10.7013 6.56828 10.8263 6.80562 10.918C7.48887 11.1799 8.2645 11.142 8.956 10.9026C9.64738 10.6633 10.2606 10.2335 10.7951 9.73388C11.433 9.13698 11.9677 8.43863 12.3775 7.66713V7.66713Z" fill="white"/>
<defs>
<radialGradient id="paint0_radial_2179_3765" cx="0" cy="0" r="1" gradientUnits="userSpaceOnUse" gradientTransform="translate(8.01163 13.5661) scale(5.38982 1.68394)">
<stop stop-color="#3D3D3D"/>
<stop offset="0.5" stop-color="#686868" stop-opacity="0.498"/>
<stop offset="1" stop-color="#686868" stop-opacity="0"/>
</radialGradient>
<radialGradient id="paint1_radial_2179_3765" cx="0" cy="0" r="1" gradientUnits="userSpaceOnUse" gradientTransform="translate(8.06214 -3.16472) rotate(90) scale(31.7073 33.5426)">
<stop stop-color="#90DBEC"/>
<stop offset="0.262" stop-color="#42BAEA"/>
<stop offset="0.705" stop-color="#3689E6"/>
<stop offset="1" stop-color="#2B63A0"/>
</radialGradient>
<linearGradient id="paint2_linear_2179_3765" x1="7.55649" y1="1.74484" x2="7.55649" y2="14.8231" gradientUnits="userSpaceOnUse">
<stop stop-color="white"/>
<stop offset="0.424" stop-color="white" stop-opacity="0.235"/>
<stop offset="0.821" stop-color="white" stop-opacity="0.157"/>
<stop offset="1" stop-color="white" stop-opacity="0.392"/>
</linearGradient>
</defs>
</svg>
