<svg width="16" height="16" viewBox="0 0 16 16" fill="none" xmlns="http://www.w3.org/2000/svg">
<path d="M8 1C4.13401 1 1 4.13401 1 8C1 11.866 4.13401 15 8 15C11.866 15 15 11.866 15 8C15 4.13401 11.866 1 8 1ZM8 1.58333C10.9392 1.58333 13.4169 3.55963 14.1768 6.25583C13.5223 7.60572 12.5911 8.8211 11.457 9.80323C10.9122 10.275 10.3174 10.6956 9.66031 10.9918C9.00327 11.2879 8.28056 11.4559 7.56104 11.4147C7.02045 11.3837 6.48644 11.2331 6.01302 10.9706C7.26766 10.2908 8.39969 9.38435 9.32635 8.29896C9.9346 7.58653 10.4668 6.77688 10.6717 5.86281C10.7741 5.40578 10.7915 4.92713 10.6957 4.46865C10.6 4.01016 10.388 3.57324 10.0672 3.23198C9.75378 2.89858 9.34235 2.66242 8.90125 2.54073C8.46015 2.41904 7.99075 2.40962 7.54062 2.49187C6.64038 2.65639 5.83663 3.1796 5.19198 3.82917C4.05569 4.97412 3.35323 6.58967 3.48208 8.1976C3.54651 9.00157 3.81593 9.79157 4.2776 10.4529C4.38066 10.6005 4.49395 10.7411 4.61521 10.8744C3.94265 11.1098 3.24627 11.2773 2.54 11.3717C1.93362 10.3918 1.58333 9.23696 1.58333 8C1.58333 4.45617 4.45617 1.58333 8 1.58333ZM8.04083 2.87979C8.4919 2.8804 8.94603 3.01696 9.30594 3.28885C9.6302 3.53382 9.87046 3.88232 10.0067 4.26521C10.1429 4.64809 10.1778 5.06388 10.1314 5.4676C10.0384 6.27505 9.63108 7.01554 9.13896 7.6624C8.2676 8.80773 7.10938 9.72444 5.82125 10.3661C5.6894 10.4318 5.55546 10.4943 5.42094 10.5543C5.14065 10.309 4.90041 10.0181 4.71729 9.69385C4.33465 9.01638 4.20847 8.2116 4.28271 7.43708C4.35695 6.66257 4.62274 5.9161 4.97979 5.22479C5.39378 4.42325 5.95807 3.66403 6.74802 3.22833C7.14299 3.01049 7.58977 2.87918 8.04083 2.87979ZM14.3591 7.14104C14.3967 7.42203 14.4167 7.70872 14.4167 8C14.4167 11.5438 11.5438 14.4167 8 14.4167C6.00975 14.4167 4.23102 13.5106 3.05406 12.0884C3.78051 11.9234 4.49053 11.6865 5.17156 11.3848C5.46938 11.6116 5.79829 11.7976 6.14792 11.9317C7.15477 12.3177 8.29789 12.2618 9.31687 11.9091C10.3359 11.5563 11.2395 10.9231 12.0272 10.1868C12.9656 9.30955 13.7567 8.27561 14.3591 7.14104Z" fill="#FF00FF"/>
</svg>
