<svg width="20" height="20" viewBox="0 0 20 20" fill="none" xmlns="http://www.w3.org/2000/svg">
<path d="M10 2.5C5.85786 2.5 2.5 5.85786 2.5 10C2.5 14.1421 5.85786 17.5 10 17.5C14.1421 17.5 17.5 14.1421 17.5 10C17.5 5.85786 14.1421 2.5 10 2.5ZM10 3.125C13.1492 3.125 15.8038 5.24246 16.618 8.13125C15.9168 9.57756 14.919 10.8797 13.7039 11.932C13.1202 12.4375 12.4829 12.8882 11.7789 13.2055C11.0749 13.5228 10.3006 13.7028 9.52969 13.6586C8.95048 13.6254 8.37832 13.464 7.87109 13.1828C9.21535 12.4544 10.4282 11.4832 11.4211 10.3203C12.0728 9.557 12.643 8.68952 12.8625 7.71016C12.9723 7.22048 12.9909 6.70764 12.8883 6.21641C12.7857 5.72517 12.5586 5.25705 12.2148 4.89141C11.879 4.5342 11.4382 4.28117 10.9656 4.15078C10.493 4.0204 9.99009 4.0103 9.50781 4.09844C8.54327 4.27471 7.6821 4.83529 6.99141 5.53125C5.77396 6.75798 5.02132 8.48893 5.15937 10.2117C5.2284 11.0731 5.51707 11.9195 6.01172 12.6281C6.12213 12.7863 6.24352 12.9369 6.37344 13.0797C5.65284 13.3319 4.90672 13.5114 4.15 13.6125C3.5003 12.5627 3.125 11.3253 3.125 10C3.125 6.20304 6.20304 3.125 10 3.125ZM10.0438 4.51406C10.527 4.51472 11.0136 4.66103 11.3992 4.95234C11.7466 5.21481 12.0041 5.5882 12.15 5.99844C12.2959 6.40867 12.3334 6.85416 12.2836 7.28672C12.184 8.15184 11.7476 8.94522 11.2203 9.63828C10.2867 10.8654 9.04577 11.8476 7.66563 12.5352C7.52436 12.6055 7.38085 12.6724 7.23672 12.7367C6.93641 12.4739 6.67901 12.1622 6.48281 11.8148C6.07284 11.089 5.93765 10.2267 6.01719 9.39687C6.09673 8.56704 6.38151 7.76725 6.76406 7.02656C7.20762 6.16777 7.81222 5.35431 8.65859 4.8875C9.08178 4.65409 9.56046 4.51341 10.0438 4.51406ZM16.8133 9.07969C16.8536 9.38075 16.875 9.68791 16.875 10C16.875 13.797 13.797 16.875 10 16.875C7.86759 16.875 5.96181 15.9043 4.70078 14.3805C5.47912 14.2037 6.23986 13.9498 6.96953 13.6266C7.28862 13.8696 7.64103 14.0689 8.01562 14.2125C9.0944 14.6261 10.3192 14.5662 11.4109 14.1883C12.5027 13.8103 13.4709 13.1319 14.3148 12.343C15.3203 11.4031 16.1679 10.2953 16.8133 9.07969Z" fill="#FF00FF"/>
</svg>
