<svg width="20" height="20" viewBox="0 0 20 20" fill="none" xmlns="http://www.w3.org/2000/svg">
<path fill-rule="evenodd" clip-rule="evenodd" d="M10 5C11.1046 5 12 4.10457 12 3C12 1.89543 11.1046 1 10 1C8.89543 1 8 1.89543 8 3C8 4.10457 8.89543 5 10 5ZM10 12C11.1046 12 12 11.1046 12 10C12 8.89543 11.1046 8 10 8C8.89543 8 8 8.89543 8 10C8 11.1046 8.89543 12 10 12ZM12 17C12 18.1046 11.1046 19 10 19C8.89543 19 8 18.1046 8 17C8 15.8954 8.89543 15 10 15C11.1046 15 12 15.8954 12 17Z" fill="#FF00FF"/>
</svg>
