<svg width="16" height="16" viewBox="0 0 16 16" fill="none" xmlns="http://www.w3.org/2000/svg">
<path fill-rule="evenodd" clip-rule="evenodd" d="M7.9999 4C8.88356 4 9.5999 3.28365 9.5999 2.4C9.5999 1.51634 8.88356 0.799999 7.9999 0.799999C7.11625 0.799999 6.3999 1.51634 6.3999 2.4C6.3999 3.28365 7.11625 4 7.9999 4ZM7.9999 9.6C8.88356 9.6 9.5999 8.88365 9.5999 8C9.5999 7.11634 8.88356 6.4 7.9999 6.4C7.11625 6.4 6.3999 7.11634 6.3999 8C6.3999 8.88365 7.11625 9.6 7.9999 9.6ZM9.5999 13.6C9.5999 14.4837 8.88356 15.2 7.9999 15.2C7.11625 15.2 6.3999 14.4837 6.3999 13.6C6.3999 12.7163 7.11625 12 7.9999 12C8.88356 12 9.5999 12.7163 9.5999 13.6Z" fill="#FF00FF"/>
</svg>
