<svg width="16" height="16" viewBox="0 0 16 16" fill="none" xmlns="http://www.w3.org/2000/svg">
<path fill-rule="evenodd" clip-rule="evenodd" d="M2.40005 9.59999C3.2837 9.59999 4.00005 8.88365 4.00005 7.99999C4.00005 7.11634 3.2837 6.39999 2.40005 6.39999C1.51639 6.39999 0.800049 7.11634 0.800049 7.99999C0.800049 8.88365 1.51639 9.59999 2.40005 9.59999ZM8.00005 9.59999C8.8837 9.59999 9.60005 8.88365 9.60005 7.99999C9.60005 7.11634 8.8837 6.39999 8.00005 6.39999C7.11639 6.39999 6.40005 7.11634 6.40005 7.99999C6.40005 8.88365 7.11639 9.59999 8.00005 9.59999ZM15.2 7.99999C15.2 8.88365 14.4837 9.59999 13.6 9.59999C12.7164 9.59999 12 8.88365 12 7.99999C12 7.11634 12.7164 6.39999 13.6 6.39999C14.4837 6.39999 15.2 7.11634 15.2 7.99999Z" fill="#FF00FF"/>
</svg>
