<svg width="16" height="16" viewBox="0 0 16 16" fill="none" xmlns="http://www.w3.org/2000/svg">
<path fill-rule="evenodd" clip-rule="evenodd" d="M2.40005 9.6C3.2837 9.6 4.00005 8.88366 4.00005 8C4.00005 7.11635 3.2837 6.4 2.40005 6.4C1.51639 6.4 0.800049 7.11635 0.800049 8C0.800049 8.88366 1.51639 9.6 2.40005 9.6ZM8.00005 9.6C8.8837 9.6 9.60005 8.88366 9.60005 8C9.60005 7.11635 8.8837 6.4 8.00005 6.4C7.11639 6.4 6.40005 7.11635 6.40005 8C6.40005 8.88366 7.11639 9.6 8.00005 9.6ZM15.2 8C15.2 8.88366 14.4837 9.6 13.6 9.6C12.7164 9.6 12 8.88366 12 8C12 7.11635 12.7164 6.4 13.6 6.4C14.4837 6.4 15.2 7.11635 15.2 8Z" fill="#FF00FF"/>
</svg>
