<svg width="16" height="16" viewBox="0 0 16 16" fill="none" xmlns="http://www.w3.org/2000/svg">
<path fill-rule="evenodd" clip-rule="evenodd" d="M3 3.39999H13C14.1046 3.39999 15 4.29542 15 5.39999V10.6C15 11.7046 14.1046 12.6 13 12.6H3C1.89543 12.6 1 11.7046 1 10.6V5.39999C1 4.29542 1.89543 3.39999 3 3.39999ZM0 5.39999C0 3.74314 1.34315 2.39999 3 2.39999H13C14.6569 2.39999 16 3.74314 16 5.39999V10.6C16 12.2569 14.6569 13.6 13 13.6H3C1.34315 13.6 0 12.2568 0 10.6V5.39999ZM13.7984 5.94731L13.4015 5.25272L7.99999 8.33841L2.59845 5.25272L2.20154 5.94731L7.99999 9.26071L13.7984 5.94731Z" fill="#222222"/>
</svg>
