<svg width="16" height="16" viewBox="0 0 16 16" fill="none" xmlns="http://www.w3.org/2000/svg">
<path d="M13.5356 0H2.25209C1.33665 0 1 0.339599 1 1.25209V12.2905C1 12.3939 1.00295 12.4884 1.01181 12.5799C1.03248 12.7807 1.03544 12.9727 1.22148 13.1942C1.2392 13.2148 1.43114 13.3566 1.43114 13.3566C1.53155 13.4068 1.60242 13.4452 1.71759 13.4895L7.2752 15.8224C7.56459 15.9552 7.68272 16.0054 7.89238 15.9995C8.10205 16.0025 8.22312 15.9523 8.50956 15.8224L14.0731 13.4924C14.1882 13.4452 14.2591 13.4097 14.3595 13.3595C14.3595 13.3595 14.5485 13.2178 14.5662 13.1971C14.7523 12.9756 14.7552 12.7837 14.7759 12.5829C14.7848 12.4943 14.7877 12.3968 14.7877 12.2935V1.25504C14.7877 0.339599 14.4511 0 13.5356 0ZM8.60111 2.12618H9.53722V8.26259H8.60111V2.12618ZM8.64836 9.75092H9.19172V11.6113H8.68084V10.5453L8.20836 11.2717H8.19654L7.72406 10.5482V11.6084H7.22204V9.75092H7.7654L8.2054 10.4715L8.64836 9.75092ZM5.58311 2.12618H7.04781C7.80674 2.12618 8.18178 2.50122 8.18178 3.26606V4.89613C8.18178 5.65801 7.80674 6.036 7.04781 6.036H6.51922V8.26259H5.58311V2.12618ZM3.03759 2.12618H5.11358V2.97666H3.97075V4.71304H5.06633V5.56352H3.97075V7.41802H5.13129V8.26849H3.03759V2.12618ZM4.80351 11.3603C4.6972 11.446 4.57908 11.5139 4.44914 11.5641C4.30444 11.6202 4.15089 11.6497 3.99438 11.6468C3.85854 11.6468 3.7227 11.6231 3.59276 11.5759C3.47464 11.5316 3.36538 11.4637 3.27384 11.3751C3.18229 11.2894 3.11142 11.1861 3.06122 11.0709C3.00806 10.9499 2.98444 10.817 2.98444 10.6841V10.6782C2.98444 10.5482 3.00806 10.4183 3.05826 10.2972C3.10847 10.1821 3.18229 10.0787 3.27384 9.99011C3.36538 9.90152 3.47169 9.83065 3.58981 9.7834C3.71679 9.7332 3.85263 9.70662 3.98847 9.70958C4.2631 9.70072 4.53478 9.79817 4.73854 9.98125L4.43733 10.3445C4.37532 10.2913 4.3074 10.247 4.23357 10.2145C4.15679 10.1821 4.07411 10.1673 3.99142 10.1702C3.92646 10.1702 3.86149 10.1821 3.80538 10.2086C3.74927 10.2352 3.69612 10.2736 3.65478 10.3179C3.61048 10.3651 3.578 10.4213 3.55437 10.4803C3.53075 10.5453 3.51598 10.6102 3.51598 10.6811V10.687C3.51598 10.7579 3.5278 10.8288 3.55437 10.8937C3.578 10.9558 3.61344 11.0119 3.66068 11.0562C3.70498 11.1005 3.75813 11.1388 3.82015 11.1625C3.89988 11.195 3.98847 11.2068 4.07411 11.2009C4.15975 11.195 4.24538 11.1684 4.31921 11.1241V10.8996H3.95599V10.5217H4.80351V11.3603ZM5.75438 9.73615H6.25049L7.03895 11.6084H6.49264L6.3568 11.2776H5.64217L5.50928 11.6084H4.96888L5.75438 9.73615ZM7.85104 14.7061L5.24351 13.8054H10.5855L7.85104 14.7061ZM9.53427 11.6084V9.74796H11.0226V10.188H10.0422V10.4685H10.9311V10.876H10.0422V11.1713H11.0374V11.6084H9.53427ZM10.0245 3.2129C10.0245 2.45102 10.3995 2.07303 11.1584 2.07303H11.6103C12.3692 2.07303 12.7354 2.44216 12.7354 3.20404V4.45908H11.8199V3.2572C11.8199 3.01209 11.7077 2.89693 11.4715 2.89693H11.3149C11.0698 2.89693 10.9576 3.01209 10.9576 3.2572V7.13158C10.9576 7.37668 11.0728 7.49185 11.3149 7.49185H11.4921C11.7284 7.49185 11.8406 7.37668 11.8406 7.13158V5.7466H12.7531V7.17292C12.7531 7.9348 12.378 8.31279 11.6191 8.31279H11.1555C10.3995 8.31574 10.0245 7.94071 10.0245 7.17292V3.2129ZM12.7885 11.0384C12.7885 11.127 12.7708 11.2127 12.7354 11.2924C12.6999 11.3662 12.6468 11.4312 12.5818 11.4814C12.5109 11.5375 12.4312 11.5759 12.3456 11.5995C12.2452 11.629 12.1418 11.6438 12.0384 11.6409C11.879 11.6409 11.7195 11.6172 11.566 11.5641C11.4213 11.5139 11.2854 11.4371 11.1702 11.3337L11.4567 10.9912C11.625 11.1329 11.8376 11.2127 12.0591 11.2156C12.1123 11.2186 12.1684 11.2068 12.2156 11.1831C12.2333 11.1743 12.2452 11.1595 12.257 11.1447C12.2658 11.127 12.2717 11.1093 12.2717 11.0886V11.0827C12.2717 11.065 12.2688 11.0473 12.2599 11.0325C12.2481 11.0148 12.2304 11.0001 12.2097 10.9882C12.1802 10.9705 12.1477 10.9558 12.1152 10.9469C12.0768 10.9351 12.0266 10.9203 11.9617 10.9056C11.8642 10.8819 11.7697 10.8583 11.687 10.8288C11.6073 10.8052 11.5335 10.7697 11.4656 10.7225C11.4035 10.6811 11.3533 10.625 11.3179 10.56C11.2795 10.4862 11.2618 10.4035 11.2618 10.3209V10.3149C11.2618 10.2323 11.2766 10.1496 11.312 10.0758C11.3445 10.0019 11.3947 9.93696 11.4537 9.88676C11.5217 9.83065 11.5984 9.78931 11.6811 9.76273C11.7786 9.7332 11.879 9.71548 11.9794 9.71843C12.1241 9.71843 12.2658 9.73615 12.4046 9.78045C12.5286 9.82179 12.6409 9.8838 12.7413 9.96354L12.4814 10.3268C12.3987 10.2677 12.3101 10.2234 12.2156 10.1909C12.1329 10.1614 12.0443 10.1466 11.9587 10.1437C11.9115 10.1407 11.8613 10.1525 11.8199 10.1791C11.8052 10.188 11.7933 10.2027 11.7845 10.2175C11.7756 10.2323 11.7727 10.25 11.7727 10.2677V10.2736C11.7727 10.2943 11.7786 10.312 11.7874 10.3297C11.7992 10.3474 11.817 10.3622 11.8376 10.374C11.8672 10.3917 11.9026 10.4035 11.9351 10.4153C11.9764 10.4272 12.0296 10.4419 12.0945 10.4567C12.192 10.4774 12.2865 10.5039 12.381 10.5394C12.4578 10.566 12.5316 10.6043 12.5995 10.6516C12.6615 10.6929 12.7117 10.7461 12.7472 10.8111C12.7797 10.8819 12.7974 10.9587 12.7944 11.0355V11.0414L12.7885 11.0384Z" fill="#FF00FF"/>
<path d="M7.2486 4.85183V3.30739C7.2486 3.06229 7.13638 2.95008 6.89423 2.95008H6.51329V5.2121H6.89719C7.13343 5.2121 7.24564 5.09693 7.24564 4.85183H7.2486Z" fill="#FF00FF"/>
<path d="M6.00258 10.3474L5.79291 10.876H6.20929L6.00258 10.3474Z" fill="#FF00FF"/>
</svg>
