<svg width="16" height="16" viewBox="0 0 16 16" fill="none" xmlns="http://www.w3.org/2000/svg">
<path d="M13.5356 0H2.25209C1.33665 0 1 0.339599 1 1.25209V12.2905C1 12.3939 1.00295 12.4884 1.01181 12.5799C1.03248 12.7807 1.03544 12.9727 1.22148 13.1942C1.2392 13.2148 1.43114 13.3566 1.43114 13.3566C1.53155 13.4068 1.60242 13.4452 1.71759 13.4895L7.2752 15.8224C7.56459 15.9552 7.68272 16.0054 7.89238 15.9995C8.10205 16.0025 8.22312 15.9523 8.50956 15.8224L14.0731 13.4924C14.1882 13.4452 14.2591 13.4097 14.3595 13.3595C14.3595 13.3595 14.5485 13.2178 14.5662 13.1971C14.7523 12.9756 14.7552 12.7837 14.7759 12.5829C14.7848 12.4943 14.7877 12.3968 14.7877 12.2935V1.25504C14.7877 0.339599 14.4511 0 13.5356 0Z" fill="#2F2D2E"/>
<path fill-rule="evenodd" clip-rule="evenodd" d="M8.60129 2.12615H9.5374V8.26256H8.60129V2.12615ZM8.64854 9.75089H9.1919V11.6113H8.68102V10.5453L8.20854 11.2717H8.19672L7.72424 10.5482V11.6083H7.22222V9.75089H7.76558L8.20558 10.4714L8.64854 9.75089ZM5.58329 2.12615H7.04799C7.80692 2.12615 8.18196 2.50119 8.18196 3.26602V4.8961C8.18196 5.65798 7.80692 6.03597 7.04799 6.03597H6.5194V8.26256H5.58329V2.12615ZM3.03777 2.12615H5.11376V2.97663H3.97093V4.71301H5.06651V5.56348H3.97093V7.41799H5.13147V8.26846H3.03777V2.12615ZM4.80369 11.3603C4.69738 11.4459 4.57926 11.5138 4.44932 11.564C4.30463 11.6202 4.15107 11.6497 3.99456 11.6467C3.85872 11.6467 3.72288 11.6231 3.59294 11.5759C3.47482 11.5316 3.36556 11.4636 3.27402 11.3751C3.18247 11.2894 3.1116 11.1861 3.0614 11.0709C3.00824 10.9498 2.98462 10.8169 2.98462 10.684V10.6781C2.98462 10.5482 3.00824 10.4183 3.05844 10.2972C3.10865 10.182 3.18247 10.0787 3.27402 9.99008C3.36556 9.90149 3.47187 9.83062 3.58999 9.78337C3.71697 9.73317 3.85281 9.70659 3.98865 9.70954C4.26328 9.70068 4.53496 9.79813 4.73872 9.98122L4.43751 10.3444C4.3755 10.2913 4.30758 10.247 4.23375 10.2145C4.15697 10.182 4.07429 10.1673 3.9916 10.1702C3.92664 10.1702 3.86167 10.182 3.80556 10.2086C3.74945 10.2352 3.6963 10.2736 3.65496 10.3179C3.61066 10.3651 3.57818 10.4212 3.55455 10.4803C3.53093 10.5453 3.51617 10.6102 3.51617 10.6811V10.687C3.51617 10.7579 3.52798 10.8287 3.55455 10.8937C3.57818 10.9557 3.61362 11.0118 3.66086 11.0561C3.70516 11.1004 3.75831 11.1388 3.82033 11.1624C3.90006 11.1949 3.98865 11.2067 4.07429 11.2008C4.15993 11.1949 4.24556 11.1683 4.31939 11.124V10.8996H3.95617V10.5216H4.80369V11.3603ZM5.75457 9.73612H6.25067L7.03913 11.6083H6.49282L6.35698 11.2776H5.64235L5.50946 11.6083H4.96906L5.75457 9.73612ZM7.85122 14.7061L5.24369 13.8054H10.5857L7.85122 14.7061ZM9.53445 9.74793H11.0228V10.1879H10.0424V10.4685H10.9312V10.876H10.0424V11.1713H11.0375V11.6083H9.53445V9.74793ZM10.0247 3.21287C10.0247 2.45099 10.3997 2.073 11.1586 2.073H11.6104C12.3694 2.073 12.7355 2.44213 12.7355 3.20401V4.45905H11.8201V3.25716C11.8201 3.01206 11.7079 2.89689 11.4716 2.89689H11.3151C11.07 2.89689 10.9578 3.01206 10.9578 3.25716V7.13154C10.9578 7.37665 11.073 7.49182 11.3151 7.49182H11.4923C11.7286 7.49182 11.8408 7.37665 11.8408 7.13154V5.74657H12.7533V7.17289C12.7533 7.93477 12.3782 8.31276 11.6193 8.31276H11.1557C10.3997 8.31571 10.0247 7.94068 10.0247 7.17289V3.21287ZM12.7887 11.0384C12.7887 11.127 12.771 11.2126 12.7355 11.2924C12.7001 11.3662 12.6469 11.4312 12.582 11.4814C12.5111 11.5375 12.4314 11.5759 12.3457 11.5995C12.2453 11.629 12.142 11.6438 12.0386 11.6408C11.8792 11.6408 11.7197 11.6172 11.5661 11.564C11.4214 11.5138 11.2856 11.4371 11.1704 11.3337L11.4569 10.9912C11.6252 11.1329 11.8378 11.2126 12.0593 11.2156C12.1124 11.2185 12.1686 11.2067 12.2158 11.1831C12.2335 11.1742 12.2453 11.1595 12.2571 11.1447C12.266 11.127 12.2719 11.1093 12.2719 11.0886V11.0827C12.2719 11.065 12.269 11.0473 12.2601 11.0325C12.2483 11.0148 12.2306 11 12.2099 10.9882C12.1804 10.9705 12.1479 10.9557 12.1154 10.9469C12.077 10.9351 12.0268 10.9203 11.9618 10.9055C11.8644 10.8819 11.7699 10.8583 11.6872 10.8287C11.6075 10.8051 11.5337 10.7697 11.4657 10.7224C11.4037 10.6811 11.3535 10.625 11.3181 10.56C11.2797 10.4862 11.262 10.4035 11.262 10.3208V10.3149C11.262 10.2322 11.2767 10.1495 11.3122 10.0757C11.3447 10.0019 11.3949 9.93693 11.4539 9.88673C11.5218 9.83062 11.5986 9.78928 11.6813 9.7627C11.7788 9.73317 11.8792 9.71545 11.9796 9.7184C12.1243 9.7184 12.266 9.73612 12.4048 9.78042C12.5288 9.82176 12.641 9.88377 12.7414 9.9635L12.4816 10.3267C12.3989 10.2677 12.3103 10.2234 12.2158 10.1909C12.1331 10.1614 12.0445 10.1466 11.9589 10.1436C11.9116 10.1407 11.8614 10.1525 11.8201 10.1791C11.8053 10.1879 11.7935 10.2027 11.7847 10.2175C11.7758 10.2322 11.7728 10.2499 11.7728 10.2677V10.2736C11.7728 10.2942 11.7788 10.312 11.7876 10.3297C11.7994 10.3474 11.8171 10.3622 11.8378 10.374C11.8639 10.3896 11.8946 10.4007 11.9238 10.4112L11.9353 10.4153C11.9766 10.4271 12.0298 10.4419 12.0947 10.4567C12.1922 10.4773 12.2867 10.5039 12.3812 10.5393C12.458 10.5659 12.5318 10.6043 12.5997 10.6516C12.6617 10.6929 12.7119 10.7461 12.7473 10.811C12.7798 10.8819 12.7975 10.9587 12.7946 11.0355V11.0414L12.7887 11.0384ZM7.24878 4.8518V3.30736C7.24878 3.06226 7.13656 2.95005 6.89441 2.95005H6.51347V5.21207H6.89737C7.13361 5.21207 7.24582 5.0969 7.24582 4.8518H7.24878ZM5.79309 10.876L6.00276 10.3474L6.20947 10.876H5.79309Z" fill="white"/>
</svg>
