<svg width="16" height="16" viewBox="0 0 16 16" fill="none" xmlns="http://www.w3.org/2000/svg">
<path d="M13.5356 0H2.25209C1.33665 0 1 0.339599 1 1.25209V12.2905C1 12.3939 1.00295 12.4884 1.01181 12.5799C1.03248 12.7807 1.03544 12.9727 1.22148 13.1942C1.2392 13.2148 1.43114 13.3566 1.43114 13.3566C1.53155 13.4068 1.60242 13.4452 1.71759 13.4895L7.2752 15.8224C7.56459 15.9552 7.68272 16.0054 7.89238 15.9995C8.10205 16.0025 8.22312 15.9523 8.50956 15.8224L14.0731 13.4924C14.1882 13.4452 14.2591 13.4097 14.3595 13.3595C14.3595 13.3595 14.5485 13.2178 14.5662 13.1971C14.7523 12.9756 14.7552 12.7837 14.7759 12.5829C14.7848 12.4943 14.7877 12.3968 14.7877 12.2935V1.25504C14.7877 0.339599 14.4511 0 13.5356 0Z" fill="#2F2D2E"/>
<path fill-rule="evenodd" clip-rule="evenodd" d="M8.60153 2.12615H9.53765V8.26256H8.60153V2.12615ZM8.64878 9.75089H9.19214V11.6113H8.68127V10.5453L8.20878 11.2717H8.19697L7.72448 10.5482V11.6083H7.22247V9.75089H7.76583L8.20583 10.4714L8.64878 9.75089ZM5.58353 2.12615H7.04824C7.80717 2.12615 8.1822 2.50119 8.1822 3.26602V4.8961C8.1822 5.65798 7.80717 6.03597 7.04824 6.03597H6.51964V8.26256H5.58353V2.12615ZM3.03802 2.12615H5.114V2.97663H3.97118V4.71301H5.06675V5.56348H3.97118V7.41799H5.13172V8.26846H3.03802V2.12615ZM4.80393 11.3603C4.69762 11.4459 4.5795 11.5138 4.44957 11.564C4.30487 11.6202 4.15131 11.6497 3.9948 11.6467C3.85896 11.6467 3.72312 11.6231 3.59319 11.5759C3.47507 11.5316 3.3658 11.4636 3.27426 11.3751C3.18272 11.2894 3.11184 11.1861 3.06164 11.0709C3.00849 10.9498 2.98486 10.8169 2.98486 10.684V10.6781C2.98486 10.5482 3.00849 10.4183 3.05869 10.2972C3.10889 10.182 3.18272 10.0787 3.27426 9.99008C3.3658 9.90149 3.47211 9.83062 3.59024 9.78337C3.71722 9.73317 3.85306 9.70659 3.98889 9.70954C4.26353 9.70068 4.53521 9.79813 4.73897 9.98122L4.43776 10.3444C4.37574 10.2913 4.30782 10.247 4.234 10.2145C4.15722 10.182 4.07453 10.1673 3.99185 10.1702C3.92688 10.1702 3.86191 10.182 3.80581 10.2086C3.7497 10.2352 3.69654 10.2736 3.6552 10.3179C3.61091 10.3651 3.57842 10.4212 3.5548 10.4803C3.53117 10.5453 3.51641 10.6102 3.51641 10.6811V10.687C3.51641 10.7579 3.52822 10.8287 3.5548 10.8937C3.57842 10.9557 3.61386 11.0118 3.66111 11.0561C3.7054 11.1004 3.75856 11.1388 3.82057 11.1624C3.9003 11.1949 3.98889 11.2067 4.07453 11.2008C4.16017 11.1949 4.24581 11.1683 4.31963 11.124V10.8996H3.95641V10.5216H4.80393V11.3603ZM5.75481 9.73612H6.25092L7.03938 11.6083H6.49307L6.35723 11.2776H5.64259L5.50971 11.6083H4.9693L5.75481 9.73612ZM7.85146 14.7061L5.24393 13.8054H10.586L7.85146 14.7061ZM9.53469 9.74793H11.023V10.1879H10.0426V10.4685H10.9315V10.876H10.0426V11.1713H11.0378V11.6083H9.53469V9.74793ZM10.0249 3.21287C10.0249 2.45099 10.3999 2.073 11.1589 2.073H11.6107C12.3696 2.073 12.7358 2.44213 12.7358 3.20401V4.45905H11.8203V3.25716C11.8203 3.01206 11.7081 2.89689 11.4719 2.89689H11.3154C11.0703 2.89689 10.9581 3.01206 10.9581 3.25716V7.13154C10.9581 7.37665 11.0732 7.49182 11.3154 7.49182H11.4926C11.7288 7.49182 11.841 7.37665 11.841 7.13154V5.74657H12.7535V7.17289C12.7535 7.93477 12.3785 8.31276 11.6195 8.31276H11.1559C10.3999 8.31571 10.0249 7.94068 10.0249 7.17289V3.21287ZM12.7889 11.0384C12.7889 11.127 12.7712 11.2126 12.7358 11.2924C12.7003 11.3662 12.6472 11.4312 12.5822 11.4814C12.5113 11.5375 12.4316 11.5759 12.346 11.5995C12.2456 11.629 12.1422 11.6438 12.0389 11.6408C11.8794 11.6408 11.7199 11.6172 11.5664 11.564C11.4217 11.5138 11.2858 11.4371 11.1707 11.3337L11.4571 10.9912C11.6254 11.1329 11.8381 11.2126 12.0595 11.2156C12.1127 11.2185 12.1688 11.2067 12.216 11.1831C12.2338 11.1742 12.2456 11.1595 12.2574 11.1447C12.2662 11.127 12.2722 11.1093 12.2722 11.0886V11.0827C12.2722 11.065 12.2692 11.0473 12.2603 11.0325C12.2485 11.0148 12.2308 11 12.2101 10.9882C12.1806 10.9705 12.1481 10.9557 12.1156 10.9469C12.0773 10.9351 12.0271 10.9203 11.9621 10.9055C11.8646 10.8819 11.7701 10.8583 11.6875 10.8287C11.6077 10.8051 11.5339 10.7697 11.466 10.7224C11.404 10.6811 11.3538 10.625 11.3183 10.56C11.2799 10.4862 11.2622 10.4035 11.2622 10.3208V10.3149C11.2622 10.2322 11.277 10.1495 11.3124 10.0757C11.3449 10.0019 11.3951 9.93693 11.4542 9.88672C11.5221 9.83062 11.5989 9.78928 11.6815 9.7627C11.779 9.73317 11.8794 9.71545 11.9798 9.7184C12.1245 9.7184 12.2662 9.73612 12.405 9.78042C12.5291 9.82176 12.6413 9.88377 12.7417 9.9635L12.4818 10.3267C12.3991 10.2677 12.3105 10.2234 12.216 10.1909C12.1334 10.1614 12.0448 10.1466 11.9591 10.1436C11.9119 10.1407 11.8617 10.1525 11.8203 10.1791C11.8056 10.1879 11.7938 10.2027 11.7849 10.2175C11.776 10.2322 11.7731 10.2499 11.7731 10.2677V10.2736C11.7731 10.2942 11.779 10.312 11.7879 10.3297C11.7997 10.3474 11.8174 10.3622 11.8381 10.374C11.8641 10.3896 11.8948 10.4007 11.924 10.4112L11.9355 10.4153C11.9769 10.4271 12.03 10.4419 12.095 10.4567C12.1924 10.4773 12.2869 10.5039 12.3814 10.5393C12.4582 10.5659 12.532 10.6043 12.5999 10.6516C12.662 10.6929 12.7122 10.7461 12.7476 10.811C12.7801 10.8819 12.7978 10.9587 12.7948 11.0355V11.0414L12.7889 11.0384ZM7.24902 4.8518V3.30736C7.24902 3.06226 7.13681 2.95005 6.89466 2.95005H6.51372V5.21207H6.89761C7.13385 5.21207 7.24607 5.0969 7.24607 4.8518H7.24902ZM5.79334 10.876L6.003 10.3474L6.20971 10.876H5.79334Z" fill="white"/>
</svg>
