<svg width="16" height="16" viewBox="0 0 16 16" fill="none" xmlns="http://www.w3.org/2000/svg">
<path opacity="0.4" fill-rule="evenodd" clip-rule="evenodd" d="M1.75 5C1.75 3.48122 2.98122 2.25 4.5 2.25H5.5C5.91421 2.25 6.25 2.58579 6.25 3C6.25 3.41421 5.91421 3.75 5.5 3.75H4.5C3.80964 3.75 3.25 4.30964 3.25 5V11.5C3.25 12.1904 3.80964 12.75 4.5 12.75H11C11.6904 12.75 12.25 12.1904 12.25 11.5V10.5C12.25 10.0858 12.5858 9.75 13 9.75C13.4142 9.75 13.75 10.0858 13.75 10.5V11.5C13.75 13.0188 12.5188 14.25 11 14.25H4.5C2.98122 14.25 1.75 13.0188 1.75 11.5V5Z" fill="#FF00FF"/>
<path fill-rule="evenodd" clip-rule="evenodd" d="M9.75 2C9.75 1.58579 10.0858 1.25 10.5 1.25H14C14.4142 1.25 14.75 1.58579 14.75 2V5.5C14.75 5.91421 14.4142 6.25 14 6.25C13.5858 6.25 13.25 5.91421 13.25 5.5V3.81066L9.53033 7.53033C9.23744 7.82322 8.76256 7.82322 8.46967 7.53033C8.17678 7.23744 8.17678 6.76256 8.46967 6.46967L12.1893 2.75H10.5C10.0858 2.75 9.75 2.41421 9.75 2Z" fill="#FF00FF"/>
</svg>
