<svg width="16" height="16" viewBox="0 0 16 16" fill="none" xmlns="http://www.w3.org/2000/svg">
<path fill-rule="evenodd" clip-rule="evenodd" d="M7.99989 2.75C5.98238 2.75 4.12047 3.99917 2.94213 4.96655C2.31338 5.48273 1.78936 5.99486 1.42307 6.37667C1.23902 6.56852 1.0925 6.72987 0.99006 6.84557C0.408912 7.50192 0.408912 8.49808 0.990061 9.15443C1.0925 9.27013 1.23902 9.43148 1.42307 9.62333C1.78936 10.0051 2.31338 10.5173 2.94213 11.0335C4.12047 12.0008 5.98238 13.25 7.99989 13.25C10.0174 13.25 11.8793 12.0008 13.0577 11.0335C13.6864 10.5173 14.2104 10.0051 14.5767 9.62333C14.7608 9.43148 14.9073 9.27013 15.0097 9.15444C15.5909 8.49809 15.5909 7.50191 15.0097 6.84557C14.9073 6.72987 14.7608 6.56852 14.5767 6.37667C14.2104 5.99486 13.6864 5.48273 13.0577 4.96655C11.8793 3.99917 10.0174 2.75 7.99989 2.75ZM3.89392 6.1259C5.03536 5.18881 6.5423 4.25 7.99989 4.25C9.45748 4.25 10.9644 5.18881 12.1059 6.1259C12.6769 6.59472 13.157 7.06352 13.4943 7.4151C13.6629 7.5909 13.7959 7.73739 13.8867 7.83994L14.4482 7.34275L13.8867 7.83994C13.9652 7.92864 13.9652 8.07136 13.8867 8.16006L14.4482 8.65725L13.8867 8.16006C13.7959 8.26261 13.6629 8.4091 13.4943 8.5849C13.157 8.93648 12.6769 9.40528 12.1059 9.8741C10.9644 10.8112 9.45748 11.75 7.99989 11.75C6.5423 11.75 5.03536 10.8112 3.89392 9.8741C3.32286 9.40528 2.8428 8.93648 2.50551 8.5849C2.33686 8.4091 2.2039 8.26261 2.1131 8.16006C2.03456 8.07136 2.03456 7.92864 2.1131 7.83994C2.2039 7.73739 2.33686 7.5909 2.50551 7.4151C2.8428 7.06352 3.32286 6.59472 3.89392 6.1259ZM7.99988 10C9.10445 10 9.99988 9.10457 9.99988 8C9.99988 6.89543 9.10445 6 7.99988 6C6.89531 6 5.99988 6.89543 5.99988 8C5.99988 9.10457 6.89531 10 7.99988 10Z" fill="#FF00FF"/>
</svg>
