<svg width="20" height="20" viewBox="0 0 20 20" fill="none" xmlns="http://www.w3.org/2000/svg">
<path fill-rule="evenodd" clip-rule="evenodd" d="M18 10L18.7707 10.6372L19.2975 10L18.7707 9.36279L18.7688 9.36049L18.7654 9.35637L18.754 9.34279L18.7136 9.29506C18.6789 9.25441 18.629 9.19646 18.5648 9.12367C18.4364 8.97817 18.2508 8.77295 18.0166 8.52785C17.5494 8.03892 16.8825 7.38496 16.0857 6.7283C14.5451 5.45865 12.3078 4 10 4C7.69215 4 5.45486 5.45865 3.91427 6.7283C3.11747 7.38496 2.45065 8.03892 1.98339 8.52785C1.74916 8.77295 1.56356 8.97817 1.43523 9.12367C1.37103 9.19646 1.32106 9.25441 1.2864 9.29506L1.246 9.34279L1.23464 9.35637L1.23122 9.36049L1.23007 9.36187C1.2299 9.36208 1.22931 9.36279 2 10L1.22931 9.36279L0.702464 10L1.22964 10.6376L1.23122 10.6395L1.23464 10.6436L1.246 10.6572L1.2864 10.7049C1.32106 10.7456 1.37103 10.8035 1.43523 10.8763C1.56356 11.0218 1.74916 11.2271 1.98339 11.4722C2.45065 11.9611 3.11747 12.615 3.91427 13.2717C5.45486 14.5413 7.69215 16 10 16C12.3078 16 14.5451 14.5413 16.0857 13.2717C16.8825 12.615 17.5494 11.9611 18.0166 11.4722C18.2508 11.2271 18.4364 11.0218 18.5648 10.8763C18.629 10.8035 18.6789 10.7456 18.7136 10.7049L18.754 10.6572L18.7654 10.6436L18.7688 10.6395L18.7699 10.6381C18.7701 10.6379 18.7707 10.6372 18 10ZM18 10C18.7707 9.36279 18.7709 9.363 18.7707 9.36279L18 10ZM18 10C18 10 13.866 15 10 15C6.13401 15 2 10 2 10C2 10 6.13401 5 10 5C13.866 5 18 10 18 10ZM2 10L1.22964 10.6376C1.22947 10.6374 1.22931 10.6372 2 10ZM10 13C11.6569 13 13 11.6569 13 10C13 8.34315 11.6569 7 10 7C8.34315 7 7 8.34315 7 10C7 11.6569 8.34315 13 10 13Z" fill="#FF00FF"/>
</svg>
