<svg width="16" height="16" viewBox="0 0 16 16" fill="none" xmlns="http://www.w3.org/2000/svg">
<g opacity="0.3">
<path d="M3.89025 8.11266C3.88767 8.11054 3.88509 8.10842 3.88252 8.1063C3.29119 7.61897 2.79284 7.13055 2.44218 6.76362C2.26709 6.58041 2.12943 6.42813 2.03606 6.32226C1.98938 6.26934 1.95381 6.22807 1.93021 6.20039L1.9039 6.16931L1.89768 6.16188L1.89613 6.16C1.89613 6.16 1.8962 6.1601 1.58793 6.41498C1.27965 6.66986 1.28003 6.67032 1.28003 6.67032L1.28071 6.67115L1.28299 6.67388L1.29112 6.6836L1.32143 6.71942C1.34778 6.75032 1.38629 6.79499 1.43609 6.85145C1.53566 6.96433 1.68053 7.12455 1.86382 7.31634C2.21972 7.68875 2.72275 8.18262 3.32204 8.68087L3.89025 8.11266Z" fill="#FF00FF"/>
<path d="M7.60579 10.7971L8.41528 9.98763C9.68626 9.82849 11.0114 8.99792 12.0933 8.1063C12.6847 7.61897 13.183 7.13055 13.5337 6.76362C13.7088 6.58041 13.8464 6.42813 13.9398 6.32226C13.9865 6.26934 14.022 6.22807 14.0456 6.20039L14.072 6.16931L14.0782 6.16188L14.0797 6.16C14.0797 6.16 14.0796 6.1601 14.3879 6.41498C14.6962 6.66986 14.696 6.67005 14.696 6.67005L14.6929 6.67388L14.6847 6.6836L14.6544 6.71942C14.6281 6.75032 14.5896 6.79499 14.5398 6.85145C14.4402 6.96433 14.2953 7.12455 14.112 7.31634C13.7459 7.69941 13.2242 8.21099 12.6021 8.72366C11.3792 9.73152 9.68426 10.815 7.98793 10.815C7.86047 10.815 7.73303 10.8089 7.60579 10.7971Z" fill="#FF00FF"/>
</g>
<path fill-rule="evenodd" clip-rule="evenodd" d="M2.11719 13.3172L13.3172 2.11716L13.8829 2.68285L2.68287 13.8829L2.11719 13.3172Z" fill="#FF00FF"/>
</svg>
