<svg width="20" height="20" viewBox="0 0 20 20" fill="none" xmlns="http://www.w3.org/2000/svg">
<path fill-rule="evenodd" clip-rule="evenodd" d="M16.6464 2.64648L2.64645 16.6465L3.35355 17.3536L17.3536 3.35359L16.6464 2.64648ZM4.85311 10.1329L4.86277 10.1409L4.15251 10.8511C3.4034 10.2283 2.77462 9.61098 2.32974 9.14546C2.10063 8.90573 1.91953 8.70546 1.79507 8.56435C1.73283 8.49378 1.68469 8.43794 1.65175 8.39931L1.61386 8.35454L1.60369 8.34239L1.60085 8.33897L1.6 8.33794C1.6 8.33794 1.59952 8.33737 1.98487 8.01876C2.37021 7.70016 2.37012 7.70004 2.37012 7.70004L2.37206 7.70238L2.37984 7.71167L2.41272 7.75052C2.44223 7.78513 2.48669 7.83672 2.54503 7.90286C2.66175 8.03519 2.83383 8.22555 3.05269 8.45456C3.49102 8.91322 4.11395 9.52375 4.85311 10.1329ZM10.5191 12.4846L9.5072 13.4964C9.66625 13.5111 9.82555 13.5188 9.98487 13.5188C12.1053 13.5188 14.2239 12.1644 15.7526 10.9046C16.5302 10.2638 17.1824 9.6243 17.64 9.14546C17.8691 8.90573 18.0502 8.70546 18.1747 8.56435C18.2369 8.49378 18.285 8.43794 18.318 8.39931L18.3559 8.35454L18.366 8.34239L18.37 8.3376C18.37 8.3376 18.3702 8.33737 17.9849 8.01876C17.5995 7.70016 17.5996 7.70004 17.5996 7.70004L17.5977 7.70238L17.5899 7.71167L17.557 7.75052C17.5275 7.78513 17.483 7.83672 17.4247 7.90286C17.308 8.03519 17.1359 8.22555 16.917 8.45456C16.4787 8.91322 15.8558 9.52375 15.1166 10.1329C13.7643 11.2474 12.1078 12.2856 10.5191 12.4846Z" fill="#FF00FF"/>
</svg>
