<svg width="16" height="16" viewBox="0 0 16 16" fill="none" xmlns="http://www.w3.org/2000/svg">
<path fill-rule="evenodd" clip-rule="evenodd" d="M13.3172 2.11716L2.11719 13.3172L2.68287 13.8829L13.8829 2.68285L13.3172 2.11716ZM3.88252 8.10631L3.89025 8.11267L3.32204 8.68088C2.72275 8.18263 2.21972 7.68876 1.86382 7.31635C1.68053 7.12456 1.53566 6.96434 1.43609 6.85146C1.38629 6.795 1.34778 6.75033 1.32143 6.71942L1.29112 6.68361L1.28299 6.67389L1.28071 6.67116L1.28003 6.67033C1.28003 6.67033 1.27965 6.66987 1.58793 6.41499C1.8962 6.1601 1.89613 6.16001 1.89613 6.16001L1.89768 6.16188L1.9039 6.16932L1.93021 6.2004C1.95381 6.22808 1.98938 6.26935 2.03606 6.32227C2.12943 6.42813 2.26709 6.58042 2.44218 6.76363C2.79284 7.13056 3.29119 7.61897 3.88252 8.10631ZM8.41528 9.98764L7.60579 10.7971C7.73303 10.8089 7.86047 10.815 7.98793 10.815C9.68426 10.815 11.3792 9.73153 12.6021 8.72367C13.2242 8.211 13.7459 7.69942 14.112 7.31635C14.2953 7.12456 14.4402 6.96434 14.5398 6.85146C14.5896 6.795 14.6281 6.75033 14.6544 6.71942L14.6847 6.68361L14.6929 6.67389L14.696 6.67006C14.696 6.67006 14.6962 6.66987 14.3879 6.41499C14.0796 6.1601 14.0797 6.16001 14.0797 6.16001L14.0782 6.16188L14.072 6.16932L14.0456 6.2004C14.022 6.22808 13.9865 6.26935 13.9398 6.32227C13.8464 6.42813 13.7088 6.58042 13.5337 6.76363C13.183 7.13056 12.6847 7.61897 12.0933 8.10631C11.0114 8.99793 9.68626 9.8285 8.41528 9.98764Z" fill="#FF00FF"/>
</svg>
