<svg width="16" height="16" viewBox="0 0 16 16" fill="none" xmlns="http://www.w3.org/2000/svg">
<g opacity="0.3">
<path d="M3.89025 8.11267C3.88767 8.11055 3.88509 8.10843 3.88252 8.10631C3.29119 7.61897 2.79284 7.13056 2.44218 6.76363C2.26709 6.58042 2.12943 6.42813 2.03606 6.32227C1.98938 6.26935 1.95381 6.22808 1.93021 6.2004L1.9039 6.16932L1.89768 6.16188L1.89613 6.16001C1.89613 6.16001 1.8962 6.1601 1.58793 6.41499C1.27965 6.66987 1.28003 6.67033 1.28003 6.67033L1.28071 6.67116L1.28299 6.67389L1.29112 6.68361L1.32143 6.71942C1.34778 6.75033 1.38629 6.795 1.43609 6.85146C1.53566 6.96434 1.68053 7.12456 1.86382 7.31635C2.21972 7.68876 2.72275 8.18263 3.32204 8.68088L3.89025 8.11267Z" fill="#222222"/>
<path d="M7.60579 10.7971L8.41528 9.98764C9.68626 9.8285 11.0114 8.99793 12.0933 8.10631C12.6847 7.61897 13.183 7.13056 13.5337 6.76363C13.7088 6.58042 13.8464 6.42813 13.9398 6.32227C13.9865 6.26935 14.022 6.22808 14.0456 6.2004L14.072 6.16932L14.0782 6.16188L14.0797 6.16001C14.0797 6.16001 14.0796 6.1601 14.3879 6.41499C14.6962 6.66987 14.696 6.67006 14.696 6.67006L14.6929 6.67389L14.6847 6.68361L14.6544 6.71942C14.6281 6.75033 14.5896 6.795 14.5398 6.85146C14.4402 6.96434 14.2953 7.12456 14.112 7.31635C13.7459 7.69942 13.2242 8.211 12.6021 8.72367C11.3792 9.73153 9.68426 10.815 7.98793 10.815C7.86047 10.815 7.73303 10.8089 7.60579 10.7971Z" fill="#222222"/>
</g>
<path fill-rule="evenodd" clip-rule="evenodd" d="M2.11719 13.3172L13.3172 2.11716L13.8829 2.68285L2.68287 13.8829L2.11719 13.3172Z" fill="#222222"/>
</svg>
