<svg width="16" height="16" viewBox="0 0 16 16" fill="none" xmlns="http://www.w3.org/2000/svg">
<path opacity="0.5" fill-rule="evenodd" clip-rule="evenodd" d="M0.521023 7.42287C0.839755 7.15833 1.31259 7.20226 1.57713 7.52099C1.62601 7.57988 1.6731 7.63704 1.71908 7.69286C1.85412 7.85679 1.97966 8.0092 2.11323 8.16005L1.57427 8.63725L2.11323 8.16005C2.20403 8.2626 2.33699 8.40909 2.50563 8.58489C2.65092 8.73633 2.82316 8.91 3.01818 9.09639C3.31763 9.38257 3.32838 9.85733 3.04219 10.1568C2.756 10.4562 2.28125 10.467 1.9818 10.1808C1.76936 9.97776 1.58174 9.78858 1.4232 9.62332C1.23915 9.43147 1.09263 9.27012 0.990186 9.15442C0.837183 8.98162 0.687693 8.80011 0.548563 8.63118C0.505623 8.57904 0.46367 8.5281 0.422904 8.47899C0.158362 8.16025 0.202291 7.68742 0.521023 7.42287ZM15.479 7.42287C15.7977 7.68742 15.8417 8.16025 15.5771 8.47899C15.5364 8.52811 15.4944 8.57905 15.4515 8.63119C15.3123 8.80012 15.1629 8.98162 15.0099 9.15442C14.9074 9.27012 14.7609 9.43147 14.5768 9.62332C14.2106 10.0051 13.6865 10.5173 13.0578 11.0334C11.8794 12.0008 10.0175 13.25 8.00002 13.25C7.67763 13.25 7.36068 13.2181 7.0519 13.1615C6.64447 13.0869 6.3747 12.6961 6.44935 12.2887C6.524 11.8812 6.9148 11.6114 7.32223 11.6861C7.55037 11.7279 7.7766 11.75 8.00002 11.75C9.45761 11.75 10.9646 10.8112 12.106 9.87409C12.6771 9.40527 13.1571 8.93647 13.4944 8.58489C13.6631 8.40909 13.796 8.2626 13.8868 8.16005L14.4483 8.65724L13.8868 8.16005C14.0204 8.0092 14.1459 7.85681 14.2809 7.69289C14.3269 7.63706 14.374 7.57989 14.4229 7.52099C14.6874 7.20226 15.1603 7.15833 15.479 7.42287Z" fill="#FF00FF"/>
<path fill-rule="evenodd" clip-rule="evenodd" d="M13.5303 2.46967C13.8232 2.76256 13.8232 3.23744 13.5303 3.53033L3.53033 13.5303C3.23744 13.8232 2.76256 13.8232 2.46967 13.5303C2.17678 13.2374 2.17678 12.7626 2.46967 12.4697L12.4697 2.46967C12.7626 2.17678 13.2374 2.17678 13.5303 2.46967Z" fill="#FF00FF"/>
</svg>
