<svg width="20" height="20" viewBox="0 0 20 20" fill="none" xmlns="http://www.w3.org/2000/svg">
<path d="M2.02234 0.0537472C2.0313 0.0851002 2.0537 0.161242 2.06265 0.223948C2.10744 0.452374 2.58669 2.62467 2.60909 2.69633C2.63148 2.77247 2.65836 2.89341 2.69867 3.11287C2.70762 3.18454 2.73898 3.31891 2.76137 3.40401C2.78377 3.48911 2.81064 3.61004 2.82408 3.67274C2.87335 3.93252 3.03011 4.67155 3.1376 5.12841C3.26301 5.67036 3.478 6.64229 3.50488 6.78562C3.51384 6.83489 3.54519 6.97374 3.57654 7.09915C3.60789 7.22008 3.62581 7.33653 3.62581 7.34997C3.62133 7.36341 3.94382 7.53361 4.34244 7.7262C4.74107 7.9188 5.68165 8.38013 6.43412 8.7474C8.83036 9.92089 9.71271 10.3464 9.75302 10.3464C9.77094 10.3464 9.79781 10.3643 9.81573 10.3867C9.8426 10.436 9.80677 10.427 7.24033 9.71934C6.24152 9.44612 5.395 9.21321 5.35917 9.20426C5.32333 9.1953 5.1397 9.14603 4.95606 9.09228C4.77242 9.04301 4.58879 8.98927 4.55295 8.98031C4.51712 8.97135 4.42754 8.95343 4.35588 8.93552L4.23047 8.89969L4.35588 9.11916C4.42306 9.24009 4.54848 9.44612 4.6291 9.57601C4.70972 9.7059 4.7769 9.81787 4.7769 9.83131C4.7769 9.84027 4.89335 10.0463 5.04116 10.2882C5.18449 10.53 5.53385 11.1213 5.81602 11.6005C6.09819 12.0797 6.47891 12.7202 6.65806 13.0248C6.83274 13.3294 7.00742 13.5892 7.03877 13.5981C7.07013 13.6115 7.30303 13.5668 7.55833 13.5041C7.81363 13.4369 8.07341 13.3742 8.13612 13.3652C8.19883 13.3518 8.3108 13.3249 8.38246 13.3025C8.4586 13.2801 8.57954 13.2488 8.6512 13.2353C8.72734 13.2219 9.09462 13.1368 9.47085 13.0427C9.84708 12.9442 10.1293 12.8904 10.0979 12.9218C10.0665 12.9487 9.64553 13.2129 9.16628 13.5041C7.63 14.4357 7.26272 14.6596 7.1821 14.7313C7.13283 14.7716 6.6939 15.4479 6.20121 16.2362C5.44875 17.4411 3.93934 19.8507 3.84976 19.9941C3.82288 20.0344 4.14537 19.8687 4.7769 19.5193C6.1385 18.7624 9.28721 17.0245 9.45741 16.9305C9.58282 16.8633 9.87396 16.702 10.1069 16.5721C10.3398 16.4423 10.6354 16.281 10.7563 16.2138C10.8817 16.1466 11.1729 15.9854 11.4058 15.8555C11.6387 15.7256 11.9343 15.5644 12.0552 15.4972C12.1806 15.43 12.736 15.121 13.2959 14.8074C13.8602 14.4984 14.4514 14.1714 14.6172 14.0818C14.7874 13.9923 14.9441 13.9027 14.9665 13.8848C14.9934 13.8669 15.195 13.7549 15.4144 13.6384C15.6384 13.522 15.8399 13.4055 15.8623 13.3831C15.8892 13.3562 15.9071 12.4739 15.9071 10.9152L15.9116 8.48762L16.2162 8.01733C16.3864 7.75755 16.6282 7.3858 16.7581 7.18873C16.8835 6.99165 17.1881 6.52584 17.43 6.15857C18.0884 5.1508 18.2272 4.92685 18.2003 4.89998C18.1914 4.88654 17.9809 4.9179 17.739 4.97164C17.4927 5.02091 17.2239 5.07466 17.1388 5.08809C17.0537 5.10153 16.9462 5.11945 16.9059 5.13288C16.8656 5.14632 16.785 5.16424 16.7268 5.17319C15.8668 5.33892 14.2723 5.64349 14.1782 5.66588C14.1379 5.67484 14.0259 5.69275 13.9319 5.70619C13.8289 5.72411 13.7214 5.77785 13.6676 5.83608C13.5512 5.97493 13.5198 6.01524 12.7315 7.04988C12.3643 7.53361 12.0507 7.92775 12.0328 7.92775C12.0149 7.92775 11.8805 7.8337 11.7327 7.71276C11.5849 7.59631 11.3923 7.44851 11.3117 7.38132C11.2266 7.31862 11.1146 7.22456 11.0609 7.17977C11.0071 7.13498 10.8593 7.01853 10.7339 6.91999C10.604 6.82145 10.3263 6.5975 10.1113 6.4273C9.90083 6.25262 9.68584 6.08242 9.63209 6.04659C9.58282 6.01076 9.44845 5.90774 9.34096 5.81816C9.23346 5.72411 8.64224 5.25382 8.02415 4.76113C7.41053 4.27293 6.34902 3.4264 5.66821 2.88893C4.99189 2.34697 4.36036 1.84085 4.2663 1.76919C4.17224 1.69305 3.63477 1.26755 3.07042 0.81517C2.50607 0.367275 2.03578 0 2.02234 0C2.01339 0 2.01339 0.0268726 2.02234 0.0537472Z" fill="#FF00FF"/>
</svg>
