<svg width="16" height="16" viewBox="0 0 16 16" fill="none" xmlns="http://www.w3.org/2000/svg">
<path d="M1.61768 0.0429974C1.62485 0.0680799 1.64276 0.128993 1.64993 0.179158C1.68576 0.361899 2.06916 2.09974 2.08707 2.15707C2.10499 2.21798 2.12649 2.31472 2.15874 2.4903C2.1659 2.54763 2.19099 2.65513 2.2089 2.72321C2.22682 2.79129 2.24832 2.88803 2.25907 2.9382C2.29848 3.14602 2.42389 3.73724 2.50989 4.10272C2.61022 4.53629 2.78221 5.31383 2.80371 5.4285C2.81087 5.46791 2.83596 5.57899 2.86104 5.67932C2.88612 5.77606 2.90045 5.86922 2.90045 5.87997C2.89687 5.89072 3.15486 6.02689 3.47376 6.18096C3.79266 6.33504 4.54513 6.7041 5.1471 6.99792C7.06409 7.93671 7.76998 8.27711 7.80222 8.27711C7.81656 8.27711 7.83806 8.29145 7.85239 8.30936C7.87389 8.34878 7.84522 8.34161 5.79207 7.77547C4.99302 7.5569 4.3158 7.37057 4.28714 7.3634C4.25847 7.35624 4.11156 7.31682 3.96465 7.27383C3.81774 7.23441 3.67083 7.19141 3.64217 7.18425C3.6135 7.17708 3.54184 7.16275 3.48451 7.14842L3.38418 7.11975L3.48451 7.29532C3.53826 7.39207 3.63858 7.5569 3.70308 7.66081C3.76758 7.76472 3.82133 7.8543 3.82133 7.86505C3.82133 7.87221 3.91449 8.03704 4.03273 8.23053C4.14739 8.42402 4.42688 8.897 4.65262 9.2804C4.87836 9.6638 5.18293 10.1762 5.32626 10.4198C5.466 10.6635 5.60574 10.8713 5.63083 10.8785C5.65591 10.8892 5.84223 10.8534 6.04647 10.8032C6.25071 10.7495 6.45854 10.6993 6.5087 10.6922C6.55887 10.6814 6.64844 10.6599 6.70578 10.642C6.76669 10.6241 6.86343 10.599 6.92076 10.5883C6.98168 10.5775 7.2755 10.5094 7.57648 10.4342C7.87747 10.3553 8.10321 10.3124 8.07813 10.3374C8.05304 10.3589 7.71623 10.5703 7.33283 10.8032C6.1038 11.5485 5.80998 11.7277 5.74549 11.785C5.70607 11.8173 5.35492 12.3583 4.96077 12.989C4.3588 13.9528 3.15127 15.8806 3.07961 15.9953C3.05811 16.0275 3.3161 15.8949 3.82133 15.6154C4.91061 15.0099 7.42957 13.6196 7.56573 13.5444C7.66606 13.4906 7.89897 13.3616 8.08529 13.2577C8.27162 13.1538 8.50811 13.0248 8.60485 12.9711C8.70518 12.9173 8.93809 12.7883 9.12441 12.6844C9.31074 12.5805 9.54723 12.4515 9.64397 12.3978C9.7443 12.344 10.1886 12.0968 10.6365 11.8459C11.088 11.5987 11.561 11.3371 11.6935 11.2655C11.8297 11.1938 11.9551 11.1221 11.973 11.1078C11.9945 11.0935 12.1558 11.0039 12.3313 10.9107C12.5105 10.8176 12.6717 10.7244 12.6897 10.7065C12.7112 10.685 12.7255 9.97912 12.7255 8.73217L12.7291 6.7901L12.9727 6.41387C13.1089 6.20604 13.3024 5.90864 13.4063 5.75098C13.5066 5.59332 13.7503 5.22067 13.9438 4.92685C14.4705 4.12064 14.5816 3.94148 14.5601 3.91998C14.5529 3.90923 14.3845 3.93432 14.191 3.97731C13.9939 4.01673 13.7789 4.05973 13.7109 4.07048C13.6428 4.08123 13.5568 4.09556 13.5245 4.10631C13.4923 4.11706 13.4278 4.13139 13.3812 4.13856C12.6932 4.27113 11.4176 4.51479 11.3424 4.5327C11.3101 4.53987 11.2206 4.5542 11.1453 4.56495C11.0629 4.57929 10.9769 4.62228 10.9339 4.66886C10.8407 4.77994 10.8157 4.81219 10.185 5.6399C9.89121 6.02688 9.64039 6.3422 9.62605 6.3422C9.61172 6.3422 9.50423 6.26696 9.38598 6.17021C9.26774 6.07705 9.11366 5.9588 9.04917 5.90506C8.98109 5.85489 8.89151 5.77965 8.84851 5.74381C8.80551 5.70798 8.68727 5.61482 8.58694 5.53599C8.48303 5.45716 8.26087 5.278 8.08888 5.14184C7.92047 5.0021 7.74848 4.86594 7.70548 4.83727C7.66606 4.80861 7.55857 4.7262 7.47257 4.65453C7.38658 4.57929 6.9136 4.20305 6.41912 3.8089C5.92823 3.41834 5.07902 2.74112 4.53438 2.31114C3.99332 1.87758 3.48809 1.47268 3.41285 1.41535C3.3376 1.35444 2.90762 1.01404 2.45614 0.652136C2.00466 0.293819 1.62843 0 1.61768 0C1.61051 0 1.61051 0.0214987 1.61768 0.0429974Z" fill="#FF00FF"/>
</svg>
