<svg width="20" height="20" viewBox="0 0 20 20" fill="none" xmlns="http://www.w3.org/2000/svg">
<path fill-rule="evenodd" clip-rule="evenodd" d="M6.84414 0C5.86702 0 4.92992 0.388158 4.239 1.07908C3.54807 1.77001 3.15991 2.70711 3.15991 3.68422C3.15991 4.66134 3.54807 5.59844 4.239 6.28936C4.45318 6.50355 4.69103 6.68864 4.94638 6.84209C4.69103 6.99554 4.45318 7.18063 4.239 7.39482C3.54807 8.08574 3.15991 9.02284 3.15991 9.99996C3.15991 10.9771 3.54807 11.9142 4.239 12.6051C4.4532 12.8193 4.69108 13.0044 4.94647 13.1579C4.89607 13.1882 4.84633 13.2197 4.79729 13.2525C4.19142 13.6573 3.7192 14.2327 3.44035 14.9059C3.16151 15.5791 3.08855 16.3199 3.23071 17.0345C3.37287 17.7492 3.72376 18.4057 4.23902 18.9209C4.75427 19.4362 5.41074 19.7871 6.12541 19.9292C6.84008 20.0714 7.58086 19.9984 8.25406 19.7195C8.92727 19.4407 9.50266 18.9685 9.90748 18.3626C10.3123 17.7567 10.5284 17.0444 10.5284 16.3157V13.1578L10.5284 13.1564V12.5784C11.1971 13.2608 12.1291 13.6842 13.16 13.6842C15.1947 13.6842 16.8442 12.0347 16.8442 9.99996C16.8442 8.65959 16.1284 7.4864 15.0582 6.84177C15.3134 6.68838 15.5511 6.5034 15.7651 6.28936C16.456 5.59844 16.8442 4.66134 16.8442 3.68422C16.8442 2.70711 16.456 1.77001 15.7651 1.07908C15.0742 0.388158 14.1371 0 13.16 0H6.84414ZM6.84243 12.6315C6.1451 12.6311 5.47644 12.3539 4.98332 11.8608C4.4898 11.3673 4.21254 10.6979 4.21254 9.99996C4.21254 9.30202 4.4898 8.63266 4.98332 8.13914C5.47308 7.64937 6.13602 7.3726 6.82821 7.36841L6.84415 7.36845L9.47573 7.36838V12.6315L6.84243 12.6315ZM5.3821 14.1277C5.81419 13.839 6.32209 13.6847 6.84173 13.6842L9.47573 13.6841V16.3157C9.47574 16.8362 9.3214 17.345 9.03224 17.7778C8.74309 18.2106 8.33209 18.5479 7.85123 18.747C7.37037 18.9462 6.84124 18.9983 6.33076 18.8968C5.82028 18.7953 5.35137 18.5446 4.98333 18.1766C4.61529 17.8086 4.36466 17.3397 4.26311 16.8292C4.16157 16.3187 4.21368 15.7896 4.41286 15.3087C4.61204 14.8279 4.94934 14.4169 5.3821 14.1277ZM13.176 6.31577L13.16 6.31573L13.1351 6.31582L10.5284 6.31575V1.05263H13.16C13.8579 1.05263 14.5273 1.32989 15.0208 1.82341C15.5143 2.31693 15.7916 2.98628 15.7916 3.68422C15.7916 4.38217 15.5143 5.05152 15.0208 5.54504C14.531 6.03478 13.8681 6.31155 13.176 6.31577ZM13.139 7.36845C11.6952 7.37972 10.5284 8.55357 10.5284 9.99996C10.5284 11.4533 11.7066 12.6315 13.16 12.6315C14.6133 12.6315 15.7916 11.4533 15.7916 9.99996C15.7916 8.55191 14.622 7.37703 13.176 7.36841L13.16 7.36845L13.139 7.36845ZM6.84414 6.31573H9.47573V1.05263H6.84414C6.14619 1.05263 5.47684 1.32989 4.98332 1.82341C4.4898 2.31693 4.21254 2.98628 4.21254 3.68422C4.21254 4.38217 4.4898 5.05152 4.98332 5.54504C5.47307 6.03479 6.13599 6.31157 6.82817 6.31577L6.84414 6.31573Z" fill="#FF00FF"/>
</svg>
