<svg width="16" height="16" viewBox="0 0 16 16" fill="none" xmlns="http://www.w3.org/2000/svg">
<path fill-rule="evenodd" clip-rule="evenodd" d="M5.47521 0C4.69352 0 3.94384 0.310526 3.3911 0.863267C2.83836 1.41601 2.52783 2.16569 2.52783 2.94738C2.52783 3.72907 2.83836 4.47875 3.3911 5.03149C3.56245 5.20284 3.75272 5.35091 3.95701 5.47367C3.75272 5.59643 3.56245 5.74451 3.3911 5.91585C2.83836 6.4686 2.52783 7.21827 2.52783 7.99997C2.52783 8.78166 2.83836 9.53134 3.3911 10.0841C3.56247 10.2554 3.75276 10.4035 3.95707 10.5263C3.91676 10.5505 3.87697 10.5757 3.83773 10.602C3.35304 10.9258 2.97526 11.3861 2.75219 11.9247C2.52911 12.4633 2.47074 13.0559 2.58447 13.6276C2.6982 14.1994 2.97891 14.7245 3.39111 15.1367C3.80332 15.5489 4.32849 15.8296 4.90023 15.9434C5.47197 16.0571 6.06459 15.9987 6.60315 15.7756C7.14172 15.5525 7.60203 15.1748 7.92589 14.6901C8.24975 14.2054 8.4226 13.6355 8.42259 13.0526V10.5262L8.42259 10.5251V10.0627C8.95755 10.6086 9.70315 10.9473 10.5279 10.9473C12.1557 10.9473 13.4752 9.62776 13.4752 7.99997C13.4752 6.92767 12.9026 5.98912 12.0465 5.47342C12.2506 5.35071 12.4407 5.20272 12.612 5.03149C13.1647 4.47875 13.4752 3.72907 13.4752 2.94738C13.4752 2.16569 13.1647 1.41601 12.612 0.863267C12.0592 0.310526 11.3096 0 10.5279 0H5.47521ZM5.47385 10.1052C4.91599 10.1049 4.38105 9.88311 3.98656 9.48862C3.59174 9.0938 3.36994 8.55832 3.36994 7.99997C3.36994 7.44161 3.59174 6.90613 3.98656 6.51131C4.37837 6.1195 4.90872 5.89808 5.46247 5.89473L5.47522 5.89476L7.58049 5.8947V10.1052L5.47385 10.1052ZM4.30558 11.3022C4.65126 11.0712 5.05758 10.9477 5.47329 10.9473L7.58049 10.9473V13.0526C7.58049 13.469 7.45702 13.876 7.2257 14.2222C6.99437 14.5684 6.66557 14.8383 6.28089 14.9976C5.8962 15.157 5.4729 15.1987 5.06451 15.1174C4.65613 15.0362 4.281 14.8357 3.98657 14.5413C3.69214 14.2469 3.49163 13.8717 3.41039 13.4633C3.32916 13.055 3.37085 12.6317 3.53019 12.247C3.68953 11.8623 3.95937 11.5335 4.30558 11.3022ZM10.5407 5.05261L10.5279 5.05259L10.508 5.05265L8.42259 5.0526V0.842105H10.5279C11.0862 0.842105 11.6217 1.06391 12.0165 1.45873C12.4113 1.85354 12.6331 2.38903 12.6331 2.94738C12.6331 3.50573 12.4113 4.04122 12.0165 4.43603C11.6247 4.82782 11.0944 5.04924 10.5407 5.05261ZM10.5111 5.89476C9.3561 5.90378 8.42259 6.84286 8.42259 7.99997C8.42259 9.16268 9.36516 10.1052 10.5279 10.1052C11.6906 10.1052 12.6331 9.16268 12.6331 7.99997C12.6331 6.84153 11.6975 5.90163 10.5407 5.89473L10.5279 5.89476L10.5111 5.89476ZM5.47521 5.05259H7.58049V0.842105H5.47521C4.91686 0.842105 4.38137 1.06391 3.98656 1.45873C3.59174 1.85354 3.36994 2.38903 3.36994 2.94738C3.36994 3.50573 3.59174 4.04122 3.98656 4.43603C4.37836 4.82784 4.90869 5.04926 5.46243 5.05261L5.47521 5.05259Z" fill="#FF00FF"/>
</svg>
