<svg width="16" height="16" viewBox="0 0 16 16" fill="none" xmlns="http://www.w3.org/2000/svg">
<g clip-path="url(#clip0_1447_3109)">
<path d="M8.00146 8.00001C8.00146 6.52725 9.19537 5.33334 10.6681 5.33334C12.1409 5.33334 13.3348 6.52725 13.3348 8.00001C13.3348 9.47277 12.1409 10.6667 10.6681 10.6667C9.19537 10.6667 8.00146 9.47277 8.00146 8.00001Z" fill="#1ABCFE"/>
<path d="M2.66797 13.3333C2.66797 11.8606 3.86188 10.6667 5.33464 10.6667H8.0013V13.3333C8.0013 14.8061 6.80739 16 5.33464 16C3.86188 16 2.66797 14.8061 2.66797 13.3333Z" fill="#0ACF83"/>
<path d="M8.00146 0V5.33333H10.6681C12.1409 5.33333 13.3348 4.13943 13.3348 2.66667C13.3348 1.19391 12.1409 0 10.6681 0L8.00146 0Z" fill="#FF7262"/>
<path d="M2.66797 2.66668C2.66797 4.13944 3.86188 5.33334 5.33464 5.33334L8.0013 5.33334V9.82285e-06L5.33464 9.82285e-06C3.86188 9.82285e-06 2.66797 1.19392 2.66797 2.66668Z" fill="#F24E1E"/>
<path d="M2.66797 7.99999C2.66797 9.47275 3.86188 10.6667 5.33464 10.6667H8.0013V5.33332L5.33464 5.33332C3.86188 5.33332 2.66797 6.52723 2.66797 7.99999Z" fill="#A259FF"/>
</g>
<defs>
<clipPath id="clip0_1447_3109">
<rect width="16" height="16" fill="white"/>
</clipPath>
</defs>
</svg>
