<svg width="16" height="16" viewBox="0 0 16 16" fill="none" xmlns="http://www.w3.org/2000/svg">
<path fill-rule="evenodd" clip-rule="evenodd" d="M5.47546 0C4.69376 0 3.94408 0.310526 3.39134 0.863267C2.8386 1.41601 2.52808 2.16569 2.52808 2.94738C2.52808 3.72907 2.8386 4.47875 3.39134 5.03149C3.56269 5.20284 3.75297 5.35091 3.95725 5.47367C3.75297 5.59643 3.56269 5.7445 3.39134 5.91585C2.8386 6.4686 2.52808 7.21827 2.52808 7.99997C2.52808 8.78166 2.8386 9.53134 3.39134 10.0841C3.56271 10.2554 3.75301 10.4035 3.95732 10.5263C3.91701 10.5505 3.87721 10.5757 3.83798 10.602C3.35328 10.9258 2.97551 11.3861 2.75243 11.9247C2.52935 12.4633 2.47098 13.0559 2.58471 13.6276C2.69844 14.1994 2.97916 14.7245 3.39136 15.1367C3.80356 15.5489 4.32874 15.8296 4.90048 15.9434C5.47221 16.0571 6.06483 15.9987 6.6034 15.7756C7.14196 15.5525 7.60227 15.1748 7.92613 14.6901C8.24999 14.2054 8.42284 13.6355 8.42284 13.0526V10.5262L8.42283 10.5251V10.0627C8.95779 10.6086 9.70339 10.9473 10.5281 10.9473C12.1559 10.9473 13.4755 9.62776 13.4755 7.99997C13.4755 6.92767 12.9029 5.98912 12.0467 5.47342C12.2509 5.35071 12.441 5.20272 12.6122 5.03149C13.165 4.47875 13.4755 3.72907 13.4755 2.94738C13.4755 2.16569 13.165 1.41601 12.6122 0.863267C12.0595 0.310526 11.3098 0 10.5281 0H5.47546ZM5.47409 10.1052C4.91623 10.1049 4.3813 9.88311 3.9868 9.48862C3.59199 9.0938 3.37018 8.55832 3.37018 7.99997C3.37018 7.44161 3.59199 6.90613 3.9868 6.51131C4.37861 6.1195 4.90896 5.89808 5.46272 5.89473L5.47547 5.89476L7.58073 5.8947V10.1052L5.47409 10.1052ZM4.30583 11.3021C4.6515 11.0712 5.05782 10.9477 5.47353 10.9473L7.58073 10.9473V13.0526C7.58074 13.469 7.45727 13.876 7.22594 14.2222C6.99461 14.5684 6.66582 14.8383 6.28113 14.9976C5.89644 15.157 5.47314 15.1987 5.06476 15.1174C4.65637 15.0362 4.28124 14.8357 3.98681 14.5413C3.69238 14.2469 3.49187 13.8717 3.41064 13.4633C3.3294 13.055 3.37109 12.6317 3.53043 12.247C3.68978 11.8623 3.95961 11.5335 4.30583 11.3021ZM10.5409 5.05261L10.5281 5.05259L10.5082 5.05265L8.42284 5.0526V0.842105H10.5281C11.0865 0.842105 11.622 1.06391 12.0168 1.45873C12.4116 1.85354 12.6334 2.38903 12.6334 2.94738C12.6334 3.50573 12.4116 4.04122 12.0168 4.43603C11.625 4.82782 11.0947 5.04924 10.5409 5.05261ZM10.5113 5.89476C9.35634 5.90378 8.42284 6.84286 8.42284 7.99997C8.42284 9.16268 9.3654 10.1052 10.5281 10.1052C11.6908 10.1052 12.6334 9.16268 12.6334 7.99997C12.6334 6.84153 11.6977 5.90163 10.5409 5.89473L10.5281 5.89476L10.5113 5.89476ZM5.47546 5.05259H7.58073V0.842105H5.47546C4.9171 0.842105 4.38162 1.06391 3.9868 1.45873C3.59199 1.85354 3.37018 2.38903 3.37018 2.94738C3.37018 3.50573 3.59199 4.04122 3.9868 4.43603C4.3786 4.82784 4.90894 5.04926 5.46268 5.05261L5.47546 5.05259Z" fill="#FF00FF"/>
</svg>
