<svg width="20" height="20" viewBox="0 0 20 20" fill="none" xmlns="http://www.w3.org/2000/svg">
<path d="M10.0017 9.99999C10.0017 8.15904 11.4941 6.66666 13.335 6.66666C15.176 6.66666 16.6684 8.15904 16.6684 9.99999C16.6684 11.8409 15.176 13.3333 13.335 13.3333C11.4941 13.3333 10.0017 11.8409 10.0017 9.99999Z" fill="#1ABCFE"/>
<path d="M3.33496 16.6667C3.33496 14.8257 4.82735 13.3333 6.66829 13.3333H10.0016V16.6667C10.0016 18.5076 8.50924 20 6.66829 20C4.82735 20 3.33496 18.5076 3.33496 16.6667Z" fill="#0ACF83"/>
<path d="M10.0017 0V6.66667H13.335C15.176 6.66667 16.6684 5.17428 16.6684 3.33333C16.6684 1.49238 15.176 0 13.335 0L10.0017 0Z" fill="#FF7262"/>
<path d="M3.33496 3.33332C3.33496 5.17427 4.82735 6.66666 6.66829 6.66666L10.0016 6.66666V-1.00136e-05L6.66829 -1.00136e-05C4.82735 -1.00136e-05 3.33496 1.49237 3.33496 3.33332Z" fill="#F24E1E"/>
<path d="M3.33496 10C3.33496 11.841 4.82735 13.3333 6.66829 13.3333H10.0016V6.66668L6.66829 6.66668C4.82735 6.66668 3.33496 8.15906 3.33496 10Z" fill="#A259FF"/>
</svg>
