<svg width="16" height="16" viewBox="0 0 16 16" fill="none" xmlns="http://www.w3.org/2000/svg">
<g clip-path="url(#clip0_1447_3109)">
<path d="M8.00146 8.00004C8.00146 6.52728 9.19537 5.33337 10.6681 5.33337C12.1409 5.33337 13.3348 6.52728 13.3348 8.00004C13.3348 9.4728 12.1409 10.6667 10.6681 10.6667C9.19537 10.6667 8.00146 9.4728 8.00146 8.00004Z" fill="#1ABCFE"/>
<path d="M2.66797 13.3333C2.66797 11.8605 3.86188 10.6666 5.33464 10.6666H8.0013V13.3333C8.0013 14.8061 6.80739 16 5.33464 16C3.86188 16 2.66797 14.8061 2.66797 13.3333Z" fill="#0ACF83"/>
<path d="M8.00146 0V5.33333H10.6681C12.1409 5.33333 13.3348 4.13943 13.3348 2.66667C13.3348 1.19391 12.1409 0 10.6681 0L8.00146 0Z" fill="#FF7262"/>
<path d="M2.66797 2.66671C2.66797 4.13947 3.86188 5.33337 5.33464 5.33337L8.0013 5.33337V4.05312e-05L5.33464 4.05312e-05C3.86188 4.05312e-05 2.66797 1.19395 2.66797 2.66671Z" fill="#F24E1E"/>
<path d="M2.66797 7.99996C2.66797 9.47272 3.86188 10.6666 5.33464 10.6666H8.0013V5.33329L5.33464 5.33329C3.86188 5.33329 2.66797 6.5272 2.66797 7.99996Z" fill="#A259FF"/>
</g>
<defs>
<clipPath id="clip0_1447_3109">
<rect width="16" height="16" fill="white"/>
</clipPath>
</defs>
</svg>
