<svg width="16" height="16" viewBox="0 0 16 16" fill="none" xmlns="http://www.w3.org/2000/svg">
<path fill-rule="evenodd" clip-rule="evenodd" d="M1.5 3.25C1.08579 3.25 0.75 3.58579 0.75 4C0.75 4.41421 1.08579 4.75 1.5 4.75H14.5C14.9142 4.75 15.25 4.41421 15.25 4C15.25 3.58579 14.9142 3.25 14.5 3.25H1.5ZM3.25 8C3.25 7.58579 3.58579 7.25 4 7.25H12C12.4142 7.25 12.75 7.58579 12.75 8C12.75 8.41421 12.4142 8.75 12 8.75H4C3.58579 8.75 3.25 8.41421 3.25 8ZM5.75 12C5.75 11.5858 6.08579 11.25 6.5 11.25H9.5C9.91421 11.25 10.25 11.5858 10.25 12C10.25 12.4142 9.91421 12.75 9.5 12.75H6.5C6.08579 12.75 5.75 12.4142 5.75 12Z" fill="#FF00FF"/>
</svg>
