<svg width="16" height="16" viewBox="0 0 16 16" fill="none" xmlns="http://www.w3.org/2000/svg">
<path opacity="0.4" fill-rule="evenodd" clip-rule="evenodd" d="M14 3.5H2C1.72386 3.5 1.5 3.72386 1.5 4V12C1.5 12.2761 1.72386 12.5 2 12.5H14C14.2761 12.5 14.5 12.2761 14.5 12V4C14.5 3.72386 14.2761 3.5 14 3.5ZM2 2C0.895431 2 0 2.89543 0 4V12C0 13.1046 0.895431 14 2 14H14C15.1046 14 16 13.1046 16 12V4C16 2.89543 15.1046 2 14 2H2Z" fill="#FF00FF"/>
<path fill-rule="evenodd" clip-rule="evenodd" d="M8.75 5.5C8.75 5.08579 9.08579 4.75 9.5 4.75H12.5C12.9142 4.75 13.25 5.08579 13.25 5.5V8.5C13.25 8.91421 12.9142 9.25 12.5 9.25C12.0858 9.25 11.75 8.91421 11.75 8.5V7.31066L9.03033 10.0303C8.73744 10.3232 8.26256 10.3232 7.96967 10.0303C7.67678 9.73744 7.67678 9.26256 7.96967 8.96967L10.6893 6.25H9.5C9.08579 6.25 8.75 5.91421 8.75 5.5Z" fill="#FF00FF"/>
</svg>
