<svg width="20" height="20" viewBox="0 0 20 20" fill="none" xmlns="http://www.w3.org/2000/svg">
<g clip-path="url(#clip0)">
<path d="M14.8974 0.350698H12.7932V0.96442V1.57814L12.4425 1.31512C11.7412 0.526047 10.6891 0 9.54929 0C9.37394 0 9.19859 0 9.19859 0C9.11092 0 8.93557 0 8.76022 0C3.85045 0.263023 1.13254 6.31256 4.0258 10.6086C6.04231 13.5895 10.2507 14.2033 12.5302 11.9237L12.7932 11.6607V12.2744C12.7932 13.1512 12.7056 13.5895 12.4425 14.2033C11.5658 16.3075 8.84789 16.8335 6.48068 15.343C6.30533 15.2554 6.12999 15.1677 6.12999 15.1677C6.04231 15.2554 4.46417 18.2363 4.46417 18.324C4.46417 18.4116 4.90254 18.6747 5.16557 18.85C7.0944 20.0775 10.0753 20.3405 12.4425 19.5514C14.8098 18.7623 16.3879 16.7458 16.8263 13.9402C17.0016 12.9758 17.0016 13.2388 17.0016 6.57559V0.350698H14.8974ZM11.3028 9.11815C9.37394 10.1702 7.00673 8.76745 7.00673 6.57559C7.00673 4.73442 8.93557 3.33163 10.6891 3.85768C13.1439 4.55907 13.5823 7.80303 11.3028 9.11815Z" fill="#FF00FF"/>
</g>
<defs>
<clipPath id="clip0">
<rect width="20" height="20" fill="white"/>
</clipPath>
</defs>
</svg>
