<svg width="16" height="16" viewBox="0 0 16 16" fill="none" xmlns="http://www.w3.org/2000/svg">
<g clip-path="url(#clip0_1447_2921)">
<path d="M11.9178 0.280558H10.2345V0.771536V1.26251L9.95394 1.05209C9.39282 0.420838 8.55115 0 7.63933 0C7.49905 0 7.35878 0 7.35878 0C7.28864 0 7.14836 0 7.00808 0C3.08026 0.210419 0.905934 5.05005 3.22054 8.48689C4.83375 10.8716 8.20045 11.3626 10.0241 9.53899L10.2345 9.32857V9.81954C10.2345 10.5209 10.1644 10.8716 9.95394 11.3626C9.25254 13.046 7.07822 13.4668 5.18445 12.2744C5.04417 12.2043 4.90389 12.1342 4.90389 12.1342C4.83375 12.2043 3.57124 14.589 3.57124 14.6592C3.57124 14.7293 3.92194 14.9397 4.13235 15.08C5.67543 16.062 8.06017 16.2724 9.95394 15.6411C11.8477 15.0099 13.1102 13.3967 13.4609 11.1522C13.6012 10.3807 13.6012 10.5911 13.6012 5.26047V0.280558H11.9178ZM9.04212 7.29452C7.49905 8.13619 5.60529 7.01396 5.60529 5.26047C5.60529 3.78754 7.14836 2.66531 8.55115 3.08614C10.5151 3.64726 10.8658 6.24242 9.04212 7.29452Z" fill="#21CF7A"/>
</g>
<defs>
<clipPath id="clip0_1447_2921">
<rect width="16" height="16" fill="white"/>
</clipPath>
</defs>
</svg>
