<svg width="16" height="16" viewBox="0 0 16 16" fill="none" xmlns="http://www.w3.org/2000/svg">
<path d="M7.99369 0L13.221 3.03106L11.0893 4.26335L8.01853 2.4646L3.21364 5.2422L3.21204 5.24339L3.22858 5.25717L3.24349 10.7429L3.21367 10.7628L7.84482 13.4801L7.84465 13.4758L7.97881 13.5603L12.7679 10.7868L12.5603 10.6335L12.5752 10.6236V10.6137L12.7839 10.7627L12.7839 7.90871L11.2136 8.81984V9.84841L8.0186 11.7316L7.97885 11.7565V8.08446L4.72909 6.15155L4.77878 6.10186L7.97878 4.29815L11.0247 6.0174L14.7365 3.88076L14.9154 4.01492L14.9353 4.06954L14.9353 11.9851L8.01864 15.9751L7.97881 15.9751L7.9391 15.9752L1.07202 12V4.01494L1.10179 3.98511L7.99369 0Z" fill="#FF00FF"/>
<path d="M7.97885 8.08446V11.7565L4.72909 9.87827V6.15155L7.97885 8.08446Z" fill="#FF00FF"/>
</svg>
