<svg width="20" height="20" viewBox="0 0 20 20" fill="none" xmlns="http://www.w3.org/2000/svg">
<path fill-rule="evenodd" clip-rule="evenodd" d="M9.99217 0L16.5263 3.78882L13.8617 5.32919L10.0232 3.08075L4.01711 6.55274L4.01512 6.55424L4.03578 6.57146L4.05442 13.4286L4.01715 13.4534L4.01711 13.4534V13.4535L9.80608 16.8501L9.80588 16.8447L9.97358 16.9503V16.9644L9.97367 16.9503L15.96 13.4835L15.7004 13.2919L15.719 13.2795V13.2671L15.9799 13.4534L15.9799 9.88588L14.0171 11.0248V12.3105L10.0233 14.6645V14.6646L9.97362 14.6956V10.1056V10.1054L9.97354 10.1056L5.91143 7.68943L5.97354 7.62732L5.97356 7.62733L9.97353 5.37269L13.781 7.52176L18.4207 4.85095L18.6443 5.01865L10.0233 9.99996V10H10.0234L18.6444 5.01868L18.6692 5.08691V5.087V14.9813L10.0234 19.9689L10.0234 19.9689H9.97358V19.969H9.92394H9.92389L1.34009 15V5.01868L1.44913 5.08243L1.34009 5.01859L1.37729 4.98139L1.37726 4.98137L1.37735 4.98132L9.99217 0ZM9.97354 10.1056L9.97354 14.6957L5.91143 12.3478V7.68945L9.97354 10.1056Z" fill="#FF00FF"/>
</svg>
