<svg width="20" height="20" viewBox="0 0 20 20" fill="none" xmlns="http://www.w3.org/2000/svg">
<path d="M14.2165 3.5C12.7817 3.5 12.298 4.5365 9.99925 4.5365C7.7425 4.5365 7.18975 3.5 5.782 3.5C1.87525 3.5 1 11.2812 1 14.261C1 15.8698 1.61275 17 2.85175 17C5.44525 17 5.04625 13.25 8.038 13.25H11.9605C14.9523 13.25 14.5532 17 17.1467 17C18.3857 17 19 15.8705 19 14.2618C19 11.282 18.1232 3.5 14.2165 3.5ZM6.25 11C5.00725 11 4 9.99275 4 8.75C4 7.50725 5.00725 6.5 6.25 6.5C7.49275 6.5 8.5 7.50725 8.5 8.75C8.5 9.99275 7.49275 11 6.25 11ZM13.75 6.5C14.164 6.5 14.5 6.83525 14.5 7.25C14.5 7.66475 14.164 8 13.75 8C13.336 8 13 7.66475 13 7.25C13 6.83525 13.336 6.5 13.75 6.5ZM12.25 9.5C11.836 9.5 11.5 9.16475 11.5 8.75C11.5 8.33525 11.836 8 12.25 8C12.664 8 13 8.33525 13 8.75C13 9.16475 12.664 9.5 12.25 9.5ZM13.75 11C13.336 11 13 10.6648 13 10.25C13 9.83525 13.336 9.5 13.75 9.5C14.164 9.5 14.5 9.83525 14.5 10.25C14.5 10.6648 14.164 11 13.75 11ZM15.25 9.5C14.836 9.5 14.5 9.16475 14.5 8.75C14.5 8.33525 14.836 8 15.25 8C15.664 8 16 8.33525 16 8.75C16 9.16475 15.664 9.5 15.25 9.5ZM7.5625 8.75C7.5625 9.47375 6.97375 10.0625 6.25 10.0625C5.52625 10.0625 4.9375 9.47375 4.9375 8.75C4.9375 8.02625 5.52625 7.4375 6.25 7.4375C6.97375 7.4375 7.5625 8.02625 7.5625 8.75Z" fill="#FF00FF"/>
</svg>
