<svg width="16" height="16" viewBox="0 0 16 16" fill="none" xmlns="http://www.w3.org/2000/svg">
<path d="M12.5749 8.02978V10.6236L7.9786 13.277L3.41711 10.6236L3.21338 10.7627L7.9786 13.5602L12.7836 10.7776V7.91052L12.5749 8.02978Z" fill="url(#paint0_linear_1447_2953)"/>
<path d="M12.575 10.6136L12.7837 10.7627V10.7776L12.7688 10.7876L12.5601 10.6335L12.575 10.6236V10.6136Z" fill="#7A7EAE"/>
<path d="M8.01844 7.99995L4.77869 6.10181L4.729 6.1515L7.97869 8.08443L8.01844 7.99995Z" fill="#663399"/>
<path d="M8.00856 8H8.0334V8.02483H7.99365L8.00856 8Z" fill="#663399"/>
<path d="M8.01855 8.08447V8L14.9154 4.01489L14.9353 4.06955L8.01855 8.08447Z" fill="#120F22"/>
<path d="M8.01853 15.9752L8.06325 13.5951L12.8483 10.8373L12.8682 7.88574H12.7837V10.7777L7.97877 13.5603L7.96387 15.9752H8.01853Z" fill="url(#paint1_linear_1447_2953)"/>
<path d="M8.01855 11.7317V8.08449L14.9353 4.06958V11.9851L8.01855 15.9752V13.5752L12.8235 10.8124V7.88573L11.2136 8.81989V9.84846L8.01855 11.7317Z" fill="url(#paint2_linear_1447_2953)"/>
<path d="M7.93865 15.9752H7.9784V13.5603L7.84424 13.4758L7.93865 15.9752Z" fill="url(#paint3_linear_1447_2953)"/>
<path d="M3.19833 5.2323L3.22814 5.25714L3.24305 10.7429L3.21324 10.7627L3.19336 10.7528L3.19833 5.2323Z" fill="#2D2868"/>
<path d="M3.41711 10.6236L3.21338 10.7627V5.24224L8.01835 2.4646V2.73789L3.42207 5.40125L3.41711 10.6236Z" fill="#453D76"/>
<path d="M8.01827 7.98504V11.7316L7.97852 11.7565V8.08441V7.9751L8.01827 7.98504Z" fill="#453D76"/>
<path d="M4.729 6.15161V9.87832L7.97869 11.7566V8.08453L4.729 6.15161Z" fill="url(#paint4_linear_1447_2953)"/>
<path d="M7.93886 15.9354V13.5354L3.21339 10.7627V5.26707L1.07178 4.01489V12L7.93886 15.9751V15.9354Z" fill="url(#paint5_linear_1447_2953)"/>
<path d="M3.20861 5.24219H3.17383V10.7627H3.20861V5.24219Z" fill="#2D2868"/>
<path d="M3.21339 5.24224L1.10159 3.98511L1.07178 4.01492L3.19352 5.25715L3.21339 5.24224Z" fill="#2D2868"/>
<path d="M7.93904 13.5354V13.5801L3.17383 10.8024V10.7627H3.21358L7.93904 13.5354Z" fill="url(#paint6_linear_1447_2953)"/>
<path d="M8.01855 2.4646L11.0893 4.26336V4.53168L8.01855 2.73789V2.4646Z" fill="url(#paint7_linear_1447_2953)"/>
<path d="M11.0889 4.2633V4.53163L13.2205 3.28442V3.03101L11.0889 4.2633Z" fill="#484592"/>
<path d="M7.99349 0L13.2208 3.03106L11.0891 4.26335L8.01833 2.4646L3.21336 5.24224L1.10156 3.98509L7.99349 0Z" fill="url(#paint8_linear_1447_2953)"/>
<path d="M4.77832 6.10185L7.97832 4.29813L11.0243 6.01738L14.7361 3.88074L14.915 4.0149L8.01807 7.99999L4.77832 6.10185Z" fill="url(#paint9_linear_1447_2953)"/>
<defs>
<linearGradient id="paint0_linear_1447_2953" x1="4.21212" y1="11.7598" x2="14.5427" y2="10.0413" gradientUnits="userSpaceOnUse">
<stop offset="0.0368" stop-color="white"/>
<stop offset="0.8957" stop-color="#898CBF"/>
</linearGradient>
<linearGradient id="paint1_linear_1447_2953" x1="7.96169" y1="11.9304" x2="12.8685" y2="11.9304" gradientUnits="userSpaceOnUse">
<stop stop-color="#140F2D"/>
<stop offset="1" stop-color="#3B3C75"/>
</linearGradient>
<linearGradient id="paint2_linear_1447_2953" x1="9.31389" y1="8.60345" x2="15.0553" y2="12.3725" gradientUnits="userSpaceOnUse">
<stop stop-color="#4C5284"/>
<stop offset="1" stop-color="#8789BC"/>
</linearGradient>
<linearGradient id="paint3_linear_1447_2953" x1="7.94768" y1="15.8916" x2="7.90768" y2="13.332" gradientUnits="userSpaceOnUse">
<stop offset="0.1104" stop-color="#4C407E"/>
<stop offset="0.8896" stop-color="#666699"/>
<stop offset="1" stop-color="#9BA5CD"/>
</linearGradient>
<linearGradient id="paint4_linear_1447_2953" x1="1.69303" y1="10.2502" x2="9.56333" y2="8.06292" gradientUnits="userSpaceOnUse">
<stop offset="0.2331" stop-color="#666699"/>
<stop offset="0.7239" stop-color="#A7B3D9"/>
</linearGradient>
<linearGradient id="paint5_linear_1447_2953" x1="1.82891" y1="10.7388" x2="9.69896" y2="8.5516" gradientUnits="userSpaceOnUse">
<stop offset="0.2331" stop-color="#666699"/>
<stop offset="0.9907" stop-color="#A7B3D9"/>
</linearGradient>
<linearGradient id="paint6_linear_1447_2953" x1="3.59124" y1="11.1095" x2="6.72076" y2="12.7842" gradientUnits="userSpaceOnUse">
<stop stop-color="#6E70A9"/>
<stop offset="0.9693" stop-color="#514A8E"/>
</linearGradient>
<linearGradient id="paint7_linear_1447_2953" x1="8.24008" y1="2.85863" x2="10.2271" y2="3.82527" gradientUnits="userSpaceOnUse">
<stop offset="0.0368" stop-color="#9EA5D3"/>
<stop offset="0.9018" stop-color="#7675AE"/>
</linearGradient>
<linearGradient id="paint8_linear_1447_2953" x1="7.42348" y1="0.58166" x2="6.9548" y2="5.78921" gradientUnits="userSpaceOnUse">
<stop stop-color="#AAACD2"/>
<stop offset="0.6258" stop-color="#FCFAFB"/>
</linearGradient>
<linearGradient id="paint9_linear_1447_2953" x1="10.303" y1="-0.0205344" x2="9.83427" y2="5.18718" gradientUnits="userSpaceOnUse">
<stop offset="0.6743" stop-color="#AAACD2"/>
<stop offset="1" stop-color="#FCFAFB"/>
</linearGradient>
</defs>
</svg>
