<svg width="16" height="16" viewBox="0 0 16 16" fill="none" xmlns="http://www.w3.org/2000/svg">
<path d="M7.99344 0L13.2208 3.03106L11.0891 4.26335L8.01829 2.4646L3.21339 5.2422L3.2118 5.24339L3.22833 5.25717L3.24324 10.7429L3.21343 10.7628L7.84457 13.4801L7.84441 13.4758L7.97857 13.5603L12.7677 10.7868L12.56 10.6335L12.5749 10.6236V10.6137L12.7836 10.7627L12.7836 7.90871L11.2134 8.81984V9.84841L8.01836 11.7316L7.9786 11.7565V8.08446L4.72885 6.15155L4.77854 6.10186L7.97853 4.29815L11.0245 6.0174L14.7363 3.88076L14.9152 4.01492L14.9351 4.06954L14.9351 11.9851L8.01839 15.9751L7.97857 15.9751L7.93886 15.9752L1.07178 12V4.01494L1.10154 3.98511L7.99344 0Z" fill="#FF00FF"/>
<path d="M7.9786 8.08446V11.7565L4.72885 9.87827V6.15155L7.9786 8.08446Z" fill="#FF00FF"/>
</svg>
