<svg width="20" height="20" viewBox="0 0 20 20" fill="none" xmlns="http://www.w3.org/2000/svg">
<path d="M15.719 10.0373V13.2795L9.97361 16.5962L4.27175 13.2795L4.01709 13.4534L9.97361 16.9503L15.9798 13.472V9.88818L15.719 10.0373Z" fill="url(#paint0_linear)"/>
<path d="M15.7191 13.2671L15.9799 13.4534V13.4721L15.9613 13.4845L15.7004 13.2919L15.7191 13.2795V13.2671Z" fill="#7A7EAE"/>
<path d="M10.0232 10L5.97349 7.62732L5.91138 7.68943L9.97349 10.1056L10.0232 10Z" fill="#663399"/>
<path d="M10.0108 10H10.0419V10.031H9.99219L10.0108 10Z" fill="#663399"/>
<path d="M10.0232 10.1056V10.0001L18.6443 5.01868L18.6692 5.087L10.0232 10.1056Z" fill="#120F22"/>
<path d="M10.0234 19.9689L10.0793 16.9938L16.0607 13.5466L16.0855 9.85712H15.9799V13.472L9.97371 16.9503L9.95508 19.9689H10.0234Z" fill="url(#paint1_linear)"/>
<path d="M10.0232 14.6646V10.1055L18.6692 5.08691V14.9813L10.0232 19.9689V16.9689L16.0294 13.5155V9.8571L14.017 11.0248V12.3105L10.0232 14.6646Z" fill="url(#paint2_linear)"/>
<path d="M9.92392 19.969H9.97361V16.9503L9.80591 16.8447L9.92392 19.969Z" fill="url(#paint3_linear)"/>
<path d="M3.9984 6.54041L4.03567 6.57146L4.0543 13.4286L4.01703 13.4534L3.99219 13.441L3.9984 6.54041Z" fill="#2D2868"/>
<path d="M4.27175 13.2795L4.01709 13.4534V6.5528L10.0233 3.08075V3.42236L4.27796 6.75156L4.27175 13.2795Z" fill="#453D76"/>
<path d="M10.0233 9.98136V14.6646L9.97363 14.6956V10.1056V9.96893L10.0233 9.98136Z" fill="#453D76"/>
<path d="M5.91138 7.68945V12.3478L9.97349 14.6957V10.1056L5.91138 7.68945Z" fill="url(#paint4_linear)"/>
<path d="M9.92394 19.9193V16.9193L4.01711 13.4535V6.58389L1.34009 5.01868V15L9.92394 19.969V19.9193Z" fill="url(#paint5_linear)"/>
<path d="M4.01076 6.5528H3.96729V13.4534H4.01076V6.5528Z" fill="#2D2868"/>
<path d="M4.01711 6.55275L1.37735 4.98132L1.34009 5.01859L3.99226 6.57138L4.01711 6.55275Z" fill="#2D2868"/>
<path d="M9.92381 16.9193V16.9752L3.96729 13.5031V13.4534H4.01697L9.92381 16.9193Z" fill="url(#paint6_linear)"/>
<path d="M10.0232 3.08075L13.8617 5.3292V5.6646L10.0232 3.42236V3.08075Z" fill="url(#paint7_linear)"/>
<path d="M13.8618 5.32919V5.66459L16.5264 4.10559V3.78882L13.8618 5.32919Z" fill="#484592"/>
<path d="M9.9921 0L16.5263 3.78882L13.8617 5.32919L10.0232 3.08075L4.01695 6.5528L1.3772 4.98137L9.9921 0Z" fill="url(#paint8_linear)"/>
<path d="M5.97363 7.62735L9.97363 5.37269L13.7811 7.52176L18.4208 4.85095L18.6444 5.01865L10.0233 10L5.97363 7.62735Z" fill="url(#paint9_linear)"/>
<defs>
<linearGradient id="paint0_linear" x1="5.26552" y1="14.6998" x2="18.1788" y2="12.5517" gradientUnits="userSpaceOnUse">
<stop offset="0.0368" stop-color="white"/>
<stop offset="0.8957" stop-color="#898CBF"/>
</linearGradient>
<linearGradient id="paint1_linear" x1="9.95236" y1="14.9129" x2="16.0858" y2="14.9129" gradientUnits="userSpaceOnUse">
<stop stop-color="#140F2D"/>
<stop offset="1" stop-color="#3B3C75"/>
</linearGradient>
<linearGradient id="paint2_linear" x1="11.6424" y1="10.7542" x2="18.8191" y2="15.4655" gradientUnits="userSpaceOnUse">
<stop stop-color="#4C5284"/>
<stop offset="1" stop-color="#8789BC"/>
</linearGradient>
<linearGradient id="paint3_linear" x1="9.93521" y1="19.8645" x2="9.88521" y2="16.665" gradientUnits="userSpaceOnUse">
<stop offset="0.1104" stop-color="#4C407E"/>
<stop offset="0.8896" stop-color="#666699"/>
<stop offset="1" stop-color="#9BA5CD"/>
</linearGradient>
<linearGradient id="paint4_linear" x1="2.11641" y1="12.8127" x2="11.9543" y2="10.0786" gradientUnits="userSpaceOnUse">
<stop offset="0.2331" stop-color="#666699"/>
<stop offset="0.7239" stop-color="#A7B3D9"/>
</linearGradient>
<linearGradient id="paint5_linear" x1="2.2865" y1="13.4236" x2="12.1241" y2="10.6896" gradientUnits="userSpaceOnUse">
<stop offset="0.2331" stop-color="#666699"/>
<stop offset="0.9907" stop-color="#A7B3D9"/>
</linearGradient>
<linearGradient id="paint6_linear" x1="4.48906" y1="13.887" x2="8.40095" y2="15.9802" gradientUnits="userSpaceOnUse">
<stop stop-color="#6E70A9"/>
<stop offset="0.9693" stop-color="#514A8E"/>
</linearGradient>
<linearGradient id="paint7_linear" x1="10.3001" y1="3.57328" x2="12.7838" y2="4.78159" gradientUnits="userSpaceOnUse">
<stop offset="0.0368" stop-color="#9EA5D3"/>
<stop offset="0.9018" stop-color="#7675AE"/>
</linearGradient>
<linearGradient id="paint8_linear" x1="9.27959" y1="0.727075" x2="8.69374" y2="7.23652" gradientUnits="userSpaceOnUse">
<stop stop-color="#AAACD2"/>
<stop offset="0.6258" stop-color="#FCFAFB"/>
</linearGradient>
<linearGradient id="paint9_linear" x1="12.8794" y1="-0.0256376" x2="12.2936" y2="6.484" gradientUnits="userSpaceOnUse">
<stop offset="0.6743" stop-color="#AAACD2"/>
<stop offset="1" stop-color="#FCFAFB"/>
</linearGradient>
</defs>
</svg>
