<svg width="16" height="16" viewBox="0 0 16 16" fill="none" xmlns="http://www.w3.org/2000/svg">
<path d="M11.3732 2.79999C10.2254 2.79999 9.83845 3.62919 7.99945 3.62919C6.19405 3.62919 5.75185 2.79999 4.62565 2.79999C1.50025 2.79999 0.800049 9.02499 0.800049 11.4088C0.800049 12.6958 1.29025 13.6 2.28145 13.6C4.35625 13.6 4.03705 10.6 6.43045 10.6H9.56845C11.9618 10.6 11.6426 13.6 13.7174 13.6C14.7086 13.6 15.2 12.6964 15.2 11.4094C15.2 9.02559 14.4986 2.79999 11.3732 2.79999ZM5.00005 8.79999C4.00585 8.79999 3.20005 7.99419 3.20005 6.99999C3.20005 6.00579 4.00585 5.19999 5.00005 5.19999C5.99425 5.19999 6.80005 6.00579 6.80005 6.99999C6.80005 7.99419 5.99425 8.79999 5.00005 8.79999ZM11 5.19999C11.3312 5.19999 11.6 5.46819 11.6 5.79999C11.6 6.13179 11.3312 6.39999 11 6.39999C10.6688 6.39999 10.4 6.13179 10.4 5.79999C10.4 5.46819 10.6688 5.19999 11 5.19999ZM9.80005 7.59999C9.46885 7.59999 9.20005 7.33179 9.20005 6.99999C9.20005 6.66819 9.46885 6.39999 9.80005 6.39999C10.1312 6.39999 10.4 6.66819 10.4 6.99999C10.4 7.33179 10.1312 7.59999 9.80005 7.59999ZM11 8.79999C10.6688 8.79999 10.4 8.53179 10.4 8.19999C10.4 7.86819 10.6688 7.59999 11 7.59999C11.3312 7.59999 11.6 7.86819 11.6 8.19999C11.6 8.53179 11.3312 8.79999 11 8.79999ZM12.2 7.59999C11.8688 7.59999 11.6 7.33179 11.6 6.99999C11.6 6.66819 11.8688 6.39999 12.2 6.39999C12.5312 6.39999 12.8 6.66819 12.8 6.99999C12.8 7.33179 12.5312 7.59999 12.2 7.59999ZM6.05005 6.99999C6.05005 7.57899 5.57905 8.04999 5.00005 8.04999C4.42105 8.04999 3.95005 7.57899 3.95005 6.99999C3.95005 6.42099 4.42105 5.94999 5.00005 5.94999C5.57905 5.94999 6.05005 6.42099 6.05005 6.99999Z" fill="#FF00FF"/>
</svg>
