<svg width="20" height="20" viewBox="0 0 20 20" fill="none" xmlns="http://www.w3.org/2000/svg">
<path fill-rule="evenodd" clip-rule="evenodd" d="M19.6226 9.10931L10.8905 0.377258C10.3879 -0.125753 9.57236 -0.125753 9.06893 0.377258L7.25586 2.19079L9.55582 4.49102C10.0904 4.31036 10.7035 4.4316 11.1295 4.85756C11.558 5.28634 11.678 5.9045 11.493 6.44103L13.7098 8.65789C14.2463 8.47288 14.8649 8.59237 15.2934 9.02159C15.892 9.61994 15.892 10.59 15.2934 11.1888C14.6944 11.7878 13.7246 11.7878 13.1254 11.1888C12.675 10.7383 12.5638 10.0766 12.7919 9.52199L10.7242 7.45445V12.8951C10.87 12.9673 11.0078 13.0637 11.1295 13.185C11.728 13.7835 11.728 14.7534 11.1295 15.3529C10.5309 15.9512 9.56039 15.9512 8.96227 15.3529C8.36372 14.7534 8.36372 13.7835 8.96227 13.185C9.11006 13.0372 9.28158 12.9253 9.46419 12.8504V7.35933C9.28158 7.28467 9.1105 7.17367 8.96227 7.02501C8.5089 6.57184 8.39985 5.90624 8.63231 5.34947L6.36478 3.08146L0.377087 9.06883C-0.125696 9.57227 -0.125696 10.3878 0.377087 10.8909L9.10963 19.6229C9.61241 20.1257 10.4277 20.1257 10.9314 19.6229L19.6226 10.9313C20.1258 10.4283 20.1258 9.6121 19.6226 9.10931Z" fill="#DE4C36"/>
</svg>
