<svg width="16" height="16" viewBox="0 0 16 16" fill="none" xmlns="http://www.w3.org/2000/svg">
<g clip-path="url(#clip0_1447_3005)">
<path fill-rule="evenodd" clip-rule="evenodd" d="M15.6981 7.28745L8.71239 0.301806C8.31033 -0.100602 7.65789 -0.100602 7.25514 0.301806L5.80469 1.75264L7.64466 3.59281C8.07231 3.44829 8.56281 3.54528 8.90357 3.88604C9.24642 4.22908 9.34237 4.7236 9.19436 5.15282L10.9678 6.92631C11.397 6.7783 11.8919 6.8739 12.2347 7.21728C12.7136 7.69595 12.7136 8.47204 12.2347 8.95106C11.7556 9.43026 10.9797 9.43026 10.5003 8.95106C10.14 8.59062 10.0511 8.06127 10.2335 7.61759L8.57935 5.96356V10.316C8.69602 10.3739 8.80624 10.451 8.90357 10.548C9.38241 11.0268 9.38241 11.8027 8.90357 12.2823C8.42473 12.761 7.64831 12.761 7.16982 12.2823C6.69098 11.8027 6.69098 11.0268 7.16982 10.548C7.28805 10.4298 7.42526 10.3403 7.57135 10.2804V5.88747C7.42526 5.82774 7.2884 5.73893 7.16982 5.62001C6.80712 5.25747 6.71988 4.72499 6.90585 4.27957L5.09182 2.46516L0.30167 7.25506C-0.100557 7.65782 -0.100557 8.31027 0.30167 8.71268L7.2877 15.6983C7.68993 16.1006 8.3422 16.1006 8.74512 15.6983L15.6981 8.74507C16.1006 8.34266 16.1006 7.68968 15.6981 7.28745Z" fill="#DE4C36"/>
</g>
<defs>
<clipPath id="clip0_1447_3005">
<rect width="16" height="16" fill="white"/>
</clipPath>
</defs>
</svg>
