<svg width="16" height="16" viewBox="0 0 16 16" fill="none" xmlns="http://www.w3.org/2000/svg">
<g clip-path="url(#clip0_1447_1835)">
<path d="M7.99926 0C3.58218 0 0 3.58169 0 8.00025C0 11.5348 2.29203 14.533 5.47101 15.5909C5.87127 15.6646 6.01713 15.4175 6.01713 15.2054C6.01713 15.0158 6.01025 14.5124 6.00632 13.845C3.78109 14.3282 3.31158 12.7724 3.31158 12.7724C2.94767 11.8481 2.42316 11.6021 2.42316 11.6021C1.6968 11.1061 2.47816 11.1159 2.47816 11.1159C3.28113 11.1724 3.70349 11.9405 3.70349 11.9405C4.41708 13.1628 5.57611 12.8097 6.03186 12.6049C6.10455 12.0883 6.31131 11.7357 6.53967 11.5358C4.76331 11.3339 2.89561 10.6474 2.89561 7.58182C2.89561 6.70862 3.20746 5.99405 3.71921 5.43516C3.6367 5.23282 3.36217 4.41904 3.79778 3.31797C3.79778 3.31797 4.46914 3.10286 5.99748 4.13813C6.63544 3.96034 7.32005 3.87194 8.00025 3.8685C8.67995 3.87194 9.36407 3.96034 10.003 4.13813C11.5304 3.10286 12.2007 3.31797 12.2007 3.31797C12.6373 4.41904 12.3628 5.23282 12.2808 5.43516C12.7935 5.99405 13.1029 6.70862 13.1029 7.58182C13.1029 10.6552 11.2323 11.3315 9.45051 11.5294C9.73732 11.7764 9.99319 12.2646 9.99319 13.0111C9.99319 14.0802 9.98336 14.9431 9.98336 15.2054C9.98336 15.4195 10.1278 15.6685 10.5334 15.5904C13.7099 14.5301 16 11.5338 16 8.00025C16 3.58169 12.4178 0 7.99926 0Z" fill="#FF00FF"/>
</g>
<defs>
<clipPath id="clip0_1447_1835">
<rect width="16" height="16" fill="white"/>
</clipPath>
</defs>
</svg>
