<svg width="16" height="16" viewBox="0 0 16 16" fill="none" xmlns="http://www.w3.org/2000/svg">
<g clip-path="url(#clip0_1447_2991)">
<path fill-rule="evenodd" clip-rule="evenodd" d="M8.00009 15.539L10.9462 6.4718H5.0542L8.00017 15.539H8.00009Z" fill="#E24329"/>
<path fill-rule="evenodd" clip-rule="evenodd" d="M7.99987 15.5391L5.05376 6.47192H0.924805L7.99996 15.539L7.99987 15.5391Z" fill="#FC6D26"/>
<path fill-rule="evenodd" clip-rule="evenodd" d="M0.925231 6.47184L0.0298735 9.22723C-0.0517353 9.47859 0.0376706 9.75396 0.251525 9.90921L8.00025 15.539L0.925231 6.4718V6.47184Z" fill="#FCA326"/>
<path fill-rule="evenodd" clip-rule="evenodd" d="M0.924848 6.47188H5.0538L3.27929 1.0108C3.18802 0.7298 2.7905 0.7298 2.69928 1.0108L0.924805 6.47188H0.924848Z" fill="#E24329"/>
<path fill-rule="evenodd" clip-rule="evenodd" d="M7.99951 15.5391L10.9456 6.47192H15.0746L7.9996 15.539L7.99951 15.5391Z" fill="#FC6D26"/>
<path fill-rule="evenodd" clip-rule="evenodd" d="M15.0745 6.47184L15.9699 9.22723C16.0515 9.47859 15.9621 9.75396 15.7482 9.90921L7.99951 15.539L15.0745 6.4718V6.47184Z" fill="#FCA326"/>
<path fill-rule="evenodd" clip-rule="evenodd" d="M15.0752 6.47188H10.9463L12.7208 1.0108C12.8121 0.7298 13.2096 0.7298 13.3009 1.0108L15.0753 6.47188H15.0752Z" fill="#E24329"/>
</g>
<defs>
<clipPath id="clip0_1447_2991">
<rect width="16" height="16" fill="white"/>
</clipPath>
</defs>
</svg>
