<svg width="16" height="16" viewBox="0 0 16 16" fill="none" xmlns="http://www.w3.org/2000/svg">
<g clip-path="url(#clip0_1447_1724)">
<path d="M15.9527 9.08777L15.1008 6.46393C15.1012 6.46511 15.1013 6.46633 15.1017 6.46751C15.1013 6.46615 15.101 6.46478 15.1006 6.46341C15.1006 6.46331 15.1006 6.46327 15.1006 6.46317C15.1006 6.46312 15.1006 6.46308 15.1006 6.46308L13.4093 1.25617C13.3168 0.98186 13.0622 0.797757 12.7704 0.80007C12.4777 0.801581 12.2301 0.982096 12.1396 1.26019L10.5342 6.20255H5.46876L3.86041 1.2599C3.76996 0.982096 3.52236 0.801581 3.22969 0.80007C3.22851 0.80007 3.22738 0.80007 3.22615 0.80007C2.93796 0.80007 2.6829 0.98304 2.58939 1.26042L0.902768 6.46265L0.902532 6.46331C0.902532 6.46336 0.902532 6.46341 0.902532 6.46346C0.902107 6.46478 0.901918 6.4661 0.901493 6.46742C0.901871 6.46624 0.902013 6.46501 0.90239 6.46383L0.0473027 9.08787C-0.0813333 9.48397 0.0582542 9.91449 0.394738 10.1592L7.77793 15.5236C7.77901 15.5244 7.78024 15.5249 7.78133 15.5257C7.78449 15.528 7.78756 15.5303 7.79077 15.5324C7.78775 15.5304 7.78491 15.5282 7.78194 15.5261C7.78194 15.5261 7.78194 15.526 7.78189 15.526C7.78236 15.5264 7.78293 15.5267 7.78345 15.527C7.78388 15.5273 7.7843 15.5275 7.78473 15.5277C7.78477 15.5278 7.78482 15.5278 7.78492 15.5279C7.79634 15.5358 7.80819 15.5431 7.82046 15.5497C7.82216 15.5507 7.82367 15.5519 7.82537 15.5528C7.82542 15.5528 7.82542 15.5528 7.82546 15.5528C7.8265 15.5533 7.82745 15.554 7.82849 15.5545C7.82929 15.5549 7.83014 15.5551 7.83089 15.5555C7.83146 15.5558 7.83207 15.556 7.83264 15.5562C7.83401 15.5569 7.83552 15.5573 7.83689 15.558C7.84331 15.5611 7.85006 15.5636 7.85667 15.5663C7.86285 15.5688 7.86885 15.5718 7.87517 15.574C7.87546 15.5741 7.87569 15.5742 7.87597 15.5743C7.87701 15.5747 7.87796 15.5752 7.87904 15.5756C7.88036 15.5761 7.88164 15.5766 7.88296 15.577C7.88348 15.5772 7.884 15.5773 7.88452 15.5774C7.88617 15.5779 7.88797 15.5782 7.88962 15.5786C7.89023 15.5788 7.89094 15.5789 7.8916 15.5791C7.90047 15.5818 7.90968 15.5837 7.91884 15.5858C7.92242 15.5866 7.92587 15.5877 7.92951 15.5884C7.93003 15.5884 7.9305 15.5886 7.93106 15.5887C7.93224 15.589 7.93333 15.5894 7.93456 15.5896C7.93649 15.5899 7.93838 15.5905 7.94036 15.5908C7.94192 15.591 7.94353 15.591 7.94508 15.5912C7.94537 15.5912 7.9456 15.5912 7.94589 15.5912C7.94598 15.5912 7.94603 15.5912 7.94612 15.5912C7.96354 15.5937 7.9812 15.5955 7.99918 15.5955C7.99928 15.5955 7.99937 15.5955 7.99951 15.5955C7.99956 15.5955 7.99961 15.5955 7.99961 15.5955H7.99965C7.9997 15.5955 7.99975 15.5955 7.9998 15.5955C8.01783 15.5955 8.03548 15.5937 8.05295 15.5912C8.053 15.5912 8.05309 15.5912 8.05314 15.5912C8.05342 15.5912 8.05371 15.5912 8.05399 15.5912C8.05555 15.591 8.0572 15.591 8.05876 15.5908C8.06074 15.5905 8.06263 15.5899 8.06461 15.5896C8.06579 15.5894 8.06688 15.589 8.06806 15.5887C8.06857 15.5886 8.06905 15.5884 8.06957 15.5884C8.07325 15.5876 8.07679 15.5865 8.08047 15.5857C8.08949 15.5837 8.09855 15.5818 8.10738 15.5791C8.10799 15.579 8.10861 15.5789 8.10922 15.5787C8.11097 15.5782 8.11276 15.578 8.11451 15.5774C8.11503 15.5773 8.11559 15.5772 8.11611 15.5771C8.11748 15.5766 8.1188 15.5761 8.12012 15.5756C8.12116 15.5752 8.12211 15.5747 8.12314 15.5743C8.12343 15.5742 8.12366 15.5741 8.12395 15.574C8.13065 15.5716 8.13698 15.5685 8.14354 15.5658C8.14963 15.5633 8.15586 15.561 8.16181 15.5582C8.16327 15.5575 8.16483 15.5571 8.16624 15.5563C8.16681 15.5561 8.16747 15.5559 8.16804 15.5556C8.16884 15.5552 8.16969 15.555 8.17049 15.5546C8.17158 15.554 8.17262 15.5533 8.17366 15.5528C8.17366 15.5528 8.1737 15.5528 8.1737 15.5528C8.17545 15.5519 8.17701 15.5506 8.17875 15.5496C8.19093 15.543 8.20273 15.5358 8.21411 15.5279C8.21501 15.5273 8.21605 15.5268 8.21699 15.5262C8.21723 15.526 8.21751 15.5259 8.21774 15.5257C8.21883 15.5249 8.22011 15.5244 8.22119 15.5236L15.6054 10.159C15.9418 9.91439 16.0813 9.48392 15.9527 9.08777ZM12.775 1.744L14.2232 6.20255H11.3269L12.775 1.744ZM13.9696 6.95647L13.3787 7.71361L9.02025 13.298L11.0819 6.95643H13.9696V6.95647ZM7.64103 15.3351C7.64103 15.3351 7.64103 15.3351 7.64103 15.3351C7.64141 15.3363 7.64202 15.3373 7.6424 15.3385C7.64202 15.3373 7.64141 15.3363 7.64103 15.3351ZM6.97982 13.2984L2.03321 6.95647H4.92108L6.97982 13.2984ZM3.22511 1.74395L4.67593 6.20255H1.77957L3.22511 1.74395ZM0.838001 9.5493C0.766437 9.49724 0.736792 9.40533 0.764219 9.32097L1.39985 7.37033L6.05732 13.3415L0.838001 9.5493ZM7.76495 15.5137C7.76348 15.5125 7.76207 15.5112 7.76065 15.51C7.76037 15.5098 7.76008 15.5094 7.75975 15.5092C7.75692 15.5068 7.75414 15.5044 7.7514 15.502C7.74602 15.4973 7.74073 15.4925 7.73568 15.4875C7.7361 15.4879 7.73658 15.4882 7.737 15.4886C7.73757 15.4891 7.73818 15.4896 7.73875 15.4901C7.74956 15.5004 7.76093 15.5101 7.77283 15.5191C7.77297 15.5192 7.77307 15.5193 7.77321 15.5194C7.77377 15.5199 7.77425 15.5204 7.77481 15.5208C7.77151 15.5185 7.76811 15.5162 7.76495 15.5137ZM7.99975 13.9986L6.7883 10.2668L5.71366 6.95647H10.2891L7.99975 13.9986ZM8.24767 15.5019C8.24484 15.5044 8.2421 15.5068 8.23922 15.5092C8.23889 15.5095 8.23856 15.5098 8.23823 15.5101C8.23677 15.5113 8.2354 15.5125 8.23398 15.5137C8.23087 15.5162 8.22747 15.5185 8.22421 15.5209C8.22478 15.5205 8.22525 15.5199 8.22587 15.5195C8.22596 15.5194 8.22605 15.5193 8.22615 15.5192C8.23804 15.5103 8.24937 15.5006 8.26009 15.4903C8.26051 15.4899 8.26103 15.4896 8.26146 15.4892C8.26202 15.4887 8.26264 15.4882 8.26316 15.4877C8.25815 15.4926 8.25296 15.4973 8.24767 15.5019ZM15.1622 9.54921L9.94359 13.3404L14.6026 7.3708L15.2357 9.32059C15.2631 9.40533 15.2336 9.49728 15.1622 9.54921Z" fill="#FF00FF"/>
</g>
<defs>
<clipPath id="clip0_1447_1724">
<rect width="16" height="16" fill="white"/>
</clipPath>
</defs>
</svg>
