<svg width="16" height="16" viewBox="0 0 16 16" fill="none" xmlns="http://www.w3.org/2000/svg">
<path fill-rule="evenodd" clip-rule="evenodd" d="M13.7045 2.2857C13.7045 1.02334 12.6811 0 11.4187 0H4.56162C3.29922 0 2.27588 1.02334 2.27588 2.2857V11.6718C2.27588 11.7178 2.31317 11.7551 2.35913 11.7551H4.47832C4.52432 11.7551 4.56162 11.7178 4.56162 11.6718V2.2857H13.7045ZM2.27588 13.7143H11.4187V4.32813C11.4187 4.28217 11.456 4.24488 11.502 4.24488H13.6212C13.6672 4.24488 13.7045 4.28217 13.7045 4.32813V13.7143C13.7045 14.9766 12.6811 16 11.4187 16H4.56162C3.29922 16 2.27588 14.9766 2.27588 13.7143Z" fill="#FF00FF"/>
</svg>
