<svg width="20" height="20" viewBox="0 0 20 20" fill="none" xmlns="http://www.w3.org/2000/svg">
<rect width="20" height="20" fill="#11AA4B"/>
<path fill-rule="evenodd" clip-rule="evenodd" d="M13.4229 15.7143H4.28003C4.28003 16.9766 5.30337 18 6.56577 18H13.4229C14.6853 18 15.7086 16.9766 15.7086 15.7143V6.32815C15.7086 6.28219 15.6713 6.2449 15.6253 6.2449H13.5062C13.4602 6.2449 13.4229 6.28219 13.4229 6.32815V15.7143ZM13.4229 2C14.6853 2 15.7086 3.02334 15.7086 4.2857H6.56577V13.6718C6.56577 13.7178 6.52847 13.7551 6.48247 13.7551H4.36328C4.31732 13.7551 4.28003 13.7178 4.28003 13.6718V4.2857C4.28003 3.02334 5.30337 2 6.56577 2H13.4229Z" fill="white"/>
</svg>
