<svg width="20" height="20" viewBox="0 0 20 20" fill="none" xmlns="http://www.w3.org/2000/svg">
<path fill-rule="evenodd" clip-rule="evenodd" d="M14.2736 17.1428H2.84497C2.84497 18.7208 4.12415 20 5.70214 20H14.2736C15.8515 20 17.1307 18.7208 17.1307 17.1428V5.41016C17.1307 5.35271 17.0841 5.3061 17.0266 5.3061H14.3776C14.3202 5.3061 14.2736 5.35271 14.2736 5.41016V17.1428ZM14.2736 0C15.8515 0 17.1307 1.27918 17.1307 2.85712H5.70214V14.5898C5.70214 14.6472 5.65553 14.6939 5.59802 14.6939H2.94904C2.89159 14.6939 2.84497 14.6472 2.84497 14.5898V2.85712C2.84497 1.27918 4.12415 0 5.70214 0H14.2736Z" fill="#11AA4B"/>
</svg>
