<svg width="20" height="20" viewBox="0 0 20 20" fill="none" xmlns="http://www.w3.org/2000/svg">
<path fill-rule="evenodd" clip-rule="evenodd" d="M20 0H0V20H20V0ZM3.57007 16.4285H13.8558V5.86914C13.8558 5.81744 13.8978 5.77548 13.9495 5.77548H16.3335C16.3853 5.77548 16.4273 5.81744 16.4273 5.86914V16.4285C16.4273 17.8487 15.2759 19 13.8558 19H6.14152C4.72133 19 3.57007 17.8487 3.57007 16.4285ZM16.4273 3.57141C16.4273 2.15126 15.2759 1 13.8558 1H6.14152C4.72133 1 3.57007 2.15126 3.57007 3.57141V14.1308C3.57007 14.1825 3.61202 14.2245 3.66373 14.2245H6.04782C6.09957 14.2245 6.14152 14.1825 6.14152 14.1308V3.57141H16.4273Z" fill="#FF00FF"/>
</svg>
