<svg width="20" height="20" viewBox="0 0 20 20" fill="none" xmlns="http://www.w3.org/2000/svg">
<path fill-rule="evenodd" clip-rule="evenodd" d="M17.1307 2.85712C17.1307 1.27918 15.8515 0 14.2736 0H5.70214C4.12415 0 2.84497 1.27918 2.84497 2.85712V14.5898C2.84497 14.6472 2.89159 14.6939 2.94904 14.6939H5.59802C5.65553 14.6939 5.70214 14.6472 5.70214 14.5898V2.85712H17.1307ZM2.84497 17.1428H14.2736V5.41016C14.2736 5.35271 14.3202 5.3061 14.3776 5.3061H17.0266C17.0841 5.3061 17.1307 5.35271 17.1307 5.41016V17.1428C17.1307 18.7208 15.8515 20 14.2736 20H5.70214C4.12415 20 2.84497 18.7208 2.84497 17.1428Z" fill="#FF00FF"/>
</svg>
