<svg width="20" height="20" viewBox="0 0 20 20" fill="none" xmlns="http://www.w3.org/2000/svg">
<path opacity="0.6" d="M1.36364 17.5039H4.54545V9.77661L0 6.36752V16.1403C0 16.8948 0.611364 17.5039 1.36364 17.5039Z" fill="#FF00FF"/>
<path opacity="0.6" d="M15.4546 17.5039H18.6364C19.391 17.5039 20 16.8925 20 16.1403V6.36752L15.4546 9.77661" fill="#FF00FF"/>
<path d="M15.4546 3.8675V9.7766L20 6.3675V4.54932C20 2.86296 18.075 1.9016 16.7273 2.91296" fill="#FF00FF"/>
<path opacity="0.6" d="M4.54541 9.77661V3.86752L9.99996 7.95843L15.4545 3.86752V9.77661L9.99996 13.8675" fill="#FF00FF"/>
<path d="M0 4.54932V6.3675L4.54545 9.7766V3.8675L3.27273 2.91296C1.92273 1.9016 0 2.86296 0 4.54932Z" fill="#FF00FF"/>
</svg>
