<svg width="20" height="20" viewBox="0 0 20 20" fill="none" xmlns="http://www.w3.org/2000/svg">
<path fill-rule="evenodd" clip-rule="evenodd" d="M16.556 0C12.3953 0 11.6149 5.92609 13.9555 5.92609C16.2957 5.92609 20.7168 0 16.556 0ZM9.64743 5.19178C10.8937 5.26789 12.261 0.43582 9.9187 0.739727C7.57725 1.04363 8.40069 5.11568 9.64743 5.19178ZM3.93601 8.19432C4.82236 7.80416 4.05017 3.98799 2.54298 5.02875C1.03647 6.06968 3.04966 8.5843 3.93601 8.19432ZM6.43342 6.19685C7.48855 5.98173 7.54639 1.65365 5.66477 2.43007C3.78282 3.20666 5.37913 6.41231 6.43342 6.19685ZM9.68361 17.0966C10.8942 18.0183 12.1303 17.3122 11.943 15.8825C11.7868 14.6897 16.1353 13.9674 15.7947 15.77C15.3488 18.1339 12.965 20 10.8984 20C6.69748 20 2.67144 15.1148 3.45835 11.5936C4.62087 6.38745 14.8297 5.3631 15.3897 8.69034C15.7116 10.6032 13.5493 11.9365 11.6192 13.1267C9.50473 14.4306 7.6689 15.5626 9.68361 17.0966Z" fill="#FF00FF"/>
</svg>
