<svg width="20" height="20" viewBox="0 0 20 20" fill="none" xmlns="http://www.w3.org/2000/svg">
<g clip-path="url(#clip0)">
<path d="M18.7764 13.351C18.7764 13.351 18.7472 13.1721 18.7302 13.1737L15.4842 13.4869C15.226 13.5118 15.0254 13.7178 15.0072 13.9766L14.9181 15.2547L12.4069 15.4339L12.2361 14.2755C12.1981 14.0179 11.9731 13.8237 11.7126 13.8237H8.28669C8.02635 13.8237 7.80135 14.0179 7.76331 14.2755L7.59241 15.4339L5.08124 15.2547L4.99206 13.9766C4.97394 13.7177 4.77335 13.5117 4.51507 13.4868L1.26752 13.1737C1.25075 13.1721 1.23846 13.3511 1.22168 13.3511L1.21729 14.0536L3.96767 14.4971L4.05775 15.7867C4.07596 16.0477 4.2866 16.2588 4.54784 16.2776L8.00629 16.5243C8.01938 16.5252 8.0323 16.5257 8.04522 16.5257C8.30512 16.5257 8.52975 16.3314 8.56779 16.0737L8.74353 14.8818H11.2559L11.4316 16.0737C11.4696 16.3313 11.6945 16.5256 11.9547 16.5256C11.9675 16.5256 11.9802 16.5251 11.9927 16.5243L15.4516 16.2776C15.7128 16.2588 15.9235 16.0477 15.9417 15.7867L16.0317 14.4971L18.7809 14.0516L18.7764 13.351Z" fill="white"/>
<path d="M7.96586 0.500018C7.05225 0.703127 6.14845 0.98583 5.30111 1.41232C5.32049 2.1605 5.36886 2.87738 5.46691 3.60557C5.13785 3.81639 4.79202 3.99734 4.48465 4.24411C4.17236 4.48435 3.85337 4.71428 3.57062 4.99526C3.00571 4.62161 2.40788 4.27046 1.79194 3.96047C1.128 4.67504 0.507132 5.44629 0 6.30928C0.381542 6.92652 0.779882 7.50504 1.20998 8.05405H1.22194V13.3508C1.23163 13.3508 1.24139 13.3513 1.25099 13.3522L4.49818 13.6652C4.66827 13.6816 4.80156 13.8185 4.81339 13.989L4.91355 15.4224L7.74605 15.6246L7.94113 14.3016C7.96642 14.13 8.11363 14.003 8.28713 14.003H11.713C11.8864 14.003 12.0336 14.13 12.0589 14.3016L12.254 15.6246L15.0866 15.4224L15.1866 13.989C15.1986 13.8185 15.3318 13.6817 15.5019 13.6652L18.7477 13.3522C18.7573 13.3513 18.767 13.3509 18.7767 13.3508V12.9281L18.7781 12.9276V8.05403H18.79C19.2202 7.505 19.6183 6.92644 20 6.30926C19.493 5.44621 18.8719 4.67496 18.2079 3.96045C17.5922 4.27041 16.994 4.62154 16.4291 4.99524C16.1465 4.71426 15.8281 4.48434 15.5154 4.24409C15.2081 3.99729 14.8618 3.81635 14.5333 3.60555C14.6311 2.87736 14.6795 2.16048 14.699 1.4123C13.8516 0.985811 12.9479 0.703091 12.0338 0.5C11.6688 1.11338 11.3351 1.7775 11.0445 2.42686C10.6998 2.36927 10.3535 2.34792 10.0068 2.34379V2.34332C10.0044 2.34332 10.0021 2.34379 10.0001 2.34379C9.99792 2.34379 9.99561 2.34332 9.99345 2.34332V2.34379C9.64608 2.34791 9.30006 2.36927 8.95533 2.42686C8.66485 1.77756 8.33137 1.11338 7.96587 0.5L7.96586 0.500018ZM1.2164 14.0513C1.21774 14.3651 1.22174 14.7089 1.22174 14.7773C1.22174 17.8611 5.13365 19.3432 9.99378 19.3603H10.0057C14.8659 19.3433 18.7766 17.8611 18.7766 14.7773C18.7766 14.7076 18.7809 14.3653 18.7823 14.0513L15.8636 14.3328L15.763 15.7739C15.7509 15.9476 15.6127 16.0858 15.439 16.0983L11.9801 16.3451C11.9717 16.3457 11.9633 16.346 11.9549 16.346C11.783 16.346 11.6348 16.2198 11.6094 16.0472L11.4111 14.7021H8.58879L8.39046 16.0472C8.36381 16.2282 8.202 16.3584 8.01971 16.3451L4.5608 16.0983C4.38712 16.0858 4.24899 15.9476 4.23687 15.7739L4.13637 14.3328L1.21648 14.0513L1.2164 14.0513Z" fill="#478CBF"/>
<path d="M5.39728 8.24829C4.31699 8.24829 3.44067 9.12371 3.44067 10.2042C3.44067 11.2854 4.31693 12.1612 5.39728 12.1612C6.47811 12.1612 7.35419 11.2854 7.35419 10.2042C7.35419 9.12371 6.47811 8.24829 5.39728 8.24829ZM14.6036 8.24829C13.5226 8.24829 12.6466 9.12371 12.6466 10.2042C12.6466 11.2854 13.5226 12.1612 14.6036 12.1612C15.6838 12.1612 16.56 11.2854 16.56 10.2042C16.56 9.12371 15.6838 8.24829 14.6036 8.24829ZM10 9.39283C9.65211 9.39283 9.37016 9.6495 9.37016 9.96528V11.7667C9.37016 12.0828 9.65211 12.3392 10 12.3392C10.3479 12.3392 10.6306 12.0828 10.6306 11.7667V9.96528C10.6306 9.6495 10.3479 9.39283 10 9.39283Z" fill="white"/>
<path d="M5.58376 9.02161C4.8664 9.02161 4.28491 9.60342 4.28491 10.3206C4.28491 11.0377 4.86643 11.619 5.58376 11.619C6.30148 11.619 6.88274 11.0377 6.88274 10.3206C6.88274 9.60343 6.30146 9.02161 5.58376 9.02161ZM14.4153 9.02161C13.6981 9.02161 13.117 9.60342 13.117 10.3206C13.117 11.0377 13.6982 11.619 14.4153 11.619C15.1332 11.619 15.7141 11.0377 15.7141 10.3206C15.7141 9.60343 15.1332 9.02161 14.4153 9.02161Z" fill="#414042"/>
</g>
<defs>
<clipPath id="clip0">
<rect width="20" height="20" fill="white"/>
</clipPath>
</defs>
</svg>
