<svg width="16" height="16" viewBox="0 0 16 16" fill="none" xmlns="http://www.w3.org/2000/svg">
<g clip-path="url(#clip0_1447_1766)">
<path d="M3.42786 8.25636C3.42786 7.68264 3.89305 7.21719 4.46694 7.21719C5.04109 7.21719 5.50612 7.68265 5.50612 8.25636C5.50612 8.83008 5.04111 9.29507 4.46694 9.29507C3.89307 9.29507 3.42786 8.83009 3.42786 8.25636Z" fill="#FF00FF"/>
<path d="M10.4936 8.25636C10.4936 7.68264 10.9584 7.21719 11.5322 7.21719C12.1065 7.21719 12.5712 7.68265 12.5712 8.25636C12.5712 8.83008 12.1065 9.29507 11.5322 9.29507C10.9585 9.29507 10.4936 8.83009 10.4936 8.25636Z" fill="#FF00FF"/>
<path fill-rule="evenodd" clip-rule="evenodd" d="M6.37269 0.399917C5.6418 0.562404 4.91876 0.788566 4.24089 1.12976C4.25639 1.7283 4.29508 2.30181 4.37353 2.88436C4.29193 2.93663 4.20904 2.98662 4.12619 3.03658C3.94173 3.14781 3.7574 3.25897 3.58772 3.39519C3.54675 3.42671 3.50563 3.45801 3.46452 3.4893C3.25497 3.64882 3.0456 3.80819 2.8565 3.99611C2.40457 3.69719 1.9263 3.41627 1.43356 3.16828C0.902403 3.73993 0.405705 4.35694 0 5.04733C0.305233 5.54112 0.623906 6.00393 0.967982 6.44314H0.977556V10.6805C0.9838 10.677 0.99014 10.6434 0.995625 10.6098C1.00146 10.574 1.00729 10.5382 1.01403 10.5389L3.61207 10.7893C3.81869 10.8093 3.97917 10.9741 3.99366 11.1812L4.065 12.2037L6.07394 12.347L6.21066 11.4203C6.24109 11.2142 6.42109 11.0588 6.62937 11.0588H9.37011C9.57846 11.0588 9.75845 11.2142 9.78888 11.4203L9.92553 12.347L11.9345 12.2037L12.0058 11.1812C12.0203 10.9741 12.1808 10.8094 12.3874 10.7894L14.9842 10.5389C14.9975 10.5376 15.0202 10.6751 15.0211 10.6805L15.0213 10.3424L15.0224 10.342V6.44313H15.032C15.3762 6.0039 15.6946 5.54106 16 5.04731C15.5944 4.35687 15.0975 3.73987 14.5663 3.16826C14.0737 3.41623 13.5952 3.69713 13.1433 3.99609C12.9528 3.80674 12.7421 3.64638 12.5308 3.48564C12.4913 3.45556 12.4517 3.42547 12.4123 3.39517C12.2433 3.25944 12.0595 3.14861 11.8758 3.0378C11.7923 2.98742 11.7088 2.93705 11.6267 2.88434C11.7049 2.30179 11.7436 1.72828 11.7592 1.12974C11.0813 0.788551 10.3583 0.562375 9.62703 0.399902C9.33508 0.890604 9.06809 1.4219 8.83556 1.94139C8.55982 1.89532 8.2828 1.87824 8.00545 1.87493L8.00254 1.87476L8.00006 1.87493L7.99476 1.87456C7.71687 1.87786 7.44005 1.89532 7.16427 1.94139C6.93188 1.42195 6.66508 0.890618 6.37269 0.399917ZM2.75246 8.16325C2.75246 7.29887 3.45351 6.59854 4.31775 6.59854C5.18241 6.59854 5.88327 7.29887 5.88327 8.16325C5.88327 9.0282 5.18241 9.72887 4.31775 9.72887C3.45346 9.72887 2.75246 9.0282 2.75246 8.16325ZM10.1172 8.16325C10.1172 7.29887 10.818 6.59854 11.6828 6.59854C12.547 6.59854 13.2479 7.29887 13.2479 8.16325C13.2479 9.0282 12.547 9.72887 11.6828 9.72887C10.818 9.72887 10.1172 9.0282 10.1172 8.16325ZM7.49605 7.97213C7.49605 7.7195 7.72161 7.51417 7.99993 7.51417C8.27827 7.51417 8.50439 7.7195 8.50439 7.97213V9.4133C8.50439 9.66614 8.27826 9.87126 7.99993 9.87126C7.72161 9.87126 7.49605 9.66614 7.49605 9.4133V7.97213Z" fill="#FF00FF"/>
<path d="M0.973184 11.2409L0.97384 11.2428L3.17415 11.5976L3.24621 12.6292C3.26078 12.8381 3.42929 13.0069 3.63828 13.0219L6.40504 13.2193C6.41552 13.22 6.42585 13.2205 6.43619 13.2205C6.64411 13.2205 6.82381 13.065 6.85425 12.8589L6.99484 11.9054H9.00473L9.14532 12.8589C9.17568 13.0649 9.35561 13.2204 9.56381 13.2204C9.574 13.2204 9.58419 13.22 9.59417 13.2193L12.3613 13.0219C12.5702 13.0069 12.7388 12.8381 12.7534 12.6292L12.8254 11.5976L15.0247 11.2412L15.0258 11.2409C15.0251 11.3927 15.0236 11.5528 15.0225 11.668C15.0218 11.7435 15.0213 11.7997 15.0213 11.8218C15.0213 14.2887 11.8928 15.4745 8.0046 15.4882H7.99502C4.10692 15.4745 0.977393 14.2887 0.977393 11.8218C0.977393 11.8002 0.976897 11.7445 0.97623 11.6695C0.975203 11.5541 0.973838 11.3931 0.973184 11.2409Z" fill="#FF00FF"/>
</g>
<defs>
<clipPath id="clip0_1447_1766">
<rect width="16" height="16" fill="white"/>
</clipPath>
</defs>
</svg>
