<svg width="16" height="16" viewBox="0 0 16 16" fill="none" xmlns="http://www.w3.org/2000/svg">
<g clip-path="url(#clip0_1447_2933)">
<path d="M15.0212 10.6807C15.0212 10.6807 14.9978 10.5376 14.9842 10.5389L12.3874 10.7894C12.1808 10.8094 12.0203 10.9741 12.0058 11.1812L11.9345 12.2037L9.92557 12.347L9.78892 11.4203C9.75849 11.2142 9.5785 11.0588 9.37015 11.0588H6.6294C6.42113 11.0588 6.24113 11.2142 6.2107 11.4203L6.07398 12.347L4.06504 12.2037L3.9937 11.1812C3.9792 10.9741 3.81873 10.8093 3.6121 10.7893L1.01407 10.5389C1.00065 10.5376 0.990813 10.6808 0.977392 10.6808L0.973877 11.2428L3.17419 11.5976L3.24625 12.6292C3.26081 12.8381 3.42933 13.0069 3.63832 13.0219L6.40508 13.2193C6.41556 13.22 6.42589 13.2205 6.43623 13.2205C6.64414 13.2205 6.82385 13.065 6.85428 12.8589L6.99488 11.9054H9.00476L9.14536 12.8589C9.17572 13.0649 9.35564 13.2204 9.56384 13.2204C9.57404 13.2204 9.58423 13.22 9.5942 13.2193L12.3613 13.0219C12.5703 13.0069 12.7388 12.8381 12.7534 12.6292L12.8254 11.5976L15.0248 11.2412L15.0212 10.6807Z" fill="white"/>
<path d="M6.37269 0.399917C5.6418 0.562404 4.91876 0.788566 4.24089 1.12976C4.25639 1.7283 4.29508 2.30181 4.37353 2.88436C4.11028 3.05302 3.83362 3.19777 3.58772 3.39519C3.33789 3.58739 3.08269 3.77133 2.8565 3.99611C2.40457 3.69719 1.9263 3.41627 1.43356 3.16828C0.902403 3.73993 0.405705 4.35694 0 5.04733C0.305233 5.54112 0.623906 6.00393 0.967982 6.44314H0.977556V10.6805C0.985307 10.6806 0.993114 10.6809 1.00079 10.6816L3.59855 10.932C3.73462 10.9452 3.84124 11.0547 3.85072 11.1911L3.93084 12.3378L6.19684 12.4995L6.3529 11.4411C6.37314 11.3039 6.4909 11.2023 6.6297 11.2023H9.37042C9.50915 11.2023 9.62689 11.3039 9.64712 11.4411L9.80319 12.4995L12.0693 12.3378L12.1493 11.1911C12.1589 11.0547 12.2654 10.9452 12.4015 10.932L14.9982 10.6816C15.0059 10.6809 15.0136 10.6806 15.0213 10.6805V10.3424L15.0224 10.342V6.44313H15.032C15.3762 6.0039 15.6946 5.54106 16 5.04731C15.5944 4.35687 15.0975 3.73987 14.5663 3.16826C14.0737 3.41623 13.5952 3.69713 13.1433 3.99609C12.9172 3.77131 12.6625 3.58738 12.4123 3.39517C12.1665 3.19774 11.8894 3.05298 11.6267 2.88434C11.7049 2.30179 11.7436 1.72828 11.7592 1.12974C11.0813 0.788551 10.3583 0.562375 9.62703 0.399902C9.33508 0.890604 9.06809 1.4219 8.83556 1.94139C8.55982 1.89532 8.2828 1.87824 8.00545 1.87493V1.87456C8.00351 1.87456 8.00171 1.87493 8.00006 1.87493C7.99834 1.87493 7.99648 1.87456 7.99476 1.87456V1.87493C7.71687 1.87823 7.44005 1.89532 7.16427 1.94139C6.93188 1.42195 6.66509 0.890604 6.3727 0.399902L6.37269 0.399917ZM0.973117 11.2409C0.974196 11.492 0.977393 11.767 0.977393 11.8218C0.977393 14.2887 4.10692 15.4745 7.99502 15.4882H8.0046C11.8928 15.4745 15.0213 14.2887 15.0213 11.8218C15.0213 11.766 15.0247 11.4921 15.0258 11.2409L12.6909 11.4662L12.6104 12.619C12.6007 12.758 12.4902 12.8686 12.3512 12.8785L9.58411 13.076C9.57737 13.0765 9.57062 13.0767 9.56394 13.0767C9.42643 13.0767 9.30782 12.9757 9.28751 12.8376L9.12885 11.7616H6.87103L6.71237 12.8376C6.69105 12.9825 6.5616 13.0867 6.41577 13.076L3.64864 12.8785C3.5097 12.8686 3.39919 12.758 3.3895 12.619L3.30909 11.4662L0.973184 11.2409L0.973117 11.2409Z" fill="#478CBF"/>
<path d="M4.31773 6.59863C3.45349 6.59863 2.75244 7.29897 2.75244 8.16335C2.75244 9.0283 3.45344 9.72896 4.31773 9.72896C5.18239 9.72896 5.88325 9.0283 5.88325 8.16335C5.88325 7.29897 5.18239 6.59863 4.31773 6.59863ZM11.6828 6.59863C10.818 6.59863 10.1172 7.29897 10.1172 8.16335C10.1172 9.0283 10.818 9.72896 11.6828 9.72896C12.547 9.72896 13.2479 9.0283 13.2479 8.16335C13.2479 7.29897 12.547 6.59863 11.6828 6.59863ZM7.99991 7.51427C7.72159 7.51427 7.49603 7.7196 7.49603 7.97222V9.41339C7.49603 9.66624 7.72159 9.87135 7.99991 9.87135C8.27824 9.87135 8.50437 9.66624 8.50437 9.41339V7.97222C8.50437 7.7196 8.27825 7.51427 7.99991 7.51427Z" fill="white"/>
<path d="M4.46682 7.21729C3.89293 7.21729 3.42773 7.68274 3.42773 8.25646C3.42773 8.83019 3.89295 9.29516 4.46682 9.29516C5.04099 9.29516 5.50599 8.83018 5.50599 8.25646C5.50599 7.68274 5.04097 7.21729 4.46682 7.21729ZM11.532 7.21729C10.9583 7.21729 10.4934 7.68274 10.4934 8.25646C10.4934 8.83019 10.9583 9.29516 11.532 9.29516C12.1064 9.29516 12.5711 8.83018 12.5711 8.25646C12.5711 7.68274 12.1063 7.21729 11.532 7.21729Z" fill="#414042"/>
</g>
<defs>
<clipPath id="clip0_1447_2933">
<rect width="16" height="16" fill="white"/>
</clipPath>
</defs>
</svg>
