<svg width="16" height="16" viewBox="0 0 16 16" fill="none" xmlns="http://www.w3.org/2000/svg">
<g clip-path="url(#clip0_1447_2933)">
<path d="M15.0212 10.6808C15.0212 10.6808 14.9978 10.5377 14.9842 10.539L12.3874 10.7895C12.1808 10.8095 12.0203 10.9743 12.0058 11.1813L11.9345 12.2038L9.92557 12.3471L9.78892 11.4205C9.75849 11.2143 9.5785 11.059 9.37015 11.059H6.6294C6.42113 11.059 6.24113 11.2143 6.2107 11.4205L6.07398 12.3471L4.06504 12.2038L3.9937 11.1813C3.9792 10.9742 3.81873 10.8094 3.6121 10.7895L1.01407 10.539C1.00065 10.5377 0.990813 10.6809 0.977392 10.6809L0.973877 11.2429L3.17419 11.5977L3.24625 12.6293C3.26081 12.8382 3.42933 13.0071 3.63832 13.0221L6.40508 13.2194C6.41556 13.2201 6.42589 13.2206 6.43623 13.2206C6.64414 13.2206 6.82385 13.0651 6.85428 12.859L6.99488 11.9055H9.00476L9.14536 12.859C9.17572 13.0651 9.35564 13.2205 9.56385 13.2205C9.57404 13.2205 9.58423 13.2201 9.5942 13.2194L12.3613 13.0221C12.5703 13.0071 12.7388 12.8382 12.7534 12.6293L12.8254 11.5977L15.0248 11.2413L15.0212 10.6808Z" fill="white"/>
<path d="M6.37269 0.400039C5.6418 0.562526 4.91876 0.788688 4.24089 1.12988C4.25639 1.72842 4.29509 2.30193 4.37353 2.88448C4.11028 3.05314 3.83362 3.19789 3.58772 3.39531C3.33789 3.58751 3.08269 3.77145 2.8565 3.99623C2.40457 3.69731 1.9263 3.41639 1.43356 3.1684C0.902403 3.74005 0.405705 4.35706 0 5.04745C0.305233 5.54124 0.623906 6.00406 0.967982 6.44326H0.977556V10.6806C0.985307 10.6807 0.993114 10.6811 1.00079 10.6818L3.59855 10.9322C3.73462 10.9453 3.84124 11.0548 3.85072 11.1912L3.93084 12.3379L6.19684 12.4997L6.3529 11.4413C6.37314 11.304 6.4909 11.2024 6.6297 11.2024H9.37042C9.50915 11.2024 9.62689 11.304 9.64712 11.4413L9.80319 12.4997L12.0693 12.3379L12.1493 11.1912C12.1589 11.0548 12.2654 10.9454 12.4015 10.9322L14.9982 10.6818C15.0059 10.681 15.0136 10.6807 15.0213 10.6806V10.3425L15.0224 10.3421V6.44325H15.032C15.3762 6.00402 15.6946 5.54118 16 5.04743C15.5944 4.357 15.0975 3.73999 14.5663 3.16839C14.0737 3.41635 13.5952 3.69726 13.1433 3.99622C12.9172 3.77143 12.6625 3.5875 12.4123 3.3953C12.1665 3.19786 11.8894 3.0531 11.6267 2.88446C11.7049 2.30191 11.7436 1.72841 11.7592 1.12987C11.0813 0.788673 10.3583 0.562497 9.62703 0.400024C9.33508 0.890726 9.06809 1.42202 8.83556 1.94151C8.55983 1.89544 8.2828 1.87836 8.00545 1.87505V1.87468C8.00351 1.87468 8.00171 1.87505 8.00006 1.87505C7.99834 1.87505 7.99648 1.87468 7.99476 1.87468V1.87505C7.71687 1.87835 7.44005 1.89544 7.16427 1.94151C6.93188 1.42207 6.66509 0.890726 6.3727 0.400024L6.37269 0.400039ZM0.973117 11.2411C0.974196 11.4921 0.977393 11.7671 0.977393 11.8219C0.977393 14.2889 4.10692 15.4746 7.99502 15.4883H8.0046C11.8928 15.4746 15.0213 14.2889 15.0213 11.8219C15.0213 11.7661 15.0247 11.4922 15.0258 11.2411L12.6909 11.4663L12.6104 12.6191C12.6007 12.7581 12.4902 12.8687 12.3512 12.8787L9.58411 13.0761C9.57737 13.0766 9.57062 13.0768 9.56394 13.0768C9.42643 13.0768 9.30782 12.9758 9.28751 12.8378L9.12885 11.7617H6.87103L6.71237 12.8378C6.69105 12.9826 6.5616 13.0868 6.41577 13.0761L3.64864 12.8787C3.5097 12.8687 3.39919 12.7581 3.3895 12.6191L3.30909 11.4663L0.973184 11.2411L0.973117 11.2411Z" fill="#478CBF"/>
<path d="M4.31773 6.59863C3.45349 6.59863 2.75244 7.29897 2.75244 8.16335C2.75244 9.0283 3.45344 9.72896 4.31773 9.72896C5.18239 9.72896 5.88325 9.0283 5.88325 8.16335C5.88325 7.29897 5.18239 6.59863 4.31773 6.59863V6.59863ZM11.6828 6.59863C10.818 6.59863 10.1172 7.29897 10.1172 8.16335C10.1172 9.0283 10.818 9.72896 11.6828 9.72896C12.547 9.72896 13.2479 9.0283 13.2479 8.16335C13.2479 7.29897 12.547 6.59863 11.6828 6.59863ZM7.99991 7.51427C7.72159 7.51427 7.49603 7.7196 7.49603 7.97222V9.41339C7.49603 9.66624 7.72159 9.87135 7.99991 9.87135C8.27824 9.87135 8.50437 9.66624 8.50437 9.41339V7.97222C8.50437 7.7196 8.27825 7.51427 7.99991 7.51427Z" fill="white"/>
<path d="M4.46682 7.21729C3.89293 7.21729 3.42773 7.68274 3.42773 8.25646C3.42773 8.83019 3.89295 9.29516 4.46682 9.29516C5.04099 9.29516 5.50599 8.83018 5.50599 8.25646C5.50599 7.68274 5.04097 7.21729 4.46682 7.21729ZM11.532 7.21729C10.9583 7.21729 10.4934 7.68274 10.4934 8.25646C10.4934 8.83019 10.9583 9.29516 11.532 9.29516C12.1064 9.29516 12.5711 8.83018 12.5711 8.25646C12.5711 7.68274 12.1063 7.21729 11.532 7.21729V7.21729Z" fill="#414042"/>
</g>
<defs>
<clipPath id="clip0_1447_2933">
<rect width="16" height="16" fill="white"/>
</clipPath>
</defs>
</svg>
