<svg width="20" height="20" viewBox="0 0 20 20" fill="none" xmlns="http://www.w3.org/2000/svg">
<path fill-rule="evenodd" clip-rule="evenodd" d="M7.96586 0.500018C7.05225 0.703127 6.14845 0.98583 5.30111 1.41232C5.32049 2.1605 5.36886 2.87738 5.46691 3.60557C5.36491 3.67092 5.2613 3.7334 5.15772 3.79585L5.15771 3.79586C4.92714 3.9349 4.69674 4.07383 4.48465 4.24411C4.43346 4.28349 4.38209 4.32259 4.33073 4.36169L4.33065 4.36175L4.33064 4.36176C4.0687 4.56115 3.80699 4.76036 3.57062 4.99526C3.00571 4.62161 2.40788 4.27046 1.79194 3.96047C1.128 4.67504 0.507132 5.44629 0 6.30928C0.381542 6.92652 0.779882 7.50504 1.20998 8.05405H1.22194V13.3508L1.22301 13.3508C1.23082 13.3464 1.23768 13.3044 1.24453 13.2623C1.25183 13.2176 1.25912 13.1729 1.26754 13.1737L4.51508 13.4868C4.77336 13.5117 4.97396 13.7177 4.99208 13.9766L5.08125 15.2547L7.59242 15.4339L7.76333 14.2755C7.80137 14.0179 8.02637 13.8237 8.28671 13.8237H11.7126C11.9731 13.8237 12.1981 14.0179 12.2361 14.2755L12.4069 15.4339L14.9181 15.2547L15.0073 13.9766C15.0254 13.7178 15.226 13.5118 15.4843 13.4869L18.7302 13.1737C18.7469 13.1721 18.7752 13.3439 18.7764 13.3508L18.7767 13.3508V12.9281L18.7781 12.9276V8.05403H18.79C19.2202 7.505 19.6183 6.92644 20 6.30926C19.493 5.44621 18.8719 4.67496 18.2079 3.96045C17.5922 4.27041 16.994 4.62154 16.4291 4.99524C16.191 4.75855 15.9276 4.55809 15.6635 4.35717L15.6633 4.35702C15.6139 4.31947 15.5646 4.28191 15.5154 4.24409C15.3041 4.07443 15.0744 3.93589 14.8448 3.79737C14.7404 3.7344 14.636 3.67143 14.5333 3.60555C14.6311 2.87736 14.6795 2.16048 14.699 1.4123C13.8516 0.985811 12.9479 0.703091 12.0338 0.5C11.6688 1.11338 11.3351 1.7775 11.0445 2.42686C10.6998 2.36927 10.3535 2.34792 10.0068 2.34379V2.34332L10.0032 2.34357L10.0001 2.34379L9.99677 2.34356L9.99345 2.34332V2.34379C9.64608 2.34791 9.30006 2.36927 8.95533 2.42686C8.66485 1.77756 8.33137 1.11338 7.96587 0.5L7.96586 0.500018ZM1.21648 14.0513L1.21731 14.0514L1.2173 14.0536L3.96769 14.4971L4.05776 15.7867C4.07597 16.0477 4.28661 16.2588 4.54785 16.2776L8.0063 16.5243C8.0194 16.5252 8.03232 16.5257 8.04524 16.5257C8.30513 16.5257 8.52977 16.3314 8.56781 16.0737L8.74355 14.8818H11.2559L11.4317 16.0737C11.4696 16.3313 11.6945 16.5256 11.9548 16.5256C11.9675 16.5256 11.9802 16.5251 11.9927 16.5243L15.4516 16.2776C15.7128 16.2588 15.9235 16.0477 15.9417 15.7867L16.0317 14.4971L18.7809 14.0516L18.7809 14.0514L18.7823 14.0513C18.7814 14.241 18.7795 14.4411 18.7782 14.5852V14.5853C18.7773 14.6795 18.7766 14.7498 18.7766 14.7773C18.7766 17.8611 14.8659 19.3433 10.0057 19.3603H9.99378C5.13365 19.3432 1.22174 17.8611 1.22174 14.7773C1.22174 14.7504 1.22112 14.6807 1.22029 14.587L1.22029 14.5869C1.219 14.4427 1.21721 14.2415 1.2164 14.0513L1.21648 14.0513ZM3.44057 10.2042C3.44057 9.12371 4.31689 8.24829 5.39718 8.24829C6.47801 8.24829 7.35409 9.12371 7.35409 10.2042C7.35409 11.2854 6.47801 12.1612 5.39718 12.1612C4.31683 12.1612 3.44057 11.2854 3.44057 10.2042ZM12.6465 10.2042C12.6465 9.12371 13.5225 8.24829 14.6035 8.24829C15.6837 8.24829 16.5599 9.12371 16.5599 10.2042C16.5599 11.2854 15.6837 12.1612 14.6035 12.1612C13.5225 12.1612 12.6465 11.2854 12.6465 10.2042ZM9.37006 9.96528C9.37006 9.6495 9.65201 9.39283 9.99992 9.39283C10.3478 9.39283 10.6305 9.6495 10.6305 9.96528V11.7667C10.6305 12.0828 10.3478 12.3392 9.99992 12.3392C9.65201 12.3392 9.37006 12.0828 9.37006 11.7667V9.96528ZM4.28482 10.3206C4.28482 9.60342 4.86631 9.02161 5.58367 9.02161C6.30137 9.02161 6.88264 9.60343 6.88264 10.3206C6.88264 11.0377 6.30139 11.619 5.58367 11.619C4.86634 11.619 4.28482 11.0377 4.28482 10.3206ZM13.1169 10.3206C13.1169 9.60342 13.698 9.02161 14.4152 9.02161C15.1331 9.02161 15.7141 9.60343 15.7141 10.3206C15.7141 11.0377 15.1331 11.619 14.4152 11.619C13.6981 11.619 13.1169 11.0377 13.1169 10.3206Z" fill="#FF00FF"/>
</svg>
