<svg width="20" height="20" viewBox="0 0 20 20" fill="none" xmlns="http://www.w3.org/2000/svg">
<path fill-rule="evenodd" clip-rule="evenodd" d="M17.2 10.1705C17.2 9.63864 17.1523 9.12727 17.0636 8.63636H10V11.5375H14.0364C13.8625 12.475 13.3341 13.2693 12.5398 13.8011V15.683H14.9636C16.3818 14.3773 17.2 12.4545 17.2 10.1705Z" fill="#4285F4"/>
<path fill-rule="evenodd" clip-rule="evenodd" d="M9.99988 17.5C12.0249 17.5 13.7226 16.8284 14.9635 15.683L12.5397 13.8011C11.8681 14.2511 11.009 14.517 9.99988 14.517C8.04647 14.517 6.39306 13.1977 5.80329 11.425H3.29761V13.3682C4.5317 15.8193 7.06806 17.5 9.99988 17.5Z" fill="#34A853"/>
<path fill-rule="evenodd" clip-rule="evenodd" d="M5.80341 11.425C5.65341 10.975 5.56818 10.4943 5.56818 10C5.56818 9.50568 5.65341 9.025 5.80341 8.575V6.63182H3.29773C2.78977 7.64432 2.5 8.78977 2.5 10C2.5 11.2102 2.78977 12.3557 3.29773 13.3682L5.80341 11.425Z" fill="#FBBC05"/>
<path fill-rule="evenodd" clip-rule="evenodd" d="M9.99988 5.48295C11.101 5.48295 12.0897 5.86136 12.8669 6.60455L15.0181 4.45341C13.7192 3.24318 12.0215 2.5 9.99988 2.5C7.06806 2.5 4.5317 4.18068 3.29761 6.63182L5.80329 8.575C6.39306 6.80227 8.04647 5.48295 9.99988 5.48295Z" fill="#EA4335"/>
</svg>
