<svg width="16" height="16" fill="none" xmlns="http://www.w3.org/2000/svg"><path d="M15.124 6.465 9.094 2.95l-.002 5.725a.22.22 0 0 1-.035.124.17.17 0 0 1-.086.076.21.21 0 0 1-.234-.051L6.687 6.73 4.632 8.81a.205.205 0 0 1-.23.042c-.037-.018-.047-.016-.07-.052a.224.224 0 0 1-.036-.121L4.34.178 4.253.14C3.123-.345 1.82.486 1.82 1.774v12.452c0 1.364 1.461 2.216 2.63 1.534l10.674-6.226c1.168-.682 1.168-2.387 0-3.069z" fill="#1C51A4"/><path d="M4.45.24a1.819 1.819 0 0 0-.196-.098l.003 8.552c0 .042.013.084.036.12a.218.218 0 0 0 .093.081.205.205 0 0 0 .23-.041l2.066-2.065L8.75 8.855a.209.209 0 0 0 .33-.032.224.224 0 0 0 .036-.124V2.963L4.45.24z" fill="#80D7FB"/></svg>