<svg width="16" height="16" viewBox="0 0 16 16" fill="none" xmlns="http://www.w3.org/2000/svg">
<g clip-path="url(#clip0_752_2256)">
<path d="M8.17584 7.65027L1.4436 14.6885C1.66218 15.4317 2.36164 16 3.19224 16C3.54196 16 3.84797 15.9126 4.11027 15.7377L11.7168 11.4098L8.17584 7.65027Z" fill="#EA4335"/>
<path d="M14.9957 6.42623L11.7171 4.54645L8.04492 7.78142L11.7608 11.4098L15.0395 9.57377C15.6078 9.26776 16.0012 8.65574 16.0012 8C15.9575 7.34426 15.564 6.73224 14.9957 6.42623Z" fill="#FBBC04"/>
<path d="M1.44362 1.31148C1.3999 1.44263 1.3999 1.61749 1.3999 1.79235V14.2514C1.3999 14.4262 1.3999 14.5574 1.44362 14.7322L8.43815 7.86886L1.44362 1.31148Z" fill="#4285F4"/>
<path d="M8.21956 8L11.7168 4.54645L4.15399 0.262295C3.89169 0.0874317 3.54196 0 3.19224 0C2.36164 0 1.61847 0.568306 1.4436 1.31148L8.21956 8Z" fill="#34A853"/>
</g>
<defs>
<clipPath id="clip0_752_2256">
<rect width="16" height="16" fill="white"/>
</clipPath>
</defs>
</svg>
