<svg width="16" height="16" viewBox="0 0 16 16" fill="none" xmlns="http://www.w3.org/2000/svg">
<path d="M10.6759 4.83091C9.95047 4.13728 9.02774 3.78409 8.00001 3.78409C6.17683 3.78409 4.63364 5.01546 4.08319 6.67C3.94319 7.09 3.86364 7.53866 3.86364 8.00002C3.86364 8.46138 3.94318 8.91 4.08317 9.33C4.63363 10.9845 6.17682 12.2159 8.00001 12.2159C8.94183 12.2159 9.74365 11.9677 10.3705 11.5477C11.1118 11.0514 11.605 10.31 11.7673 9.435H8.00001V6.72727H14.5927C14.6755 7.18545 14.72 7.66272 14.72 8.15909C14.72 10.2909 13.9564 12.0855 12.6327 13.3041C11.4746 14.3732 9.89001 15 8.00001 15C5.26365 15 2.89638 13.4314 1.74456 11.1437C1.27047 10.1987 1 9.12957 1 8.00002C1 6.87048 1.27045 5.80138 1.74455 4.85638C2.89637 2.56865 5.26364 1 8.00001 1C9.88683 1 11.4714 1.69364 12.6837 2.82318L10.6759 4.83091Z" fill="#FF00FF"/>
</svg>
