<svg width="20" height="20" viewBox="0 0 20 20" fill="none" xmlns="http://www.w3.org/2000/svg">
<path d="M15.2632 20L20 15.2632H15.2632V20Z" fill="#FF00FF"/>
<path opacity="0.6" d="M20 4.73685H15.2632V15.2632H20V4.73685Z" fill="#FF00FF"/>
<path opacity="0.6" d="M15.2631 15.2632H4.73682V20H15.2631V15.2632Z" fill="#FF00FF"/>
<path d="M0 15.2632V18.421C0 19.2934 0.706579 20 1.57895 20H4.73684V15.2632H0Z" fill="#FF00FF"/>
<path d="M20 4.73684V1.57895C20 0.706579 19.2934 0 18.4211 0H15.2632V4.73684H20Z" fill="#FF00FF"/>
<path opacity="0.6" d="M15.2632 0H1.57895C0.706579 0 0 0.706579 0 1.57895V15.2632H4.73684V4.73684H15.2632V0Z" fill="#FF00FF"/>
<path d="M6.89602 12.9026C6.5026 12.6368 6.23023 12.2487 6.08154 11.7355L6.9947 11.3592C7.0776 11.675 7.22233 11.9197 7.42891 12.0934C7.63417 12.2671 7.88418 12.3526 8.17628 12.3526C8.47497 12.3526 8.73154 12.2618 8.94601 12.0803C9.16049 11.8987 9.26838 11.6671 9.26838 11.3868C9.26838 11.1 9.15522 10.8658 8.92891 10.6842C8.70259 10.5026 8.41838 10.4118 8.07891 10.4118H7.55128V9.50789H8.02496C8.31707 9.50789 8.56312 9.42894 8.76312 9.27105C8.96312 9.11315 9.06312 8.89736 9.06312 8.62236C9.06312 8.37763 8.97365 8.18289 8.7947 8.03684C8.61575 7.89078 8.38944 7.8171 8.11444 7.8171C7.84602 7.8171 7.63286 7.88815 7.47496 8.03157C7.31717 8.17537 7.19854 8.35694 7.13023 8.5592L6.22628 8.18289C6.34602 7.84342 6.56575 7.54341 6.88812 7.2842C7.21049 7.02499 7.62233 6.89473 8.12233 6.89473C8.49207 6.89473 8.82496 6.96578 9.1197 7.1092C9.41444 7.25263 9.64601 7.45131 9.81312 7.70394C9.98022 7.95789 10.0631 8.2421 10.0631 8.55789C10.0631 8.88026 9.98549 9.15263 9.83023 9.37631C9.67496 9.59999 9.48417 9.77105 9.25786 9.89078V9.94473C9.55008 10.0652 9.80393 10.2631 9.99207 10.5171C10.1829 10.7737 10.2789 11.0803 10.2789 11.4382C10.2789 11.796 10.1881 12.1158 10.0065 12.396C9.82496 12.6763 9.57365 12.8974 9.25523 13.0579C8.93549 13.2184 8.57628 13.3 8.17759 13.3C7.71575 13.3013 7.28944 13.1684 6.89602 12.9026ZM12.5052 8.37105L11.5026 9.09605L11.0013 8.33552L12.8 7.03815H13.4894V13.1579H12.5052V8.37105Z" fill="#FF00FF"/>
</svg>
