<svg width="16" height="16" viewBox="0 0 16 16" fill="none" xmlns="http://www.w3.org/2000/svg">
<g clip-path="url(#clip0_1447_1780)">
<path d="M1.25067 12.9781L1.95203 14.1896C2.09776 14.4446 2.30725 14.645 2.55318 14.7907L5.05804 10.4551H0.0483398C0.0483398 10.7375 0.121209 11.0198 0.266945 11.2748L1.25067 12.9781Z" fill="#FF00FF"/>
<path d="M8.00007 5.35431L10.5049 1.01865C10.259 0.872916 9.97661 0.800049 9.68515 0.800049H6.31499C6.02351 0.800049 5.74115 0.882025 5.49521 1.01865L8.00007 5.35431Z" fill="#FF00FF"/>
<path d="M13.447 14.7907C13.6929 14.645 13.9024 14.4446 14.0482 14.1896L14.3396 13.6886L15.7332 11.2748C15.879 11.0198 15.9518 10.7375 15.9518 10.4551H10.9513L13.447 14.7907Z" fill="#FF00FF"/>
<g opacity="0.75">
<path d="M8.00009 5.35421L5.49525 1.01855C5.24931 1.16429 5.03981 1.36467 4.89408 1.61972L0.266945 9.63522C0.121209 9.89027 0.0483398 10.1726 0.0483398 10.455H5.05804L8.00009 5.35421Z" fill="#FF00FF"/>
<path d="M10.9422 10.455L5.05804 10.455L2.55322 14.7906C2.79916 14.9364 3.08152 15.0092 3.373 15.0092H12.6272C12.9187 15.0092 13.2011 14.9273 13.447 14.7906L10.9422 10.455Z" fill="#FF00FF"/>
<path d="M13.4197 5.62748L11.1061 1.61972C10.9604 1.36467 10.7509 1.16429 10.5049 1.01855L8.00009 5.35421L10.9422 10.455L15.9427 10.455C15.9427 10.1726 15.8699 9.89027 15.7241 9.63522L13.4197 5.62748Z" fill="#FF00FF"/>
</g>
</g>
<defs>
<clipPath id="clip0_1447_1780">
<rect width="16" height="16" fill="white"/>
</clipPath>
</defs>
</svg>
