<svg width="16" height="16" viewBox="0 0 16 16" fill="none" xmlns="http://www.w3.org/2000/svg">
<g clip-path="url(#clip0_1447_2973)">
<path d="M1.25067 12.9781L1.95203 14.1895C2.09776 14.4445 2.30725 14.6449 2.55318 14.7907L5.05804 10.455H0.0483398C0.0483398 10.7374 0.121209 11.0197 0.266945 11.2748L1.25067 12.9781Z" fill="#0066DA"/>
<path d="M8.00009 5.35428L5.49525 1.01862C5.24931 1.16435 5.03981 1.36473 4.89408 1.61978L0.266945 9.63528C0.121209 9.89033 0.0483398 10.1727 0.0483398 10.4551H5.05804L8.00009 5.35428Z" fill="#00AC47"/>
<path d="M7.99997 5.35425L10.5048 1.01859C10.2589 0.872855 9.97651 0.799988 9.68505 0.799988H6.31489C6.02341 0.799988 5.74105 0.881964 5.49512 1.01859L7.99997 5.35425Z" fill="#00832D"/>
<path d="M10.9422 10.455H5.05806L2.55322 14.7907C2.79916 14.9364 3.08152 15.0093 3.373 15.0093H12.6272C12.9187 15.0093 13.2011 14.9273 13.447 14.7907L10.9422 10.455Z" fill="#2684FC"/>
<path d="M13.4469 14.7907C13.6928 14.6449 13.9023 14.4445 14.0481 14.1895L14.3395 13.6885L15.7331 11.2748C15.8789 11.0197 15.9518 10.7374 15.9518 10.455H10.9512L13.4469 14.7907Z" fill="#EA4335"/>
<path d="M13.4196 5.62754L11.106 1.61978C10.9603 1.36473 10.7508 1.16435 10.5048 1.01862L8 5.35428L10.942 10.4551H15.9426C15.9426 10.1727 15.8698 9.89033 15.724 9.63528L13.4196 5.62754Z" fill="#FFBA00"/>
</g>
<defs>
<clipPath id="clip0_1447_2973">
<rect width="16" height="16" fill="white"/>
</clipPath>
</defs>
</svg>
