<svg width="16" height="16" viewBox="0 0 16 16" fill="none" xmlns="http://www.w3.org/2000/svg">
<g clip-path="url(#clip0_1447_2031)">
<mask id="mask0_1447_2031" style="mask-type:alpha" maskUnits="userSpaceOnUse" x="0" y="0" width="16" height="16">
<circle cx="8" cy="8" r="8" fill="#C4C4C4"/>
</mask>
<g mask="url(#mask0_1447_2031)">
<path d="M1.27002 0V9.81818H4.85184L8.00002 4.36364H16V0H1.27002Z" fill="#DB4437"/>
<path d="M1.27002 0V9.81818H4.85184L8.00002 4.36364H16V0H1.27002Z" fill="url(#paint0_linear_1447_2031)"/>
<path d="M4.9364 9.78184L1.3164 3.57274L1.26367 3.66365L4.85822 9.82729L4.9364 9.78184Z" fill="black" fill-opacity="0.15"/>
<path d="M0 16H7.61545L11.15 12.4655V9.8182H4.85L0 1.4982V16Z" fill="#0F9D58"/>
<path d="M0 16H7.61545L11.15 12.4655V9.8182H4.85L0 1.4982V16Z" fill="url(#paint1_linear_1447_2031)"/>
<path d="M11.0727 9.93635L10.9973 9.89272L7.50635 15.9973H7.61089L11.0745 9.93908L11.0727 9.93635Z" fill="#263238" fill-opacity="0.15"/>
<path d="M8.00002 4.36363L11.15 9.81818L7.61548 16H16V4.36363H8.00002Z" fill="#FFCD40"/>
<path d="M8.00002 4.36363L11.15 9.81818L7.61548 16H16V4.36363H8.00002Z" fill="url(#paint2_linear_1447_2031)"/>
<path d="M1.27002 0V9.81818H4.85184L8.00002 4.36364H16V0H1.27002Z" fill="#DB4437"/>
<path d="M1.27002 0V9.81818H4.85184L8.00002 4.36364H16V0H1.27002Z" fill="url(#paint3_linear_1447_2031)"/>
<path d="M0 16H7.61545L11.15 12.4655V9.8182H4.85L0 1.4982V16Z" fill="#0F9D58"/>
<path d="M0 16H7.61545L11.15 12.4655V9.8182H4.85L0 1.4982V16Z" fill="url(#paint4_linear_1447_2031)"/>
<path d="M8.00002 4.36363L11.15 9.81818L7.61548 16H16V4.36363H8.00002Z" fill="#FFCD40"/>
<path d="M8.00002 4.36363L11.15 9.81818L7.61548 16H16V4.36363H8.00002Z" fill="url(#paint5_linear_1447_2031)"/>
<path d="M8 4.36363V6.26818L15.1273 4.36363H8Z" fill="url(#paint6_radial_1447_2031)"/>
<path d="M1.27002 3.67726L6.47456 8.8809L4.85093 9.81817L1.27002 3.67726Z" fill="url(#paint7_radial_1447_2031)"/>
<path d="M7.62085 15.9909L9.52631 8.88181L11.1499 9.81817L7.62085 15.9909Z" fill="url(#paint8_radial_1447_2031)"/>
<path d="M7.99989 11.6364C10.0082 11.6364 11.6363 10.0083 11.6363 8C11.6363 5.99169 10.0082 4.36363 7.99989 4.36363C5.99158 4.36363 4.36353 5.99169 4.36353 8C4.36353 10.0083 5.99158 11.6364 7.99989 11.6364Z" fill="#F1F1F1"/>
<path d="M7.99991 10.9091C9.60656 10.9091 10.909 9.60665 10.909 8C10.909 6.39336 9.60656 5.09091 7.99991 5.09091C6.39326 5.09091 5.09082 6.39336 5.09082 8C5.09082 9.60665 6.39326 10.9091 7.99991 10.9091Z" fill="#4285F4"/>
<path d="M7.99989 4.27272C5.9908 4.27272 4.36353 5.89999 4.36353 7.90909V8C4.36353 5.9909 5.9908 4.36363 7.99989 4.36363H15.9999V4.27272H7.99989Z" fill="black" fill-opacity="0.2"/>
<path d="M11.1455 9.8182C10.5164 10.9037 9.34545 11.6364 8 11.6364C6.65455 11.6364 5.48182 10.9037 4.85455 9.8182H4.85091L0 1.4982V1.58911L4.85455 9.90911C5.48364 10.9946 6.65455 11.7273 8 11.7273C9.34545 11.7273 10.5164 10.9955 11.1455 9.90911H11.15V9.8182H11.1445H11.1455Z" fill="white" fill-opacity="0.1"/>
<path opacity="0.1" d="M8.09086 4.36363C8.07541 4.36363 8.06086 4.36545 8.04541 4.36636C10.0327 4.3909 11.6363 6.00727 11.6363 8C11.6363 9.99272 10.0327 11.6091 8.04541 11.6336C8.06086 11.6336 8.07541 11.6364 8.09086 11.6364C10.1 11.6364 11.7272 10.0091 11.7272 8C11.7272 5.9909 10.1 4.36363 8.09086 4.36363Z" fill="black"/>
<path d="M11.1818 9.93636C11.4909 9.40181 11.67 8.78363 11.67 8.12181C11.6702 7.74888 11.6129 7.37816 11.5 7.02272C11.5864 7.33363 11.6364 7.65908 11.6364 7.99818C11.6364 8.65999 11.4573 9.27818 11.1482 9.81272L11.15 9.81636L7.61548 15.9982H7.72093L11.1818 9.93636Z" fill="white" fill-opacity="0.2"/>
<path d="M8.00001 0.090909C12.4027 0.090909 15.9746 3.64818 16 8.04545C16 8.02999 16.0009 8.01545 16.0009 7.99999C16.0009 3.58182 12.4191 0 8.00092 0C3.58273 0 0 3.58182 0 7.99999C0 8.01545 0.000909112 8.02999 0.000909112 8.04545C0.0254546 3.64818 3.59728 0.090909 8.00001 0.090909Z" fill="white" fill-opacity="0.2"/>
<path d="M8.00001 15.9091C12.4027 15.9091 15.9746 12.3518 16 7.95454C16 7.97 16.0009 7.98454 16.0009 8C16.0009 12.4182 12.4191 16 8.00092 16C3.58273 16 0 12.4182 0 8C0 7.98454 0.000909112 7.97 0.000909112 7.95454C0.0254546 12.3518 3.59728 15.9091 8.00092 15.9091H8.00001Z" fill="black" fill-opacity="0.15"/>
</g>
</g>
<defs>
<linearGradient id="paint0_linear_1447_2031" x1="1.94002" y1="6.09273" x2="6.71275" y2="3.30455" gradientUnits="userSpaceOnUse">
<stop stop-color="#A52714" stop-opacity="0.6"/>
<stop offset="0.66" stop-color="#A52714" stop-opacity="0"/>
</linearGradient>
<linearGradient id="paint1_linear_1447_2031" x1="9.35455" y1="14.2273" x2="4.04909" y2="11.1182" gradientUnits="userSpaceOnUse">
<stop stop-color="#055524" stop-opacity="0.4"/>
<stop offset="0.33" stop-color="#055524" stop-opacity="0"/>
</linearGradient>
<linearGradient id="paint2_linear_1447_2031" x1="10.3546" y1="3.8" x2="11.6909" y2="9.64545" gradientUnits="userSpaceOnUse">
<stop stop-color="#EA6100" stop-opacity="0.3"/>
<stop offset="0.66" stop-color="#EA6100" stop-opacity="0"/>
</linearGradient>
<linearGradient id="paint3_linear_1447_2031" x1="1.94002" y1="6.09273" x2="6.71275" y2="3.30455" gradientUnits="userSpaceOnUse">
<stop stop-color="#A52714" stop-opacity="0.6"/>
<stop offset="0.66" stop-color="#A52714" stop-opacity="0"/>
</linearGradient>
<linearGradient id="paint4_linear_1447_2031" x1="9.35455" y1="14.2273" x2="4.04909" y2="11.1182" gradientUnits="userSpaceOnUse">
<stop stop-color="#055524" stop-opacity="0.4"/>
<stop offset="0.33" stop-color="#055524" stop-opacity="0"/>
</linearGradient>
<linearGradient id="paint5_linear_1447_2031" x1="10.3546" y1="3.8" x2="11.6909" y2="9.64545" gradientUnits="userSpaceOnUse">
<stop stop-color="#EA6100" stop-opacity="0.3"/>
<stop offset="0.66" stop-color="#EA6100" stop-opacity="0"/>
</linearGradient>
<radialGradient id="paint6_radial_1447_2031" cx="0" cy="0" r="1" gradientUnits="userSpaceOnUse" gradientTransform="translate(7.65455 4.35909) scale(7.64364 7.64363)">
<stop stop-color="#3E2723" stop-opacity="0.2"/>
<stop offset="1" stop-color="#3E2723" stop-opacity="0"/>
</radialGradient>
<radialGradient id="paint7_radial_1447_2031" cx="0" cy="0" r="1" gradientUnits="userSpaceOnUse" gradientTransform="translate(1.26366 3.68363) scale(7.09454)">
<stop stop-color="#3E2723" stop-opacity="0.2"/>
<stop offset="1" stop-color="#3E2723" stop-opacity="0"/>
</radialGradient>
<radialGradient id="paint8_radial_1447_2031" cx="0" cy="0" r="1" gradientUnits="userSpaceOnUse" gradientTransform="translate(7.98176 8.01271) scale(7.98819 7.98819)">
<stop stop-color="#263238" stop-opacity="0.2"/>
<stop offset="1" stop-color="#263238" stop-opacity="0"/>
</radialGradient>
<clipPath id="clip0_1447_2031">
<rect width="16" height="16" fill="white"/>
</clipPath>
</defs>
</svg>
