<svg width="16" height="16" fill="none" xmlns="http://www.w3.org/2000/svg"><g clip-path="url(#a)"><mask id="b" style="mask-type:alpha" maskUnits="userSpaceOnUse" x="0" y="0" width="16" height="16"><circle cx="8" cy="8" r="8" fill="#C4C4C4"/></mask><g mask="url(#b)"><path d="M1.27 0v9.818h3.582L8 4.364h8V0H1.27z" fill="#DB4437"/><path d="M1.27 0v9.818h3.582L8 4.364h8V0H1.27z" fill="url(#c)"/><path d="m4.936 9.782-3.62-6.21-.052.092 3.594 6.163.078-.045z" fill="#000" fill-opacity=".15"/><path d="M0 16h7.615l3.535-3.535V9.818h-6.3L0 1.498V16z" fill="#0F9D58"/><path d="M0 16h7.615l3.535-3.535V9.818h-6.3L0 1.498V16z" fill="url(#d)"/><path d="m11.073 9.936-.076-.043-3.49 6.104h.104l3.464-6.058-.002-.003z" fill="#263238" fill-opacity=".15"/><path d="m8 4.364 3.15 5.454L7.615 16H16V4.364H8z" fill="#FFCD40"/><path d="m8 4.364 3.15 5.454L7.615 16H16V4.364H8z" fill="url(#e)"/><path d="M1.27 0v9.818h3.582L8 4.364h8V0H1.27z" fill="#DB4437"/><path d="M1.27 0v9.818h3.582L8 4.364h8V0H1.27z" fill="url(#f)"/><path d="M0 16h7.615l3.535-3.535V9.818h-6.3L0 1.498V16z" fill="#0F9D58"/><path d="M0 16h7.615l3.535-3.535V9.818h-6.3L0 1.498V16z" fill="url(#g)"/><path d="m8 4.364 3.15 5.454L7.615 16H16V4.364H8z" fill="#FFCD40"/><path d="m8 4.364 3.15 5.454L7.615 16H16V4.364H8z" fill="url(#h)"/><path d="M8 4.364v1.904l7.127-1.904H8z" fill="url(#i)"/><path d="m1.27 3.677 5.205 5.204-1.624.937-3.581-6.14z" fill="url(#j)"/><path d="m7.62 15.99 1.906-7.108 1.624.936-3.53 6.173z" fill="url(#k)"/><path d="M8 11.636a3.636 3.636 0 1 0 0-7.272 3.636 3.636 0 0 0 0 7.272z" fill="#F1F1F1"/><path d="M8 10.91a2.91 2.91 0 1 0 0-5.82 2.91 2.91 0 0 0 0 5.82z" fill="#4285F4"/><path d="M8 4.273a3.635 3.635 0 0 0-3.636 3.636V8A3.635 3.635 0 0 1 8 4.364h8v-.091H8z" fill="#000" fill-opacity=".2"/><path d="M11.146 9.818a3.632 3.632 0 0 1-6.291 0H4.85L0 1.498v.091l4.855 8.32a3.632 3.632 0 0 0 6.29 0h.005v-.09h-.005z" fill="#fff" fill-opacity=".1"/><path opacity=".1" d="m8.09 4.364-.045.002a3.635 3.635 0 0 1 0 7.268l.046.002A3.635 3.635 0 0 0 11.727 8a3.635 3.635 0 0 0-3.636-3.636z" fill="#000"/><path d="M11.182 9.936a3.611 3.611 0 0 0 .318-2.913 3.611 3.611 0 0 1-.352 2.79l.002.003-3.535 6.182h.106l3.46-6.062z" fill="#fff" fill-opacity=".2"/><path d="M8 .09a8.001 8.001 0 0 1 8 7.955V8A8 8 0 0 0 0 8v.045A8 8 0 0 1 8 .091z" fill="#fff" fill-opacity=".2"/><path d="M8 15.91a8.001 8.001 0 0 0 8-7.955V8A8 8 0 0 1 0 8v-.045a8 8 0 0 0 8 7.954z" fill="#000" fill-opacity=".15"/></g></g><defs><linearGradient id="c" x1="1.94" y1="6.093" x2="6.713" y2="3.305" gradientUnits="userSpaceOnUse"><stop stop-color="#A52714" stop-opacity=".6"/><stop offset=".66" stop-color="#A52714" stop-opacity="0"/></linearGradient><linearGradient id="d" x1="9.355" y1="14.227" x2="4.049" y2="11.118" gradientUnits="userSpaceOnUse"><stop stop-color="#055524" stop-opacity=".4"/><stop offset=".33" stop-color="#055524" stop-opacity="0"/></linearGradient><linearGradient id="e" x1="10.355" y1="3.8" x2="11.691" y2="9.645" gradientUnits="userSpaceOnUse"><stop stop-color="#EA6100" stop-opacity=".3"/><stop offset=".66" stop-color="#EA6100" stop-opacity="0"/></linearGradient><linearGradient id="f" x1="1.94" y1="6.093" x2="6.713" y2="3.305" gradientUnits="userSpaceOnUse"><stop stop-color="#A52714" stop-opacity=".6"/><stop offset=".66" stop-color="#A52714" stop-opacity="0"/></linearGradient><linearGradient id="g" x1="9.355" y1="14.227" x2="4.049" y2="11.118" gradientUnits="userSpaceOnUse"><stop stop-color="#055524" stop-opacity=".4"/><stop offset=".33" stop-color="#055524" stop-opacity="0"/></linearGradient><linearGradient id="h" x1="10.355" y1="3.8" x2="11.691" y2="9.645" gradientUnits="userSpaceOnUse"><stop stop-color="#EA6100" stop-opacity=".3"/><stop offset=".66" stop-color="#EA6100" stop-opacity="0"/></linearGradient><radialGradient id="i" cx="0" cy="0" r="1" gradientUnits="userSpaceOnUse" gradientTransform="matrix(7.64364 0 0 7.64363 7.655 4.36)"><stop stop-color="#3E2723" stop-opacity=".2"/><stop offset="1" stop-color="#3E2723" stop-opacity="0"/></radialGradient><radialGradient id="j" cx="0" cy="0" r="1" gradientUnits="userSpaceOnUse" gradientTransform="translate(1.264 3.684) scale(7.09454)"><stop stop-color="#3E2723" stop-opacity=".2"/><stop offset="1" stop-color="#3E2723" stop-opacity="0"/></radialGradient><radialGradient id="k" cx="0" cy="0" r="1" gradientUnits="userSpaceOnUse" gradientTransform="translate(7.982 8.013) scale(7.98819)"><stop stop-color="#263238" stop-opacity=".2"/><stop offset="1" stop-color="#263238" stop-opacity="0"/></radialGradient><clipPath id="a"><path fill="#fff" d="M0 0h16v16H0z"/></clipPath></defs></svg>