<svg width="16" height="16" fill="none" xmlns="http://www.w3.org/2000/svg"><g clip-path="url(#a)"><path d="M14.933 16a1.06 1.06 0 0 0 1.064-1.048V4.26a1.06 1.06 0 0 0-1.064-1.048H4.545L8.715 16h6.218z" fill="#DBDBDB"/><path d="M14.933 3.693c.155 0 .303.06.413.17.11.107.17.248.17.397v10.692c0 .149-.06.29-.17.397a.587.587 0 0 1-.413.17h-5.87L5.207 3.693h9.726zm0-.481H4.545L8.715 16h6.218a1.06 1.06 0 0 0 1.064-1.048V4.26a1.06 1.06 0 0 0-1.064-1.048z" fill="#DCDCDC"/><path d="M7.73 12.979 8.714 16l2.736-3.021H7.73z" fill="#4352B8"/><path d="M15.003 7.63v-.626h-3.021V5.99h-.98v1.013H9.072v.627h3.837c-.205.722-.659 1.405-1.101 1.936-.784-.928-.787-1.23-.787-1.23h-.814s.033.452 1.133 1.74c-.358.366-.628.583-.628.583l.25.782s.378-.325.85-.827a35.008 35.008 0 0 0 1.88 1.87l.514-.514c-.848-.77-1.47-1.38-1.927-1.87.612-.725 1.234-1.637 1.366-2.472H15v.002h.002z" fill="#607988"/><path d="M1.064 0C.48 0 0 .48 0 1.066v10.85c0 .585.48 1.064 1.064 1.064h10.387L7.283 0H1.064z" fill="#4285F4"/><path d="M8.563 3.212h6.37a1.06 1.06 0 0 1 1.064 1.048v6.414L8.563 3.212z" fill="url(#b)"/><path d="M5.953 6.901c-.04.486-.456 1.206-1.46 1.206-.87 0-1.576-.72-1.576-1.606 0-.887.705-1.606 1.575-1.606.496 0 .826.214 1.015.39l.66-.636c-.434-.4-1-.65-1.675-.65a2.501 2.501 0 0 0 0 5c1.446 0 2.401-1.014 2.401-2.445 0-.206-.025-.356-.059-.51h-2.34V6.9l1.459.001z" fill="#EEE"/><path d="M14.933 3.212H8.315L7.283 0H1.064C.48 0 0 .48 0 1.066v10.85c0 .585.48 1.064 1.064 1.064H7.73L8.714 16h6.219a1.06 1.06 0 0 0 1.064-1.048V4.26a1.06 1.06 0 0 0-1.064-1.048z" fill="url(#c)"/></g><defs><radialGradient id="c" cx="0" cy="0" r="1" gradientUnits="userSpaceOnUse" gradientTransform="translate(1.045 .31) scale(22.4104)"><stop stop-color="#fff" stop-opacity=".1"/><stop offset="1" stop-color="#fff" stop-opacity="0"/></radialGradient><linearGradient id="b" x1="8.563" y1="6.943" x2="15.997" y2="6.943" gradientUnits="userSpaceOnUse"><stop stop-color="#fff" stop-opacity=".2"/><stop offset="1" stop-color="#fff" stop-opacity=".02"/></linearGradient><clipPath id="a"><path fill="#fff" d="M0 0h16v16H0z"/></clipPath></defs></svg>