<svg width="16" height="16" viewBox="0 0 16 16" fill="none" xmlns="http://www.w3.org/2000/svg">
<g clip-path="url(#clip0_1447_3057)">
<path d="M8.17609 7.65027L1.44385 14.6885C1.66243 15.4317 2.36188 16 3.19248 16C3.54221 16 3.84822 15.9126 4.11051 15.7377L11.7171 11.4098L8.17609 7.65027Z" fill="#EA4335"/>
<path d="M14.9957 6.42629L11.7171 4.54651L8.04492 7.78148L11.7608 11.4099L15.0395 9.57383C15.6078 9.26782 16.0012 8.6558 16.0012 8.00006C15.9575 7.34432 15.564 6.7323 14.9957 6.42629Z" fill="#FBBC04"/>
<path d="M1.44362 1.31152C1.3999 1.44267 1.3999 1.61753 1.3999 1.7924V14.2514C1.3999 14.4263 1.3999 14.5574 1.44362 14.7323L8.43815 7.8689L1.44362 1.31152Z" fill="#4285F4"/>
<path d="M8.2198 8L11.7171 4.54645L4.15423 0.262295C3.89193 0.0874317 3.54221 0 3.19248 0C2.36188 0 1.61871 0.568306 1.44385 1.31148L8.2198 8Z" fill="#34A853"/>
</g>
<defs>
<clipPath id="clip0_1447_3057">
<rect width="16" height="16" fill="white"/>
</clipPath>
</defs>
</svg>
