<svg width="20" height="20" viewBox="0 0 20 20" fill="none" xmlns="http://www.w3.org/2000/svg">
<path fill-rule="evenodd" clip-rule="evenodd" d="M12.867 6.60455C12.0898 5.86136 11.1011 5.48295 10 5.48295C8.04659 5.48295 6.39318 6.80227 5.80341 8.575L5.80341 8.575V8.57502C5.65341 9.02502 5.56818 9.5057 5.56818 10C5.56818 10.4943 5.65341 10.975 5.8034 11.425H5.80341C6.39318 13.1977 8.04659 14.517 10 14.517C11.0091 14.517 11.8682 14.2511 12.5398 13.8011C13.3341 13.2693 13.8625 12.475 14.0364 11.5375H10V8.63635H17.0636C17.1523 9.12726 17.2 9.63862 17.2 10.1704C17.2 12.4545 16.3818 14.3773 14.9636 15.6829C13.7227 16.8284 12.025 17.5 10 17.5C7.06819 17.5 4.53183 15.8193 3.29774 13.3682L3.29773 13.3682C2.78977 12.3557 2.5 11.2102 2.5 10C2.5 8.78979 2.78977 7.64434 3.29773 6.63184H3.29775L3.29773 6.63182C4.53182 4.18068 7.06818 2.5 10 2.5C12.0216 2.5 13.7193 3.24318 15.0182 4.45341L12.867 6.60455Z" fill="#FF00FF"/>
</svg>
