<svg width="16" height="16" fill="none" xmlns="http://www.w3.org/2000/svg"><path d="m9.2 4.4 1.975.373L12.8 4.4 9.2.8l-.497 1.706L9.2 4.4z" fill="#56368A"/><path d="M9.2 4.4V.8H3.385a.983.983 0 0 0-.984.982v12.436c0 .543.442.982.984.982h8.435c.542 0 .982-.44.982-.982V4.4H9.2z" fill="#7248B9"/><path d="M5.11 11.191a.491.491 0 1 1 0-.983.491.491 0 0 1 0 .983zm0-1.964a.491.491 0 1 1 0-.982.491.491 0 0 1 0 .982zm0-1.963a.491.491 0 1 1 0-.983.491.491 0 0 1 0 .983zm5.4 3.845H6.419v-.818h4.09v.818zm0-1.963H6.419v-.819h4.09v.819zm0-1.964H6.419v-.818h4.09v.818z" fill="#fff"/></svg>