<svg width="16" height="16" viewBox="0 0 16 16" fill="none" xmlns="http://www.w3.org/2000/svg">
<g clip-path="url(#clip0_2179_3850)">
<path d="M4 3.6366C6.20908 3.6366 8 5.42724 8 7.6366V7.99999H0.36339C0.162712 7.99999 0 7.83727 0 7.6366C0 5.42724 1.79092 3.6366 4 3.6366Z" fill="#FF00FF"/>
<path d="M12.3634 4C12.3634 6.20908 10.5727 8 8.36339 8H8V0.36339C8 0.162712 8.16271 0 8.36339 0C10.5727 0 12.3634 1.79092 12.3634 4Z" fill="#FF00FF"/>
<path d="M12 12.3634C9.79092 12.3634 8 10.5727 8 8.36339V8H15.6366C15.8373 8 16 8.16271 16 8.36339C16 10.5727 14.2091 12.3634 12 12.3634Z" fill="#FF00FF"/>
<path d="M3.63672 12C3.63672 9.79092 5.42736 8 7.63672 8H8.00011V15.6366C8.00011 15.8373 7.8374 16 7.63672 16C5.42736 16 3.63672 14.2091 3.63672 12Z" fill="#FF00FF"/>
</g>
<defs>
<clipPath id="clip0_2179_3850">
<rect width="16" height="16" fill="white"/>
</clipPath>
</defs>
</svg>
