<svg width="16" height="16" viewBox="0 0 16 16" fill="none" xmlns="http://www.w3.org/2000/svg">
<g clip-path="url(#clip0_1447_2973)">
<path d="M1.25067 12.9781L1.95203 14.1896C2.09776 14.4446 2.30725 14.645 2.55318 14.7907L5.05804 10.4551H0.0483398C0.0483398 10.7374 0.121209 11.0198 0.266945 11.2748L1.25067 12.9781Z" fill="#0066DA"/>
<path d="M8.00009 5.35421L5.49525 1.01855C5.24931 1.16429 5.03981 1.36467 4.89408 1.61972L0.266945 9.63522C0.121209 9.89027 0.0483398 10.1726 0.0483398 10.455H5.05804L8.00009 5.35421Z" fill="#00AC47"/>
<path d="M7.99997 5.35431L10.5048 1.01865C10.2589 0.872916 9.97651 0.800049 9.68505 0.800049H6.31489C6.02341 0.800049 5.74105 0.882025 5.49512 1.01865L7.99997 5.35431Z" fill="#00832D"/>
<path d="M10.9422 10.4551H5.05806L2.55322 14.7907C2.79916 14.9365 3.08152 15.0093 3.373 15.0093H12.6272C12.9187 15.0093 13.2011 14.9274 13.447 14.7907L10.9422 10.4551Z" fill="#2684FC"/>
<path d="M13.4469 14.7907C13.6928 14.645 13.9023 14.4446 14.0481 14.1896L14.3395 13.6886L15.7331 11.2748C15.8789 11.0198 15.9518 10.7374 15.9518 10.4551H10.9512L13.4469 14.7907Z" fill="#EA4335"/>
<path d="M13.4196 5.62748L11.106 1.61972C10.9603 1.36467 10.7508 1.16429 10.5048 1.01855L8 5.35421L10.942 10.455H15.9426C15.9426 10.1726 15.8698 9.89027 15.724 9.63522L13.4196 5.62748Z" fill="#FFBA00"/>
</g>
<defs>
<clipPath id="clip0_1447_2973">
<rect width="16" height="16" fill="white"/>
</clipPath>
</defs>
</svg>
