<svg width="20" height="20" viewBox="0 0 20 20" fill="none" xmlns="http://www.w3.org/2000/svg">
<path d="M1.56322 16.2226L2.43991 17.7369C2.62208 18.0557 2.88394 18.3062 3.19136 18.4884L6.32243 13.0688H0.0603027C0.0603027 13.4218 0.151389 13.7747 0.333559 14.0935L1.56322 16.2226Z" fill="#0066DA"/>
<path d="M9.99998 6.69283L6.86894 1.27325C6.56152 1.45542 6.29964 1.7059 6.11747 2.02471L0.333559 12.0441C0.151389 12.3629 0.0603027 12.7159 0.0603027 13.0688H6.32243L9.99998 6.69283Z" fill="#00AC47"/>
<path d="M9.99997 6.69283L13.131 1.27326C12.8236 1.09108 12.4706 1 12.1063 1H7.89362C7.52927 1 7.17632 1.10247 6.8689 1.27326L9.99997 6.69283Z" fill="#00832D"/>
<path d="M13.6776 13.0688H6.32245L3.19141 18.4884C3.49882 18.6705 3.85178 18.7616 4.21613 18.7616H15.7839C16.1483 18.7616 16.5012 18.6591 16.8087 18.4884L13.6776 13.0688Z" fill="#2684FC"/>
<path d="M16.8086 18.4884C17.1161 18.3062 17.3779 18.0557 17.5601 17.7369L17.9244 17.1107L19.6664 14.0935C19.8486 13.7747 19.9397 13.4218 19.9397 13.0688H13.689L16.8086 18.4884Z" fill="#EA4335"/>
<path d="M16.7745 7.03441L13.8825 2.02471C13.7003 1.7059 13.4385 1.45542 13.131 1.27325L10 6.69283L13.6776 13.0688H19.9283C19.9283 12.7159 19.8372 12.3629 19.655 12.0441L16.7745 7.03441Z" fill="#FFBA00"/>
</svg>
