<svg width="16" height="16" viewBox="0 0 16 16" fill="none" xmlns="http://www.w3.org/2000/svg">
<g clip-path="url(#clip0_1447_3061)">
<path d="M12.2106 3.78949H3.78955V12.2105H12.2106V3.78949Z" fill="white"/>
<path d="M12.2104 16L15.9999 12.2105H12.2104V16Z" fill="#EA4335"/>
<path d="M15.9999 3.78949H12.2104V12.2105H15.9999V3.78949Z" fill="#FBBC04"/>
<path d="M12.2106 12.2105H3.78955V16H12.2106V12.2105Z" fill="#34A853"/>
<path d="M0 12.2105V14.7368C0 15.4347 0.565263 16 1.26316 16H3.78947V12.2105H0Z" fill="#188038"/>
<path d="M15.9999 3.78947V1.26316C15.9999 0.565263 15.4347 0 14.7368 0H12.2104V3.78947H15.9999Z" fill="#1967D2"/>
<path d="M12.2105 0H1.26316C0.565263 0 0 0.565263 0 1.26316V12.2105H3.78947V3.78947H12.2105V0Z" fill="#4285F4"/>
<path d="M5.51681 10.3221C5.20208 10.1095 4.98418 9.79897 4.86523 9.38844L5.59576 9.08739C5.66208 9.34002 5.77786 9.53581 5.94313 9.67476C6.10734 9.8137 6.30734 9.88213 6.54102 9.88213C6.77997 9.88213 6.98523 9.80949 7.15681 9.66423C7.32839 9.51897 7.41471 9.3337 7.41471 9.10949C7.41471 8.88002 7.32418 8.69265 7.14313 8.54739C6.96207 8.40213 6.73471 8.32949 6.46313 8.32949H6.04103V7.60634H6.41997C6.65365 7.60634 6.8505 7.54318 7.0105 7.41686C7.1705 7.29055 7.2505 7.11791 7.2505 6.89791C7.2505 6.70212 7.17892 6.54634 7.03576 6.42949C6.8926 6.31265 6.71155 6.2537 6.49155 6.2537C6.27681 6.2537 6.10629 6.31055 5.97997 6.42528C5.85374 6.54032 5.75883 6.68558 5.70418 6.84739L4.98102 6.54634C5.07681 6.27476 5.2526 6.03476 5.5105 5.82739C5.76839 5.62002 6.09787 5.51581 6.49787 5.51581C6.79366 5.51581 7.05997 5.57265 7.29576 5.68739C7.53155 5.80212 7.71681 5.96107 7.8505 6.16318C7.98418 6.36634 8.0505 6.5937 8.0505 6.84633C8.0505 7.10423 7.98839 7.32212 7.86418 7.50107C7.73997 7.68002 7.58734 7.81686 7.40628 7.91265V7.95581C7.64007 8.05219 7.84314 8.2105 7.99365 8.4137C8.14629 8.61897 8.22313 8.86423 8.22313 9.15055C8.22313 9.43686 8.1505 9.69265 8.00523 9.91686C7.85997 10.1411 7.65892 10.3179 7.40418 10.4463C7.14839 10.5748 6.86102 10.64 6.54208 10.64C6.1726 10.6411 5.83155 10.5348 5.51681 10.3221ZM10.0042 6.69686L9.20208 7.27686L8.80102 6.66844L10.24 5.63055H10.7915V10.5263H10.0042V6.69686Z" fill="#4285F4"/>
</g>
<defs>
<clipPath id="clip0_1447_3061">
<rect width="16" height="16" fill="white"/>
</clipPath>
</defs>
</svg>
