<svg width="16" height="16" viewBox="0 0 16 16" fill="none" xmlns="http://www.w3.org/2000/svg">
<g clip-path="url(#clip0_1447_3061)">
<path d="M12.2106 3.78943H3.78955V12.2105H12.2106V3.78943Z" fill="white"/>
<path d="M12.2104 16L15.9999 12.2106H12.2104V16Z" fill="#EA4335"/>
<path d="M15.9999 3.78943H12.2104V12.2105H15.9999V3.78943Z" fill="#FBBC04"/>
<path d="M12.2106 12.2106H3.78955V16H12.2106V12.2106Z" fill="#34A853"/>
<path d="M0 12.2106V14.7369C0 15.4348 0.565263 16 1.26316 16H3.78947V12.2106H0Z" fill="#188038"/>
<path d="M15.9999 3.78947V1.26316C15.9999 0.565263 15.4347 0 14.7368 0H12.2104V3.78947H15.9999Z" fill="#1967D2"/>
<path d="M12.2105 0H1.26316C0.565263 0 0 0.565263 0 1.26316V12.2105H3.78947V3.78947H12.2105V0Z" fill="#4285F4"/>
<path d="M5.51681 10.3221C5.20208 10.1094 4.98418 9.79891 4.86523 9.38838L5.59576 9.08733C5.66208 9.33996 5.77786 9.53575 5.94313 9.6747C6.10734 9.81364 6.30734 9.88207 6.54102 9.88207C6.77997 9.88207 6.98523 9.80943 7.15681 9.66417C7.32839 9.51891 7.41471 9.33364 7.41471 9.10943C7.41471 8.87996 7.32418 8.69259 7.14313 8.54733C6.96207 8.40206 6.73471 8.32943 6.46313 8.32943H6.04103V7.60627H6.41997C6.65365 7.60627 6.8505 7.54312 7.0105 7.4168C7.1705 7.29049 7.2505 7.11785 7.2505 6.89785C7.2505 6.70206 7.17892 6.54627 7.03576 6.42943C6.8926 6.31259 6.71155 6.25364 6.49155 6.25364C6.27681 6.25364 6.10629 6.31048 5.97997 6.42522C5.85374 6.54026 5.75883 6.68552 5.70418 6.84733L4.98102 6.54627C5.07681 6.2747 5.2526 6.0347 5.5105 5.82733C5.76839 5.61996 6.09787 5.51575 6.49787 5.51575C6.79366 5.51575 7.05997 5.57259 7.29576 5.68733C7.53155 5.80206 7.71681 5.96101 7.8505 6.16312C7.98418 6.36627 8.0505 6.59364 8.0505 6.84627C8.0505 7.10417 7.98839 7.32206 7.86418 7.50101C7.73997 7.67996 7.58734 7.8168 7.40628 7.91259V7.95575C7.64007 8.05213 7.84314 8.21044 7.99365 8.41364C8.14629 8.61891 8.22313 8.86417 8.22313 9.15048C8.22313 9.4368 8.1505 9.69259 8.00523 9.9168C7.85997 10.141 7.65892 10.3179 7.40418 10.4463C7.14839 10.5747 6.86102 10.64 6.54208 10.64C6.1726 10.641 5.83155 10.5347 5.51681 10.3221ZM10.0042 6.6968L9.20208 7.2768L8.80102 6.66838L10.24 5.63049H10.7915V10.5263H10.0042V6.6968Z" fill="#4285F4"/>
</g>
<defs>
<clipPath id="clip0_1447_3061">
<rect width="16" height="16" fill="white"/>
</clipPath>
</defs>
</svg>
