<svg width="20" height="20" viewBox="0 0 20 20" fill="none" xmlns="http://www.w3.org/2000/svg">
<path fill-rule="evenodd" clip-rule="evenodd" d="M4.02291 0.803066L13.8501 6.38503L13.8608 6.37427L14.2524 6.61358L17.6644 8.55288L17.6653 8.55338C18.2462 8.88085 18.6533 9.38529 18.6533 9.99627C18.6533 10.6066 18.2469 11.1127 17.6668 11.4436L14.2528 13.384L13.8608 13.6235L13.8503 13.6129L4.01811 19.2061C3.50178 19.4937 2.92952 19.5914 2.44939 19.4023L2.40591 19.4458L2.22451 19.2878C2.12916 19.2271 2.03911 19.1526 1.95579 19.0634L1.62607 18.7102L1.68503 18.6513C1.55798 18.3798 1.50195 18.0652 1.50195 17.7362V2.26319C1.50195 1.93174 1.55865 1.62064 1.68078 1.35123L1.62683 1.29733L1.86953 1.03596C1.89638 1.00127 1.92479 0.967725 1.95479 0.935396L1.97286 0.915919L2.39882 0.544922L2.45448 0.600546C2.93225 0.413064 3.50369 0.506539 4.02291 0.803066ZM3.52677 1.67131L13.1166 7.11848L11.0471 9.18799L3.52471 1.67014L3.52677 1.67131ZM14.083 7.66754L11.7517 9.99887L14.083 12.3302L17.1713 10.5749C17.5699 10.3475 17.6533 10.1188 17.6533 9.99627C17.6533 9.87465 17.5713 9.64813 17.1737 9.42416L17.172 9.42322L14.083 7.66754ZM10.3373 9.99905L2.50408 2.1737C2.50268 2.20235 2.50195 2.23216 2.50195 2.26319V17.7362C2.50195 17.7696 2.5028 17.8015 2.50439 17.8319L10.3373 9.99905ZM3.50444 18.3473L3.52965 18.3335L13.1169 12.8796L11.0445 10.8072L3.50444 18.3473Z" fill="#FF00FF"/>
</svg>
