<svg width="16" height="16" viewBox="0 0 16 16" fill="none" xmlns="http://www.w3.org/2000/svg">
<path d="M4.19995 5.6H12V12H4.19995V5.6Z" fill="white"/>
<path d="M9.6001 4.8L12.4001 6.04L13.2001 4.4L9.6001 0.800003L8.6001 2.48L9.6001 4.8Z" fill="#188038"/>
<path d="M8.4001 9.2H10.4001V10.4H8.4001V9.2ZM5.6001 7.2H7.6001V8.4H5.6001V7.2Z" fill="#34A853"/>
<path d="M9.60005 4.4V0.800003H4.00005C3.32005 0.800003 2.80005 1.32 2.80005 2V14C2.80005 14.68 3.32005 15.2 4.00005 15.2H12C12.68 15.2 13.2 14.68 13.2 14V4.4H9.60005ZM11.2 11.2H4.80005V6.4H11.2V11.2Z" fill="#34A853"/>
<path d="M5.6001 9.2H7.6001V10.4H5.6001V9.2ZM8.4001 7.2H10.4001V8.4H8.4001V7.2Z" fill="#34A853"/>
</svg>
