<svg width="16" height="16" viewBox="0 0 16 16" fill="none" xmlns="http://www.w3.org/2000/svg">
<g clip-path="url(#clip0_1447_1780)">
<path d="M1.25067 12.9781L1.95203 14.1895C2.09776 14.4446 2.30725 14.6449 2.55318 14.7907L5.05804 10.455H0.0483398C0.0483398 10.7374 0.121209 11.0198 0.266945 11.2748L1.25067 12.9781Z" fill="#FF00FF"/>
<path d="M8.00007 5.35425L10.5049 1.01859C10.259 0.872855 9.97661 0.799988 9.68515 0.799988H6.31499C6.02351 0.799988 5.74115 0.881964 5.49521 1.01859L8.00007 5.35425Z" fill="#FF00FF"/>
<path d="M13.447 14.7907C13.6929 14.6449 13.9024 14.4446 14.0482 14.1895L14.3396 13.6886L15.7332 11.2748C15.879 11.0198 15.9518 10.7374 15.9518 10.455H10.9513L13.447 14.7907Z" fill="#FF00FF"/>
<g opacity="0.75">
<path d="M8.00009 5.35428L5.49525 1.01862C5.24931 1.16435 5.03981 1.36473 4.89408 1.61978L0.266945 9.63528C0.121209 9.89033 0.0483398 10.1727 0.0483398 10.4551H5.05804L8.00009 5.35428Z" fill="#FF00FF"/>
<path d="M10.9422 10.4551L5.05804 10.4551L2.55322 14.7907C2.79916 14.9364 3.08152 15.0093 3.373 15.0093H12.6272C12.9187 15.0093 13.2011 14.9273 13.447 14.7907L10.9422 10.4551Z" fill="#FF00FF"/>
<path d="M13.4197 5.62754L11.1061 1.61978C10.9604 1.36473 10.7509 1.16435 10.5049 1.01862L8.00009 5.35428L10.9422 10.4551L15.9427 10.4551C15.9427 10.1727 15.8699 9.89033 15.7241 9.63528L13.4197 5.62754Z" fill="#FF00FF"/>
</g>
</g>
<defs>
<clipPath id="clip0_1447_1780">
<rect width="16" height="16" fill="white"/>
</clipPath>
</defs>
</svg>
