<svg width="16" height="16" viewBox="0 0 16 16" fill="none" xmlns="http://www.w3.org/2000/svg">
<g clip-path="url(#clip0_1447_2941)">
<path fill-rule="evenodd" clip-rule="evenodd" d="M1.6 0C0.716344 0 0 0.716345 0 1.6V14.4C0 15.2837 0.716345 16 1.6 16H14.4C15.2837 16 16 15.2837 16 14.4V1.6C16 0.716344 15.2837 0 14.4 0H1.6Z" fill="#0E1A45"/>
<path fill-rule="evenodd" clip-rule="evenodd" d="M9.95968 3.30664L8.46976 4.15998L6.97984 5.01331L5.48992 5.86664V10.9866L6.97984 10.1333L8.46976 9.27997V7.57331L6.97984 8.42664V6.71997L8.46976 5.86664L9.95968 5.01331V10.1333L8.46976 10.9866L6.97984 11.84L5.48992 12.6933L4 13.5466L5.48992 14.4L6.97984 13.5466L8.46976 12.6933L9.95968 11.84L11.4496 10.9866V2.45331L9.95968 1.59998V3.30664Z" fill="white"/>
</g>
<defs>
<clipPath id="clip0_1447_2941">
<rect width="16" height="16" fill="white"/>
</clipPath>
</defs>
</svg>
