<svg width="16" height="16" viewBox="0 0 16 16" fill="none" xmlns="http://www.w3.org/2000/svg">
<path fill-rule="evenodd" clip-rule="evenodd" d="M1.6 0C0.716344 0 0 0.716345 0 1.6V14.4C0 15.2837 0.716345 16 1.6 16H14.4C15.2837 16 16 15.2837 16 14.4V1.6C16 0.716344 15.2837 0 14.4 0H1.6Z" fill="#0E1A45"/>
<path fill-rule="evenodd" clip-rule="evenodd" d="M9.95968 3.30667L8.46976 4.16001L6.97984 5.01334L5.48992 5.86667V10.9867L6.97984 10.1333L8.46976 9.28001V7.57334L6.97984 8.42667V6.72001L8.46976 5.86667L9.95968 5.01334V10.1333L8.46976 10.9867L6.97984 11.84L5.48992 12.6933L4 13.5467L5.48992 14.4L6.97984 13.5467L8.46976 12.6933L9.95968 11.84L11.4496 10.9867V2.45334L9.95968 1.60001V3.30667Z" fill="white"/>
</svg>
