<svg width="20" height="20" viewBox="0 0 20 20" fill="none" xmlns="http://www.w3.org/2000/svg">
<g clip-path="url(#clip0)">
<path fill-rule="evenodd" clip-rule="evenodd" d="M9.50346 3.495C9.66106 3.5405 9.82769 3.56487 10.0001 3.56487C10.173 3.56487 10.3401 3.54036 10.498 3.49462L15.8806 12.8173C15.7602 12.9321 15.654 13.066 15.5669 13.2176C15.4802 13.3683 15.418 13.5264 15.3789 13.6874H4.62114C4.58209 13.5265 4.51983 13.3684 4.43314 13.2176C4.34566 13.067 4.2397 12.9339 4.11982 12.8195L9.50346 3.495ZM8.71784 3.02152C8.73445 3.03871 8.75141 3.05556 8.7687 3.07208L3.38481 12.397C3.36155 12.3902 3.33816 12.3839 3.31465 12.3781V7.62101C3.76831 7.50824 4.17708 7.21888 4.428 6.78237C4.6786 6.34644 4.72506 5.84913 4.59672 5.40092L8.71784 3.02152ZM11.7089 2.29189C11.7568 2.13052 11.7825 1.95953 11.7825 1.78244C11.7825 0.796734 10.9858 0 10.0001 0C9.0144 0 8.21767 0.796734 8.21767 1.78244C8.21767 1.95858 8.24311 2.12868 8.29052 2.28929L4.17693 4.66434C4.06154 4.54248 3.9269 4.43485 3.77427 4.3462C2.92135 3.8559 1.8284 4.14702 1.3381 4.99993C0.847802 5.85285 1.13892 6.94581 1.99183 7.43611C2.14412 7.52365 2.30405 7.58628 2.46685 7.62525V12.3758C2.30593 12.4149 2.14778 12.4771 1.99697 12.5638C1.14406 13.0592 0.852945 14.1471 1.34324 15C1.83354 15.8529 2.92139 16.144 3.77941 15.6537C3.93039 15.566 4.06376 15.4598 4.17832 15.3396L8.28974 17.7134C8.24283 17.8732 8.21767 18.0424 8.21767 18.2176C8.21767 19.2033 9.0144 20 10.0001 20C10.9858 20 11.7825 19.1982 11.7825 18.2176C11.7825 18.0212 11.7509 17.8324 11.6925 17.6558L15.7798 15.296C15.9033 15.4347 16.0508 15.5561 16.2206 15.6537C17.0735 16.144 18.1665 15.8529 18.6568 15C19.1522 14.1471 18.861 13.0592 18.003 12.5638C17.8524 12.4772 17.6943 12.415 17.5333 12.376V7.62522C17.696 7.58625 17.8559 7.52362 18.0082 7.43611C18.8611 6.9407 19.1522 5.85285 18.6619 4.99993C18.1665 4.14702 17.0786 3.8559 16.2257 4.3462C16.0723 4.43531 15.9371 4.54359 15.8213 4.66623L11.7089 2.29189ZM11.2325 3.07113C11.2488 3.05555 11.2648 3.03966 11.2805 3.02347L15.4026 5.40343C15.2751 5.85099 15.3219 6.34725 15.572 6.78237C15.8229 7.21892 16.2318 7.50829 16.6855 7.62104V12.3776C16.6623 12.3833 16.6393 12.3895 16.6164 12.396L11.2325 3.07113ZM15.4136 14.6522L11.3183 17.0168C10.9925 16.6592 10.5229 16.4351 10.0001 16.4351C9.49525 16.4351 9.03997 16.6441 8.71592 16.9805L4.60035 14.6043C4.60697 14.5814 4.61315 14.5584 4.61886 14.5352H15.3807C15.3903 14.5746 15.4013 14.6136 15.4136 14.6522Z" fill="#FF00FF"/>
</g>
<defs>
<clipPath id="clip0">
<rect width="20" height="20" fill="white"/>
</clipPath>
</defs>
</svg>
