<svg width="16" height="16" viewBox="0 0 16 16" fill="none" xmlns="http://www.w3.org/2000/svg">
<g clip-path="url(#clip0_1447_1744)">
<path fill-rule="evenodd" clip-rule="evenodd" d="M7.60258 2.796C7.72865 2.8324 7.86195 2.8519 7.99988 2.8519C8.13819 2.8519 8.27185 2.83229 8.39824 2.7957L12.7043 10.2538C12.6079 10.3457 12.523 10.4528 12.4533 10.5741C12.384 10.6946 12.3342 10.8211 12.303 10.95H3.69672C3.66548 10.8212 3.61567 10.6947 3.54632 10.5741C3.47633 10.4536 3.39156 10.3471 3.29566 10.2556L7.60258 2.796ZM6.97407 2.41721C6.98737 2.43097 7.00093 2.44445 7.01476 2.45766L2.70766 9.91757C2.68905 9.91217 2.67033 9.90714 2.65152 9.9025V6.09681C3.01445 6.00659 3.34146 5.7751 3.5422 5.4259C3.74268 5.07715 3.77985 4.67931 3.67718 4.32074L6.97407 2.41721ZM9.36692 1.83351C9.40525 1.70441 9.42582 1.56762 9.42582 1.42595C9.42582 0.637387 8.78844 0 7.99988 0C7.21132 0 6.57394 0.637387 6.57394 1.42595C6.57394 1.56686 6.59429 1.70295 6.63222 1.83143L3.34135 3.73147C3.24904 3.63399 3.14132 3.54788 3.01922 3.47696C2.33689 3.08472 1.46252 3.31761 1.07028 3.99995C0.678046 4.68228 0.910938 5.55665 1.59327 5.94888C1.7151 6.01892 1.84305 6.06902 1.97328 6.1002V9.90067C1.84455 9.93191 1.71803 9.98172 1.59738 10.0511C0.915052 10.4474 0.682161 11.3177 1.0744 12C1.46664 12.6823 2.33692 12.9152 3.02333 12.523C3.14412 12.4528 3.25081 12.3678 3.34246 12.2716L6.6316 14.1707C6.59407 14.2985 6.57394 14.4339 6.57394 14.5741C6.57394 15.3626 7.21132 16 7.99988 16C8.78844 16 9.42582 15.3585 9.42582 14.5741C9.42582 14.417 9.40053 14.2659 9.35379 14.1247L12.6236 12.2368C12.7224 12.3477 12.8404 12.4449 12.9763 12.523C13.6586 12.9152 14.533 12.6823 14.9252 12C15.3215 11.3177 15.0886 10.4474 14.4022 10.0511C14.2817 9.98179 14.1552 9.93202 14.0264 9.90077V6.10017C14.1566 6.069 14.2845 6.0189 14.4063 5.94888C15.0887 5.55256 15.3216 4.68228 14.9293 3.99995C14.533 3.31761 13.6627 3.08472 12.9804 3.47696C12.8576 3.54825 12.7495 3.63488 12.6568 3.73298L9.36692 1.83351ZM8.98579 2.45691C8.99882 2.44444 9.01162 2.43173 9.02417 2.41878L12.3219 4.32274C12.2199 4.68079 12.2573 5.0778 12.4574 5.4259C12.6582 5.77513 12.9852 6.00663 13.3482 6.09683V9.90211C13.3297 9.90665 13.3112 9.91156 13.2929 9.91684L8.98579 2.45691ZM12.3307 11.7218L9.05443 13.6134C8.79379 13.3274 8.41809 13.1481 7.99988 13.1481C7.596 13.1481 7.23178 13.3153 6.97254 13.5844L3.68008 11.6834C3.68538 11.6651 3.69032 11.6467 3.69489 11.6282H12.3043C12.3121 11.6597 12.3209 11.6909 12.3307 11.7218Z" fill="#FF00FF"/>
</g>
<defs>
<clipPath id="clip0_1447_1744">
<rect width="16" height="16" fill="white"/>
</clipPath>
</defs>
</svg>
