<svg width="16" height="16" viewBox="0 0 16 16" fill="none" xmlns="http://www.w3.org/2000/svg">
<path fill-rule="evenodd" clip-rule="evenodd" d="M0 1.6C0 0.716345 0.716344 0 1.6 0H14.4C15.2837 0 16 0.716344 16 1.6V14.4C16 15.2837 15.2837 16 14.4 16H1.6C0.716345 16 0 15.2837 0 14.4V1.6ZM8.46976 4.16L9.95968 3.30667V1.6L11.4496 2.45333V10.9867L9.95968 11.84L8.46976 12.6933L6.97984 13.5467L5.48992 14.4L4 13.5467L5.48992 12.6933L6.97984 11.84L8.46976 10.9867L9.95968 10.1333V5.01333L8.46976 5.86667L6.97984 6.72V8.42667L8.46976 7.57333V9.28L6.97984 10.1333L5.48992 10.9867V5.86667L6.97984 5.01333L8.46976 4.16Z" fill="#FF00FF"/>
</svg>
