<svg width="16" height="16" viewBox="0 0 16 16" fill="none" xmlns="http://www.w3.org/2000/svg">
<path fill-rule="evenodd" clip-rule="evenodd" d="M8.4 2.4H15.2V5.6H8.4V2.4ZM7.6 2.4H0.8V5.6H7.6V2.4ZM0 6.4V5.6V2.4C0 1.95817 0.358172 1.6 0.8 1.6H15.2C15.6418 1.6 16 1.95817 16 2.4V5.6V6.4V9.6V10.4V13.6C16 14.0418 15.6418 14.4 15.2 14.4H8.4H7.6H0.8C0.358172 14.4 0 14.0418 0 13.6V10.4V9.6V6.4ZM0.8 9.6V6.4H7.6V9.6H0.8ZM0.8 10.4V13.6H7.6V10.4H0.8ZM8.4 13.6H15.2V10.4H8.4V13.6ZM15.2 9.6V6.4H8.4V9.6H15.2Z" fill="#FF00FF"/>
</svg>
