<svg width="16" height="16" viewBox="0 0 16 16" fill="none" xmlns="http://www.w3.org/2000/svg">
<path fill-rule="evenodd" clip-rule="evenodd" d="M0.25 4.75C0.25 3.23122 1.48122 2 3 2H8H13C14.5188 2 15.75 3.23122 15.75 4.75V6.25V9.75V11.25C15.75 12.7688 14.5188 14 13 14H8H3C1.48122 14 0.25 12.7688 0.25 11.25V9.75V6.25V4.75ZM3 3.5C2.30964 3.5 1.75 4.05964 1.75 4.75V5.5H7.25V3.5H3ZM8.75 3.5V5.5H14.25V4.75C14.25 4.05964 13.6904 3.5 13 3.5H8.75ZM14.25 7H8.75V9H14.25V7ZM14.25 10.5H8.75V12.5H13C13.6904 12.5 14.25 11.9404 14.25 11.25V10.5ZM7.25 12.5V10.5H1.75V11.25C1.75 11.9404 2.30964 12.5 3 12.5H7.25ZM1.75 9H7.25V7H1.75V9Z" fill="#FF00FF"/>
</svg>
