<svg width="16" height="16" viewBox="0 0 16 16" fill="none" xmlns="http://www.w3.org/2000/svg">
<g clip-path="url(#clip0_1447_3067)">
<path d="M9.05327 8.07719L10.5713 10.6845C10.6022 10.7367 10.6022 10.8015 10.5713 10.8519C10.5422 10.9041 10.4858 10.9365 10.424 10.9365H9.18965C9.12965 10.9365 9.07325 10.9041 9.04235 10.8519L8.23157 9.46007L7.32803 10.8573C7.29713 10.9059 7.2426 10.9347 7.18445 10.9347H5.9319C5.86825 10.9347 5.81007 10.9005 5.78098 10.8465C5.7519 10.7925 5.75371 10.7259 5.78826 10.6737L7.45895 8.14919L6.21366 6.07667C6.18276 6.02447 6.18096 5.95964 6.21186 5.90742C6.24276 5.8534 6.2991 5.82099 6.3609 5.82099H7.60439C7.66439 5.82099 7.72073 5.8516 7.75163 5.90382L9.05327 8.07719Z" fill="#1EB4D4"/>
<path fill-rule="evenodd" clip-rule="evenodd" d="M14.8802 0.0932177C15.7818 1.15019 16.0618 4.01319 15.5964 5.44829C15.4419 5.92545 15.3983 6.42965 15.4873 6.91943C15.5782 7.40555 15.6691 7.99259 15.6691 8.40131C15.6691 12.5968 12.235 16 7.99739 16C3.76159 16 0.325678 12.5986 0.325678 8.40131C0.325678 7.99259 0.416575 7.40555 0.507475 6.91943C0.598369 6.42965 0.556555 5.92545 0.402032 5.44829C-0.0633617 4.01499 0.216602 1.15199 1.1183 0.0932177C1.23647 -0.0436303 1.45644 -0.025624 1.55461 0.12743L2.66537 1.85423C2.9417 2.19815 3.43618 2.27918 3.80704 2.0379C5.01234 1.25642 6.45215 0.802667 7.99925 0.802667C9.54628 0.802667 10.9861 1.25642 12.1914 2.0379C12.5641 2.27918 13.0586 2.19995 13.3331 1.85423L14.4438 0.12743C14.542 -0.025624 14.762 -0.0454309 14.8802 0.0932177ZM2.05818 8.41931C2.05818 11.664 4.72147 14.3038 7.99739 14.3038C11.2733 14.3038 13.9385 11.664 13.9403 8.42111C13.9403 8.31671 13.9366 8.21045 13.9311 8.10599C13.813 5.89665 12.4568 4.00598 10.5389 3.10567C9.7681 2.74014 8.90819 2.53847 7.99925 2.53847C7.09025 2.53847 6.22853 2.74014 5.45955 3.10387C3.54162 4.00419 2.18543 5.89304 2.06727 8.10419C2.06182 8.20865 2.05818 8.31311 2.05818 8.41931Z" fill="#1EB4D4"/>
</g>
<defs>
<clipPath id="clip0_1447_3067">
<rect width="16" height="16" fill="white"/>
</clipPath>
</defs>
</svg>
