<svg width="20" height="20" viewBox="0 0 20 20" fill="none" xmlns="http://www.w3.org/2000/svg">
<path fill-rule="evenodd" clip-rule="evenodd" d="M18.6001 0.116522C19.7272 1.43773 20.0771 5.01649 19.4954 6.81036C19.3022 7.40682 19.2477 8.03706 19.359 8.64929C19.4726 9.25694 19.5863 9.99074 19.5863 10.5016C19.5863 15.746 15.2936 20 9.99661 20C4.70187 20 0.406975 15.7483 0.406975 10.5016C0.406975 9.99074 0.520597 9.25694 0.634222 8.64929C0.74784 8.03706 0.695572 7.40682 0.502418 6.81036C-0.0793242 5.01874 0.27063 1.43998 1.39775 0.116522C1.54546 -0.0545379 1.82043 -0.0320299 1.94314 0.159287L3.33159 2.31779C3.677 2.74769 4.2951 2.84898 4.75868 2.54737C6.2653 1.57053 8.06506 1.00333 9.99894 1.00333C11.9327 1.00333 13.7325 1.57053 15.2391 2.54737C15.705 2.84898 16.3231 2.74994 16.6662 2.31779L18.0547 0.159287C18.1774 -0.0320299 18.4523 -0.0567886 18.6001 0.116522ZM2.5726 10.5241C2.5726 14.5801 5.90171 17.8798 9.99661 17.8798C14.0915 17.8798 17.423 14.5801 17.4252 10.5264C17.4252 10.3959 17.4206 10.2631 17.4138 10.1325C17.2661 7.37081 15.5709 5.00748 13.1735 3.88208C12.21 3.42518 11.1351 3.17309 9.99894 3.17309C8.86269 3.17309 7.78554 3.42518 6.82432 3.87984C4.4269 5.00523 2.73167 7.3663 2.58397 10.1302C2.57715 10.2608 2.5726 10.3914 2.5726 10.5241ZM11.3165 10.0965L13.214 13.3556C13.2526 13.4209 13.2526 13.5019 13.214 13.5649C13.1776 13.6302 13.1072 13.6707 13.0299 13.6707H11.4869C11.4119 13.6707 11.3414 13.6302 11.3028 13.5649L10.2893 11.8251L9.15992 13.5717C9.1213 13.6324 9.05312 13.6684 8.98045 13.6684H7.41475C7.33519 13.6684 7.26247 13.6257 7.22611 13.5582C7.18975 13.4907 7.19202 13.4074 7.2352 13.3421L9.32357 10.1865L7.76695 7.59584C7.72832 7.53059 7.72607 7.44955 7.7647 7.38427C7.80332 7.31675 7.87375 7.27624 7.951 7.27624H9.50537C9.58037 7.27624 9.6508 7.3145 9.68942 7.37977L11.3165 10.0965Z" fill="#FF00FF"/>
</svg>
