<svg width="16" height="16" viewBox="0 0 16 16" fill="none" xmlns="http://www.w3.org/2000/svg">
<g clip-path="url(#clip0_1447_1729)">
<path d="M9.05303 8.07719L10.571 10.6845C10.6019 10.7367 10.6019 10.8015 10.571 10.8519C10.5419 10.9041 10.4856 10.9365 10.4238 10.9365H9.18941C9.12941 10.9365 9.07301 10.9041 9.04211 10.8519L8.23133 9.46007L7.32779 10.8573C7.29689 10.9059 7.24235 10.9347 7.18421 10.9347H5.93165C5.868 10.9347 5.80983 10.9005 5.78074 10.8465C5.75165 10.7925 5.75347 10.7259 5.78801 10.6737L7.45871 8.14919L6.21341 6.07667C6.18251 6.02447 6.18071 5.95964 6.21161 5.90742C6.24251 5.8534 6.29885 5.82099 6.36065 5.82099H7.60415C7.66415 5.82099 7.72049 5.8516 7.75139 5.90382L9.05303 8.07719Z" fill="#FF00FF"/>
<path fill-rule="evenodd" clip-rule="evenodd" d="M14.8799 0.0932177C15.7816 1.15019 16.0616 4.01319 15.5961 5.44829C15.4416 5.92545 15.398 6.42965 15.4871 6.91943C15.578 7.40555 15.6689 7.99259 15.6689 8.40131C15.6689 12.5968 12.2348 16 7.99714 16C3.76135 16 0.325434 12.5986 0.325434 8.40131C0.325434 7.99259 0.416331 7.40555 0.507231 6.91943C0.598125 6.42965 0.556311 5.92545 0.401788 5.44829C-0.0636058 4.01499 0.216358 1.15199 1.11805 0.0932177C1.23622 -0.0436303 1.4562 -0.025624 1.55436 0.12743L2.66513 1.85423C2.94145 2.19815 3.43594 2.27918 3.8068 2.0379C5.01209 1.25642 6.4519 0.802667 7.999 0.802667C9.54604 0.802667 10.9859 1.25642 12.1911 2.0379C12.5639 2.27918 13.0583 2.19995 13.3328 1.85423L14.4436 0.12743C14.5418 -0.025624 14.7617 -0.0454309 14.8799 0.0932177ZM2.05794 8.41931C2.05794 11.664 4.72122 14.3038 7.99714 14.3038C11.2731 14.3038 13.9382 11.664 13.94 8.42111C13.94 8.31671 13.9364 8.21045 13.9309 8.10599C13.8128 5.89665 12.4566 4.00598 10.5386 3.10567C9.76786 2.74014 8.90794 2.53847 7.999 2.53847C7.09 2.53847 6.22828 2.74014 5.45931 3.10387C3.54137 4.00419 2.18519 5.89304 2.06703 8.10419C2.06157 8.20865 2.05794 8.31311 2.05794 8.41931Z" fill="#FF00FF"/>
</g>
<defs>
<clipPath id="clip0_1447_1729">
<rect width="16" height="16" fill="white"/>
</clipPath>
</defs>
</svg>
