<svg width="20" height="20" viewBox="0 0 20 20" fill="none" xmlns="http://www.w3.org/2000/svg">
<path opacity="0.2" d="M10 20C15.5228 20 20 15.5228 20 10C20 4.47715 15.5228 0 10 0C4.47715 0 0 4.47715 0 10C0 15.5228 4.47715 20 10 20Z" fill="#FF00FF"/>
<path fill-rule="evenodd" clip-rule="evenodd" d="M8.86817 10.2335C8.86817 10.6707 9.01391 11.0682 9.3319 11.373L10.5111 10.9755C10.3256 10.843 10.2196 10.5912 10.2196 10.3793C10.2196 9.86422 10.6695 9.54381 11.1763 9.18287C11.8298 8.71743 12.578 8.1846 12.578 7.08016C12.578 5.88771 11.5578 5 9.88837 5C8.69592 5 7.67572 5.47698 7 6.31169L7.90096 7.3054C8.33819 6.73567 8.92116 6.37794 9.74263 6.37794C10.5906 6.37794 11.0013 6.81517 11.0013 7.3319C11.0013 7.84426 10.5598 8.15643 10.0785 8.49673C9.50188 8.90442 8.86817 9.35248 8.86817 10.2335ZM8.88142 13.1749C8.88142 13.6784 9.3054 14.1156 9.80887 14.1156C10.3124 14.1156 10.7363 13.6784 10.7363 13.1749C10.7363 12.6847 10.3124 12.2607 9.80887 12.2607C9.3054 12.2607 8.88142 12.6847 8.88142 13.1749Z" fill="#FF00FF"/>
</svg>
