<svg width="16" height="16" viewBox="0 0 16 16" fill="none" xmlns="http://www.w3.org/2000/svg">
<g clip-path="url(#clip0_1447_2120)">
<path opacity="0.2" d="M8 16C12.4183 16 16 12.4183 16 8C16 3.58172 12.4183 0 8 0C3.58172 0 0 3.58172 0 8C0 12.4183 3.58172 16 8 16Z" fill="#FF00FF"/>
<path fill-rule="evenodd" clip-rule="evenodd" d="M7.09463 8.18681C7.09463 8.5366 7.21123 8.85458 7.46561 9.09837L8.40897 8.78039C8.26058 8.67439 8.17578 8.473 8.17578 8.30341C8.17578 7.89138 8.5357 7.63505 8.94114 7.3463C9.46397 6.97394 10.0625 6.54768 10.0625 5.66413C10.0625 4.71017 9.24633 4 7.91079 4C6.95684 4 6.14067 4.38158 5.6001 5.04935L6.32087 5.84432C6.67065 5.38854 7.13703 5.10235 7.7942 5.10235C8.47257 5.10235 8.80115 5.45213 8.80115 5.86552C8.80115 6.27541 8.44794 6.52515 8.0629 6.79739C7.6016 7.12354 7.09463 7.48199 7.09463 8.18681ZM7.10523 10.5399C7.10523 10.9427 7.44442 11.2925 7.8472 11.2925C8.24998 11.2925 8.58916 10.9427 8.58916 10.5399C8.58916 10.1477 8.24998 9.80854 7.8472 9.80854C7.44442 9.80854 7.10523 10.1477 7.10523 10.5399Z" fill="#FF00FF"/>
</g>
<defs>
<clipPath id="clip0_1447_2120">
<rect width="16" height="16" fill="white"/>
</clipPath>
</defs>
</svg>
