<svg width="20" height="20" viewBox="0 0 20 20" fill="none" xmlns="http://www.w3.org/2000/svg">
<path fill-rule="evenodd" clip-rule="evenodd" d="M2.81562 0H17.2156C18.2096 0 19.0156 0.806 19.0156 1.8V18.2C19.0156 19.194 18.2096 20 17.2156 20H2.81562C1.82162 20 1.01562 19.194 1.01562 18.2V1.8C1.01562 0.806 1.82162 0 2.81562 0ZM17.2156 19C17.6569 19 18.0156 18.641 18.0156 18.2V1.8C18.0156 1.35875 17.6569 1 17.2156 1H2.81562C2.37462 1 2.01562 1.35875 2.01562 1.8V18.2C2.01562 18.641 2.37462 19 2.81562 19H17.2156ZM5.76562 17L8.01562 15L5.76562 13V17ZM11.5156 8C12.7519 8 13.4919 8.486 13.8949 8.89375C14.7551 9.76375 14.7669 10.872 14.7656 11V17H12.7656V11.0275C12.7559 10.5608 12.5311 10 11.5156 10C9.48213 10 7.20113 11.0227 7.17838 11.033L5.76562 11.673V3H7.76562V8.67775C8.76412 8.35275 10.1599 8 11.5156 8ZM12.7656 3C12.5451 4.1335 12.0516 5.21875 11.2656 6.25H13.2656C14.1701 5.225 14.6306 4.136 14.7656 3H12.7656Z" fill="#430098"/>
</svg>
