<svg width="16" height="16" viewBox="0 0 16 16" fill="none" xmlns="http://www.w3.org/2000/svg">
<path fill-rule="evenodd" clip-rule="evenodd" d="M6.94983 1.85001C7.57205 1.38334 8.42761 1.38333 9.04984 1.84999L12.4332 4.38752L15.4159 6.37596C15.7605 6.60573 15.8536 7.07138 15.6239 7.41603C15.3941 7.76067 14.9285 7.8538 14.5838 7.62403L12.7499 6.40141V11.5C12.7499 12.4665 11.9664 13.25 10.9999 13.25H4.9999C4.0334 13.25 3.2499 12.4665 3.2499 11.5V6.40138L1.41585 7.62404C1.0712 7.8538 0.605552 7.76066 0.375792 7.41601C0.146033 7.07137 0.239169 6.60571 0.583818 6.37595L3.56655 4.38752L6.94983 1.85001ZM4.7499 6.75V11.5C4.7499 11.6381 4.86183 11.75 4.9999 11.75H10.9999C11.138 11.75 11.2499 11.6381 11.2499 11.5V6.75H4.7499ZM11.0832 5.25L8.14984 3.05C8.06095 2.98333 7.93873 2.98333 7.84984 3.05L4.91657 5.25H11.0832Z" fill="#FF00FF"/>
</svg>
