<svg width="20" height="20" viewBox="0 0 20 20" fill="none" xmlns="http://www.w3.org/2000/svg">
<path fill-rule="evenodd" clip-rule="evenodd" d="M1.1958 0.0300903L2.79828 18.0037L9.98925 20L17.2001 18.0009L18.8042 0.0300903H1.1958ZM9.9924 8.16587H7.08303L6.88158 5.90854H9.9924H10H15.31H15.3171L15.3613 5.41305L15.4617 4.29553L15.5144 3.70412H10H9.9924H4.47245L4.52522 4.29553L5.06701 10.3702H9.9924H10H12.7069L12.451 13.2292L9.9924 13.8928V13.8929L9.99036 13.8935L7.53532 13.2306L7.37837 11.4725H6.18541H5.16551L5.47434 14.9337L9.98988 16.1872L10 16.1844V16.184L14.5115 14.9337L14.5447 14.5613L15.0627 8.75781L15.1165 8.16587H14.5225H10H9.9924Z" fill="#FF00FF"/>
</svg>
