<svg width="16" height="16" viewBox="0 0 16 16" fill="none" xmlns="http://www.w3.org/2000/svg">
<g clip-path="url(#clip0_2179_3811)">
<path fill-rule="evenodd" clip-rule="evenodd" d="M2.23852 14.403L0.956543 0.0240479H15.0433L13.76 14.4007L7.9913 16L2.23852 14.403Z" fill="#E44D26"/>
<path fill-rule="evenodd" clip-rule="evenodd" d="M8 14.7775L12.6614 13.4852L13.7581 1.19971H8V14.7775Z" fill="#F16529"/>
<path fill-rule="evenodd" clip-rule="evenodd" d="M7.99994 6.53266H5.66635L5.50518 4.72679H7.99994V2.96326H7.99384H3.57788L3.62009 3.43638L4.05353 8.29615H7.99994V6.53266Z" fill="#EBEBEB"/>
<path fill-rule="evenodd" clip-rule="evenodd" d="M7.99994 11.1127L7.99221 11.1148L6.02817 10.5845L5.90262 9.17798H4.94825H4.13232L4.37939 11.9469L7.99182 12.9498L7.99994 12.9475V11.1127Z" fill="#EBEBEB"/>
<path fill-rule="evenodd" clip-rule="evenodd" d="M7.9939 6.53271V8.29621H10.1655L9.96077 10.5834L7.9939 11.1142V12.9489L11.6092 11.947L11.6357 11.649L12.0501 7.00627L12.0932 6.53271H11.6179H7.9939Z" fill="white"/>
<path fill-rule="evenodd" clip-rule="evenodd" d="M7.9939 2.96326V4.05856V4.72248V4.72679H12.248H12.2536L12.289 4.3304L12.3694 3.43638L12.4115 2.96326H7.9939Z" fill="white"/>
</g>
<defs>
<clipPath id="clip0_2179_3811">
<rect width="16" height="16" fill="white"/>
</clipPath>
</defs>
</svg>
