<svg width="16" height="16" viewBox="0 0 16 16" fill="none" xmlns="http://www.w3.org/2000/svg">
<g clip-path="url(#clip0_1447_3087)">
<path fill-rule="evenodd" clip-rule="evenodd" d="M2.23852 14.403L0.956543 0.0240479H15.0433L13.76 14.4007L7.9913 16L2.23852 14.403Z" fill="#E44D26"/>
<path fill-rule="evenodd" clip-rule="evenodd" d="M8 14.7775L12.6614 13.4852L13.7581 1.19971H8V14.7775Z" fill="#F16529"/>
<path fill-rule="evenodd" clip-rule="evenodd" d="M8.00018 6.53266H5.66659L5.50543 4.72679H8.00018V2.96326H7.99409H3.57812L3.62034 3.43638L4.05378 8.29615H8.00018V6.53266Z" fill="#EBEBEB"/>
<path fill-rule="evenodd" clip-rule="evenodd" d="M7.99994 11.1127L7.99221 11.1148L6.02817 10.5845L5.90262 9.17798H4.94825H4.13232L4.37939 11.9469L7.99182 12.9498L7.99994 12.9475V11.1127Z" fill="#EBEBEB"/>
<path fill-rule="evenodd" clip-rule="evenodd" d="M7.99414 6.53271V8.29621H10.1657L9.96101 10.5834L7.99414 11.1142V12.9489L11.6094 11.947L11.636 11.649L12.0504 7.00627L12.0934 6.53271H11.6182H7.99414Z" fill="white"/>
<path fill-rule="evenodd" clip-rule="evenodd" d="M7.99414 2.96326V4.05856V4.72248V4.72679H12.2482H12.2539L12.2892 4.3304L12.3696 3.43638L12.4118 2.96326H7.99414Z" fill="white"/>
</g>
<defs>
<clipPath id="clip0_1447_3087">
<rect width="16" height="16" fill="white"/>
</clipPath>
</defs>
</svg>
