<svg width="20" height="20" viewBox="0 0 20 20" fill="none" xmlns="http://www.w3.org/2000/svg">
<path fill-rule="evenodd" clip-rule="evenodd" d="M2.79828 18.0037L1.1958 0.0300903H18.8042L17.2001 18.0009L9.98925 20L2.79828 18.0037Z" fill="#E44D26"/>
<path fill-rule="evenodd" clip-rule="evenodd" d="M10 18.472L15.8267 16.8566L17.1976 1.49971H10V18.472Z" fill="#F16529"/>
<path fill-rule="evenodd" clip-rule="evenodd" d="M9.99998 8.16588H7.08299L6.88154 5.90855H9.99998V3.70413H9.99236H4.47241L4.52518 4.29554L5.06698 10.3702H9.99998V8.16588Z" fill="#EBEBEB"/>
<path fill-rule="evenodd" clip-rule="evenodd" d="M10 13.8909L9.99038 13.8935L7.53533 13.2306L7.37839 11.4725H6.18543H5.16553L5.47436 14.9337L9.9899 16.1872L10 16.1844V13.8909Z" fill="#EBEBEB"/>
<path fill-rule="evenodd" clip-rule="evenodd" d="M9.99243 8.16588V10.3702H12.7069L12.451 13.2292L9.99243 13.8928V16.1862L14.5116 14.9337L14.5447 14.5613L15.0627 8.75782L15.1165 8.16588H14.5225H9.99243Z" fill="white"/>
<path fill-rule="evenodd" clip-rule="evenodd" d="M9.99243 3.70413V5.07326V5.90316V5.90855H15.31H15.3171L15.3613 5.41306L15.4618 4.29554L15.5145 3.70413H9.99243Z" fill="white"/>
</svg>
