<svg width="16" height="16" viewBox="0 0 16 16" fill="none" xmlns="http://www.w3.org/2000/svg">
<path d="M8 5C7.20435 5 6.44129 5.31607 5.87868 5.87868C5.31607 6.44129 5 7.20435 5 8V12C5 12.7956 5.31607 13.5587 5.87868 14.1213C6.44129 14.6839 7.20435 15 8 15C8.79565 15 9.55871 14.6839 10.1213 14.1213C10.6839 13.5587 11 12.7956 11 12V8C11 7.20435 10.6839 6.44129 10.1213 5.87868C9.55871 5.31607 8.79565 5 8 5ZM5.875 8.935H10.125V11.06H5.875V8.935ZM8 14.125C7.43723 14.1224 6.89825 13.8976 6.5003 13.4997C6.10236 13.1018 5.87763 12.5628 5.875 12V11.935H10.125V12C10.1224 12.5628 9.89764 13.1018 9.4997 13.4997C9.10175 13.8976 8.56277 14.1224 8 14.125ZM10.125 8.06H5.875V8C5.875 7.43641 6.09888 6.89591 6.4974 6.4974C6.89591 6.09888 7.43641 5.875 8 5.875C8.56359 5.875 9.10409 6.09888 9.5026 6.4974C9.90112 6.89591 10.125 7.43641 10.125 8V8.06Z" fill="#FF00FF"/>
<path d="M15.33 9.605L12 6.5V11.05C12 11.5804 12.2107 12.0891 12.5858 12.4642C12.9609 12.8393 13.4696 13.05 14 13.05C14.5304 13.05 15.0391 12.8393 15.4142 12.4642C15.7893 12.0891 16 11.5804 16 11.05C15.9986 10.7752 15.938 10.5039 15.8224 10.2545C15.7067 10.0052 15.5388 9.78367 15.33 9.605ZM14 12.175C13.7016 12.175 13.4155 12.0565 13.2045 11.8455C12.9935 11.6345 12.875 11.3484 12.875 11.05V8.5L14.735 10.235C14.8469 10.3291 14.9373 10.4461 15.0003 10.578C15.0632 10.7099 15.0972 10.8538 15.1 11C15.1067 11.1498 15.0834 11.2994 15.0314 11.4401C14.9794 11.5808 14.8999 11.7096 14.7974 11.8191C14.6949 11.9286 14.5716 12.0165 14.4346 12.0776C14.2977 12.1387 14.1499 12.1718 14 12.175Z" fill="#FF00FF"/>
<path d="M0 11.05C0 11.5804 0.210714 12.0891 0.585786 12.4642C0.960859 12.8393 1.46957 13.05 2 13.05C2.53043 13.05 3.03914 12.8393 3.41421 12.4642C3.78929 12.0891 4 11.5804 4 11.05V6.5L0.67 9.605C0.462425 9.78473 0.295366 10.0065 0.179867 10.2556C0.0643682 10.5047 0.00306147 10.7754 0 11.05ZM1.24 10.27L3.125 8.5V11.05C3.125 11.3484 3.00647 11.6345 2.7955 11.8455C2.58452 12.0565 2.29837 12.175 2 12.175C1.70163 12.175 1.41548 12.0565 1.2045 11.8455C0.993526 11.6345 0.875 11.3484 0.875 11.05C0.875616 10.9013 0.908581 10.7545 0.97161 10.6198C1.03464 10.4851 1.12622 10.3658 1.24 10.27Z" fill="#FF00FF"/>
<path d="M7.5 2.75C7.5 2.40388 7.39737 2.06554 7.20507 1.77775C7.01278 1.48997 6.73947 1.26566 6.4197 1.13321C6.09993 1.00076 5.74806 0.966102 5.40859 1.03363C5.06913 1.10115 4.75731 1.26782 4.51256 1.51256C4.26782 1.75731 4.10115 2.06913 4.03363 2.40859C3.9661 2.74806 4.00076 3.09993 4.13321 3.4197C4.26567 3.73947 4.48997 4.01278 4.77775 4.20507C5.06554 4.39737 5.40388 4.5 5.75 4.5C6.21413 4.5 6.65925 4.31563 6.98744 3.98744C7.31563 3.65925 7.5 3.21413 7.5 2.75ZM4.875 2.75C4.875 2.57694 4.92632 2.40777 5.02247 2.26388C5.11861 2.11998 5.25527 2.00783 5.41515 1.94161C5.57504 1.87538 5.75097 1.85805 5.9207 1.89181C6.09044 1.92558 6.24635 2.00891 6.36872 2.13128C6.49109 2.25365 6.57443 2.40956 6.60819 2.5793C6.64195 2.74903 6.62462 2.92496 6.5584 3.08485C6.49217 3.24473 6.38002 3.38139 6.23612 3.47754C6.09223 3.57368 5.92306 3.625 5.75 3.625C5.51874 3.6224 5.29769 3.52938 5.13416 3.36585C4.97062 3.20231 4.8776 2.98126 4.875 2.75Z" fill="#FF00FF"/>
<path d="M10.25 1C9.90388 1 9.56554 1.10264 9.27775 1.29493C8.98997 1.48722 8.76567 1.76053 8.63321 2.0803C8.50076 2.40007 8.4661 2.75194 8.53363 3.09141C8.60115 3.43087 8.76782 3.74269 9.01256 3.98744C9.25731 4.23218 9.56913 4.39885 9.90859 4.46637C10.2481 4.5339 10.5999 4.49924 10.9197 4.36679C11.2395 4.23434 11.5128 4.01003 11.7051 3.72225C11.8974 3.43446 12 3.09612 12 2.75C12 2.28587 11.8156 1.84075 11.4874 1.51256C11.1592 1.18437 10.7141 1 10.25 1ZM10.25 3.625C10.0769 3.625 9.90777 3.57368 9.76388 3.47754C9.61998 3.38139 9.50783 3.24473 9.44161 3.08485C9.37538 2.92496 9.35805 2.74903 9.39181 2.5793C9.42558 2.40956 9.50891 2.25365 9.63128 2.13128C9.75365 2.00891 9.90956 1.92558 10.0793 1.89181C10.249 1.85805 10.425 1.87538 10.5848 1.94161C10.7447 2.00783 10.8814 2.11998 10.9775 2.26388C11.0737 2.40777 11.125 2.57694 11.125 2.75C11.1224 2.98126 11.0294 3.20231 10.8658 3.36585C10.7023 3.52938 10.4813 3.6224 10.25 3.625Z" fill="#FF00FF"/>
</svg>
