<svg width="16" height="16" viewBox="0 0 16 16" fill="none" xmlns="http://www.w3.org/2000/svg">
<path opacity="0.3" fill-rule="evenodd" clip-rule="evenodd" d="M15 12.5762V12L11.7059 8.7059C11.316 8.31604 10.6144 8.22894 10.1402 8.51046L9.85979 8.67696C9.38494 8.95889 8.74422 8.83042 8.42157 8.38005L6.57843 5.80737C6.25897 5.36147 5.62467 5.26193 5.17831 5.57346L0.5 8.83848V11.0554C0.5 12.4111 1.52869 13.5 2.80441 13.5H13.1956C13.9264 13.5 14.5778 13.1392 15 12.5762Z" fill="#FF00FF"/>
<path fill-rule="evenodd" clip-rule="evenodd" d="M10 3H6C4.55752 3 3.57625 3.00212 2.84143 3.10092C2.13538 3.19584 1.80836 3.36322 1.58579 3.58579C1.36322 3.80836 1.19584 4.13538 1.10092 4.84143C1.00212 5.57625 1 6.55752 1 8C1 9.44248 1.00212 10.4237 1.10092 11.1586C1.19584 11.8646 1.36322 12.1916 1.58579 12.4142C1.80836 12.6368 2.13538 12.8042 2.84143 12.8991C3.57625 12.9979 4.55752 13 6 13H10C11.4425 13 12.4237 12.9979 13.1586 12.8991C13.8646 12.8042 14.1916 12.6368 14.4142 12.4142C14.6368 12.1916 14.8042 11.8646 14.8991 11.1586C14.9979 10.4237 15 9.44248 15 8C15 6.55752 14.9979 5.57625 14.8991 4.84143C14.8042 4.13538 14.6368 3.80836 14.4142 3.58579C14.1916 3.36322 13.8646 3.19584 13.1586 3.10092C12.4237 3.00212 11.4425 3 10 3ZM0.87868 2.87868C0 3.75736 0 5.17157 0 8C0 10.8284 0 12.2426 0.87868 13.1213C1.75736 14 3.17157 14 6 14H10C12.8284 14 14.2426 14 15.1213 13.1213C16 12.2426 16 10.8284 16 8C16 5.17157 16 3.75736 15.1213 2.87868C14.2426 2 12.8284 2 10 2H6C3.17157 2 1.75736 2 0.87868 2.87868Z" fill="#FF00FF"/>
</svg>
