<svg width="20" height="20" viewBox="0 0 20 20" fill="none" xmlns="http://www.w3.org/2000/svg">
<path fill-rule="evenodd" clip-rule="evenodd" d="M1 6.25015C1 4.7303 2.2303 3.5 3.74644 3.5H16.2536C17.771 3.5 19 4.72296 19 6.25015V13.75C19 14.1871 18.8982 14.6003 18.7172 14.9672L14.6324 10.8824C14.1451 10.3951 13.268 10.2862 12.6753 10.6381L12.3247 10.8462C11.7312 11.1986 10.9303 11.038 10.527 10.4751L8.22304 7.25923C7.82372 6.70185 7.03084 6.57743 6.47288 6.96683L1 10.7864V6.25015ZM0 6.25015C0 4.179 1.67703 2.5 3.74644 2.5H16.2536C18.3227 2.5 20 4.17005 20 6.25015V13.75C20 15.8212 18.323 17.5002 16.2536 17.5002H3.74644C1.67734 17.5002 0 15.8301 0 13.75V6.25015Z" fill="#FF00FF"/>
</svg>
