<svg width="16" height="16" viewBox="0 0 16 16" fill="none" xmlns="http://www.w3.org/2000/svg">
<path opacity="0.3" fill-rule="evenodd" clip-rule="evenodd" d="M15 12.5762V12L11.7059 8.70591C11.316 8.31605 10.6144 8.22896 10.1402 8.51048L9.85979 8.67697C9.38494 8.9589 8.74422 8.83043 8.42157 8.38007L6.57843 5.80739C6.25897 5.36148 5.62467 5.26195 5.17831 5.57347L0.5 8.8385V11.0554C0.5 12.4111 1.52869 13.5 2.80441 13.5H13.1956C13.9264 13.5 14.5778 13.1392 15 12.5762Z" fill="#FF00FF"/>
<path fill-rule="evenodd" clip-rule="evenodd" d="M2.99715 2.8C1.78424 2.8 0.8 3.78424 0.8 5.00012V11C0.8 12.2218 1.7832 13.2001 2.99715 13.2001H13.0028C14.2158 13.2001 15.2 12.2159 15.2 11V5.00012C15.2 3.77837 14.2168 2.8 13.0028 2.8H2.99715ZM2.99715 2C1.34162 2 0 3.3432 0 5.00012V11C0 12.6641 1.34187 14.0001 2.99715 14.0001H13.0028C14.6584 14.0001 16 12.6569 16 11V5.00012C16 3.33604 14.6581 2 13.0028 2H2.99715Z" fill="#FF00FF"/>
</svg>
