<svg width="16" height="16" viewBox="0 0 16 16" fill="none" xmlns="http://www.w3.org/2000/svg">
<path fill-rule="evenodd" clip-rule="evenodd" d="M0.8 5.00012C0.8 3.78424 1.78424 2.8 2.99715 2.8H13.0028C14.2168 2.8 15.2 3.77837 15.2 5.00012V11C15.2 11.3497 15.1186 11.6802 14.9737 11.9737L11.7059 8.70591C11.316 8.31605 10.6144 8.22895 10.1402 8.51048L9.85979 8.67697C9.38494 8.9589 8.74422 8.83043 8.42157 8.38007L6.57843 5.80738C6.25897 5.36148 5.62467 5.26194 5.17831 5.57347L0.8 8.62912V5.00012ZM0 5.00012C0 3.3432 1.34162 2 2.99715 2H13.0028C14.6581 2 16 3.33604 16 5.00012V11C16 12.6569 14.6584 14.0001 13.0028 14.0001H2.99715C1.34187 14.0001 0 12.6641 0 11V5.00012Z" fill="#FF00FF"/>
</svg>
