<svg width="20" height="20" viewBox="0 0 20 20" fill="none" xmlns="http://www.w3.org/2000/svg">
<rect width="20" height="20" fill="#FF5BA2"/>
<path fill-rule="evenodd" clip-rule="evenodd" d="M18.5938 1.40625H1.40625V18.5938H18.5938V1.40625ZM5.97958 13.9598H7.6125V13.9601C7.64404 13.96 7.67497 13.9285 7.675 13.8976V5.28888C7.67497 5.25811 7.64404 5.22639 7.6125 5.2266H5.97958C5.94849 5.22638 5.91683 5.25811 5.91708 5.28855V13.8973C5.91683 13.9281 5.94849 13.9596 5.97958 13.9598ZM14.0375 5.28854V12.6802C14.0461 12.9355 14.0729 13.1103 14.0918 13.2335C14.1154 13.387 14.1267 13.4606 14.075 13.5101C13.0527 14.1266 10.616 14.3665 9.67583 13.5097C7.045 11.043 8.94333 6.60554 12.2958 7.22137V5.28858C12.2957 5.25782 12.3235 5.22608 12.3583 5.2263H13.9754C14.0073 5.2261 14.0374 5.25782 14.0375 5.28839V5.28854ZM12.2958 8.61188V12.6335C10.6767 13.0025 10.2889 11.785 10.2497 10.587C10.2435 10.1306 10.3686 8.07204 12.2958 8.61188Z" fill="#422F36"/>
</svg>
