<svg width="16" height="16" viewBox="0 0 16 16" fill="none" xmlns="http://www.w3.org/2000/svg">
<g clip-path="url(#clip0_1447_3129)">
<rect width="16" height="16" fill="#FF5BA2"/>
<path fill-rule="evenodd" clip-rule="evenodd" d="M14.875 1.125H1.125V14.875H14.875V1.125ZM4.78367 11.1678H6.09V11.1681C6.11523 11.168 6.13997 11.1428 6.14 11.1181V4.2311C6.13997 4.20649 6.11523 4.18111 6.09 4.18128H4.78367C4.75879 4.1811 4.73347 4.20649 4.73367 4.23084V11.1178C4.73346 11.1425 4.75879 11.1677 4.78367 11.1678ZM11.23 4.23083V10.1442C11.2368 10.3484 11.2583 10.4882 11.2734 10.5868C11.2923 10.7096 11.3013 10.7685 11.26 10.8081C10.4422 11.3013 8.4928 11.4932 7.74067 10.8078C5.636 8.83443 7.15467 5.28443 9.83667 5.7771V4.23087C9.8366 4.20626 9.85882 4.18087 9.88667 4.18104H11.1803C11.2059 4.18088 11.2299 4.20626 11.23 4.23071V4.23083ZM9.83667 6.8895V10.1068C8.54133 10.402 8.23115 9.42803 8.19973 8.46957C8.19477 8.1045 8.29487 6.45763 9.83667 6.8895Z" fill="#422F36"/>
</g>
<defs>
<clipPath id="clip0_1447_3129">
<rect width="16" height="16" fill="white"/>
</clipPath>
</defs>
</svg>
