<svg width="20" height="20" viewBox="0 0 20 20" fill="none" xmlns="http://www.w3.org/2000/svg">
<path opacity="0.2" d="M10 20C15.5228 20 20 15.5228 20 10C20 4.47715 15.5228 0 10 0C4.47715 0 0 4.47715 0 10C0 15.5228 4.47715 20 10 20Z" fill="#FF00FF"/>
<path fill-rule="evenodd" clip-rule="evenodd" d="M8.75 5.24172C8.75 5.93709 9.31291 6.5 9.99172 6.5C10.6871 6.5 11.25 5.93709 11.25 5.24172C11.25 4.54636 10.6871 4 9.99172 4C9.31291 4 8.75 4.54636 8.75 5.24172ZM8.94868 15.3576H11.0513V8.36093H8.94868V15.3576Z" fill="#FF00FF"/>
</svg>
