<svg width="20" height="20" viewBox="0 0 20 20" fill="none" xmlns="http://www.w3.org/2000/svg">
<path fill-rule="evenodd" clip-rule="evenodd" d="M9.99687 0C7.28187 0 6.94143 0.0115079 5.87516 0.0601588C4.81112 0.10873 4.08441 0.277699 3.44849 0.524842C2.79111 0.780318 2.23361 1.12214 1.67786 1.6779C1.1221 2.23365 0.780278 2.79115 0.524802 3.44853C0.277659 4.08441 0.108691 4.81112 0.0601191 5.87516C0.0114683 6.94143 0 7.28187 0 9.99687C0 12.7118 0.0114683 13.0523 0.0601191 14.1185C0.108691 15.1826 0.277659 15.9093 0.524802 16.5452C0.780278 17.2026 1.1221 17.7601 1.67786 18.3158C2.23361 18.8716 2.79111 19.2134 3.44849 19.4689C4.08441 19.716 4.81112 19.885 5.87516 19.9335C6.94143 19.9822 7.28187 19.9937 9.99687 19.9937C12.7118 19.9937 13.0523 19.9822 14.1185 19.9335C15.1826 19.885 15.9093 19.716 16.5452 19.4689C17.2026 19.2134 17.7601 18.8716 18.3158 18.3158C18.8716 17.7601 19.2134 17.2026 19.4689 16.5452C19.716 15.9093 19.885 15.1826 19.9335 14.1185C19.9822 13.0523 19.9937 12.7118 19.9937 9.99687C19.9937 7.28187 19.9822 6.94143 19.9335 5.87516C19.885 4.81112 19.716 4.08441 19.4689 3.44853C19.2134 2.79115 18.8716 2.23365 18.3158 1.6779C17.7601 1.12214 17.2026 0.780318 16.5452 0.524842C15.9093 0.277699 15.1826 0.10873 14.1185 0.0601588C13.0523 0.0115079 12.7118 0 9.99687 0ZM9.99687 1.80127C12.6661 1.80127 12.9823 1.81143 14.0364 1.85953C15.0111 1.90401 15.5404 2.06687 15.8927 2.20373C16.3593 2.38508 16.6924 2.60175 17.0422 2.95155C17.392 3.30135 17.6086 3.63441 17.79 4.101C17.9269 4.45326 18.0897 4.98258 18.1342 5.95727C18.1823 7.01139 18.1925 7.32758 18.1925 9.99687C18.1925 12.6661 18.1823 12.9823 18.1342 14.0364C18.0897 15.0111 17.9269 15.5404 17.79 15.8927C17.6086 16.3593 17.392 16.6924 17.0422 17.0422C16.6924 17.392 16.3593 17.6086 15.8927 17.79C15.5404 17.9269 15.0111 18.0897 14.0364 18.1342C12.9825 18.1823 12.6663 18.1925 9.99687 18.1925C7.32739 18.1925 7.01128 18.1823 5.95727 18.1342C4.98258 18.0897 4.45326 17.9269 4.101 17.79C3.63437 17.6086 3.30135 17.392 2.95151 17.0422C2.60171 16.6924 2.38504 16.3593 2.20373 15.8927C2.06683 15.5404 1.90397 15.0111 1.85949 14.0364C1.81139 12.9823 1.80123 12.6661 1.80123 9.99687C1.80123 7.32758 1.81139 7.01139 1.85949 5.95727C1.90397 4.98258 2.06683 4.45326 2.20373 4.101C2.38504 3.63441 2.60171 3.30135 2.95151 2.95155C3.30135 2.60175 3.63437 2.38508 4.101 2.20373C4.45326 2.06687 4.98258 1.90401 5.95727 1.85953C7.01139 1.81143 7.32759 1.80127 9.99687 1.80127ZM4.86334 9.99687C4.86334 7.16167 7.16167 4.86334 9.99687 4.86334C12.832 4.86334 15.1304 7.16167 15.1304 9.99687C15.1304 12.832 12.832 15.1304 9.99687 15.1304C7.16167 15.1304 4.86334 12.832 4.86334 9.99687ZM9.99687 13.3291C8.15648 13.3291 6.66457 11.8372 6.66457 9.99687C6.66457 8.15648 8.15648 6.66457 9.99687 6.66457C11.8372 6.66457 13.3291 8.15648 13.3291 9.99687C13.3291 11.8372 11.8372 13.3291 9.99687 13.3291ZM15.3332 5.86012C15.9957 5.86012 16.5328 5.32306 16.5328 4.66052C16.5328 3.99798 15.9957 3.46092 15.3332 3.46092C14.6707 3.46092 14.1336 3.99798 14.1336 4.66052C14.1336 5.32306 14.6707 5.86012 15.3332 5.86012Z" fill="#FF00FF"/>
</svg>
