<svg width="16" height="16" viewBox="0 0 16 16" fill="none" xmlns="http://www.w3.org/2000/svg">
<g clip-path="url(#clip0_1447_2893)">
<path d="M8.00002 0C5.82733 0 5.5549 0.00920925 4.70161 0.0481422C3.8501 0.0870116 3.26856 0.222229 2.75966 0.420006C2.23359 0.624451 1.78745 0.897998 1.34271 1.34274C0.897966 1.78748 0.624419 2.23363 0.419974 2.7597C0.222197 3.26856 0.0869798 3.8501 0.0481104 4.70161C0.0091775 5.5549 0 5.82733 0 8.00002C0 10.1727 0.0091775 10.4451 0.0481104 11.2984C0.0869798 12.1499 0.222197 12.7314 0.419974 13.2403C0.624419 13.7664 0.897966 14.2125 1.34271 14.6573C1.78745 15.102 2.23359 15.3756 2.75966 15.58C3.26856 15.7778 3.8501 15.913 4.70161 15.9519C5.5549 15.9908 5.82733 16 8.00002 16C10.1727 16 10.4451 15.9908 11.2984 15.9519C12.1499 15.913 12.7314 15.7778 13.2403 15.58C13.7664 15.3756 14.2125 15.102 14.6573 14.6573C15.102 14.2125 15.3756 13.7664 15.58 13.2403C15.7778 12.7314 15.913 12.1499 15.9519 11.2984C15.9908 10.4451 16 10.1727 16 8.00002C16 5.82733 15.9908 5.5549 15.9519 4.70161C15.913 3.8501 15.7778 3.26856 15.58 2.7597C15.3756 2.23363 15.102 1.78748 14.6573 1.34274C14.2125 0.897998 13.7664 0.624451 13.2403 0.420006C12.7314 0.222229 12.1499 0.0870116 11.2984 0.0481422C10.4451 0.00920925 10.1727 0 8.00002 0Z" fill="url(#paint0_radial_1447_2893)"/>
<path d="M8.00002 0C5.82733 0 5.5549 0.00920925 4.70161 0.0481422C3.8501 0.0870116 3.26856 0.222229 2.75966 0.420006C2.23359 0.624451 1.78745 0.897998 1.34271 1.34274C0.897966 1.78748 0.624419 2.23363 0.419974 2.7597C0.222197 3.26856 0.0869798 3.8501 0.0481104 4.70161C0.0091775 5.5549 0 5.82733 0 8.00002C0 10.1727 0.0091775 10.4451 0.0481104 11.2984C0.0869798 12.1499 0.222197 12.7314 0.419974 13.2403C0.624419 13.7664 0.897966 14.2125 1.34271 14.6573C1.78745 15.102 2.23359 15.3756 2.75966 15.58C3.26856 15.7778 3.8501 15.913 4.70161 15.9519C5.5549 15.9908 5.82733 16 8.00002 16C10.1727 16 10.4451 15.9908 11.2984 15.9519C12.1499 15.913 12.7314 15.7778 13.2403 15.58C13.7664 15.3756 14.2125 15.102 14.6573 14.6573C15.102 14.2125 15.3756 13.7664 15.58 13.2403C15.7778 12.7314 15.913 12.1499 15.9519 11.2984C15.9908 10.4451 16 10.1727 16 8.00002C16 5.82733 15.9908 5.5549 15.9519 4.70161C15.913 3.8501 15.7778 3.26856 15.58 2.7597C15.3756 2.23363 15.102 1.78748 14.6573 1.34274C14.2125 0.897998 13.7664 0.624451 13.2403 0.420006C12.7314 0.222229 12.1499 0.0870116 11.2984 0.0481422C10.4451 0.00920925 10.1727 0 8.00002 0Z" fill="url(#paint1_radial_1447_2893)"/>
<path fill-rule="evenodd" clip-rule="evenodd" d="M7.99991 2.3999C6.47903 2.3999 6.28833 2.40635 5.69103 2.4336C5.09497 2.46081 4.68789 2.55546 4.33167 2.69391C3.96342 2.83702 3.65112 3.0285 3.3398 3.33982C3.02848 3.65114 2.837 3.96344 2.69388 4.33169C2.55544 4.68789 2.46079 5.09497 2.43358 5.69103C2.40633 6.28833 2.3999 6.47903 2.3999 7.99991C2.3999 9.52077 2.40633 9.71148 2.43358 10.3088C2.46079 10.9048 2.55544 11.3119 2.69388 11.6681C2.837 12.0364 3.02848 12.3487 3.3398 12.66C3.65112 12.9713 3.96342 13.1628 4.33167 13.3059C4.68789 13.4443 5.09497 13.539 5.69103 13.5662C6.28833 13.5935 6.47903 13.5999 7.99991 13.5999C9.52077 13.5999 9.71148 13.5935 10.3088 13.5662C10.9048 13.539 11.3119 13.4443 11.6681 13.3059C12.0364 13.1628 12.3487 12.9713 12.66 12.66C12.9713 12.3487 13.1628 12.0364 13.3059 11.6681C13.4443 11.3119 13.539 10.9048 13.5662 10.3088C13.5935 9.71148 13.5999 9.52077 13.5999 7.99991C13.5999 6.47903 13.5935 6.28833 13.5662 5.69103C13.539 5.09497 13.4443 4.68789 13.3059 4.33169C13.1628 3.96344 12.9713 3.65114 12.66 3.33982C12.3487 3.0285 12.0364 2.83702 11.6681 2.69391C11.3119 2.55546 10.9048 2.46081 10.3088 2.4336C9.71148 2.40635 9.52077 2.3999 7.99991 2.3999ZM7.99989 3.40893C9.49514 3.40893 9.67226 3.41462 10.2628 3.44156C10.8088 3.46648 11.1053 3.55771 11.3026 3.63438C11.564 3.73597 11.7505 3.85734 11.9465 4.05329C12.1425 4.24924 12.2638 4.43581 12.3654 4.69718C12.4421 4.89451 12.5333 5.19103 12.5582 5.73702C12.5852 6.32752 12.5909 6.50464 12.5909 7.99991C12.5909 9.49516 12.5852 9.67229 12.5582 10.2628C12.5333 10.8088 12.4421 11.1053 12.3654 11.3026C12.2638 11.564 12.1425 11.7506 11.9465 11.9465C11.7505 12.1425 11.564 12.2638 11.3026 12.3654C11.1053 12.4421 10.8088 12.5333 10.2628 12.5582C9.67235 12.5852 9.49525 12.5909 7.99989 12.5909C6.50451 12.5909 6.32743 12.5852 5.737 12.5582C5.191 12.5333 4.89449 12.4421 4.69716 12.3654C4.43577 12.2638 4.24922 12.1425 4.05325 11.9465C3.85729 11.7506 3.73592 11.564 3.63436 11.3026C3.55767 11.1053 3.46644 10.8088 3.44152 10.2628C3.41458 9.67229 3.40889 9.49516 3.40889 7.99991C3.40889 6.50464 3.41458 6.32752 3.44152 5.73702C3.46644 5.19103 3.55767 4.89451 3.63436 4.69718C3.73592 4.43581 3.85729 4.24924 4.05325 4.05329C4.24922 3.85734 4.43577 3.73597 4.69716 3.63438C4.89449 3.55771 5.191 3.46648 5.737 3.44156C6.3275 3.41462 6.50462 3.40893 7.99989 3.40893ZM5.12425 7.99991C5.12425 6.4117 6.41172 5.12423 7.99994 5.12423C9.58813 5.12423 10.8756 6.4117 10.8756 7.99991C10.8756 9.5881 9.58813 10.8756 7.99994 10.8756C6.41172 10.8756 5.12425 9.5881 5.12425 7.99991ZM7.99991 9.86657C6.96897 9.86657 6.13324 9.03084 6.13324 7.99991C6.13324 6.96897 6.96897 6.13324 7.99991 6.13324C9.03084 6.13324 9.86657 6.96897 9.86657 7.99991C9.86657 9.03084 9.03084 9.86657 7.99991 9.86657ZM10.9892 5.6826C11.3603 5.6826 11.6612 5.38175 11.6612 5.01061C11.6612 4.63947 11.3603 4.33862 10.9892 4.33862C10.6181 4.33862 10.3172 4.63947 10.3172 5.01061C10.3172 5.38175 10.6181 5.6826 10.9892 5.6826Z" fill="white"/>
</g>
<defs>
<radialGradient id="paint0_radial_1447_2893" cx="0" cy="0" r="1" gradientUnits="userSpaceOnUse" gradientTransform="translate(4.25002 17.2323) rotate(-90) scale(15.8572 14.7484)">
<stop stop-color="#FFDD55"/>
<stop offset="0.1" stop-color="#FFDD55"/>
<stop offset="0.5" stop-color="#FF543E"/>
<stop offset="1" stop-color="#C837AB"/>
</radialGradient>
<radialGradient id="paint1_radial_1447_2893" cx="0" cy="0" r="1" gradientUnits="userSpaceOnUse" gradientTransform="translate(-2.68008 1.15261) rotate(78.6806) scale(7.08823 29.218)">
<stop stop-color="#3771C8"/>
<stop offset="0.128" stop-color="#3771C8"/>
<stop offset="1" stop-color="#6600FF" stop-opacity="0"/>
</radialGradient>
<clipPath id="clip0_1447_2893">
<rect width="16" height="16" fill="white"/>
</clipPath>
</defs>
</svg>
