<svg width="16" height="16" viewBox="0 0 16 16" fill="none" xmlns="http://www.w3.org/2000/svg">
<g clip-path="url(#clip0_2052_1488)">
<rect width="16" height="16" fill="#050D1A"/>
<path fill-rule="evenodd" clip-rule="evenodd" d="M9.77929 8.38988H9.84304C10.1364 8.38988 10.4269 8.32835 10.6979 8.20882C10.969 8.08929 11.2153 7.91409 11.4227 7.69322C11.6302 7.47235 11.7947 7.21015 11.907 6.92157C12.0193 6.63299 12.0771 6.3237 12.0771 6.01134C12.0771 5.69899 12.0193 5.3897 11.907 5.10112C11.7947 4.81254 11.6302 4.55034 11.4227 4.32947C11.2153 4.1086 10.969 3.9334 10.6979 3.81387C10.4269 3.69434 10.1364 3.63281 9.84304 3.63281H9.77929V8.38988Z" fill="#FAFDFF"/>
<path fill-rule="evenodd" clip-rule="evenodd" d="M6.25273 7.50781H3.92773V9.92927C3.92773 10.567 4.16565 11.1787 4.58918 11.6297C5.01271 12.0807 5.58715 12.3341 6.18616 12.3342H6.25038L6.25273 7.50781Z" fill="#FAFDFF"/>
<path d="M3.91992 4.1209C3.91992 3.99145 3.96821 3.8673 4.05419 3.77577C4.14016 3.68424 4.25677 3.63281 4.37835 3.63281H5.79492C5.9165 3.63281 6.03311 3.68424 6.11908 3.77577C6.20505 3.8673 6.25335 3.99145 6.25335 4.1209V6.83879H4.37835C4.25685 6.83879 4.14031 6.78744 4.05435 6.69601C3.96839 6.60458 3.92004 6.48057 3.91992 6.35121V4.1209Z" fill="#FAFDFF"/>
<path d="M8.68991 12.3263H7.28366C7.16224 12.326 7.04588 12.2745 6.96011 12.183C6.87434 12.0915 6.82616 11.9675 6.82617 11.8382V4.12871C6.82617 3.99926 6.87447 3.87511 6.96044 3.78358C7.04641 3.69205 7.16302 3.64062 7.2846 3.64062H9.14835V11.8382C9.14835 11.9677 9.10005 12.0918 9.01408 12.1834C8.9281 12.2749 8.8115 12.3263 8.68991 12.3263Z" fill="#FAFDFF"/>
</g>
<defs>
<clipPath id="clip0_2052_1488">
<rect width="16" height="16" fill="white"/>
</clipPath>
</defs>
</svg>
