<svg width="16" height="16" viewBox="0 0 16 16" fill="none" xmlns="http://www.w3.org/2000/svg">
<g clip-path="url(#clip0_2052_1489)">
<path fill-rule="evenodd" clip-rule="evenodd" d="M16 0H0V16H16V0ZM3.92004 4.1209C3.92004 3.99145 3.96833 3.8673 4.05431 3.77577C4.14028 3.68424 4.25689 3.63281 4.37847 3.63281H5.79504C5.91662 3.63281 6.03323 3.68424 6.1192 3.77577C6.20517 3.8673 6.25347 3.99145 6.25347 4.1209V6.83879H4.37847C4.25697 6.83879 4.14043 6.78744 4.05447 6.69601C3.96851 6.60458 3.92016 6.48057 3.92004 6.35121V4.1209ZM9.84316 8.38988H9.77941V3.63281H9.84316C10.1365 3.63281 10.4271 3.69434 10.6981 3.81387C10.9692 3.9334 11.2155 4.1086 11.4229 4.32947C11.6304 4.55034 11.7949 4.81254 11.9072 5.10112C12.0195 5.3897 12.0773 5.69899 12.0773 6.01134C12.0773 6.3237 12.0195 6.63299 11.9072 6.92157C11.7949 7.21015 11.6304 7.47235 11.4229 7.69322C11.2155 7.91409 10.9692 8.08929 10.6981 8.20882C10.4271 8.32835 10.1365 8.38988 9.84316 8.38988ZM3.92785 7.50781H6.25285L6.2505 12.3342H6.18628C5.58727 12.3341 5.01283 12.0807 4.5893 11.6297C4.16577 11.1787 3.92785 10.567 3.92785 9.92927V7.50781ZM7.28378 12.3263H8.69003C8.81162 12.3263 8.92822 12.2749 9.0142 12.1834C9.10017 12.0918 9.14847 11.9677 9.14847 11.8382V3.64062H7.28472C7.16314 3.64062 7.04653 3.69205 6.96056 3.78358C6.87459 3.87511 6.82629 3.99926 6.82629 4.12871V11.8382C6.82628 11.9675 6.87446 12.0915 6.96023 12.183C7.046 12.2745 7.16236 12.326 7.28378 12.3263Z" fill="#FF00FF"/>
</g>
<defs>
<clipPath id="clip0_2052_1489">
<rect width="16" height="16" fill="white"/>
</clipPath>
</defs>
</svg>
