<svg width="20" height="20" viewBox="0 0 20 20" fill="none" xmlns="http://www.w3.org/2000/svg">
<path d="M10 0C7.28416 0 6.94362 0.0115116 5.87701 0.0601777C4.81263 0.108764 4.08569 0.277786 3.44958 0.525007C2.79199 0.780564 2.23432 1.1225 1.67839 1.67843C1.12246 2.23436 0.780524 2.79203 0.524967 3.44962C0.277746 4.08569 0.108725 4.81263 0.060138 5.87701C0.0114719 6.94362 0 7.28416 0 10C0 12.7158 0.0114719 13.0564 0.060138 14.123C0.108725 15.1874 0.277746 15.9143 0.524967 16.5504C0.780524 17.208 1.12246 17.7656 1.67839 18.3216C2.23432 18.8775 2.79199 19.2195 3.44958 19.475C4.08569 19.7222 4.81263 19.8913 5.87701 19.9398C6.94362 19.9885 7.28416 20 10 20C12.7158 20 13.0564 19.9885 14.123 19.9398C15.1874 19.8913 15.9143 19.7222 16.5504 19.475C17.208 19.2195 17.7656 18.8775 18.3216 18.3216C18.8775 17.7656 19.2195 17.208 19.475 16.5504C19.7222 15.9143 19.8913 15.1874 19.9398 14.123C19.9885 13.0564 20 12.7158 20 10C20 7.28416 19.9885 6.94362 19.9398 5.87701C19.8913 4.81263 19.7222 4.08569 19.475 3.44962C19.2195 2.79203 18.8775 2.23436 18.3216 1.67843C17.7656 1.1225 17.208 0.780564 16.5504 0.525007C15.9143 0.277786 15.1874 0.108764 14.123 0.0601777C13.0564 0.0115116 12.7158 0 10 0Z" fill="url(#paint0_radial)"/>
<path d="M10 0C7.28416 0 6.94362 0.0115116 5.87701 0.0601777C4.81263 0.108764 4.08569 0.277786 3.44958 0.525007C2.79199 0.780564 2.23432 1.1225 1.67839 1.67843C1.12246 2.23436 0.780524 2.79203 0.524967 3.44962C0.277746 4.08569 0.108725 4.81263 0.060138 5.87701C0.0114719 6.94362 0 7.28416 0 10C0 12.7158 0.0114719 13.0564 0.060138 14.123C0.108725 15.1874 0.277746 15.9143 0.524967 16.5504C0.780524 17.208 1.12246 17.7656 1.67839 18.3216C2.23432 18.8775 2.79199 19.2195 3.44958 19.475C4.08569 19.7222 4.81263 19.8913 5.87701 19.9398C6.94362 19.9885 7.28416 20 10 20C12.7158 20 13.0564 19.9885 14.123 19.9398C15.1874 19.8913 15.9143 19.7222 16.5504 19.475C17.208 19.2195 17.7656 18.8775 18.3216 18.3216C18.8775 17.7656 19.2195 17.208 19.475 16.5504C19.7222 15.9143 19.8913 15.1874 19.9398 14.123C19.9885 13.0564 20 12.7158 20 10C20 7.28416 19.9885 6.94362 19.9398 5.87701C19.8913 4.81263 19.7222 4.08569 19.475 3.44962C19.2195 2.79203 18.8775 2.23436 18.3216 1.67843C17.7656 1.1225 17.208 0.780564 16.5504 0.525007C15.9143 0.277786 15.1874 0.108764 14.123 0.0601777C13.0564 0.0115116 12.7158 0 10 0Z" fill="url(#paint1_radial)"/>
<path fill-rule="evenodd" clip-rule="evenodd" d="M10 3C8.09891 3 7.86053 3.00806 7.11391 3.04212C6.36884 3.07614 5.85999 3.19445 5.41471 3.3675C4.95439 3.54639 4.56402 3.78575 4.17487 4.1749C3.78572 4.56405 3.54637 4.95442 3.36748 5.41473C3.19442 5.85999 3.07611 6.36884 3.0421 7.11391C3.00803 7.86053 3 8.09891 3 10C3 11.9011 3.00803 12.1395 3.0421 12.8861C3.07611 13.6312 3.19442 14.14 3.36748 14.5853C3.54637 15.0456 3.78572 15.436 4.17487 15.8251C4.56402 16.2143 4.95439 16.4536 5.41471 16.6325C5.85999 16.8055 6.36884 16.9239 7.11391 16.9579C7.86053 16.9919 8.09891 17 10 17C11.9011 17 12.1395 16.9919 12.8861 16.9579C13.6312 16.9239 14.14 16.8055 14.5853 16.6325C15.0456 16.4536 15.436 16.2143 15.8251 15.8251C16.2143 15.436 16.4536 15.0456 16.6325 14.5853C16.8055 14.14 16.9239 13.6312 16.9579 12.8861C16.9919 12.1395 17 11.9011 17 10C17 8.09891 16.9919 7.86053 16.9579 7.11391C16.9239 6.36884 16.8055 5.85999 16.6325 5.41473C16.4536 4.95442 16.2143 4.56405 15.8251 4.1749C15.436 3.78575 15.0456 3.54639 14.5853 3.3675C14.14 3.19445 13.6312 3.07614 12.8861 3.04212C12.1395 3.00806 11.9011 3 10 3ZM9.99999 4.26129C11.869 4.26129 12.0905 4.2684 12.8286 4.30208C13.5111 4.33323 13.8817 4.44726 14.1284 4.5431C14.4551 4.67008 14.6883 4.8218 14.9332 5.06674C15.1782 5.31167 15.3299 5.54489 15.4569 5.8716C15.5527 6.11826 15.6668 6.48891 15.6979 7.1714C15.7316 7.90952 15.7387 8.13092 15.7387 10C15.7387 11.8691 15.7316 12.0905 15.6979 12.8286C15.6668 13.5111 15.5527 13.8817 15.4569 14.1284C15.3299 14.4551 15.1782 14.6883 14.9332 14.9333C14.6883 15.1782 14.4551 15.3299 14.1284 15.4569C13.8817 15.5528 13.5111 15.6668 12.8286 15.6979C12.0906 15.7316 11.8692 15.7387 9.99999 15.7387C8.13076 15.7387 7.90941 15.7316 7.17137 15.6979C6.48888 15.6668 6.11823 15.5528 5.87157 15.4569C5.54483 15.3299 5.31165 15.1782 5.06668 14.9333C4.82174 14.6883 4.67003 14.4551 4.54307 14.1284C4.44721 13.8817 4.33317 13.5111 4.30202 12.8286C4.26834 12.0905 4.26123 11.8691 4.26123 10C4.26123 8.13092 4.26834 7.90952 4.30202 7.1714C4.33317 6.48891 4.44721 6.11826 4.54307 5.8716C4.67003 5.54489 4.82174 5.31167 5.06668 5.06674C5.31165 4.8218 5.54483 4.67008 5.87157 4.5431C6.11823 4.44726 6.48888 4.33323 7.17137 4.30208C7.90949 4.2684 8.1309 4.26129 9.99999 4.26129ZM6.40544 10C6.40544 8.01475 8.01478 6.40541 10 6.40541C11.9853 6.40541 13.5946 8.01475 13.5946 10C13.5946 11.9853 11.9853 13.5946 10 13.5946C8.01478 13.5946 6.40544 11.9853 6.40544 10ZM10 12.3333C8.71133 12.3333 7.66667 11.2887 7.66667 10C7.66667 8.71133 8.71133 7.66667 10 7.66667C11.2887 7.66667 12.3333 8.71133 12.3333 10C12.3333 11.2887 11.2887 12.3333 10 12.3333ZM13.7366 7.10337C14.2005 7.10337 14.5766 6.72731 14.5766 6.26338C14.5766 5.79946 14.2005 5.4234 13.7366 5.4234C13.2727 5.4234 12.8966 5.79946 12.8966 6.26338C12.8966 6.72731 13.2727 7.10337 13.7366 7.10337Z" fill="white"/>
<defs>
<radialGradient id="paint0_radial" cx="0" cy="0" r="1" gradientUnits="userSpaceOnUse" gradientTransform="translate(5.31253 21.5404) rotate(-90) scale(19.8215 18.4355)">
<stop stop-color="#FFDD55"/>
<stop offset="0.1" stop-color="#FFDD55"/>
<stop offset="0.5" stop-color="#FF543E"/>
<stop offset="1" stop-color="#C837AB"/>
</radialGradient>
<radialGradient id="paint1_radial" cx="0" cy="0" r="1" gradientUnits="userSpaceOnUse" gradientTransform="translate(-3.35011 1.44077) rotate(78.6806) scale(8.86028 36.5225)">
<stop stop-color="#3771C8"/>
<stop offset="0.128" stop-color="#3771C8"/>
<stop offset="1" stop-color="#6600FF" stop-opacity="0"/>
</radialGradient>
</defs>
</svg>
