<svg width="16" height="16" viewBox="0 0 16 16" fill="none" xmlns="http://www.w3.org/2000/svg">
<g clip-path="url(#clip0_1447_1748)">
<path fill-rule="evenodd" clip-rule="evenodd" d="M3.89067 7.9975C3.89067 5.72934 5.72934 3.89067 7.9975 3.89067C10.2656 3.89067 12.1043 5.72934 12.1043 7.9975C12.1043 10.2656 10.2656 12.1043 7.9975 12.1043C5.72934 12.1043 3.89067 10.2656 3.89067 7.9975ZM7.9975 10.6633C6.52518 10.6633 5.33166 9.46979 5.33166 7.9975C5.33166 6.52518 6.52518 5.33166 7.9975 5.33166C9.46979 5.33166 10.6633 6.52518 10.6633 7.9975C10.6633 9.46979 9.46979 10.6633 7.9975 10.6633Z" fill="#FF00FF"/>
<path d="M12.2666 4.6881C12.7966 4.6881 13.2263 4.25845 13.2263 3.72842C13.2263 3.19838 12.7966 2.76873 12.2666 2.76873C11.7365 2.76873 11.3069 3.19838 11.3069 3.72842C11.3069 4.25845 11.7365 4.6881 12.2666 4.6881Z" fill="#FF00FF"/>
<path fill-rule="evenodd" clip-rule="evenodd" d="M7.9975 0C5.8255 0 5.55315 0.00920636 4.70013 0.048127C3.84889 0.0869842 3.26753 0.222159 2.7588 0.419873C2.23289 0.624254 1.78689 0.897715 1.34229 1.34232C0.897683 1.78692 0.624223 2.23292 0.419842 2.75883C0.222127 3.26753 0.0869525 3.84889 0.0480953 4.70013C0.00917461 5.55315 0 5.8255 0 7.9975C0 10.1695 0.00917461 10.4418 0.0480953 11.2948C0.0869525 12.1461 0.222127 12.7274 0.419842 13.2361C0.624223 13.762 0.897683 14.208 1.34229 14.6527C1.78689 15.0973 2.23289 15.3707 2.7588 15.5751C3.26753 15.7728 3.84889 15.908 4.70013 15.9468C5.55315 15.9858 5.8255 15.995 7.9975 15.995C10.1695 15.995 10.4418 15.9858 11.2948 15.9468C12.1461 15.908 12.7274 15.7728 13.2361 15.5751C13.762 15.3707 14.208 15.0973 14.6527 14.6527C15.0973 14.208 15.3707 13.762 15.5751 13.2361C15.7728 12.7274 15.908 12.1461 15.9468 11.2948C15.9858 10.4418 15.995 10.1695 15.995 7.9975C15.995 5.8255 15.9858 5.55315 15.9468 4.70013C15.908 3.84889 15.7728 3.26753 15.5751 2.75883C15.3707 2.23292 15.0973 1.78692 14.6527 1.34232C14.208 0.897715 13.762 0.624254 13.2361 0.419873C12.7274 0.222159 12.1461 0.0869842 11.2948 0.048127C10.4418 0.00920636 10.1695 0 7.9975 0ZM7.9975 1.44102C10.1329 1.44102 10.3858 1.44914 11.2292 1.48762C12.0089 1.52321 12.4324 1.65349 12.7142 1.76299C13.0875 1.90806 13.3539 2.0814 13.6337 2.36124C13.9136 2.64108 14.0869 2.90753 14.232 3.2808C14.3415 3.56261 14.4718 3.98607 14.5073 4.76581C14.5458 5.60912 14.554 5.86207 14.554 7.9975C14.554 10.1329 14.5458 10.3858 14.5073 11.2292C14.4718 12.0089 14.3415 12.4324 14.232 12.7142C14.0869 13.0875 13.9136 13.3539 13.6337 13.6337C13.3539 13.9136 13.0875 14.0869 12.7142 14.232C12.4324 14.3415 12.0089 14.4718 11.2292 14.5073C10.386 14.5458 10.1331 14.554 7.9975 14.554C5.86191 14.554 5.60902 14.5458 4.76581 14.5073C3.98607 14.4718 3.56261 14.3415 3.2808 14.232C2.90749 14.0869 2.64108 13.9136 2.36121 13.6337C2.08137 13.3539 1.90803 13.0875 1.76299 12.7142C1.65346 12.4324 1.52318 12.0089 1.48759 11.2292C1.44911 10.3858 1.44099 10.1329 1.44099 7.9975C1.44099 5.86207 1.44911 5.60912 1.48759 4.76581C1.52318 3.98607 1.65346 3.56261 1.76299 3.2808C1.90803 2.90753 2.08137 2.64108 2.36121 2.36124C2.64108 2.0814 2.90749 1.90806 3.2808 1.76299C3.56261 1.65349 3.98607 1.52321 4.76581 1.48762C5.60912 1.44914 5.86207 1.44102 7.9975 1.44102Z" fill="#FF00FF"/>
</g>
<defs>
<clipPath id="clip0_1447_1748">
<rect width="16" height="16" fill="white"/>
</clipPath>
</defs>
</svg>
