<svg width="16" height="16" viewBox="0 0 16 16" fill="none" xmlns="http://www.w3.org/2000/svg">
<g clip-path="url(#clip0_1447_1751)">
<path d="M13.7001 8.85279C13.7001 8.9954 13.6455 9.13219 13.5483 9.23305C13.451 9.33389 13.3191 9.39055 13.1816 9.39055C13.044 9.39055 12.9121 9.33389 12.8149 9.23305C12.7176 9.13219 12.663 8.9954 12.663 8.85279V4.04837C12.663 3.90573 12.7176 3.76895 12.8149 3.6681C12.9121 3.56724 13.044 3.51058 13.1816 3.51058C13.3191 3.51058 13.451 3.56724 13.5483 3.6681C13.6455 3.76895 13.7001 3.90573 13.7001 4.04837V8.85279ZM13.5202 12.1816C13.4516 12.2528 11.523 13.9194 7.9872 13.9194C4.45143 13.9194 2.53571 12.2616 2.45428 12.1905C2.40295 12.1457 2.36069 12.0907 2.32988 12.0289C2.29908 11.967 2.28037 11.8995 2.27478 11.8301C2.26921 11.7608 2.27689 11.6909 2.29739 11.6247C2.31789 11.5584 2.35081 11.4969 2.39427 11.4439C2.48378 11.3365 2.61059 11.2701 2.74708 11.2593C2.88357 11.2485 3.01865 11.2941 3.12284 11.3861C3.15286 11.4083 4.87573 12.8572 7.98292 12.8572C11.0901 12.8572 12.8258 11.3994 12.843 11.3861C12.9484 11.2949 13.0839 11.2499 13.2207 11.2607C13.3576 11.2715 13.485 11.3372 13.5759 11.4439C13.6633 11.5497 13.7069 11.687 13.6973 11.826C13.6877 11.9649 13.6256 12.0944 13.5244 12.1861L13.5202 12.1816ZM2.26998 4.04837C2.27772 3.90529 2.33978 3.77121 2.44259 3.67542C2.54537 3.57966 2.68056 3.52997 2.81856 3.53725C2.9465 3.54478 3.06722 3.60118 3.15744 3.69556C3.24766 3.78994 3.30099 3.91561 3.30714 4.04837V8.84389C3.30714 8.98652 3.2525 9.12331 3.15525 9.22416C3.05801 9.32502 2.92611 9.38166 2.78857 9.38166C2.65103 9.38166 2.51913 9.32502 2.42187 9.22416C2.32461 9.12331 2.26998 8.98652 2.26998 8.84389V4.04837ZM4.87144 2.98171C4.87921 2.83862 4.94124 2.70455 5.04405 2.60876C5.14683 2.51299 5.28202 2.46331 5.42003 2.47058C5.54796 2.47811 5.66869 2.53452 5.7589 2.6289C5.84912 2.72328 5.90246 2.84895 5.9086 2.98171V10.0928C5.9086 10.2354 5.85397 10.3722 5.75673 10.473C5.65947 10.5739 5.52757 10.6305 5.39003 10.6305C5.2525 10.6305 5.12059 10.5739 5.02333 10.473C4.92608 10.3722 4.87144 10.2354 4.87144 10.0928V2.98171ZM7.48577 2.71504C7.48577 2.57241 7.5404 2.43562 7.63766 2.33478C7.73492 2.23391 7.86682 2.17725 8.00436 2.17725C8.14189 2.17725 8.2738 2.23391 8.37103 2.33478C8.46829 2.43562 8.52292 2.57241 8.52292 2.71504V10.4483C8.52292 10.591 8.46829 10.7277 8.37103 10.8286C8.2738 10.9294 8.14189 10.9861 8.00436 10.9861C7.86682 10.9861 7.73492 10.9294 7.63766 10.8286C7.5404 10.7277 7.48577 10.591 7.48577 10.4483V2.71504ZM10.0572 2.98171C10.0572 2.83907 10.1119 2.70228 10.2091 2.60144C10.3064 2.50058 10.4383 2.44392 10.5758 2.44392C10.7134 2.44392 10.8453 2.50058 10.9425 2.60144C11.0398 2.70228 11.0944 2.83907 11.0944 2.98171V10.0928C11.0944 10.2354 11.0398 10.3722 10.9425 10.473C10.8453 10.5739 10.7134 10.6305 10.5758 10.6305C10.4383 10.6305 10.3064 10.5739 10.2091 10.473C10.1119 10.3722 10.0572 10.2354 10.0572 10.0928V2.98171ZM13.8416 0.048385H2.14998C1.89522 0.0466143 1.64263 0.0969824 1.40669 0.196609C1.17072 0.296214 0.956044 0.443114 0.774904 0.628884C0.593763 0.814675 0.449742 1.03567 0.351097 1.27925C0.252431 1.52281 0.201082 1.78419 0.199951 2.04838V14.0483C0.201082 14.3125 0.252431 14.5739 0.351097 14.8174C0.449742 15.061 0.593763 15.282 0.774904 15.4678C0.956044 15.6536 1.17072 15.8005 1.40669 15.9001C1.64263 15.9997 1.89522 16.05 2.14998 16.0483H13.8416C14.096 16.05 14.3482 15.9999 14.5839 15.9005C14.8196 15.8012 15.0341 15.6547 15.2151 15.4694C15.3962 15.2841 15.5403 15.0636 15.6392 14.8205C15.7381 14.5775 15.7899 14.3166 15.7916 14.0528V2.04838C15.7905 1.78455 15.7393 1.52356 15.6409 1.28027C15.5425 1.03699 15.3988 0.81619 15.2182 0.630463C15.0375 0.444757 14.8233 0.297771 14.5878 0.197888C14.3524 0.0980061 14.1003 0.0472116 13.8459 0.048385" fill="#FF00FF"/>
</g>
<defs>
<clipPath id="clip0_1447_1751">
<rect width="16" height="16" fill="white"/>
</clipPath>
</defs>
</svg>
