<svg width="16" height="16" viewBox="0 0 16 16" fill="none" xmlns="http://www.w3.org/2000/svg">
<g clip-path="url(#clip0_1447_2899)">
<path d="M13.7004 8.85279C13.7004 8.9954 13.6458 9.13219 13.5485 9.23305C13.4513 9.33389 13.3194 9.39055 13.1818 9.39055C13.0443 9.39055 12.9124 9.33389 12.8151 9.23305C12.7179 9.13219 12.6632 8.9954 12.6632 8.85279V4.04837C12.6632 3.90573 12.7179 3.76895 12.8151 3.6681C12.9124 3.56724 13.0443 3.51058 13.1818 3.51058C13.3194 3.51058 13.4513 3.56724 13.5485 3.6681C13.6458 3.76895 13.7004 3.90573 13.7004 4.04837V8.85279ZM13.5204 12.1816C13.4518 12.2528 11.5232 13.9194 7.98745 13.9194C4.45168 13.9194 2.53595 12.2616 2.45452 12.1905C2.40319 12.1457 2.36093 12.0907 2.33013 12.0289C2.29932 11.967 2.28061 11.8995 2.27502 11.8301C2.26946 11.7608 2.27714 11.6909 2.29764 11.6247C2.31814 11.5584 2.35106 11.4969 2.39451 11.4439C2.48403 11.3365 2.61083 11.2701 2.74732 11.2593C2.88381 11.2485 3.01889 11.2941 3.12308 11.3861C3.1531 11.4083 4.87597 12.8572 7.98316 12.8572C11.0903 12.8572 12.8261 11.3994 12.8432 11.3861C12.9486 11.2949 13.0841 11.2499 13.221 11.2607C13.3578 11.2715 13.4852 11.3372 13.5761 11.4439C13.6635 11.5497 13.7072 11.687 13.6975 11.826C13.6879 11.9649 13.6258 12.0944 13.5247 12.1861L13.5204 12.1816ZM2.27022 4.04837C2.27797 3.90529 2.34003 3.77121 2.44283 3.67542C2.54562 3.57966 2.6808 3.52997 2.81881 3.53725C2.94674 3.54478 3.06747 3.60118 3.15769 3.69556C3.24791 3.78994 3.30124 3.91561 3.30738 4.04837V8.84389C3.30738 8.98652 3.25275 9.12331 3.15549 9.22416C3.05825 9.32502 2.92635 9.38166 2.78881 9.38166C2.65128 9.38166 2.51937 9.32502 2.42212 9.22416C2.32486 9.12331 2.27022 8.98652 2.27022 8.84389V4.04837ZM4.87169 2.98171C4.87945 2.83862 4.94149 2.70455 5.04429 2.60876C5.14708 2.51299 5.28227 2.46331 5.42027 2.47058C5.54821 2.47811 5.66893 2.53452 5.75915 2.6289C5.84937 2.72328 5.9027 2.84895 5.90884 2.98171V10.0928C5.90884 10.2354 5.85421 10.3722 5.75697 10.473C5.65971 10.5739 5.52781 10.6305 5.39028 10.6305C5.25274 10.6305 5.12084 10.5739 5.02358 10.473C4.92632 10.3722 4.87169 10.2354 4.87169 10.0928V2.98171ZM7.48601 2.71504C7.48601 2.57241 7.54065 2.43562 7.6379 2.33478C7.73516 2.23391 7.86707 2.17725 8.0046 2.17725C8.14214 2.17725 8.27404 2.23391 8.37128 2.33478C8.46854 2.43562 8.52317 2.57241 8.52317 2.71504V10.4483C8.52317 10.591 8.46854 10.7277 8.37128 10.8286C8.27404 10.9294 8.14214 10.9861 8.0046 10.9861C7.86707 10.9861 7.73516 10.9294 7.6379 10.8286C7.54065 10.7277 7.48601 10.591 7.48601 10.4483V2.71504ZM10.0575 2.98171C10.0575 2.83907 10.1121 2.70228 10.2094 2.60144C10.3066 2.50058 10.4385 2.44392 10.5761 2.44392C10.7136 2.44392 10.8455 2.50058 10.9427 2.60144C11.04 2.70228 11.0946 2.83907 11.0946 2.98171V10.0928C11.0946 10.2354 11.04 10.3722 10.9427 10.473C10.8455 10.5739 10.7136 10.6305 10.5761 10.6305C10.4385 10.6305 10.3066 10.5739 10.2094 10.473C10.1121 10.3722 10.0575 10.2354 10.0575 10.0928V2.98171ZM13.8418 0.048385H2.15022C1.89546 0.0466143 1.64288 0.0969824 1.40693 0.196609C1.17096 0.296214 0.956288 0.443114 0.775148 0.628884C0.594007 0.814675 0.449986 1.03567 0.351341 1.27925C0.252675 1.52281 0.201326 1.78419 0.200195 2.04838V14.0483C0.201326 14.3125 0.252675 14.5739 0.351341 14.8174C0.449986 15.061 0.594007 15.282 0.775148 15.4678C0.956288 15.6536 1.17096 15.8005 1.40693 15.9001C1.64288 15.9997 1.89546 16.05 2.15022 16.0483H13.8418C14.0962 16.05 14.3484 15.9999 14.5841 15.9005C14.8198 15.8012 15.0343 15.6547 15.2154 15.4694C15.3965 15.2841 15.5406 15.0636 15.6395 14.8205C15.7384 14.5775 15.7902 14.3166 15.7919 14.0528V2.04838C15.7907 1.78455 15.7395 1.52356 15.6411 1.28027C15.5427 1.03699 15.3991 0.81619 15.2184 0.630463C15.0377 0.444757 14.8235 0.297771 14.5881 0.197888C14.3526 0.0980061 14.1005 0.0472116 13.8461 0.048385" fill="black"/>
</g>
<defs>
<clipPath id="clip0_1447_2899">
<rect width="16" height="16" fill="white"/>
</clipPath>
</defs>
</svg>
