<svg width="16" height="16" viewBox="0 0 16 16" fill="none" xmlns="http://www.w3.org/2000/svg">
<g clip-path="url(#clip0_1447_1751)">
<path d="M13.7001 8.85291C13.7001 8.99552 13.6455 9.13231 13.5483 9.23317C13.451 9.33402 13.3191 9.39068 13.1816 9.39068C13.044 9.39068 12.9121 9.33402 12.8149 9.23317C12.7176 9.13231 12.663 8.99552 12.663 8.85291V4.04849C12.663 3.90586 12.7176 3.76907 12.8149 3.66823C12.9121 3.56736 13.044 3.5107 13.1816 3.5107C13.3191 3.5107 13.451 3.56736 13.5483 3.66823C13.6455 3.76907 13.7001 3.90586 13.7001 4.04849V8.85291ZM13.5202 12.1818C13.4516 12.2529 11.523 13.9196 7.9872 13.9196C4.45143 13.9196 2.53571 12.2618 2.45428 12.1907C2.40295 12.1458 2.36069 12.0909 2.32988 12.029C2.29908 11.9672 2.28037 11.8996 2.27478 11.8303C2.26921 11.7609 2.27689 11.6911 2.29739 11.6248C2.31789 11.5585 2.35081 11.4971 2.39427 11.444C2.48378 11.3366 2.61059 11.2703 2.74708 11.2594C2.88357 11.2486 3.01865 11.2942 3.12284 11.3862C3.15286 11.4084 4.87573 12.8573 7.98292 12.8573C11.0901 12.8573 12.8258 11.3996 12.843 11.3862C12.9484 11.295 13.0839 11.25 13.2207 11.2608C13.3576 11.2716 13.485 11.3373 13.5759 11.444C13.6633 11.5498 13.7069 11.6871 13.6973 11.8261C13.6877 11.9651 13.6256 12.0945 13.5244 12.1862L13.5202 12.1818ZM2.26998 4.04849C2.27772 3.90541 2.33978 3.77133 2.44259 3.67554C2.54537 3.57978 2.68056 3.53009 2.81856 3.53737C2.9465 3.5449 3.06722 3.6013 3.15744 3.69568C3.24766 3.79006 3.30099 3.91573 3.30714 4.04849V8.84401C3.30714 8.98665 3.2525 9.12344 3.15525 9.22428C3.05801 9.32514 2.92611 9.38178 2.78857 9.38178C2.65103 9.38178 2.51913 9.32514 2.42187 9.22428C2.32461 9.12344 2.26998 8.98665 2.26998 8.84401V4.04849ZM4.87144 2.98183C4.87921 2.83875 4.94124 2.70467 5.04405 2.60888C5.14683 2.51312 5.28202 2.46343 5.42003 2.47071C5.54796 2.47824 5.66869 2.53464 5.7589 2.62902C5.84912 2.7234 5.90246 2.84907 5.9086 2.98183V10.0929C5.9086 10.2355 5.85397 10.3723 5.75673 10.4732C5.65947 10.574 5.52757 10.6307 5.39003 10.6307C5.2525 10.6307 5.12059 10.574 5.02333 10.4732C4.92608 10.3723 4.87144 10.2355 4.87144 10.0929V2.98183ZM7.48577 2.71516C7.48577 2.57253 7.5404 2.43574 7.63766 2.3349C7.73492 2.23403 7.86682 2.17737 8.00436 2.17737C8.14189 2.17737 8.2738 2.23403 8.37103 2.3349C8.46829 2.43574 8.52292 2.57253 8.52292 2.71516V10.4484C8.52292 10.5911 8.46829 10.7279 8.37103 10.8287C8.2738 10.9296 8.14189 10.9862 8.00436 10.9862C7.86682 10.9862 7.73492 10.9296 7.63766 10.8287C7.5404 10.7279 7.48577 10.5911 7.48577 10.4484V2.71516ZM10.0572 2.98183C10.0572 2.83919 10.1119 2.70241 10.2091 2.60156C10.3064 2.5007 10.4383 2.44404 10.5758 2.44404C10.7134 2.44404 10.8453 2.5007 10.9425 2.60156C11.0398 2.70241 11.0944 2.83919 11.0944 2.98183V10.0929C11.0944 10.2355 11.0398 10.3723 10.9425 10.4732C10.8453 10.574 10.7134 10.6307 10.5758 10.6307C10.4383 10.6307 10.3064 10.574 10.2091 10.4732C10.1119 10.3723 10.0572 10.2355 10.0572 10.0929V2.98183ZM13.8416 0.048507H2.14998C1.89522 0.0467364 1.64263 0.0971044 1.40669 0.196731C1.17072 0.296336 0.956044 0.443236 0.774904 0.629006C0.593763 0.814797 0.449742 1.03579 0.351097 1.27937C0.252431 1.52293 0.201082 1.78431 0.199951 2.0485V14.0484C0.201082 14.3126 0.252431 14.574 0.351097 14.8176C0.449742 15.0611 0.593763 15.2821 0.774904 15.4679C0.956044 15.6537 1.17072 15.8006 1.40669 15.9002C1.64263 15.9998 1.89522 16.0501 2.14998 16.0484H13.8416C14.096 16.0501 14.3482 16 14.5839 15.9006C14.8196 15.8013 15.0341 15.6548 15.2151 15.4695C15.3962 15.2842 15.5403 15.0637 15.6392 14.8206C15.7381 14.5776 15.7899 14.3167 15.7916 14.0529V2.0485C15.7905 1.78467 15.7393 1.52368 15.6409 1.2804C15.5425 1.03711 15.3988 0.816312 15.2182 0.630585C15.0375 0.444879 14.8233 0.297893 14.5878 0.19801C14.3524 0.0981281 14.1003 0.0473337 13.8459 0.048507" fill="#FF00FF"/>
</g>
<defs>
<clipPath id="clip0_1447_1751">
<rect width="16" height="16" fill="white"/>
</clipPath>
</defs>
</svg>
