<svg width="20" height="20" viewBox="0 0 20 20" fill="none" xmlns="http://www.w3.org/2000/svg">
<g clip-path="url(#clip0)">
<path d="M17.1252 11.0661C17.1252 11.2444 17.0569 11.4154 16.9354 11.5414C16.8138 11.6675 16.6489 11.7383 16.477 11.7383C16.3051 11.7383 16.1402 11.6675 16.0187 11.5414C15.8971 11.4154 15.8288 11.2444 15.8288 11.0661V5.06058C15.8288 4.88229 15.8971 4.7113 16.0187 4.58525C16.1402 4.45917 16.3051 4.38835 16.477 4.38835C16.6489 4.38835 16.8138 4.45917 16.9354 4.58525C17.0569 4.7113 17.1252 4.88229 17.1252 5.06058V11.0661ZM16.9003 15.2272C16.8145 15.3161 14.4038 17.3994 9.98407 17.3994C5.56435 17.3994 3.16969 15.3272 3.06791 15.2383C3.00375 15.1822 2.95092 15.1136 2.91242 15.0362C2.87391 14.9589 2.85052 14.8745 2.84354 14.7878C2.83658 14.7011 2.84618 14.6138 2.8718 14.5309C2.89743 14.4481 2.93858 14.3713 2.9929 14.305C3.10479 14.1707 3.26329 14.0878 3.43391 14.0743C3.60452 14.0607 3.77337 14.1177 3.90361 14.2328C3.94113 14.2605 6.09472 16.0716 9.97871 16.0716C13.8627 16.0716 16.0324 14.2494 16.0538 14.2328C16.1855 14.1188 16.3549 14.0625 16.526 14.076C16.6971 14.0895 16.8563 14.1716 16.9699 14.305C17.0792 14.4372 17.1337 14.6088 17.1217 14.7826C17.1097 14.9563 17.032 15.1181 16.9056 15.2328L16.9003 15.2272ZM2.83754 5.06058C2.84722 4.88173 2.92479 4.71413 3.0533 4.5944C3.18178 4.47469 3.35076 4.41259 3.52327 4.42168C3.68319 4.43109 3.83409 4.5016 3.94687 4.61957C4.05964 4.73754 4.1263 4.89464 4.13398 5.06058V11.055C4.13398 11.2333 4.06569 11.4043 3.94412 11.5303C3.82257 11.6564 3.65769 11.7272 3.48577 11.7272C3.31385 11.7272 3.14897 11.6564 3.0274 11.5303C2.90583 11.4043 2.83754 11.2333 2.83754 11.055V5.06058ZM6.08936 3.72726C6.09907 3.5484 6.17662 3.3808 6.30512 3.26107C6.4336 3.14136 6.60259 3.07926 6.77509 3.08835C6.93501 3.09776 7.08592 3.16827 7.19869 3.28624C7.31146 3.40422 7.37813 3.56131 7.38581 3.72726V12.6161C7.38581 12.7944 7.31752 12.9654 7.19597 13.0914C7.0744 13.2175 6.90952 13.2883 6.7376 13.2883C6.56568 13.2883 6.4008 13.2175 6.27923 13.0914C6.15766 12.9654 6.08936 12.7944 6.08936 12.6161V3.72726ZM9.35727 3.39392C9.35727 3.21563 9.42556 3.04464 9.54714 2.91859C9.66871 2.79251 9.83359 2.72169 10.0055 2.72169C10.1774 2.72169 10.3423 2.79251 10.4639 2.91859C10.5854 3.04464 10.6537 3.21563 10.6537 3.39392V13.0605C10.6537 13.2388 10.5854 13.4098 10.4639 13.5359C10.3423 13.6619 10.1774 13.7328 10.0055 13.7328C9.83359 13.7328 9.66871 13.6619 9.54714 13.5359C9.42556 13.4098 9.35727 13.2388 9.35727 13.0605V3.39392ZM12.5716 3.72726C12.5716 3.54896 12.6399 3.37798 12.7615 3.25192C12.883 3.12584 13.0479 3.05502 13.2198 3.05502C13.3918 3.05502 13.5566 3.12584 13.6782 3.25192C13.7998 3.37798 13.8681 3.54896 13.8681 3.72726V12.6161C13.8681 12.7944 13.7998 12.9654 13.6782 13.0914C13.5566 13.2175 13.3918 13.2883 13.2198 13.2883C13.0479 13.2883 12.883 13.2175 12.7615 13.0914C12.6399 12.9654 12.5716 12.7944 12.5716 12.6161V3.72726ZM17.302 0.0606033H2.68754C2.36908 0.0583899 2.05335 0.12135 1.75842 0.245883C1.46346 0.370389 1.19512 0.554015 0.968691 0.786227C0.742265 1.01847 0.562239 1.29471 0.438933 1.59918C0.3156 1.90364 0.251413 2.23035 0.25 2.56059V17.5605C0.251413 17.8907 0.3156 18.2175 0.438933 18.5219C0.562239 18.8264 0.742265 19.1026 0.968691 19.3349C1.19512 19.5671 1.46346 19.7507 1.75842 19.8752C2.05335 19.9997 2.36908 20.0626 2.68754 20.0605H17.302C17.62 20.0626 17.9353 19.9999 18.2299 19.8757C18.5245 19.7516 18.7926 19.5684 19.019 19.3368C19.2453 19.1052 19.4255 18.8296 19.5491 18.5258C19.6727 18.2219 19.7375 17.8958 19.7396 17.5661V2.56059C19.7382 2.23081 19.6741 1.90457 19.5511 1.60046C19.4282 1.29636 19.2486 1.02036 19.0228 0.7882C18.7969 0.556068 18.5292 0.372335 18.2349 0.247482C17.9405 0.12263 17.6254 0.0591366 17.3074 0.0606033" fill="#FF00FF"/>
</g>
<defs>
<clipPath id="clip0">
<rect width="20" height="20" fill="white"/>
</clipPath>
</defs>
</svg>
