<svg width="16" height="16" viewBox="0 0 16 16" fill="none" xmlns="http://www.w3.org/2000/svg">
<g clip-path="url(#clip0_1447_2899)">
<path d="M13.7004 8.85291C13.7004 8.99552 13.6458 9.13231 13.5485 9.23317C13.4513 9.33402 13.3194 9.39068 13.1818 9.39068C13.0443 9.39068 12.9124 9.33402 12.8151 9.23317C12.7179 9.13231 12.6632 8.99552 12.6632 8.85291V4.04849C12.6632 3.90586 12.7179 3.76907 12.8151 3.66823C12.9124 3.56736 13.0443 3.5107 13.1818 3.5107C13.3194 3.5107 13.4513 3.56736 13.5485 3.66823C13.6458 3.76907 13.7004 3.90586 13.7004 4.04849V8.85291ZM13.5204 12.1818C13.4518 12.2529 11.5232 13.9196 7.98745 13.9196C4.45168 13.9196 2.53595 12.2618 2.45452 12.1907C2.40319 12.1458 2.36093 12.0909 2.33013 12.029C2.29932 11.9672 2.28061 11.8996 2.27502 11.8303C2.26946 11.7609 2.27714 11.6911 2.29764 11.6248C2.31814 11.5585 2.35106 11.4971 2.39451 11.444C2.48403 11.3366 2.61083 11.2703 2.74732 11.2594C2.88381 11.2486 3.01889 11.2942 3.12308 11.3862C3.1531 11.4084 4.87597 12.8573 7.98316 12.8573C11.0903 12.8573 12.8261 11.3996 12.8432 11.3862C12.9486 11.295 13.0841 11.25 13.221 11.2608C13.3578 11.2716 13.4852 11.3373 13.5761 11.444C13.6635 11.5498 13.7072 11.6871 13.6975 11.8261C13.6879 11.9651 13.6258 12.0945 13.5247 12.1862L13.5204 12.1818ZM2.27022 4.04849C2.27797 3.90541 2.34003 3.77133 2.44283 3.67554C2.54562 3.57978 2.6808 3.53009 2.81881 3.53737C2.94674 3.5449 3.06747 3.6013 3.15769 3.69568C3.24791 3.79006 3.30124 3.91573 3.30738 4.04849V8.84401C3.30738 8.98665 3.25275 9.12344 3.15549 9.22428C3.05825 9.32514 2.92635 9.38178 2.78881 9.38178C2.65128 9.38178 2.51937 9.32514 2.42212 9.22428C2.32486 9.12344 2.27022 8.98665 2.27022 8.84401V4.04849ZM4.87169 2.98183C4.87945 2.83875 4.94149 2.70467 5.04429 2.60888C5.14708 2.51312 5.28227 2.46343 5.42027 2.47071C5.54821 2.47824 5.66893 2.53464 5.75915 2.62902C5.84937 2.7234 5.9027 2.84907 5.90884 2.98183V10.0929C5.90884 10.2355 5.85421 10.3723 5.75697 10.4732C5.65971 10.574 5.52781 10.6307 5.39028 10.6307C5.25274 10.6307 5.12084 10.574 5.02358 10.4732C4.92632 10.3723 4.87169 10.2355 4.87169 10.0929V2.98183ZM7.48601 2.71516C7.48601 2.57253 7.54065 2.43574 7.6379 2.3349C7.73516 2.23403 7.86707 2.17737 8.0046 2.17737C8.14214 2.17737 8.27404 2.23403 8.37128 2.3349C8.46854 2.43574 8.52317 2.57253 8.52317 2.71516V10.4484C8.52317 10.5911 8.46854 10.7279 8.37128 10.8287C8.27404 10.9296 8.14214 10.9862 8.0046 10.9862C7.86707 10.9862 7.73516 10.9296 7.6379 10.8287C7.54065 10.7279 7.48601 10.5911 7.48601 10.4484V2.71516ZM10.0575 2.98183C10.0575 2.83919 10.1121 2.70241 10.2094 2.60156C10.3066 2.5007 10.4385 2.44404 10.5761 2.44404C10.7136 2.44404 10.8455 2.5007 10.9427 2.60156C11.04 2.70241 11.0946 2.83919 11.0946 2.98183V10.0929C11.0946 10.2355 11.04 10.3723 10.9427 10.4732C10.8455 10.574 10.7136 10.6307 10.5761 10.6307C10.4385 10.6307 10.3066 10.574 10.2094 10.4732C10.1121 10.3723 10.0575 10.2355 10.0575 10.0929V2.98183ZM13.8418 0.048507H2.15022C1.89546 0.0467364 1.64288 0.0971044 1.40693 0.196731C1.17096 0.296336 0.956288 0.443236 0.775148 0.629006C0.594007 0.814797 0.449986 1.03579 0.351341 1.27937C0.252675 1.52293 0.201326 1.78431 0.200195 2.0485V14.0484C0.201326 14.3126 0.252675 14.574 0.351341 14.8176C0.449986 15.0611 0.594007 15.2821 0.775148 15.4679C0.956288 15.6537 1.17096 15.8006 1.40693 15.9002C1.64288 15.9998 1.89546 16.0501 2.15022 16.0484H13.8418C14.0962 16.0501 14.3484 16 14.5841 15.9006C14.8198 15.8013 15.0343 15.6548 15.2154 15.4695C15.3965 15.2842 15.5406 15.0637 15.6395 14.8206C15.7384 14.5776 15.7902 14.3167 15.7919 14.0529V2.0485C15.7907 1.78467 15.7395 1.52368 15.6411 1.2804C15.5427 1.03711 15.3991 0.816312 15.2184 0.630585C15.0377 0.444879 14.8235 0.297893 14.5881 0.19801C14.3526 0.0981281 14.1005 0.0473337 13.8461 0.048507" fill="black"/>
</g>
<defs>
<clipPath id="clip0_1447_2899">
<rect width="16" height="16" fill="white"/>
</clipPath>
</defs>
</svg>
