<svg width="20" height="20" viewBox="0 0 20 20" fill="none" xmlns="http://www.w3.org/2000/svg">
<path fill-rule="evenodd" clip-rule="evenodd" d="M18.187 0H1.81303C0.811742 0 0 0.811742 0 1.81303V18.187C0 19.1883 0.811742 20 1.81303 20H18.187C19.1883 20 20 19.1883 20 18.187V1.81303C20 0.811742 19.1883 0 18.187 0Z" fill="#F42156"/>
<path fill-rule="evenodd" clip-rule="evenodd" d="M6.68407 6.29259C7.34892 6.29259 7.90581 5.77145 7.90581 5.08849C7.90581 4.40599 7.34892 3.88501 6.68407 3.88501C6.01922 3.88501 5.4624 4.40599 5.4624 5.08849C5.4624 5.77145 6.01922 6.29259 6.68407 6.29259Z" fill="white"/>
<path fill-rule="evenodd" clip-rule="evenodd" d="M4.15074 12.7395C4.07899 13.0449 4.04293 13.3748 4.04293 13.6439C4.04293 14.7041 4.61786 15.408 5.83967 15.408C6.85301 15.408 7.67445 14.8061 8.26589 13.8346L7.90475 15.284H9.91687L11.0669 10.6716C11.3543 9.50372 11.9113 8.89758 12.7558 8.89758C13.4206 8.89758 13.8338 9.31099 13.8338 9.99349C13.8338 10.1913 13.8158 10.4067 13.744 10.6403L13.151 12.7604C13.0611 13.0658 13.0254 13.3715 13.0254 13.6587C13.0254 14.6652 13.6181 15.4014 14.8579 15.4014C15.9179 15.4014 16.7623 14.719 17.2295 13.0839L16.4391 12.7787C16.0437 13.8742 15.7023 14.0722 15.4329 14.0722C15.1633 14.0722 15.0195 13.8927 15.0195 13.5335C15.0195 13.3718 15.0556 13.1924 15.1094 12.9763L15.6844 10.9108C15.8281 10.4258 15.8821 9.99569 15.8821 9.60054C15.8821 8.05539 14.9477 7.24902 13.8158 7.24902C12.7558 7.24902 11.6777 8.20516 11.1388 9.21145L11.534 7.40524H8.46172L8.03043 8.99614H9.46786L8.58278 12.5399C7.88763 14.0851 6.61081 14.1102 6.45058 14.0743C6.18748 14.0149 6.01922 13.915 6.01922 13.5731C6.01922 13.3758 6.05513 13.0925 6.14498 12.7508L7.49263 7.40524H4.07899L3.64771 8.99614H5.06702L4.15074 12.7395Z" fill="white"/>
</svg>
