<svg width="16" height="16" viewBox="0 0 16 16" fill="none" xmlns="http://www.w3.org/2000/svg">
<g clip-path="url(#clip0_1447_1841)">
<path fill-rule="evenodd" clip-rule="evenodd" d="M14.5496 0H1.45042C0.649394 0 0 0.649394 0 1.45042V14.5496C0 15.3506 0.649394 16 1.45042 16H14.5496C15.3506 16 16 15.3506 16 14.5496V1.45042C16 0.649394 15.3506 0 14.5496 0ZM5.34721 5.03406C5.87909 5.03406 6.32461 4.61715 6.32461 4.07079C6.32461 3.52479 5.87909 3.108 5.34721 3.108C4.81533 3.108 4.36988 3.52479 4.36988 4.07079C4.36988 4.61715 4.81533 5.03406 5.34721 5.03406ZM3.2343 10.9151C3.2343 10.6998 3.26315 10.4359 3.32055 10.1916L4.05358 7.19691H2.91812L3.26315 5.92418H5.99406L4.91594 10.2007C4.84406 10.474 4.81533 10.7007 4.81533 10.8585C4.81533 11.132 4.94994 11.2119 5.16042 11.2594C5.28861 11.2881 6.31006 11.2681 6.86618 10.0319L7.57424 7.19691H6.4243L6.76933 5.92418H9.22715L8.91103 7.36915C9.34212 6.56412 10.2046 5.79921 11.0526 5.79921C11.9581 5.79921 12.7056 6.4443 12.7056 7.68042C12.7056 7.99655 12.6624 8.34061 12.5475 8.72861L12.0875 10.381C12.0444 10.5539 12.0156 10.6975 12.0156 10.8268C12.0156 11.1141 12.1306 11.2578 12.3462 11.2578C12.5618 11.2578 12.8349 11.0993 13.1512 10.223L13.7836 10.4672C13.4098 11.7752 12.7343 12.3212 11.8862 12.3212C10.8944 12.3212 10.4202 11.7322 10.4202 10.927C10.4202 10.6972 10.4488 10.4527 10.5207 10.2083L10.9952 8.51224C11.0526 8.32533 11.067 8.15303 11.067 7.99479C11.067 7.44879 10.7364 7.11806 10.2046 7.11806C9.52897 7.11806 9.08339 7.60297 8.85345 8.53727L7.93345 12.2272H6.32376L6.61267 11.0676C6.13952 11.8449 5.48236 12.3264 4.6717 12.3264C3.69424 12.3264 3.2343 11.7633 3.2343 10.9151Z" fill="#FF00FF"/>
</g>
<defs>
<clipPath id="clip0_1447_1841">
<rect width="16" height="16" fill="white"/>
</clipPath>
</defs>
</svg>
