<svg width="16" height="16" viewBox="0 0 16 16" fill="none" xmlns="http://www.w3.org/2000/svg">
<g clip-path="url(#clip0_2179_3831)">
<path fill-rule="evenodd" clip-rule="evenodd" d="M14.5496 0H1.45042C0.649394 0 0 0.649394 0 1.45042V14.5496C0 15.3506 0.649394 16 1.45042 16H14.5496C15.3506 16 16 15.3506 16 14.5496V1.45042C16 0.649394 15.3506 0 14.5496 0" fill="#F42156"/>
<path fill-rule="evenodd" clip-rule="evenodd" d="M5.3473 5.03409C5.87918 5.03409 6.3247 4.61718 6.3247 4.07082C6.3247 3.52482 5.87918 3.10803 5.3473 3.10803C4.81543 3.10803 4.36997 3.52482 4.36997 4.07082C4.36997 4.61718 4.81543 5.03409 5.3473 5.03409Z" fill="white"/>
<path fill-rule="evenodd" clip-rule="evenodd" d="M3.32064 10.1916C3.26324 10.436 3.23439 10.6999 3.23439 10.9151C3.23439 11.7633 3.69433 12.3264 4.67179 12.3264C5.48246 12.3264 6.13961 11.8449 6.61276 11.0677L6.32385 12.2272H7.93355L8.85355 8.5373C9.08349 7.603 9.52906 7.11809 10.2047 7.11809C10.7365 7.11809 11.0671 7.44882 11.0671 7.99482C11.0671 8.15306 11.0527 8.32537 10.9952 8.51227L10.5208 10.2083C10.4489 10.4527 10.4203 10.6972 10.4203 10.927C10.4203 11.7322 10.8945 12.3212 11.8863 12.3212C12.7344 12.3212 13.4099 11.7752 13.7837 10.4672L13.1513 10.223C12.835 11.0994 12.5619 11.2578 12.3463 11.2578C12.1307 11.2578 12.0157 11.1142 12.0157 10.8268C12.0157 10.6975 12.0445 10.5539 12.0875 10.3811L12.5476 8.72864C12.6625 8.34064 12.7057 7.99658 12.7057 7.68046C12.7057 6.44434 11.9582 5.79924 11.0527 5.79924C10.2047 5.79924 9.34221 6.56415 8.91112 7.36918L9.22724 5.92421H6.76943L6.42439 7.19694H7.57433L6.86627 10.032C6.31015 11.2681 5.2887 11.2882 5.16052 11.2594C4.95003 11.212 4.81543 11.132 4.81543 10.8585C4.81543 10.7007 4.84415 10.474 4.91603 10.2007L5.99415 5.92421H3.26324L2.91821 7.19694H4.05367L3.32064 10.1916Z" fill="white"/>
</g>
<defs>
<clipPath id="clip0_2179_3831">
<rect width="16" height="16" fill="white"/>
</clipPath>
</defs>
</svg>
