<svg width="16" height="16" viewBox="0 0 16 16" fill="none" xmlns="http://www.w3.org/2000/svg">
<g clip-path="url(#clip0_1447_3131)">
<path fill-rule="evenodd" clip-rule="evenodd" d="M14.5496 0H1.45042C0.649394 0 0 0.649394 0 1.45042V14.5496C0 15.3506 0.649394 16 1.45042 16H14.5496C15.3506 16 16 15.3506 16 14.5496V1.45042C16 0.649394 15.3506 0 14.5496 0" fill="#F42156"/>
<path fill-rule="evenodd" clip-rule="evenodd" d="M5.34706 5.03406C5.87894 5.03406 6.32445 4.61715 6.32445 4.07079C6.32445 3.52479 5.87894 3.108 5.34706 3.108C4.81518 3.108 4.36973 3.52479 4.36973 4.07079C4.36973 4.61715 4.81518 5.03406 5.34706 5.03406Z" fill="white"/>
<path fill-rule="evenodd" clip-rule="evenodd" d="M3.32039 10.1916C3.263 10.4359 3.23415 10.6998 3.23415 10.9151C3.23415 11.7633 3.69409 12.3264 4.67154 12.3264C5.48221 12.3264 6.13936 11.8449 6.61251 11.0676L6.32361 12.2272H7.9333L8.8533 8.53727C9.08324 7.60297 9.52882 7.11806 10.2045 7.11806C10.7363 7.11806 11.0669 7.44879 11.0669 7.99479C11.0669 8.15303 11.0525 8.32534 10.995 8.51224L10.5206 10.2083C10.4487 10.4527 10.4201 10.6972 10.4201 10.927C10.4201 11.7322 10.8943 12.3212 11.8861 12.3212C12.7342 12.3212 13.4097 11.7752 13.7834 10.4672L13.1511 10.223C12.8348 11.0993 12.5617 11.2578 12.3461 11.2578C12.1305 11.2578 12.0154 11.1141 12.0154 10.8268C12.0154 10.6975 12.0443 10.5539 12.0873 10.381L12.5474 8.72861C12.6623 8.34061 12.7055 7.99655 12.7055 7.68043C12.7055 6.4443 11.958 5.79921 11.0525 5.79921C10.2045 5.79921 9.34197 6.56412 8.91088 7.36915L9.227 5.92418H6.76918L6.42415 7.19691H7.57409L6.86603 10.0319C6.30991 11.2681 5.28845 11.2881 5.16027 11.2594C4.94979 11.2119 4.81518 11.132 4.81518 10.8585C4.81518 10.7007 4.84391 10.474 4.91579 10.2007L5.99391 5.92418H3.263L2.91797 7.19691H4.05342L3.32039 10.1916Z" fill="white"/>
</g>
<defs>
<clipPath id="clip0_1447_3131">
<rect width="16" height="16" fill="white"/>
</clipPath>
</defs>
</svg>
