<svg width="20" height="20" viewBox="0 0 20 20" fill="none" xmlns="http://www.w3.org/2000/svg">
<path fill-rule="evenodd" clip-rule="evenodd" d="M18.187 0H1.81303C0.811742 0 0 0.811742 0 1.81303V18.187C0 19.1883 0.811742 20 1.81303 20H18.187C19.1883 20 20 19.1883 20 18.187V1.81303C20 0.811742 19.1883 0 18.187 0ZM6.68402 6.29258C7.34886 6.29258 7.90576 5.77144 7.90576 5.08848C7.90576 4.40598 7.34886 3.885 6.68402 3.885C6.01917 3.885 5.46235 4.40598 5.46235 5.08848C5.46235 5.77144 6.01917 6.29258 6.68402 6.29258ZM4.04288 13.6439C4.04288 13.3748 4.07894 13.0449 4.15068 12.7395L5.06697 8.99614H3.64765L4.07894 7.40523H7.49258L6.14492 12.7508C6.05508 13.0925 6.01917 13.3758 6.01917 13.5731C6.01917 13.915 6.18742 14.0149 6.45053 14.0742C6.61076 14.1102 7.88758 14.0851 8.58273 12.5399L9.4678 8.99614H8.03038L8.46167 7.40523H11.5339L11.1388 9.21144C11.6777 8.20515 12.7558 7.24902 13.8158 7.24902C14.9477 7.24902 15.882 8.05538 15.882 9.60053C15.882 9.99568 15.828 10.4258 15.6844 10.9108L15.1093 12.9763C15.0555 13.1923 15.0195 13.3718 15.0195 13.5335C15.0195 13.8927 15.1633 14.0722 15.4328 14.0722C15.7023 14.0722 16.0436 13.8742 16.439 12.7787L17.2295 13.0839C16.7623 14.719 15.9179 15.4014 14.8578 15.4014C13.618 15.4014 13.0253 14.6652 13.0253 13.6587C13.0253 13.3715 13.0611 13.0658 13.1509 12.7604L13.7439 10.6403C13.8158 10.4067 13.8338 10.1913 13.8338 9.99348C13.8338 9.31098 13.4205 8.89758 12.7558 8.89758C11.9112 8.89758 11.3542 9.50371 11.0668 10.6716L9.91682 15.284H7.9047L8.26583 13.8345C7.67439 14.8061 6.85295 15.408 5.83962 15.408C4.6178 15.408 4.04288 14.7041 4.04288 13.6439Z" fill="#FF00FF"/>
</svg>
