<svg width="16" height="16" viewBox="0 0 16 16" fill="none" xmlns="http://www.w3.org/2000/svg">
<g clip-path="url(#clip0_1447_3131)">
<path fill-rule="evenodd" clip-rule="evenodd" d="M14.5496 0H1.45042C0.649394 0 0 0.649394 0 1.45042V14.5496C0 15.3506 0.649394 16 1.45042 16H14.5496C15.3506 16 16 15.3506 16 14.5496V1.45042C16 0.649394 15.3506 0 14.5496 0Z" fill="#F42156"/>
<path fill-rule="evenodd" clip-rule="evenodd" d="M5.34706 5.03409C5.87894 5.03409 6.32445 4.61718 6.32445 4.07082C6.32445 3.52482 5.87894 3.10803 5.34706 3.10803C4.81518 3.10803 4.36973 3.52482 4.36973 4.07082C4.36973 4.61718 4.81518 5.03409 5.34706 5.03409Z" fill="white"/>
<path fill-rule="evenodd" clip-rule="evenodd" d="M3.32039 10.1916C3.263 10.436 3.23415 10.6999 3.23415 10.9151C3.23415 11.7633 3.69409 12.3264 4.67154 12.3264C5.48221 12.3264 6.13936 11.8449 6.61251 11.0677L6.32361 12.2272H7.9333L8.8533 8.5373C9.08324 7.603 9.52882 7.11809 10.2045 7.11809C10.7363 7.11809 11.0669 7.44882 11.0669 7.99482C11.0669 8.15306 11.0525 8.32537 10.995 8.51227L10.5206 10.2083C10.4487 10.4527 10.4201 10.6972 10.4201 10.927C10.4201 11.7322 10.8943 12.3212 11.8861 12.3212C12.7342 12.3212 13.4097 11.7752 13.7834 10.4672L13.1511 10.223C12.8348 11.0994 12.5617 11.2578 12.3461 11.2578C12.1305 11.2578 12.0154 11.1142 12.0154 10.8268C12.0154 10.6975 12.0443 10.5539 12.0873 10.3811L12.5474 8.72864C12.6623 8.34064 12.7055 7.99658 12.7055 7.68046C12.7055 6.44434 11.958 5.79924 11.0525 5.79924C10.2045 5.79924 9.34197 6.56415 8.91088 7.36918L9.227 5.92421H6.76918L6.42415 7.19694H7.57409L6.86603 10.032C6.30991 11.2681 5.28845 11.2882 5.16027 11.2594C4.94979 11.212 4.81518 11.132 4.81518 10.8585C4.81518 10.7007 4.84391 10.474 4.91579 10.2007L5.99391 5.92421H3.263L2.91797 7.19694H4.05342L3.32039 10.1916Z" fill="white"/>
</g>
<defs>
<clipPath id="clip0_1447_3131">
<rect width="16" height="16" fill="white"/>
</clipPath>
</defs>
</svg>
