<svg width="20" height="20" viewBox="0 0 20 20" fill="none" xmlns="http://www.w3.org/2000/svg">
<path d="M0.885871 6.74588C1.3773 6.74588 1.76528 6.35144 1.76528 5.87294C1.76528 5.38797 1.3773 5 0.885871 5C0.394439 5 0 5.38797 0 5.87294C0 6.35144 0.394439 6.74588 0.885871 6.74588ZM0.0840608 14.6347H1.69415V7.78047H0.0840608V14.6347Z" fill="#FF00FF"/>
<path d="M7.31975 5.14872C4.59748 5.14872 2.8904 7.00453 2.8904 9.97252C2.8904 12.9405 4.59748 14.7898 7.31975 14.7898C10.0356 14.7898 11.7426 12.9405 11.7426 9.97252C11.7426 7.00453 10.0356 5.14872 7.31975 5.14872ZM7.31975 6.57129C8.98157 6.57129 10.042 7.8904 10.042 9.97252C10.042 12.0482 8.98157 13.3673 7.31975 13.3673C5.65147 13.3673 4.59748 12.0482 4.59748 9.97252C4.59748 7.8904 5.65147 6.57129 7.31975 6.57129Z" fill="#FF00FF"/>
<path d="M12.6867 12.0288C12.7643 13.7359 14.1933 14.7898 16.3531 14.7898C18.5968 14.7898 20 13.6647 20 11.8801C20 10.4963 19.1788 9.7074 17.2131 9.30003L16.2043 9.09311C15.0404 8.8474 14.5748 8.44003 14.5748 7.80634C14.5748 7.02393 15.312 6.53249 16.3466 6.53249C17.4135 6.53249 18.1507 7.06272 18.2283 7.94213H19.8254C19.7866 6.27384 18.4222 5.14872 16.3595 5.14872C14.3356 5.14872 12.8936 6.26091 12.8936 7.90333C12.8936 9.2677 13.7666 10.1471 15.6353 10.5286L16.6376 10.7355C17.8532 10.9877 18.3188 11.4016 18.3188 12.074C18.3188 12.85 17.5364 13.4061 16.4113 13.4061C15.2473 13.4061 14.4067 12.8888 14.2839 12.0288H12.6867Z" fill="#FF00FF"/>
</svg>
