<svg width="16" height="16" viewBox="0 0 16 16" fill="none" xmlns="http://www.w3.org/2000/svg">
<path d="M0.708697 5.3967C1.10184 5.3967 1.41222 5.08115 1.41222 4.69835C1.41222 4.31038 1.10184 4 0.708697 4C0.315551 4 0 4.31038 0 4.69835C0 5.08115 0.315551 5.3967 0.708697 5.3967ZM0.0672486 11.7077H1.35532V6.22438H0.0672486V11.7077Z" fill="#FF00FF"/>
<path d="M5.8558 4.11898C3.67798 4.11898 2.31232 5.60362 2.31232 7.97801C2.31232 10.3524 3.67798 11.8319 5.8558 11.8319C8.02845 11.8319 9.39412 10.3524 9.39412 7.97801C9.39412 5.60362 8.02845 4.11898 5.8558 4.11898ZM5.8558 5.25703C7.18526 5.25703 8.03362 6.31232 8.03362 7.97801C8.03362 9.63854 7.18526 10.6938 5.8558 10.6938C4.52118 10.6938 3.67798 9.63854 3.67798 7.97801C3.67798 6.31232 4.52118 5.25703 5.8558 5.25703Z" fill="#FF00FF"/>
<path d="M10.1494 9.62302C10.2114 10.9887 11.3547 11.8319 13.0824 11.8319C14.8775 11.8319 16 10.9318 16 9.50404C16 8.39703 15.343 7.76592 13.7704 7.44003L12.9635 7.27449C12.0323 7.07792 11.6599 6.75202 11.6599 6.24507C11.6599 5.61914 12.2496 5.22599 13.0773 5.22599C13.9308 5.22599 14.5205 5.65018 14.5826 6.3537H15.8603C15.8293 5.01908 14.7378 4.11898 13.0876 4.11898C11.4685 4.11898 10.3149 5.00873 10.3149 6.32266C10.3149 7.41416 11.0133 8.11768 12.5082 8.42289L13.3101 8.58843C14.2826 8.79017 14.655 9.12124 14.655 9.65923C14.655 10.28 14.0291 10.7249 13.129 10.7249C12.1979 10.7249 11.5254 10.311 11.4271 9.62302H10.1494Z" fill="#FF00FF"/>
</svg>
