<svg width="16" height="16" viewBox="0 0 16 16" fill="none" xmlns="http://www.w3.org/2000/svg">
<g clip-path="url(#clip0_1447_3011)">
<rect width="16" height="16" fill="#F7DF1E"/>
<path fill-rule="evenodd" clip-rule="evenodd" d="M10.748 12.5C11.0703 13.0263 11.4896 13.4131 12.2312 13.4131C12.8542 13.4131 13.2521 13.1017 13.2521 12.6715C13.2521 12.1559 12.8432 11.9733 12.1575 11.6734L11.7817 11.5121C10.6967 11.0499 9.97594 10.4708 9.97594 9.24671C9.97594 8.11909 10.8351 7.26068 12.1778 7.26068C13.1338 7.26068 13.821 7.59338 14.3163 8.46449L13.1455 9.21624C12.8877 8.75401 12.6096 8.57192 12.1778 8.57192C11.7375 8.57192 11.4584 8.85128 11.4584 9.21624C11.4584 9.66728 11.7377 9.84989 12.3828 10.1293L12.7587 10.2903C14.0361 10.8381 14.7574 11.3966 14.7574 12.6522C14.7574 14.0058 13.694 14.7474 12.266 14.7474C10.8697 14.7474 9.96756 14.082 9.52616 13.2099L10.748 12.5ZM5.43676 12.6303C5.67295 13.0494 5.88781 13.4037 6.40438 13.4037C6.89835 13.4037 7.20997 13.2104 7.20997 12.4589V7.34652H8.71346V12.4792C8.71346 14.036 7.8007 14.7446 6.46838 14.7446C5.26457 14.7446 4.56743 14.1216 4.21289 13.3713L5.43676 12.6303Z" fill="black"/>
</g>
<defs>
<clipPath id="clip0_1447_3011">
<rect width="16" height="16" fill="white"/>
</clipPath>
</defs>
</svg>
