<svg width="20" height="20" viewBox="0 0 20 20" fill="none" xmlns="http://www.w3.org/2000/svg">
<rect width="20" height="20" fill="#F7DF1E"/>
<path fill-rule="evenodd" clip-rule="evenodd" d="M13.435 15.6251C13.8379 16.2829 14.362 16.7664 15.289 16.7664C16.0677 16.7664 16.5652 16.3771 16.5652 15.8394C16.5652 15.1949 16.054 14.9667 15.1969 14.5917L14.7271 14.3902C13.3709 13.8124 12.4699 13.0886 12.4699 11.5584C12.4699 10.1489 13.5439 9.07587 15.2223 9.07587C16.4172 9.07587 17.2763 9.49175 17.8953 10.5806L16.4318 11.5203C16.1096 10.9425 15.762 10.7149 15.2223 10.7149C14.6718 10.7149 14.3229 11.0641 14.3229 11.5203C14.3229 12.0841 14.6721 12.3124 15.4785 12.6616L15.9483 12.8629C17.5452 13.5476 18.4467 14.2457 18.4467 15.8152C18.4467 17.5073 17.1175 18.4343 15.3325 18.4343C13.5871 18.4343 12.4594 17.6025 11.9077 16.5124L13.435 15.6251ZM6.79595 15.7879C7.09119 16.3117 7.35976 16.7546 8.00548 16.7546C8.62294 16.7546 9.01246 16.513 9.01246 15.5737V9.18318H10.8918V15.599C10.8918 17.5451 9.75087 18.4308 8.08548 18.4308C6.58072 18.4308 5.70929 17.6521 5.26611 16.7141L6.79595 15.7879Z" fill="black"/>
</svg>
