<svg width="20" height="20" viewBox="0 0 20 20" fill="none" xmlns="http://www.w3.org/2000/svg">
<path fill-rule="evenodd" clip-rule="evenodd" d="M20 0H0V20H20V0ZM15.2889 16.7663C14.3619 16.7663 13.8378 16.2829 13.4349 15.6251L11.9076 16.5124C12.4594 17.6025 13.587 18.4343 15.3324 18.4343C17.1175 18.4343 18.4467 17.5073 18.4467 15.8152C18.4467 14.2457 17.5451 13.5476 15.9483 12.8629L15.4784 12.6616C14.6721 12.3124 14.3229 12.0841 14.3229 11.5203C14.3229 11.0641 14.6717 10.7149 15.2222 10.7149C15.7619 10.7149 16.1095 10.9425 16.4317 11.5203L17.8952 10.5806C17.2762 9.49175 16.4171 9.07587 15.2222 9.07587C13.5438 9.07587 12.4698 10.1489 12.4698 11.5584C12.4698 13.0886 13.3708 13.8124 14.727 14.3902L15.1968 14.5917C16.054 14.9667 16.5651 15.1949 16.5651 15.8394C16.5651 16.3771 16.0676 16.7663 15.2889 16.7663ZM8.0054 16.7546C7.35968 16.7546 7.09111 16.3117 6.79587 15.7879L5.26603 16.7141C5.70921 17.6521 6.58064 18.4308 8.0854 18.4308C9.75079 18.4308 10.8917 17.5451 10.8917 15.599V9.18318H9.01238V15.5737C9.01238 16.513 8.62286 16.7546 8.0054 16.7546Z" fill="#FF00FF"/>
</svg>
