<svg width="16" height="16" viewBox="0 0 16 16" fill="none" xmlns="http://www.w3.org/2000/svg">
<g clip-path="url(#clip0_1447_1820)">
<path fill-rule="evenodd" clip-rule="evenodd" d="M8.66648 0.665263L15.5296 7.52842C15.7759 7.775 15.7759 8.17447 15.5296 8.42105L13.2475 10.7032L13.1675 10.7832L8.00121 15.9495L5.19279 13.1411L0.472793 8.42105C0.226517 8.17447 0.226517 7.775 0.472793 7.52842L2.8349 5.16632L8.00121 0L8.66648 0.665263ZM5.64332 7.97474L8.00121 10.3326L10.3591 7.97474L8.00121 5.61684L5.64332 7.97474Z" fill="#FF00FF"/>
<path d="M8.00106 5.61682C6.45729 4.07286 6.44976 1.57214 7.98422 0.0189209L2.82422 5.17682L5.63264 7.98524L8.00106 5.61682Z" fill="url(#paint0_linear_1447_1820)"/>
<path d="M10.3654 7.96838L8.00122 10.3326C8.74635 11.0773 9.165 12.0876 9.165 13.141C9.165 14.1945 8.74635 15.2048 8.00122 15.9494L13.1739 10.7768L10.3654 7.96838Z" fill="url(#paint1_linear_1447_1820)"/>
</g>
<defs>
<linearGradient id="paint0_linear_1447_1820" x1="6.11006" y1="1.74683" x2="2.85111" y2="3.12307" gradientUnits="userSpaceOnUse">
<stop stop-opacity="0.2"/>
<stop offset="1" stop-opacity="0.01"/>
</linearGradient>
<linearGradient id="paint1_linear_1447_1820" x1="9.91655" y1="14.1779" x2="13.1693" y2="12.8116" gradientUnits="userSpaceOnUse">
<stop stop-opacity="0.2"/>
<stop offset="1" stop-opacity="0.01"/>
</linearGradient>
<clipPath id="clip0_1447_1820">
<rect width="16" height="16" fill="white"/>
</clipPath>
</defs>
</svg>
