<svg width="20" height="20" viewBox="0 0 20 20" fill="none" xmlns="http://www.w3.org/2000/svg">
<path fill-rule="evenodd" clip-rule="evenodd" d="M5.56262 4.79039C2.45682 4.79039 0 7.29599 0 11.4488C0 15.6016 2.45682 18.1304 5.53944 18.1304C7.37047 18.1304 8.66841 17.3184 9.34056 16.1584V17.968H13.9065V0.799988H9.34056V6.73919C8.62206 5.55599 7.27776 4.79039 5.56262 4.79039ZM6.99963 8.75759C8.27439 8.75759 9.36374 9.70879 9.36374 11.4488C9.36374 13.212 8.27439 14.1632 6.99963 14.1632C5.70168 14.1632 4.63551 13.1888 4.63551 11.4488C4.63551 9.68559 5.70168 8.75759 6.99963 8.75759Z" fill="black"/>
<path d="M17.6 18.2C18.9254 18.2 20 17.1255 20 15.8C20 14.4745 18.9254 13.4 17.6 13.4C16.2745 13.4 15.2 14.4745 15.2 15.8C15.2 17.1255 16.2745 18.2 17.6 18.2Z" fill="#62D198"/>
</svg>
