<svg width="16" height="16" viewBox="0 0 16 16" fill="none" xmlns="http://www.w3.org/2000/svg">
<path fill-rule="evenodd" clip-rule="evenodd" d="M15.1131 10.1847C15.1131 10.9304 14.5029 11.5406 13.7571 11.5406H2.36011C1.61433 11.5406 1.00415 10.9304 1.00415 10.1847V5.86634C1.00415 5.12056 1.61433 4.51038 2.36011 4.51038H13.7571C14.5029 4.51038 15.1131 5.12056 15.1131 5.86634V10.1847V10.1847Z" fill="url(#paint0_linear_2179_3841)"/>
<path fill-rule="evenodd" clip-rule="evenodd" d="M12.7289 7.93329C13.3246 8.14169 13.6223 8.49875 13.6223 9.00395C13.6223 9.33647 13.4988 9.60041 13.2524 9.79562C13.0063 9.99097 12.6552 10.1122 12.1981 10.1122C11.7411 10.1122 11.3183 9.97977 10.929 9.76238C10.9332 9.64709 10.9636 9.5206 11.0196 9.3833C11.0755 9.246 11.1417 9.13692 11.2176 9.05724C11.5754 9.24322 11.8868 9.33636 12.1512 9.33636C12.2761 9.33636 12.3728 9.31539 12.44 9.27317C12.5074 9.23111 12.541 9.17464 12.541 9.10369C12.541 8.97034 12.4377 8.87061 12.2318 8.80414L11.8619 8.66445C11.3024 8.46053 11.0226 8.12827 11.0226 7.66673C11.0226 7.32972 11.1402 7.06262 11.3752 6.86502C11.6103 6.6677 11.9271 6.4978 12.3254 6.4978C12.5225 6.4978 12.7395 6.52551 12.9769 6.58091C13.2141 6.63645 13.4089 6.77323 13.5611 6.8484C13.5701 6.97264 13.5451 7.10903 13.4873 7.25755C13.4289 7.40619 13.3575 7.51145 13.2721 7.57359C12.8958 7.40502 12.5827 7.32073 12.3318 7.32073C12.242 7.32073 12.1743 7.34065 12.1268 7.38075C12.0799 7.42073 12.0568 7.47162 12.0568 7.53376C12.0568 7.64021 12.1417 7.72436 12.312 7.78648L12.7289 7.93329V7.93329Z" fill="#F6F6F6"/>
<path fill-rule="evenodd" clip-rule="evenodd" d="M9.75354 7.93329C10.3492 8.14169 10.6468 8.49875 10.6468 9.00395C10.6468 9.33647 10.5233 9.60041 10.2773 9.79562C10.0309 9.99097 9.67969 10.1122 9.22278 10.1122C8.76614 10.1122 8.34286 9.97977 7.95361 9.76238C7.95783 9.64709 7.9883 9.5206 8.04435 9.3833C8.10029 9.246 8.16623 9.13692 8.24235 9.05724C8.60061 9.24322 8.91189 9.33636 9.17609 9.33636C9.30113 9.33636 9.39781 9.31539 9.46482 9.27317C9.53197 9.23111 9.56573 9.17464 9.56573 9.10369C9.56573 8.97034 9.46245 8.87061 9.25656 8.80414L8.88695 8.66445C8.3273 8.46053 8.0474 8.12827 8.0474 7.66673C8.0474 7.32972 8.16493 7.06262 8.40024 6.86502C8.63516 6.6677 8.95185 6.4978 9.3502 6.4978C9.54713 6.4978 9.76464 6.52551 10.0015 6.58091C10.239 6.63645 10.4335 6.77323 10.5859 6.8484C10.5948 6.97264 10.5699 7.10903 10.512 7.25755C10.4538 7.40619 10.3822 7.51145 10.297 7.57359C9.92055 7.40502 9.60742 7.32073 9.35642 7.32073C9.26673 7.32073 9.1988 7.34065 9.15157 7.38075C9.10474 7.42073 9.0814 7.47162 9.0814 7.53376C9.0814 7.64021 9.16647 7.72436 9.33676 7.78648L9.75354 7.93329V7.93329Z" fill="#F6F6F6"/>
<path fill-rule="evenodd" clip-rule="evenodd" d="M7.58396 7.98021C7.58396 7.77629 7.55151 7.58779 7.48662 7.41473C7.42185 7.24168 7.32886 7.09328 7.20803 6.96903C7.08707 6.84479 6.94053 6.7473 6.76826 6.67633C6.59572 6.6055 6.40209 6.49866 6.18722 6.49866C5.93198 6.49866 5.70921 6.61421 5.51901 6.70298C5.32881 6.79162 5.1721 6.9135 5.04903 7.06875C4.9257 7.22411 4.8339 7.40695 4.77348 7.61759C4.71307 7.82824 4.68286 8.05774 4.68286 8.30599C4.68286 8.56294 4.7074 8.80061 4.75673 9.01786C4.80593 9.23483 4.88993 9.42319 5.00854 9.58307C5.12725 9.74266 5.2817 9.86679 5.47203 9.95529C5.66237 10.0439 5.8986 10.112 6.18062 10.112C6.69992 10.112 7.13863 9.96163 7.49687 9.70904C7.46138 9.45209 7.36985 9.24777 7.22278 9.097C7.03983 9.16571 6.87797 9.21491 6.73764 9.24513C6.59717 9.27496 6.4733 9.28999 6.36634 9.28999C6.15225 9.28999 5.9982 9.23551 5.90469 9.12551C5.81128 9.0159 5.76004 8.88624 5.75097 8.68931H7.49713C7.55481 8.50281 7.58396 8.25075 7.58396 7.98021V7.98021ZM5.74431 8.02626C5.75762 7.79991 5.79892 7.55774 5.86765 7.45802C5.9365 7.35818 6.04189 7.30832 6.1842 7.30832C6.33076 7.30832 6.44076 7.36135 6.51396 7.4678C6.58731 7.57424 6.62396 7.78871 6.62396 7.95279L6.62409 8.02626H5.74431V8.02626V8.02626Z" fill="#F6F6F6"/>
<path fill-rule="evenodd" clip-rule="evenodd" d="M15.4646 8.46871C15.2748 8.63451 15.1646 8.87312 15.1646 9.18508V10.3469C15.1646 10.7331 15.0459 11.0268 14.7778 11.2288C14.5099 11.4305 14.1975 11.5303 13.841 11.5399L13.6297 11.5383V10.9594C13.8159 10.9051 13.8924 10.8419 13.9666 10.7701C14.1008 10.6488 14.2037 10.4513 14.2037 10.1771V9.23915C14.2087 8.92034 14.2333 8.67052 14.3493 8.49008C14.4658 8.30963 14.6925 8.15187 15.0295 8.01562C14.6573 7.84521 14.4074 7.62267 14.2799 7.34819C14.205 7.18516 14.2036 6.96515 14.2036 6.68841V5.82827C14.2036 5.54414 14.1106 5.34512 13.9962 5.23154C13.9218 5.1574 13.8353 5.09818 13.6294 5.05348V4.51003C13.8812 4.51267 14.0084 4.50978 14.155 4.51003C14.3808 4.50819 14.57 4.63166 14.7346 4.76025C14.9139 4.90125 15.0413 5.09186 15.1159 5.33178C15.1584 5.47041 15.1645 5.60285 15.1645 5.72894V6.72376C15.1645 7.07513 15.2683 7.33631 15.4457 7.50686C15.5457 7.60579 15.6868 7.69626 15.9291 7.77792V8.22732C15.7144 8.28669 15.5796 8.36714 15.4646 8.46871V8.46871Z" fill="#F6F6F6" stroke="#404040" stroke-width="0.1"/>
<path fill-rule="evenodd" clip-rule="evenodd" d="M2.10765 4.51043V4.51121C2.03551 4.51081 1.9702 4.51054 1.91798 4.51067C1.69203 4.5087 1.50289 4.63217 1.33842 4.76089C1.1589 4.90189 1.00525 5.08591 0.957107 5.33243C0.92967 5.47699 0.935476 5.60335 0.935476 5.72958V6.7244C0.935476 7.07566 0.80476 7.33669 0.627481 7.50752C0.527619 7.60643 0.314459 7.69677 0.0720215 7.77842V8.2278C0.28689 8.28703 0.493729 8.36722 0.60847 8.46906C0.798406 8.63499 0.93531 8.87375 0.93531 9.18567V10.3475C0.93531 10.7334 1.02739 11.0274 1.29528 11.2291C1.56318 11.4306 1.87538 11.5309 2.23192 11.5406L2.47052 11.5391V10.9597C2.2844 10.9053 2.18101 10.8421 2.10648 10.7706C1.97233 10.6491 1.89635 10.4518 1.89635 10.1777V9.2396C1.89121 8.92054 1.83977 8.67097 1.72357 8.49039C1.60737 8.31021 1.38062 8.15219 1.04322 8.01606C1.41559 7.84552 1.66541 7.62312 1.79283 7.34877C1.86789 7.1856 1.89637 6.96559 1.89637 6.68887V5.82873C1.89637 5.54461 1.96231 5.34558 2.07655 5.23188C2.13854 5.17016 2.2488 5.11937 2.40196 5.07823L2.64414 5.07992C2.64414 4.87147 2.64414 4.74099 2.64414 4.51038H2.10769V4.51043H2.10765V4.51043Z" fill="#F6F6F6" stroke="#404040" stroke-width="0.1"/>
<path fill-rule="evenodd" clip-rule="evenodd" d="M4.34028 9.2238H4.15892C3.96173 9.2238 3.88746 9.12012 3.88746 8.91186V5.08419C3.88746 4.85403 3.821 4.69244 3.7359 4.59933C3.65082 4.50647 3.5031 4.5074 3.29271 4.5074H2.88314L2.83487 4.50647V4.51042L2.83447 5.08011V9.09707C2.83447 9.41652 2.90623 9.65027 3.0339 9.79905C3.16171 9.94756 3.37764 10.0217 3.68207 10.0217C3.89259 10.0217 4.13213 9.99953 4.40067 9.95508C4.41413 9.91022 4.42086 9.81421 4.42086 9.66687C4.42086 9.51914 4.39397 9.3718 4.34028 9.2238V9.2238Z" fill="#F6F6F6"/>
<defs>
<linearGradient id="paint0_linear_2179_3841" x1="1.00415" y1="4.51038" x2="1.00415" y2="11.5406" gradientUnits="userSpaceOnUse">
<stop offset="0.1497" stop-color="#2A4F84"/>
<stop offset="0.3884" stop-color="#294E82"/>
<stop offset="1" stop-color="#172E4E"/>
</linearGradient>
</defs>
</svg>
