<svg width="16" height="16" viewBox="0 0 16 16" fill="none" xmlns="http://www.w3.org/2000/svg">
<path d="M4.15879 9.2238H4.34015C4.39384 9.3718 4.42073 9.51914 4.42073 9.66687C4.42073 9.81421 4.414 9.91022 4.40054 9.95508C4.132 9.99953 3.89246 10.0217 3.68194 10.0217C3.37751 10.0217 3.16158 9.94756 3.03377 9.79905C2.9061 9.65027 2.83434 9.41652 2.83434 9.09706L2.83474 4.50647L2.88301 4.5074L3.29877 4.5074C3.50587 4.50739 3.65152 4.50738 3.73577 4.59933C3.82087 4.69244 3.88733 4.85403 3.88733 5.08419V8.91186C3.88733 9.12012 3.9616 9.2238 4.15879 9.2238Z" fill="#FF00FF"/>
<path d="M13.622 9.00394C13.622 8.49874 13.3243 8.14168 12.7286 7.93328L12.3117 7.78647C12.1414 7.72435 12.0565 7.6402 12.0565 7.53375C12.0565 7.47161 12.0796 7.42072 12.1265 7.38074C12.174 7.34065 12.2417 7.32072 12.3315 7.32072C12.5824 7.32072 12.8955 7.40501 13.2718 7.57358C13.3572 7.51144 13.4287 7.40619 13.487 7.25754C13.5449 7.10902 13.5698 6.97263 13.5608 6.84839C13.5205 6.82849 13.4772 6.80427 13.431 6.77839C13.3025 6.7065 13.151 6.62174 12.9766 6.5809C12.7392 6.5255 12.5222 6.49779 12.3252 6.49779C11.9268 6.49779 11.61 6.66769 11.3749 6.86501C11.1399 7.06261 11.0223 7.32971 11.0223 7.66672C11.0223 8.12826 11.3021 8.46052 11.8616 8.66444L12.2315 8.80413C12.4374 8.8706 12.5407 8.97033 12.5407 9.10368C12.5407 9.17463 12.5072 9.2311 12.4398 9.27317C12.3725 9.31538 12.2758 9.33635 12.1509 9.33635C11.8866 9.33635 11.5751 9.24321 11.2173 9.05724C11.1414 9.13691 11.0752 9.24599 11.0193 9.3833C10.9634 9.5206 10.9329 9.64708 10.9287 9.76237C11.318 9.97976 11.7408 10.1122 12.1978 10.1122C12.6549 10.1122 13.006 9.99096 13.2521 9.79561C13.4985 9.6004 13.622 9.33647 13.622 9.00394Z" fill="#FF00FF"/>
<path d="M9.75342 7.93328C10.3491 8.14168 10.6467 8.49874 10.6467 9.00394C10.6467 9.33647 10.5232 9.6004 10.2772 9.79561C10.0308 9.99096 9.67957 10.1122 9.22266 10.1122C8.76602 10.1122 8.34274 9.97976 7.95349 9.76237C7.95771 9.64708 7.98818 9.5206 8.04423 9.3833C8.10017 9.24599 8.1661 9.13691 8.24223 9.05724C8.60048 9.24321 8.91176 9.33635 9.17597 9.33635C9.30101 9.33635 9.39769 9.31538 9.4647 9.27317C9.53185 9.2311 9.56561 9.17463 9.56561 9.10368C9.56561 8.97033 9.46233 8.8706 9.25644 8.80413L8.88683 8.66444C8.32718 8.46052 8.04728 8.12826 8.04728 7.66672C8.04728 7.32971 8.16481 7.06261 8.40012 6.86501C8.63504 6.66769 8.95173 6.49779 9.35008 6.49779C9.54701 6.49779 9.76452 6.5255 10.0014 6.5809C10.1759 6.62171 10.3272 6.70638 10.4556 6.77823C10.502 6.80418 10.5453 6.82845 10.5857 6.84839C10.5947 6.97263 10.5698 7.10902 10.5119 7.25754C10.4537 7.40619 10.3821 7.51144 10.2969 7.57358C9.92043 7.40501 9.6073 7.32072 9.3563 7.32072C9.2666 7.32072 9.19868 7.34065 9.15145 7.38074C9.10462 7.42072 9.08128 7.47161 9.08128 7.53375C9.08128 7.6402 9.16634 7.72435 9.33664 7.78647L9.75342 7.93328Z" fill="#FF00FF"/>
<path fill-rule="evenodd" clip-rule="evenodd" d="M7.48641 7.41475C7.55131 7.58781 7.58375 7.77631 7.58375 7.98023C7.58375 8.25076 7.55461 8.50282 7.49693 8.68933H5.75076C5.75984 8.88626 5.81108 9.01592 5.90449 9.12553C5.998 9.23553 6.15205 9.29 6.36614 9.29C6.4731 9.29 6.59697 9.27498 6.73744 9.24515C6.87777 9.21493 7.03963 9.16572 7.22258 9.09702C7.36965 9.24779 7.46118 9.45211 7.49667 9.70906C7.13842 9.96165 6.69971 10.112 6.18042 10.112C5.8984 10.112 5.66217 10.044 5.47183 9.95531C5.2815 9.86681 5.12704 9.74268 5.00834 9.58309C4.88973 9.42321 4.80573 9.23485 4.75653 9.01787C4.70719 8.80063 4.68266 8.56296 4.68266 8.306C4.68266 8.05776 4.71287 7.82826 4.77328 7.61761C4.8337 7.40697 4.9255 7.22413 5.04883 7.06876C5.1719 6.91352 5.32861 6.79164 5.51881 6.70299L5.5653 6.68115C5.74503 6.5964 5.95229 6.49867 6.18702 6.49867C6.36169 6.49867 6.52232 6.56928 6.669 6.63375C6.70276 6.64859 6.73578 6.6631 6.76806 6.67635C6.94033 6.74732 7.08687 6.84481 7.20783 6.96905C7.32866 7.0933 7.42165 7.2417 7.48641 7.41475ZM5.86745 7.45804C5.79872 7.55775 5.75742 7.79993 5.74411 8.02627H6.62389L6.62376 7.9528C6.62376 7.78873 6.58711 7.57426 6.51376 7.46781C6.44056 7.36137 6.33056 7.30833 6.184 7.30833C6.04169 7.30833 5.9363 7.3582 5.86745 7.45804Z" fill="#FF00FF"/>
<path d="M15.4643 8.4688C15.2745 8.6346 15.1643 8.87321 15.1643 9.18517V10.347C15.1643 10.7332 15.0456 11.0269 14.7775 11.2289C14.5096 11.4305 14.1972 11.5304 13.8407 11.54L13.6294 11.5384V10.9595C13.8156 10.9052 13.8921 10.842 13.9663 10.7702C14.1006 10.6489 14.2034 10.4514 14.2034 10.1772V9.23924C14.2084 8.92043 14.233 8.67061 14.349 8.49017C14.4655 8.30972 14.6923 8.15196 15.0293 8.01571C14.657 7.8453 14.4071 7.62276 14.2797 7.34828C14.2047 7.18525 14.2033 6.96524 14.2033 6.68849V5.82836C14.2033 5.54423 14.1103 5.34521 13.9959 5.23163C13.9215 5.15749 13.835 5.09827 13.6291 5.05357V4.51012C13.7948 4.51185 13.9066 4.5112 14.0054 4.51062C14.0567 4.51032 14.1046 4.51003 14.1547 4.51012C14.3806 4.50828 14.5697 4.63174 14.7343 4.76034C14.9136 4.90134 15.041 5.09195 15.1157 5.33187C15.1581 5.4705 15.1642 5.60294 15.1642 5.72903V6.72384C15.1642 7.07522 15.268 7.3364 15.4454 7.50694C15.5454 7.60588 15.6865 7.69635 15.9288 7.77801V8.22741C15.7141 8.28678 15.5793 8.36723 15.4643 8.4688Z" fill="#FF00FF"/>
<path d="M2.10741 4.5112L2.64389 4.51037V5.07991L2.40172 5.07822C2.24856 5.11936 2.1383 5.17015 2.07631 5.23188C1.96206 5.34557 1.89613 5.5446 1.89613 5.82872V6.68886C1.89613 6.96559 1.86764 7.1856 1.79258 7.34876C1.66517 7.62311 1.41535 7.84551 1.04297 8.01606C1.38038 8.15218 1.60712 8.3102 1.72332 8.49038C1.83953 8.67096 1.89097 8.92053 1.89611 9.23959V10.1777C1.89611 10.4518 1.97208 10.6491 2.10623 10.7706C2.18076 10.8421 2.28416 10.9053 2.47028 10.9597V11.539L2.23167 11.5406C1.87514 11.5309 1.56293 11.4306 1.29503 11.2291C1.02715 11.0274 0.935065 10.7334 0.935065 10.3475V9.18566C0.935065 8.87374 0.798162 8.63498 0.608226 8.46905C0.493485 8.36721 0.286646 8.28703 0.0717773 8.22779V7.77841C0.314215 7.69676 0.527375 7.60642 0.627236 7.50751C0.804516 7.33668 0.935231 7.07565 0.935231 6.72439V5.72957C0.935231 5.71087 0.935104 5.69216 0.934976 5.67339C0.934241 5.56549 0.933492 5.45556 0.956863 5.33242C1.005 5.0859 1.15866 4.90188 1.33818 4.76088C1.50265 4.63216 1.69179 4.50869 1.91774 4.51067C1.96996 4.51053 2.03527 4.5108 2.10741 4.5112Z" fill="#FF00FF"/>
</svg>
