<svg width="20" height="20" viewBox="0 0 20 20" fill="none" xmlns="http://www.w3.org/2000/svg">
<path fill-rule="evenodd" clip-rule="evenodd" d="M5.19885 11.5297H5.42555C5.49267 11.7147 5.52628 11.8989 5.52628 12.0835C5.52628 12.2677 5.51786 12.3877 5.50105 12.4438C5.16536 12.4994 4.86594 12.5271 4.60279 12.5271C4.22225 12.5271 3.95234 12.4344 3.79258 12.2488C3.633 12.0628 3.54329 11.7706 3.54329 11.3713V6.35008L3.54379 5.63796V5.63303L3.60413 5.63419H4.11609L4.12383 5.63419C4.3827 5.63418 4.56477 5.63417 4.67008 5.7491C4.77645 5.86549 4.85953 6.06747 4.85953 6.35518V11.1398C4.85953 11.4001 4.95237 11.5297 5.19885 11.5297ZM17.0279 11.2549C17.0279 10.6234 16.6557 10.177 15.9111 9.91654L15.39 9.73303C15.1771 9.65538 15.071 9.55019 15.071 9.41713C15.071 9.33945 15.0998 9.27584 15.1585 9.22586C15.2179 9.17575 15.3025 9.15084 15.4148 9.15084C15.7284 9.15084 16.1198 9.2562 16.5902 9.46691C16.6968 9.38924 16.7862 9.25767 16.8591 9.07186C16.9314 8.88622 16.9626 8.71573 16.9514 8.56043C16.901 8.53555 16.8469 8.50528 16.7891 8.47293C16.6285 8.38306 16.4391 8.27711 16.2211 8.22607C15.9244 8.15681 15.6531 8.12218 15.4068 8.12218C14.9089 8.12218 14.5128 8.33455 14.219 8.5812C13.9252 8.8282 13.7783 9.16208 13.7783 9.58334C13.7783 10.1603 14.128 10.5756 14.8274 10.8305L15.2897 11.0051C15.5471 11.0882 15.6762 11.2129 15.6762 11.3795C15.6762 11.4682 15.6343 11.5388 15.5501 11.5914C15.466 11.6442 15.3451 11.6704 15.189 11.6704C14.8586 11.6704 14.4693 11.5539 14.022 11.3215C13.9272 11.4211 13.8444 11.5574 13.7745 11.7291C13.7046 11.9007 13.6665 12.0588 13.6612 12.2029C14.1479 12.4746 14.6764 12.6402 15.2477 12.6402C15.819 12.6402 16.2579 12.4886 16.5655 12.2445C16.8735 12.0004 17.0279 11.6705 17.0279 11.2549ZM12.1921 9.91654C12.9367 10.177 13.3087 10.6234 13.3087 11.2549C13.3087 11.6705 13.1544 12.0004 12.8469 12.2445C12.5389 12.4886 12.0998 12.6402 11.5287 12.6402C10.9579 12.6402 10.4288 12.4746 9.94223 12.2029C9.9475 12.0588 9.98559 11.9007 10.0557 11.7291C10.1256 11.5574 10.208 11.4211 10.3032 11.3215C10.751 11.5539 11.1401 11.6704 11.4703 11.6704C11.6266 11.6704 11.7475 11.6442 11.8312 11.5914C11.9152 11.5388 11.9574 11.4682 11.9574 11.3795C11.9574 11.2129 11.8283 11.0882 11.5709 11.0051L11.1089 10.8305C10.4093 10.5756 10.0595 10.1603 10.0595 9.58334C10.0595 9.16208 10.2064 8.8282 10.5005 8.5812C10.7942 8.33455 11.19 8.12218 11.688 8.12218C11.9341 8.12218 12.206 8.15681 12.5021 8.22607C12.7202 8.27707 12.9093 8.38291 13.0699 8.47273C13.1278 8.50516 13.182 8.5355 13.2325 8.56043C13.2438 8.71573 13.2126 8.88622 13.1402 9.07186C13.0675 9.25767 12.978 9.38924 12.8715 9.46691C12.4009 9.2562 12.0095 9.15084 11.6957 9.15084C11.5836 9.15084 11.4987 9.17575 11.4397 9.22586C11.3811 9.27584 11.352 9.33945 11.352 9.41713C11.352 9.55019 11.4583 9.65538 11.6712 9.73303L12.1921 9.91654ZM9.35838 9.26837C9.4395 9.4847 9.48006 9.72032 9.48006 9.97522C9.48006 10.3134 9.44363 10.6285 9.37153 10.8616H7.18882C7.20016 11.1078 7.26421 11.2698 7.38098 11.4069C7.49786 11.5443 7.69043 11.6124 7.95804 11.6124C8.09174 11.6124 8.24657 11.5937 8.42216 11.5564C8.59758 11.5186 8.7999 11.4571 9.02859 11.3712C9.21243 11.5597 9.32685 11.8151 9.3712 12.1363C8.9234 12.452 8.37501 12.64 7.72589 12.64C7.37337 12.64 7.07807 12.5549 6.84016 12.4441C6.60224 12.3335 6.40917 12.1783 6.26079 11.9788C6.11253 11.7789 6.00753 11.5435 5.94603 11.2723C5.88436 11.0007 5.85369 10.7036 5.85369 10.3824C5.85369 10.0721 5.89145 9.78526 5.96697 9.52194C6.04249 9.25865 6.15724 9.0301 6.3114 8.83589C6.46524 8.64183 6.66113 8.48949 6.89888 8.37868L6.95699 8.35137C7.18165 8.24544 7.44073 8.12328 7.73414 8.12328C7.95248 8.12328 8.15327 8.21154 8.33662 8.29212L8.33663 8.29213C8.37882 8.31068 8.42009 8.32882 8.46044 8.34538C8.67578 8.43408 8.85895 8.55595 9.01015 8.71125C9.16119 8.86656 9.27743 9.05206 9.35838 9.26837ZM7.33467 9.32249C7.24877 9.44713 7.19714 9.74985 7.18051 10.0328H8.28023L8.28006 9.94094C8.28006 9.73585 8.23426 9.46776 8.14257 9.3347C8.05106 9.20165 7.91356 9.13535 7.73037 9.13535C7.55248 9.13535 7.42075 9.19769 7.33467 9.32249ZM19.3307 10.5859C19.0935 10.7932 18.9558 11.0914 18.9558 11.4814V12.9336C18.9558 13.4164 18.8074 13.7836 18.4722 14.036C18.1373 14.2881 17.7469 14.4129 17.3012 14.4249L17.0371 14.423V13.6993C17.2699 13.6314 17.3655 13.5524 17.4582 13.4627C17.6261 13.311 17.7547 13.0642 17.7547 12.7214V11.549C17.7609 11.1505 17.7916 10.8382 17.9367 10.6126C18.0823 10.3871 18.3657 10.1899 18.7869 10.0196C18.3217 9.80656 18.0092 9.52839 17.8499 9.18529C17.7563 8.9815 17.7545 8.70649 17.7545 8.36056V7.28539C17.7545 6.93023 17.6382 6.68145 17.4953 6.53947C17.4023 6.44681 17.2941 6.37278 17.0368 6.3169V5.63759C17.2439 5.63976 17.3836 5.63894 17.5071 5.63821C17.5713 5.63783 17.6311 5.63748 17.6938 5.63759C17.9761 5.63529 18.2125 5.78962 18.4183 5.95036C18.6424 6.12661 18.8016 6.36488 18.8949 6.66478C18.948 6.83806 18.9556 7.00361 18.9556 7.16122V8.40474C18.9556 8.84396 19.0854 9.17044 19.3071 9.38362C19.4321 9.50729 19.6085 9.62038 19.9114 9.72246V10.2842C19.643 10.3584 19.4745 10.459 19.3307 10.5859ZM2.63463 5.63894V5.63796H2.63467V5.6379H3.30523V6.34983L3.00252 6.34771C2.81107 6.39914 2.67324 6.46263 2.59575 6.53978C2.45295 6.6819 2.37052 6.93069 2.37052 7.28584V8.36101C2.37052 8.70692 2.33492 8.98193 2.24109 9.18589C2.08182 9.52883 1.76955 9.80683 1.30408 10.02C1.72584 10.1902 2.00927 10.3877 2.15452 10.6129C2.29977 10.8386 2.36407 11.1506 2.3705 11.5494V12.722C2.3705 13.0646 2.46547 13.3113 2.63316 13.4632C2.72632 13.5525 2.85556 13.6315 3.08822 13.6996V14.4237L2.78996 14.4257C2.34429 14.4135 1.95403 14.2882 1.61916 14.0363C1.2843 13.7842 1.1692 13.4167 1.1692 12.9343V11.482C1.1692 11.0921 0.998069 10.7937 0.760649 10.5863C0.617222 10.459 0.358673 10.3587 0.0900879 10.2847V9.72295C0.393135 9.62089 0.659585 9.50797 0.784412 9.38432C1.00601 9.17079 1.16941 8.8445 1.16941 8.40543V7.16191C1.16941 7.13852 1.16925 7.11514 1.16909 7.09167C1.16817 6.9568 1.16723 6.81939 1.19644 6.66546C1.25662 6.35731 1.44869 6.1273 1.67309 5.95104C1.87868 5.79014 2.1151 5.6358 2.39754 5.63827C2.46282 5.63811 2.54445 5.63844 2.63463 5.63894Z" fill="#FF00FF"/>
</svg>
