<svg width="20" height="20" viewBox="0 0 20 20" fill="none" xmlns="http://www.w3.org/2000/svg">
<path fill-rule="evenodd" clip-rule="evenodd" d="M18.8913 12.7308C18.8913 13.663 18.1285 14.4258 17.1963 14.4258H2.95008C2.01786 14.4258 1.25513 13.663 1.25513 12.7308V7.33289C1.25513 6.40067 2.01786 5.63794 2.95008 5.63794H17.1963C18.1285 5.63794 18.8913 6.40067 18.8913 7.33289V12.7308Z" fill="url(#paint0_linear)"/>
<path fill-rule="evenodd" clip-rule="evenodd" d="M15.9111 9.91655C16.6557 10.177 17.0278 10.6234 17.0278 11.2549C17.0278 11.6705 16.8735 12.0005 16.5655 12.2445C16.2578 12.4886 15.8189 12.6402 15.2476 12.6402C14.6763 12.6402 14.1479 12.4747 13.6611 12.2029C13.6664 12.0588 13.7045 11.9007 13.7744 11.7291C13.8443 11.5574 13.9271 11.4211 14.0219 11.3215C14.4692 11.554 14.8585 11.6704 15.1889 11.6704C15.3451 11.6704 15.4659 11.6442 15.55 11.5914C15.6342 11.5388 15.6761 11.4682 15.6761 11.3796C15.6761 11.2129 15.547 11.0882 15.2897 11.0051L14.8274 10.8305C14.1279 10.5756 13.7782 10.1603 13.7782 9.58335C13.7782 9.16209 13.9251 8.82821 14.219 8.58121C14.5128 8.33456 14.9088 8.12219 15.4067 8.12219C15.6531 8.12219 15.9243 8.15682 16.2211 8.22608C16.5175 8.2955 16.761 8.46648 16.9513 8.56043C16.9625 8.71574 16.9314 8.88623 16.859 9.07187C16.7861 9.25768 16.6968 9.38925 16.5901 9.46692C16.1197 9.25621 15.7283 9.15085 15.4147 9.15085C15.3024 9.15085 15.2178 9.17576 15.1585 9.22587C15.0998 9.27585 15.0709 9.33946 15.0709 9.41714C15.0709 9.5502 15.1771 9.65539 15.3899 9.73304L15.9111 9.91655Z" fill="#F6F6F6"/>
<path fill-rule="evenodd" clip-rule="evenodd" d="M12.1921 9.91655C12.9366 10.177 13.3086 10.6234 13.3086 11.2549C13.3086 11.6705 13.1543 12.0005 12.8468 12.2445C12.5388 12.4886 12.0997 12.6402 11.5286 12.6402C10.9578 12.6402 10.4287 12.4747 9.94214 12.2029C9.94741 12.0588 9.9855 11.9007 10.0556 11.7291C10.1255 11.5574 10.2079 11.4211 10.3031 11.3215C10.7509 11.554 11.14 11.6704 11.4702 11.6704C11.6265 11.6704 11.7474 11.6442 11.8312 11.5914C11.9151 11.5388 11.9573 11.4682 11.9573 11.3796C11.9573 11.2129 11.8282 11.0882 11.5708 11.0051L11.1088 10.8305C10.4092 10.5756 10.0594 10.1603 10.0594 9.58335C10.0594 9.16209 10.2063 8.82821 10.5004 8.58121C10.7941 8.33456 11.1899 8.12219 11.6879 8.12219C11.934 8.12219 12.2059 8.15682 12.502 8.22608C12.7988 8.2955 13.042 8.46648 13.2324 8.56043C13.2437 8.71574 13.2125 8.88623 13.1401 9.07187C13.0674 9.25768 12.9779 9.38925 12.8714 9.46692C12.4008 9.25621 12.0094 9.15085 11.6956 9.15085C11.5835 9.15085 11.4986 9.17576 11.4396 9.22587C11.381 9.27585 11.3519 9.33946 11.3519 9.41714C11.3519 9.5502 11.4582 9.65539 11.6711 9.73304L12.1921 9.91655Z" fill="#F6F6F6"/>
<path fill-rule="evenodd" clip-rule="evenodd" d="M9.47988 9.97523C9.47988 9.72033 9.43932 9.48471 9.35821 9.26838C9.27726 9.05207 9.16101 8.86657 9.00998 8.71126C8.85878 8.55596 8.6756 8.43409 8.46026 8.34539C8.24459 8.25685 8.00255 8.12329 7.73396 8.12329C7.41491 8.12329 7.13645 8.26773 6.8987 8.37869C6.66095 8.4895 6.46506 8.64184 6.31123 8.8359C6.15706 9.03011 6.04231 9.25866 5.96679 9.52195C5.89127 9.78527 5.85352 10.0721 5.85352 10.3825C5.85352 10.7036 5.88418 11.0007 5.94585 11.2723C6.00735 11.5435 6.11236 11.779 6.26061 11.9788C6.409 12.1783 6.60206 12.3335 6.83998 12.4441C7.0779 12.5549 7.37319 12.64 7.72571 12.64C8.37483 12.64 8.92322 12.452 9.37102 12.1363C9.32667 11.8151 9.21225 11.5597 9.02841 11.3712C8.79972 11.4571 8.59741 11.5186 8.42199 11.5564C8.2464 11.5937 8.09157 11.6125 7.95787 11.6125C7.69025 11.6125 7.49769 11.5444 7.3808 11.4069C7.26404 11.2698 7.19999 11.1078 7.18865 10.8616H9.37135C9.44345 10.6285 9.47988 10.3134 9.47988 9.97523ZM7.18033 10.0328C7.19696 9.74986 7.24859 9.44714 7.3345 9.3225C7.42057 9.19769 7.5523 9.13536 7.73019 9.13536C7.91339 9.13536 8.05088 9.20165 8.14239 9.33471C8.23408 9.46777 8.27989 9.73586 8.27989 9.94095L8.28005 10.0328H7.18033Z" fill="#F6F6F6"/>
<path fill-rule="evenodd" clip-rule="evenodd" d="M19.3306 10.5859C19.0933 10.7932 18.9557 11.0915 18.9557 11.4814V12.9337C18.9557 13.4164 18.8073 13.7836 18.4721 14.036C18.1372 14.2881 17.7468 14.4129 17.3011 14.425L17.037 14.423V13.6993C17.2698 13.6314 17.3654 13.5524 17.4581 13.4627C17.6259 13.3111 17.7545 13.0642 17.7545 12.7214V11.549C17.7608 11.1505 17.7915 10.8382 17.9365 10.6127C18.0821 10.3871 18.3656 10.1899 18.7868 10.0196C18.3215 9.80657 18.0091 9.5284 17.8498 9.1853C17.7562 8.98151 17.7543 8.7065 17.7543 8.36057V7.2854C17.7543 6.93024 17.6381 6.68146 17.4951 6.53948C17.4022 6.44682 17.294 6.37279 17.0366 6.31691V5.6376C17.3514 5.6409 17.5103 5.63729 17.6937 5.6376C17.9759 5.6353 18.2124 5.78963 18.4181 5.95037C18.6422 6.12662 18.8015 6.36489 18.8948 6.66479C18.9479 6.83807 18.9555 7.00362 18.9555 7.16123V8.40475C18.9555 8.84397 19.0852 9.17045 19.307 9.38363C19.432 9.5073 19.6084 9.62039 19.9113 9.72247V10.2842C19.6429 10.3584 19.4744 10.459 19.3306 10.5859Z" fill="#F6F6F6" stroke="#404040" stroke-width="0.1"/>
<path fill-rule="evenodd" clip-rule="evenodd" d="M2.63463 5.63797V5.63895C2.54445 5.63845 2.46282 5.63812 2.39754 5.63828C2.1151 5.63581 1.87868 5.79015 1.67309 5.95105C1.44869 6.12731 1.25662 6.35732 1.19644 6.66547C1.16215 6.84618 1.16941 7.00412 1.16941 7.16192V8.40544C1.16941 8.84451 1.00601 9.1708 0.784412 9.38433C0.659585 9.50798 0.393135 9.6209 0.0900879 9.72296V10.2847C0.358673 10.3587 0.617222 10.459 0.760649 10.5863C0.998069 10.7937 1.1692 11.0921 1.1692 11.482V12.9343C1.1692 13.4167 1.2843 13.7842 1.61916 14.0363C1.95403 14.2882 2.34429 14.4136 2.78996 14.4257L3.08822 14.4238V13.6996C2.85556 13.6315 2.72632 13.5525 2.63316 13.4632C2.46547 13.3113 2.3705 13.0647 2.3705 12.722V11.5494C2.36407 11.1506 2.29977 10.8387 2.15452 10.6129C2.00927 10.3877 1.72584 10.1902 1.30408 10.02C1.76955 9.80684 2.08182 9.52884 2.24109 9.1859C2.33492 8.98194 2.37052 8.70693 2.37052 8.36102V7.28585C2.37052 6.9307 2.45295 6.68191 2.59575 6.53979C2.67324 6.46264 2.81107 6.39915 3.00252 6.34772L3.30523 6.34984C3.30523 6.08928 3.30523 5.92617 3.30523 5.63791H2.63467V5.63797H2.63463Z" fill="#F6F6F6" stroke="#404040" stroke-width="0.1"/>
<path fill-rule="evenodd" clip-rule="evenodd" d="M5.42547 11.5297H5.19877C4.95229 11.5297 4.85945 11.4001 4.85945 11.1398V6.35518C4.85945 6.06747 4.77637 5.86549 4.66999 5.7491C4.56364 5.63303 4.37899 5.63419 4.11601 5.63419H3.60405L3.54371 5.63303V5.63796L3.54321 6.35008V11.3713C3.54321 11.7706 3.63291 12.0628 3.79249 12.2488C3.95226 12.4344 4.22217 12.5271 4.60271 12.5271C4.86586 12.5271 5.16528 12.4994 5.50096 12.4438C5.51778 12.3877 5.5262 12.2677 5.5262 12.0835C5.5262 11.8989 5.49259 11.7147 5.42547 11.5297Z" fill="#F6F6F6"/>
<defs>
<linearGradient id="paint0_linear" x1="1.25513" y1="5.63794" x2="1.25513" y2="14.4258" gradientUnits="userSpaceOnUse">
<stop offset="0.1497" stop-color="#2A4F84"/>
<stop offset="0.3884" stop-color="#294E82"/>
<stop offset="1" stop-color="#172E4E"/>
</linearGradient>
</defs>
</svg>
