<svg width="16" height="16" viewBox="0 0 16 16" fill="none" xmlns="http://www.w3.org/2000/svg">
<path fill-rule="evenodd" clip-rule="evenodd" d="M15.1128 10.1847C15.1128 10.9304 14.5026 11.5406 13.7569 11.5406H2.35987C1.61409 11.5406 1.00391 10.9304 1.00391 10.1847V5.86634C1.00391 5.12056 1.61409 4.51038 2.35987 4.51038H13.7569C14.5026 4.51038 15.1128 5.12056 15.1128 5.86634V10.1847Z" fill="url(#paint0_linear_1447_3139)"/>
<path fill-rule="evenodd" clip-rule="evenodd" d="M12.7287 7.93329C13.3243 8.14169 13.622 8.49875 13.622 9.00395C13.622 9.33647 13.4986 9.60041 13.2522 9.79562C13.006 9.99097 12.6549 10.1122 12.1979 10.1122C11.7408 10.1122 11.3181 9.97977 10.9287 9.76238C10.9329 9.64709 10.9634 9.5206 11.0193 9.3833C11.0753 9.246 11.1415 9.13692 11.2173 9.05724C11.5752 9.24322 11.8866 9.33636 12.1509 9.33636C12.2759 9.33636 12.3725 9.31539 12.4398 9.27317C12.5072 9.23111 12.5407 9.17464 12.5407 9.10369C12.5407 8.97034 12.4374 8.87061 12.2315 8.80414L11.8617 8.66445C11.3022 8.46053 11.0224 8.12827 11.0224 7.66673C11.0224 7.32972 11.1399 7.06262 11.375 6.86502C11.61 6.6677 11.9268 6.4978 12.3252 6.4978C12.5223 6.4978 12.7392 6.52551 12.9767 6.58091C13.2138 6.63645 13.4086 6.77323 13.5609 6.8484C13.5698 6.97264 13.5449 7.10903 13.487 7.25755C13.4287 7.40619 13.3572 7.51145 13.2719 7.57359C12.8956 7.40502 12.5824 7.32073 12.3315 7.32073C12.2417 7.32073 12.1741 7.34065 12.1266 7.38075C12.0796 7.42073 12.0565 7.47162 12.0565 7.53376C12.0565 7.64021 12.1415 7.72436 12.3117 7.78648L12.7287 7.93329Z" fill="#F6F6F6"/>
<path fill-rule="evenodd" clip-rule="evenodd" d="M9.75354 7.93329C10.3492 8.14169 10.6468 8.49875 10.6468 9.00395C10.6468 9.33647 10.5233 9.60041 10.2773 9.79562C10.0309 9.99097 9.67969 10.1122 9.22278 10.1122C8.76614 10.1122 8.34286 9.97977 7.95361 9.76238C7.95783 9.64709 7.9883 9.5206 8.04435 9.3833C8.10029 9.246 8.16623 9.13692 8.24235 9.05724C8.60061 9.24322 8.91189 9.33636 9.17609 9.33636C9.30113 9.33636 9.39781 9.31539 9.46482 9.27317C9.53197 9.23111 9.56573 9.17464 9.56573 9.10369C9.56573 8.97034 9.46245 8.87061 9.25656 8.80414L8.88695 8.66445C8.3273 8.46053 8.0474 8.12827 8.0474 7.66673C8.0474 7.32972 8.16493 7.06262 8.40024 6.86502C8.63516 6.6677 8.95185 6.4978 9.3502 6.4978C9.54713 6.4978 9.76464 6.52551 10.0015 6.58091C10.239 6.63645 10.4335 6.77323 10.5859 6.8484C10.5948 6.97264 10.5699 7.10903 10.512 7.25755C10.4538 7.40619 10.3822 7.51145 10.297 7.57359C9.92055 7.40502 9.60742 7.32073 9.35642 7.32073C9.26673 7.32073 9.1988 7.34065 9.15157 7.38075C9.10474 7.42073 9.0814 7.47162 9.0814 7.53376C9.0814 7.64021 9.16647 7.72436 9.33676 7.78648L9.75354 7.93329Z" fill="#F6F6F6"/>
<path fill-rule="evenodd" clip-rule="evenodd" d="M7.5842 7.98021C7.5842 7.77629 7.55175 7.58779 7.48686 7.41473C7.4221 7.24168 7.3291 7.09328 7.20828 6.96903C7.08731 6.84479 6.94077 6.7473 6.7685 6.67633C6.59597 6.6055 6.40233 6.49866 6.18746 6.49866C5.93222 6.49866 5.70946 6.61421 5.51926 6.70298C5.32905 6.79162 5.17234 6.9135 5.04928 7.06875C4.92594 7.22411 4.83414 7.40695 4.77373 7.61759C4.71331 7.82824 4.68311 8.05774 4.68311 8.30599C4.68311 8.56294 4.70764 8.80062 4.75697 9.01786C4.80617 9.23483 4.89018 9.42319 5.00878 9.58307C5.12749 9.74266 5.28194 9.86679 5.47228 9.95529C5.66261 10.0439 5.89885 10.112 6.18086 10.112C6.70016 10.112 7.13887 9.96163 7.49711 9.70904C7.46163 9.45209 7.37009 9.24777 7.22302 9.097C7.04007 9.16571 6.87822 9.21491 6.73788 9.24513C6.59741 9.27496 6.47355 9.28999 6.36659 9.28999C6.1525 9.28999 5.99844 9.23551 5.90493 9.12551C5.81152 9.0159 5.76028 8.88624 5.75121 8.68931H7.49738C7.55505 8.50281 7.5842 8.25075 7.5842 7.98021ZM5.74456 8.02626C5.75786 7.79991 5.79917 7.55774 5.86789 7.45802C5.93675 7.35818 6.04213 7.30832 6.18445 7.30832C6.331 7.30832 6.441 7.36135 6.5142 7.4678C6.58756 7.57424 6.6242 7.78871 6.6242 7.95279L6.62433 8.02626H5.74456Z" fill="#F6F6F6"/>
<path fill-rule="evenodd" clip-rule="evenodd" d="M15.4646 8.46871C15.2748 8.63451 15.1646 8.87312 15.1646 9.18508V10.3469C15.1646 10.7331 15.0459 11.0268 14.7778 11.2288C14.5099 11.4305 14.1975 11.5303 13.841 11.5399L13.6297 11.5383V10.9594C13.8159 10.9051 13.8924 10.8419 13.9666 10.7701C14.1008 10.6488 14.2037 10.4513 14.2037 10.1771V9.23915C14.2087 8.92034 14.2333 8.67052 14.3493 8.49008C14.4658 8.30963 14.6925 8.15187 15.0295 8.01562C14.6573 7.84521 14.4074 7.62267 14.2799 7.34819C14.205 7.18516 14.2036 6.96515 14.2036 6.68841V5.82827C14.2036 5.54414 14.1106 5.34512 13.9962 5.23154C13.9218 5.1574 13.8353 5.09818 13.6294 5.05348V4.51003C13.8812 4.51267 14.0084 4.50978 14.155 4.51003C14.3808 4.50819 14.57 4.63166 14.7346 4.76025C14.9139 4.90125 15.0413 5.09186 15.1159 5.33178C15.1584 5.47041 15.1645 5.60285 15.1645 5.72894V6.72376C15.1645 7.07513 15.2683 7.33631 15.4457 7.50686C15.5457 7.60579 15.6868 7.69626 15.9291 7.77792V8.22732C15.7144 8.28669 15.5796 8.36714 15.4646 8.46871Z" fill="#F6F6F6" stroke="#404040" stroke-width="0.1"/>
<path fill-rule="evenodd" clip-rule="evenodd" d="M2.10741 4.51043V4.51121C2.03527 4.51081 1.96996 4.51054 1.91774 4.51067C1.69179 4.5087 1.50265 4.63217 1.33818 4.76089C1.15866 4.90189 1.005 5.08591 0.956863 5.33243C0.929426 5.47699 0.935231 5.60335 0.935231 5.72958V6.7244C0.935231 7.07566 0.804516 7.33669 0.627236 7.50752C0.527375 7.60643 0.314215 7.69677 0.0717773 7.77842V8.2278C0.286646 8.28703 0.493485 8.36722 0.608226 8.46906C0.798162 8.63499 0.935065 8.87375 0.935065 9.18567V10.3475C0.935065 10.7334 1.02715 11.0274 1.29503 11.2291C1.56293 11.4306 1.87514 11.5309 2.23167 11.5406L2.47028 11.5391V10.9597C2.28416 10.9053 2.18076 10.8421 2.10623 10.7706C1.97208 10.6491 1.89611 10.4518 1.89611 10.1777V9.2396C1.89097 8.92054 1.83953 8.67097 1.72332 8.49039C1.60712 8.31021 1.38038 8.15219 1.04297 8.01606C1.41535 7.84552 1.66517 7.62312 1.79258 7.34877C1.86764 7.1856 1.89613 6.96559 1.89613 6.68887V5.82873C1.89613 5.54461 1.96206 5.34558 2.07631 5.23188C2.1383 5.17016 2.24856 5.11937 2.40172 5.07823L2.64389 5.07992C2.64389 4.87147 2.64389 4.74099 2.64389 4.51038H2.10744V4.51043H2.10741Z" fill="#F6F6F6" stroke="#404040" stroke-width="0.1"/>
<path fill-rule="evenodd" clip-rule="evenodd" d="M4.34028 9.2238H4.15892C3.96173 9.2238 3.88746 9.12012 3.88746 8.91186V5.08419C3.88746 4.85403 3.821 4.69244 3.7359 4.59933C3.65082 4.50647 3.5031 4.5074 3.29271 4.5074H2.88314L2.83487 4.50647V4.51042L2.83447 5.08011V9.09706C2.83447 9.41652 2.90623 9.65027 3.0339 9.79905C3.16171 9.94756 3.37764 10.0217 3.68207 10.0217C3.89259 10.0217 4.13213 9.99953 4.40067 9.95508C4.41413 9.91022 4.42086 9.81421 4.42086 9.66687C4.42086 9.51914 4.39397 9.3718 4.34028 9.2238Z" fill="#F6F6F6"/>
<defs>
<linearGradient id="paint0_linear_1447_3139" x1="1.00391" y1="4.51038" x2="1.00391" y2="11.5406" gradientUnits="userSpaceOnUse">
<stop offset="0.1497" stop-color="#2A4F84"/>
<stop offset="0.3884" stop-color="#294E82"/>
<stop offset="1" stop-color="#172E4E"/>
</linearGradient>
</defs>
</svg>
