<svg width="16" height="16" viewBox="0 0 16 16" fill="none" xmlns="http://www.w3.org/2000/svg">
<path fill-rule="evenodd" clip-rule="evenodd" d="M15.1128 10.1846C15.1128 10.9304 14.5026 11.5406 13.7569 11.5406H2.35987C1.61409 11.5406 1.00391 10.9304 1.00391 10.1846V5.86631C1.00391 5.12053 1.61409 4.51035 2.35987 4.51035H13.7569C14.5026 4.51035 15.1128 5.12053 15.1128 5.86631V10.1846V10.1846Z" fill="url(#paint0_linear_1447_3139)"/>
<path fill-rule="evenodd" clip-rule="evenodd" d="M12.7287 7.93323C13.3243 8.14163 13.622 8.49869 13.622 9.00388C13.622 9.33641 13.4986 9.60035 13.2522 9.79556C13.006 9.9909 12.6549 10.1121 12.1979 10.1121C11.7408 10.1121 11.3181 9.97971 10.9287 9.76232C10.9329 9.64703 10.9634 9.52054 11.0193 9.38324C11.0753 9.24594 11.1415 9.13686 11.2173 9.05718C11.5752 9.24315 11.8866 9.3363 12.1509 9.3363C12.2759 9.3363 12.3725 9.31533 12.4398 9.27311C12.5072 9.23104 12.5407 9.17458 12.5407 9.10363C12.5407 8.97028 12.4374 8.87055 12.2315 8.80408L11.8617 8.66439C11.3022 8.46047 11.0224 8.12821 11.0224 7.66667C11.0224 7.32966 11.1399 7.06256 11.375 6.86496C11.61 6.66764 11.9268 6.49774 12.3252 6.49774C12.5223 6.49774 12.7392 6.52544 12.9767 6.58085C13.2138 6.63639 13.4086 6.77317 13.5609 6.84834C13.5698 6.97258 13.5449 7.10897 13.487 7.25749C13.4287 7.40613 13.3572 7.51139 13.2719 7.57353C12.8956 7.40496 12.5824 7.32067 12.3315 7.32067C12.2417 7.32067 12.1741 7.34059 12.1266 7.38069C12.0796 7.42066 12.0565 7.47156 12.0565 7.5337C12.0565 7.64014 12.1415 7.7243 12.3117 7.78642L12.7287 7.93323V7.93323Z" fill="#F6F6F6"/>
<path fill-rule="evenodd" clip-rule="evenodd" d="M9.75354 7.93323C10.3492 8.14163 10.6468 8.49869 10.6468 9.00388C10.6468 9.33641 10.5233 9.60035 10.2773 9.79556C10.0309 9.9909 9.67969 10.1121 9.22278 10.1121C8.76614 10.1121 8.34286 9.97971 7.95361 9.76232C7.95783 9.64703 7.9883 9.52054 8.04435 9.38324C8.10029 9.24594 8.16623 9.13686 8.24235 9.05718C8.60061 9.24315 8.91189 9.3363 9.17609 9.3363C9.30113 9.3363 9.39781 9.31533 9.46482 9.27311C9.53197 9.23104 9.56573 9.17458 9.56573 9.10363C9.56573 8.97028 9.46245 8.87055 9.25656 8.80408L8.88695 8.66439C8.3273 8.46047 8.0474 8.12821 8.0474 7.66667C8.0474 7.32966 8.16493 7.06256 8.40024 6.86496C8.63516 6.66764 8.95185 6.49774 9.3502 6.49774C9.54713 6.49774 9.76464 6.52544 10.0015 6.58085C10.239 6.63639 10.4335 6.77317 10.5859 6.84834C10.5948 6.97258 10.5699 7.10897 10.512 7.25749C10.4538 7.40613 10.3822 7.51139 10.297 7.57353C9.92055 7.40496 9.60742 7.32067 9.35642 7.32067C9.26673 7.32067 9.1988 7.34059 9.15157 7.38069C9.10474 7.42066 9.0814 7.47156 9.0814 7.5337C9.0814 7.64014 9.16647 7.7243 9.33676 7.78642L9.75354 7.93323V7.93323Z" fill="#F6F6F6"/>
<path fill-rule="evenodd" clip-rule="evenodd" d="M7.5842 7.98018C7.5842 7.77626 7.55175 7.58776 7.48686 7.4147C7.4221 7.24165 7.3291 7.09325 7.20828 6.969C7.08731 6.84476 6.94077 6.74727 6.7685 6.6763C6.59597 6.60547 6.40233 6.49863 6.18746 6.49863C5.93222 6.49863 5.70946 6.61418 5.51926 6.70294C5.32905 6.79159 5.17234 6.91347 5.04928 7.06872C4.92594 7.22408 4.83414 7.40692 4.77373 7.61756C4.71331 7.82821 4.68311 8.05771 4.68311 8.30595C4.68311 8.56291 4.70764 8.80058 4.75697 9.01782C4.80617 9.2348 4.89018 9.42316 5.00878 9.58304C5.12749 9.74263 5.28194 9.86676 5.47228 9.95526C5.66261 10.0439 5.89885 10.112 6.18086 10.112C6.70016 10.112 7.13887 9.9616 7.49711 9.70901C7.46163 9.45206 7.37009 9.24774 7.22302 9.09697C7.04007 9.16568 6.87822 9.21488 6.73788 9.2451C6.59741 9.27493 6.47355 9.28996 6.36659 9.28996C6.1525 9.28996 5.99844 9.23548 5.90493 9.12548C5.81152 9.01587 5.76028 8.88621 5.75121 8.68928H7.49738C7.55505 8.50277 7.5842 8.25072 7.5842 7.98018V7.98018ZM5.74456 8.02623C5.75786 7.79988 5.79917 7.55771 5.86789 7.45799C5.93675 7.35815 6.04213 7.30828 6.18445 7.30828C6.331 7.30828 6.441 7.36132 6.5142 7.46776C6.58756 7.57421 6.6242 7.78868 6.6242 7.95276L6.62433 8.02623H5.74456V8.02623V8.02623Z" fill="#F6F6F6"/>
<path fill-rule="evenodd" clip-rule="evenodd" d="M15.4646 8.46874C15.2748 8.63454 15.1646 8.87315 15.1646 9.18511V10.3469C15.1646 10.7331 15.0459 11.0269 14.7778 11.2288C14.5099 11.4305 14.1975 11.5303 13.841 11.5399L13.6297 11.5384V10.9594C13.8159 10.9051 13.8924 10.8419 13.9666 10.7702C14.1008 10.6488 14.2037 10.4514 14.2037 10.1771V9.23919C14.2087 8.92037 14.2333 8.67055 14.3493 8.49011C14.4658 8.30966 14.6925 8.15191 15.0295 8.01565C14.6573 7.84524 14.4074 7.62271 14.2799 7.34822C14.205 7.18519 14.2036 6.96518 14.2036 6.68844V5.8283C14.2036 5.54418 14.1106 5.34515 13.9962 5.23157C13.9218 5.15744 13.8353 5.09822 13.6294 5.05351V4.51006C13.8812 4.5127 14.0084 4.50981 14.155 4.51006C14.3808 4.50822 14.57 4.63169 14.7346 4.76028C14.9139 4.90128 15.0413 5.0919 15.1159 5.33181C15.1584 5.47044 15.1645 5.60288 15.1645 5.72897V6.72379C15.1645 7.07516 15.2683 7.33634 15.4457 7.50689C15.5457 7.60582 15.6868 7.69629 15.9291 7.77796V8.22735C15.7144 8.28672 15.5796 8.36717 15.4646 8.46874V8.46874Z" fill="#F6F6F6" stroke="#404040" stroke-width="0.1"/>
<path fill-rule="evenodd" clip-rule="evenodd" d="M2.10741 4.51036V4.51114C2.03527 4.51075 1.96996 4.51048 1.91774 4.51061C1.69179 4.50864 1.50265 4.63211 1.33818 4.76083C1.15866 4.90183 1.005 5.08585 0.956863 5.33236C0.929426 5.47693 0.935231 5.60328 0.935231 5.72952V6.72434C0.935231 7.0756 0.804516 7.33663 0.627236 7.50746C0.527375 7.60637 0.314215 7.69671 0.0717773 7.77836V8.22774C0.286646 8.28697 0.493485 8.36716 0.608226 8.469C0.798162 8.63493 0.935065 8.87368 0.935065 9.18561V10.3474C0.935065 10.7334 1.02715 11.0274 1.29503 11.229C1.56293 11.4306 1.87514 11.5308 2.23167 11.5406L2.47028 11.539V10.9597C2.28416 10.9052 2.18076 10.842 2.10623 10.7705C1.97208 10.649 1.89611 10.4517 1.89611 10.1776V9.23954C1.89097 8.92048 1.83953 8.67091 1.72332 8.49033C1.60712 8.31015 1.38038 8.15213 1.04297 8.016C1.41535 7.84546 1.66517 7.62306 1.79258 7.34871C1.86764 7.18554 1.89613 6.96553 1.89613 6.68881V5.82867C1.89613 5.54455 1.96206 5.34552 2.07631 5.23182C2.1383 5.1701 2.24856 5.1193 2.40172 5.07817L2.64389 5.07986C2.64389 4.87141 2.64389 4.74093 2.64389 4.51031H2.10744V4.51036H2.10741V4.51036Z" fill="#F6F6F6" stroke="#404040" stroke-width="0.1"/>
<path fill-rule="evenodd" clip-rule="evenodd" d="M4.34028 9.22374H4.15892C3.96173 9.22374 3.88746 9.12006 3.88746 8.9118V5.08413C3.88746 4.85397 3.821 4.69238 3.7359 4.59927C3.65082 4.50641 3.5031 4.50734 3.29271 4.50734H2.88314L2.83487 4.50641V4.51036L2.83447 5.08005V9.097C2.83447 9.41646 2.90623 9.65021 3.0339 9.79899C3.16171 9.9475 3.37764 10.0216 3.68207 10.0216C3.89259 10.0216 4.13213 9.99947 4.40067 9.95502C4.41413 9.91016 4.42086 9.81415 4.42086 9.66681C4.42086 9.51908 4.39397 9.37174 4.34028 9.22374V9.22374Z" fill="#F6F6F6"/>
<defs>
<linearGradient id="paint0_linear_1447_3139" x1="1.00391" y1="4.51035" x2="1.00391" y2="11.5406" gradientUnits="userSpaceOnUse">
<stop offset="0.1497" stop-color="#2A4F84"/>
<stop offset="0.3884" stop-color="#294E82"/>
<stop offset="1" stop-color="#172E4E"/>
</linearGradient>
</defs>
</svg>
