<svg width="16" height="16" viewBox="0 0 16 16" fill="none" xmlns="http://www.w3.org/2000/svg">
<g clip-path="url(#clip0_2224_8247)">
<path fill-rule="evenodd" clip-rule="evenodd" d="M12.9698 2.53033C12.1581 1.71865 10.8421 1.71865 10.0304 2.53033C9.73753 2.82322 9.26266 2.82322 8.96977 2.53033C8.67687 2.23743 8.67687 1.76256 8.96977 1.46967C10.3672 0.0722038 12.633 0.0722045 14.0304 1.46967L14.2804 1.71967C15.816 3.2552 15.816 5.74479 14.2804 7.28033L11.5304 10.0303C10.133 11.4278 7.86723 11.4278 6.46977 10.0303C6.17687 9.73743 6.17687 9.26256 6.46977 8.96967C6.76266 8.67677 7.23753 8.67677 7.53043 8.96967C8.3421 9.78134 9.65809 9.78134 10.4698 8.96967L13.2198 6.21967C14.1695 5.26992 14.1695 3.73008 13.2198 2.78033L12.9698 2.53033ZM4.46977 5.96967C5.86723 4.5722 8.13296 4.5722 9.53043 5.96967C9.82332 6.26256 9.82332 6.73743 9.53043 7.03033C9.23753 7.32322 8.76266 7.32322 8.46977 7.03033C7.65809 6.21865 6.3421 6.21865 5.53043 7.03033L2.78043 9.78033C1.83068 10.7301 1.83068 12.2699 2.78043 13.2197L3.03043 13.4697C3.8421 14.2813 5.15809 14.2813 5.96977 13.4697C6.26266 13.1768 6.73753 13.1768 7.03043 13.4697C7.32332 13.7626 7.32332 14.2374 7.03043 14.5303C5.63296 15.9278 3.36723 15.9278 1.96977 14.5303L1.71977 14.2803C0.184233 12.7448 0.18423 10.2552 1.71977 8.71967L4.46977 5.96967Z" fill="#FF00FF"/>
</g>
<defs>
<clipPath id="clip0_2224_8247">
<rect width="16" height="16" fill="white"/>
</clipPath>
</defs>
</svg>
