<svg width="20" height="20" viewBox="0 0 20 20" fill="none" xmlns="http://www.w3.org/2000/svg">
<path fill-rule="evenodd" clip-rule="evenodd" d="M1.47623 0H18.5196C19.3354 0 20 0.645547 20 1.44151V18.5565C20 19.3532 19.3354 19.9997 18.5196 19.9997H1.47623C0.661796 19.9997 0 19.3532 0 18.5565V1.44151C0 0.645547 0.661796 0 1.47623 0ZM2.72871 4.47285C2.72871 5.42229 3.49828 6.19325 4.4491 6.19325C5.39743 6.19325 6.16811 5.42229 6.16811 4.47285C6.16811 3.52412 5.39743 2.75343 4.4491 2.75343C3.49828 2.75343 2.72871 3.52412 2.72871 4.47285ZM14.0779 17.0424H17.0423V11.8071C17.0423 9.23723 16.4877 7.26046 13.4838 7.26046C12.0407 7.26046 11.073 8.05169 10.6772 8.80196H10.6378V7.49795H7.79211V17.0424H10.7564V12.3208C10.7564 11.0758 10.9928 9.87 12.5365 9.87C14.0576 9.87 14.0779 11.2936 14.0779 12.4009V17.0424ZM2.96524 17.0424H5.93172V7.49795H2.96524V17.0424Z" fill="#FF00FF"/>
</svg>
