<svg width="20" height="20" viewBox="0 0 20 20" fill="none" xmlns="http://www.w3.org/2000/svg">
<path fill-rule="evenodd" clip-rule="evenodd" d="M14.1602 1.22222C12.9366 1.21159 11.7578 1.68196 10.8777 2.53203L9.43918 3.9621L10.1442 4.67126L11.5749 3.24889C12.2662 2.58251 13.1913 2.21384 14.1515 2.22218C15.1129 2.23054 16.0326 2.61616 16.7124 3.29599C17.3922 3.97582 17.7778 4.89546 17.7862 5.85685C17.7945 6.81684 17.426 7.74176 16.76 8.43297L14.2631 10.9299C13.8914 11.3017 13.444 11.5893 12.9514 11.773C12.4588 11.9568 11.9324 12.0325 11.408 11.9949C10.8835 11.9573 10.3733 11.8074 9.91189 11.5553C9.45048 11.3033 9.04868 10.9549 8.73375 10.5339L7.93298 11.1328C8.33381 11.6687 8.84518 12.1121 9.43243 12.4329C10.0197 12.7538 10.6691 12.9445 11.3365 12.9923C12.004 13.0401 12.6739 12.9438 13.3009 12.71C13.9279 12.4761 14.4972 12.1101 14.9703 11.6368L17.4703 9.13695L17.4763 9.1307C18.3264 8.25056 18.7968 7.07175 18.7862 5.84816C18.7755 4.62458 18.2847 3.45412 17.4195 2.58888C16.5543 1.72364 15.3838 1.23285 14.1602 1.22222ZM8.66355 7.00768C7.99609 6.95988 7.32615 7.05618 6.69917 7.29006C6.07222 7.52393 5.50284 7.88996 5.02976 8.36319L2.52977 10.8631L2.52373 10.8693C1.67366 11.7495 1.20329 12.9283 1.21392 14.1519C1.22455 15.3754 1.71534 16.5459 2.58058 17.4111C3.44582 18.2764 4.61628 18.7672 5.83986 18.7778C7.06345 18.7884 8.24231 18.3181 9.12245 17.468L10.5536 16.0369L9.84649 15.3298L8.42465 16.7516C7.73343 17.4177 6.80853 17.7862 5.84855 17.7778C4.88716 17.7695 3.96752 17.3839 3.28769 16.704C2.60786 16.0242 2.22224 15.1046 2.21388 14.1432C2.20554 13.1832 2.57403 12.2583 3.2401 11.5671L5.73699 9.07017C6.10871 8.69832 6.55605 8.41076 7.04867 8.227C7.5413 8.04323 8.06768 7.96757 8.59212 8.00513C9.11656 8.04269 9.62678 8.19259 10.0882 8.44468C10.5496 8.69677 10.9514 9.04514 11.2663 9.46617L12.0671 8.86719C11.6663 8.33134 11.1549 7.88795 10.5676 7.56711C9.9804 7.24627 9.33102 7.05548 8.66355 7.00768Z" fill="#FF00FF"/>
</svg>
