<svg width="16" height="16" viewBox="0 0 16 16" fill="none" xmlns="http://www.w3.org/2000/svg">
<g clip-path="url(#clip0_2179_3623)">
<path d="M16 1.17647V14.8235C16 15.1355 15.8761 15.4348 15.6554 15.6554C15.4348 15.8761 15.1355 16 14.8235 16H1.17647C0.864451 16 0.565211 15.8761 0.34458 15.6554C0.123949 15.4348 0 15.1355 0 14.8235L0 1.17647C0 0.864451 0.123949 0.565211 0.34458 0.34458C0.565211 0.123949 0.864451 0 1.17647 0L14.8235 0C15.1355 0 15.4348 0.123949 15.6554 0.34458C15.8761 0.565211 16 0.864451 16 1.17647Z" fill="#0A66C2"/>
<path d="M4.70597 6.11774H2.35303V13.6471H4.70597V6.11774ZM4.91774 3.5295C4.91898 3.35152 4.88515 3.17504 4.81818 3.01013C4.75121 2.84522 4.65242 2.69512 4.52744 2.5684C4.40247 2.44167 4.25375 2.3408 4.08979 2.27155C3.92583 2.2023 3.74984 2.16603 3.57185 2.16479H3.5295C3.16756 2.16479 2.82044 2.30858 2.56451 2.56451C2.30858 2.82044 2.16479 3.16756 2.16479 3.5295C2.16479 3.89144 2.30858 4.23856 2.56451 4.49449C2.82044 4.75043 3.16756 4.89421 3.5295 4.89421C3.70749 4.89859 3.88461 4.86785 4.05072 4.80376C4.21683 4.73966 4.36868 4.64347 4.4976 4.52066C4.62652 4.39786 4.72998 4.25086 4.80207 4.08806C4.87416 3.92526 4.91346 3.74985 4.91774 3.57185V3.5295ZM13.6471 9.07303C13.6471 6.8095 12.2071 5.9295 10.7766 5.9295C10.3082 5.90605 9.84179 6.00581 9.42398 6.21885C9.00616 6.43188 8.65151 6.75074 8.39538 7.14362H8.3295V6.11774H6.11774V13.6471H8.47068V9.64244C8.43666 9.23229 8.56586 8.82529 8.8302 8.50984C9.09454 8.1944 9.47267 7.996 9.88244 7.95774H9.97185C10.7201 7.95774 11.2754 8.42832 11.2754 9.61421V13.6471H13.6283L13.6471 9.07303Z" fill="white"/>
</g>
<defs>
<clipPath id="clip0_2179_3623">
<rect width="16" height="16" fill="white"/>
</clipPath>
</defs>
</svg>
