<svg width="16" height="16" viewBox="0 0 16 16" fill="none" xmlns="http://www.w3.org/2000/svg">
<g clip-path="url(#clip0_1447_1755)">
<path fill-rule="evenodd" clip-rule="evenodd" d="M1.18098 0H14.8157C15.4683 0 16 0.516437 16 1.15321V14.8452C16 15.4826 15.4683 15.9998 14.8157 15.9998H1.18098C0.529437 15.9998 0 15.4826 0 14.8452V1.15321C0 0.516437 0.529437 0 1.18098 0ZM2.18297 3.57828C2.18297 4.33783 2.79863 4.9546 3.55928 4.9546C4.31794 4.9546 4.93449 4.33783 4.93449 3.57828C4.93449 2.81929 4.31794 2.20275 3.55928 2.20275C2.79863 2.20275 2.18297 2.81929 2.18297 3.57828ZM11.2623 13.6339H13.6338V9.44565C13.6338 7.38979 13.1902 5.80836 10.7871 5.80836C9.63253 5.80836 8.85843 6.44135 8.54177 7.04157H8.51022V5.99836H6.23369V13.6339H8.6051V9.85664C8.6051 8.86065 8.79421 7.896 10.0292 7.896C11.2461 7.896 11.2623 9.03487 11.2623 9.92075V13.6339ZM2.37219 13.6339H4.74538V5.99836H2.37219V13.6339Z" fill="#FF00FF"/>
</g>
<defs>
<clipPath id="clip0_1447_1755">
<rect width="16" height="16" fill="white"/>
</clipPath>
</defs>
</svg>
