<svg width="16" height="16" viewBox="0 0 16 16" fill="none" xmlns="http://www.w3.org/2000/svg">
<g clip-path="url(#clip0_1447_2046)">
<path fill-rule="evenodd" clip-rule="evenodd" d="M11.3281 0.977772C10.3493 0.969266 9.40621 1.34556 8.70209 2.02562L7.55129 3.16967L8.11533 3.737L9.25988 2.59911C9.81289 2.06601 10.553 1.77107 11.3212 1.77774C12.0903 1.78442 12.826 2.09292 13.3699 2.63678C13.9137 3.18065 14.2222 3.91636 14.2289 4.68548C14.2356 5.45347 13.9408 6.1934 13.4079 6.74637L11.4104 8.74388C11.113 9.04136 10.7552 9.27141 10.3611 9.41842C9.96698 9.56543 9.54587 9.62596 9.12632 9.59591C8.70677 9.56587 8.29859 9.44594 7.92946 9.24427C7.56033 9.0426 7.2389 8.7639 6.98695 8.42708L6.34634 8.90626C6.667 9.33494 7.0761 9.68965 7.5459 9.94632C8.01569 10.203 8.5352 10.3556 9.06917 10.3939C9.60314 10.4321 10.1391 10.3551 10.6407 10.168C11.1423 9.98086 11.5977 9.68808 11.9762 9.30946L13.9762 7.30956L13.981 7.30456C14.6611 6.60044 15.0374 5.65739 15.0289 4.67852C15.0204 3.69966 14.6277 2.76329 13.9356 2.0711C13.2434 1.37891 12.307 0.986278 11.3281 0.977772ZM6.93079 5.60614C6.39682 5.5679 5.86087 5.64494 5.35929 5.83204C4.85773 6.01914 4.40222 6.31196 4.02376 6.69055L2.02377 8.69045L2.01894 8.69545C1.33888 9.39957 0.962582 10.3426 0.971088 11.3215C0.979594 12.3004 1.37223 13.2367 2.06442 13.9289C2.75661 14.6211 3.69297 15.0137 4.67184 15.0222C5.65071 15.0307 6.5938 14.6545 7.29791 13.9744L8.44283 12.8295L7.87714 12.2638L6.73967 13.4013C6.1867 13.9342 5.44677 14.2289 4.67879 14.2223C3.90968 14.2156 3.17396 13.9071 2.6301 13.3632C2.08624 12.8194 1.77774 12.0836 1.77106 11.3145C1.76438 10.5465 2.05918 9.80662 2.59203 9.25365L4.58955 7.25613C4.88692 6.95865 5.24479 6.7286 5.63889 6.58159C6.03299 6.43458 6.45409 6.37405 6.87365 6.40409C7.2932 6.43414 7.70138 6.55407 8.0705 6.75574C8.43963 6.95741 8.76107 7.23611 9.01301 7.57293L9.65362 7.09375C9.33297 6.66506 8.92386 6.31036 8.45407 6.05369C7.98427 5.79701 7.46477 5.64438 6.93079 5.60614Z" fill="#FF00FF"/>
</g>
<defs>
<clipPath id="clip0_1447_2046">
<rect width="16" height="16" fill="white"/>
</clipPath>
</defs>
</svg>
