<svg width="20" height="20" viewBox="0 0 20 20" fill="none" xmlns="http://www.w3.org/2000/svg">
<path d="M18.5196 0H1.47623C0.661796 0 0 0.645547 0 1.44151V18.5565C0 19.3532 0.661796 19.9997 1.47623 19.9997H18.5196C19.3354 19.9997 20 19.3532 20 18.5565V1.44151C20 0.645547 19.3354 0 18.5196 0Z" fill="#0077B5"/>
<path fill-rule="evenodd" clip-rule="evenodd" d="M4.44915 6.19325C3.49833 6.19325 2.72876 5.42229 2.72876 4.47285C2.72876 3.52412 3.49833 2.75343 4.44915 2.75343C5.39747 2.75343 6.16816 3.52412 6.16816 4.47285C6.16816 5.42229 5.39747 6.19325 4.44915 6.19325ZM17.0423 17.0424H14.0779V12.4009C14.0779 11.2936 14.0576 9.87 12.5365 9.87C10.9928 9.87 10.7564 11.0758 10.7564 12.3208V17.0424H7.79216V7.49795H10.6378V8.80196H10.6773C11.0731 8.05169 12.0407 7.26045 13.4839 7.26045C16.4877 7.26045 17.0423 9.23723 17.0423 11.8071V17.0424ZM5.93177 17.0424H2.96528V7.49795H5.93177V17.0424Z" fill="white"/>
</svg>
