<svg width="16" height="16" viewBox="0 0 16 16" fill="none" xmlns="http://www.w3.org/2000/svg">
<path fill-rule="evenodd" clip-rule="evenodd" d="M5.2002 3.60001V5.60001C4.09563 5.60001 3.2002 6.49544 3.2002 7.60001V11.6C3.2002 12.7046 4.09562 13.6 5.20019 13.6H10.8002C11.9048 13.6 12.8002 12.7046 12.8002 11.6V7.60001C12.8002 6.49544 11.9048 5.60001 10.8002 5.60001V3.60001C10.8002 2.49544 9.90477 1.60001 8.8002 1.60001H7.2002C6.09563 1.60001 5.2002 2.49544 5.2002 3.60001ZM10.0002 5.60001V3.60001C10.0002 2.93726 9.46294 2.40001 8.8002 2.40001H7.2002C6.53745 2.40001 6.0002 2.93726 6.0002 3.60001V5.60001H10.0002ZM7.2002 8.80001C7.2002 8.35818 7.55837 8.00001 8.0002 8.00001C8.44202 8.00001 8.8002 8.35818 8.8002 8.80001V10.4C8.8002 10.8418 8.44202 11.2 8.0002 11.2C7.55837 11.2 7.2002 10.8418 7.2002 10.4V8.80001Z" fill="#FF00FF"/>
</svg>
