<svg width="20" height="20" viewBox="0 0 20 20" fill="none" xmlns="http://www.w3.org/2000/svg">
<path fill-rule="evenodd" clip-rule="evenodd" d="M7.5 4.5V7H12.5V4.5C12.5 3.67157 11.8284 3 11 3H9C8.17157 3 7.5 3.67157 7.5 4.5ZM13.5 7H14C15.1046 7 16 7.89543 16 9V15C16 16.1046 15.1046 17 14 17H6C4.89543 17 4 16.1046 4 15V9C4 7.89543 4.89543 7 6 7H6.5V4.5C6.5 3.11929 7.61929 2 9 2H11C12.3807 2 13.5 3.11929 13.5 4.5V7ZM9 11C9 10.4477 9.44772 10 10 10C10.5523 10 11 10.4477 11 11V13C11 13.5523 10.5523 14 10 14C9.44772 14 9 13.5523 9 13V11Z" fill="#FF00FF"/>
</svg>
