<svg width="20" height="20" viewBox="0 0 20 20" fill="none" xmlns="http://www.w3.org/2000/svg">
<path fill-rule="evenodd" clip-rule="evenodd" d="M6.5 8V3.5C6.5 2.11929 7.61929 1 9 1H11C12.3807 1 13.5 2.11929 13.5 3.5V6H12.5V3.5C12.5 2.67157 11.8284 2 11 2H9C8.17157 2 7.5 2.67157 7.5 3.5V8H14C15.1046 8 16 8.89543 16 10V16C16 17.1046 15.1046 18 14 18H6C4.89543 18 4 17.1046 4 16V10C4 8.89543 4.89543 8 6 8H6.5ZM9 12C9 11.4477 9.44772 11 10 11C10.5523 11 11 11.4477 11 12V14C11 14.5523 10.5523 15 10 15C9.44772 15 9 14.5523 9 14V12Z" fill="#FF00FF"/>
</svg>
