<svg width="16" height="16" viewBox="0 0 16 16" fill="none" xmlns="http://www.w3.org/2000/svg">
<path fill-rule="evenodd" clip-rule="evenodd" d="M5.19995 6.39999L5.19995 2.79999C5.19995 1.69542 6.09538 0.799988 7.19995 0.799988H8.79995C9.90452 0.799988 10.8 1.69542 10.8 2.79999V4.79999H9.99995V2.79999C9.99995 2.13725 9.46269 1.59999 8.79995 1.59999H7.19995C6.53721 1.59999 5.99995 2.13725 5.99995 2.79999V6.39999H10.8C11.9045 6.39999 12.8 7.29542 12.8 8.39999V12.4C12.8 13.5046 11.9045 14.4 10.8 14.4H5.19995C4.09538 14.4 3.19995 13.5046 3.19995 12.4V8.39999C3.19995 7.29542 4.09538 6.39999 5.19995 6.39999ZM7.19995 9.59999C7.19995 9.15816 7.55812 8.79999 7.99995 8.79999C8.44178 8.79999 8.79995 9.15816 8.79995 9.59999V11.2C8.79995 11.6418 8.44178 12 7.99995 12C7.55812 12 7.19995 11.6418 7.19995 11.2V9.59999Z" fill="#FF00FF"/>
</svg>
