<svg width="16" height="16" viewBox="0 0 16 16" fill="none" xmlns="http://www.w3.org/2000/svg">
<path fill-rule="evenodd" clip-rule="evenodd" d="M6.75 4C6.75 3.30964 7.30964 2.75 8 2.75C8.69036 2.75 9.25 3.30964 9.25 4V7H6.75V4ZM5.25 7V4C5.25 2.48122 6.48122 1.25 8 1.25C9.51878 1.25 10.75 2.48122 10.75 4V7H11C12.1046 7 13 7.89543 13 9V13C13 14.1046 12.1046 15 11 15H5C3.89543 15 3 14.1046 3 13V9C3 7.89543 3.89543 7 5 7H5.25ZM8 9.25C8.41421 9.25 8.75 9.58579 8.75 10V12C8.75 12.4142 8.41421 12.75 8 12.75C7.58579 12.75 7.25 12.4142 7.25 12V10C7.25 9.58579 7.58579 9.25 8 9.25Z" fill="#FF00FF"/>
</svg>
