<svg width="16" height="16" viewBox="0 0 16 16" fill="none" xmlns="http://www.w3.org/2000/svg">
<path fill-rule="evenodd" clip-rule="evenodd" d="M6.75 4.25C6.75 3.42157 7.42157 2.75 8.25 2.75H8.5C9.19036 2.75 9.75 3.30964 9.75 4C9.75 4.41421 10.0858 4.75 10.5 4.75C10.9142 4.75 11.25 4.41421 11.25 4C11.25 2.48122 10.0188 1.25 8.5 1.25H8.25C6.59315 1.25 5.25 2.59315 5.25 4.25V6H5C3.89543 6 3 6.89543 3 8V12C3 13.1046 3.89543 14 5 14H11C12.1046 14 13 13.1046 13 12V8C13 6.89543 12.1046 6 11 6H6.75V4.25ZM8 8.25C8.41421 8.25 8.75 8.58579 8.75 9V11C8.75 11.4142 8.41421 11.75 8 11.75C7.58579 11.75 7.25 11.4142 7.25 11V9C7.25 8.58579 7.58579 8.25 8 8.25Z" fill="#FF00FF"/>
</svg>
