<svg width="16" height="16" viewBox="0 0 16 16" fill="none" xmlns="http://www.w3.org/2000/svg">
<path fill-rule="evenodd" clip-rule="evenodd" d="M5.19995 6.4L5.19995 2.8C5.19995 1.69543 6.09538 0.800003 7.19995 0.800003H8.79995C9.90452 0.800003 10.8 1.69543 10.8 2.8V4.8H9.99995V2.8C9.99995 2.13726 9.46269 1.6 8.79995 1.6H7.19995C6.53721 1.6 5.99995 2.13726 5.99995 2.8V6.4H10.8C11.9045 6.4 12.8 7.29543 12.8 8.4V12.4C12.8 13.5046 11.9045 14.4 10.8 14.4H5.19995C4.09538 14.4 3.19995 13.5046 3.19995 12.4V8.4C3.19995 7.29543 4.09538 6.4 5.19995 6.4ZM7.19995 9.6C7.19995 9.15818 7.55812 8.8 7.99995 8.8C8.44178 8.8 8.79995 9.15817 8.79995 9.6V11.2C8.79995 11.6418 8.44178 12 7.99995 12C7.55812 12 7.19995 11.6418 7.19995 11.2V9.6Z" fill="#FF00FF"/>
</svg>
