<svg width="16" height="16" viewBox="0 0 16 16" fill="none" xmlns="http://www.w3.org/2000/svg">
<path fill-rule="evenodd" clip-rule="evenodd" d="M8.94637 5.79455C10.3028 4.70306 11.3754 4.1731 12.2461 4.1731C14.2965 4.1731 15.9811 5.87026 16 7.93966C16 10.0091 14.3218 11.7062 12.265 11.7062C11.3943 11.7062 10.3218 11.1763 8.9653 10.0848C8.59306 9.78824 8.26498 9.50433 8 9.25827C7.7224 9.51064 7.39432 9.78824 7.0347 10.0848C5.67823 11.1763 4.60568 11.7062 3.73502 11.7062C1.67823 11.7062 0 10.028 0 7.93966C0 5.87026 1.67823 4.1731 3.73502 4.1731C4.58675 4.1731 5.67823 4.70306 7.01577 5.79455C7.38645 6.08983 7.71333 6.3726 7.97773 6.61794L7.19874 7.36552L7.29338 8.5895L8.52366 8.75354L9.3817 7.93335L8.14511 7.83871L7.98183 6.62036C8.25927 6.36818 8.58708 6.09081 8.94637 5.79455ZM7.98183 6.62036L7.98107 6.61474L7.97773 6.61794L7.98107 6.62105L7.98183 6.62036ZM3.72871 9.76931C3.82334 9.76931 4.4164 9.71253 5.82965 8.5895C6.08256 8.38155 6.30543 8.18863 6.5161 8.00626L6.59306 7.93966C6.37224 7.73776 6.10725 7.50433 5.82965 7.28351C4.4164 6.16679 3.83596 6.1037 3.72871 6.1037C2.73817 6.1037 1.92429 6.92388 1.92429 7.93335C1.92429 8.94281 2.73186 9.76931 3.72871 9.76931ZM10.1451 8.59581C11.5584 9.71253 12.1388 9.77562 12.2461 9.77562C13.2366 9.77562 14.0505 8.94912 14.0315 7.93966C14.0315 6.93019 13.224 6.1037 12.2271 6.1037C12.1325 6.1037 11.5394 6.16679 10.1262 7.30243C9.8612 7.51694 9.60252 7.73776 9.3817 7.93966C9.60252 8.14155 9.86751 8.37499 10.1451 8.59581Z" fill="#C0392B"/>
</svg>
