<svg width="16" height="16" viewBox="0 0 16 16" fill="none" xmlns="http://www.w3.org/2000/svg">
<g clip-path="url(#clip0_1447_3021)">
<path d="M12.3011 1.21699C9.57986 -0.611075 5.78263 -0.356105 3.27668 1.82314C2.55447 2.46439 1.96738 3.24476 1.5501 4.11814C1.13282 4.9915 0.893815 5.94019 0.847216 6.90802C0.703366 9.22123 1.46946 11.4986 2.98017 13.2485C5.02224 15.5673 7.4565 15.9618 7.55691 15.981H7.61429C7.71575 15.981 7.81308 15.9404 7.88486 15.8683C7.95658 15.7961 7.99691 15.6982 7.99691 15.5962C7.99636 15.5382 7.98329 15.481 7.95851 15.4287C7.93374 15.3763 7.89788 15.33 7.85341 15.2931C6.39002 14.1241 5.59614 12.9984 5.59614 12.1277C6.47101 12.7231 7.5002 13.0475 8.55642 13.061C10.8616 13.061 11.6793 12.094 11.6793 11.2617C11.6793 10.2948 10.4503 9.679 8.55642 9.679C7.11691 9.679 5.98351 10.2082 5.36183 10.9009C4.90842 10.4285 4.64883 9.80148 4.63488 9.14504C4.62585 8.62526 4.75813 8.11293 5.01744 7.66333C5.24006 7.86234 5.48574 8.03354 5.74919 8.17323C7.37518 9.04402 9.97203 9.04402 11.2202 8.17323C11.4104 8.05566 11.5662 7.88959 11.672 7.69191C11.7778 7.49423 11.8298 7.27194 11.8228 7.04755C11.7654 5.97958 10.0534 5.29643 8.48949 5.31089C7.0261 5.33014 5.8735 5.71017 5.06053 6.43657C4.9797 6.23497 4.9407 6.01892 4.94572 5.80159C4.94572 5.30129 5.27096 4.80099 5.84006 4.39205C6.68171 3.7859 8.29341 3.29521 10.1586 3.80034L9.85247 3.9639C9.78737 4.00048 9.73898 4.0611 9.71757 4.13294C9.69617 4.20477 9.70339 4.28217 9.73771 4.34876C9.7632 4.3938 9.80006 4.43128 9.84458 4.45748C9.88905 4.48364 9.93964 4.49759 9.99117 4.49787C10.0392 4.49644 10.0865 4.48496 10.1299 4.46421L11.1437 3.90617C11.2078 3.86866 11.2554 3.80802 11.2767 3.73655C11.298 3.66508 11.2915 3.58814 11.2585 3.52131L10.7037 2.50145C10.6868 2.46733 10.6633 2.43691 10.6346 2.41192C10.606 2.38693 10.5727 2.36786 10.5368 2.3558C10.5008 2.34374 10.4628 2.33892 10.425 2.34162C10.3872 2.34433 10.3503 2.3545 10.3164 2.37156C10.2824 2.38861 10.2522 2.41222 10.2274 2.44104C10.2025 2.46985 10.1836 2.50331 10.1716 2.53949C10.1596 2.57568 10.1548 2.61388 10.1575 2.65192C10.1602 2.68997 10.1703 2.72711 10.1873 2.76123C10.192 2.76603 10.192 2.77084 10.1968 2.77565L10.345 3.04987C8.57076 2.57842 6.66263 2.843 5.39052 3.76185C4.62053 4.31508 4.19011 5.03668 4.17576 5.78714C4.16866 6.23194 4.28456 6.66995 4.51053 7.05235C4.08452 7.66708 3.86043 8.40054 3.86969 9.14984C3.87682 9.60711 3.97534 10.0583 4.15938 10.4765C4.34341 10.8947 4.60921 11.2713 4.94097 11.584C4.87256 11.7588 4.83692 11.9447 4.83576 12.1325C4.83576 12.907 5.24701 13.7488 6.03134 14.6436C5.0949 14.1777 4.25565 13.536 3.55884 12.753C2.17866 11.1508 1.47962 9.06719 1.6124 6.95133C1.65351 6.08645 1.86638 5.23861 2.23845 4.45787C2.61054 3.67705 3.13429 2.97913 3.77883 2.40523C6.02654 0.452087 9.43162 0.221174 11.8706 1.86162C13.9701 3.27116 14.8405 5.84005 14.1949 8.7265C13.6641 11.103 12.2293 13.441 10.1633 15.3123C10.1235 15.3456 10.0908 15.3866 10.067 15.4328C10.0433 15.479 10.029 15.5296 10.025 15.5815C10.0211 15.6334 10.0275 15.6856 10.044 15.7349C10.0604 15.7843 10.0866 15.8298 10.1208 15.8688C10.1551 15.9078 10.1968 15.9395 10.2435 15.9619C10.2902 15.9844 10.3409 15.9972 10.3926 15.9996C10.4442 16.002 10.4959 15.9939 10.5444 15.9758C10.5929 15.9578 10.6374 15.9301 10.675 15.8944C12.8606 13.9124 14.3814 11.4301 14.9457 8.89003C15.6631 5.68132 14.6731 2.81414 12.3011 1.21699ZM8.56122 10.4487C10.1681 10.4487 10.919 10.9298 10.919 11.2569C10.919 11.7524 10.1825 12.2816 8.56122 12.2816C7.61738 12.2682 6.70058 11.9625 5.93567 11.4061C6.39482 10.9009 7.313 10.4487 8.56122 10.4487ZM8.50864 6.0758C9.88596 6.05174 11.0433 6.67232 11.0624 7.08606C11.0624 7.14857 11.0767 7.33621 10.7898 7.53825C9.79029 8.2358 7.47564 8.21174 6.11741 7.49014C5.89882 7.37649 5.69617 7.23409 5.51482 7.06681C6.26092 6.37406 7.40387 6.0902 8.50864 6.0758Z" fill="#F1AE0E"/>
</g>
<defs>
<clipPath id="clip0_1447_3021">
<rect width="16" height="16" fill="white"/>
</clipPath>
</defs>
</svg>
