<svg width="20" height="20" viewBox="0 0 20 20" fill="none" xmlns="http://www.w3.org/2000/svg">
<path fill-rule="evenodd" clip-rule="evenodd" d="M11.183 7.24322C12.8785 5.87887 14.2192 5.21641 15.3076 5.21641C17.8707 5.21641 19.9763 7.33786 20 9.92461C20 12.5114 17.9022 14.6328 15.3312 14.6328C14.2429 14.6328 12.9022 13.9704 11.2066 12.606C10.7413 12.2353 10.3312 11.8804 10 11.5729C9.653 11.8883 9.2429 12.2353 8.79338 12.606C7.09779 13.9704 5.7571 14.6328 4.66877 14.6328C2.09779 14.6328 0 12.535 0 9.92461C0 7.33786 2.09779 5.21641 4.66877 5.21641C5.73344 5.21641 7.09779 5.87887 8.76972 7.24322C9.23306 7.61233 9.64166 7.96579 9.97216 8.27247L8.99842 9.20694L9.11672 10.7369L10.6546 10.942L11.7271 9.91672L10.1814 9.79843L9.97728 8.27549C10.3241 7.96026 10.7338 7.61355 11.183 7.24322ZM9.97728 8.27549L9.97634 8.26846L9.97216 8.27247L9.97634 8.27634L9.97728 8.27549ZM4.66088 12.2117C4.77918 12.2117 5.5205 12.1407 7.28707 10.7369C7.6032 10.477 7.88178 10.2358 8.14511 10.0079L8.14521 10.0078L8.24133 9.92461C7.9653 9.67224 7.63407 9.38045 7.28707 9.10442C5.5205 7.70852 4.79495 7.62966 4.66088 7.62966C3.42271 7.62966 2.40536 8.65489 2.40536 9.91672C2.40536 11.1786 3.41483 12.2117 4.66088 12.2117ZM12.6814 10.7448C14.4479 12.1407 15.1735 12.2196 15.3076 12.2196C16.5457 12.2196 17.5631 11.1864 17.5394 9.92461C17.5394 8.66278 16.53 7.62966 15.2839 7.62966C15.1656 7.62966 14.4243 7.70852 12.6577 9.12808C12.3265 9.39622 12.0032 9.67224 11.7271 9.92461C12.0032 10.177 12.3344 10.4688 12.6814 10.7448Z" fill="#FF00FF"/>
</svg>
