<svg width="16" height="16" viewBox="0 0 16 16" fill="none" xmlns="http://www.w3.org/2000/svg">
<path d="M0 10.2202H1.06325V7.44892C1.06325 6.90235 1.42194 6.50523 1.93435 6.50523C2.42968 6.50523 2.73712 6.81695 2.73712 7.32082V10.2202H3.77048V7.4233C3.77048 6.881 4.12063 6.50523 4.63304 6.50523C5.15399 6.50523 5.44436 6.82122 5.44436 7.37633V10.2202H6.50761V7.11585C6.50761 6.2106 5.92261 5.60852 5.03016 5.60852C4.37683 5.60852 3.8388 5.95866 3.62103 6.51804H3.59541C3.42888 5.93731 2.97198 5.60852 2.33147 5.60852C1.71657 5.60852 1.23832 5.95439 1.0419 6.47961H1.02055V5.69392H0V10.2202Z" fill="#FF00FF"/>
<path d="M8.69389 10.2928C9.27462 10.2928 9.84254 9.98962 10.103 9.49856H10.1244V10.2202H11.1492V7.10304C11.1492 6.19352 10.419 5.59998 9.29597 5.59998C8.14305 5.59998 7.4214 6.20633 7.37443 7.0518H8.36082C8.42914 6.67604 8.7494 6.43264 9.25327 6.43264C9.77849 6.43264 10.0987 6.70593 10.0987 7.17991V7.50443L8.90312 7.57275C7.80144 7.64108 7.18228 8.12359 7.18228 8.92637C7.18228 9.74196 7.81852 10.2928 8.69389 10.2928ZM9.01414 9.49002C8.55298 9.49002 8.24553 9.25517 8.24553 8.88367C8.24553 8.52498 8.54017 8.2944 9.05258 8.26024L10.0987 8.19619V8.54206C10.0987 9.08863 9.61623 9.49002 9.01414 9.49002Z" fill="#FF00FF"/>
<path d="M15.9957 7.30801C15.9231 6.35578 15.1844 5.59998 13.9888 5.59998C12.6736 5.59998 11.8196 6.5095 11.8196 7.95706C11.8196 9.42597 12.6736 10.3099 13.9973 10.3099C15.1332 10.3099 15.9146 9.64374 16 8.63173H14.9965C14.8983 9.14414 14.5482 9.45159 14.0101 9.45159C13.3355 9.45159 12.8999 8.90502 12.8999 7.95706C12.8999 7.02618 13.3312 6.46253 14.0016 6.46253C14.5695 6.46253 14.9069 6.82549 14.9923 7.30801H15.9957Z" fill="#FF00FF"/>
</svg>
