<svg width="16" height="16" viewBox="0 0 16 16" fill="none" xmlns="http://www.w3.org/2000/svg">
<path d="M0 10.2202H1.06325V7.44895C1.06325 6.90238 1.42194 6.50526 1.93435 6.50526C2.42968 6.50526 2.73712 6.81698 2.73712 7.32085V10.2202H3.77048V7.42333C3.77048 6.88103 4.12063 6.50526 4.63304 6.50526C5.15399 6.50526 5.44436 6.82125 5.44436 7.37636V10.2202H6.50761V7.11589C6.50761 6.21063 5.9226 5.60855 5.03016 5.60855C4.37683 5.60855 3.8388 5.95869 3.62103 6.51807H3.59541C3.42888 5.93734 2.97198 5.60855 2.33147 5.60855C1.71657 5.60855 1.23832 5.95442 1.0419 6.47964H1.02055V5.69395H0V10.2202Z" fill="#FF00FF"/>
<path d="M8.69389 10.2928C9.27462 10.2928 9.84254 9.98965 10.103 9.49859H10.1244V10.2202H11.1492V7.10308C11.1492 6.19355 10.419 5.60001 9.29597 5.60001C8.14305 5.60001 7.4214 6.20636 7.37443 7.05183H8.36082C8.42914 6.67607 8.7494 6.43267 9.25327 6.43267C9.77849 6.43267 10.0987 6.70596 10.0987 7.17994V7.50446L8.90312 7.57278C7.80144 7.64111 7.18228 8.12363 7.18228 8.9264C7.18228 9.74199 7.81852 10.2928 8.69389 10.2928ZM9.01414 9.49005C8.55298 9.49005 8.24553 9.2552 8.24553 8.8837C8.24553 8.52501 8.54017 8.29443 9.05258 8.26027L10.0987 8.19622V8.54209C10.0987 9.08866 9.61623 9.49005 9.01414 9.49005Z" fill="#FF00FF"/>
<path d="M15.9957 7.30804C15.9231 6.35581 15.1844 5.60001 13.9888 5.60001C12.6736 5.60001 11.8196 6.50953 11.8196 7.95709C11.8196 9.426 12.6736 10.3099 13.9973 10.3099C15.1332 10.3099 15.9146 9.64377 16 8.63176H14.9965C14.8983 9.14417 14.5482 9.45162 14.0101 9.45162C13.3355 9.45162 12.8999 8.90505 12.8999 7.95709C12.8999 7.02621 13.3312 6.46256 14.0016 6.46256C14.5695 6.46256 14.9069 6.82552 14.9923 7.30804H15.9957Z" fill="#FF00FF"/>
</svg>
