<svg width="20" height="20" viewBox="0 0 20 20" fill="none" xmlns="http://www.w3.org/2000/svg">
<path d="M0 12.7753H1.32906V9.31118C1.32906 8.62797 1.77742 8.13157 2.41793 8.13157C3.0371 8.13157 3.4214 8.52122 3.4214 9.15105V12.7753H4.7131V9.27916C4.7131 8.60128 5.15079 8.13157 5.7913 8.13157C6.44249 8.13157 6.80544 8.52655 6.80544 9.22044V12.7753H8.13451V8.89485C8.13451 7.76328 7.40326 7.01068 6.2877 7.01068C5.47104 7.01068 4.79851 7.44836 4.52629 8.14758H4.49426C4.2861 7.42167 3.71497 7.01068 2.91433 7.01068C2.14572 7.01068 1.5479 7.44302 1.30238 8.09955H1.27569V7.11743H0V12.7753Z" fill="black"/>
<path d="M10.8674 12.866C11.5933 12.866 12.3032 12.4871 12.6288 11.8732H12.6555V12.7753H13.9365V8.87884C13.9365 7.74193 13.0238 7 11.62 7C10.1788 7 9.27675 7.75794 9.21804 8.81479H10.451C10.5364 8.34508 10.9367 8.04083 11.5666 8.04083C12.2231 8.04083 12.6234 8.38244 12.6234 8.97491V9.38057L11.1289 9.46597C9.7518 9.55137 8.97785 10.1545 8.97785 11.158C8.97785 12.1775 9.77315 12.866 10.8674 12.866ZM11.2677 11.8626C10.6912 11.8626 10.3069 11.569 10.3069 11.1046C10.3069 10.6563 10.6752 10.368 11.3157 10.3253L12.6234 10.2453V10.6776C12.6234 11.3608 12.0203 11.8626 11.2677 11.8626Z" fill="black"/>
<path d="M19.9947 9.13504C19.9039 7.94476 18.9805 7 17.486 7C15.842 7 14.7745 8.13691 14.7745 9.94636C14.7745 11.7825 15.842 12.8874 17.4967 12.8874C18.9165 12.8874 19.8932 12.0547 20 10.7897H18.7457C18.6229 11.4302 18.1852 11.8145 17.5127 11.8145C16.6693 11.8145 16.1249 11.1313 16.1249 9.94636C16.1249 8.78276 16.664 8.0782 17.502 8.0782C18.2119 8.0782 18.6336 8.53189 18.7403 9.13504H19.9947Z" fill="black"/>
</svg>
