<svg width="20" height="20" viewBox="0 0 20 20" fill="none" xmlns="http://www.w3.org/2000/svg">
<path d="M18.9222 12.2903C19.1902 12.6362 19.3281 13.0653 19.3118 13.5025C19.2836 14.1845 19.141 14.857 18.8899 15.4917L18.8839 15.5066C18.3163 16.8717 17.3251 18.0184 16.0566 18.7776C14.7362 19.5456 13.2318 19.9401 11.7045 19.9188C11.6057 19.9188 11.505 19.9172 11.4057 19.9143C9.89835 19.8828 8.42687 19.4485 7.14401 18.6563C6.01479 17.9487 5.10098 16.9453 4.50177 15.755C3.81142 15.6477 3.16691 15.3428 2.64618 14.8771C1.99874 14.324 1.584 13.5468 1.48491 12.7011C1.44075 12.2901 1.46458 11.8747 1.55542 11.4716L1.2716 11.2316C1.04187 11.0331 0.855169 10.7898 0.723001 10.5165C0.590834 10.2432 0.515992 9.94581 0.503084 9.64253C0.479797 9.01298 0.5886 8.38553 0.822488 7.80058C1.40511 6.20993 2.74541 4.31586 4.40804 2.73383C5.15 2.01385 5.97305 1.38247 6.86067 0.852369C7.60099 0.37886 8.45126 0.104998 9.32877 0.0574172C9.89473 0.0426562 10.446 0.238762 10.8755 0.607651C10.9 0.629036 11.2674 0.988391 11.5461 1.26139C11.616 1.23188 11.6664 1.21065 11.6678 1.21009C12.4923 0.850966 13.3783 0.654334 14.2773 0.630984C15.9431 0.630984 17.0207 1.52424 17.0228 2.90668C17.0241 3.75968 16.6053 4.71594 15.8332 5.64164C16.0433 5.96643 16.2022 6.32158 16.3044 6.69464C16.4141 7.07655 16.4741 7.47098 16.4831 7.86822C16.4906 8.03912 16.4982 8.31334 16.5044 8.55538C17.074 8.69956 17.6004 8.9791 18.0389 9.37025C18.3362 9.66517 18.5311 10.0476 18.5952 10.4614C18.6595 10.8699 18.5964 11.2882 18.4144 11.6595C18.4306 11.706 18.4475 11.7565 18.4642 11.81C18.4788 11.8567 18.4926 11.9017 18.5054 11.9443C18.6658 12.0311 18.8074 12.1487 18.9222 12.2903Z" fill="white"/>
<path d="M5.75628 13.187C5.76725 13.2003 5.77395 13.2166 5.77548 13.2338C5.77701 13.2509 5.77332 13.2682 5.76487 13.2832C5.72381 13.3498 5.66495 13.4037 5.59493 13.4386C5.52491 13.4736 5.44652 13.4883 5.36858 13.4812C5.22968 13.4662 5.10164 13.3991 5.01034 13.2933C4.91904 13.1876 4.87128 13.0511 4.87672 12.9115C4.87437 12.7213 4.9091 12.5324 4.97898 12.3554C5.02309 12.2446 5.0277 12.1219 4.99202 12.008C4.95634 11.8941 4.88255 11.796 4.78306 11.7301C4.72417 11.6912 4.65808 11.6644 4.58868 11.6514C4.51928 11.6384 4.44798 11.6394 4.37898 11.6545C4.31139 11.6687 4.24732 11.6963 4.19055 11.7356C4.13378 11.775 4.08544 11.8253 4.04839 11.8836C3.99599 11.9733 3.95524 12.0693 3.92714 12.1693C3.92172 12.187 3.91735 12.2008 3.91403 12.2097C3.86799 12.3339 3.79459 12.3701 3.74486 12.3635C3.72135 12.3602 3.68902 12.3445 3.66829 12.2876C3.64228 12.1233 3.65409 11.9552 3.70281 11.7962C3.75153 11.6371 3.83588 11.4912 3.94945 11.3697C4.04483 11.2672 4.16322 11.189 4.29484 11.1414C4.42645 11.0938 4.5675 11.0782 4.70633 11.096C4.8534 11.1162 4.99317 11.1725 5.11311 11.26C5.23305 11.3475 5.32942 11.4634 5.39359 11.5972C5.45858 11.7618 5.4848 11.9391 5.47023 12.1154C5.45566 12.2917 5.40068 12.4622 5.30957 12.6139C5.29804 12.6396 5.28748 12.6633 5.27859 12.6847C5.24583 12.7439 5.22783 12.8102 5.22614 12.8778C5.22445 12.9455 5.23911 13.0126 5.26887 13.0733C5.29404 13.1096 5.3278 13.139 5.36713 13.159C5.40647 13.179 5.45015 13.189 5.49426 13.1879C5.53585 13.1873 5.5772 13.1815 5.61732 13.1706C5.66954 13.1583 5.7235 13.1458 5.75628 13.187L5.75628 13.187ZM18.6293 13.5084C18.6001 14.1079 18.4735 14.6985 18.2543 15.2572C17.1611 17.8849 14.5522 19.3477 11.4443 19.2551C8.54697 19.1688 6.07587 17.6352 4.99435 15.1353C4.3116 15.1162 3.65843 14.8524 3.15391 14.392C2.63273 13.9477 2.29788 13.3235 2.21594 12.6436C2.16305 12.1758 2.22091 11.7021 2.38483 11.2608L1.77745 10.7447C-1.00171 8.39097 7.69075 -1.30033 10.471 1.13202C10.485 1.14426 11.4167 2.06128 11.419 2.06354C11.4227 2.06165 11.9331 1.84457 11.9357 1.84351C14.3742 0.830661 16.3529 1.3197 16.3554 2.93573C16.3567 3.77617 15.8228 4.75576 14.9675 5.64495C15.3093 5.99283 15.5513 6.42619 15.6682 6.89968C15.7625 7.23 15.8135 7.57118 15.8198 7.91464C15.8347 8.25712 15.8511 9.05501 15.8527 9.06922C15.8745 9.07579 16.1213 9.14374 16.1962 9.16483C16.6937 9.27395 17.1566 9.50396 17.5441 9.83452C17.7487 10.0345 17.8827 10.2956 17.9258 10.5784C17.9785 10.9454 17.887 11.3185 17.6704 11.6193C17.7267 11.7479 17.7756 11.8796 17.8168 12.0137C17.8888 12.2452 17.9412 12.4372 17.9492 12.4657C18.2138 12.4657 18.6293 12.7712 18.6293 13.5084L18.6293 13.5084ZM6.34753 12.0666C6.15854 10.8396 5.33104 10.4072 4.76956 10.3763C4.62862 10.3688 4.4873 10.3789 4.34884 10.4063C3.34668 10.6091 2.78067 11.4642 2.89205 12.5753C2.97316 13.0737 3.21996 13.5302 3.59256 13.871C3.96517 14.2118 4.4418 14.417 4.94544 14.4535C5.04183 14.456 5.13823 14.4493 5.23331 14.4332C6.24904 14.2595 6.51497 13.1532 6.34753 12.0666ZM8.06047 4.27768C8.90939 3.57976 9.81496 2.95376 10.7678 2.40617C10.7678 2.40617 10.0112 1.52627 9.78274 1.46142C8.37749 1.08039 5.34182 3.18031 3.40365 5.95462C2.61941 7.07715 1.49674 9.06505 2.03351 10.0874C2.2242 10.3169 2.4393 10.5249 2.67502 10.7078C3.03388 10.202 3.57537 9.85552 4.18502 9.74162C4.94775 7.59751 6.28909 5.70637 8.06047 4.27768ZM11.1147 13.9873C11.1519 14.1504 11.2325 14.3004 11.3479 14.4214C11.4634 14.5425 11.6094 14.6301 11.7705 14.675C11.9381 14.7375 12.111 14.7846 12.2872 14.8158C14.51 15.1993 16.5882 13.9245 17.0561 13.6034C17.0912 13.5793 17.1144 13.6028 17.0862 13.6453C17.0721 13.668 17.0568 13.6898 17.0404 13.7109C16.4678 14.4517 14.9283 15.3097 12.9254 15.3094C12.0518 15.3093 11.1788 15.0006 10.8582 14.5263C10.3608 13.7903 10.8335 12.7161 11.6623 12.828C11.6632 12.8282 11.9458 12.8603 12.0253 12.8691C13.3135 12.993 14.6119 12.7846 15.7967 12.2638C16.9273 11.7373 17.3545 11.1579 17.2904 10.689C17.269 10.5433 17.2005 10.4086 17.0954 10.3055C16.7862 10.051 16.4191 9.87657 16.0265 9.79764C15.8469 9.74708 15.7251 9.7148 15.5938 9.67142C15.3604 9.59432 15.2451 9.53226 15.2189 9.09205C15.2075 8.89954 15.1741 8.22886 15.1619 7.95168C15.1406 7.46604 15.0824 6.80225 14.6717 6.52817C14.5672 6.45936 14.4458 6.42044 14.3207 6.41562C14.2506 6.41136 14.1802 6.41827 14.1123 6.43611C13.9043 6.48425 13.7147 6.59175 13.5666 6.74556C13.3746 6.91903 13.1489 7.05097 12.9036 7.13311C12.6583 7.21525 12.3986 7.24581 12.141 7.22288C11.8536 7.21086 11.5491 7.16597 11.2001 7.14518C11.1322 7.14117 11.064 7.13694 10.9959 7.13346C10.5465 7.14525 10.1162 7.31805 9.78348 7.62039C9.45074 7.92274 9.23764 8.33452 9.18298 8.78077C8.98313 10.16 9.9789 10.8727 10.2664 11.2909C10.3108 11.3442 10.3383 11.4094 10.3455 11.4784C10.3379 11.5549 10.3013 11.6256 10.2432 11.6759V11.6764C9.84553 12.1194 9.56605 12.6555 9.43061 13.2352C9.29516 13.8149 9.30812 14.4194 9.46828 14.9927C9.50628 15.1304 9.55498 15.2649 9.61394 15.395C10.3405 17.0981 12.5945 17.8911 14.7966 17.1697C15.0849 17.0753 15.3648 16.9568 15.6332 16.8154C16.1154 16.5763 16.5497 16.2508 16.9144 15.855C17.4815 15.285 17.8547 14.5509 17.981 13.7568C18.0472 13.3178 17.9502 13.148 17.8179 13.0663C17.7243 13.0142 17.6162 12.9944 17.5103 13.01C17.4542 12.6652 17.3558 12.3287 17.2174 12.0081C16.5884 12.4826 15.8775 12.8373 15.1201 13.0543C14.2088 13.3118 13.2608 13.4146 12.3156 13.3585C11.7074 13.3092 11.3051 13.1311 11.1538 13.6244C12.0737 13.932 13.0504 14.0317 14.0134 13.9162C14.0202 13.9155 14.027 13.9161 14.0336 13.9181C14.0401 13.92 14.0462 13.9233 14.0514 13.9276C14.0567 13.9319 14.0611 13.9372 14.0643 13.9432C14.0675 13.9492 14.0695 13.9558 14.0702 13.9626C14.0712 13.974 14.0686 13.9854 14.0629 13.9953C14.0571 14.0052 14.0485 14.013 14.0381 14.0178C14.0381 14.0178 12.9085 14.5438 11.1147 13.9873ZM7.80659 5.98939C8.55369 5.46489 9.39609 5.09142 10.2864 4.88999C11.2908 4.65724 12.3348 4.65442 13.3404 4.88176C13.3756 4.88984 13.3981 4.82869 13.3666 4.81102C12.8447 4.5393 12.2687 4.38786 11.6807 4.36778C11.675 4.36768 11.6695 4.36601 11.6647 4.36297C11.6599 4.35993 11.6561 4.35563 11.6536 4.35054C11.6511 4.34546 11.6501 4.33978 11.6506 4.33414C11.6511 4.3285 11.6532 4.32311 11.6566 4.31857C11.7479 4.19869 11.8546 4.09132 11.9739 3.99922C11.9792 3.99505 11.9831 3.98928 11.985 3.98276C11.9868 3.97623 11.9865 3.96929 11.9841 3.96294C11.9817 3.95659 11.9774 3.95116 11.9717 3.94745C11.966 3.94374 11.9593 3.94194 11.9526 3.94231C11.2325 4.0135 10.5405 4.25855 9.93617 4.65638C9.93101 4.65988 9.92491 4.66174 9.91867 4.66173C9.91244 4.66171 9.90635 4.65982 9.9012 4.6563C9.89606 4.65278 9.89209 4.64778 9.88982 4.64198C9.88755 4.63617 9.88708 4.62981 9.88847 4.62373C9.93714 4.44129 10.0088 4.26578 10.1018 4.10144C10.1049 4.09581 10.1061 4.08935 10.1052 4.083C10.1044 4.07665 10.1015 4.07074 10.097 4.06614C10.0925 4.06155 10.0867 4.05851 10.0804 4.05747C10.0741 4.05644 10.0676 4.05746 10.0619 4.06039C9.18782 4.54283 8.40932 5.18099 7.76476 5.94338C7.75971 5.94917 7.75696 5.9566 7.75704 5.96428C7.75712 5.97196 7.76001 5.97934 7.76518 5.98502C7.77034 5.9907 7.77742 5.99429 7.78505 5.99509C7.79269 5.9959 7.80035 5.99387 7.80659 5.98939ZM13.6602 10.6711C13.7211 10.7096 13.794 10.7244 13.865 10.7126C13.936 10.7008 14.0002 10.6632 14.0454 10.6071C14.1014 10.4986 14.02 10.3514 13.8634 10.2783C13.8026 10.2398 13.7297 10.225 13.6586 10.2368C13.5876 10.2487 13.5234 10.2863 13.4783 10.3424C13.4222 10.4509 13.5037 10.598 13.6602 10.6711ZM14.1405 8.91131C14.178 9.10669 14.2591 9.29112 14.3776 9.45093C14.5 9.43588 14.6239 9.43588 14.7463 9.45093C14.8179 9.23647 14.8242 9.00556 14.7643 8.78753C14.6758 8.38523 14.5561 8.14175 14.3086 8.1796C14.0612 8.21753 14.0521 8.50901 14.1405 8.91131ZM14.667 9.83545C14.6045 9.81754 14.5381 9.81964 14.4769 9.84144C14.4158 9.86325 14.363 9.90367 14.326 9.95702C14.289 10.0104 14.2696 10.074 14.2706 10.1389C14.2716 10.2038 14.2929 10.2668 14.3316 10.319C14.3702 10.3712 14.4242 10.4099 14.486 10.4298C14.5479 10.4497 14.6143 10.4498 14.6762 10.4299C14.738 10.4101 14.7921 10.3714 14.8307 10.3192C14.8694 10.2671 14.8908 10.2042 14.8919 10.1392C14.9009 10.0693 14.8825 9.99871 14.8405 9.94209C14.7986 9.88546 14.7364 9.84725 14.667 9.83545Z" fill="black"/>
<path d="M10.5583 9.79951C10.5189 9.79396 10.502 9.77707 10.4971 9.7547C10.4817 9.68529 10.5885 9.57107 10.701 9.48862C10.8652 9.36856 11.0576 9.29277 11.2595 9.26852C11.4615 9.24428 11.6663 9.2724 11.8543 9.35018C12.0299 9.42262 12.1809 9.54417 12.2892 9.70025C12.3294 9.76588 12.3372 9.81677 12.3112 9.84344C12.2707 9.88618 12.1674 9.83721 11.9992 9.76344C11.7971 9.66428 11.5738 9.61619 11.3488 9.62336C11.0822 9.66722 10.8183 9.72603 10.5583 9.79951ZM12.235 10.1447C12.1623 10.0683 12.0718 10.0111 11.9716 9.97825C11.8714 9.9454 11.7646 9.93792 11.6608 9.95647C11.5077 9.97275 11.3626 10.0332 11.2433 10.1305C11.1877 10.1704 11.1495 10.2301 11.1365 10.2973C11.1362 10.3048 11.1375 10.3122 11.1404 10.3191C11.1433 10.326 11.1477 10.3322 11.1532 10.3372C11.1631 10.3462 11.176 10.3511 11.1893 10.3509C11.2444 10.3428 11.2982 10.3279 11.3496 10.3065C11.5745 10.2217 11.8175 10.1965 12.055 10.2332C12.1651 10.2456 12.2171 10.2525 12.2412 10.2147C12.2474 10.2038 12.2501 10.1912 12.249 10.1787C12.2479 10.1662 12.243 10.1544 12.235 10.1447Z" fill="black"/>
</svg>
