<svg width="16" height="16" viewBox="0 0 16 16" fill="none" xmlns="http://www.w3.org/2000/svg">
<g clip-path="url(#clip0_2179_3677)">
<path d="M15.1377 9.83236C15.3521 10.1091 15.4624 10.4523 15.4493 10.8021C15.4268 11.3477 15.3127 11.8857 15.1118 12.3935L15.1071 12.4054C14.6529 13.4975 13.86 14.4148 12.8451 15.0222C11.7889 15.6366 10.5854 15.9522 9.36353 15.9351C9.28446 15.9351 9.20389 15.9339 9.12449 15.9315C7.91859 15.9064 6.7414 15.5589 5.71511 14.9252C4.81174 14.3591 4.08069 13.5563 3.60131 12.6041C3.04903 12.5183 2.53343 12.2744 2.11684 11.9018C1.5989 11.4593 1.26711 10.8375 1.18783 10.1609C1.15251 9.83221 1.17156 9.49989 1.24424 9.17734L1.01718 8.98534C0.833396 8.82661 0.684038 8.63194 0.578303 8.41332C0.472569 8.1947 0.412696 7.95675 0.402369 7.71412C0.38374 7.21048 0.470782 6.70852 0.657892 6.24056C1.12399 4.96804 2.19623 3.45279 3.52634 2.18716C4.1199 1.61118 4.77834 1.10607 5.48844 0.681993C6.0807 0.303185 6.76091 0.0840957 7.46292 0.0460314C7.91569 0.0342226 8.35669 0.191108 8.70027 0.486218C8.71988 0.503326 9.01383 0.790811 9.23678 1.00921C9.29273 0.985602 9.33298 0.968618 9.33416 0.968171C9.99374 0.68087 10.7026 0.523565 11.4218 0.504885C12.7543 0.504885 13.6165 1.21949 13.6182 2.32544C13.6192 3.00784 13.2842 3.77285 12.6665 4.51341C12.8345 4.77324 12.9617 5.05736 13.0434 5.35581C13.1312 5.66134 13.1792 5.97688 13.1864 6.29467C13.1924 6.43139 13.1985 6.65077 13.2034 6.8444C13.6591 6.95974 14.0803 7.18338 14.431 7.4963C14.6688 7.73224 14.8248 8.03816 14.876 8.36921C14.9275 8.69598 14.877 9.03069 14.7314 9.32773C14.7444 9.36493 14.7579 9.40532 14.7713 9.44812C14.783 9.48545 14.794 9.52142 14.8043 9.55556C14.9325 9.625 15.0458 9.71906 15.1377 9.83236Z" fill="white"/>
<path d="M4.60498 10.5495C4.61376 10.5602 4.61911 10.5732 4.62034 10.5869C4.62156 10.6007 4.6186 10.6144 4.61185 10.6265C4.579 10.6798 4.53191 10.7228 4.4759 10.7508C4.41988 10.7788 4.35716 10.7906 4.29481 10.7848C4.18369 10.7729 4.08126 10.7191 4.00822 10.6346C3.93518 10.55 3.89698 10.4408 3.90133 10.3291C3.89945 10.1769 3.92724 10.0258 3.98314 9.88425C4.01843 9.79555 4.02211 9.6974 3.99356 9.6063C3.96502 9.5152 3.90599 9.43671 3.8264 9.384C3.77929 9.35283 3.72642 9.33141 3.67089 9.32101C3.61537 9.31062 3.55833 9.31145 3.50314 9.32346C3.44906 9.33484 3.39781 9.35692 3.35239 9.38839C3.30697 9.41987 3.26831 9.46011 3.23867 9.50675C3.19674 9.57852 3.16415 9.65535 3.14167 9.73538C3.13733 9.74947 3.13383 9.76053 3.13118 9.76768C3.09434 9.86702 3.03562 9.89599 2.99584 9.89067C2.97703 9.88807 2.95116 9.87549 2.93459 9.83002C2.91378 9.69856 2.92322 9.56409 2.9622 9.43683C3.00117 9.30958 3.06865 9.19288 3.15951 9.09563C3.23582 9.01369 3.33053 8.95109 3.43582 8.91302C3.54111 8.87494 3.65395 8.86248 3.76502 8.87666C3.88267 8.89283 3.99449 8.93793 4.09044 9.00792C4.18639 9.0779 4.26348 9.1706 4.31482 9.27769C4.36681 9.40932 4.38779 9.55115 4.37614 9.69219C4.36448 9.83323 4.3205 9.96969 4.2476 10.091C4.23838 10.1116 4.22994 10.1305 4.22282 10.1477C4.19661 10.195 4.18222 10.248 4.18086 10.3022C4.17951 10.3563 4.19124 10.41 4.21505 10.4586C4.23518 10.4876 4.26219 10.5111 4.29366 10.5271C4.32512 10.5431 4.36007 10.5511 4.39536 10.5503C4.42863 10.5498 4.46171 10.5451 4.49381 10.5363C4.53559 10.5265 4.57875 10.5165 4.60498 10.5495L4.60498 10.5495ZM14.9034 10.8066C14.8801 11.2862 14.7787 11.7587 14.6034 12.2057C13.7289 14.3078 11.6417 15.478 9.15538 15.404C6.83753 15.3349 4.86065 14.1081 3.99543 12.1082C3.44923 12.0929 2.9267 11.8819 2.52308 11.5135C2.10614 11.1581 1.83825 10.6587 1.7727 10.1148C1.7304 9.74054 1.77668 9.36161 1.90781 9.00856L1.42191 8.59568C-0.801416 6.71268 6.15255 -1.04036 8.37673 0.905519C8.38795 0.915314 9.13331 1.64893 9.13518 1.65073C9.13815 1.64922 9.54644 1.47556 9.54852 1.47471C11.4993 0.664431 13.0823 1.05566 13.0843 2.34849C13.0853 3.02084 12.6582 3.80451 11.974 4.51587C12.2474 4.79417 12.441 5.14086 12.5345 5.51964C12.6099 5.7839 12.6507 6.05685 12.6558 6.33162C12.6677 6.6056 12.6808 7.24391 12.6821 7.25528C12.6995 7.26053 12.897 7.3149 12.9569 7.33177C13.3549 7.41907 13.7253 7.60307 14.0353 7.86752C14.1989 8.02752 14.3061 8.23641 14.3406 8.46265C14.3828 8.75621 14.3095 9.05469 14.1362 9.29537C14.1813 9.3982 14.2205 9.50355 14.2534 9.61089C14.311 9.79605 14.3529 9.9497 14.3594 9.97249C14.571 9.97249 14.9034 10.2169 14.9034 10.8067L14.9034 10.8066ZM5.07798 9.65315C4.92678 8.67157 4.26479 8.32563 3.8156 8.30095C3.70285 8.29497 3.58979 8.30303 3.47903 8.32495C2.67729 8.48719 2.22449 9.17127 2.31359 10.0602C2.37848 10.4589 2.57592 10.8241 2.874 11.0967C3.17209 11.3694 3.55339 11.5335 3.95631 11.5627C4.03341 11.5647 4.11054 11.5593 4.1866 11.5465C4.99918 11.4075 5.21193 10.5224 5.07798 9.65315ZM6.44832 3.42204C7.12746 2.86371 7.85192 2.36291 8.61418 1.92484C8.61418 1.92484 8.00893 1.22092 7.82615 1.16904C6.70194 0.864218 4.27341 2.54415 2.72287 4.7636C2.09548 5.66162 1.19735 7.25194 1.62676 8.06984C1.77931 8.25342 1.95139 8.41984 2.13997 8.56617C2.42706 8.1615 2.86024 7.88432 3.34797 7.7932C3.95815 6.07791 5.03122 4.565 6.44832 3.42204V3.42204ZM8.89169 11.1898C8.92148 11.3202 8.98596 11.4402 9.07831 11.5371C9.17066 11.6339 9.28746 11.704 9.41635 11.7399C9.55044 11.7899 9.68878 11.8276 9.82969 11.8525C11.608 12.1593 13.2705 11.1395 13.6448 10.8826C13.6729 10.8633 13.6915 10.8821 13.6689 10.9162C13.6576 10.9343 13.6454 10.9518 13.6323 10.9686C13.1742 11.5613 11.9426 12.2477 10.3403 12.2474C9.64143 12.2473 8.94296 12.0004 8.68651 11.6209C8.28862 11.0321 8.66679 10.1728 9.32977 10.2623C9.33055 10.2624 9.55662 10.2881 9.62016 10.2952C10.6507 10.3943 11.6895 10.2276 12.6373 9.81091C13.5418 9.38975 13.8835 8.92626 13.8323 8.55106C13.8151 8.43454 13.7604 8.32681 13.6763 8.24431C13.4289 8.0407 13.1352 7.90116 12.8212 7.83802C12.6775 7.79756 12.58 7.77174 12.475 7.73704C12.2883 7.67536 12.196 7.62571 12.1751 7.27354C12.166 7.11953 12.1392 6.58299 12.1295 6.36125C12.1124 5.97274 12.0659 5.4417 11.7373 5.22244C11.6537 5.16739 11.5566 5.13626 11.4565 5.1324C11.4004 5.12899 11.3441 5.13452 11.2898 5.14879C11.1234 5.1873 10.9717 5.2733 10.8532 5.39635C10.6997 5.53513 10.5191 5.64068 10.3228 5.70639C10.1266 5.7721 9.91887 5.79655 9.71272 5.77821C9.48285 5.76859 9.23924 5.73267 8.95999 5.71605C8.90568 5.71284 8.85112 5.70946 8.79668 5.70667C8.43714 5.71611 8.09293 5.85434 7.82674 6.09622C7.56054 6.33809 7.39006 6.66752 7.34633 7.02452C7.18645 8.12789 7.98307 8.69805 8.21306 9.03262C8.24859 9.07523 8.27063 9.12746 8.27636 9.18265C8.27029 9.24385 8.24099 9.3004 8.19449 9.34065V9.34101C7.87637 9.69542 7.65279 10.1243 7.54444 10.5881C7.43608 11.0518 7.44644 11.5354 7.57457 11.9941C7.60498 12.1042 7.64394 12.2118 7.6911 12.3159C8.27238 13.6784 10.0756 14.3128 11.8372 13.7357C12.0679 13.6602 12.2918 13.5653 12.5065 13.4522C12.8923 13.261 13.2397 13.0006 13.5314 12.6839C13.9851 12.2279 14.2837 11.6406 14.3847 11.0054C14.4377 10.6542 14.3601 10.5183 14.2543 10.453C14.1794 10.4113 14.0929 10.3954 14.0082 10.4079C13.9633 10.1321 13.8846 9.86287 13.7738 9.60635C13.2707 9.986 12.702 10.2697 12.096 10.4434C11.367 10.6493 10.6086 10.7316 9.85241 10.6867C9.36591 10.6473 9.04404 10.5048 8.92299 10.8994C9.6589 11.1455 10.4402 11.2252 11.2107 11.1328C11.2161 11.1323 11.2216 11.1328 11.2268 11.1344C11.232 11.1359 11.2369 11.1385 11.2411 11.142C11.2453 11.1454 11.2488 11.1497 11.2514 11.1545C11.254 11.1593 11.2556 11.1645 11.2561 11.17C11.2569 11.1791 11.2549 11.1882 11.2503 11.1961C11.2457 11.204 11.2387 11.2103 11.2304 11.2141C11.2304 11.2141 10.3268 11.635 8.89169 11.1898V11.1898ZM6.24522 4.79142C6.84291 4.37181 7.51682 4.07304 8.22909 3.9119C9.0326 3.72569 9.86779 3.72344 10.6723 3.90531C10.7004 3.91178 10.7184 3.86286 10.6932 3.84872C10.2757 3.63135 9.81489 3.51019 9.3445 3.49413C9.33996 3.49404 9.33554 3.49271 9.33172 3.49028C9.32789 3.48785 9.32481 3.48441 9.32282 3.48034C9.32083 3.47627 9.31999 3.47173 9.32041 3.46721C9.32083 3.4627 9.32249 3.45839 9.3252 3.45476C9.39827 3.35885 9.48362 3.27296 9.57906 3.19928C9.58334 3.19594 9.58644 3.19133 9.58791 3.18611C9.58938 3.18089 9.58915 3.17533 9.58725 3.17025C9.58535 3.16517 9.58187 3.16083 9.57733 3.15787C9.57279 3.1549 9.56742 3.15346 9.562 3.15375C8.98596 3.2107 8.43238 3.40674 7.94889 3.72501C7.94476 3.72781 7.93988 3.7293 7.93489 3.72928C7.9299 3.72927 7.92503 3.72776 7.92091 3.72494C7.9168 3.72212 7.91362 3.71813 7.91181 3.71348C7.90999 3.70884 7.90961 3.70375 7.91073 3.69889C7.94966 3.55293 8.00701 3.41253 8.08139 3.28105C8.08386 3.27655 8.08482 3.27138 8.08413 3.2663C8.08344 3.26122 8.08114 3.25649 8.07756 3.25282C8.07398 3.24914 8.06932 3.24671 8.06426 3.24588C8.0592 3.24505 8.054 3.24587 8.04944 3.24822C7.3502 3.63417 6.72741 4.14469 6.21176 4.75461C6.20772 4.75924 6.20552 4.76519 6.20558 4.77133C6.20565 4.77747 6.20796 4.78337 6.21209 4.78792C6.21623 4.79246 6.22188 4.79533 6.22799 4.79598C6.2341 4.79662 6.24023 4.795 6.24522 4.79142V4.79142ZM10.9281 8.53677C10.9768 8.56759 11.0351 8.5794 11.092 8.56996C11.1488 8.56051 11.2001 8.53047 11.2362 8.48557C11.2811 8.39875 11.216 8.28101 11.0907 8.22252C11.042 8.19171 10.9837 8.17991 10.9269 8.18938C10.87 8.19884 10.8187 8.22891 10.7826 8.27384C10.7377 8.36059 10.8029 8.47834 10.9281 8.53677ZM11.3123 7.12895C11.3424 7.28526 11.4072 7.4328 11.502 7.56065C11.6 7.54861 11.6991 7.54861 11.797 7.56065C11.8543 7.38908 11.8593 7.20435 11.8114 7.02992C11.7406 6.70809 11.6448 6.5133 11.4468 6.54358C11.2489 6.57392 11.2416 6.80711 11.3123 7.12895ZM11.7335 7.86827C11.6836 7.85394 11.6304 7.85562 11.5815 7.87306C11.5326 7.8905 11.4903 7.92284 11.4607 7.96552C11.4311 8.0082 11.4156 8.05909 11.4164 8.11102C11.4172 8.16296 11.4343 8.21334 11.4652 8.25509C11.4961 8.29683 11.5393 8.32784 11.5888 8.34376C11.6382 8.35968 11.6914 8.35971 11.7409 8.34384C11.7903 8.32797 11.8336 8.29701 11.8646 8.2553C11.8955 8.21359 11.9126 8.16322 11.9135 8.11129C11.9207 8.05538 11.9059 7.99887 11.8724 7.95357C11.8388 7.90827 11.7891 7.87771 11.7335 7.86827V7.86827Z" fill="black"/>
<path d="M8.44667 7.83951C8.41509 7.83507 8.40163 7.82156 8.39766 7.80366C8.3854 7.74813 8.47079 7.65676 8.5608 7.5908C8.69217 7.49475 8.84604 7.43412 9.00762 7.41472C9.16919 7.39533 9.33304 7.41782 9.48341 7.48004C9.62391 7.538 9.74473 7.63524 9.83138 7.7601C9.86356 7.81261 9.86978 7.85332 9.84898 7.87465C9.81657 7.90884 9.7339 7.86967 9.59932 7.81065C9.43766 7.73133 9.25901 7.69285 9.07903 7.69859C8.86577 7.73368 8.65465 7.78072 8.44667 7.83951V7.83951ZM9.788 8.11566C9.72986 8.05453 9.65745 8.00878 9.57728 7.9825C9.49711 7.95622 9.41168 7.95024 9.32863 7.96508C9.20615 7.9781 9.09011 8.02647 8.99464 8.10428C8.95015 8.13621 8.91957 8.18396 8.90919 8.23773C8.90895 8.24371 8.91002 8.24967 8.91234 8.25519C8.91465 8.26071 8.91815 8.26565 8.92258 8.26967C8.93047 8.27684 8.94078 8.28076 8.95144 8.28064C8.9955 8.27417 9.03858 8.26223 9.07968 8.24508C9.2596 8.17728 9.45399 8.15709 9.644 8.18647C9.73206 8.19637 9.77366 8.20188 9.79298 8.17166C9.79794 8.16292 9.80012 8.15289 9.79923 8.14288C9.79834 8.13288 9.79442 8.12338 9.788 8.11566V8.11566Z" fill="black"/>
</g>
<defs>
<clipPath id="clip0_2179_3677">
<rect width="16" height="16" fill="white"/>
</clipPath>
</defs>
</svg>
