<svg width="16" height="16" viewBox="0 0 16 16" fill="none" xmlns="http://www.w3.org/2000/svg">
<g clip-path="url(#clip0_1447_1765)">
<path d="M4.50594 10.7528C4.51542 10.7643 4.5212 10.7784 4.52252 10.7932C4.52385 10.8081 4.52065 10.8229 4.51336 10.8359C4.47788 10.8935 4.42701 10.94 4.36651 10.9703C4.306 11.0005 4.23825 11.0132 4.17091 11.007C4.05088 10.9941 3.94024 10.936 3.86134 10.8447C3.78244 10.7533 3.74118 10.6354 3.74588 10.5147C3.74385 10.3504 3.77386 10.1871 3.83425 10.0342C3.87236 9.93841 3.87634 9.83239 3.84551 9.73399C3.81468 9.63559 3.75092 9.5508 3.66494 9.49386C3.61406 9.46019 3.55694 9.43706 3.49697 9.42583C3.437 9.4146 3.37538 9.4155 3.31577 9.42848C3.25736 9.44077 3.20199 9.46461 3.15293 9.49861C3.10388 9.53261 3.06211 9.57608 3.03009 9.62645C2.98481 9.70398 2.9496 9.78697 2.92532 9.87341C2.92063 9.88863 2.91685 9.90058 2.91399 9.9083C2.8742 10.0156 2.81077 10.0469 2.7678 10.0412C2.74748 10.0383 2.71954 10.0248 2.70164 9.97564C2.67916 9.83364 2.68936 9.68839 2.73146 9.55093C2.77356 9.41348 2.84645 9.28743 2.94459 9.18237C3.02701 9.09387 3.12932 9.02626 3.24305 8.98513C3.35678 8.944 3.47867 8.93054 3.59864 8.94586C3.72573 8.96332 3.8465 9.01204 3.95015 9.08764C4.05379 9.16323 4.13707 9.26335 4.19252 9.37903C4.24868 9.52121 4.27134 9.67441 4.25875 9.82676C4.24616 9.97911 4.19865 10.1265 4.11991 10.2575C4.10995 10.2798 4.10083 10.3003 4.09315 10.3187C4.06483 10.3699 4.04928 10.4272 4.04782 10.4856C4.04636 10.5441 4.05903 10.6021 4.08475 10.6546C4.10649 10.6859 4.13567 10.7114 4.16966 10.7286C4.20365 10.7459 4.24139 10.7545 4.27951 10.7536C4.31545 10.7531 4.35118 10.7481 4.38585 10.7386C4.43098 10.728 4.47761 10.7172 4.50594 10.7528ZM15.6299 11.0306C15.6047 11.5485 15.4953 12.059 15.3059 12.5418C14.3612 14.8124 12.1068 16.0764 9.42112 15.9964C6.91746 15.9218 4.7821 14.5966 3.84752 12.4364C3.25753 12.4199 2.69312 12.192 2.25714 11.7941C1.80678 11.4102 1.51742 10.8708 1.44661 10.2832C1.40091 9.87899 1.4509 9.46968 1.59255 9.08833L1.0677 8.64235C-1.33386 6.6084 6.17757 -1.76617 8.58005 0.335707C8.59217 0.346288 9.39728 1.13871 9.3993 1.14066C9.4025 1.13903 9.84353 0.951442 9.84577 0.950527C11.9529 0.0752926 13.6628 0.497888 13.665 1.89435C13.6661 2.6206 13.2047 3.4671 12.4657 4.23548C12.761 4.53609 12.9701 4.91057 13.0711 5.31972C13.1526 5.60517 13.1967 5.89999 13.2022 6.19679C13.215 6.49274 13.2292 7.18222 13.2306 7.19449C13.2494 7.20017 13.4627 7.25889 13.5274 7.27712C13.9573 7.37141 14.3573 7.57017 14.6922 7.85582C14.869 8.02865 14.9847 8.25427 15.022 8.49866C15.0676 8.81575 14.9884 9.13816 14.8013 9.39813C14.85 9.50921 14.8922 9.623 14.9279 9.73895C14.99 9.93894 15.0353 10.1049 15.0423 10.1295C15.2709 10.1295 15.6299 10.3935 15.6299 11.0306ZM5.01685 9.7846C4.85353 8.72432 4.13847 8.35065 3.65328 8.324C3.53149 8.31753 3.40936 8.32624 3.28972 8.34992C2.42372 8.52516 1.93461 9.26408 2.03086 10.2242C2.10095 10.6549 2.31422 11.0494 2.6362 11.3439C2.95817 11.6384 3.37005 11.8157 3.80526 11.8472C3.88855 11.8494 3.97186 11.8436 4.05401 11.8297C4.93174 11.6795 5.16154 10.7236 5.01685 9.7846ZM6.49705 3.05397C7.23063 2.45088 8.01316 1.90993 8.83654 1.43674C8.83654 1.43674 8.18277 0.676389 7.98533 0.620355C6.771 0.291095 4.14778 2.1057 2.47295 4.50307C1.79526 5.47308 0.82513 7.19089 1.28897 8.07436C1.45375 8.27265 1.63963 8.45242 1.84332 8.61047C2.15342 8.17337 2.62134 7.87396 3.14816 7.77554C3.80725 5.92274 4.96635 4.28855 6.49705 3.05397ZM9.13629 11.4444C9.16847 11.5853 9.23812 11.7149 9.33787 11.8195C9.43763 11.9241 9.56378 11.9998 9.70301 12.0387C9.84785 12.0926 9.99728 12.1333 10.1495 12.1603C12.0703 12.4917 13.8661 11.3901 14.2704 11.1126C14.3008 11.0918 14.3208 11.1121 14.2965 11.1489C14.2843 11.1684 14.2711 11.1873 14.2569 11.2055C13.7621 11.8457 12.4318 12.5871 10.701 12.5869C9.94613 12.5867 9.19167 12.32 8.91466 11.9101C8.48488 11.2741 8.89336 10.3459 9.60949 10.4426C9.61033 10.4427 9.85452 10.4705 9.92316 10.4781C11.0363 10.5852 12.1584 10.4051 13.1822 9.955C14.1592 9.50008 14.5283 8.99943 14.4729 8.59416C14.4544 8.46829 14.3952 8.35193 14.3045 8.26281C14.0373 8.04288 13.72 7.89216 13.3808 7.82395C13.2256 7.78025 13.1203 7.75236 13.0068 7.71487C12.8052 7.64825 12.7055 7.59462 12.6829 7.21422C12.6731 7.04787 12.6441 6.46831 12.6337 6.22879C12.6152 5.80914 12.565 5.23553 12.2101 4.99869C12.1197 4.93923 12.0148 4.9056 11.9067 4.90144C11.8461 4.89775 11.7853 4.90373 11.7266 4.91914C11.5469 4.96074 11.383 5.05363 11.255 5.18654C11.0892 5.33645 10.8942 5.45046 10.6822 5.52144C10.4702 5.59242 10.2458 5.61883 10.0231 5.59902C9.77484 5.58863 9.5117 5.54983 9.21007 5.53187C9.1514 5.52841 9.09247 5.52475 9.03367 5.52175C8.6453 5.53193 8.2735 5.68125 7.98597 5.94252C7.69843 6.20378 7.51429 6.55962 7.46705 6.94524C7.29435 8.13706 8.15483 8.75293 8.40325 9.11432C8.44164 9.16035 8.46544 9.21676 8.47163 9.27637C8.46508 9.34248 8.43343 9.40356 8.3832 9.44704C8.03958 9.82986 7.79808 10.2936 7.68104 10.7945C7.56399 11.2954 7.57519 11.8177 7.71359 12.3132C7.74643 12.4322 7.78851 12.5484 7.83946 12.6608C8.46733 14.1325 10.4151 14.8178 12.318 14.1944C12.5671 14.1128 12.809 14.0104 13.0409 13.8882C13.4576 13.6816 13.8328 13.4003 14.148 13.0583C14.6381 12.5658 14.9605 11.9314 15.0697 11.2452C15.1269 10.8658 15.0431 10.7191 14.9287 10.6485C14.8479 10.6035 14.7545 10.5864 14.6629 10.5998C14.6145 10.3019 14.5295 10.0111 14.4098 9.73404C13.8664 10.1441 13.252 10.4506 12.5975 10.6381C11.8101 10.8606 10.9909 10.9495 10.174 10.901C9.64852 10.8584 9.30086 10.7045 9.1701 11.1308C9.965 11.3966 10.809 11.4827 11.6412 11.3829C11.6471 11.3823 11.653 11.3829 11.6586 11.3846C11.6642 11.3863 11.6695 11.389 11.674 11.3928C11.6786 11.3965 11.6824 11.4011 11.6852 11.4063C11.6879 11.4115 11.6897 11.4172 11.6902 11.423C11.6911 11.4329 11.6889 11.4427 11.6839 11.4513C11.679 11.4598 11.6715 11.4666 11.6625 11.4707C11.6625 11.4707 10.6864 11.9253 9.13629 11.4444ZM6.27767 4.53312C6.92327 4.07987 7.65121 3.75715 8.42058 3.58309C9.28849 3.38196 10.1906 3.37953 11.0596 3.57597C11.09 3.58296 11.1094 3.53012 11.0822 3.51485C10.6313 3.28005 10.1335 3.14918 9.6254 3.13183C9.6205 3.13174 9.61572 3.13031 9.61159 3.12768C9.60746 3.12505 9.60414 3.12133 9.60198 3.11694C9.59983 3.11254 9.59893 3.10764 9.59938 3.10276C9.59984 3.09789 9.60163 3.09323 9.60456 3.08931C9.68348 2.98571 9.77567 2.89293 9.87877 2.81335C9.88339 2.80974 9.88674 2.80476 9.88833 2.79912C9.88992 2.79348 9.88966 2.78748 9.88761 2.78199C9.88555 2.77651 9.8818 2.77182 9.87689 2.76861C9.87199 2.76541 9.86619 2.76385 9.86034 2.76417C9.23812 2.82568 8.64016 3.03744 8.11791 3.38122C8.11345 3.38424 8.10818 3.38585 8.10279 3.38584C8.0974 3.38583 8.09214 3.38419 8.08769 3.38115C8.08324 3.3781 8.07982 3.37379 8.07785 3.36877C8.07589 3.36375 8.07549 3.35826 8.07669 3.35301C8.11875 3.19535 8.18069 3.04369 8.26104 2.90167C8.2637 2.89682 8.26474 2.89123 8.26399 2.88574C8.26325 2.88025 8.26076 2.87515 8.2569 2.87118C8.25303 2.86721 8.248 2.86458 8.24253 2.86369C8.23706 2.86279 8.23145 2.86367 8.22652 2.86621C7.47123 3.2831 6.79851 3.83455 6.24152 4.49336C6.23716 4.49836 6.23479 4.50478 6.23485 4.51142C6.23492 4.51805 6.23742 4.52443 6.24189 4.52934C6.24635 4.53425 6.25246 4.53735 6.25906 4.53804C6.26566 4.53874 6.27228 4.53699 6.27767 4.53312ZM11.336 8.57872C11.3886 8.612 11.4516 8.62477 11.5129 8.61456C11.5743 8.60436 11.6298 8.57191 11.6688 8.52341C11.7172 8.42964 11.6469 8.30245 11.5116 8.23927C11.459 8.206 11.396 8.19325 11.3346 8.20348C11.2732 8.2137 11.2178 8.24618 11.1788 8.29471C11.1303 8.38842 11.2007 8.5156 11.336 8.57872ZM11.751 7.05804C11.7834 7.22688 11.8535 7.38625 11.9559 7.52435C12.0617 7.51134 12.1687 7.51134 12.2745 7.52435C12.3364 7.33902 12.3418 7.13949 12.2901 6.95108C12.2136 6.60344 12.1101 6.39304 11.8963 6.42575C11.6825 6.45852 11.6746 6.7104 11.751 7.05804ZM12.2059 7.85662C12.152 7.84115 12.0946 7.84296 12.0417 7.8618C11.9889 7.88064 11.9433 7.91557 11.9113 7.96167C11.8793 8.00778 11.8626 8.06274 11.8634 8.11884C11.8643 8.17494 11.8827 8.22936 11.9161 8.27445C11.9495 8.31954 11.9962 8.35304 12.0496 8.37024C12.103 8.38743 12.1605 8.38746 12.2139 8.37032C12.2673 8.35318 12.314 8.31974 12.3475 8.27468C12.3809 8.22963 12.3994 8.17523 12.4003 8.11913C12.4081 8.05874 12.3922 7.99769 12.3559 7.94877C12.3197 7.89984 12.266 7.86682 12.2059 7.85662Z" fill="#FF00FF"/>
<path d="M8.65553 7.82557C8.62141 7.82077 8.60688 7.80618 8.60259 7.78685C8.58934 7.72687 8.68158 7.62816 8.77881 7.55692C8.92071 7.45318 9.08692 7.38768 9.26145 7.36673C9.43597 7.34578 9.61296 7.37008 9.77538 7.43729C9.92715 7.49989 10.0576 7.60492 10.1512 7.7398C10.186 7.79651 10.1927 7.84049 10.1703 7.86353C10.1352 7.90046 10.0459 7.85815 9.90058 7.7944C9.72596 7.70872 9.53299 7.66716 9.33858 7.67336C9.10822 7.71125 8.88018 7.76207 8.65553 7.82557ZM10.1044 8.12386C10.0416 8.05783 9.96338 8.00841 9.87678 7.98002C9.79018 7.95164 9.6979 7.94517 9.60819 7.96121C9.47589 7.97527 9.35055 8.02752 9.24743 8.11157C9.19937 8.14606 9.16634 8.19764 9.15512 8.25572C9.15486 8.26218 9.15602 8.26861 9.15852 8.27458C9.16102 8.28054 9.1648 8.28588 9.16959 8.29022C9.17811 8.29796 9.18925 8.30219 9.20076 8.30206C9.24836 8.29508 9.29489 8.28218 9.33928 8.26365C9.53363 8.19041 9.7436 8.16861 9.94885 8.20035C10.044 8.21104 10.0889 8.21699 10.1098 8.18435C10.1151 8.17491 10.1175 8.16407 10.1165 8.15326C10.1156 8.14246 10.1113 8.1322 10.1044 8.12386Z" fill="#FF00FF"/>
</g>
<defs>
<clipPath id="clip0_1447_1765">
<rect width="16" height="16" fill="white"/>
</clipPath>
</defs>
</svg>
