<svg width="20" height="20" viewBox="0 0 20 20" fill="none" xmlns="http://www.w3.org/2000/svg">
<path d="M5.6323 13.441C5.64415 13.4554 5.65138 13.473 5.65303 13.4915C5.65469 13.5101 5.65069 13.5287 5.64157 13.5449C5.59722 13.6169 5.53365 13.675 5.45801 13.7128C5.38238 13.7506 5.2977 13.7665 5.21351 13.7587C5.06348 13.7426 4.92517 13.67 4.82655 13.5558C4.72793 13.4416 4.67635 13.2942 4.68223 13.1434C4.67969 12.9379 4.7172 12.7339 4.79269 12.5428C4.84033 12.423 4.8453 12.2905 4.80676 12.1675C4.76822 12.0445 4.68852 11.9385 4.58105 11.8673C4.51745 11.8252 4.44606 11.7963 4.37109 11.7823C4.29613 11.7682 4.21911 11.7694 4.14459 11.7856C4.07157 11.801 4.00237 11.8308 3.94105 11.8733C3.87972 11.9158 3.82751 11.9701 3.7875 12.0331C3.73089 12.13 3.68688 12.2337 3.65652 12.3418C3.65067 12.3608 3.64594 12.3757 3.64236 12.3854C3.59263 12.5195 3.51335 12.5586 3.45963 12.5514C3.43423 12.5479 3.39931 12.5309 3.37692 12.4695C3.34883 12.2921 3.36158 12.1105 3.4142 11.9387C3.46683 11.7668 3.55794 11.6093 3.68062 11.478C3.78365 11.3673 3.91153 11.2828 4.05369 11.2314C4.19586 11.18 4.34822 11.1632 4.49818 11.1823C4.65704 11.2042 4.80801 11.265 4.93756 11.3595C5.06711 11.454 5.17121 11.5792 5.24053 11.7238C5.31072 11.9015 5.33905 12.093 5.32331 12.2834C5.30757 12.4739 5.24819 12.6581 5.14977 12.8219C5.13731 12.8498 5.12592 12.8753 5.11631 12.8984C5.08092 12.9624 5.06148 13.034 5.05966 13.107C5.05783 13.1801 5.07366 13.2526 5.10581 13.3182C5.13299 13.3574 5.16946 13.3892 5.21195 13.4108C5.25444 13.4324 5.30162 13.4431 5.34927 13.442C5.39419 13.4414 5.43885 13.4351 5.48219 13.4232C5.5386 13.41 5.59688 13.3965 5.63229 13.441L5.6323 13.441ZM19.5373 13.7882C19.5058 14.4357 19.369 15.0737 19.1323 15.6772C17.9514 18.5155 15.1334 20.0955 11.7763 19.9955C8.6467 19.9023 5.9775 18.2458 4.80928 15.5455C4.0718 15.5249 3.36627 15.24 2.82131 14.7426C2.25835 14.2627 1.89665 13.5885 1.80814 12.854C1.75102 12.3487 1.81351 11.8371 1.99057 11.3604L1.3345 10.8029C-1.66745 8.2605 7.72184 -2.20771 10.7249 0.419634C10.7401 0.43286 11.7465 1.42339 11.749 1.42583C11.753 1.42379 12.3043 1.1893 12.3071 1.18816C14.941 0.0941158 17.0784 0.62236 17.0811 2.36794C17.0825 3.27575 16.5057 4.33387 15.582 5.29435C15.9512 5.67011 16.2126 6.13821 16.3388 6.64965C16.4406 7.00646 16.4957 7.37499 16.5026 7.74598C16.5186 8.11592 16.5364 8.97777 16.5381 8.99311C16.5616 9.00022 16.8282 9.07362 16.9091 9.09639C17.4465 9.21427 17.9466 9.46271 18.3651 9.81977C18.5861 10.0358 18.7308 10.3178 18.7774 10.6233C18.8343 11.0197 18.7354 11.4227 18.5015 11.7477C18.5623 11.8865 18.6152 12.0288 18.6597 12.1737C18.7374 12.4237 18.794 12.6311 18.8027 12.6619C19.0885 12.6619 19.5373 12.9919 19.5373 13.7882L19.5373 13.7882ZM6.27094 12.2307C6.0668 10.9054 5.17297 10.4383 4.56647 10.405C4.41424 10.3969 4.26158 10.4078 4.11203 10.4374C3.02952 10.6565 2.41815 11.5801 2.53845 12.7803C2.62606 13.3186 2.89265 13.8117 3.29512 14.1798C3.6976 14.548 4.21244 14.7696 4.75646 14.809C4.86057 14.8118 4.9647 14.8045 5.0674 14.7871C6.16455 14.5994 6.45181 13.4045 6.27094 12.2307ZM8.12119 3.81746C9.03817 3.0636 10.0163 2.38741 11.0456 1.79592C11.0456 1.79592 10.2283 0.845487 9.98154 0.775444C8.46363 0.363869 5.18461 2.63213 3.09106 5.62884C2.24395 6.84135 1.03129 8.98861 1.61109 10.0929C1.81706 10.3408 2.04941 10.5655 2.30403 10.7631C2.69166 10.2167 3.27655 9.84245 3.93507 9.71942C4.75894 7.40343 6.20781 5.36069 8.12119 3.81746ZM11.4202 14.3055C11.4605 14.4817 11.5475 14.6437 11.6722 14.7744C11.7969 14.9052 11.9546 14.9998 12.1286 15.0483C12.3097 15.1158 12.4965 15.1667 12.6867 15.2003C15.0878 15.6146 17.3325 14.2376 17.8379 13.8908C17.8759 13.8647 17.9009 13.8901 17.8705 13.9361C17.8553 13.9605 17.8387 13.9842 17.821 14.0069C17.2024 14.8071 15.5396 15.7339 13.3761 15.7336C12.4325 15.7334 11.4895 15.4 11.1432 14.8876C10.606 14.0927 11.1166 12.9323 12.0117 13.0532C12.0128 13.0534 12.318 13.0881 12.4038 13.0976C13.7953 13.2315 15.1979 13.0063 16.4776 12.4438C17.6989 11.8751 18.1602 11.2493 18.091 10.7427C18.0679 10.5854 17.9939 10.4399 17.8805 10.3285C17.5465 10.0536 17.1499 9.86519 16.7258 9.77993C16.5319 9.72532 16.4002 9.69045 16.2584 9.64359C16.0064 9.56031 15.8817 9.49328 15.8535 9.01778C15.8412 8.80983 15.8051 8.08539 15.792 7.78599C15.7689 7.26142 15.7061 6.54441 15.2625 6.24837C15.1495 6.17404 15.0184 6.132 14.8833 6.1268C14.8076 6.12219 14.7316 6.12966 14.6582 6.14892C14.4335 6.20092 14.2287 6.31704 14.0687 6.48318C13.8614 6.67056 13.6176 6.81308 13.3526 6.9018C13.0876 6.99053 12.8071 7.02354 12.5288 6.99877C12.2184 6.98579 11.8895 6.93729 11.5125 6.91484C11.4391 6.91051 11.3655 6.90594 11.292 6.90218C10.8065 6.91492 10.3418 7.10157 9.98234 7.42815C9.62292 7.75473 9.39274 8.19952 9.33369 8.68155C9.11782 10.1713 10.1934 10.9412 10.5039 11.3929C10.5519 11.4504 10.5817 11.521 10.5894 11.5955C10.5812 11.6781 10.5417 11.7545 10.4789 11.8088V11.8093C10.0494 12.2878 9.74748 12.8669 9.60117 13.4931C9.45487 14.1192 9.46886 14.7722 9.64186 15.3915C9.68291 15.5402 9.73552 15.6855 9.7992 15.826C10.584 17.6656 13.0187 18.5222 15.3973 17.743C15.7088 17.641 16.0111 17.513 16.301 17.3603C16.8219 17.1021 17.2909 16.7504 17.6849 16.3229C18.2974 15.7072 18.7006 14.9142 18.837 14.0565C18.9086 13.5823 18.8037 13.3989 18.6608 13.3107C18.5598 13.2544 18.443 13.2329 18.3285 13.2498C18.268 12.8774 18.1617 12.5139 18.0122 12.1676C17.3328 12.6802 16.5649 13.0633 15.7468 13.2977C14.7625 13.5758 13.7385 13.6869 12.7174 13.6262C12.0605 13.573 11.6259 13.3806 11.4625 13.9135C12.4561 14.2458 13.5111 14.3534 14.5514 14.2286C14.5587 14.2279 14.5661 14.2286 14.5731 14.2307C14.5802 14.2328 14.5867 14.2363 14.5924 14.241C14.5981 14.2456 14.6028 14.2514 14.6063 14.2578C14.6098 14.2643 14.6119 14.2714 14.6127 14.2788C14.6138 14.2911 14.611 14.3034 14.6048 14.3141C14.5986 14.3248 14.5892 14.3332 14.578 14.3384C14.578 14.3384 13.3579 14.9066 11.4202 14.3055ZM7.84696 5.6664C8.65396 5.09984 9.56389 4.69644 10.5256 4.47887C11.6105 4.22745 12.7382 4.22441 13.8244 4.46997C13.8624 4.4787 13.8867 4.41265 13.8527 4.39356C13.289 4.10006 12.6668 3.93647 12.0316 3.91479C12.0255 3.91468 12.0195 3.91288 12.0144 3.9096C12.0092 3.90631 12.005 3.90167 12.0024 3.89617C11.9997 3.89068 11.9985 3.88454 11.9991 3.87845C11.9997 3.87236 12.0019 3.86654 12.0056 3.86164C12.1042 3.73214 12.2195 3.61616 12.3483 3.51669C12.3541 3.51218 12.3583 3.50595 12.3603 3.4989C12.3623 3.49185 12.362 3.48435 12.3594 3.47749C12.3568 3.47063 12.3521 3.46477 12.346 3.46077C12.3399 3.45676 12.3326 3.45481 12.3253 3.45521C11.5475 3.5321 10.8001 3.7968 10.1473 4.22653C10.1417 4.23031 10.1351 4.23232 10.1284 4.2323C10.1216 4.23228 10.1151 4.23024 10.1095 4.22643C10.1039 4.22263 10.0996 4.21724 10.0972 4.21097C10.0947 4.20469 10.0942 4.19782 10.0957 4.19126C10.1483 3.99419 10.2257 3.80461 10.3262 3.62709C10.3295 3.62102 10.3308 3.61404 10.3299 3.60718C10.3289 3.60032 10.3258 3.59393 10.321 3.58897C10.3162 3.58401 10.3099 3.58072 10.303 3.57961C10.2962 3.57849 10.2892 3.57959 10.283 3.58276C9.33892 4.10388 8.49802 4.79319 7.80178 5.6167C7.79633 5.62295 7.79336 5.63098 7.79344 5.63927C7.79353 5.64756 7.79666 5.65554 7.80224 5.66167C7.80781 5.66781 7.81545 5.67168 7.8237 5.67255C7.83195 5.67342 7.84023 5.67123 7.84696 5.6664ZM14.1699 10.7234C14.2356 10.765 14.3143 10.781 14.3911 10.7682C14.4678 10.7555 14.5371 10.7149 14.5859 10.6543C14.6464 10.537 14.5585 10.3781 14.3894 10.2991C14.3236 10.2575 14.2449 10.2416 14.1682 10.2543C14.0914 10.2671 14.0221 10.3077 13.9734 10.3684C13.9127 10.4855 14.0008 10.6445 14.1699 10.7234ZM14.6886 8.82255C14.7292 9.03359 14.8167 9.23281 14.9447 9.40543C15.077 9.38917 15.2108 9.38917 15.343 9.40543C15.4204 9.17377 15.4271 8.92436 15.3625 8.68884C15.2669 8.2543 15.1375 7.9913 14.8702 8.03218C14.603 8.07315 14.5931 8.388 14.6886 8.82255ZM15.2573 9.82078C15.1899 9.80143 15.1181 9.8037 15.052 9.82725C14.986 9.8508 14.9289 9.89446 14.889 9.95209C14.849 10.0097 14.8281 10.0784 14.8292 10.1486C14.8303 10.2187 14.8533 10.2867 14.895 10.3431C14.9368 10.3994 14.9951 10.4413 15.0619 10.4628C15.1286 10.4843 15.2005 10.4843 15.2672 10.4629C15.334 10.4415 15.3924 10.3997 15.4342 10.3434C15.476 10.287 15.4991 10.219 15.5003 10.1489C15.51 10.0734 15.4901 9.99712 15.4448 9.93596C15.3995 9.8748 15.3323 9.83352 15.2573 9.82078Z" fill="#FF00FF"/>
<path d="M10.8192 9.78196C10.7766 9.77596 10.7584 9.75772 10.7531 9.73356C10.7365 9.65859 10.8518 9.53521 10.9733 9.44615C11.1507 9.31647 11.3585 9.2346 11.5766 9.20841C11.7948 9.18222 12.016 9.21259 12.219 9.29661C12.4087 9.37486 12.5719 9.50615 12.6889 9.67475C12.7323 9.74564 12.7407 9.80061 12.7126 9.82941C12.6689 9.87558 12.5573 9.82269 12.3755 9.743C12.1573 9.6359 11.9161 9.58394 11.673 9.59169C11.3851 9.63907 11.1 9.70259 10.8192 9.78196ZM12.6303 10.1548C12.5518 10.0723 12.454 10.0105 12.3458 9.97503C12.2375 9.93955 12.1222 9.93147 12.01 9.95151C11.8447 9.96909 11.688 10.0344 11.5591 10.1395C11.499 10.1826 11.4577 10.247 11.4437 10.3196C11.4434 10.3277 11.4448 10.3358 11.448 10.3432C11.4511 10.3507 11.4558 10.3573 11.4618 10.3628C11.4725 10.3724 11.4864 10.3777 11.5008 10.3776C11.5603 10.3688 11.6184 10.3527 11.6739 10.3296C11.9169 10.238 12.1793 10.2108 12.4359 10.2504C12.5548 10.2638 12.6109 10.2712 12.637 10.2304C12.6437 10.2186 12.6467 10.2051 12.6455 10.1916C12.6443 10.1781 12.639 10.1652 12.6303 10.1548Z" fill="#FF00FF"/>
</svg>
