<svg width="16" height="16" viewBox="0 0 16 16" fill="none" xmlns="http://www.w3.org/2000/svg">
<g clip-path="url(#clip0_1447_2931)">
<path d="M15.1377 9.83237C15.3521 10.1091 15.4624 10.4523 15.4493 10.8021C15.4268 11.3477 15.3127 11.8857 15.1118 12.3935L15.1071 12.4054C14.6529 13.4975 13.86 14.4148 12.8451 15.0222C11.7889 15.6366 10.5854 15.9522 9.36353 15.9351C9.28446 15.9351 9.20389 15.9339 9.12449 15.9316C7.91859 15.9064 6.7414 15.5589 5.71511 14.9252C4.81174 14.3591 4.08069 13.5563 3.60131 12.6041C3.04903 12.5183 2.53343 12.2744 2.11684 11.9018C1.5989 11.4593 1.26711 10.8375 1.18783 10.1609C1.15251 9.83221 1.17156 9.49989 1.24424 9.17734L1.01718 8.98534C0.833396 8.82661 0.684038 8.63194 0.578303 8.41332C0.472569 8.1947 0.412696 7.95675 0.402369 7.71412C0.38374 7.21048 0.470782 6.70852 0.657892 6.24056C1.12399 4.96804 2.19623 3.45279 3.52634 2.18716C4.1199 1.61118 4.77834 1.10607 5.48844 0.681993C6.0807 0.303185 6.76091 0.0840957 7.46292 0.0460314C7.91569 0.0342226 8.35669 0.191108 8.70027 0.486218C8.71988 0.503326 9.01383 0.790811 9.23678 1.00921C9.29273 0.985602 9.33298 0.968618 9.33416 0.968171C9.99374 0.68087 10.7026 0.523565 11.4218 0.504885C12.7543 0.504885 13.6165 1.21949 13.6182 2.32544C13.6192 3.00784 13.2842 3.77285 12.6665 4.51341C12.8345 4.77324 12.9617 5.05736 13.0434 5.35581C13.1312 5.66134 13.1792 5.97688 13.1864 6.29467C13.1924 6.43139 13.1985 6.65077 13.2034 6.8444C13.6591 6.95974 14.0803 7.18338 14.431 7.4963C14.6688 7.73224 14.8248 8.03816 14.876 8.36921C14.9275 8.69598 14.877 9.03069 14.7314 9.32773C14.7444 9.36493 14.7579 9.40532 14.7713 9.44812C14.783 9.48545 14.794 9.52142 14.8043 9.55556C14.9325 9.625 15.0458 9.71906 15.1377 9.83237Z" fill="white"/>
<path d="M4.60522 10.5495C4.614 10.5602 4.61935 10.5732 4.62058 10.5869C4.62181 10.6007 4.61885 10.6144 4.61209 10.6265C4.57925 10.6798 4.53216 10.7228 4.47614 10.7508C4.42013 10.7788 4.35741 10.7906 4.29506 10.7848C4.18394 10.7729 4.08151 10.7191 4.00847 10.6346C3.93543 10.55 3.89722 10.4408 3.90157 10.3291C3.89969 10.1769 3.92748 10.0258 3.98338 9.88425C4.01867 9.79555 4.02235 9.6974 3.99381 9.6063C3.96527 9.5152 3.90624 9.43671 3.82664 9.384C3.77953 9.35283 3.72666 9.33141 3.67114 9.32101C3.61562 9.31062 3.55858 9.31145 3.50338 9.32347C3.44931 9.33484 3.39805 9.35692 3.35263 9.38839C3.30722 9.41987 3.26855 9.46011 3.23891 9.50675C3.19699 9.57852 3.16439 9.65535 3.14191 9.73538C3.13757 9.74947 3.13407 9.76053 3.13142 9.76768C3.09459 9.86702 3.03587 9.89599 2.99608 9.89067C2.97727 9.88807 2.95141 9.87549 2.93483 9.83002C2.91402 9.69856 2.92347 9.56409 2.96244 9.43683C3.00142 9.30958 3.0689 9.19288 3.15976 9.09562C3.23606 9.01369 3.33077 8.95109 3.43607 8.91302C3.54136 8.87494 3.6542 8.86248 3.76526 8.87666C3.88292 8.89283 3.99473 8.93793 4.09068 9.00792C4.18663 9.0779 4.26373 9.1706 4.31507 9.27769C4.36706 9.40932 4.38804 9.55115 4.37638 9.69219C4.36472 9.83323 4.32074 9.96969 4.24785 10.091C4.23862 10.1116 4.23018 10.1305 4.22307 10.1477C4.19686 10.195 4.18246 10.248 4.18111 10.3022C4.17976 10.3563 4.19148 10.41 4.21529 10.4586C4.23542 10.4876 4.26243 10.5111 4.2939 10.5271C4.32537 10.5431 4.36031 10.5511 4.3956 10.5503C4.42888 10.5498 4.46195 10.5451 4.49405 10.5363C4.53583 10.5266 4.57899 10.5165 4.60522 10.5495L4.60522 10.5495ZM14.9037 10.8066C14.8803 11.2862 14.779 11.7587 14.6037 12.2057C13.7291 14.3078 11.642 15.478 9.15562 15.404C6.83777 15.3349 4.86089 14.1081 3.99568 12.1082C3.44947 12.0929 2.92694 11.8819 2.52333 11.5135C2.10638 11.1581 1.8385 10.6587 1.77295 10.1148C1.73064 9.74054 1.77692 9.36161 1.90806 9.00856L1.42215 8.59568C-0.801172 6.71268 6.1528 -1.04036 8.37698 0.905519C8.38819 0.915314 9.13356 1.64893 9.13543 1.65073C9.13839 1.64922 9.54669 1.47556 9.54876 1.47471C11.4995 0.664431 13.0825 1.05566 13.0845 2.34849C13.0855 3.02084 12.6584 3.80451 11.9742 4.51587C12.2477 4.79417 12.4413 5.14086 12.5348 5.51964C12.6102 5.7839 12.651 6.05685 12.656 6.33162C12.6679 6.6056 12.6811 7.24391 12.6824 7.25528C12.6998 7.26053 12.8973 7.3149 12.9571 7.33177C13.3551 7.41907 13.7255 7.60307 14.0355 7.86752C14.1991 8.02752 14.3063 8.23641 14.3408 8.46265C14.383 8.75621 14.3098 9.05469 14.1365 9.29537C14.1816 9.3982 14.2207 9.50355 14.2537 9.61089C14.3112 9.79605 14.3531 9.9497 14.3596 9.97249C14.5712 9.97249 14.9037 10.2169 14.9037 10.8067L14.9037 10.8066ZM5.07822 9.65315C4.92702 8.67157 4.26503 8.32563 3.81584 8.30095C3.70309 8.29497 3.59003 8.30303 3.47927 8.32495C2.67754 8.48719 2.22473 9.17127 2.31383 10.0602C2.37872 10.4589 2.57616 10.8241 2.87425 11.0967C3.17233 11.3694 3.55364 11.5335 3.95655 11.5627C4.03366 11.5647 4.11078 11.5593 4.18684 11.5465C4.99943 11.4075 5.21217 10.5224 5.07822 9.65315ZM6.44857 3.42204C7.1277 2.86371 7.85216 2.36291 8.61443 1.92484C8.61443 1.92484 8.00918 1.22092 7.82639 1.16904C6.70219 0.864218 4.27365 2.54415 2.72311 4.7636C2.09572 5.66162 1.19759 7.25194 1.627 8.06984C1.77955 8.25342 1.95164 8.41984 2.14021 8.56617C2.4273 8.1615 2.86049 7.88432 3.34821 7.7932C3.95839 6.07791 5.03146 4.565 6.44857 3.42204ZM8.89193 11.1898C8.92173 11.3202 8.9862 11.4402 9.07856 11.5371C9.17091 11.6339 9.2877 11.704 9.4166 11.7399C9.55068 11.7899 9.68903 11.8276 9.82993 11.8525C11.6082 12.1593 13.2707 11.1395 13.645 10.8826C13.6731 10.8633 13.6917 10.8821 13.6692 10.9162C13.6579 10.9343 13.6457 10.9518 13.6325 10.9686C13.1744 11.5613 11.9428 12.2477 10.3405 12.2474C9.64167 12.2473 8.9432 12.0004 8.68675 11.6209C8.28887 11.0321 8.66704 10.1728 9.33001 10.2623C9.33079 10.2624 9.55686 10.2881 9.62041 10.2952C10.651 10.3943 11.6898 10.2276 12.6375 9.81091C13.5421 9.38975 13.8838 8.92626 13.8325 8.55106C13.8154 8.43454 13.7606 8.32681 13.6765 8.24431C13.4292 8.0407 13.1355 7.90116 12.8214 7.83802C12.6777 7.79756 12.5803 7.77174 12.4752 7.73704C12.2885 7.67536 12.1962 7.62571 12.1753 7.27354C12.1662 7.11953 12.1394 6.58299 12.1297 6.36125C12.1127 5.97274 12.0661 5.4417 11.7376 5.22244C11.6539 5.16739 11.5568 5.13626 11.4568 5.1324C11.4007 5.12899 11.3444 5.13452 11.29 5.14879C11.1236 5.1873 10.9719 5.2733 10.8534 5.39635C10.6999 5.53513 10.5193 5.64068 10.3231 5.70639C10.1268 5.7721 9.91911 5.79655 9.71296 5.77821C9.48309 5.76859 9.23948 5.73267 8.96024 5.71605C8.90592 5.71284 8.85136 5.70946 8.79693 5.70667C8.43738 5.71611 8.09318 5.85434 7.82698 6.09622C7.56079 6.33809 7.39031 6.66752 7.34658 7.02452C7.1867 8.12789 7.98332 8.69805 8.2133 9.03262C8.24883 9.07523 8.27087 9.12746 8.2766 9.18265C8.27053 9.24385 8.24123 9.3004 8.19473 9.34065V9.34101C7.87662 9.69542 7.65304 10.1243 7.54468 10.5881C7.43632 11.0518 7.44669 11.5354 7.57482 11.9941C7.60522 12.1042 7.64418 12.2118 7.69135 12.3159C8.27262 13.6784 10.0758 14.3128 11.8375 13.7357C12.0681 13.6602 12.292 13.5653 12.5068 13.4522C12.8925 13.261 13.2399 13.0006 13.5317 12.6839C13.9854 12.2279 14.2839 11.6406 14.385 11.0054C14.438 10.6542 14.3604 10.5183 14.2545 10.453C14.1797 10.4113 14.0932 10.3954 14.0084 10.4079C13.9636 10.1321 13.8848 9.86287 13.7741 9.60635C13.271 9.986 12.7022 10.2697 12.0963 10.4434C11.3673 10.6493 10.6089 10.7316 9.85265 10.6867C9.36615 10.6473 9.04429 10.5048 8.92323 10.8994C9.65914 11.1455 10.4405 11.2252 11.2109 11.1328C11.2164 11.1323 11.2218 11.1328 11.2271 11.1344C11.2323 11.1359 11.2371 11.1385 11.2413 11.142C11.2456 11.1454 11.2491 11.1497 11.2516 11.1545C11.2542 11.1593 11.2558 11.1645 11.2563 11.17C11.2571 11.1791 11.2551 11.1882 11.2505 11.1961C11.2459 11.204 11.239 11.2103 11.2307 11.2141C11.2307 11.2141 10.327 11.635 8.89193 11.1898ZM6.24547 4.79142C6.84315 4.37181 7.51707 4.07304 8.22934 3.9119C9.03284 3.72569 9.86803 3.72344 10.6725 3.90531C10.7007 3.91178 10.7186 3.86286 10.6934 3.84872C10.276 3.63135 9.81514 3.51019 9.34474 3.49413C9.34021 3.49404 9.33579 3.49271 9.33196 3.49028C9.32814 3.48785 9.32506 3.48441 9.32306 3.48034C9.32107 3.47627 9.32024 3.47173 9.32066 3.46721C9.32108 3.4627 9.32274 3.45839 9.32545 3.45476C9.39851 3.35885 9.48387 3.27296 9.57931 3.19928C9.58358 3.19594 9.58668 3.19133 9.58816 3.18611C9.58963 3.18089 9.5894 3.17533 9.58749 3.17025C9.58559 3.16517 9.58212 3.16083 9.57757 3.15787C9.57303 3.1549 9.56766 3.15346 9.56225 3.15375C8.98621 3.2107 8.43263 3.40674 7.94913 3.72501C7.945 3.72781 7.94012 3.7293 7.93513 3.72928C7.93014 3.72927 7.92527 3.72776 7.92116 3.72494C7.91704 3.72212 7.91387 3.71813 7.91205 3.71348C7.91023 3.70884 7.90986 3.70375 7.91097 3.69889C7.94991 3.55293 8.00726 3.41253 8.08164 3.28105C8.0841 3.27655 8.08506 3.27138 8.08437 3.2663C8.08368 3.26122 8.08138 3.25649 8.0778 3.25282C8.07423 3.24914 8.06956 3.24671 8.0645 3.24588C8.05944 3.24505 8.05425 3.24587 8.04969 3.24821C7.35045 3.63417 6.72765 4.14469 6.212 4.75461C6.20796 4.75924 6.20577 4.76519 6.20583 4.77133C6.20589 4.77747 6.20821 4.78337 6.21234 4.78792C6.21647 4.79246 6.22213 4.79533 6.22824 4.79598C6.23434 4.79662 6.24048 4.795 6.24547 4.79142ZM10.9284 8.53677C10.9771 8.56759 11.0354 8.5794 11.0922 8.56996C11.149 8.56051 11.2004 8.53047 11.2365 8.48557C11.2813 8.39875 11.2162 8.28101 11.091 8.22252C11.0423 8.19171 10.9839 8.17991 10.9271 8.18938C10.8703 8.19884 10.8189 8.22891 10.7829 8.27384C10.738 8.36059 10.8031 8.47834 10.9284 8.53677ZM11.3126 7.12895C11.3426 7.28526 11.4075 7.4328 11.5023 7.56065C11.6002 7.54861 11.6993 7.54861 11.7973 7.56065C11.8545 7.38908 11.8596 7.20435 11.8117 7.02992C11.7409 6.70809 11.6451 6.5133 11.4471 6.54358C11.2491 6.57392 11.2418 6.80711 11.3126 7.12895ZM11.7338 7.86827C11.6838 7.85394 11.6307 7.85562 11.5817 7.87306C11.5328 7.8905 11.4906 7.92284 11.461 7.96552C11.4314 8.0082 11.4159 8.05909 11.4167 8.11102C11.4175 8.16296 11.4346 8.21334 11.4655 8.25509C11.4964 8.29683 11.5396 8.32784 11.589 8.34376C11.6385 8.35968 11.6917 8.35971 11.7411 8.34384C11.7906 8.32797 11.8338 8.29701 11.8648 8.2553C11.8958 8.21359 11.9129 8.16322 11.9137 8.11129C11.9209 8.05538 11.9062 7.99887 11.8726 7.95357C11.8391 7.90827 11.7893 7.87771 11.7338 7.86827Z" fill="black"/>
<path d="M8.44667 7.83951C8.41509 7.83507 8.40163 7.82156 8.39766 7.80366C8.3854 7.74813 8.47079 7.65676 8.5608 7.5908C8.69217 7.49475 8.84604 7.43412 9.00762 7.41472C9.16919 7.39533 9.33304 7.41782 9.48341 7.48004C9.62391 7.538 9.74473 7.63524 9.83138 7.7601C9.86356 7.81261 9.86978 7.85332 9.84898 7.87465C9.81657 7.90884 9.7339 7.86967 9.59932 7.81065C9.43766 7.73133 9.25901 7.69285 9.07903 7.69859C8.86577 7.73368 8.65465 7.78072 8.44667 7.83951ZM9.788 8.11566C9.72986 8.05453 9.65745 8.00878 9.57728 7.9825C9.49711 7.95622 9.41168 7.95024 9.32863 7.96508C9.20615 7.9781 9.09011 8.02647 8.99464 8.10428C8.95015 8.13621 8.91957 8.18396 8.90919 8.23773C8.90895 8.24371 8.91002 8.24967 8.91234 8.25519C8.91465 8.26071 8.91815 8.26565 8.92258 8.26967C8.93047 8.27684 8.94078 8.28076 8.95144 8.28064C8.9955 8.27417 9.03858 8.26223 9.07968 8.24508C9.2596 8.17728 9.45399 8.15709 9.644 8.18647C9.73206 8.19637 9.77366 8.20188 9.79298 8.17166C9.79794 8.16292 9.80012 8.15289 9.79923 8.14288C9.79834 8.13288 9.79442 8.12338 9.788 8.11566Z" fill="black"/>
</g>
<defs>
<clipPath id="clip0_1447_2931">
<rect width="16" height="16" fill="white"/>
</clipPath>
</defs>
</svg>
