<svg width="20" height="20" viewBox="0 0 20 20" fill="none" xmlns="http://www.w3.org/2000/svg">
<path d="M7.67666 15.1385C7.90675 17.7512 10.8211 16.9833 10.5911 15.523C10.2843 12.987 11.9716 4.99538 13.7355 4.99538C14.9627 4.99538 12.355 10.4509 12.8919 13.986C13.2754 16.291 16.3432 15.523 15.9597 14.1394C14.9627 9.60524 18.1838 5.22547 17.8004 2.07485C17.647 0.76797 16.8033 0 15.9597 0C13.0453 0 10.8211 5.84005 10.8211 5.84005C10.8211 5.84005 11.0512 2.53604 8.75039 2.38163C5.37582 2.15154 1.92456 10.6043 2.00126 18.2881C2.07795 20.7474 5.14574 20.363 4.91565 18.3648C4.68557 14.753 6.67963 6.60699 8.36691 6.60699C9.51734 6.60904 7.44658 12.5258 7.67666 15.1385Z" fill="#FF00FF"/>
</svg>
