<svg width="16" height="16" viewBox="0 0 16 16" fill="none" xmlns="http://www.w3.org/2000/svg">
<g clip-path="url(#clip0_1447_1819)">
<path d="M6.14143 12.1108C6.32549 14.201 8.65701 13.5866 8.47295 12.4184C8.22752 10.3896 9.57735 3.9963 10.9885 3.9963C11.9702 3.9963 9.88413 8.36074 10.3136 11.1888C10.6204 13.0328 13.0746 12.4184 12.7678 11.3115C11.9702 7.6842 14.5472 4.18037 14.2404 1.65988C14.1177 0.614376 13.4428 0 12.7678 0C10.4363 0 8.65701 4.67204 8.65701 4.67204C8.65701 4.67204 8.84108 2.02883 7.00041 1.9053C4.30075 1.72123 1.53975 8.48346 1.6011 14.6305C1.66246 16.598 4.11669 16.2904 3.93262 14.6918C3.74855 11.8024 5.3438 5.28559 6.69363 5.28559C7.61397 5.28723 5.95736 10.0206 6.14143 12.1108Z" fill="#FF00FF"/>
</g>
<defs>
<clipPath id="clip0_1447_1819">
<rect width="16" height="16" fill="white"/>
</clipPath>
</defs>
</svg>
