<svg width="16" height="16" viewBox="0 0 16 16" fill="none" xmlns="http://www.w3.org/2000/svg">
<g clip-path="url(#clip0_2179_3753)">
<path d="M10.1614 4.1134H5.83423V11.8895H10.1614V4.1134Z" fill="#FF5F00"/>
<path d="M6.11259 8.00137C6.11191 7.25248 6.28161 6.51325 6.60886 5.83964C6.9361 5.16604 7.41231 4.57571 8.00143 4.11335C7.27189 3.53991 6.39573 3.1833 5.4731 3.08427C4.55047 2.98525 3.61859 3.1478 2.78397 3.55335C1.94936 3.9589 1.24569 4.5911 0.753379 5.37767C0.261074 6.16423 0 7.07344 0 8.00137C0 8.9293 0.261074 9.83851 0.753379 10.6251C1.24569 11.4117 1.94936 12.0438 2.78397 12.4494C3.61859 12.855 4.55047 13.0175 5.4731 12.9185C6.39573 12.8194 7.27189 12.4628 8.00143 11.8894C7.41231 11.427 6.93611 10.8367 6.60886 10.1631C6.28162 9.48949 6.11192 8.75026 6.11259 8.00137V8.00137Z" fill="#EB001B"/>
<path d="M16 8.00138C16 8.92929 15.739 9.8385 15.2467 10.6251C14.7544 11.4116 14.0507 12.0438 13.2161 12.4494C12.3815 12.855 11.4497 13.0175 10.5271 12.9185C9.60444 12.8195 8.7283 12.4628 7.99878 11.8894C8.58738 11.4266 9.06321 10.8362 9.3904 10.1627C9.71759 9.48915 9.8876 8.75015 9.8876 8.00138C9.8876 7.25261 9.71759 6.51361 9.3904 5.8401C9.06321 5.1666 8.58738 4.57618 7.99878 4.11335C8.7283 3.53991 9.60444 3.1833 10.5271 3.08427C11.4497 2.98525 12.3815 3.1478 13.2161 3.55336C14.0507 3.95892 14.7544 4.59112 15.2467 5.37769C15.739 6.16425 16 7.07346 16 8.00138V8.00138Z" fill="#F79E1B"/>
</g>
<defs>
<clipPath id="clip0_2179_3753">
<rect width="16" height="16" fill="white"/>
</clipPath>
</defs>
</svg>
