<svg width="20" height="20" viewBox="0 0 20 20" fill="none" xmlns="http://www.w3.org/2000/svg">
<g clip-path="url(#clip0)">
<path d="M12.7017 5.14178H7.29272V14.8619H12.7017V5.14178Z" fill="#FF5F00"/>
<path d="M7.64074 10.0017C7.63989 9.06557 7.85202 8.14154 8.26107 7.29952C8.67013 6.45751 9.26539 5.7196 10.0018 5.14165C9.08986 4.42486 7.99466 3.9791 6.84137 3.85531C5.68808 3.73153 4.52324 3.93472 3.47997 4.44166C2.4367 4.9486 1.55711 5.73884 0.941724 6.72205C0.326342 7.70526 0 8.84177 0 10.0017C0 11.1616 0.326342 12.2981 0.941724 13.2813C1.55711 14.2645 2.4367 15.0548 3.47997 15.5617C4.52324 16.0687 5.68808 16.2718 6.84137 16.1481C7.99466 16.0243 9.08986 15.5785 10.0018 14.8617C9.26539 14.2838 8.67013 13.5459 8.26108 12.7038C7.85203 11.8618 7.63989 10.9378 7.64074 10.0017Z" fill="#EB001B"/>
<path d="M20 10.0017C20.0001 11.1616 19.6738 12.2981 19.0584 13.2813C18.4431 14.2645 17.5635 15.0548 16.5202 15.5617C15.477 16.0687 14.3122 16.2719 13.1589 16.1481C12.0056 16.0243 10.9104 15.5785 9.99854 14.8617C10.7343 14.2832 11.3291 13.5452 11.7381 12.7033C12.1471 11.8614 12.3596 10.9377 12.3596 10.0017C12.3596 9.06573 12.1471 8.14198 11.7381 7.3001C11.3291 6.45822 10.7343 5.72019 9.99854 5.14166C10.9104 4.42486 12.0056 3.97909 13.1589 3.85531C14.3122 3.73153 15.477 3.93472 16.5202 4.44167C17.5635 4.94862 18.4431 5.73886 19.0584 6.72208C19.6738 7.70529 20.0001 8.84179 20 10.0017Z" fill="#F79E1B"/>
</g>
<defs>
<clipPath id="clip0">
<rect width="20" height="20" fill="white"/>
</clipPath>
</defs>
</svg>
