<svg width="16" height="16" viewBox="0 0 16 16" fill="none" xmlns="http://www.w3.org/2000/svg">
<g clip-path="url(#clip0_1447_1731)">
<path d="M7.9993 4.6663C8.90148 5.49301 9.46716 6.68102 9.46716 8.00115C9.46716 9.32127 8.90148 10.5093 7.9993 11.336C7.09712 10.5093 6.53144 9.32127 6.53144 8.00115C6.53144 6.68102 7.09712 5.49301 7.9993 4.6663Z" fill="#FF00FF"/>
<path fill-rule="evenodd" clip-rule="evenodd" d="M15.2467 5.37769C15.739 6.16425 16 7.07346 16 8.00138C16 8.92929 15.739 9.8385 15.2467 10.6251C14.7544 11.4116 14.0508 12.0438 13.2162 12.4494C12.3816 12.8549 11.4497 13.0175 10.5271 12.9185C9.60502 12.8195 8.72938 12.4633 8.00012 11.8904C7.27084 12.4633 6.39518 12.8195 5.4731 12.9185C4.55047 13.0175 3.61859 12.855 2.78397 12.4494C1.94936 12.0438 1.24568 11.4117 0.753379 10.6251C0.261074 9.83851 0 8.9293 0 8.00137C0 7.07344 0.261074 6.16423 0.753379 5.37767C1.24568 4.5911 1.94936 3.9589 2.78397 3.55335C3.61859 3.1478 4.55047 2.98525 5.4731 3.08427C6.39518 3.18324 7.27084 3.53949 8.00012 4.11232C8.72938 3.53949 9.60503 3.18324 10.5271 3.08427C11.4497 2.98525 12.3816 3.1478 13.2162 3.55336C14.0508 3.95892 14.7544 4.59112 15.2467 5.37769ZM6.60886 10.1631C6.93587 10.8362 7.41161 11.4262 8.00012 11.8884C8.58812 11.4257 9.06349 10.8357 9.39044 10.1627C9.71762 9.48915 9.88763 8.75015 9.88763 8.00138C9.88763 7.25261 9.71762 6.51361 9.39044 5.8401C9.06349 5.1671 8.58811 4.57705 8.00012 4.11438C7.4116 4.57658 6.93586 5.16654 6.60886 5.83964C6.28161 6.51325 6.11191 7.25248 6.11259 8.00137C6.11192 8.75026 6.28162 9.48949 6.60886 10.1631Z" fill="#FF00FF"/>
</g>
<defs>
<clipPath id="clip0_1447_1731">
<rect width="16" height="16" fill="white"/>
</clipPath>
</defs>
</svg>
