<svg width="20" height="20" viewBox="0 0 20 20" fill="none" xmlns="http://www.w3.org/2000/svg">
<g clip-path="url(#clip0)">
<path fill-rule="evenodd" clip-rule="evenodd" d="M7.64074 10.0017C7.63989 9.06557 7.85202 8.14154 8.26107 7.29952C8.66982 6.45814 9.2645 5.7207 10.0001 5.14294C10.7351 5.72128 11.3294 6.45884 11.738 7.3001C12.147 8.14198 12.3595 9.06573 12.3595 10.0017C12.3595 10.9377 12.147 11.8614 11.738 12.7033C11.3294 13.5445 10.7351 14.2821 10.0001 14.8604C9.26451 14.2827 8.66983 13.5452 8.26108 12.7038C7.85203 11.8618 7.63989 10.9378 7.64074 10.0017ZM6.84137 3.85531C7.99397 3.97902 9.08855 4.42433 10.0002 5.14037C10.9117 4.42433 12.0063 3.97902 13.1589 3.85531C14.3121 3.73153 15.477 3.93472 16.5202 4.44167C17.5635 4.94862 18.443 5.73886 19.0584 6.72208C19.6737 7.70529 20 8.84179 20 10.0017C20 11.1616 19.6737 12.2981 19.0584 13.2813C18.443 14.2645 17.5635 15.0548 16.5202 15.5617C15.477 16.0687 14.3121 16.2719 13.1589 16.1481C12.0063 16.0244 10.9117 15.5791 10.0001 14.863C9.08855 15.579 7.99397 16.0244 6.84137 16.1481C5.68808 16.2718 4.52324 16.0687 3.47997 15.5617C2.4367 15.0548 1.55711 14.2645 0.941724 13.2813C0.326342 12.2981 0 11.1616 0 10.0017C0 8.84177 0.326342 7.70526 0.941724 6.72205C1.55711 5.73884 2.4367 4.9486 3.47997 4.44166C4.52324 3.93472 5.68808 3.73153 6.84137 3.85531ZM9.99913 5.83285C11.1269 6.86624 11.834 8.35124 11.834 10.0014C11.834 11.6516 11.1269 13.1366 9.99913 14.17C8.8714 13.1366 8.1643 11.6516 8.1643 10.0014C8.1643 8.35124 8.8714 6.86624 9.99913 5.83285Z" fill="#FF00FF"/>
</g>
<defs>
<clipPath id="clip0">
<rect width="20" height="20" fill="white"/>
</clipPath>
</defs>
</svg>
