<svg width="16" height="16" viewBox="0 0 16 16" fill="none" xmlns="http://www.w3.org/2000/svg">
<g opacity="0.4">
<path d="M10.6511 12.7913L15.0863 15.0129C15.5743 15.2573 15.97 15.0862 15.97 14.6307V4.20408C15.97 4.16805 15.953 4.13442 15.9252 4.11281C15.9459 4.13159 15.9514 4.16327 15.936 4.18835L10.6511 12.7913Z" fill="#FF00FF"/>
<path d="M11.0908 1.68907C11.0623 1.67492 11.0344 1.66415 11.0073 1.65662C11.0358 1.66488 11.0638 1.67567 11.0908 1.68907Z" fill="#FF00FF"/>
</g>
<path opacity="0.6" d="M10.3923 1.89024L7.17358 7.13008L10.6512 12.7913L15.936 4.18838C15.9543 4.15859 15.9432 4.11949 15.912 4.10376L11.093 1.69015C10.85 1.56842 10.5347 1.65839 10.3923 1.89024Z" fill="#FF00FF"/>
<path opacity="0.8" d="M0.750024 1.8377C0.344917 1.63471 0.207695 1.78485 0.445088 2.17128L5.33245 10.1272L10.6511 12.7913L5.34389 4.15156C5.33642 4.13934 5.32559 4.12957 5.31278 4.12315L0.750024 1.8377Z" fill="#FF00FF"/>
<path d="M5.33252 14.6307C5.33252 15.0843 5.00105 15.2895 4.5961 15.0866L0.455524 13.0126C0.21249 12.8908 0.0136719 12.5685 0.0136719 12.2964V2.12858C0.0136719 1.76567 0.278814 1.60148 0.602808 1.76384L5.30386 4.11848C5.32139 4.12734 5.33252 4.14521 5.33252 4.16477V14.6307Z" fill="#FF00FF"/>
</svg>
