<svg width="20" height="20" viewBox="0 0 20 20" fill="none" xmlns="http://www.w3.org/2000/svg">
<path opacity="0.4" fill-rule="evenodd" clip-rule="evenodd" d="M13.314 15.9891L18.8579 18.7661C19.468 19.0716 19.9625 18.8577 19.9625 18.2884V5.25507C19.9625 5.21003 19.9414 5.168 19.9065 5.141C19.9325 5.16447 19.9393 5.20407 19.92 5.23541L13.314 15.9891ZM13.8663 2.11263C13.8296 2.09428 13.7938 2.08038 13.7591 2.07072C13.7957 2.08133 13.8316 2.09526 13.8663 2.11263Z" fill="#FF00FF"/>
<path opacity="0.6" fill-rule="evenodd" clip-rule="evenodd" d="M8.9668 8.91255L13.3138 15.9891L19.9199 5.23542C19.9427 5.19819 19.9288 5.14932 19.8898 5.12965L13.8661 2.11265C13.5623 1.96048 13.1682 2.07294 12.9902 2.36276L8.9668 8.91255Z" fill="#FF00FF"/>
<path opacity="0.8" d="M0.937408 2.29708C0.431024 2.04334 0.259497 2.23102 0.556238 2.71406L6.66544 12.659L13.3138 15.9891L6.67974 5.18941C6.6704 5.17413 6.65687 5.16191 6.64086 5.1539L0.937408 2.29708Z" fill="#FF00FF"/>
<path d="M6.66541 18.2884C6.66541 18.8555 6.25107 19.1119 5.74488 18.8583L0.569161 16.2658C0.265369 16.1136 0.0168457 15.7107 0.0168457 15.3705V2.66079C0.0168457 2.20715 0.348273 2.00191 0.753267 2.20486L6.62958 5.14817C6.65149 5.15924 6.66541 5.18158 6.66541 5.20602V18.2884Z" fill="#FF00FF"/>
</svg>
