<svg width="20" height="20" viewBox="0 0 20 20" fill="none" xmlns="http://www.w3.org/2000/svg">
<path fill-rule="evenodd" clip-rule="evenodd" d="M13.866 1.77933C13.5622 1.62716 13.3137 1.78105 13.3137 2.12127V15.6558L18.8577 18.4328C19.4677 18.7383 19.9623 18.5244 19.9623 17.9551V4.92177C19.9623 4.86735 19.9314 4.81733 19.8828 4.79289L13.866 1.77933Z" fill="#32FC8D"/>
<path fill-rule="evenodd" clip-rule="evenodd" d="M8.9668 8.57922L13.3138 15.6558L19.9199 4.9021C19.9427 4.86487 19.9288 4.81599 19.8898 4.79632L13.8661 1.77932C13.5623 1.62715 13.1682 1.73961 12.9902 2.02943L8.9668 8.57922Z" fill="#0BE370"/>
<path fill-rule="evenodd" clip-rule="evenodd" d="M0.937408 1.96375C0.431024 1.71001 0.259497 1.89769 0.556238 2.38073L6.66544 12.3257L13.3138 15.6558L6.67974 4.85608C6.6704 4.84081 6.65687 4.82859 6.64086 4.82057L0.937408 1.96375Z" fill="#14C767"/>
<path fill-rule="evenodd" clip-rule="evenodd" d="M6.66541 17.9551C6.66541 18.5221 6.25107 18.7786 5.74488 18.525L0.569161 15.9324C0.265369 15.7803 0.0168457 15.3774 0.0168457 15.0372V2.32746C0.0168457 1.87382 0.348273 1.66858 0.753267 1.87153L6.62958 4.81484C6.65149 4.82591 6.66541 4.84825 6.66541 4.87269V17.9551Z" fill="#00AB6C"/>
</svg>
