<svg width="16" height="16" viewBox="0 0 16 16" fill="none" xmlns="http://www.w3.org/2000/svg">
<g opacity="0.4">
<path d="M10.6511 12.7912L15.0863 15.0128C15.5743 15.2572 15.97 15.0861 15.97 14.6306V4.20396C15.97 4.16792 15.953 4.1343 15.9252 4.11269C15.9459 4.13147 15.9514 4.16315 15.936 4.18823L10.6511 12.7912Z" fill="#FF00FF"/>
<path d="M11.0908 1.68894C11.0623 1.6748 11.0344 1.66403 11.0073 1.65649C11.0358 1.66476 11.0638 1.67554 11.0908 1.68894Z" fill="#FF00FF"/>
</g>
<path opacity="0.6" d="M10.3923 1.89012L7.17358 7.12995L10.6512 12.7912L15.936 4.18825C15.9543 4.15847 15.9432 4.11937 15.912 4.10364L11.093 1.69003C10.85 1.5683 10.5347 1.65826 10.3923 1.89012Z" fill="#FF00FF"/>
<path opacity="0.8" d="M0.750024 1.83758C0.344917 1.63459 0.207695 1.78473 0.445088 2.17116L5.33245 10.1271L10.6511 12.7912L5.34389 4.15144C5.33642 4.13922 5.32559 4.12945 5.31278 4.12303L0.750024 1.83758Z" fill="#FF00FF"/>
<path d="M5.33252 14.6307C5.33252 15.0843 5.00105 15.2895 4.5961 15.0866L0.455524 13.0126C0.21249 12.8908 0.0136719 12.5685 0.0136719 12.2964V2.12858C0.0136719 1.76567 0.278814 1.60148 0.602808 1.76384L5.30386 4.11848C5.32139 4.12734 5.33252 4.14521 5.33252 4.16477V14.6307Z" fill="#FF00FF"/>
</svg>
