<svg width="20" height="20" viewBox="0 0 20 20" fill="none" xmlns="http://www.w3.org/2000/svg">
<path fill-rule="evenodd" clip-rule="evenodd" d="M2.1875 9.96094C2.1875 5.60656 5.59898 2.38281 10 2.38281C14.401 2.38281 17.8125 5.60656 17.8125 9.96094C17.8125 14.3153 14.401 17.5391 10 17.5391C9.2095 17.5391 8.45109 17.4347 7.73852 17.2388C7.6 17.2006 7.4527 17.2114 7.32125 17.2694L5.77058 17.9539C5.36495 18.133 4.90708 17.8445 4.89348 17.4012L4.85094 16.0116C4.8457 15.8403 4.76867 15.6803 4.64106 15.5661C3.12094 14.2067 2.1875 12.2386 2.1875 9.96094ZM7.60355 8.53619L5.30863 12.1771C5.08839 12.5265 5.51789 12.9203 5.84691 12.6706L8.31203 10.7998C8.47878 10.6732 8.70922 10.6725 8.87667 10.7981L10.702 12.1671C11.2497 12.5779 12.0314 12.4337 12.3965 11.8545L14.6914 8.2135C14.9116 7.86408 14.4821 7.47033 14.1531 7.72002L11.688 9.59088C11.5212 9.71744 11.2908 9.71811 11.1233 9.59249L9.29805 8.22353C8.75031 7.81275 7.9686 7.95697 7.60355 8.53619Z" fill="#FF00FF"/>
</svg>
