<svg width="16" height="16" viewBox="0 0 16 16" fill="none" xmlns="http://www.w3.org/2000/svg">
<path fill-rule="evenodd" clip-rule="evenodd" d="M8.00001 1C4.0567 1 1 3.88849 1 7.79001C1 9.83077 1.83636 11.5942 3.1984 12.8122C3.31273 12.9146 3.38175 13.0579 3.38644 13.2114L3.42457 14.4565C3.43675 14.8537 3.847 15.1122 4.21044 14.9517L5.59985 14.3384C5.71763 14.2864 5.84961 14.2768 5.97372 14.3109C6.61219 14.4865 7.29172 14.58 8.00001 14.58C11.9433 14.58 15 11.6915 15 7.79001C15 3.88849 11.9433 1 8.00001 1Z" fill="url(#paint0_radial_1447_3073)"/>
<path fill-rule="evenodd" clip-rule="evenodd" d="M3.79672 9.77575L5.85297 6.51347C6.18005 5.99449 6.88047 5.86527 7.37125 6.23333L9.00669 7.45991C9.15674 7.57247 9.3632 7.57187 9.51262 7.45847L11.7214 5.78218C12.0162 5.55846 12.401 5.91126 12.2037 6.22434L10.1475 9.48665C9.82034 10.0056 9.11992 10.1349 8.62918 9.76677L6.99369 8.54015C6.84365 8.42762 6.63718 8.42822 6.48777 8.54162L4.27902 10.2179C3.98422 10.4416 3.59939 10.0888 3.79672 9.77575Z" fill="white"/>
<defs>
<radialGradient id="paint0_radial_1447_3073" cx="0" cy="0" r="1" gradientUnits="userSpaceOnUse" gradientTransform="translate(3.69465 14.9251) scale(15.2544 15.2543)">
<stop stop-color="#0099FF"/>
<stop offset="0.609754" stop-color="#A033FF"/>
<stop offset="0.934823" stop-color="#FF5280"/>
<stop offset="1" stop-color="#FF7061"/>
</radialGradient>
</defs>
</svg>
