<svg width="20" height="20" viewBox="0 0 20 20" fill="none" xmlns="http://www.w3.org/2000/svg">
<path fill-rule="evenodd" clip-rule="evenodd" d="M10 2.38281C5.59898 2.38281 2.1875 5.60656 2.1875 9.96094C2.1875 12.2386 3.12094 14.2067 4.64106 15.5661C4.76867 15.6803 4.8457 15.8403 4.85094 16.0116L4.89348 17.4012C4.90708 17.8445 5.36495 18.133 5.77058 17.9539L7.32125 17.2694C7.4527 17.2114 7.6 17.2006 7.73852 17.2388C8.45109 17.4347 9.2095 17.5391 10 17.5391C14.401 17.5391 17.8125 14.3153 17.8125 9.96094C17.8125 5.60656 14.401 2.38281 10 2.38281Z" fill="url(#paint0_radial)"/>
<path fill-rule="evenodd" clip-rule="evenodd" d="M5.3086 12.1771L7.60353 8.53619C7.96857 7.95697 8.75029 7.81275 9.29803 8.22353L11.1233 9.59249C11.2908 9.71811 11.5212 9.71744 11.6879 9.59088L14.1531 7.72002C14.4821 7.47033 14.9116 7.86408 14.6914 8.2135L12.3965 11.8545C12.0314 12.4337 11.2497 12.5779 10.702 12.1671L8.87665 10.7981C8.7092 10.6725 8.47876 10.6732 8.31201 10.7998L5.84689 12.6706C5.51787 12.9203 5.08837 12.5265 5.3086 12.1771Z" fill="white"/>
<defs>
<radialGradient id="paint0_radial" cx="0" cy="0" r="1" gradientUnits="userSpaceOnUse" gradientTransform="translate(5.19491 17.9242) scale(17.0249)">
<stop stop-color="#0099FF"/>
<stop offset="0.609754" stop-color="#A033FF"/>
<stop offset="0.934823" stop-color="#FF5280"/>
<stop offset="1" stop-color="#FF7061"/>
</radialGradient>
</defs>
</svg>
