<svg width="16" height="16" viewBox="0 0 16 16" fill="none" xmlns="http://www.w3.org/2000/svg">
<path fill-rule="evenodd" clip-rule="evenodd" d="M1 7.79001C1 3.88849 4.05669 1 8 1C11.9433 1 15 3.88849 15 7.79001C15 11.6915 11.9433 14.58 8 14.58C7.29171 14.58 6.61218 14.4865 5.97371 14.3109C5.8496 14.2768 5.71762 14.2864 5.59984 14.3384L4.21044 14.9517C3.847 15.1122 3.43674 14.8537 3.42456 14.4565L3.38644 13.2114C3.38175 13.0579 3.31273 12.9146 3.19839 12.8122C1.83636 11.5942 1 9.83077 1 7.79001ZM5.85278 6.51343L3.79653 9.77572C3.5992 10.0888 3.98403 10.4416 4.27883 10.2179L6.48758 8.54159C6.63699 8.42819 6.84346 8.42759 6.9935 8.54012L8.62898 9.76673C9.11972 10.1348 9.82014 10.0056 10.1473 9.48662L12.2035 6.22431C12.4008 5.91122 12.016 5.55842 11.7212 5.78214L9.51242 7.45844C9.363 7.57184 9.15654 7.57244 9.00649 7.45988L7.37105 6.23329C6.88028 5.86523 6.17986 5.99445 5.85278 6.51343Z" fill="#FF00FF"/>
</svg>
