<svg width="16" height="16" viewBox="0 0 16 16" fill="none" xmlns="http://www.w3.org/2000/svg">
<path d="M4.59797 2.68994C4.59282 2.68994 4.5877 2.68996 4.58256 2.68999L4.56152 4.42788C4.56634 4.42783 4.57115 4.42779 4.57597 4.42779C5.71986 4.42779 6.60715 5.32971 8.53565 8.57809L8.65321 8.77585L8.6609 8.7888L9.74045 7.16902L9.73298 7.15651C9.47892 6.74331 9.23484 6.36313 9.00076 6.01598C8.72929 5.61375 8.46967 5.25442 8.21772 4.93361C6.94195 3.30924 5.87476 2.68994 4.59797 2.68994Z" fill="url(#paint0_linear_2055_1564)"/>
<path d="M4.58185 2.68999C3.29885 2.69659 2.1646 3.52622 1.34557 4.79573C1.34317 4.79945 1.34077 4.80317 1.33838 4.8069L2.8418 5.62519C2.84424 5.62149 2.84669 5.61779 2.84914 5.6141C3.32741 4.89401 3.92259 4.43473 4.56081 4.42788C4.56562 4.42783 4.57043 4.42779 4.57526 4.42779L4.59725 2.68994C4.5921 2.68994 4.58698 2.68996 4.58185 2.68999Z" fill="url(#paint1_linear_2055_1564)"/>
<path d="M1.34591 4.79688C1.34352 4.80059 1.34112 4.80431 1.33872 4.80804C0.800526 5.64583 0.39932 6.6739 0.182495 7.78299C0.181556 7.78779 0.18062 7.79259 0.179688 7.79741L1.86872 8.19593C1.86961 8.19112 1.8705 8.1863 1.87138 8.18149C2.05193 7.20678 2.39564 6.30277 2.84214 5.62634C2.84457 5.62263 2.84703 5.61893 2.84948 5.61524L1.34591 4.79688Z" fill="url(#paint2_linear_2055_1564)"/>
<path d="M1.87136 8.18194L0.182463 7.78345C0.181524 7.78825 0.180588 7.79306 0.179656 7.79786C0.0614241 8.40782 0.00127425 9.02761 1.21989e-05 9.64891C2.25813e-06 9.65394 -1.54979e-06 9.65896 5.65264e-07 9.66397L1.73218 9.81894C1.73204 9.8139 1.73189 9.80892 1.73178 9.80386C1.73092 9.76782 1.73049 9.73131 1.73048 9.69429C1.73134 9.19184 1.7776 8.69051 1.86869 8.19639C1.86957 8.19158 1.87046 8.18677 1.87136 8.18194Z" fill="url(#paint3_linear_2055_1564)"/>
<path d="M1.78485 10.3569C1.75378 10.1784 1.73618 9.99772 1.73218 9.81651C1.73204 9.81148 1.73189 9.8065 1.73178 9.80143L1.21989e-05 9.64648C2.25813e-06 9.65151 -1.54979e-06 9.65653 5.65264e-07 9.66155C5.65264e-07 10.0482 0.0322469 10.4113 0.0949171 10.7457C0.0958234 10.7506 0.0967149 10.7553 0.0976339 10.7601L1.78748 10.3714C1.78659 10.3666 1.78572 10.3618 1.78485 10.3569Z" fill="url(#paint4_linear_2055_1564)"/>
<path d="M2.17955 11.2557C1.99106 11.0499 1.85767 10.7531 1.78753 10.3736C1.78664 10.3688 1.78579 10.364 1.78492 10.3591L0.0949707 10.7479C0.0958759 10.7527 0.0967674 10.7575 0.0976875 10.7623C0.22542 11.433 0.475926 11.9919 0.83467 12.4147C0.83786 12.4185 0.841061 12.4222 0.844274 12.426L2.18963 11.2665C2.18626 11.2629 2.18288 11.2593 2.17955 11.2557Z" fill="url(#paint5_linear_2055_1564)"/>
<path d="M7.18595 6.44702C6.1676 8.00903 5.55068 8.98874 5.55068 8.98874C4.19413 11.1152 3.72483 11.5918 2.96956 11.5918C2.65441 11.5918 2.39113 11.4796 2.18943 11.2651C2.18606 11.2615 2.18269 11.2579 2.17936 11.2543L0.834473 12.4133C0.837662 12.4171 0.840863 12.4209 0.844076 12.4246C1.33942 13.002 2.0386 13.3224 2.90357 13.3224C4.21221 13.3224 5.1534 12.7054 6.82656 9.78067C6.82656 9.78067 7.52405 8.54898 8.00387 7.70055C7.70665 7.22067 7.43617 6.80523 7.18595 6.44702Z" fill="#0082FB"/>
<path d="M9.00165 3.98291C8.99822 3.98656 8.99472 3.99028 8.99129 3.99394C8.72386 4.27886 8.46721 4.59705 8.21753 4.93464C8.46949 5.25546 8.72958 5.61549 9.00106 6.01771C9.32103 5.52386 9.61969 5.1239 9.91242 4.81733C9.9159 4.8137 9.91929 4.81017 9.92276 4.80655L9.00165 3.98291Z" fill="url(#paint6_linear_2055_1564)"/>
<path d="M13.9454 3.82843C13.2351 3.11094 12.3884 2.68994 11.4831 2.68994C10.5285 2.68994 9.72556 3.21305 9.00133 3.98155C8.99789 3.98519 8.99439 3.98891 8.99097 3.99257L9.9121 4.81596C9.91557 4.81234 9.91897 4.8088 9.92245 4.8052C10.3995 4.30893 10.8613 4.06115 11.3731 4.06115C11.9241 4.06115 12.4398 4.32049 12.8864 4.77513C12.8898 4.7787 12.8933 4.78223 12.8968 4.78581L13.9559 3.83912C13.9524 3.83553 13.9489 3.832 13.9454 3.82843Z" fill="#0082FB"/>
<path d="M15.9986 9.41829C15.9588 7.11455 15.1526 5.05504 13.9561 3.83881C13.9525 3.83522 13.949 3.83169 13.9454 3.82812L12.8865 4.77482C12.89 4.77839 12.8935 4.78192 12.8969 4.7855C13.7971 5.71019 14.4146 7.43015 14.4708 9.41779C14.4709 9.42279 14.471 9.42779 14.4712 9.4328L15.9988 9.43328C15.9988 9.42829 15.9987 9.42329 15.9986 9.41829Z" fill="url(#paint7_linear_2055_1564)"/>
<path d="M15.9988 9.43469C15.9988 9.42969 15.9987 9.42469 15.9986 9.41968L14.4708 9.41919C14.4709 9.42419 14.471 9.42919 14.4712 9.4342C14.4736 9.52749 14.4749 9.62135 14.4749 9.71576C14.4749 10.2577 14.394 10.6958 14.2293 11.012C14.2269 11.0167 14.2244 11.0214 14.2219 11.0261L15.361 12.2108C15.3638 12.2065 15.3666 12.2022 15.3694 12.1979C15.7829 11.5598 16 10.6734 16 9.59844C16 9.54372 15.9996 9.48913 15.9988 9.43469Z" fill="url(#paint8_linear_2055_1564)"/>
<path d="M14.2296 11.0098C14.2271 11.0145 14.2246 11.0192 14.2222 11.0238C14.0797 11.2904 13.8764 11.4682 13.6106 11.546L14.1298 13.1825C14.1986 13.1592 14.2655 13.133 14.3307 13.1039C14.3501 13.0952 14.3695 13.0863 14.3886 13.0771C14.3996 13.0718 14.4106 13.0665 14.4215 13.061C14.7649 12.8899 15.0551 12.6375 15.2897 12.3123C15.3041 12.2924 15.3183 12.2724 15.3321 12.252C15.342 12.2376 15.3517 12.2231 15.3612 12.2085C15.3641 12.2042 15.3668 12.1999 15.3697 12.1956L14.2296 11.0098Z" fill="url(#paint9_linear_2055_1564)"/>
<path d="M13.2799 11.5902C13.1058 11.5902 12.9521 11.5643 12.8017 11.4971L12.27 13.1726C12.5689 13.2747 12.8877 13.3207 13.2433 13.3207C13.5708 13.3207 13.8714 13.2717 14.1441 13.1772L13.6249 11.5412C13.513 11.5747 13.3967 11.5912 13.2799 11.5902Z" fill="url(#paint10_linear_2055_1564)"/>
<path d="M12.2156 11.019C12.2123 11.0152 12.209 11.0114 12.2056 11.0076L10.9822 12.28C10.9857 12.2837 10.9891 12.2873 10.9924 12.2909C11.4176 12.744 11.8235 13.025 12.2839 13.1793L12.8152 11.505C12.6212 11.4217 12.4335 11.2706 12.2156 11.019Z" fill="url(#paint11_linear_2055_1564)"/>
<path d="M12.2062 11.0064C11.8392 10.5796 11.3852 9.86907 10.6712 8.72005L9.74056 7.16803L9.73309 7.15552L8.65332 8.77486L8.66101 8.7878L9.32039 9.89703C9.95955 10.9666 10.4803 11.7404 10.9827 12.2788C10.9862 12.2825 10.9896 12.2861 10.993 12.2898L12.216 11.0178C12.2127 11.014 12.2095 11.0102 12.2062 11.0064Z" fill="url(#paint12_linear_2055_1564)"/>
<defs>
<linearGradient id="paint0_linear_2055_1564" x1="9.02288" y1="8.13008" x2="5.43874" y2="3.43361" gradientUnits="userSpaceOnUse">
<stop offset="0.0006" stop-color="#0867DF"/>
<stop offset="0.4539" stop-color="#0668E1"/>
<stop offset="0.8591" stop-color="#0064E0"/>
</linearGradient>
<linearGradient id="paint1_linear_2055_1564" x1="2.04456" y1="5.08775" x2="4.50172" y2="3.2223" gradientUnits="userSpaceOnUse">
<stop offset="0.1323" stop-color="#0064DF"/>
<stop offset="0.9988" stop-color="#0064E0"/>
</linearGradient>
<linearGradient id="paint2_linear_2055_1564" x1="1.00342" y1="7.82636" x2="1.98908" y2="5.34517" gradientUnits="userSpaceOnUse">
<stop offset="0.0147" stop-color="#0072EC"/>
<stop offset="0.6881" stop-color="#0064DF"/>
</linearGradient>
<linearGradient id="paint3_linear_2055_1564" x1="0.869538" y1="9.61926" x2="0.983585" y2="8.10393" gradientUnits="userSpaceOnUse">
<stop offset="0.0731" stop-color="#007CF6"/>
<stop offset="0.9943" stop-color="#0072EC"/>
</linearGradient>
<linearGradient id="paint4_linear_2055_1564" x1="0.932258" y1="10.4399" x2="0.850678" y2="9.83283" gradientUnits="userSpaceOnUse">
<stop offset="0.0731" stop-color="#007FF9"/>
<stop offset="1" stop-color="#007CF6"/>
</linearGradient>
<linearGradient id="paint5_linear_2055_1564" x1="0.884426" y1="10.6016" x2="1.39283" y2="11.6799" gradientUnits="userSpaceOnUse">
<stop offset="0.0731" stop-color="#007FF9"/>
<stop offset="1" stop-color="#0082FB"/>
</linearGradient>
<linearGradient id="paint6_linear_2055_1564" x1="8.6989" y1="5.38405" x2="9.37103" y2="4.45446" gradientUnits="userSpaceOnUse">
<stop offset="0.2799" stop-color="#007FF8"/>
<stop offset="0.9141" stop-color="#0082FB"/>
</linearGradient>
<linearGradient id="paint7_linear_2055_1564" x1="13.8088" y1="4.1776" x2="15.2149" y2="9.35001" gradientUnits="userSpaceOnUse">
<stop stop-color="#0082FB"/>
<stop offset="0.9995" stop-color="#0081FA"/>
</linearGradient>
<linearGradient id="paint8_linear_2055_1564" x1="15.5545" y1="9.5493" x2="14.6646" y2="11.3475" gradientUnits="userSpaceOnUse">
<stop offset="0.0619" stop-color="#0081FA"/>
<stop offset="1" stop-color="#0080F9"/>
</linearGradient>
<linearGradient id="paint9_linear_2055_1564" x1="13.9576" y1="12.2986" x2="14.7894" y2="11.7321" gradientUnits="userSpaceOnUse">
<stop stop-color="#027AF3"/>
<stop offset="1" stop-color="#0080F9"/>
</linearGradient>
<linearGradient id="paint10_linear_2055_1564" x1="12.6529" y1="12.4089" x2="13.8088" y2="12.4089" gradientUnits="userSpaceOnUse">
<stop stop-color="#0377EF"/>
<stop offset="0.9994" stop-color="#0279F1"/>
</linearGradient>
<linearGradient id="paint11_linear_2055_1564" x1="11.6476" y1="11.7741" x2="12.4786" y2="12.263" gradientUnits="userSpaceOnUse">
<stop offset="0.0019" stop-color="#0471E9"/>
<stop offset="1" stop-color="#0377EF"/>
</linearGradient>
<linearGradient id="paint12_linear_2055_1564" x1="9.11319" y1="8.16792" x2="11.7752" y2="11.5149" gradientUnits="userSpaceOnUse">
<stop offset="0.2765" stop-color="#0867DF"/>
<stop offset="1" stop-color="#0471E9"/>
</linearGradient>
</defs>
</svg>
