<svg width="16" height="16" viewBox="0 0 16 16" fill="none" xmlns="http://www.w3.org/2000/svg">
<g clip-path="url(#clip0_2055_1565)">
<path d="M4.59806 2.68994C4.59291 2.68994 4.58779 2.68996 4.58265 2.68999L4.56162 4.42788C4.56643 4.42783 4.57124 4.42779 4.57606 4.42779C5.71996 4.42779 6.60724 5.32971 8.53574 8.57809L8.65331 8.77585L8.66099 8.7888L9.74055 7.16902L9.73307 7.15651C9.47901 6.74331 9.23493 6.36313 9.00085 6.01598C8.72938 5.61375 8.46976 5.25443 8.21781 4.93361C6.94205 3.30924 5.87485 2.68994 4.59806 2.68994Z" fill="#FF00FF"/>
<path d="M4.58265 2.68999C3.29966 2.69659 2.16466 3.52622 1.34562 4.79573C1.34322 4.79945 1.34082 4.80317 1.33843 4.8069L2.84185 5.62519C2.8443 5.62149 2.84674 5.61779 2.84919 5.6141C3.32746 4.89401 3.9234 4.43473 4.56162 4.42788C4.56643 4.42783 4.57124 4.42779 4.57606 4.42779L4.59806 2.68994C4.59291 2.68994 4.58779 2.68996 4.58265 2.68999Z" fill="#FF00FF"/>
<path d="M1.34592 4.79688C1.34353 4.80059 1.34113 4.80431 1.33873 4.80804C0.800536 5.64583 0.399329 6.6739 0.182504 7.78299C0.181565 7.78779 0.180629 7.79259 0.179697 7.79741L1.86873 8.19593C1.86962 8.19112 1.8705 8.1863 1.87139 8.18149C2.05193 7.20678 2.39565 6.30277 2.84215 5.62634C2.84458 5.62263 2.84704 5.61893 2.84949 5.61524L1.34592 4.79688Z" fill="#FF00FF"/>
<path d="M1.87139 8.18149L0.182504 7.78299C0.181565 7.78779 0.180629 7.79259 0.179697 7.79741C0.0614651 8.40737 0.00127425 9.02761 1.21989e-05 9.64891C2.25813e-06 9.65394 -1.54979e-06 9.65896 5.65264e-07 9.66397L1.73218 9.81894C1.73204 9.8139 1.73189 9.80892 1.73178 9.80386C1.73092 9.76782 1.73049 9.73131 1.73048 9.69429C1.73134 9.19184 1.77763 8.69005 1.86873 8.19593C1.86962 8.19112 1.8705 8.1863 1.87139 8.18149Z" fill="#FF00FF"/>
<path d="M1.78485 10.3569C1.75378 10.1784 1.73618 9.99772 1.73218 9.81651C1.73204 9.81148 1.73189 9.8065 1.73178 9.80143L1.21989e-05 9.64648C2.25813e-06 9.65151 -1.54979e-06 9.65653 5.65264e-07 9.66155C5.65264e-07 10.0482 0.0322469 10.4113 0.0949171 10.7457C0.0958234 10.7506 0.0967149 10.7553 0.0976339 10.7601L1.78748 10.3714C1.78659 10.3666 1.78572 10.3618 1.78485 10.3569Z" fill="#FF00FF"/>
<path d="M2.17959 11.2557C1.99111 11.0499 1.85771 10.7531 1.78757 10.3736C1.78669 10.3688 1.78583 10.364 1.78496 10.3591L0.0950122 10.7479C0.0959174 10.7527 0.0968089 10.7575 0.097729 10.7623C0.225461 11.433 0.475967 11.9919 0.834712 12.4147C0.837901 12.4185 0.841103 12.4222 0.844315 12.426L2.18967 11.2665C2.1863 11.2629 2.18292 11.2593 2.17959 11.2557Z" fill="#FF00FF"/>
<path d="M7.18594 6.44702C6.16758 8.00903 5.55066 8.98874 5.55066 8.98874C4.19411 11.1152 3.72481 11.5918 2.96955 11.5918C2.65439 11.5918 2.39111 11.4796 2.18941 11.2651C2.18605 11.2615 2.18267 11.2579 2.17934 11.2543L0.834455 12.4133C0.837644 12.4171 0.840845 12.4209 0.844058 12.4246C1.3394 13.002 2.03858 13.3224 2.90356 13.3224C4.21219 13.3224 5.15338 12.7054 6.82655 9.78067C6.82655 9.78067 7.52403 8.54898 8.00385 7.70055C7.70663 7.22067 7.43615 6.80523 7.18594 6.44702Z" fill="#FF00FF"/>
<path d="M9.00164 3.98291C8.99821 3.98656 8.99471 3.99028 8.99128 3.99394C8.72385 4.27886 8.4672 4.59705 8.21752 4.93464C8.46947 5.25546 8.72957 5.61549 9.00105 6.01771C9.32102 5.52386 9.61968 5.1239 9.91241 4.81733C9.91588 4.8137 9.91928 4.81017 9.92275 4.80655L9.00164 3.98291Z" fill="#FF00FF"/>
<path d="M13.9454 3.82843C13.2352 3.11094 12.3884 2.68994 11.4832 2.68994C10.5286 2.68994 9.72563 3.21305 9.0014 3.98155C8.99797 3.98519 8.99447 3.98891 8.99104 3.99257L9.91218 4.81596C9.91565 4.81234 9.91904 4.8088 9.92252 4.8052C10.3996 4.30893 10.8614 4.06115 11.3732 4.06115C11.9242 4.06115 12.4398 4.32049 12.8864 4.77513C12.8899 4.7787 12.8934 4.78223 12.8969 4.78581L13.956 3.83912C13.9525 3.83553 13.9489 3.832 13.9454 3.82843Z" fill="#FF00FF"/>
<path d="M15.9986 9.41829C15.9589 7.11455 15.1526 5.05535 13.956 3.83912C13.9525 3.83553 13.9489 3.832 13.9454 3.82843L12.8864 4.77513C12.8899 4.7787 12.8934 4.78223 12.8969 4.78581C13.7971 5.7105 14.4147 7.43015 14.4708 9.41779C14.4709 9.42279 14.471 9.42779 14.4712 9.4328L15.9988 9.43328C15.9988 9.42829 15.9987 9.42329 15.9986 9.41829Z" fill="#FF00FF"/>
<path d="M15.9987 9.43469C15.9987 9.42969 15.9986 9.42469 15.9985 9.41968L14.4707 9.41919C14.4708 9.42419 14.4709 9.42919 14.4711 9.4342C14.4736 9.52749 14.4748 9.62135 14.4748 9.71576C14.4748 10.2577 14.3939 10.6958 14.2293 11.012C14.2268 11.0167 14.2243 11.0214 14.2219 11.0261L15.3609 12.2108C15.3638 12.2065 15.3665 12.2022 15.3694 12.1979C15.7829 11.5598 16 10.6734 16 9.59844C16 9.54372 15.9996 9.48913 15.9987 9.43469Z" fill="#FF00FF"/>
<path d="M14.2295 11.0098C14.227 11.0145 14.2245 11.0192 14.2221 11.0238C14.0796 11.2904 13.8762 11.4682 13.6105 11.546L14.1297 13.1825C14.1985 13.1592 14.2654 13.133 14.3306 13.1039C14.35 13.0952 14.3694 13.0863 14.3885 13.0771C14.3995 13.0718 14.4105 13.0665 14.4214 13.061C14.7648 12.8899 15.055 12.6375 15.2896 12.3123C15.304 12.2924 15.3182 12.2724 15.332 12.252C15.3419 12.2376 15.3516 12.2231 15.3611 12.2085C15.364 12.2042 15.3667 12.1999 15.3696 12.1956L14.2295 11.0098Z" fill="#FF00FF"/>
<path d="M13.2798 11.5902C13.1058 11.5902 12.9521 11.5643 12.8017 11.4971L12.27 13.1726C12.5688 13.2747 12.8877 13.3207 13.2432 13.3207C13.5708 13.3207 13.8714 13.2717 14.144 13.1772L13.6249 11.5412C13.513 11.5747 13.3967 11.5912 13.2798 11.5902Z" fill="#FF00FF"/>
<path d="M12.2156 11.019C12.2123 11.0152 12.209 11.0114 12.2056 11.0076L10.9822 12.28C10.9857 12.2837 10.989 12.2873 10.9924 12.2909C11.4176 12.744 11.8235 13.025 12.2839 13.1793L12.8152 11.505C12.6212 11.4217 12.4335 11.2706 12.2156 11.019Z" fill="#FF00FF"/>
<path d="M12.2062 11.0064C11.8392 10.5796 11.3852 9.86907 10.6712 8.72005L9.74055 7.16902L9.73307 7.15651L8.65331 8.77585L8.66099 8.7888L9.3204 9.89703C9.95956 10.9666 10.4803 11.7404 10.9827 12.2788C10.9862 12.2825 10.9896 12.2861 10.993 12.2898L12.216 11.0178C12.2127 11.014 12.2095 11.0102 12.2062 11.0064Z" fill="#FF00FF"/>
</g>
<defs>
<clipPath id="clip0_2055_1565">
<rect width="16" height="16" fill="white"/>
</clipPath>
</defs>
</svg>
