<svg width="16" height="16" viewBox="0 0 16 16" fill="none" xmlns="http://www.w3.org/2000/svg">
<g clip-path="url(#clip0_1452_1302)">
<path fill-rule="evenodd" clip-rule="evenodd" d="M8 16C12.4183 16 16 12.4183 16 8C16 3.58172 12.4183 0 8 0C3.58172 0 0 3.58172 0 8C0 12.4183 3.58172 16 8 16ZM9.14833 4.14784C9.14833 4.78552 8.68044 5.29567 8.00024 5.29567C7.32029 5.29567 6.85265 4.78527 6.85265 4.14784C6.85265 3.5104 7.32004 3 8.00024 3C8.68044 3 9.14833 3.51015 9.14833 4.14784ZM8.7727 7.44832V6.24456H7.22808V7.44832C7.22808 9.68225 6.38719 10.6213 4.59003 11.7398L5.42762 13C6.52232 12.3314 7.67345 11.2021 8.00039 10.0363C8.32733 11.2021 9.47846 12.3314 10.5732 13L11.4108 11.7398C9.61359 10.6213 8.7727 9.68225 8.7727 7.44832Z" fill="#FF00FF"/>
</g>
<defs>
<clipPath id="clip0_1452_1302">
<rect width="16" height="16" fill="white"/>
</clipPath>
</defs>
</svg>
