<svg width="16" height="16" viewBox="0 0 16 16" fill="none" xmlns="http://www.w3.org/2000/svg">
<g clip-path="url(#clip0_1452_1301)">
<circle cx="8" cy="8" r="8" fill="#FFEDA3"/>
<path fill-rule="evenodd" clip-rule="evenodd" d="M8.00006 5.29567C8.68025 5.29567 9.14814 4.78552 9.14814 4.14784C9.14814 3.51015 8.68025 3 8.00006 3C7.31986 3 6.85247 3.5104 6.85247 4.14784C6.85247 4.78527 7.32011 5.29567 8.00006 5.29567ZM8.77252 6.24456V7.44832C8.77252 9.68225 9.6134 10.6213 11.4106 11.7398L10.573 13C9.47827 12.3314 8.32715 11.2021 8.00021 10.0363C7.67326 11.2021 6.52214 12.3314 5.42744 13L4.58984 11.7398C6.38701 10.6213 7.2279 9.68225 7.2279 7.44832V6.24456H8.77252Z" fill="#2A2A40"/>
</g>
<defs>
<clipPath id="clip0_1452_1301">
<rect width="16" height="16" fill="white"/>
</clipPath>
</defs>
</svg>
