<svg width="16" height="16" viewBox="0 0 16 16" fill="none" xmlns="http://www.w3.org/2000/svg">
<g clip-path="url(#clip0_2179_3549)">
<circle cx="8" cy="8" r="8" fill="#FFEDA3"/>
<path fill-rule="evenodd" clip-rule="evenodd" d="M8.0003 5.29567C8.6805 5.29567 9.14839 4.78552 9.14839 4.14784C9.14839 3.51015 8.6805 3 8.0003 3C7.3201 3 6.85271 3.5104 6.85271 4.14784C6.85271 4.78527 7.32035 5.29567 8.0003 5.29567ZM8.77276 6.24456V7.44832C8.77276 9.68225 9.61365 10.6213 11.4108 11.7398L10.5732 13C9.47852 12.3314 8.32739 11.2021 8.00045 10.0363C7.67351 11.2021 6.52238 12.3314 5.42769 13L4.59009 11.7398C6.38725 10.6213 7.22814 9.68225 7.22814 7.44832V6.24456H8.77276Z" fill="#2A2A40"/>
</g>
<defs>
<clipPath id="clip0_2179_3549">
<rect width="16" height="16" fill="white"/>
</clipPath>
</defs>
</svg>
