<svg width="16" height="16" viewBox="0 0 16 16" fill="none" xmlns="http://www.w3.org/2000/svg">
<g clip-path="url(#clip0_1457_1295)">
<path d="M6.94761 15.3786C3.13722 14.6994 0.44005 12.0901 0.0397409 8.69582C-0.14153 7.15914 0.304115 5.44527 1.23763 4.08852C2.1537 2.757 3.77118 1.57463 5.43244 1.02221C6.54819 0.651208 7.17503 0.550148 8.39451 0.545028C10.3705 0.536643 12.0266 1.02473 13.5885 2.07562C14.6704 2.80353 16 4.37137 16 4.91919C16 5.40453 15.3916 5.75572 14.7888 5.61815C14.431 5.53653 14.3021 5.41818 13.817 4.72649C12.8487 3.34541 11.3923 2.3728 9.57673 1.8948C9.00339 1.7438 8.74866 1.72095 7.68961 1.72562C6.61816 1.7303 6.37619 1.75486 5.75158 1.92225C3.12817 2.62559 1.27168 4.41463 0.704498 6.78613C0.486054 7.69924 0.534506 8.95908 0.820547 9.80681C1.5664 12.0168 3.29883 13.5608 5.79565 14.2409C6.30496 14.3795 6.5844 14.403 7.72671 14.403C8.8863 14.403 9.14541 14.3806 9.69301 14.2328C11.3957 13.7735 13.0114 12.6633 13.8386 11.3842C14.5311 10.3131 14.4817 10.3633 14.8444 10.3633C15.4725 10.3633 16 10.7172 16 11.1385C16 11.6649 14.651 13.2274 13.5863 13.9343C12.6024 14.5876 11.5462 15.0384 10.3848 15.3006C9.6792 15.46 7.66111 15.5058 6.94761 15.3786V15.3786ZM6.53951 13.6207C5.37717 13.4993 4.09685 12.9827 3.20103 12.2737C1.80904 11.1719 0.988832 9.41096 1.11334 7.79154C1.21396 6.48266 1.71963 5.42434 2.72081 4.42732C5.96839 1.19309 11.8559 2.41932 13.2302 6.61622C13.4779 7.37254 13.5133 8.63883 13.3078 9.39033C12.5553 12.1429 9.66822 13.9475 6.53951 13.6207ZM8.49386 12.5164C10.2453 12.0215 11.5513 10.777 12.038 9.13901C12.2305 8.49132 12.2184 7.4319 12.011 6.76462C11.4369 4.91733 9.58683 3.499 7.52896 3.32842C4.43913 3.07243 1.88658 4.9948 1.70531 7.71438C1.61879 9.0125 2.07074 10.1657 3.04981 11.1449C3.86846 11.9637 4.80442 12.4394 6.04467 12.6669C6.5962 12.7681 7.8829 12.689 8.49386 12.5164ZM5.37375 11.7365C3.8183 11.3436 2.57983 10.0758 2.35077 8.64158C2.2555 8.04553 2.35233 7.22792 2.56833 6.80454C2.86335 6.22637 3.42363 6.04844 3.91298 6.37766C4.21134 6.57837 4.39031 6.92214 4.46206 7.43242L4.51422 7.80342L4.76657 7.13562C5.11977 6.20114 5.17987 6.10016 5.39809 6.07448C5.68324 6.04094 5.76731 6.21005 5.82199 6.92771L5.87171 7.58082L6.15797 6.8909C6.45433 6.17673 6.6698 5.93447 6.93418 6.01831C7.2706 6.12516 7.31749 6.27987 7.39763 7.54832C7.43978 8.21634 7.48778 8.77633 7.50418 8.79272C7.52051 8.80912 7.64294 8.60158 7.77612 8.3315C8.03018 7.81633 8.17799 7.70473 8.42879 7.83896C8.64909 7.95686 8.6203 8.10541 8.2191 8.92302C7.71988 9.94015 7.44126 10.1545 7.0526 9.82017C6.87927 9.67103 6.83712 9.56084 6.78941 9.13115C6.75825 8.84978 6.73094 8.30404 6.72887 7.91843C6.72664 7.51404 6.69755 7.24706 6.66016 7.28773C6.62454 7.32646 6.43963 7.87576 6.24939 8.50831C5.88232 9.72816 5.77154 9.93384 5.55495 9.79784C5.42465 9.71599 5.40707 9.61285 5.25956 8.06304L5.19946 7.43234L4.95786 8.21144C4.54412 9.54526 4.46911 9.72913 4.3279 9.75628C4.03214 9.81334 3.97961 9.65099 3.97961 8.68046C3.97961 7.65598 3.8876 7.1463 3.65677 6.89135C3.45019 6.66326 3.24013 6.70971 3.05589 7.02432C3.03163 7.06809 2.90378 7.41179 2.90378 8.02601C2.90378 8.67771 2.99297 8.93118 3.10472 9.19689C3.36301 9.7482 4.01597 10.4313 4.56364 10.7232C6.40009 11.702 8.68789 11.0389 9.55566 9.27628C9.71022 8.98587 9.86953 8.72453 9.86634 8.0275C9.86337 7.38552 9.71838 7.12797 9.60189 6.85959C9.26376 6.12561 8.46069 5.39518 7.63737 5.07278C6.48579 4.6218 5.05017 4.83757 4.09929 5.60443C3.94065 5.73242 3.76769 5.83712 3.71501 5.83712C3.59941 5.83712 3.38601 5.63477 3.38601 5.52518C3.38601 5.37871 3.88263 4.97699 4.39617 4.70816C5.17512 4.30029 5.68339 4.1743 6.53951 4.17704C7.16776 4.17904 7.37871 4.21333 7.91547 4.40053C9.45163 4.9364 10.5143 6.09585 10.7449 7.48799C11.0279 9.19555 9.85988 10.9831 8.04005 11.6275C7.44215 11.8393 6.01224 11.8976 5.37375 11.7365Z" fill="#FFAD14"/>
</g>
<defs>
<clipPath id="clip0_1457_1295">
<rect width="16" height="16" fill="white"/>
</clipPath>
</defs>
</svg>
