<svg width="16" height="16" viewBox="0 0 16 16" fill="none" xmlns="http://www.w3.org/2000/svg">
<g clip-path="url(#clip0_2179_3838)">
<path fill-rule="evenodd" clip-rule="evenodd" d="M9.27235 0.0105237L9.25989 7.08243L8.96898 6.26158L8.96842 6.25997L8.59249 14.1319C8.9621 15.1757 9.16012 15.7329 9.16235 15.7351C9.16526 15.738 9.37589 15.7507 9.63042 15.7634C10.4016 15.8016 11.3572 15.8836 12.0822 15.9737C12.25 15.9946 12.3945 16.0052 12.4032 15.9975C12.4119 15.9897 12.4166 12.3894 12.4137 7.9969L12.4084 0.0105237H9.27235ZM3.6001 0V7.99447C3.6001 12.3914 3.6044 15.9933 3.60967 15.9985C3.61493 16.0038 3.88723 15.9781 4.21478 15.9414C4.54232 15.9047 4.99501 15.8591 5.22074 15.8401C5.56694 15.8108 6.6006 15.7444 6.7203 15.7436C6.75512 15.7434 6.75735 15.5638 6.76239 12.3575L6.76772 8.97162L7.01782 9.67924C7.05647 9.78861 7.0686 9.82276 7.10625 9.92931L7.48208 2.05928C7.40245 1.83414 7.44419 1.95233 7.35294 1.69431C7.04586 0.826108 6.78529 0.0897138 6.77387 0.0578802L6.75309 0H3.6001Z" fill="#FF00FF"/>
<path fill-rule="evenodd" clip-rule="evenodd" d="M3.6001 0L6.7678 8.9757L6.76772 8.97162L7.01782 9.67924C8.41 13.6186 9.15795 15.7307 9.16235 15.7351C9.16526 15.738 9.37589 15.7507 9.63042 15.7634C10.4016 15.8016 11.3572 15.8836 12.0822 15.9737C12.2492 15.9945 12.3931 16.005 12.4032 15.9975L9.25997 7.08078L9.25989 7.08243L8.96898 6.26158C8.68472 5.45953 8.49493 4.92314 7.35294 1.69431C7.04586 0.826108 6.78529 0.0897138 6.77387 0.0578802L6.75309 0H3.6001Z" fill="#FF00FF"/>
</g>
<defs>
<clipPath id="clip0_2179_3838">
<rect width="16" height="16" fill="white"/>
</clipPath>
</defs>
</svg>
