<svg width="16" height="16" viewBox="0 0 16 16" fill="none" xmlns="http://www.w3.org/2000/svg">
<g clip-path="url(#clip0_1447_1789)">
<path fill-rule="evenodd" clip-rule="evenodd" d="M7.28155 5.02278V1.33271L7.3843 1.22998H8.61715L8.7198 1.33271V5.02278L8.61715 5.12553H7.3843L7.28155 5.02278ZM3.83305 4.67848V4.84786L5.12555 6.14038H6.021L6.1404 6.01958V5.12553L4.8479 3.83301H4.67852L3.83305 4.67848ZM4.67852 12.1655H4.8479L6.1404 10.873V9.97758L6.021 9.85953L5.12555 9.85818L3.83305 11.152V11.32L4.67852 12.1655ZM5.02285 8.71843H0.102733L0 8.61568V7.38288L0.102733 7.28013H5.02285L5.12555 7.38288V8.61568L5.02285 8.71843ZM10.9772 8.71843H15.8973L16 8.61568V7.38288L15.8973 7.28013H10.9772L10.8744 7.38288V8.61568L10.9772 8.71843ZM7.28155 10.9757V14.6658L7.3843 14.7685H8.61715L8.7198 14.6658V10.9757L8.61715 10.873H7.3843L7.28155 10.9757ZM7.00248 9.16123H8.99608L9.16128 8.99603V7.00248L8.99608 6.83728H7.00248L6.83728 7.00248V8.99603L7.00248 9.16123Z" fill="#FF00FF"/>
</g>
<defs>
<clipPath id="clip0_1447_1789">
<rect width="16" height="16" fill="white"/>
</clipPath>
</defs>
</svg>
