<svg width="16" height="16" viewBox="0 0 16 16" fill="none" xmlns="http://www.w3.org/2000/svg">
<g clip-path="url(#clip0_1447_2997)">
<path fill-rule="evenodd" clip-rule="evenodd" d="M6.83715 4.17827C6.74881 4.1379 4.68319 3.26322 4.68319 3.26322C4.68191 3.26196 4.68064 3.26094 4.67946 3.26002L4.67886 3.25956C4.67406 3.25585 4.67109 3.25354 4.67639 3.24304C4.67639 3.23631 4.67639 3.22958 4.68319 3.22285L7.91752 0.00672829C7.91752 0 7.92432 0 7.93111 0C7.93401 0 7.93567 0 7.93715 0.000519691C7.93914 0.0012203 7.9408 0.0028654 7.9447 0.00672829L9.33764 1.38603C9.34444 1.39276 9.34444 1.40621 9.33764 1.41294L7.65932 4.01679C7.65253 4.02352 7.64573 4.03025 7.63894 4.03025H7.63214C7.54381 4.00333 7.45548 3.98988 7.36714 3.98988C7.18368 3.98988 7.00022 4.05716 6.85753 4.17154C6.85363 4.17541 6.85197 4.17705 6.84998 4.17775C6.8485 4.17827 6.84684 4.17827 6.84394 4.17827H6.83715ZM8.17573 4.72999C8.16214 4.59543 8.11458 4.46086 8.03983 4.34648C8.03304 4.33975 8.03304 4.32629 8.03983 4.31284L9.67739 1.76954C9.67739 1.76281 9.68418 1.75608 9.69098 1.75608C9.69387 1.75608 9.69553 1.75608 9.69701 1.7566C9.699 1.75731 9.70066 1.75895 9.70457 1.76281L11.1587 3.2094C11.1655 3.21612 11.1655 3.22285 11.1655 3.22958L10.7849 5.59121C10.7849 5.60467 10.7781 5.6114 10.7714 5.6114C10.683 5.63831 10.6015 5.67868 10.5335 5.73251C10.5335 5.73924 10.5267 5.73924 10.5199 5.73924H10.5132L8.18932 4.75018C8.18252 4.74345 8.17573 4.73672 8.17573 4.72999ZM11.4848 5.81325C11.4305 5.75269 11.3625 5.69887 11.281 5.6585C11.2764 5.6585 11.2719 5.65251 11.2674 5.64653C11.2651 5.64354 11.2628 5.64055 11.2606 5.63831L11.5799 3.68038C11.5799 3.66692 11.5867 3.66019 11.5935 3.66019H11.6003C11.6003 3.66019 11.6071 3.66019 11.6139 3.66692L13.0748 5.1135C13.0816 5.12023 13.0816 5.12696 13.0816 5.13369C13.0816 5.14042 13.0748 5.14715 13.068 5.15387L11.5052 5.81997H11.4984L11.4943 5.81986L11.4924 5.81946C11.4904 5.81875 11.4887 5.81711 11.4848 5.81325ZM15.9762 7.98649L13.4825 5.51047C13.4757 5.50374 13.4689 5.50374 13.4689 5.50374H13.4621L11.7702 6.22367C11.7634 6.2304 11.7566 6.23713 11.7566 6.24386C11.7566 6.25059 11.7634 6.26404 11.7702 6.26404L15.9422 8.03358H15.949C15.9558 8.03358 15.9626 8.03358 15.9626 8.02686L15.9762 8.0134C15.9898 8.0134 15.9898 7.99321 15.9762 7.98649ZM11.5596 6.69465L15.5617 8.39018C15.5685 8.39691 15.5685 8.40364 15.5685 8.41037C15.5685 8.4171 15.5685 8.42383 15.5617 8.43055L13.3466 10.6307C13.3466 10.6374 13.3398 10.6374 13.333 10.6374H13.3262L10.9073 10.1328C10.8937 10.1328 10.8869 10.1261 10.8869 10.1126C10.8665 9.92423 10.7781 9.75603 10.6287 9.64165C10.6219 9.63492 10.6219 9.62819 10.6219 9.62146L11.0499 6.9907C11.0499 6.97724 11.0635 6.97051 11.0703 6.97051C11.2606 6.9436 11.4237 6.8494 11.5324 6.70138C11.5392 6.69465 11.546 6.69465 11.5528 6.69465H11.5596ZM10.2617 6.14293L8.07381 5.21443H8.06701C8.06022 5.21443 8.05342 5.22116 8.04663 5.22789C7.89714 5.45665 7.64573 5.59121 7.37394 5.59121C7.33835 5.59121 7.30276 5.58609 7.26265 5.58031L7.24484 5.57776H7.23804C7.23125 5.57776 7.22445 5.58448 7.21766 5.59121L5.41703 8.38345C5.41023 8.39018 5.41023 8.40364 5.41703 8.41037C5.42382 8.4171 5.43062 8.4171 5.43741 8.4171H5.44421L10.2482 6.36497C10.2549 6.35824 10.2617 6.35151 10.2617 6.34478V6.31787V6.28423C10.2617 6.24386 10.2685 6.20349 10.2753 6.16985C10.2753 6.15639 10.2685 6.14966 10.2617 6.14293ZM10.7714 10.5903L12.8981 11.0277C12.9049 11.0277 12.9117 11.0344 12.9117 11.0546C12.9117 11.0613 12.9117 11.068 12.9049 11.0748L9.95597 14.0016C9.95597 14.0083 9.94918 14.0083 9.94238 14.0083H9.92879C9.922 14.0016 9.91521 13.9949 9.91521 13.9814L10.4248 10.846C10.4248 10.8393 10.4316 10.8258 10.4384 10.8258C10.5607 10.7787 10.6626 10.698 10.7442 10.5971C10.7476 10.5971 10.751 10.5954 10.7544 10.5937C10.7578 10.592 10.7612 10.5903 10.7646 10.5903H10.7714ZM9.92879 10.8124C9.72495 10.7316 9.57546 10.55 9.52111 10.3414C9.52111 10.3347 9.51431 10.3279 9.50072 10.3212L5.55972 9.50708H5.55292C5.54613 9.50708 5.53933 9.51381 5.53254 9.52054C5.52646 9.53058 5.52098 9.54002 5.51574 9.54904L5.51574 9.54904C5.50344 9.57025 5.49248 9.58912 5.47818 9.608C5.47139 9.61473 5.47139 9.62819 5.47818 9.63492L9.06585 14.8292C9.06975 14.833 9.07141 14.8347 9.07341 14.8354C9.07489 14.8359 9.07655 14.8359 9.07944 14.8359C9.08624 14.8359 9.09303 14.8359 9.09303 14.8292L9.31047 14.6139C9.31047 14.6105 9.31216 14.6088 9.31386 14.6071C9.31556 14.6054 9.31726 14.6038 9.31726 14.6004L9.92879 10.8326C9.94238 10.8326 9.94238 10.8191 9.92879 10.8124ZM5.66164 9.04956C5.64805 9.04956 5.64126 9.04283 5.64126 9.02937C5.64126 8.99443 5.63553 8.96233 5.62965 8.92938C5.62648 8.91157 5.62326 8.89351 5.62087 8.87462C5.62087 8.86116 5.62087 8.85444 5.63446 8.84771L10.4656 6.78212H10.4724C10.4724 6.78212 10.4792 6.78212 10.486 6.78885C10.5199 6.82249 10.5471 6.84268 10.5743 6.86286C10.5879 6.86286 10.5879 6.87632 10.5879 6.88305L10.1666 9.47344C10.1666 9.4869 10.1598 9.49362 10.1462 9.49362C9.91521 9.50708 9.71136 9.64165 9.59585 9.8435C9.58905 9.85022 9.58226 9.85695 9.57546 9.85695H9.56867L5.66164 9.04956ZM4.0037 9.68202L4.00369 9.682C3.98331 9.65509 3.96293 9.62818 3.94255 9.59455C3.93575 9.58782 3.92896 9.58109 3.92216 9.58109H3.91537L2.23025 10.301C2.22346 10.301 2.21666 10.3077 2.21666 10.3145C2.21666 10.3212 2.21666 10.3279 2.22346 10.3347L3.04563 11.1488C3.05243 11.1555 3.05922 11.1555 3.05922 11.1555C3.06602 11.1555 3.07281 11.1488 3.07961 11.1421L4.0105 9.69547C4.0105 9.69547 4.0105 9.68874 4.0037 9.68202ZM5.09767 9.93096C5.10446 9.93096 5.11126 9.93769 5.11805 9.94442L8.71932 15.179C8.72611 15.1858 8.72611 15.1992 8.71932 15.2059L7.93111 15.9932C7.93111 15.9999 7.92432 15.9999 7.91752 15.9999C7.91752 15.9999 7.91073 15.9999 7.90394 15.9932L3.40576 11.5323C3.39896 11.5256 3.39896 11.5121 3.40576 11.5054L3.41255 11.4987L4.39101 9.97806C4.3978 9.97133 4.4046 9.96461 4.41139 9.96461H4.41819C4.52011 9.99825 4.61524 10.0117 4.71716 10.0117C4.84626 10.0117 4.96857 9.98479 5.09088 9.93096H5.09767ZM4.48614 8.18833C4.49293 8.19506 4.49973 8.20179 4.50652 8.20179H4.51331C4.58126 8.18833 4.65601 8.17488 4.72395 8.17488C4.7987 8.17488 4.88024 8.18833 4.95498 8.20852H4.96177C4.96857 8.20852 4.97536 8.20179 4.98216 8.19506L6.80317 5.36918C6.80997 5.36245 6.80997 5.34899 6.80317 5.34227C6.66048 5.19424 6.57894 4.99912 6.57894 4.79055C6.57894 4.72999 6.58574 4.66944 6.59933 4.60888C6.59933 4.59543 6.59253 4.5887 6.58574 4.58197C6.4921 4.54106 6.10041 4.37525 5.66766 4.19206C5.03275 3.92328 4.30947 3.6171 4.30947 3.61309H4.30267C4.29588 3.61309 4.28909 3.61309 4.28909 3.61982L2.5564 5.34227C2.54961 5.34899 2.54961 5.36245 2.5564 5.36918L4.48614 8.18833ZM3.8814 8.6795C3.88819 8.6795 3.89499 8.67277 3.90178 8.66604C3.94255 8.5853 4.0037 8.51129 4.06486 8.44401C4.07165 8.43728 4.07165 8.42382 4.06486 8.4171C4.04447 8.39018 2.20307 5.72578 2.20307 5.71905C2.20043 5.71643 2.19881 5.71483 2.19702 5.71346C2.19422 5.7113 2.19099 5.7097 2.18269 5.70559C2.17589 5.70559 2.1691 5.70559 2.1691 5.71232L0.0219315 7.83846C0.0151367 7.84519 0.0151367 7.85192 0.0151367 7.85865C0.0151367 7.86538 0.0219316 7.8721 0.0355212 7.8721L3.8814 8.6795ZM3.68435 9.12357C3.69793 9.12357 3.70473 9.1303 3.70473 9.14375C3.70473 9.15048 3.69793 9.15721 3.68435 9.17067L1.83615 9.95788H1.82936C1.82936 9.95788 1.82256 9.95788 1.81577 9.95115L0.327699 8.47092C0.320904 8.4642 0.314109 8.45074 0.320904 8.44401C0.327699 8.43728 0.334494 8.43055 0.341289 8.43055H0.348083L3.68435 9.12357Z" fill="url(#paint0_radial_1447_2997)"/>
</g>
<defs>
<radialGradient id="paint0_radial_1447_2997" cx="0" cy="0" r="1" gradientUnits="userSpaceOnUse" gradientTransform="translate(8.00076) scale(15.9712 15.9999)">
<stop stop-color="#20C6B7"/>
<stop offset="1" stop-color="#4D9ABF"/>
</radialGradient>
<clipPath id="clip0_1447_2997">
<rect width="16" height="16" fill="white"/>
</clipPath>
</defs>
</svg>
