<svg width="16" height="16" viewBox="0 0 16 16" fill="none" xmlns="http://www.w3.org/2000/svg">
<path d="M8.9962 9.16123H7.0026L6.8374 8.99603V7.00248L7.0026 6.83728H8.9962L9.1614 7.00248V8.99603L8.9962 9.16123Z" fill="white"/>
<path d="M4.8479 12.1655H4.67852L3.83305 11.32V11.152L5.12555 9.85818L6.021 9.85953L6.1404 9.97758V10.873L4.8479 12.1655Z" fill="#05BDBA"/>
<path d="M3.83305 4.84786V4.67848L4.67852 3.83301H4.8479L6.1404 5.12553V6.01958L6.021 6.14038H5.12555L3.83305 4.84786Z" fill="#05BDBA"/>
<path d="M5.02285 8.71843H0.102733L0 8.61568V7.38288L0.102733 7.28013H5.02285L5.12555 7.38288V8.61568L5.02285 8.71843Z" fill="#05BDBA"/>
<path d="M15.8973 8.71843H10.9772L10.8744 8.61568V7.38288L10.9772 7.28013H15.8973L16 7.38288V8.61568L15.8973 8.71843Z" fill="#05BDBA"/>
<path d="M7.28155 5.02278V1.33271L7.3843 1.22998H8.61715L8.7198 1.33271V5.02278L8.61715 5.12553H7.3843L7.28155 5.02278Z" fill="#05BDBA"/>
<path d="M7.28155 14.6658V10.9757L7.3843 10.873H8.61715L8.7198 10.9757V14.6658L8.61715 14.7685H7.3843L7.28155 14.6658Z" fill="#05BDBA"/>
</svg>
