<svg width="20" height="20" viewBox="0 0 20 20" fill="none" xmlns="http://www.w3.org/2000/svg">
<path fill-rule="evenodd" clip-rule="evenodd" d="M8.54631 5.22284C8.43589 5.17238 5.85386 4.07903 5.85386 4.07903C5.852 4.07718 5.85014 4.07575 5.84845 4.07444C5.84246 4.06981 5.83873 4.06693 5.84537 4.0538C5.84537 4.04539 5.84537 4.03698 5.85386 4.02857L9.89678 0.00841037C9.89678 0 9.90528 0 9.91377 0C9.91739 0 9.91947 0 9.92131 0.000649781C9.9238 0.00152504 9.92588 0.00357925 9.93075 0.0084005L9.93075 0.00840456L9.93076 0.00841037L11.6719 1.73254C11.6804 1.74095 11.6804 1.75777 11.6719 1.76618L9.57403 5.02099C9.56554 5.0294 9.55704 5.03781 9.54855 5.03781H9.54006C9.42964 5.00417 9.31922 4.98735 9.20881 4.98735C8.97948 4.98735 8.75016 5.07145 8.57179 5.21443C8.56692 5.21926 8.56484 5.22131 8.56235 5.22219C8.5605 5.22284 8.55842 5.22284 8.5548 5.22284H8.54631ZM10.2195 5.91249C10.2026 5.74428 10.1431 5.57607 10.0497 5.4331C10.0412 5.42469 10.0412 5.40787 10.0497 5.39105L12.0966 2.21193C12.0966 2.20352 12.1051 2.19511 12.1136 2.19511C12.1172 2.19511 12.1193 2.19511 12.1211 2.19576C12.1236 2.19663 12.1257 2.19869 12.1306 2.20352L13.9482 4.01175C13.9567 4.02016 13.9567 4.02857 13.9567 4.03698L13.4811 6.98902C13.4811 7.00584 13.4726 7.01425 13.4641 7.01425C13.3537 7.04789 13.2517 7.09835 13.1668 7.16563C13.1668 7.17404 13.1583 7.17404 13.1498 7.17404H13.1413L10.2365 5.93772C10.228 5.92931 10.2195 5.9209 10.2195 5.91249ZM14.3559 7.26656C14.2879 7.19086 14.203 7.12358 14.1011 7.07312C14.0954 7.07312 14.0898 7.06564 14.0841 7.05817C14.0813 7.05443 14.0784 7.05069 14.0756 7.04789L14.4748 4.60047C14.4748 4.58365 14.4833 4.57524 14.4918 4.57524H14.5003C14.5003 4.57524 14.5088 4.57524 14.5173 4.58365L16.3434 6.39188C16.3519 6.40029 16.3519 6.4087 16.3519 6.41711C16.3519 6.42552 16.3434 6.43393 16.3349 6.44234L14.3814 7.27497H14.3729C14.3693 7.27497 14.3672 7.27497 14.3653 7.27432C14.3628 7.27344 14.3608 7.27139 14.3559 7.26656ZM19.9701 9.98311L16.853 6.88809C16.8445 6.87968 16.836 6.87968 16.836 6.87968H16.8275L14.7126 7.77959C14.7041 7.788 14.6956 7.79641 14.6956 7.80482C14.6956 7.81323 14.7041 7.83005 14.7126 7.83005L19.9277 10.042H19.9361C19.9446 10.042 19.9531 10.042 19.9531 10.0336L19.9701 10.0167C19.9871 10.0167 19.9871 9.99152 19.9701 9.98311ZM14.4493 8.36832L19.452 10.4877C19.4605 10.4961 19.4605 10.5045 19.4605 10.513C19.4605 10.5214 19.4605 10.5298 19.452 10.5382L16.6831 13.2884C16.6831 13.2968 16.6746 13.2968 16.6661 13.2968H16.6576L13.6339 12.666C13.617 12.666 13.6085 12.6576 13.6085 12.6408C13.583 12.4053 13.4726 12.195 13.2857 12.0521C13.2772 12.0436 13.2772 12.0352 13.2772 12.0268L13.8123 8.73837C13.8123 8.72155 13.8293 8.71314 13.8378 8.71314C14.0756 8.6795 14.2794 8.56176 14.4153 8.37673C14.4238 8.36832 14.4323 8.36832 14.4408 8.36832H14.4493ZM12.8271 7.67867L10.0921 6.51804H10.0836C10.0751 6.51804 10.0667 6.52645 10.0582 6.53486C9.8713 6.82081 9.55704 6.98902 9.2173 6.98902C9.17281 6.98902 9.12832 6.98261 9.07819 6.97538L9.05592 6.9722H9.04743C9.03894 6.9722 9.03044 6.98061 9.02195 6.98902L6.77116 10.4793C6.76267 10.4877 6.76267 10.5045 6.77116 10.513C6.77965 10.5214 6.78815 10.5214 6.79664 10.5214H6.80514L12.8101 7.95621C12.8186 7.9478 12.8271 7.93939 12.8271 7.93098V7.89734V7.85528C12.8271 7.80482 12.8355 7.75436 12.844 7.71231C12.844 7.69549 12.8355 7.68708 12.8271 7.67867ZM13.4641 13.2379L16.1225 13.7846C16.131 13.7846 16.1395 13.793 16.1395 13.8182C16.1395 13.8266 16.1395 13.8351 16.131 13.8435L12.4448 17.502C12.4448 17.5104 12.4364 17.5104 12.4279 17.5104H12.4109C12.4024 17.502 12.3939 17.4936 12.3939 17.4767L13.0309 13.5575C13.0309 13.5491 13.0394 13.5323 13.0479 13.5323C13.2008 13.4734 13.3282 13.3725 13.4301 13.2463C13.4343 13.2463 13.4386 13.2442 13.4428 13.2421C13.4471 13.24 13.4513 13.2379 13.4556 13.2379H13.4641ZM12.4109 13.5155C12.1561 13.4145 11.9692 13.1875 11.9013 12.9267C11.9013 12.9183 11.8928 12.9099 11.8758 12.9015L6.94953 11.8839H6.94103C6.93254 11.8839 6.92405 11.8923 6.91555 11.9007C6.90796 11.9132 6.90112 11.925 6.89458 11.9363L6.89457 11.9363L6.89455 11.9363C6.87917 11.9628 6.86548 11.9864 6.8476 12.01C6.83911 12.0184 6.83911 12.0352 6.8476 12.0436L11.3322 18.5365C11.3371 18.5413 11.3391 18.5433 11.3416 18.5442C11.3435 18.5449 11.3456 18.5449 11.3492 18.5449C11.3577 18.5449 11.3662 18.5449 11.3662 18.5365L11.638 18.2673C11.638 18.2631 11.6401 18.261 11.6422 18.2589C11.6443 18.2568 11.6465 18.2547 11.6465 18.2505L12.4109 13.5407C12.4279 13.5407 12.4279 13.5239 12.4109 13.5155ZM7.07693 11.3119C7.05994 11.3119 7.05145 11.3035 7.05145 11.2867C7.05145 11.243 7.04429 11.2029 7.03695 11.1617L7.03694 11.1617L7.03694 11.1617L7.03694 11.1617L7.03694 11.1617L7.03694 11.1617L7.03694 11.1617C7.03297 11.1394 7.02895 11.1169 7.02597 11.0933C7.02597 11.0765 7.02597 11.068 7.04295 11.0596L13.0819 8.47765H13.0904C13.0904 8.47765 13.0988 8.47765 13.1073 8.48606C13.1498 8.52811 13.1838 8.55334 13.2178 8.57858C13.2347 8.57858 13.2347 8.5954 13.2347 8.60381L12.7081 11.8418C12.7081 11.8586 12.6997 11.867 12.6827 11.867C12.3939 11.8839 12.1391 12.0521 11.9947 12.3044C11.9862 12.3128 11.9777 12.3212 11.9692 12.3212H11.9607L7.07693 11.3119ZM5.00451 12.1025C4.97903 12.0689 4.95354 12.0352 4.92806 11.9932C4.91957 11.9848 4.91108 11.9764 4.90258 11.9764H4.89409L2.78769 12.8763C2.7792 12.8763 2.77071 12.8847 2.77071 12.8931C2.77071 12.9015 2.77071 12.9099 2.7792 12.9183L3.80692 13.936C3.81541 13.9444 3.8239 13.9444 3.8239 13.9444C3.8324 13.9444 3.84089 13.936 3.84938 13.9276L5.013 12.1193C5.013 12.1193 5.013 12.1109 5.00451 12.1025ZM6.37197 12.4137C6.38046 12.4137 6.38895 12.4221 6.39745 12.4305L10.899 18.9738C10.9075 18.9822 10.9075 18.999 10.899 19.0074L9.91377 19.9914C9.91377 19.9999 9.90528 19.9999 9.89678 19.9999C9.89678 19.9999 9.88829 19.9999 9.8798 19.9914L4.25707 14.4154C4.24858 14.407 4.24858 14.3901 4.25707 14.3817L4.26557 14.3733L5.48864 12.4726C5.49713 12.4642 5.50562 12.4558 5.51412 12.4558H5.52261C5.65001 12.4978 5.76892 12.5146 5.89633 12.5146C6.0577 12.5146 6.21059 12.481 6.36347 12.4137H6.37197ZM5.60755 10.2354C5.61604 10.2438 5.62453 10.2522 5.63303 10.2522H5.64152C5.72646 10.2354 5.81989 10.2186 5.90482 10.2186C5.99825 10.2186 6.10017 10.2354 6.1936 10.2606H6.2021C6.21059 10.2606 6.21908 10.2522 6.22758 10.2438L8.50384 6.71147C8.51234 6.70306 8.51234 6.68624 8.50384 6.67783C8.32548 6.4928 8.22356 6.2489 8.22356 5.98818C8.22356 5.91249 8.23205 5.8368 8.24904 5.7611C8.24904 5.74428 8.24054 5.73587 8.23205 5.72746C8.11516 5.6764 7.62671 5.46962 7.08666 5.241L7.08625 5.24083L7.08478 5.2402L7.08447 5.24007L7.08424 5.23998C6.29066 4.90403 5.38671 4.52137 5.38671 4.51637H5.37822C5.36973 4.51637 5.36123 4.51637 5.36123 4.52478L3.19538 6.67783C3.18689 6.68624 3.18689 6.70306 3.19538 6.71147L5.60755 10.2354ZM4.85162 10.8494C4.86012 10.8494 4.86861 10.841 4.8771 10.8326C4.92806 10.7316 5.00451 10.6391 5.08095 10.555C5.08944 10.5466 5.08944 10.5298 5.08095 10.5214C5.05547 10.4877 2.75372 7.15722 2.75372 7.14881L2.75371 7.14881C2.75041 7.14554 2.74839 7.14354 2.74616 7.14182C2.74265 7.13913 2.73861 7.13713 2.72824 7.13199C2.71974 7.13199 2.71125 7.13199 2.71125 7.1404L0.0272924 9.79808C0.0187988 9.80649 0.0187988 9.8149 0.0187988 9.82331C0.0187988 9.83172 0.0272924 9.84013 0.0442794 9.84013L4.85162 10.8494ZM4.60531 11.4045C4.6223 11.4045 4.63079 11.4129 4.63079 11.4297C4.63079 11.4381 4.6223 11.4465 4.60531 11.4633L2.29507 12.4473H2.28657C2.28657 12.4473 2.27808 12.4473 2.26959 12.4389L0.409502 10.5887C0.401008 10.5802 0.392514 10.5634 0.401008 10.555C0.409502 10.5466 0.417995 10.5382 0.426489 10.5382H0.434982L4.60531 11.4045Z" fill="#FF00FF"/>
</svg>
