<svg width="16" height="16" viewBox="0 0 16 16" fill="none" xmlns="http://www.w3.org/2000/svg">
<g clip-path="url(#clip0_1447_1789)">
<path fill-rule="evenodd" clip-rule="evenodd" d="M6.8369 4.17827C6.74857 4.1379 4.68294 3.26322 4.68294 3.26322C4.68167 3.26196 4.6804 3.26094 4.67921 3.26002L4.67862 3.25956C4.67382 3.25585 4.67084 3.25354 4.67615 3.24304C4.67615 3.23631 4.67615 3.22958 4.68294 3.22285L7.91728 0.00672829C7.91728 0 7.92408 0 7.93087 0C7.93376 0 7.93543 0 7.9369 0.000519746C7.9389 0.00122033 7.94056 0.00286527 7.94446 0.00672748L7.94446 0.00672829L9.3374 1.38603C9.34419 1.39276 9.34419 1.40621 9.3374 1.41294L7.65908 4.01679C7.65228 4.02352 7.64549 4.03025 7.63869 4.03025H7.6319C7.54356 4.00333 7.45523 3.98988 7.3669 3.98988C7.18344 3.98988 6.99998 4.05716 6.85729 4.17154C6.85339 4.17541 6.85173 4.17705 6.84973 4.17775C6.84825 4.17827 6.84659 4.17827 6.8437 4.17827H6.8369ZM8.17548 4.72999C8.16189 4.59543 8.11433 4.46086 8.03959 4.34648C8.03279 4.33975 8.03279 4.32629 8.03959 4.31284L9.67714 1.76954C9.67714 1.76281 9.68394 1.75608 9.69073 1.75608C9.69363 1.75608 9.69529 1.75608 9.69677 1.7566C9.69876 1.75731 9.70042 1.75895 9.70432 1.76281L11.1584 3.2094C11.1652 3.21612 11.1652 3.22285 11.1652 3.22958L10.7847 5.59121C10.7847 5.60467 10.7779 5.6114 10.7711 5.6114C10.6828 5.63831 10.6012 5.67868 10.5333 5.73251C10.5333 5.73924 10.5265 5.73924 10.5197 5.73924H10.5129L8.18907 4.75018C8.18228 4.74345 8.17548 4.73672 8.17548 4.72999ZM11.4846 5.81325C11.4302 5.75269 11.3623 5.69887 11.2807 5.6585C11.2762 5.6585 11.2717 5.65251 11.2671 5.64653C11.2649 5.64354 11.2626 5.64055 11.2603 5.63831L11.5797 3.68038C11.5797 3.66692 11.5865 3.66019 11.5933 3.66019H11.6001C11.6001 3.66019 11.6069 3.66019 11.6137 3.66692L13.0746 5.1135C13.0814 5.12023 13.0814 5.12696 13.0814 5.13369C13.0814 5.14042 13.0746 5.14715 13.0678 5.15387L11.505 5.81997H11.4982L11.494 5.81986L11.4921 5.81946C11.4901 5.81875 11.4885 5.81711 11.4846 5.81325ZM15.976 7.98649L13.4822 5.51047C13.4755 5.50374 13.4687 5.50374 13.4687 5.50374H13.4619L11.7699 6.22367C11.7632 6.2304 11.7564 6.23713 11.7564 6.24386C11.7564 6.25059 11.7632 6.26404 11.7699 6.26404L15.942 8.03358H15.9488C15.9556 8.03358 15.9624 8.03358 15.9624 8.02686L15.976 8.0134C15.9895 8.0134 15.9895 7.99321 15.976 7.98649ZM11.5593 6.69465L15.5615 8.39018C15.5683 8.39691 15.5683 8.40364 15.5683 8.41037C15.5683 8.4171 15.5683 8.42383 15.5615 8.43055L13.3463 10.6307C13.3463 10.6374 13.3396 10.6374 13.3328 10.6374H13.326L10.907 10.1328C10.8934 10.1328 10.8866 10.1261 10.8866 10.1126C10.8662 9.92423 10.7779 9.75603 10.6284 9.64165C10.6216 9.63492 10.6216 9.62819 10.6216 9.62146L11.0497 6.9907C11.0497 6.97724 11.0633 6.97051 11.0701 6.97051C11.2603 6.9436 11.4234 6.8494 11.5321 6.70138C11.5389 6.69465 11.5457 6.69465 11.5525 6.69465H11.5593ZM10.2615 6.14293L8.07356 5.21443H8.06677C8.05997 5.21443 8.05318 5.22116 8.04638 5.22789C7.8969 5.45665 7.64549 5.59121 7.37369 5.59121C7.3381 5.59121 7.30251 5.58609 7.2624 5.58031L7.24459 5.57776H7.2378C7.231 5.57776 7.22421 5.58448 7.21741 5.59121L5.41678 8.38345C5.40999 8.39018 5.40999 8.40364 5.41678 8.41037C5.42358 8.4171 5.43037 8.4171 5.43717 8.4171H5.44396L10.2479 6.36497C10.2547 6.35824 10.2615 6.35151 10.2615 6.34478V6.31787V6.28423C10.2615 6.24386 10.2683 6.20349 10.2751 6.16985C10.2751 6.15639 10.2683 6.14966 10.2615 6.14293ZM10.7711 10.5903L12.8979 11.0277C12.9047 11.0277 12.9115 11.0344 12.9115 11.0546C12.9115 11.0613 12.9115 11.068 12.9047 11.0748L9.95573 14.0016C9.95573 14.0083 9.94893 14.0083 9.94214 14.0083H9.92855C9.92176 14.0016 9.91496 13.9949 9.91496 13.9814L10.4246 10.846C10.4246 10.8393 10.4314 10.8258 10.4382 10.8258C10.5605 10.7787 10.6624 10.698 10.7439 10.5971C10.7473 10.5971 10.7507 10.5954 10.7541 10.5937C10.7575 10.592 10.7609 10.5903 10.7643 10.5903H10.7711ZM9.92855 10.8124C9.72471 10.7316 9.57522 10.55 9.52086 10.3414C9.52086 10.3347 9.51407 10.3279 9.50048 10.3212L5.55947 9.50708H5.55268C5.54589 9.50708 5.53909 9.51381 5.5323 9.52054C5.52621 9.53058 5.52073 9.54002 5.5155 9.54904L5.51549 9.54904C5.50319 9.57025 5.49224 9.58912 5.47794 9.608C5.47114 9.61473 5.47114 9.62819 5.47794 9.63492L9.06561 14.8292C9.0724 14.8359 9.0724 14.8359 9.0792 14.8359C9.08599 14.8359 9.09279 14.8359 9.09279 14.8292L9.31022 14.6139C9.31022 14.6105 9.31192 14.6088 9.31362 14.6071C9.31532 14.6054 9.31702 14.6038 9.31702 14.6004L9.92855 10.8326C9.94214 10.8326 9.94214 10.8191 9.92855 10.8124ZM5.6614 9.04956C5.64781 9.04956 5.64101 9.04283 5.64101 9.02937C5.64101 8.99443 5.63529 8.96233 5.62941 8.92938C5.62623 8.91157 5.62301 8.89351 5.62063 8.87462C5.62063 8.86116 5.62063 8.85444 5.63422 8.84771L10.4653 6.78212H10.4721C10.4721 6.78212 10.4789 6.78212 10.4857 6.78885C10.5197 6.82249 10.5469 6.84267 10.574 6.86285L10.5741 6.86286C10.5876 6.86286 10.5876 6.87632 10.5876 6.88305L10.1664 9.47344C10.1664 9.4869 10.1596 9.49362 10.146 9.49362C9.91496 9.50708 9.71112 9.64165 9.5956 9.8435C9.58881 9.85022 9.58201 9.85695 9.57522 9.85695H9.56842L5.6614 9.04956ZM4.00346 9.68202L4.00345 9.682C3.98307 9.65509 3.96269 9.62818 3.9423 9.59455C3.93551 9.58782 3.92871 9.58109 3.92192 9.58109H3.91512L2.23001 10.301C2.22321 10.301 2.21642 10.3077 2.21642 10.3145C2.21642 10.3212 2.21642 10.3279 2.22321 10.3347L3.04539 11.1488C3.05218 11.1555 3.05898 11.1555 3.05898 11.1555C3.06577 11.1555 3.07257 11.1488 3.07936 11.1421L4.01025 9.69547C4.01025 9.69547 4.01025 9.68874 4.00346 9.68202ZM5.09743 9.93096C5.10422 9.93096 5.11102 9.93769 5.11781 9.94442L8.71907 15.179C8.72587 15.1858 8.72587 15.1992 8.71907 15.2059L7.93087 15.9932C7.93087 15.9999 7.92408 15.9999 7.91728 15.9999C7.91728 15.9999 7.91049 15.9999 7.90369 15.9932L3.40551 11.5323C3.39872 11.5256 3.39872 11.5121 3.40551 11.5054L3.41231 11.4987L4.39076 9.97806C4.39756 9.97133 4.40435 9.96461 4.41115 9.96461H4.41794C4.51987 9.99825 4.61499 10.0117 4.71692 10.0117C4.84602 10.0117 4.96832 9.98479 5.09063 9.93096H5.09743ZM4.48589 8.18833C4.49269 8.19506 4.49948 8.20179 4.50628 8.20179H4.51307C4.58102 8.18833 4.65576 8.17488 4.72371 8.17488C4.79845 8.17488 4.87999 8.18833 4.95473 8.20852H4.96153C4.96832 8.20852 4.97512 8.20179 4.98191 8.19506L6.80293 5.36918C6.80972 5.36245 6.80972 5.34899 6.80293 5.34227C6.66024 5.19424 6.5787 4.99912 6.5787 4.79055C6.5787 4.72999 6.58549 4.66944 6.59908 4.60888C6.59908 4.59543 6.59229 4.5887 6.58549 4.58197C6.49185 4.54106 6.10016 4.37525 5.66742 4.19206C5.03251 3.92328 4.30923 3.6171 4.30923 3.61309H4.30243C4.29564 3.61309 4.28884 3.61309 4.28884 3.61982L2.55616 5.34227C2.54936 5.34899 2.54936 5.36245 2.55616 5.36918L4.48589 8.18833ZM3.88115 8.6795C3.88795 8.6795 3.89474 8.67277 3.90154 8.66604C3.94231 8.5853 4.00346 8.51129 4.06461 8.44401C4.07141 8.43728 4.07141 8.42382 4.06461 8.4171C4.04423 8.39018 2.20283 5.72578 2.20283 5.71905C2.20018 5.71643 2.19857 5.71483 2.19678 5.71346C2.19397 5.7113 2.19074 5.7097 2.18244 5.70559C2.17565 5.70559 2.16885 5.70559 2.16885 5.71232L0.0216874 7.83846C0.0148926 7.84519 0.0148926 7.85192 0.0148926 7.85865C0.0148926 7.86538 0.0216874 7.8721 0.0352771 7.8721L3.88115 8.6795ZM3.6841 9.12357C3.69769 9.12357 3.70449 9.1303 3.70449 9.14375C3.70449 9.15048 3.69769 9.15721 3.6841 9.17067L1.83591 9.95788H1.82911C1.82911 9.95788 1.82232 9.95788 1.81552 9.95115L0.327455 8.47092C0.32066 8.4642 0.313865 8.45074 0.32066 8.44401C0.327455 8.43728 0.33425 8.43055 0.341044 8.43055H0.347839L3.6841 9.12357Z" fill="#FF00FF"/>
</g>
<defs>
<clipPath id="clip0_1447_1789">
<rect width="16" height="16" fill="white"/>
</clipPath>
</defs>
</svg>
