<svg width="20" height="20" viewBox="0 0 20 20" fill="none" xmlns="http://www.w3.org/2000/svg">
<path d="M17.6321 4.29586L10.6605 0.270236C10.035 -0.0900787 9.2586 -0.0900787 8.63185 0.270236C8.00638 0.631819 7.61815 1.30424 7.61815 2.02614V2.55138L7.16395 2.28876C6.53847 1.92844 5.76202 1.92844 5.13528 2.28876C4.5098 2.65034 4.12157 3.32276 4.12157 4.04593V4.57117L3.66738 4.30855C3.0419 3.94824 2.26545 3.94824 1.6387 4.30855C1.01323 4.67013 0.625 5.34255 0.625 6.06572V18.6793C0.625 19.0421 0.835605 19.3796 1.16293 19.5369C1.48899 19.6955 1.88483 19.6524 2.16902 19.4278L5.62627 16.7013L10.9574 19.7792C11.1046 19.8642 11.2695 19.9061 11.4344 19.9061C11.5994 19.9061 11.7643 19.863 11.9115 19.7792C12.2058 19.6092 12.3885 19.2933 12.3885 18.9533V11.3626C12.3885 10.1167 11.7186 8.95712 10.6402 8.33418L8.89194 7.32428V2.0274C8.89194 1.75844 9.03657 1.50723 9.27001 1.37275C9.50346 1.23826 9.79272 1.23826 10.0262 1.37275L16.9977 5.39711C17.6841 5.79295 18.1104 6.53261 18.1104 7.32428V16.7762C18.1104 17.0452 17.9658 17.2964 17.7323 17.4309L15.8851 18.4978V9.34281C15.8851 8.09693 15.2152 6.93733 14.1368 6.31439L9.84474 3.83659V5.30449L13.5012 7.41563C14.1875 7.81147 14.6138 8.54986 14.6138 9.34281V19.0472C14.6138 19.3859 14.7965 19.7031 15.0909 19.8731C15.238 19.9581 15.403 20 15.5679 20C15.7328 20 15.8978 19.9569 16.0449 19.8731L18.3692 18.5308C18.9947 18.1692 19.3829 17.4968 19.3829 16.7737V7.32175C19.3804 6.07967 18.7105 4.9188 17.6321 4.29586ZM10.0021 9.43542C10.6884 9.83126 11.1147 10.5697 11.1147 11.3626V18.404L6.6996 15.8551L8.11675 14.7386C8.60775 14.3517 8.8894 13.7719 8.8894 13.1464V8.79472L10.0021 9.43542ZM7.61815 8.05887V13.1439C7.61815 13.3773 7.51285 13.5943 7.33015 13.7376L1.89625 18.0221V6.06445C1.89625 5.79548 2.04088 5.54428 2.27433 5.40979C2.50777 5.27531 2.79704 5.27531 3.03048 5.40979L4.12157 6.03908V15.0533L5.39283 14.051V4.04593C5.39283 3.77696 5.53746 3.52575 5.7709 3.39127C6.00435 3.25679 6.29361 3.25679 6.52706 3.39127L7.61815 4.02055V6.5897L6.3469 5.85511V7.32428L7.61815 8.05887Z" fill="#0052CD"/>
</svg>
