<svg width="20" height="20" viewBox="0 0 20 20" fill="none" xmlns="http://www.w3.org/2000/svg">
<path d="M4.96357 1.25817C3.21448 1.5709 1.80721 2.86545 1.36357 4.56727C1.20357 5.18181 1.19266 5.54181 1.21085 10.3091C1.22176 14.6873 1.22539 14.7891 1.29812 15.1273C1.70176 16.9491 2.9963 18.2473 4.8363 18.6764C5.0763 18.7309 5.38176 18.7418 7.34903 18.7527C9.38539 18.7673 9.5963 18.7636 9.65085 18.7091C9.70539 18.6545 9.70903 17.9527 9.70903 9.99636C9.70903 4.09818 9.69812 1.31999 9.67266 1.26908C9.6363 1.20363 9.57448 1.19999 7.44357 1.20363C5.71267 1.20727 5.19266 1.21818 4.96357 1.25817ZM8.25448 9.98545V17.3527L6.77448 17.3345C5.41085 17.32 5.26539 17.3127 4.99267 17.2436C3.82176 16.9418 2.95266 16.04 2.70903 14.8654C2.62903 14.4982 2.62903 5.4509 2.70539 5.0909C2.92357 4.06909 3.63266 3.22181 4.58903 2.83999C5.06903 2.64727 5.29085 2.62545 6.84721 2.62181L8.25448 2.61818V9.98545Z" fill="#FF00FF"/>
<path d="M5.27639 4.83997C5.0473 4.88361 4.69821 5.05815 4.51275 5.22179C4.13093 5.5527 3.94184 6.02179 3.97093 6.57452C3.98548 6.86179 4.00366 6.93815 4.12003 7.17088C4.29094 7.52361 4.54912 7.78179 4.90185 7.95633C5.14548 8.07633 5.2073 8.09088 5.52367 8.10179C5.81094 8.1127 5.91276 8.10179 6.10548 8.03633C6.89458 7.77088 7.37094 7.00361 7.2364 6.21815C7.08003 5.28361 6.19276 4.65815 5.27639 4.83997Z" fill="#FF00FF"/>
<path d="M11.48 1.22545C11.4655 1.23636 11.4546 5.17818 11.4546 9.98545C11.4546 17.9164 11.4582 18.72 11.5128 18.7418C11.611 18.7782 14.4328 18.7636 14.7819 18.7273C16.2582 18.56 17.5601 17.6618 18.2692 16.3273C18.3601 16.1564 18.4801 15.8691 18.5419 15.6909C18.771 15.0073 18.7637 15.1891 18.7637 9.96364C18.7637 5.79273 18.7564 5.17091 18.7055 4.90545C18.3455 3.01091 16.9019 1.58182 15.0037 1.25455C14.7491 1.21091 14.3564 1.2 13.091 1.2C12.2182 1.2 11.491 1.21091 11.48 1.22545ZM15.3637 9.14546C15.931 9.29455 16.3964 9.72727 16.5855 10.28C16.7055 10.6218 16.7019 11.1236 16.5819 11.4364C16.3601 12.0109 15.9237 12.4145 15.3637 12.5636C14.4546 12.8 13.4873 12.2509 13.2219 11.3491C13.1419 11.0727 13.1455 10.6073 13.2364 10.3236C13.5091 9.43273 14.4546 8.90909 15.3637 9.14546Z" fill="#FF00FF"/>
</svg>
