<svg width="16" height="16" viewBox="0 0 16 16" fill="none" xmlns="http://www.w3.org/2000/svg">
<g clip-path="url(#clip0_1447_2979)">
<path d="M3.97076 1.00651C2.57149 1.25669 1.44567 2.29233 1.09076 3.65378C0.962761 4.14542 0.954034 4.43342 0.968579 8.24724C0.977307 11.7498 0.980216 11.8312 1.0384 12.1018C1.36131 13.5592 2.39694 14.5978 3.86894 14.9411C4.06094 14.9847 4.30531 14.9934 5.87912 15.0021C7.50822 15.0138 7.67694 15.0109 7.72058 14.9672C7.76422 14.9236 7.76712 14.3621 7.76712 7.99706C7.76712 3.27851 7.7584 1.05596 7.73803 1.01524C7.70894 0.962874 7.65949 0.959965 5.95476 0.962874C4.57003 0.965783 4.15403 0.97451 3.97076 1.00651ZM6.60349 7.98833V13.8821L5.41949 13.8676C4.32858 13.856 4.21222 13.8501 3.99403 13.7949C3.05731 13.5534 2.36203 12.832 2.16712 11.8923C2.10312 11.5985 2.10312 4.36069 2.16422 4.07269C2.33876 3.25524 2.90603 2.57742 3.67112 2.27196C4.05512 2.11778 4.23258 2.10033 5.47767 2.09742L6.60349 2.09451V7.98833Z" fill="#E60012"/>
<path d="M4.22102 3.87197C4.03774 3.90688 3.75847 4.04652 3.61011 4.17743C3.30465 4.44215 3.15338 4.81743 3.17665 5.25961C3.18829 5.48943 3.20283 5.55052 3.29592 5.7367C3.43265 6.01888 3.6392 6.22543 3.92138 6.36506C4.11629 6.46106 4.16574 6.4727 4.41883 6.48143C4.64865 6.49015 4.73011 6.48143 4.88429 6.42906C5.51556 6.2167 5.89666 5.60288 5.78902 4.97452C5.66393 4.22688 4.95411 3.72652 4.22102 3.87197Z" fill="#E60012"/>
<path d="M9.18394 0.980375C9.1723 0.989102 9.16357 4.14256 9.16357 7.98837C9.16357 14.3331 9.16648 14.976 9.21012 14.9935C9.28867 15.0226 11.5461 15.0109 11.8254 14.9818C13.0065 14.848 14.048 14.1295 14.6152 13.0618C14.688 12.9251 14.784 12.6953 14.8334 12.5527C15.0167 12.0058 15.0109 12.1513 15.0109 7.97092C15.0109 4.63419 15.0051 4.13674 14.9643 3.92437C14.6763 2.40874 13.5214 1.26547 12.0029 1.00365C11.7992 0.968738 11.485 0.960011 10.4727 0.960011C9.77449 0.960011 9.19267 0.968738 9.18394 0.980375ZM12.2909 7.31637C12.7447 7.43565 13.117 7.78183 13.2683 8.22401C13.3643 8.49746 13.3614 8.89892 13.2654 9.1491C13.088 9.60874 12.7389 9.93165 12.2909 10.0509C11.5636 10.24 10.7898 9.80074 10.5774 9.07928C10.5134 8.85819 10.5163 8.48583 10.589 8.25892C10.8072 7.54619 11.5636 7.12728 12.2909 7.31637Z" fill="#E60012"/>
</g>
<defs>
<clipPath id="clip0_1447_2979">
<rect width="16" height="16" fill="white"/>
</clipPath>
</defs>
</svg>
