<svg width="16" height="16" viewBox="0 0 16 16" fill="none" xmlns="http://www.w3.org/2000/svg">
<g clip-path="url(#clip0_1447_1783)">
<path d="M3.97101 1.0065C2.57173 1.25668 1.44591 2.29232 1.09101 3.65377C0.963005 4.14541 0.954278 4.43341 0.968824 8.24723C0.977551 11.7498 0.98046 11.8312 1.03864 12.1018C1.36155 13.5592 2.39719 14.5978 3.86919 14.941C4.06119 14.9847 4.30555 14.9934 5.87937 15.0021C7.50846 15.0138 7.67719 15.0109 7.72082 14.9672C7.76446 14.9236 7.76737 14.3621 7.76737 7.99704C7.76737 3.2785 7.75864 1.05595 7.73828 1.01523C7.70919 0.962862 7.65973 0.959953 5.95501 0.962862C4.57028 0.965771 4.15428 0.974498 3.97101 1.0065ZM6.60373 13.8821L5.41973 13.8676C4.32882 13.856 4.21246 13.8501 3.99428 13.7949C3.05755 13.5534 2.36228 12.832 2.16737 11.8923C2.10337 11.5985 2.10337 4.36068 2.16446 4.07268C2.33901 3.25523 2.90628 2.57741 3.67137 2.27195C4.05537 2.11777 4.23282 2.10032 5.47791 2.09741L6.60373 2.0945V13.8821Z" fill="#FF00FF"/>
<path d="M4.22121 3.87194C4.03793 3.90684 3.75866 4.04648 3.6103 4.17739C3.30484 4.44212 3.15357 4.81739 3.17684 5.25957C3.18848 5.48939 3.20302 5.55048 3.29611 5.73666C3.43284 6.01885 3.63939 6.22539 3.92157 6.36503C4.11648 6.46103 4.16593 6.47266 4.41903 6.48139C4.64884 6.49012 4.7303 6.48139 4.88448 6.42903C5.51576 6.21666 5.89685 5.60285 5.78921 4.97448C5.66412 4.22685 4.9543 3.72648 4.22121 3.87194Z" fill="#FF00FF"/>
<path d="M9.1841 0.980325C9.17246 0.989052 9.16373 4.14251 9.16373 7.98832C9.16373 14.333 9.16664 14.976 9.21028 14.9934C9.28882 15.0225 11.5463 15.0109 11.8256 14.9818C13.0067 14.848 14.0481 14.1294 14.6154 13.0618C14.6881 12.9251 14.7841 12.6952 14.8336 12.5527C15.0168 12.0058 15.011 12.1512 15.011 7.97087C15.011 4.63414 15.0052 4.13669 14.9645 3.92432C14.6765 2.40869 13.5216 1.26542 12.003 1.0036C11.7994 0.968688 11.4852 0.959961 10.4728 0.959961C9.77464 0.959961 9.19282 0.968688 9.1841 0.980325ZM12.291 7.31632C12.7448 7.4356 13.1172 7.78178 13.2685 8.22396C13.3645 8.49742 13.3616 8.89887 13.2656 9.14905C13.0881 9.60869 12.739 9.9316 12.291 10.0509C11.5637 10.24 10.7899 9.80069 10.5776 9.07923C10.5136 8.85814 10.5165 8.48578 10.5892 8.25887C10.8074 7.54614 11.5637 7.12723 12.291 7.31632Z" fill="#FF00FF"/>
</g>
<defs>
<clipPath id="clip0_1447_1783">
<rect width="16" height="16" fill="white"/>
</clipPath>
</defs>
</svg>
