<svg width="16" height="16" viewBox="0 0 16 16" fill="none" xmlns="http://www.w3.org/2000/svg">
<g clip-path="url(#clip0_2179_3696)">
<path d="M11.6381 9.34623C12.0386 9.50422 12.8836 9.63236 13.543 9.63236C14.265 9.63236 14.5646 9.38451 14.5646 9.07357C14.5646 8.79458 14.2865 8.6306 13.4891 8.33831C12.4233 7.94432 11.6417 7.63435 11.6417 6.93428C11.6417 6.20924 12.5821 5.78281 14.0166 5.78281C14.7868 5.78281 15.0512 5.83147 15.5405 5.92116L15.5439 6.60907C15.0637 6.51775 14.6379 6.36073 13.9764 6.36073C13.2677 6.36073 12.9659 6.58571 12.9659 6.81766C12.9659 7.15423 13.4308 7.31513 14.247 7.60596C15.3827 8.0126 16.0146 8.3263 16.0146 9.01177C16.0146 9.71703 15.2234 10.2262 13.4385 10.2262C12.7054 10.2262 12.2001 10.1778 11.6381 10.0875V9.34623Z" fill="#FF00FF"/>
<path d="M7.83866 6.39066H6.98936V9.60601H7.83866C9.1426 9.60601 9.96513 9.04852 9.96513 8.0049C9.96513 6.96162 9.1426 6.39066 7.83866 6.39066ZM10.1192 9.90559C9.69864 10.0959 8.90417 10.2165 8.20897 10.2165H5.55403V5.7923H8.20897C8.90417 5.7923 9.69864 5.9146 10.1196 6.10438C11.1421 6.56601 11.4759 7.30484 11.4759 8.0049C11.4759 8.70546 11.1452 9.44316 10.1192 9.90559Z" fill="#FF00FF"/>
<path d="M3.69292 7.79563C3.69292 7.79563 4.9315 7.59725 4.9315 6.82614C4.9315 6.07239 3.61263 5.76404 2.20941 5.76404C0.942934 5.76404 0.110348 5.91878 0.110348 5.91878V6.6036C0.685194 6.46459 1.2349 6.34618 1.98427 6.34618C2.78847 6.34618 3.40225 6.58608 3.40225 6.92508C3.40225 7.33383 2.79529 7.56724 1.48907 7.56724H0.888758V8.18345H1.44641C2.82238 8.18345 3.60484 8.39042 3.60484 8.89552C3.60484 9.34644 2.90575 9.6204 2.03407 9.6204C1.27399 9.6204 0.578627 9.45853 0.0146484 9.302V10.0407C0.285527 10.0872 1.00425 10.2316 2.3429 10.2316C3.82576 10.2316 5.11608 9.75471 5.11608 8.91417C5.11608 8.20924 4.22218 7.79563 3.69292 7.79563Z" fill="#FF00FF"/>
</g>
<defs>
<clipPath id="clip0_2179_3696">
<rect width="16" height="16" fill="white"/>
</clipPath>
</defs>
</svg>
