<svg width="16" height="16" viewBox="0 0 16 16" fill="none" xmlns="http://www.w3.org/2000/svg">
<g clip-path="url(#clip0_2179_3730)">
<path d="M3.97076 1.0065C2.57149 1.25668 1.44567 2.29232 1.09076 3.65377C0.962761 4.14541 0.954034 4.43341 0.968579 8.24723C0.977307 11.7498 0.980216 11.8312 1.0384 12.1018C1.36131 13.5592 2.39694 14.5978 3.86894 14.941C4.06094 14.9847 4.30531 14.9934 5.87912 15.0021C7.50822 15.0138 7.67694 15.0109 7.72058 14.9672C7.76422 14.9236 7.76712 14.3621 7.76712 7.99704C7.76712 3.2785 7.7584 1.05595 7.73803 1.01523C7.70894 0.962862 7.65949 0.959953 5.95476 0.962862C4.57003 0.965771 4.15403 0.974498 3.97076 1.0065ZM6.60349 13.8821L5.41949 13.8676C4.32858 13.856 4.21222 13.8501 3.99403 13.7949C3.05731 13.5534 2.36203 12.832 2.16712 11.8923C2.10312 11.5985 2.10312 4.36068 2.16422 4.07268C2.33876 3.25523 2.90603 2.57741 3.67112 2.27195C4.05512 2.11777 4.23258 2.10032 5.47767 2.09741L6.60349 2.0945V13.8821Z" fill="#FF00FF"/>
<path d="M4.22096 3.87194C4.03769 3.90684 3.75842 4.04648 3.61005 4.17739C3.3046 4.44212 3.15332 4.81739 3.1766 5.25957C3.18823 5.48939 3.20278 5.55048 3.29587 5.73666C3.4326 6.01885 3.63914 6.22539 3.92133 6.36503C4.11624 6.46103 4.16569 6.47266 4.41878 6.48139C4.6486 6.49012 4.73006 6.48139 4.88424 6.42903C5.51551 6.21666 5.8966 5.60285 5.78897 4.97448C5.66388 4.22685 4.95406 3.72648 4.22096 3.87194Z" fill="#FF00FF"/>
<path d="M9.18385 0.980325C9.17222 0.989052 9.16349 4.14251 9.16349 7.98832C9.16349 14.333 9.1664 14.976 9.21003 14.9934C9.28858 15.0225 11.546 15.0109 11.8253 14.9818C13.0064 14.848 14.0479 14.1294 14.6151 13.0618C14.6879 12.9251 14.7839 12.6952 14.8333 12.5527C15.0166 12.0058 15.0108 12.1512 15.0108 7.97087C15.0108 4.63414 15.005 4.13669 14.9642 3.92432C14.6762 2.40869 13.5213 1.26542 12.0028 1.0036C11.7991 0.968688 11.485 0.959961 10.4726 0.959961C9.7744 0.959961 9.19258 0.968688 9.18385 0.980325ZM12.2908 7.31632C12.7446 7.4356 13.117 7.78178 13.2682 8.22396C13.3642 8.49742 13.3613 8.89887 13.2653 9.14905C13.0879 9.60869 12.7388 9.9316 12.2908 10.0509C11.5635 10.24 10.7897 9.80069 10.5773 9.07923C10.5133 8.85814 10.5162 8.48578 10.5889 8.25887C10.8071 7.54614 11.5635 7.12723 12.2908 7.31632Z" fill="#FF00FF"/>
</g>
<defs>
<clipPath id="clip0_2179_3730">
<rect width="16" height="16" fill="white"/>
</clipPath>
</defs>
</svg>
