<svg width="16" height="16" viewBox="0 0 16 16" fill="none" xmlns="http://www.w3.org/2000/svg">
<g clip-path="url(#clip0_1447_3029)">
<path d="M11.6378 9.34621C12.0382 9.50419 12.8833 9.63233 13.5427 9.63233C14.2646 9.63233 14.5642 9.38449 14.5642 9.07354C14.5642 8.79455 14.2862 8.63057 13.4888 8.33828C12.423 7.94429 11.6413 7.63432 11.6413 6.93425C11.6413 6.20921 12.5818 5.78278 14.0163 5.78278C14.7864 5.78278 15.0508 5.83144 15.5402 5.92113L15.5436 6.60904C15.0633 6.51772 14.6375 6.3607 13.9761 6.3607C13.2674 6.3607 12.9656 6.58568 12.9656 6.81763C12.9656 7.1542 13.4304 7.3151 14.2466 7.60593C15.3824 8.01258 16.0143 8.32628 16.0143 9.01174C16.0143 9.717 15.2231 10.2262 13.4382 10.2262C12.7051 10.2262 12.1998 10.1778 11.6378 10.0875V9.34621Z" fill="#332D2B"/>
<path d="M7.83833 6.39064H6.98904V9.60598H7.83833C9.14228 9.60598 9.96481 9.04849 9.96481 8.00488C9.96481 6.96159 9.14228 6.39064 7.83833 6.39064ZM10.1189 9.90557C9.69831 10.0958 8.90384 10.2165 8.20864 10.2165H5.55371V5.79227H8.20864C8.90384 5.79227 9.69831 5.91457 10.1192 6.10435C11.1418 6.56598 11.4756 7.30481 11.4756 8.00488C11.4756 8.70543 11.1448 9.44313 10.1189 9.90557Z" fill="#332D2B"/>
<path d="M3.69292 7.79555C3.69292 7.79555 4.9315 7.59717 4.9315 6.82606C4.9315 6.07231 3.61263 5.76396 2.20941 5.76396C0.942934 5.76396 0.110348 5.9187 0.110348 5.9187V6.60352C0.685194 6.46451 1.2349 6.34611 1.98427 6.34611C2.78847 6.34611 3.40225 6.586 3.40225 6.92501C3.40225 7.33376 2.79529 7.56717 1.48907 7.56717H0.888758V8.18337H1.44641C2.82238 8.18337 3.60484 8.39035 3.60484 8.89544C3.60484 9.34637 2.90575 9.62033 2.03407 9.62033C1.27399 9.62033 0.578627 9.45845 0.0146484 9.30192V10.0406C0.285527 10.0871 1.00425 10.2315 2.3429 10.2315C3.82576 10.2315 5.11608 9.75463 5.11608 8.9141C5.11608 8.20916 4.22218 7.79555 3.69292 7.79555Z" fill="#D12228"/>
</g>
<defs>
<clipPath id="clip0_1447_3029">
<rect width="16" height="16" fill="white"/>
</clipPath>
</defs>
</svg>
