<svg width="20" height="20" viewBox="0 0 20 20" fill="none" xmlns="http://www.w3.org/2000/svg">
<g clip-path="url(#clip0)">
<path d="M14.5474 11.6827C15.048 11.8802 16.1043 12.0404 16.9285 12.0404C17.831 12.0404 18.2054 11.7306 18.2054 11.3419C18.2054 10.9932 17.8579 10.7882 16.8612 10.4228C15.5289 9.93034 14.5518 9.54287 14.5518 8.66779C14.5518 7.76148 15.7274 7.22845 17.5205 7.22845C18.4832 7.22845 18.8137 7.28927 19.4254 7.40139L19.4297 8.26127C18.8293 8.14712 18.2971 7.95086 17.4703 7.95086C16.5844 7.95086 16.2071 8.23207 16.2071 8.52201C16.2071 8.94273 16.7882 9.14386 17.8085 9.50739C19.2281 10.0157 20.0181 10.4078 20.0181 11.2647C20.0181 12.1462 19.029 12.7827 16.7979 12.7827C15.8815 12.7827 15.2499 12.7222 14.5474 12.6093V11.6827Z" fill="#332D2B"/>
<path d="M9.79792 7.98827H8.7363V12.0075H9.79792C11.4279 12.0075 12.456 11.3106 12.456 10.0061C12.456 8.70197 11.4279 7.98827 9.79792 7.98827ZM12.6486 12.3819C12.1229 12.6198 11.1298 12.7706 10.2608 12.7706H6.94214V7.24032H10.2608C11.1298 7.24032 12.1229 7.39319 12.649 7.63041C13.9272 8.20745 14.3445 9.13099 14.3445 10.0061C14.3445 10.8818 13.931 11.8039 12.6486 12.3819Z" fill="#332D2B"/>
<path d="M4.6159 9.74447C4.6159 9.74447 6.16412 9.49651 6.16412 8.53262C6.16412 7.59042 4.51554 7.20499 2.76152 7.20499C1.17842 7.20499 0.137691 7.39842 0.137691 7.39842V8.25444C0.856248 8.08068 1.54338 7.93267 2.4801 7.93267C3.48535 7.93267 4.25257 8.23254 4.25257 8.6563C4.25257 9.16723 3.49387 9.459 1.86109 9.459H1.1107V10.2293H1.80777C3.52772 10.2293 4.50581 10.488 4.50581 11.1193C4.50581 11.683 3.63194 12.0254 2.54234 12.0254C1.59224 12.0254 0.723039 11.8231 0.0180664 11.6274V12.5508C0.356664 12.609 1.25506 12.7894 2.92839 12.7894C4.78196 12.7894 6.39486 12.1933 6.39486 11.1427C6.39486 10.2615 5.27749 9.74447 4.6159 9.74447Z" fill="#D12228"/>
</g>
<defs>
<clipPath id="clip0">
<rect width="20" height="20" fill="white"/>
</clipPath>
</defs>
</svg>
