<svg width="16" height="16" viewBox="0 0 16 16" fill="none" xmlns="http://www.w3.org/2000/svg">
<g clip-path="url(#clip0_1447_1802)">
<path d="M11.6378 9.34617C12.0383 9.50416 12.8834 9.6323 13.5428 9.6323C14.2647 9.6323 14.5643 9.38445 14.5643 9.07351C14.5643 8.79452 14.2863 8.63054 13.4889 8.33825C12.4231 7.94426 11.6414 7.63429 11.6414 6.93422C11.6414 6.20917 12.5819 5.78274 14.0164 5.78274C14.7865 5.78274 15.0509 5.8314 15.5403 5.9211L15.5437 6.609C15.0634 6.51768 14.6376 6.36067 13.9762 6.36067C13.2675 6.36067 12.9656 6.58565 12.9656 6.8176C12.9656 7.15417 13.4305 7.31507 14.2467 7.6059C15.3825 8.01254 16.0144 8.32624 16.0144 9.01171C16.0144 9.71697 15.2232 10.2261 13.4383 10.2261C12.7051 10.2261 12.1999 10.1778 11.6378 10.0874V9.34617Z" fill="#FF00FF"/>
<path d="M7.83841 6.3906H6.98912V9.60595H7.83841C9.14236 9.60595 9.96489 9.04846 9.96489 8.00484C9.96489 6.96156 9.14236 6.3906 7.83841 6.3906ZM10.119 9.90553C9.69839 10.0958 8.90392 10.2165 8.20872 10.2165H5.55379V5.79224H8.20872C8.90392 5.79224 9.69839 5.91454 10.1193 6.10432C11.1418 6.56594 11.4756 7.30478 11.4756 8.00484C11.4756 8.7054 11.1449 9.44309 10.119 9.90553Z" fill="#FF00FF"/>
<path d="M3.69267 7.79556C3.69267 7.79556 4.93125 7.59719 4.93125 6.82608C4.93125 6.07232 3.61238 5.76398 2.20917 5.76398C0.94269 5.76398 0.110104 5.91872 0.110104 5.91872V6.60354C0.68495 6.46453 1.23465 6.34612 1.98403 6.34612C2.78823 6.34612 3.40201 6.58602 3.40201 6.92502C3.40201 7.33377 2.79504 7.56718 1.48883 7.56718H0.888514V8.18339H1.44617C2.82213 8.18339 3.6046 8.39036 3.6046 8.89546C3.6046 9.34638 2.9055 9.62034 2.03383 9.62034C1.27375 9.62034 0.578383 9.45846 0.0144043 9.30194V10.0406C0.285283 10.0872 1.004 10.2315 2.34266 10.2315C3.82552 10.2315 5.11584 9.75465 5.11584 8.91411C5.11584 8.20918 4.22194 7.79556 3.69267 7.79556Z" fill="#FF00FF"/>
</g>
<defs>
<clipPath id="clip0_1447_1802">
<rect width="16" height="16" fill="white"/>
</clipPath>
</defs>
</svg>
