<svg width="16" height="16" viewBox="0 0 16 16" fill="none" xmlns="http://www.w3.org/2000/svg">
<g clip-path="url(#clip0_2179_3695)">
<path d="M11.6378 9.34614C12.0382 9.50413 12.8833 9.63227 13.5427 9.63227C14.2646 9.63227 14.5642 9.38442 14.5642 9.07348C14.5642 8.79449 14.2862 8.63051 13.4888 8.33822C12.423 7.94423 11.6413 7.63426 11.6413 6.93419C11.6413 6.20915 12.5818 5.78271 14.0163 5.78271C14.7864 5.78271 15.0508 5.83138 15.5402 5.92107L15.5436 6.60898C15.0633 6.51766 14.6375 6.36064 13.9761 6.36064C13.2674 6.36064 12.9656 6.58562 12.9656 6.81757C12.9656 7.15414 13.4304 7.31504 14.2466 7.60587C15.3824 8.01251 16.0143 8.32621 16.0143 9.01168C16.0143 9.71694 15.2231 10.2261 13.4382 10.2261C12.7051 10.2261 12.1998 10.1778 11.6378 10.0874V9.34614Z" fill="#332D2B"/>
<path d="M7.83833 6.39057H6.98904V9.60592H7.83833C9.14228 9.60592 9.96481 9.04843 9.96481 8.00481C9.96481 6.96153 9.14228 6.39057 7.83833 6.39057ZM10.1189 9.9055C9.69831 10.0958 8.90384 10.2164 8.20864 10.2164H5.55371V5.79221H8.20864C8.90384 5.79221 9.69831 5.91451 10.1192 6.10429C11.1418 6.56592 11.4756 7.30475 11.4756 8.00481C11.4756 8.70537 11.1448 9.44307 10.1189 9.9055Z" fill="#332D2B"/>
<path d="M3.69267 7.79561C3.69267 7.79561 4.93125 7.59724 4.93125 6.82612C4.93125 6.07237 3.61238 5.76402 2.20917 5.76402C0.94269 5.76402 0.110104 5.91876 0.110104 5.91876V6.60358C0.68495 6.46457 1.23465 6.34617 1.98403 6.34617C2.78823 6.34617 3.40201 6.58606 3.40201 6.92507C3.40201 7.33382 2.79504 7.56723 1.48883 7.56723H0.888514V8.18344H1.44617C2.82213 8.18344 3.6046 8.39041 3.6046 8.8955C3.6046 9.34643 2.9055 9.62039 2.03383 9.62039C1.27375 9.62039 0.578383 9.45851 0.0144043 9.30198V10.0407C0.285283 10.0872 1.004 10.2316 2.34266 10.2316C3.82552 10.2316 5.11584 9.75469 5.11584 8.91416C5.11584 8.20923 4.22194 7.79561 3.69267 7.79561Z" fill="#D12228"/>
</g>
<defs>
<clipPath id="clip0_2179_3695">
<rect width="16" height="16" fill="white"/>
</clipPath>
</defs>
</svg>
