<svg width="16" height="16" viewBox="0 0 16 16" fill="none" xmlns="http://www.w3.org/2000/svg">
<g clip-path="url(#clip0_1447_1783)">
<path d="M3.97101 1.00656C2.57173 1.25674 1.44591 2.29238 1.09101 3.65383C0.963005 4.14547 0.954278 4.43347 0.968824 8.24729C0.977551 11.7498 0.98046 11.8313 1.03864 12.1018C1.36155 13.5593 2.39719 14.5978 3.86919 14.9411C4.06119 14.9847 4.30555 14.9935 5.87937 15.0022C7.50846 15.0138 7.67719 15.0109 7.72082 14.9673C7.76446 14.9237 7.76737 14.3622 7.76737 7.99711C7.76737 3.27856 7.75864 1.05601 7.73828 1.01529C7.70919 0.962923 7.65973 0.960014 5.95501 0.962923C4.57028 0.965832 4.15428 0.974559 3.97101 1.00656ZM6.60373 13.8822L5.41973 13.8677C4.32882 13.856 4.21246 13.8502 3.99428 13.7949C3.05755 13.5535 2.36228 12.832 2.16737 11.8924C2.10337 11.5986 2.10337 4.36074 2.16446 4.07274C2.33901 3.25529 2.90628 2.57747 3.67137 2.27201C4.05537 2.11783 4.23282 2.10038 5.47791 2.09747L6.60373 2.09456V13.8822Z" fill="#FF00FF"/>
<path d="M4.22121 3.872C4.03793 3.90691 3.75866 4.04654 3.6103 4.17745C3.30484 4.44218 3.15357 4.81745 3.17684 5.25963C3.18848 5.48945 3.20302 5.55054 3.29611 5.73672C3.43284 6.01891 3.63939 6.22545 3.92157 6.36509C4.11648 6.46109 4.16593 6.47272 4.41903 6.48145C4.64884 6.49018 4.7303 6.48145 4.88448 6.42909C5.51576 6.21672 5.89685 5.60291 5.78921 4.97454C5.66412 4.22691 4.9543 3.72654 4.22121 3.872Z" fill="#FF00FF"/>
<path d="M9.1841 0.980386C9.17246 0.989113 9.16373 4.14257 9.16373 7.98838C9.16373 14.3331 9.16664 14.976 9.21028 14.9935C9.28882 15.0226 11.5463 15.0109 11.8256 14.9818C13.0067 14.848 14.0481 14.1295 14.6154 13.0618C14.6881 12.9251 14.7841 12.6953 14.8336 12.5527C15.0168 12.0058 15.011 12.1513 15.011 7.97093C15.011 4.6342 15.0052 4.13675 14.9645 3.92439C14.6765 2.40875 13.5216 1.26548 12.003 1.00366C11.7994 0.968749 11.4852 0.960022 10.4728 0.960022C9.77464 0.960022 9.19282 0.968749 9.1841 0.980386ZM12.291 7.31638C12.7448 7.43566 13.1172 7.78184 13.2685 8.22402C13.3645 8.49748 13.3616 8.89893 13.2656 9.14911C13.0881 9.60875 12.739 9.93166 12.291 10.0509C11.5637 10.24 10.7899 9.80075 10.5776 9.07929C10.5136 8.8582 10.5165 8.48584 10.5892 8.25893C10.8074 7.5462 11.5637 7.12729 12.291 7.31638Z" fill="#FF00FF"/>
</g>
<defs>
<clipPath id="clip0_1447_1783">
<rect width="16" height="16" fill="white"/>
</clipPath>
</defs>
</svg>
