<svg width="16" height="16" viewBox="0 0 16 16" fill="none" xmlns="http://www.w3.org/2000/svg">
<g clip-path="url(#clip0_1447_1802)">
<path d="M11.6378 9.34623C12.0383 9.50422 12.8834 9.63236 13.5428 9.63236C14.2647 9.63236 14.5643 9.38451 14.5643 9.07357C14.5643 8.79458 14.2863 8.6306 13.4889 8.33831C12.4231 7.94432 11.6414 7.63435 11.6414 6.93428C11.6414 6.20924 12.5819 5.78281 14.0164 5.78281C14.7865 5.78281 15.0509 5.83147 15.5403 5.92116L15.5437 6.60907C15.0634 6.51775 14.6376 6.36073 13.9762 6.36073C13.2675 6.36073 12.9656 6.58571 12.9656 6.81766C12.9656 7.15423 13.4305 7.31513 14.2467 7.60596C15.3825 8.0126 16.0144 8.3263 16.0144 9.01177C16.0144 9.71703 15.2232 10.2262 13.4383 10.2262C12.7051 10.2262 12.1999 10.1778 11.6378 10.0875V9.34623Z" fill="#FF00FF"/>
<path d="M7.83841 6.39066H6.98912V9.60601H7.83841C9.14236 9.60601 9.96489 9.04852 9.96489 8.0049C9.96489 6.96162 9.14236 6.39066 7.83841 6.39066ZM10.119 9.90559C9.69839 10.0959 8.90392 10.2165 8.20872 10.2165H5.55379V5.7923H8.20872C8.90392 5.7923 9.69839 5.9146 10.1193 6.10438C11.1418 6.56601 11.4756 7.30484 11.4756 8.0049C11.4756 8.70546 11.1449 9.44316 10.119 9.90559Z" fill="#FF00FF"/>
<path d="M3.69267 7.79563C3.69267 7.79563 4.93125 7.59725 4.93125 6.82614C4.93125 6.07239 3.61238 5.76404 2.20917 5.76404C0.94269 5.76404 0.110104 5.91878 0.110104 5.91878V6.6036C0.68495 6.46459 1.23465 6.34618 1.98403 6.34618C2.78823 6.34618 3.40201 6.58608 3.40201 6.92508C3.40201 7.33383 2.79504 7.56724 1.48883 7.56724H0.888514V8.18345H1.44617C2.82213 8.18345 3.6046 8.39042 3.6046 8.89552C3.6046 9.34644 2.9055 9.6204 2.03383 9.6204C1.27375 9.6204 0.578383 9.45853 0.0144043 9.302V10.0407C0.285283 10.0872 1.004 10.2316 2.34266 10.2316C3.82552 10.2316 5.11584 9.75471 5.11584 8.91417C5.11584 8.20924 4.22194 7.79563 3.69267 7.79563Z" fill="#FF00FF"/>
</g>
<defs>
<clipPath id="clip0_1447_1802">
<rect width="16" height="16" fill="white"/>
</clipPath>
</defs>
</svg>
