<svg width="16" height="16" viewBox="0 0 16 16" fill="none" xmlns="http://www.w3.org/2000/svg">
<g clip-path="url(#clip0_1447_3029)">
<path d="M11.6377 9.34619C12.0382 9.50417 12.8833 9.63231 13.5426 9.63231C14.2646 9.63231 14.5642 9.38447 14.5642 9.07352C14.5642 8.79454 14.2861 8.63055 13.4888 8.33826C12.4229 7.94427 11.6413 7.6343 11.6413 6.93423C11.6413 6.20919 12.5817 5.78276 14.0162 5.78276C14.7864 5.78276 15.0508 5.83142 15.5401 5.92112L15.5435 6.60902C15.0633 6.5177 14.6375 6.36068 13.976 6.36068C13.2673 6.36068 12.9655 6.58566 12.9655 6.81761C12.9655 7.15418 13.4304 7.31509 14.2466 7.60591C15.3823 8.01256 16.0143 8.32626 16.0143 9.01172C16.0143 9.71698 15.223 10.2261 13.4381 10.2261C12.705 10.2261 12.1997 10.1778 11.6377 10.0875V9.34619Z" fill="#332D2B"/>
<path d="M7.83833 6.39062H6.98904V9.60596H7.83833C9.14228 9.60596 9.96481 9.04847 9.96481 8.00486C9.96481 6.96157 9.14228 6.39062 7.83833 6.39062ZM10.1189 9.90555C9.69831 10.0958 8.90384 10.2165 8.20864 10.2165H5.55371V5.79225H8.20864C8.90384 5.79225 9.69831 5.91455 10.1192 6.10433C11.1418 6.56596 11.4756 7.30479 11.4756 8.00486C11.4756 8.70541 11.1448 9.44311 10.1189 9.90555" fill="#332D2B"/>
<path d="M3.69292 7.79555C3.69292 7.79555 4.9315 7.59717 4.9315 6.82606C4.9315 6.07231 3.61263 5.76396 2.20941 5.76396C0.942934 5.76396 0.110348 5.9187 0.110348 5.9187V6.60352C0.685194 6.46451 1.2349 6.34611 1.98427 6.34611C2.78847 6.34611 3.40225 6.586 3.40225 6.92501C3.40225 7.33376 2.79529 7.56717 1.48907 7.56717H0.888758V8.18337H1.44641C2.82238 8.18337 3.60484 8.39035 3.60484 8.89544C3.60484 9.34637 2.90575 9.62033 2.03407 9.62033C1.27399 9.62033 0.578627 9.45845 0.0146484 9.30192V10.0406C0.285527 10.0871 1.00425 10.2315 2.3429 10.2315C3.82576 10.2315 5.11608 9.75463 5.11608 8.9141C5.11608 8.20916 4.22218 7.79555 3.69292 7.79555Z" fill="#D12228"/>
</g>
<defs>
<clipPath id="clip0_1447_3029">
<rect width="16" height="16" fill="white"/>
</clipPath>
</defs>
</svg>
