<svg width="16" height="16" viewBox="0 0 16 16" fill="none" xmlns="http://www.w3.org/2000/svg">
<path d="M7.40699 15.7278C7.59481 15.829 7.79706 15.8868 8.01377 15.8868C8.21602 15.8868 8.43273 15.8434 8.62054 15.7567L14.3849 12.4195C14.7605 12.2028 14.9916 11.7983 14.9916 11.3649V4.70482C14.9916 4.27141 14.7605 3.8669 14.3849 3.65019L8.62054 0.312948C8.25937 0.110691 7.76817 0.110691 7.40699 0.312948L1.64266 3.65019C1.26704 3.8669 1.03589 4.27141 1.03589 4.70482V11.3649C1.03589 11.7983 1.26704 12.2028 1.64266 12.4195L3.15959 13.2863C3.89639 13.6475 4.15643 13.6475 4.48871 13.6475C5.57223 13.6475 6.19345 12.9829 6.19345 11.8416V5.26825C6.19345 5.16712 6.10677 5.09489 6.02009 5.09489H5.28329C5.18216 5.09489 5.10993 5.18157 5.10993 5.26825V11.8416C5.10993 12.3473 4.57539 12.8529 3.72302 12.4195L2.1483 11.5093C2.09052 11.4804 2.06162 11.4082 2.06162 11.3504V4.69037C2.06162 4.63259 2.09052 4.56035 2.1483 4.53146L7.91264 1.20866C7.95598 1.17977 8.02821 1.17977 8.086 1.20866L13.8503 4.53146C13.9081 4.56035 13.937 4.61814 13.937 4.69037V11.3504C13.937 11.4227 13.9081 11.4804 13.8503 11.5093L8.086 14.8466C8.04266 14.8755 7.97043 14.8755 7.91264 14.8466L6.43905 13.9653C6.39571 13.9364 6.33792 13.922 6.29458 13.9509C5.89006 14.182 5.81783 14.2109 5.42776 14.3409C5.34108 14.3698 5.19661 14.4276 5.48555 14.5865L7.40699 15.7278Z" fill="#FF00FF"/>
<path d="M6.74244 9.16893C6.74244 10.1513 7.26253 11.3071 9.79074 11.3071C11.6255 11.3071 12.6657 10.5847 12.6801 9.3134C12.6801 8.07096 11.8422 7.73868 10.0652 7.50753C8.27381 7.27638 8.086 7.14636 8.086 6.72739C8.086 6.38067 8.24492 5.91837 9.57404 5.91837C10.7587 5.91837 11.2065 6.17841 11.3799 6.97299C11.3944 7.04523 11.4666 7.10302 11.5388 7.10302H12.2901C12.3334 7.10302 12.3767 7.07412 12.4056 7.04523C12.4345 7.00189 12.449 6.95855 12.449 6.91521C12.3334 5.5283 11.4232 4.89263 9.57404 4.89263C7.92709 4.89263 6.94469 5.58609 6.94469 6.75629C6.94469 8.01317 7.92709 8.3599 9.5018 8.51882C11.3944 8.70663 11.5388 8.98112 11.5388 9.35674C11.5388 10.0069 11.0187 10.2813 9.80519 10.2813C8.27381 10.2813 7.94153 9.90572 7.82596 9.14004C7.82596 9.05335 7.75372 8.99557 7.66704 8.99557H6.9158C6.81467 8.99557 6.74244 9.08225 6.74244 9.16893Z" fill="#FF00FF"/>
</svg>
