<svg width="16" height="16" viewBox="0 0 16 16" fill="none" xmlns="http://www.w3.org/2000/svg">
<path d="M7.40699 15.7279C7.59481 15.829 7.79706 15.8868 8.01377 15.8868C8.21602 15.8868 8.43273 15.8435 8.62054 15.7568L14.3849 12.4196C14.7605 12.2029 14.9916 11.7983 14.9916 11.3649V4.70488C14.9916 4.27147 14.7605 3.86696 14.3849 3.65025L8.62054 0.313009C8.25937 0.110752 7.76817 0.110752 7.40699 0.313009L1.64266 3.65025C1.26704 3.86696 1.03589 4.27147 1.03589 4.70488V11.3649C1.03589 11.7983 1.26704 12.2029 1.64266 12.4196L3.15959 13.2864C3.89639 13.6475 4.15643 13.6475 4.48871 13.6475C5.57223 13.6475 6.19345 12.983 6.19345 11.8417V5.26831C6.19345 5.16718 6.10677 5.09495 6.02009 5.09495H5.28329C5.18216 5.09495 5.10993 5.18163 5.10993 5.26831V11.8417C5.10993 12.3473 4.57539 12.853 3.72302 12.4196L2.1483 11.5094C2.09052 11.4805 2.06162 11.4083 2.06162 11.3505V4.69044C2.06162 4.63265 2.09052 4.56041 2.1483 4.53152L7.91264 1.20872C7.95598 1.17983 8.02821 1.17983 8.086 1.20872L13.8503 4.53152C13.9081 4.56041 13.937 4.6182 13.937 4.69044V11.3505C13.937 11.4227 13.9081 11.4805 13.8503 11.5094L8.086 14.8466C8.04266 14.8755 7.97043 14.8755 7.91264 14.8466L6.43905 13.9654C6.39571 13.9365 6.33792 13.922 6.29458 13.9509C5.89006 14.1821 5.81783 14.211 5.42776 14.341C5.34108 14.3699 5.19661 14.4277 5.48555 14.5866L7.40699 15.7279Z" fill="#FF00FF"/>
<path d="M6.74244 9.16899C6.74244 10.1514 7.26253 11.3071 9.79074 11.3071C11.6255 11.3071 12.6657 10.5848 12.6801 9.31346C12.6801 8.07102 11.8422 7.73874 10.0652 7.50759C8.27381 7.27644 8.086 7.14642 8.086 6.72746C8.086 6.38073 8.24492 5.91843 9.57404 5.91843C10.7587 5.91843 11.2065 6.17847 11.3799 6.97305C11.3944 7.04529 11.4666 7.10308 11.5388 7.10308H12.2901C12.3334 7.10308 12.3767 7.07418 12.4056 7.04529C12.4345 7.00195 12.449 6.95861 12.449 6.91527C12.3334 5.52836 11.4232 4.89269 9.57404 4.89269C7.92709 4.89269 6.94469 5.58615 6.94469 6.75635C6.94469 8.01323 7.92709 8.35996 9.5018 8.51888C11.3944 8.70669 11.5388 8.98118 11.5388 9.3568C11.5388 10.0069 11.0187 10.2814 9.80519 10.2814C8.27381 10.2814 7.94153 9.90579 7.82596 9.1401C7.82596 9.05342 7.75372 8.99563 7.66704 8.99563H6.9158C6.81467 8.99563 6.74244 9.08231 6.74244 9.16899Z" fill="#FF00FF"/>
</svg>
