<svg width="16" height="16" viewBox="0 0 16 16" fill="none" xmlns="http://www.w3.org/2000/svg">
<path d="M7.40724 15.7278C7.59505 15.829 7.79731 15.8868 8.01401 15.8868C8.21627 15.8868 8.43297 15.8434 8.62078 15.7567L14.3851 12.4195C14.7607 12.2028 14.9919 11.7983 14.9919 11.3649V4.70482C14.9919 4.27141 14.7607 3.8669 14.3851 3.65019L8.62078 0.312948C8.25961 0.110691 7.76841 0.110691 7.40724 0.312948L1.6429 3.65019C1.26728 3.8669 1.03613 4.27141 1.03613 4.70482V11.3649C1.03613 11.7983 1.26728 12.2028 1.6429 12.4195L3.15983 13.2863C3.89663 13.6475 4.15667 13.6475 4.48895 13.6475C5.57248 13.6475 6.1937 12.9829 6.1937 11.8416V5.26825C6.1937 5.16712 6.10701 5.09489 6.02033 5.09489H5.28354C5.18241 5.09489 5.11017 5.18157 5.11017 5.26825V11.8416C5.11017 12.3473 4.57564 12.8529 3.72327 12.4195L2.14855 11.5093C2.09076 11.4804 2.06187 11.4082 2.06187 11.3504V4.69037C2.06187 4.63259 2.09076 4.56035 2.14855 4.53146L7.91288 1.20866C7.95622 1.17977 8.02846 1.17977 8.08625 1.20866L13.8506 4.53146C13.9084 4.56035 13.9373 4.61814 13.9373 4.69037V11.3504C13.9373 11.4227 13.9084 11.4804 13.8506 11.5093L8.08625 14.8466C8.0429 14.8755 7.97067 14.8755 7.91288 14.8466L6.43929 13.9653C6.39595 13.9364 6.33816 13.922 6.29482 13.9509C5.89031 14.182 5.81807 14.2109 5.42801 14.3409C5.34132 14.3698 5.19686 14.4276 5.48579 14.5865L7.40724 15.7278Z" fill="#699F63"/>
<path d="M6.74268 9.16893C6.74268 10.1513 7.26277 11.3071 9.79099 11.3071C11.6257 11.3071 12.6659 10.5847 12.6804 9.3134C12.6804 8.07096 11.8425 7.73868 10.0655 7.50753C8.27406 7.27638 8.08625 7.14636 8.08625 6.72739C8.08625 6.38067 8.24516 5.91837 9.57428 5.91837C10.7589 5.91837 11.2068 6.17841 11.3802 6.97299C11.3946 7.04523 11.4668 7.10302 11.5391 7.10302H12.2903C12.3336 7.10302 12.377 7.07412 12.4059 7.04523C12.4348 7.00189 12.4492 6.95855 12.4492 6.91521C12.3336 5.5283 11.4235 4.89263 9.57428 4.89263C7.92733 4.89263 6.94494 5.58609 6.94494 6.75629C6.94494 8.01317 7.92733 8.3599 9.50205 8.51882C11.3946 8.70663 11.5391 8.98112 11.5391 9.35674C11.5391 10.0069 11.019 10.2813 9.80543 10.2813C8.27406 10.2813 7.94178 9.90572 7.8262 9.14004C7.8262 9.05335 7.75397 8.99557 7.66728 8.99557H6.91604C6.81491 8.99557 6.74268 9.08225 6.74268 9.16893Z" fill="#699F63"/>
</svg>
