<svg width="20" height="20" viewBox="0 0 20 20" fill="none" xmlns="http://www.w3.org/2000/svg">
<path fill-rule="evenodd" clip-rule="evenodd" d="M9.2588 19.6599C9.49357 19.7863 9.74639 19.8585 10.0173 19.8585C10.2701 19.8585 10.541 19.8043 10.7757 19.696L17.9812 15.5244C18.4507 15.2535 18.7396 14.7479 18.7396 14.2061V5.88107C18.7396 5.33931 18.4507 4.83367 17.9812 4.56279L10.7757 0.391231C10.3243 0.138409 9.71027 0.138409 9.2588 0.391231L2.05339 4.56279C1.58386 4.83367 1.29492 5.33931 1.29492 5.88107V14.2061C1.29492 14.7479 1.58386 15.2535 2.05339 15.5244L3.94955 16.6079C4.87054 17.0594 5.1956 17.0594 5.61095 17.0594C6.96535 17.0594 7.74187 16.2287 7.74187 14.8021V6.58536C7.74187 6.45895 7.63352 6.36866 7.52517 6.36866H6.60418C6.47777 6.36866 6.38747 6.47701 6.38747 6.58536V14.8021C6.38747 15.4341 5.7193 16.0662 4.65384 15.5244L2.68544 14.3867C2.61321 14.3506 2.57709 14.2603 2.57709 14.1881V5.86301C2.57709 5.79078 2.61321 5.70049 2.68544 5.66437L9.89086 1.51087C9.94503 1.47475 10.0353 1.47475 10.1076 1.51087L17.313 5.66437C17.3852 5.70049 17.4213 5.77272 17.4213 5.86301V14.1881C17.4213 14.2784 17.3852 14.3506 17.313 14.3867L10.1076 18.5583C10.0534 18.5944 9.96309 18.5944 9.89086 18.5583L8.04887 17.4567C7.9947 17.4206 7.92246 17.4025 7.86829 17.4386C7.36264 17.7276 7.27235 17.7637 6.78476 17.9262C6.67641 17.9623 6.49582 18.0346 6.857 18.2332L9.2588 19.6599ZM8.4281 11.4612C8.4281 12.6892 9.07822 14.1339 12.2385 14.1339C14.5319 14.1339 15.8322 13.231 15.8502 11.6418C15.8502 10.0887 14.8028 9.6734 12.5816 9.38446C10.3423 9.09552 10.1076 8.93299 10.1076 8.40929C10.1076 7.97588 10.3062 7.398 11.9676 7.398C13.4484 7.398 14.0082 7.72306 14.2249 8.71629C14.243 8.80658 14.3333 8.87882 14.4236 8.87882H15.3626C15.4168 8.87882 15.471 8.8427 15.5071 8.80658C15.5432 8.7524 15.5613 8.69823 15.5613 8.64405C15.4168 6.91042 14.2791 6.11584 11.9676 6.11584C9.90892 6.11584 8.68093 6.98265 8.68093 8.44541C8.68093 10.0165 9.90892 10.4499 11.8773 10.6486C14.243 10.8833 14.4236 11.2264 14.4236 11.696C14.4236 12.5086 13.7735 12.8517 12.2565 12.8517C10.3423 12.8517 9.92698 12.3822 9.78251 11.4251C9.78251 11.3167 9.69221 11.2445 9.58386 11.2445H8.64481C8.5184 11.2445 8.4281 11.3529 8.4281 11.4612Z" fill="#699F63"/>
</svg>
