<svg width="16" height="16" viewBox="0 0 16 16" fill="none" xmlns="http://www.w3.org/2000/svg">
<path fill-rule="evenodd" clip-rule="evenodd" d="M7.40724 15.7279C7.59505 15.829 7.79731 15.8868 8.01401 15.8868C8.21627 15.8868 8.43297 15.8435 8.62078 15.7568L14.3851 12.4196C14.7607 12.2029 14.9919 11.7983 14.9919 11.3649V4.70488C14.9919 4.27147 14.7607 3.86696 14.3851 3.65025L8.62078 0.313009C8.25961 0.110752 7.76841 0.110752 7.40724 0.313009L1.6429 3.65025C1.26728 3.86696 1.03613 4.27147 1.03613 4.70488V11.3649C1.03613 11.7983 1.26728 12.2029 1.6429 12.4196L3.15983 13.2864C3.89663 13.6475 4.15667 13.6475 4.48895 13.6475C5.57248 13.6475 6.1937 12.983 6.1937 11.8417V5.26831C6.1937 5.16718 6.10701 5.09495 6.02033 5.09495H5.28354C5.18241 5.09495 5.11017 5.18163 5.11017 5.26831V11.8417C5.11017 12.3473 4.57564 12.853 3.72327 12.4196L2.14855 11.5094C2.09076 11.4805 2.06187 11.4083 2.06187 11.3505V4.69044C2.06187 4.63265 2.09076 4.56041 2.14855 4.53152L7.91288 1.20872C7.95622 1.17983 8.02846 1.17983 8.08625 1.20872L13.8506 4.53152C13.9084 4.56041 13.9373 4.6182 13.9373 4.69044V11.3505C13.9373 11.4227 13.9084 11.4805 13.8506 11.5094L8.08625 14.8466C8.0429 14.8755 7.97067 14.8755 7.91288 14.8466L6.43929 13.9654C6.39595 13.9365 6.33816 13.922 6.29482 13.9509C5.89031 14.1821 5.81807 14.211 5.42801 14.341C5.34132 14.3699 5.19686 14.4277 5.48579 14.5866L7.40724 15.7279ZM6.74268 9.16899C6.74268 10.1514 7.26277 11.3071 9.79099 11.3071C11.6257 11.3071 12.6659 10.5848 12.6804 9.31346C12.6804 8.07102 11.8425 7.73874 10.0655 7.50759C8.27406 7.27644 8.08625 7.14642 8.08625 6.72746C8.08625 6.38073 8.24516 5.91843 9.57428 5.91843C10.7589 5.91843 11.2068 6.17847 11.3802 6.97305C11.3946 7.04529 11.4668 7.10308 11.5391 7.10308H12.2903C12.3336 7.10308 12.377 7.07418 12.4059 7.04529C12.4348 7.00195 12.4492 6.95861 12.4492 6.91527C12.3336 5.52836 11.4235 4.89269 9.57428 4.89269C7.92733 4.89269 6.94494 5.58615 6.94494 6.75635C6.94494 8.01323 7.92733 8.35996 9.50205 8.51888C11.3946 8.70669 11.5391 8.98118 11.5391 9.3568C11.5391 10.0069 11.019 10.2814 9.80543 10.2814C8.27406 10.2814 7.94178 9.90579 7.8262 9.1401C7.8262 9.05342 7.75397 8.99563 7.66728 8.99563H6.91604C6.81491 8.99563 6.74268 9.08231 6.74268 9.16899Z" fill="#699F63"/>
</svg>
