<svg width="16" height="16" viewBox="0 0 16 16" fill="none" xmlns="http://www.w3.org/2000/svg">
<g clip-path="url(#clip0_1447_1838)">
<path d="M3.00753 2.78495C3.50161 3.18634 3.68696 3.15571 4.6147 3.09382L13.3612 2.56862C13.5467 2.56862 13.3925 2.38356 13.3306 2.3528L11.878 1.30268C11.5997 1.0866 11.2288 0.839134 10.5181 0.901032L2.04887 1.51876C1.74001 1.54938 1.67831 1.70381 1.80133 1.82761L3.00753 2.78495ZM3.53266 4.8233V14.0262C3.53266 14.5208 3.77982 14.7058 4.33611 14.6752L13.9485 14.119C14.5051 14.0884 14.5671 13.7482 14.5671 13.3464V4.20532C14.5671 3.80419 14.4128 3.58786 14.0721 3.61874L4.02699 4.20532C3.6563 4.23647 3.53266 4.42191 3.53266 4.8233ZM13.022 5.31697C13.0836 5.5952 13.022 5.87317 12.7433 5.90443L12.2801 5.99671V12.7909C11.878 13.007 11.5072 13.1305 11.1982 13.1305C10.7035 13.1305 10.5796 12.976 10.209 12.513L7.17951 7.75708V12.3586L8.13816 12.5749C8.13816 12.5749 8.13816 13.1305 7.36473 13.1305L5.23256 13.2542C5.17061 13.1305 5.23256 12.822 5.44882 12.7601L6.00523 12.6059V6.52191L5.23268 6.46C5.17074 6.18178 5.32504 5.78064 5.75807 5.7495L8.04542 5.59531L11.1982 10.4132V6.15114L10.3944 6.05887C10.3327 5.71874 10.5796 5.47177 10.8887 5.44114L13.022 5.31697ZM1.33777 0.684958L10.1472 0.0362255C11.229 -0.056559 11.5073 0.00559274 12.1872 0.499515L14.9993 2.47596C15.4633 2.81583 15.618 2.90837 15.618 3.27887V14.119C15.618 14.7983 15.3705 15.2001 14.5052 15.2616L4.27492 15.8794C3.62539 15.9104 3.31626 15.8178 2.97611 15.3851L0.905261 12.6983C0.534189 12.2038 0.379883 11.8338 0.379883 11.4009V1.76546C0.379883 1.20989 0.627432 0.746476 1.33777 0.684958Z" fill="#FF00FF"/>
</g>
<defs>
<clipPath id="clip0_1447_1838">
<rect width="16" height="16" fill="white"/>
</clipPath>
</defs>
</svg>
