<svg width="20" height="20" viewBox="0 0 20 20" fill="none" xmlns="http://www.w3.org/2000/svg">
<g clip-path="url(#clip0)">
<path d="M19 18.5L4.5 19.5L1 14.5V1.5L14 0.5L19 4V18.5Z" fill="white"/>
<path d="M3.75965 3.48119C4.37726 3.98292 4.60894 3.94464 5.76862 3.86727L16.7018 3.21078C16.9337 3.21078 16.7408 2.97944 16.6635 2.941L14.8477 1.62835C14.4998 1.35825 14.0363 1.04892 13.1479 1.12629L2.56134 1.89844C2.17526 1.93673 2.09813 2.12976 2.25191 2.28451L3.75965 3.48119ZM4.41607 6.02913V17.5327C4.41607 18.151 4.72502 18.3822 5.42038 18.344L17.4359 17.6487C18.1316 17.6105 18.2091 17.1852 18.2091 16.683V5.25665C18.2091 4.75524 18.0162 4.48483 17.5903 4.52343L5.03399 5.25665C4.57062 5.29559 4.41607 5.52738 4.41607 6.02913ZM16.2777 6.64621C16.3548 6.994 16.2777 7.34146 15.9294 7.38054L15.3504 7.49589V15.9886C14.8477 16.2587 14.3842 16.4132 13.998 16.4132C13.3796 16.4132 13.2247 16.22 12.7615 15.6413L8.97464 9.69635V15.4482L10.1729 15.7187C10.1729 15.7187 10.1729 16.4132 9.20616 16.4132L6.54094 16.5678C6.46351 16.4132 6.54094 16.0275 6.81127 15.9502L7.50678 15.7574V8.15238L6.5411 8.075C6.46367 7.72722 6.65654 7.22579 7.19783 7.18687L10.057 6.99414L13.998 13.0164V7.68892L12.9932 7.57359C12.9161 7.14843 13.2247 6.83971 13.6111 6.80143L16.2777 6.64621ZM1.67246 0.856197L12.6842 0.0452819C14.0365 -0.0706987 14.3844 0.00699092 15.2343 0.624394L18.7494 3.09495C19.3294 3.51979 19.5227 3.63546 19.5227 4.09859V17.6487C19.5227 18.4979 19.2134 19.0002 18.1318 19.077L5.34389 19.8492C4.53199 19.8879 4.14557 19.7722 3.72038 19.2314L1.13182 15.8729C0.66798 15.2547 0.475098 14.7922 0.475098 14.2511V2.20683C0.475098 1.51237 0.784534 0.933095 1.67246 0.856197Z" fill="#373539"/>
</g>
<defs>
<clipPath id="clip0">
<rect width="20" height="20" fill="white"/>
</clipPath>
</defs>
</svg>
