<svg width="16" height="16" viewBox="0 0 16 16" fill="none" xmlns="http://www.w3.org/2000/svg">
<g clip-path="url(#clip0_1447_2915)">
<path d="M8.00136 13.3333C7.28735 13.3333 6.66868 13.1787 6.14539 12.8693C5.62399 12.5612 5.20712 12.1247 4.94222 11.6095C4.66058 11.0734 4.45441 10.5064 4.3287 9.92239C4.19533 9.28903 4.13036 8.6451 4.13473 7.99996C4.13473 7.48919 4.16824 7.00088 4.23591 6.53392C4.30293 6.06755 4.42731 5.59347 4.6084 5.11229C4.78948 4.6311 5.02277 4.21392 5.30697 3.86014C5.60285 3.49771 5.98541 3.20269 6.42509 2.99793C6.8865 2.77689 7.4111 2.66666 8.00136 2.66666C8.7154 2.66666 9.33409 2.82133 9.85742 3.13066C10.3788 3.43877 10.7957 3.87528 11.0606 4.39051C11.3402 4.92088 11.5446 5.48326 11.6741 6.07762C11.803 6.6714 11.8681 7.31258 11.8681 7.99996C11.8681 8.51081 11.8346 8.99909 11.7669 9.46606C11.6948 9.95088 11.5673 10.4274 11.3866 10.8877C11.1997 11.3689 10.9678 11.7861 10.688 12.1398C10.4084 12.4936 10.0385 12.781 9.5777 13.0021C9.11693 13.2231 8.59169 13.3333 8.00136 13.3333ZM9.36632 9.41197C9.73611 9.04268 9.94184 8.53169 9.93472 7.99996C9.93472 7.45068 9.74979 6.97999 9.3805 6.58799C9.01057 6.19599 8.55114 5.99999 8.00136 5.99999C7.45165 5.99999 6.99219 6.19599 6.62228 6.58799C6.26005 6.9614 6.06001 7.47106 6.06806 7.99996C6.06806 8.54932 6.25302 9.01996 6.62228 9.41197C6.99219 9.80397 7.45165 9.99997 8.00136 9.99997C8.55114 9.99997 9.00605 9.80397 9.36632 9.41197ZM8.00136 16C12.2721 16 15.7347 12.418 15.7347 7.99996C15.7347 3.582 12.2721 0 8.00136 0C3.73066 0 0.268066 3.582 0.268066 7.99996C0.268066 12.418 3.73066 16 8.00136 16Z" fill="black"/>
</g>
<defs>
<clipPath id="clip0_1447_2915">
<rect width="16" height="16" fill="white"/>
</clipPath>
</defs>
</svg>
