<svg width="20" height="20" viewBox="0 0 20 20" fill="none" xmlns="http://www.w3.org/2000/svg">
<path d="M10.0016 16.6667C9.10906 16.6667 8.33573 16.4733 7.68162 16.0867C7.02986 15.7015 6.50877 15.1558 6.17765 14.5118C5.8256 13.8417 5.56789 13.1331 5.41076 12.403C5.24404 11.6113 5.16283 10.8064 5.16829 9.99996C5.16829 9.36149 5.21018 8.75111 5.29476 8.1674C5.37854 7.58444 5.53401 6.99184 5.76037 6.39036C5.98673 5.78888 6.27834 5.2674 6.63359 4.82518C7.00344 4.37213 7.48164 4.00337 8.03123 3.74741C8.60801 3.47111 9.26375 3.33333 10.0016 3.33333C10.8941 3.33333 11.6675 3.52667 12.3216 3.91333C12.9733 4.29846 13.4945 4.8441 13.8256 5.48814C14.1752 6.1511 14.4306 6.85407 14.5924 7.59703C14.7536 8.33925 14.835 9.14073 14.835 9.99996C14.835 10.6385 14.7931 11.2489 14.7085 11.8326C14.6184 12.4386 14.459 13.0342 14.2332 13.6096C13.9995 14.2111 13.7096 14.7326 13.3599 15.1748C13.0104 15.617 12.548 15.9763 11.972 16.2526C11.396 16.5289 10.7395 16.6667 10.0016 16.6667ZM11.7078 11.765C12.17 11.3033 12.4272 10.6646 12.4183 9.99996C12.4183 9.31335 12.1871 8.72499 11.7255 8.23499C11.2631 7.74499 10.6888 7.49999 10.0016 7.49999C9.31444 7.49999 8.74012 7.74499 8.27773 8.23499C7.82494 8.70175 7.57489 9.33883 7.58495 9.99996C7.58495 10.6867 7.81615 11.275 8.27773 11.765C8.74012 12.255 9.31444 12.5 10.0016 12.5C10.6888 12.5 11.2574 12.255 11.7078 11.765ZM10.0016 20C15.3401 20 19.6683 15.5225 19.6683 9.99996C19.6683 4.47749 15.3401 0 10.0016 0C4.66321 0 0.334961 4.47749 0.334961 9.99996C0.334961 15.5225 4.66321 20 10.0016 20Z" fill="#FF00FF"/>
</svg>
