<svg width="20" height="20" viewBox="0 0 20 20" fill="none" xmlns="http://www.w3.org/2000/svg">
<path d="M7.7249 7.33124L11.7499 9.74374L14.1437 8.74999C14.6317 8.54143 15.1567 8.43303 15.6874 8.43124H15.9499C15.6618 7.30791 15.0537 6.29241 14.1995 5.50811C13.3452 4.72381 12.2816 4.20447 11.1378 4.01318C9.99396 3.82188 8.81922 3.96687 7.75625 4.43052C6.69328 4.89417 5.78783 5.65653 5.1499 6.62499H5.2124C6.09915 6.62318 6.96897 6.86768 7.7249 7.33124Z" fill="#0364B8"/>
<path d="M7.72505 7.33124C6.97338 6.86771 6.10815 6.62112 5.22505 6.61874H5.16255C4.29754 6.63454 3.45293 6.88413 2.71828 7.34105C1.98363 7.79797 1.38633 8.44519 0.989711 9.21407C0.593095 9.98295 0.411951 10.8448 0.465487 11.7083C0.519023 12.5718 0.805244 13.4047 1.2938 14.1187L4.8438 12.625L6.4188 11.9625L9.92505 10.4875L11.7625 9.71874L7.72505 7.33124Z" fill="#0F78D4"/>
<path d="M15.95 8.42499H15.6875C15.1568 8.42678 14.6318 8.53517 14.1438 8.74374L11.75 9.74374L12.4438 10.1562L14.7187 11.5187L15.7125 12.1437L19.1125 14.175C19.4199 13.6018 19.5789 12.9608 19.5749 12.3104C19.5709 11.66 19.404 11.021 19.0895 10.4517C18.775 9.88239 18.3229 9.40092 17.7745 9.05126C17.2261 8.7016 16.5988 8.49489 15.95 8.44999V8.42499Z" fill="#1490DF"/>
<path d="M15.7125 12.1188L14.7188 11.4938L12.4438 10.1312L11.75 9.71875L9.9125 10.4875L6.40625 11.9625L4.83125 12.625L1.28125 14.1188C1.72231 14.7525 2.31028 15.27 2.99489 15.627C3.67951 15.984 4.4404 16.1699 5.2125 16.1687H15.6875C16.3899 16.1699 17.0794 15.9804 17.6826 15.6205C18.2858 15.2605 18.78 14.7437 19.1125 14.125L15.7125 12.1188Z" fill="#28A8EA"/>
<path style="mix-blend-mode:soft-light" opacity="0.5" d="M15.9499 8.42499C15.6618 7.30165 15.0537 6.28615 14.1995 5.50186C13.3452 4.71756 12.2816 4.19822 11.1378 4.00692C9.99396 3.81563 8.81922 3.96061 7.75626 4.42426C6.69329 4.88791 5.78784 5.65027 5.14991 6.61874C4.5212 6.62284 3.89946 6.75074 3.32019 6.99512C2.74091 7.23951 2.21545 7.5956 1.77379 8.04306C0.881817 8.94675 0.385369 10.1678 0.393657 11.4375C0.401945 12.7072 0.914289 13.9216 1.81798 14.8136C2.72167 15.7056 3.94268 16.202 5.21241 16.1937H15.6874C16.7038 16.2061 17.6846 15.8199 18.4197 15.1178C19.1548 14.4157 19.5856 13.4537 19.62 12.4378C19.6543 11.4219 19.2894 10.433 18.6033 9.68289C17.9173 8.93282 16.9648 8.48126 15.9499 8.42499Z" fill="url(#paint0_linear)"/>
<defs>
<linearGradient id="paint0_linear" x1="6.18741" y1="5.36874" x2="12.7249" y2="16.7" gradientUnits="userSpaceOnUse">
<stop stop-color="white" stop-opacity="0.5"/>
<stop offset="1" stop-opacity="0.7"/>
</linearGradient>
</defs>
</svg>
