<svg width="16" height="16" fill="none" xmlns="http://www.w3.org/2000/svg"><path d="m6.18 5.865 3.22 1.93L11.315 7a3.17 3.17 0 0 1 1.235-.255h.21A4.79 4.79 0 0 0 4.12 5.3h.05a3.83 3.83 0 0 1 2.01.565z" fill="#0364B8"/><path d="M6.18 5.865a3.83 3.83 0 0 0-2-.57h-.05a3.835 3.835 0 0 0-3.095 6l2.84-1.195 1.26-.53L7.94 8.39l1.47-.615-3.23-1.91z" fill="#0F78D4"/><path d="M12.76 6.74h-.21a3.17 3.17 0 0 0-1.235.255l-1.915.8.555.33 1.82 1.09.795.5 2.72 1.625a3.115 3.115 0 0 0-2.53-4.58v-.02z" fill="#1490DF"/><path d="m12.57 9.695-.795-.5-1.82-1.09-.555-.33-1.47.615-2.805 1.18-1.26.53-2.84 1.195a3.825 3.825 0 0 0 3.145 1.64h8.38a3.106 3.106 0 0 0 2.74-1.635l-2.72-1.605z" fill="#28A8EA"/><path style="mix-blend-mode:soft-light" opacity=".5" d="M12.76 6.74a4.79 4.79 0 0 0-8.64-1.445 3.83 3.83 0 0 0 .05 7.66h8.38a3.11 3.11 0 0 0 .21-6.215z" fill="url(#a)"/><defs><linearGradient id="a" x1="4.95" y1="4.295" x2="10.18" y2="13.36" gradientUnits="userSpaceOnUse"><stop stop-color="#fff" stop-opacity=".5"/><stop offset="1" stop-opacity=".7"/></linearGradient></defs></svg>