<svg width="16" height="16" viewBox="0 0 16 16" fill="none" xmlns="http://www.w3.org/2000/svg">
<path d="M6.18012 5.865L9.40012 7.795L11.3151 7C11.7056 6.83315 12.1255 6.74643 12.5501 6.745H12.7601C12.5296 5.84633 12.0432 5.03393 11.3598 4.4065C10.6764 3.77906 9.82544 3.36358 8.9104 3.21055C7.99536 3.05751 7.05557 3.1735 6.2052 3.54442C5.35482 3.91534 4.63046 4.52523 4.12012 5.3H4.17012C4.87951 5.29855 5.57537 5.49415 6.18012 5.865Z" fill="#0364B8"/>
<path d="M6.17999 5.865C5.57865 5.49417 4.88647 5.2969 4.17999 5.295H4.12999C3.43798 5.30763 2.7623 5.5073 2.17458 5.87284C1.58686 6.23838 1.10901 6.75615 0.79172 7.37126C0.474427 7.98637 0.329512 8.67588 0.372341 9.36667C0.41517 10.0575 0.644147 10.7238 1.03499 11.295L3.87499 10.1L5.13499 9.57L7.93999 8.39L9.40999 7.775L6.17999 5.865Z" fill="#0F78D4"/>
<path d="M12.7599 6.74001H12.5499C12.1253 6.74144 11.7053 6.82815 11.3149 6.99501V6.99501L9.3999 7.79501L9.9549 8.12501L11.7749 9.21501L12.5699 9.71501L15.2899 11.34C15.5359 10.8815 15.663 10.3687 15.6598 9.84835C15.6566 9.32804 15.5231 8.81682 15.2715 8.36137C15.0199 7.90592 14.6583 7.52075 14.2195 7.24102C13.7808 6.9613 13.279 6.79592 12.7599 6.76001V6.74001Z" fill="#1490DF"/>
<path d="M12.5699 9.69499L11.7749 9.19499L9.9549 8.10499L9.3999 7.77499L7.9299 8.38999L5.1249 9.56999L3.8649 10.1L1.0249 11.295C1.37775 11.802 1.84813 12.216 2.39582 12.5016C2.94351 12.7872 3.55222 12.9359 4.1699 12.935H12.5499C13.1118 12.9359 13.6634 12.7843 14.146 12.4964C14.6285 12.2084 15.0239 11.7949 15.2899 11.3L12.5699 9.69499Z" fill="#28A8EA"/>
<path style="mix-blend-mode:soft-light" opacity="0.5" d="M12.76 6.73999C12.5296 5.84133 12.0431 5.02893 11.3597 4.40149C10.6763 3.77405 9.82535 3.35858 8.91031 3.20554C7.99527 3.05251 7.05548 3.16849 6.2051 3.53941C5.35473 3.91034 4.63037 4.52023 4.12002 5.29499C3.61706 5.29828 3.11967 5.40059 2.65625 5.5961C2.19283 5.79161 1.77245 6.07648 1.41913 6.43445C0.705551 7.15741 0.308393 8.13422 0.315023 9.14999C0.321654 10.1658 0.731529 11.1373 1.45448 11.8509C2.17743 12.5645 3.15424 12.9616 4.17002 12.955H12.55C13.3631 12.9649 14.1478 12.6559 14.7359 12.0943C15.3239 11.5326 15.6686 10.763 15.6961 9.95025C15.7235 9.13753 15.4316 8.34638 14.8828 7.74632C14.334 7.14626 13.572 6.78502 12.76 6.73999V6.73999Z" fill="url(#paint0_linear_1447_2040)"/>
<defs>
<linearGradient id="paint0_linear_1447_2040" x1="4.95002" y1="4.29499" x2="10.18" y2="13.36" gradientUnits="userSpaceOnUse">
<stop stop-color="white" stop-opacity="0.5"/>
<stop offset="1" stop-opacity="0.7"/>
</linearGradient>
</defs>
</svg>
