<svg width="16" height="16" viewBox="0 0 16 16" fill="none" xmlns="http://www.w3.org/2000/svg">
<g clip-path="url(#clip0_2179_3851)">
<path d="M8 0C5.87827 0 3.84344 0.842855 2.34315 2.34315C0.842855 3.84344 0 5.87827 0 8C0 10.1217 0.842855 12.1566 2.34315 13.6569C3.84344 15.1571 5.87827 16 8 16C10.1217 16 12.1566 15.1571 13.6569 13.6569C15.1571 12.1566 16 10.1217 16 8C16 5.87827 15.1571 3.84344 13.6569 2.34315C12.1566 0.842855 10.1217 0 8 0Z" fill="#FF6A10"/>
<path d="M8.79977 14.24H7.19977V10.944C6.65577 11.296 5.98377 11.52 5.27977 11.52C3.32777 11.52 1.75977 9.95201 1.75977 8.00001C1.75977 6.04801 3.32777 4.48001 5.27977 4.48001C5.98377 4.48001 6.65577 4.70401 7.19977 5.05601V1.76001H8.79977V5.05601C9.34377 4.70401 10.0158 4.48001 10.7198 4.48001C12.6718 4.48001 14.2398 6.04801 14.2398 8.00001C14.2398 9.95201 12.6718 11.52 10.7198 11.52C10.0158 11.52 9.34377 11.296 8.79977 10.944V14.24ZM10.7198 6.08001C9.66377 6.08001 8.79977 6.94401 8.79977 8.00001C8.79977 9.05601 9.66377 9.92001 10.7198 9.92001C11.7758 9.92001 12.6398 9.05601 12.6398 8.00001C12.6398 6.94401 11.7758 6.08001 10.7198 6.08001ZM5.27977 6.08001C4.22377 6.08001 3.35977 6.94401 3.35977 8.00001C3.35977 9.05601 4.22377 9.92001 5.27977 9.92001C6.33577 9.92001 7.19977 9.05601 7.19977 8.00001C7.19977 6.94401 6.33577 6.08001 5.27977 6.08001Z" fill="white"/>
</g>
<defs>
<clipPath id="clip0_2179_3851">
<rect width="16" height="16" fill="white"/>
</clipPath>
</defs>
</svg>
