<svg width="16" height="16" viewBox="0 0 16 16" fill="none" xmlns="http://www.w3.org/2000/svg">
<g clip-path="url(#clip0_1447_2939)">
<path d="M0 0.888889C0 0.39797 0.397969 0 0.888889 0H15.1111C15.602 0 16 0.397969 16 0.888889V15.1111C16 15.602 15.602 16 15.1111 16H0.888889C0.39797 16 0 15.602 0 15.1111V0.888889Z" fill="#7451EB"/>
<path fill-rule="evenodd" clip-rule="evenodd" d="M8.36534 2.1689C10.8239 2.80924 12.6373 4.99868 12.8352 7.56557C12.9708 9.32279 12.3739 10.9327 11.1111 12.2159C9.89112 13.4559 8.58556 13.9951 6.79834 13.9975C5.62001 13.999 4.66368 13.7487 3.83201 13.2209C3.35412 12.9178 3.31068 12.8583 3.44312 12.6896C3.52512 12.5851 3.98345 12.0378 4.46156 11.4733L5.3309 10.4471L5.73934 10.6222C6.29256 10.8595 7.3669 10.855 7.95423 10.6132C8.54012 10.372 9.33945 9.50202 9.51568 8.9139C9.84912 7.80102 9.51212 6.59779 8.66379 5.87157C7.90312 5.22046 6.69656 5.02546 5.75656 5.40157C5.50834 5.5009 5.29023 5.56346 5.27201 5.54046C5.25379 5.51757 4.80579 4.98424 4.27668 4.35524C3.74745 3.72624 3.31445 3.18946 3.31445 3.16235C3.31445 3.01757 4.29134 2.5019 5.00068 2.27224C5.97979 1.95524 7.37979 1.91224 8.36534 2.1689Z" fill="white"/>
</g>
<defs>
<clipPath id="clip0_1447_2939">
<rect width="16" height="16" fill="white"/>
</clipPath>
</defs>
</svg>
