<svg width="16" height="16" viewBox="0 0 16 16" fill="none" xmlns="http://www.w3.org/2000/svg">
<g clip-path="url(#clip0_1447_2929)">
<path d="M5.91377 1.7252C5.17834 2.4579 4.64991 3.37218 4.38216 4.37518C4.8638 4.24699 5.35963 4.17978 5.85802 4.17512L4.1821 5.84612C4.17743 6.21553 4.20818 6.58454 4.27393 6.94809L6.95507 4.26695C7.29923 4.32815 7.63727 4.4198 7.96521 4.54081C8.06375 4.38821 8.17808 4.2464 8.3063 4.11773C8.55751 3.86751 8.85853 3.67292 9.18982 3.5466C9.52112 3.42027 9.87528 3.36502 10.2293 3.38445C10.5833 3.40388 10.9293 3.49754 11.2448 3.65936C11.5603 3.82118 11.8382 4.04753 12.0605 4.32373C12.2829 4.59993 12.4446 4.9198 12.5353 5.26257C12.626 5.60534 12.6436 5.96335 12.5869 6.31336C12.5302 6.66336 12.4006 6.99754 12.2064 7.2942C12.0122 7.59085 11.7578 7.84335 11.4597 8.0353C11.5807 8.36325 11.6724 8.70129 11.7336 9.04544L9.05242 11.7266C9.41597 11.7923 9.78498 11.8231 10.1544 11.8184L11.8254 10.1474C11.8207 10.6458 11.7535 11.1416 11.6253 11.6233C12.5005 11.3877 13.3098 10.9541 13.9908 10.356C14.6717 9.75783 15.206 9.01117 15.5525 8.17367C15.8989 7.33617 16.0482 6.43024 15.9889 5.52586C15.9295 4.62148 15.663 3.74284 15.21 2.95783C14.7571 2.17282 14.1297 1.50244 13.3764 0.99847C12.6231 0.494503 11.764 0.170438 10.8656 0.0513062C9.96711 -0.0678251 9.05328 0.0211662 8.19468 0.311406C7.33608 0.601646 6.55568 1.08537 5.91377 1.7252V1.7252Z" fill="#002DFF"/>
<path d="M7.81052 6.99559C7.66818 6.69691 7.58573 6.37323 7.56782 6.04285L6.04769 7.56298L4.8916 8.71906C5.02818 8.9732 5.18387 9.2166 5.35732 9.44715L6.99715 7.80731L7.81052 6.99559ZM9.95707 8.43865C9.62668 8.42074 9.30301 8.33829 9.00432 8.19596L8.19916 8.99948L6.55932 10.6393C6.78987 10.8128 7.03327 10.9684 7.28741 11.105L8.44513 9.9473L9.95707 8.43865Z" fill="#002DFF"/>
<path d="M7.56791 6.04295C7.53917 5.513 7.67801 4.98746 7.96475 4.54085C7.63681 4.41984 7.29877 4.3282 6.95461 4.267L4.27347 6.94814C4.33467 7.2923 4.42631 7.63034 4.54732 7.95828C4.64285 8.22019 4.75796 8.47454 4.89169 8.71916L7.56791 6.04295ZM9.95715 8.43875L7.28094 11.1084C7.52344 11.2418 7.77559 11.3569 8.03526 11.4528C8.36296 11.5745 8.70107 11.6662 9.0454 11.7266L11.7331 9.04549C11.6719 8.70134 11.5803 8.36329 11.4592 8.03535C11.0134 8.32439 10.4878 8.46555 9.95715 8.43875V8.43875ZM11.6249 11.6184C11.7531 11.1368 11.8203 10.6409 11.8249 10.1425L10.1539 11.8185C10.6507 11.8141 11.145 11.7469 11.6249 11.6184V11.6184ZM4.3817 4.37523C4.2528 4.85673 4.18558 5.35265 4.18164 5.85109L5.85264 4.17517C5.3559 4.18024 4.86175 4.24745 4.3817 4.37523V4.37523ZM9.00441 8.1895C8.48246 7.93866 8.06144 7.51764 7.8106 6.99569L5.35085 9.44725C5.69447 9.90147 6.10147 10.3041 6.55941 10.6427L9.00441 8.1895Z" fill="#09053B"/>
<path d="M4.38165 4.37512C3.13452 4.71005 2.03121 5.4438 1.24008 6.4644C0.448942 7.48499 0.0134314 8.7364 0 10.0276L4.18159 5.84606C4.18594 5.34927 4.25316 4.85503 4.38165 4.37512V4.37512ZM5.97229 15.9999C7.26355 15.9865 8.51495 15.551 9.53555 14.7599C10.5561 13.9687 11.2899 12.8654 11.6248 11.6183C11.1433 11.7472 10.6474 11.8144 10.149 11.8184L5.97229 15.9999ZM4.1242 8.29926C4.25252 8.17065 4.39437 8.05629 4.54727 7.95817C4.42626 7.63023 4.33462 7.29219 4.27342 6.94803L0.091831 11.1296C0.201175 11.7494 0.409938 12.3475 0.71005 12.9006L3.38791 10.2228C3.36828 9.8684 3.42372 9.51386 3.5506 9.18238C3.67749 8.8509 3.87295 8.54996 4.1242 8.29926V8.29926ZM8.03521 11.4527C7.79374 11.8287 7.45699 12.134 7.05921 12.3377C6.66144 12.5413 6.21682 12.636 5.77059 12.612L3.0993 15.2899C3.65249 15.59 4.25054 15.7988 4.87032 15.9081L9.05191 11.7265C8.70536 11.6665 8.36503 11.5748 8.03521 11.4527V11.4527ZM4.1242 11.8823C3.92155 11.6786 3.75517 11.4418 3.63224 11.1821L1.17248 13.6419C1.34199 13.8683 1.52778 14.082 1.72839 14.2814C1.92813 14.4816 2.14185 14.6674 2.36793 14.8373L4.82769 12.3775C4.56657 12.2539 4.32862 12.0864 4.1242 11.8823V11.8823Z" fill="#002DFF"/>
</g>
<defs>
<clipPath id="clip0_1447_2929">
<rect width="16" height="16" fill="white"/>
</clipPath>
</defs>
</svg>
