<svg width="16" height="16" viewBox="0 0 16 16" fill="none" xmlns="http://www.w3.org/2000/svg">
<g clip-path="url(#clip0_1447_2929)">
<path d="M5.32861 8.49157V10.3534C6.7492 10.3517 8.11114 9.80398 9.11565 8.83027C10.1202 7.85656 10.6852 6.53643 10.687 5.15942H8.7662C8.76508 6.0428 8.40251 6.88974 7.75812 7.51437C7.11368 8.13905 6.23997 8.49045 5.32861 8.49157Z" fill="#3BE081"/>
<path d="M5.32793 13.6201C4.42313 13.6201 3.5554 13.2717 2.91562 12.6515C2.27583 12.0314 1.91641 11.1903 1.91641 10.3132C1.91641 9.43617 2.27583 8.59509 2.91562 7.9749C3.5554 7.35475 4.42313 7.00633 5.32793 7.00633V5.15821C4.62924 5.15725 3.93722 5.28968 3.29135 5.54797C2.64548 5.80621 2.05841 6.1853 1.56367 6.66348C1.06892 7.14166 0.676193 7.70967 0.4079 8.33497C0.139606 8.96031 0.00100354 9.63074 5.42939e-06 10.308C-0.000992678 10.9852 0.135633 11.656 0.402083 12.2821C0.668534 12.9081 1.05959 13.4772 1.55292 13.9568C2.04625 14.4363 2.6322 14.817 3.27731 15.0771C3.92242 15.3371 4.61404 15.4715 5.31274 15.4725H5.32793V13.6201Z" fill="#0037FF"/>
<path d="M5.32861 13.6203V15.4684C6.73966 15.4684 8.09291 14.9251 9.09066 13.9579C10.0884 12.9908 10.6489 11.679 10.6489 10.3113H8.74017C8.73959 11.1883 8.38005 12.0293 7.74043 12.6497C7.10085 13.2701 6.23346 13.6191 5.32861 13.6203Z" fill="#00CCFF"/>
<path d="M5.32861 3.30898V5.15711C6.73966 5.15711 8.09291 4.61379 9.09066 3.64664C10.0884 2.67949 10.6489 1.36775 10.6489 0H8.74017C8.73959 0.877062 8.38005 1.71807 7.74043 2.33844C7.10085 2.95882 6.23346 3.30787 5.32861 3.30898Z" fill="#861DFF"/>
<path d="M10.6797 3.30898V5.15711C12.0907 5.15711 13.4439 4.61379 14.4417 3.64664C15.4395 2.67949 16 1.36775 16 0H14.0923C14.0917 0.877241 13.732 1.71841 13.0922 2.33882C12.4523 2.95922 11.5847 3.30814 10.6797 3.30898Z" fill="#FF8110"/>
</g>
<defs>
<clipPath id="clip0_1447_2929">
<rect width="16" height="16" fill="white"/>
</clipPath>
</defs>
</svg>
