<svg width="20" height="20" viewBox="0 0 20 20" fill="none" xmlns="http://www.w3.org/2000/svg">
<g clip-path="url(#clip0)">
<path d="M7.39222 2.1565C6.47292 3.07237 5.81239 4.21522 5.4777 5.46898C6.07975 5.30874 6.69954 5.22472 7.32252 5.2189L5.22763 7.30765C5.22179 7.76942 5.26022 8.23068 5.34242 8.68511L8.69384 5.33369C9.12403 5.41019 9.54659 5.52474 9.95651 5.67601C10.0797 5.48526 10.2226 5.308 10.3829 5.14716C10.6969 4.83439 11.0732 4.59115 11.4873 4.43324C11.9014 4.27533 12.3441 4.20628 12.7866 4.23056C13.2292 4.25485 13.6617 4.37192 14.056 4.5742C14.4504 4.77647 14.7978 5.05942 15.0757 5.40467C15.3536 5.74992 15.5558 6.14975 15.6691 6.57822C15.7825 7.00668 15.8044 7.45419 15.7336 7.8917C15.6628 8.3292 15.5008 8.74693 15.258 9.11774C15.0153 9.48856 14.6973 9.80419 14.3246 10.0441C14.4759 10.4541 14.5905 10.8766 14.667 11.3068L11.3155 14.6582C11.77 14.7404 12.2312 14.7789 12.693 14.773L14.7817 12.6843C14.7759 13.3073 14.6919 13.927 14.5317 14.5291C15.6256 14.2346 16.6373 13.6926 17.4885 12.9449C18.3396 12.1973 19.0075 11.264 19.4406 10.2171C19.8737 9.17022 20.0603 8.0378 19.9861 6.90732C19.9119 5.77684 19.5788 4.67855 19.0125 3.69729C18.4463 2.71602 17.6621 1.87805 16.7205 1.24809C15.7789 0.618129 14.7051 0.213047 13.582 0.0641328C12.4589 -0.0847814 11.3166 0.0264577 10.2433 0.389257C9.17009 0.752057 8.1946 1.35671 7.39222 2.1565Z" fill="#FF00FF"/>
<path d="M9.76339 8.74455C9.58547 8.37119 9.48241 7.9666 9.46002 7.55362L7.55985 9.45378L6.11475 10.8989C6.28547 11.2166 6.48008 11.5208 6.69689 11.809L8.74669 9.7592L9.76339 8.74455ZM12.4466 10.5484C12.0336 10.526 11.629 10.4229 11.2556 10.245L10.2492 11.2494L8.19939 13.2992C8.48759 13.516 8.79183 13.7106 9.1095 13.8813L10.5567 12.4342L12.4466 10.5484Z" fill="#FF00FF"/>
<path d="M9.45989 7.55364C9.42396 6.8912 9.59752 6.23427 9.95594 5.67602C9.54601 5.52476 9.12346 5.4102 8.69326 5.33371L5.34184 8.68513C5.41834 9.11532 5.53289 9.53788 5.68416 9.9478C5.80356 10.2752 5.94745 10.5931 6.11461 10.8989L9.45989 7.55364ZM12.4464 10.5484L9.10117 13.8855C9.4043 14.0523 9.71949 14.1961 10.0441 14.3159C10.4537 14.4681 10.8763 14.5827 11.3068 14.6582L14.6664 11.3068C14.5899 10.8766 14.4753 10.4541 14.3241 10.0441C13.7668 10.4054 13.1098 10.5819 12.4464 10.5484ZM14.5311 14.523C14.6913 13.9209 14.7753 13.3011 14.7812 12.6781L12.6924 14.773C13.3134 14.7676 13.9312 14.6836 14.5311 14.523ZM5.47713 5.46899C5.316 6.07087 5.23197 6.69077 5.22705 7.31381L7.3158 5.21892C6.69487 5.22525 6.07718 5.30926 5.47713 5.46899ZM11.2555 10.2368C10.6031 9.92328 10.0768 9.397 9.76326 8.74457L6.68856 11.809C7.11809 12.3768 7.62683 12.88 8.19926 13.3033L11.2555 10.2368Z" fill="#FF00FF"/>
<path d="M5.47706 5.46898C3.91815 5.88764 2.53901 6.80482 1.55009 8.08057C0.561177 9.35632 0.0167892 10.9206 0 12.5346L5.22699 7.30765C5.23243 6.68666 5.31645 6.06886 5.47706 5.46898ZM7.46537 20C9.07943 19.9832 10.6437 19.4388 11.9194 18.4499C13.1952 17.461 14.1124 16.0819 14.531 14.5229C13.9292 14.6841 13.3093 14.7681 12.6862 14.773L7.46537 20ZM5.15524 10.3741C5.31565 10.2134 5.49296 10.0704 5.68409 9.94779C5.53283 9.53786 5.41827 9.11531 5.34178 8.68511L0.114789 13.9121C0.251469 14.6868 0.512423 15.4344 0.887563 16.1259L4.23488 12.7786C4.21035 12.3356 4.27965 11.8924 4.43825 11.4781C4.59686 11.0637 4.84119 10.6875 5.15524 10.3741ZM10.044 14.3159C9.74217 14.7859 9.32124 15.1676 8.82402 15.4222C8.3268 15.6767 7.77103 15.795 7.21324 15.7651L3.87412 19.1124C4.56561 19.4876 5.31317 19.7485 6.0879 19.8852L11.3149 14.6582C10.8817 14.5832 10.4563 14.4686 10.044 14.3159ZM5.15524 14.853C4.90193 14.5983 4.69396 14.3023 4.5403 13.9777L1.46561 17.0524C1.67748 17.3354 1.90973 17.6026 2.16049 17.8518C2.41017 18.1021 2.67731 18.3343 2.95991 18.5467L6.03461 15.472C5.70822 15.3175 5.41077 15.1081 5.15524 14.853Z" fill="#FF00FF"/>
</g>
<defs>
<clipPath id="clip0">
<rect width="20" height="20" fill="white"/>
</clipPath>
</defs>
</svg>
