<svg width="16" height="16" viewBox="0 0 16 16" fill="none" xmlns="http://www.w3.org/2000/svg">
<g clip-path="url(#clip0_1447_1764)">
<path d="M5.32846 3.30898V5.15711C6.7395 5.15711 8.09276 4.61379 9.09051 3.64664C10.0883 2.67949 10.6488 1.36775 10.6488 0H8.74002C8.73944 0.877062 8.3799 1.71807 7.74028 2.33844C7.1007 2.95882 6.2333 3.30787 5.32846 3.30898Z" fill="#FF00FF"/>
<path d="M5.32793 13.6201C4.42313 13.6201 3.5554 13.2717 2.91562 12.6515C2.27583 12.0314 1.91641 11.1903 1.91641 10.3132C1.91641 9.43617 2.27583 8.59509 2.91562 7.9749C3.5554 7.35475 4.42313 7.00633 5.32793 7.00633V5.15821C4.62924 5.15725 3.93722 5.28968 3.29135 5.54797C2.64548 5.80621 2.05841 6.1853 1.56367 6.66348C1.06892 7.14166 0.676193 7.70967 0.4079 8.33497C0.139606 8.96031 0.00100354 9.63074 5.42939e-06 10.308C-0.000992678 10.9852 0.135633 11.656 0.402083 12.2821C0.668534 12.9081 1.05959 13.4772 1.55292 13.9568C2.04625 14.4363 2.6322 14.817 3.27731 15.0771C3.92242 15.3371 4.61404 15.4715 5.31274 15.4725H5.32793V13.6201Z" fill="#FF00FF"/>
<path d="M5.32846 8.49157V10.3534C6.74905 10.3517 8.11098 9.80398 9.1155 8.83027C10.12 7.85656 10.6851 6.53643 10.6868 5.15942H8.76605C8.76493 6.0428 8.40236 6.88974 7.75796 7.51437C7.11353 8.13905 6.23982 8.49045 5.32846 8.49157Z" fill="#FF00FF"/>
<path d="M5.32846 15.4683L5.32793 13.6201C6.23277 13.619 7.1007 13.2699 7.74028 12.6496C8.3799 12.0292 8.73944 11.1882 8.74002 10.3112H10.6488C10.6488 11.6789 10.0883 12.9906 9.09051 13.9578C8.09276 14.925 6.7395 15.4683 5.32846 15.4683Z" fill="#FF00FF"/>
<path d="M10.6797 5.15711V3.30898C11.5847 3.30814 12.4523 2.95922 13.0922 2.33882C13.732 1.71841 14.0917 0.877241 14.0923 0H16C16 1.36775 15.4395 2.67949 14.4417 3.64664C13.4439 4.61379 12.0907 5.15711 10.6797 5.15711Z" fill="#FF00FF"/>
</g>
<defs>
<clipPath id="clip0_1447_1764">
<rect width="16" height="16" fill="white"/>
</clipPath>
</defs>
</svg>
