<svg width="16" height="16" viewBox="0 0 16 16" fill="none" xmlns="http://www.w3.org/2000/svg">
<g clip-path="url(#clip0_1447_1764)">
<path d="M5.91372 1.7252C5.17828 2.4579 4.64986 3.37218 4.38211 4.37518C4.86375 4.24699 5.35958 4.17978 5.85797 4.17512L4.18205 5.84612C4.17738 6.21553 4.20813 6.58454 4.27388 6.94809L6.95502 4.26695C7.29918 4.32815 7.63722 4.4198 7.96516 4.54081C8.0637 4.38821 8.17803 4.2464 8.30625 4.11773C8.55746 3.86751 8.85848 3.67292 9.18977 3.5466C9.52107 3.42027 9.87522 3.36502 10.2293 3.38445C10.5833 3.40388 10.9293 3.49754 11.2448 3.65936C11.5602 3.82118 11.8382 4.04753 12.0605 4.32373C12.2828 4.59993 12.4446 4.9198 12.5352 5.26257C12.6259 5.60534 12.6435 5.96335 12.5868 6.31336C12.5302 6.66336 12.4006 6.99754 12.2064 7.2942C12.0122 7.59085 11.7578 7.84335 11.4597 8.0353C11.5807 8.36325 11.6723 8.70129 11.7335 9.04544L9.05237 11.7266C9.41592 11.7923 9.78493 11.8231 10.1543 11.8184L11.8253 10.1474C11.8207 10.6458 11.7535 11.1416 11.6253 11.6233C12.5005 11.3877 13.3098 10.9541 13.9907 10.356C14.6716 9.75783 15.206 9.01117 15.5524 8.17367C15.8989 7.33617 16.0482 6.43024 15.9888 5.52586C15.9294 4.62148 15.663 3.74284 15.21 2.95783C14.757 2.17282 14.1296 1.50244 13.3763 0.99847C12.6231 0.494503 11.764 0.170438 10.8655 0.0513062C9.96706 -0.0678251 9.05323 0.0211662 8.19463 0.311406C7.33602 0.601646 6.55563 1.08537 5.91372 1.7252Z" fill="#FF00FF"/>
<path d="M7.81076 6.99564C7.66842 6.69696 7.58597 6.37328 7.56806 6.0429L4.89184 8.71911C5.02843 8.97325 5.18411 9.21665 5.35756 9.4472L6.9974 7.80736L7.81076 6.99564ZM9.95731 8.4387C9.62692 8.42079 9.30325 8.33834 9.00456 8.19601L8.1994 8.99953L6.55956 10.6394C6.79012 10.8128 7.03351 10.9685 7.28765 11.1051L8.44538 9.94735L9.95731 8.4387Z" fill="#FF00FF"/>
<path d="M7.56806 6.0429C7.53932 5.51295 7.67842 4.98741 7.96516 4.54081C7.63722 4.4198 7.29918 4.32815 6.95502 4.26695L4.27388 6.94809C4.33508 7.29225 4.42626 7.6303 4.54727 7.95824C4.6428 8.22015 4.75812 8.47449 4.89184 8.71911L7.56806 6.0429ZM9.95731 8.4387L7.28089 11.1084C7.52339 11.2418 7.77554 11.3569 8.03521 11.4527C8.36291 11.5745 8.70102 11.6662 9.04535 11.7266L11.7335 9.04544C11.6723 8.70129 11.5807 8.36325 11.4597 8.0353C11.0138 8.32434 10.488 8.4655 9.95731 8.4387ZM11.6248 11.6184C11.753 11.1367 11.8202 10.6409 11.8249 10.1425L10.1543 11.8184C10.6511 11.8141 11.1449 11.7468 11.6248 11.6184ZM4.38211 4.37518C4.25321 4.85668 4.18553 5.35261 4.18159 5.85105L5.85259 4.17513C5.35585 4.1802 4.86216 4.2474 4.38211 4.37518ZM9.00436 8.18946C8.48241 7.93862 8.06159 7.51759 7.81076 6.99564L5.3508 9.44722C5.69442 9.90143 6.10142 10.304 6.55936 10.6427L9.00436 8.18946Z" fill="#FF00FF"/>
<path d="M4.38211 4.37518C3.13498 4.71011 2.03121 5.44386 1.24008 6.46445C0.448942 7.48505 0.0134314 8.73645 0 10.0277L4.18205 5.84612C4.18641 5.34933 4.25363 4.85509 4.38211 4.37518ZM5.97229 16C7.26355 15.9866 8.51495 15.5511 9.53555 14.7599C10.5561 13.9688 11.2899 12.8655 11.6248 11.6184C11.1433 11.7473 10.6474 11.8145 10.149 11.8184L5.97229 16ZM4.1242 8.29932C4.25252 8.1707 4.39437 8.05636 4.54727 7.95824C4.42626 7.6303 4.33508 7.29225 4.27388 6.94809L0.091831 11.1297C0.201175 11.7495 0.409938 12.3475 0.71005 12.9007L3.38791 10.2228C3.36828 9.86846 3.42372 9.51392 3.5506 9.18244C3.67749 8.85096 3.87295 8.55002 4.1242 8.29932ZM8.03521 11.4527C7.79374 11.8287 7.45699 12.1341 7.05921 12.3377C6.66144 12.5414 6.21682 12.636 5.77059 12.6121L3.0993 15.2899C3.65249 15.5901 4.25054 15.7988 4.87032 15.9082L9.05237 11.7266C8.70582 11.6666 8.36503 11.5749 8.03521 11.4527ZM4.1242 11.8824C3.92155 11.6787 3.75517 11.4419 3.63224 11.1822L1.17248 13.6419C1.34199 13.8683 1.52778 14.0821 1.72839 14.2814C1.92813 14.4817 2.14185 14.6674 2.36793 14.8374L4.82769 12.3776C4.56657 12.254 4.32862 12.0865 4.1242 11.8824Z" fill="#FF00FF"/>
</g>
<defs>
<clipPath id="clip0_1447_1764">
<rect width="16" height="16" fill="white"/>
</clipPath>
</defs>
</svg>
