<svg width="16" height="16" viewBox="0 0 16 16" fill="none" xmlns="http://www.w3.org/2000/svg">
<path d="M8.99951 13.9989V2.49895C8.99951 2.36634 8.94683 2.23916 8.85307 2.14539C8.7593 2.05163 8.63212 1.99895 8.49951 1.99895H2.49951C2.3669 1.99895 2.23973 2.05163 2.14596 2.14539C2.05219 2.23916 1.99951 2.36634 1.99951 2.49895V13.9989" stroke="#FF00FF" stroke-linecap="round" stroke-linejoin="round"/>
<path d="M13.9995 13.9989V6.49895C13.9995 6.36634 13.9468 6.23916 13.8531 6.14539C13.7593 6.05163 13.6321 5.99895 13.4995 5.99895H8.99951" stroke="#FF00FF" stroke-linecap="round" stroke-linejoin="round"/>
<path d="M3.99951 4.49895H5.99951" stroke="#FF00FF" stroke-linecap="round" stroke-linejoin="round"/>
<path d="M4.99951 9.49895H6.99951" stroke="#FF00FF" stroke-linecap="round" stroke-linejoin="round"/>
<path d="M3.99951 11.9989H5.99951" stroke="#FF00FF" stroke-linecap="round" stroke-linejoin="round"/>
<path d="M10.9995 10.9989H11.9995" stroke="#FF00FF" stroke-linecap="round" stroke-linejoin="round"/>
<path d="M10.9995 8.49895H11.9995" stroke="#FF00FF" stroke-linecap="round" stroke-linejoin="round"/>
</svg>
