<svg width="16" height="16" viewBox="0 0 16 16" fill="none" xmlns="http://www.w3.org/2000/svg">
<path fill-rule="evenodd" clip-rule="evenodd" d="M1.7924 1.79186C1.97994 1.60432 2.2343 1.49896 2.49951 1.49896H8.49951C8.76473 1.49896 9.01908 1.60432 9.20662 1.79186C9.39416 1.97939 9.49951 2.23375 9.49951 2.49896V5.49896H13.4995C13.7647 5.49896 14.0191 5.60432 14.2066 5.79186C14.3942 5.97939 14.4995 6.23375 14.4995 6.49896V13.999V14.499H13.4995V13.999V6.49896H9.49951V13.999V14.499H8.49951V13.999V6.49896V5.49896V2.49896H2.49951L2.49951 13.999V14.499H1.49951V13.999V2.49896C1.49951 2.23375 1.60487 1.97939 1.7924 1.79186ZM3.99951 4.99896H5.99951V3.99896H3.99951V4.99896ZM4.99951 9.99896V8.99896H6.99951V9.99896H4.99951ZM3.99951 11.499V12.499H5.99951V11.499H3.99951ZM11.9995 11.499H10.9995V10.499H11.9995V11.499ZM10.9995 8.99896H11.9995V7.99896H10.9995V8.99896Z" fill="#FF00FF"/>
</svg>
