<svg width="16" height="16" viewBox="0 0 16 16" fill="none" xmlns="http://www.w3.org/2000/svg">
<path fill-rule="evenodd" clip-rule="evenodd" d="M1.7924 1.79184C1.97994 1.6043 2.2343 1.49895 2.49951 1.49895H8.49951C8.76473 1.49895 9.01908 1.6043 9.20662 1.79184C9.39416 1.97938 9.49951 2.23373 9.49951 2.49895V5.49895H13.4995C13.7647 5.49895 14.0191 5.6043 14.2066 5.79184C14.3942 5.97938 14.4995 6.23373 14.4995 6.49895V13.9989V14.4989H13.4995V13.9989V6.49895H9.49951V13.9989V14.4989H8.49951V13.9989V6.49895V5.49895V2.49895H2.49951L2.49951 13.9989V14.4989H1.49951V13.9989V2.49895C1.49951 2.23373 1.60487 1.97938 1.7924 1.79184ZM3.99951 4.99895H5.99951V3.99895H3.99951V4.99895ZM4.99951 9.99895V8.99895H6.99951V9.99895H4.99951ZM3.99951 11.4989V12.4989H5.99951V11.4989H3.99951ZM11.9995 11.4989H10.9995V10.4989H11.9995V11.4989ZM10.9995 8.99895H11.9995V7.99895H10.9995V8.99895Z" fill="#FF00FF"/>
</svg>
