<svg width="20" height="20" viewBox="0 0 20 20" fill="none" xmlns="http://www.w3.org/2000/svg">
<path d="M16.6196 5.41644C16.6016 5.53193 16.5809 5.64999 16.5577 5.77128C15.7596 9.8687 13.0293 11.2842 9.5422 11.2842H7.76672C7.34027 11.2842 6.98091 11.5939 6.91446 12.0145L6.00543 17.7797L5.74801 19.4139C5.73776 19.4787 5.74167 19.545 5.75949 19.6081C5.7773 19.6713 5.80859 19.7298 5.85121 19.7798C5.89382 19.8297 5.94675 19.8697 6.00634 19.8972C6.06593 19.9247 6.13077 19.939 6.1964 19.939H9.34543C9.71833 19.939 10.0351 19.6681 10.0938 19.3003L10.1248 19.1403L10.7177 15.3777L10.7558 15.1713C10.8138 14.8023 11.1312 14.5313 11.5041 14.5313H11.9751C15.0261 14.5313 17.4145 13.2926 18.1125 9.70806C18.4041 8.21064 18.2532 6.96031 17.4816 6.08096C17.237 5.80894 16.9449 5.58375 16.6196 5.41644Z" fill="#179BD7"/>
<path d="M15.7849 5.0835C15.5301 5.00978 15.2708 4.95225 15.0087 4.91124C14.4909 4.83165 13.9675 4.79347 13.4436 4.79704H8.70036C8.51984 4.7969 8.34524 4.86135 8.2081 4.97873C8.07096 5.09611 7.98034 5.25867 7.95262 5.43704L6.94358 11.828L6.91455 12.0145C6.94599 11.811 7.0492 11.6255 7.20552 11.4916C7.36184 11.3576 7.56094 11.284 7.76681 11.2841H9.54229C13.0294 11.2841 15.7597 9.86801 16.5578 5.77124C16.5816 5.64995 16.6016 5.53188 16.6197 5.4164C16.4091 5.30597 16.1896 5.21338 15.9636 5.13962C15.9043 5.11996 15.8447 5.10125 15.7849 5.0835Z" fill="#222D65"/>
<path d="M7.95252 5.43707C7.98001 5.25865 8.07058 5.096 8.20779 4.97868C8.345 4.86136 8.51974 4.79715 8.70026 4.79771H13.4435C14.0054 4.79771 14.5299 4.83449 15.0087 4.91191C15.3326 4.96282 15.6521 5.03896 15.9641 5.13965C16.1996 5.21771 16.4183 5.30997 16.6203 5.41642C16.8577 3.90223 16.6183 2.87126 15.7996 1.93771C14.897 0.909971 13.268 0.469971 11.1835 0.469971H5.13188C4.70607 0.469971 4.34284 0.779648 4.27704 1.20094L1.75639 17.1784C1.74465 17.2525 1.74912 17.3284 1.76949 17.4007C1.78985 17.473 1.82564 17.54 1.87438 17.5971C1.92312 17.6543 1.98366 17.7002 2.05183 17.7317C2.12 17.7632 2.19419 17.7795 2.2693 17.7796H6.00543L6.94349 11.828L7.95252 5.43707Z" fill="#253B80"/>
</svg>
