<svg width="16" height="16" viewBox="0 0 16 16" fill="none" xmlns="http://www.w3.org/2000/svg">
<path opacity="0.5" d="M13.2957 4.33313C13.2813 4.42552 13.2648 4.51997 13.2462 4.617C12.6077 7.89494 10.4235 9.02732 7.63381 9.02732H6.21342C5.87226 9.02732 5.58478 9.27506 5.53162 9.61158L4.80439 14.2237L4.59846 15.5311C4.59025 15.5829 4.59339 15.6359 4.60764 15.6865C4.62189 15.737 4.64692 15.7838 4.68101 15.8238C4.71511 15.8637 4.75745 15.8958 4.80512 15.9178C4.85279 15.9398 4.90466 15.9512 4.95717 15.9512H7.47639C7.77471 15.9512 8.02813 15.7344 8.0751 15.4402L8.09988 15.3122L8.5742 12.3022L8.60465 12.137C8.6511 11.8418 8.90504 11.625 9.20336 11.625H9.58013C12.0209 11.625 13.9316 10.634 14.4901 7.76642C14.7234 6.56848 14.6026 5.56823 13.9853 4.86474C13.7896 4.64712 13.556 4.46698 13.2957 4.33313Z" fill="#FF00FF"/>
<path opacity="0.75" d="M12.6278 4.06675C12.4239 4.00778 12.2165 3.96175 12.0068 3.92894C11.5926 3.86527 11.1739 3.83472 10.7547 3.83759H6.96014C6.81573 3.83747 6.67604 3.88903 6.56633 3.98293C6.45662 4.07684 6.38412 4.20689 6.36195 4.34959L5.55472 9.46236L5.53149 9.61152C5.55664 9.44876 5.63921 9.30038 5.76427 9.19321C5.88933 9.08605 6.04861 9.02718 6.2133 9.02726H7.63369C10.4234 9.02726 12.6076 7.89436 13.2461 4.61694C13.2652 4.51991 13.2812 4.42546 13.2956 4.33307C13.1272 4.24472 12.9516 4.17066 12.7707 4.11165C12.7233 4.09592 12.6756 4.08095 12.6278 4.06675Z" fill="#FF00FF"/>
<path d="M6.36192 4.34965C6.38391 4.20692 6.45637 4.0768 6.56614 3.98295C6.6759 3.88909 6.81569 3.83772 6.96011 3.83817H10.7547C11.2042 3.83817 11.6239 3.86759 12.0068 3.92952C12.266 3.97025 12.5215 4.03117 12.7712 4.11172C12.9596 4.17417 13.1346 4.24798 13.2961 4.33314C13.486 3.12178 13.2946 2.29701 12.6396 1.55017C11.9175 0.727977 10.6143 0.375977 8.94669 0.375977H4.1054C3.76476 0.375977 3.47418 0.623719 3.42153 0.960751L1.40502 13.7427C1.39562 13.802 1.3992 13.8627 1.41549 13.9205C1.43179 13.9784 1.46041 14.032 1.49941 14.0777C1.5384 14.1234 1.58683 14.1601 1.64137 14.1853C1.69591 14.2105 1.75526 14.2236 1.81534 14.2237H4.80424L5.55469 9.46243L6.36192 4.34965Z" fill="#FF00FF"/>
</svg>
