<svg width="16" height="16" viewBox="0 0 16 16" fill="none" xmlns="http://www.w3.org/2000/svg">
<path d="M13.2955 4.33313C13.2811 4.42552 13.2645 4.51997 13.246 4.617C12.6075 7.89494 10.4232 9.02732 7.63357 9.02732H6.21318C5.87202 9.02732 5.58454 9.27506 5.53137 9.61158L4.80415 14.2237L4.59821 15.5311C4.59001 15.5829 4.59314 15.6359 4.60739 15.6865C4.62165 15.737 4.64668 15.7838 4.68077 15.8238C4.71486 15.8637 4.7572 15.8958 4.80487 15.9178C4.85255 15.9398 4.90442 15.9512 4.95692 15.9512H7.47615C7.77447 15.9512 8.02789 15.7344 8.07486 15.4402L8.09963 15.3122L8.57395 12.3022L8.60441 12.137C8.65086 11.8418 8.90479 11.625 9.20312 11.625H9.57989C12.0207 11.625 13.9314 10.634 14.4898 7.76642C14.7231 6.56848 14.6023 5.56823 13.9851 4.86474C13.7894 4.64712 13.5557 4.46698 13.2955 4.33313Z" fill="#179BD7"/>
<path d="M12.628 4.06675C12.4241 4.00778 12.2168 3.96175 12.0071 3.92894C11.5928 3.86527 11.1741 3.83472 10.755 3.83759H6.96038C6.81597 3.83747 6.67629 3.88903 6.56658 3.98293C6.45687 4.07684 6.38437 4.20689 6.36219 4.34959L5.55496 9.46236L5.53174 9.61152C5.55689 9.44876 5.63946 9.30038 5.76451 9.19321C5.88957 9.08605 6.04885 9.02718 6.21354 9.02726H7.63393C10.4236 9.02726 12.6079 7.89436 13.2463 4.61694C13.2654 4.51991 13.2814 4.42546 13.2959 4.33307C13.1274 4.24472 12.9518 4.17066 12.771 4.11165C12.7236 4.09592 12.6759 4.08095 12.628 4.06675Z" fill="#222D65"/>
<path d="M6.36192 4.34965C6.38391 4.20692 6.45637 4.0768 6.56614 3.98295C6.6759 3.88909 6.81569 3.83772 6.96011 3.83817H10.7547C11.2042 3.83817 11.6239 3.86759 12.0068 3.92952C12.266 3.97025 12.5215 4.03117 12.7712 4.11172C12.9596 4.17417 13.1346 4.24798 13.2961 4.33314C13.486 3.12178 13.2946 2.29701 12.6396 1.55017C11.9175 0.727977 10.6143 0.375977 8.94669 0.375977H4.1054C3.76476 0.375977 3.47418 0.623719 3.42153 0.960751L1.40502 13.7427C1.39562 13.802 1.3992 13.8627 1.41549 13.9205C1.43179 13.9784 1.46041 14.032 1.49941 14.0777C1.5384 14.1234 1.58683 14.1601 1.64137 14.1853C1.69591 14.2105 1.75526 14.2236 1.81534 14.2237H4.80424L5.55469 9.46243L6.36192 4.34965Z" fill="#253B80"/>
</svg>
