<svg width="16" height="16" viewBox="0 0 16 16" fill="none" xmlns="http://www.w3.org/2000/svg">
<path d="M1.93083 7.7413V5.10946H3.43123C3.6526 5.10946 3.86577 5.12586 4.07074 5.15866C4.27571 5.19145 4.45609 5.25704 4.61186 5.35543C4.76764 5.44562 4.89063 5.5768 4.98081 5.74898C5.0792 5.92115 5.12839 6.14662 5.12839 6.42538C5.12839 6.70414 5.0792 6.92961 4.98081 7.10179C4.89063 7.27397 4.76764 7.40925 4.61186 7.50763C4.45609 7.59782 4.27571 7.65931 4.07074 7.69211C3.86577 7.7249 3.6526 7.7413 3.43123 7.7413H1.93083ZM0 3.60907V12.3901H1.93083V9.24169H3.96006C4.50938 9.24169 4.97671 9.16381 5.36206 9.00803C5.74741 8.84405 6.05897 8.63088 6.29673 8.36851C6.5427 8.10615 6.71897 7.80689 6.82556 7.47074C6.94034 7.12639 6.99774 6.77793 6.99774 6.42538C6.99774 6.06463 6.94034 5.71618 6.82556 5.38003C6.71897 5.04387 6.5427 4.74461 6.29673 4.48225C6.05897 4.21989 5.74741 4.01082 5.36206 3.85504C4.97671 3.69106 4.50938 3.60907 3.96006 3.60907H0Z" fill="#FF00FF"/>
<path d="M14.0569 6.56066H15.9262C15.8688 6.05233 15.7294 5.6014 15.5081 5.20785C15.2867 4.8143 15.0038 4.48635 14.6595 4.22399C14.3233 3.95342 13.938 3.74845 13.5034 3.60907C13.0771 3.46969 12.6221 3.4 12.1383 3.4C11.466 3.4 10.8593 3.51888 10.3182 3.75665C9.78526 3.99442 9.33432 4.32237 8.96537 4.74051C8.59642 5.15866 8.31356 5.65059 8.11679 6.21631C7.92001 6.77383 7.82163 7.38055 7.82163 8.03646C7.82163 8.67597 7.92001 9.27449 8.11679 9.83201C8.31356 10.3813 8.59642 10.861 8.96537 11.2709C9.33432 11.6809 9.78526 12.0047 10.3182 12.2425C10.8593 12.472 11.466 12.5868 12.1383 12.5868C12.6795 12.5868 13.1755 12.5048 13.6264 12.3409C14.0774 12.1769 14.4709 11.9391 14.8071 11.6276C15.1432 11.316 15.4138 10.9389 15.6188 10.4961C15.8237 10.0534 15.9508 9.55735 16 9.00803H14.1307C14.0569 9.59835 13.8519 10.0739 13.5157 10.4346C13.1878 10.7954 12.7287 10.9758 12.1383 10.9758C11.7038 10.9758 11.3348 10.8938 11.0315 10.7298C10.7281 10.5576 10.4822 10.3321 10.2936 10.0534C10.105 9.77462 9.96563 9.46306 9.87544 9.11871C9.79345 8.76616 9.75246 8.40541 9.75246 8.03646C9.75246 7.65111 9.79345 7.27807 9.87544 6.91731C9.96563 6.55656 10.105 6.23681 10.2936 5.95805C10.4822 5.67109 10.7281 5.44562 11.0315 5.28164C11.3348 5.10946 11.7038 5.02338 12.1383 5.02338C12.3761 5.02338 12.6016 5.06437 12.8147 5.14636C13.0361 5.22015 13.2329 5.32673 13.4051 5.46611C13.5772 5.6055 13.7207 5.76947 13.8355 5.95805C13.9503 6.13842 14.0241 6.33929 14.0569 6.56066Z" fill="#FF00FF"/>
</svg>
