<svg width="21" height="20" viewBox="0 0 21 20" fill="none" xmlns="http://www.w3.org/2000/svg">
<path d="M2.84499 9.695V6.485H4.67499C4.94499 6.485 5.20499 6.505 5.45499 6.545C5.70499 6.585 5.92499 6.665 6.11499 6.785C6.30499 6.895 6.45499 7.055 6.56499 7.265C6.68499 7.475 6.74499 7.75 6.74499 8.09C6.74499 8.43 6.68499 8.705 6.56499 8.915C6.45499 9.125 6.30499 9.29 6.11499 9.41C5.92499 9.52 5.70499 9.595 5.45499 9.635C5.20499 9.675 4.94499 9.695 4.67499 9.695H2.84499ZM0.48999 4.655V15.365H2.84499V11.525H5.31999C5.98999 11.525 6.55999 11.43 7.02999 11.24C7.49999 11.04 7.87999 10.78 8.16999 10.46C8.46999 10.14 8.68499 9.775 8.81499 9.365C8.95499 8.945 9.02499 8.52 9.02499 8.09C9.02499 7.65 8.95499 7.225 8.81499 6.815C8.68499 6.405 8.46999 6.04 8.16999 5.72C7.87999 5.4 7.49999 5.145 7.02999 4.955C6.55999 4.755 5.98999 4.655 5.31999 4.655H0.48999Z" fill="black"/>
<path d="M17.6349 8.255H19.9149C19.8449 7.635 19.6749 7.085 19.4049 6.605C19.1349 6.125 18.7899 5.725 18.3699 5.405C17.9599 5.075 17.4899 4.825 16.9599 4.655C16.4399 4.485 15.8849 4.4 15.2949 4.4C14.4749 4.4 13.7349 4.545 13.0749 4.835C12.4249 5.125 11.8749 5.525 11.4249 6.035C10.9749 6.545 10.6299 7.145 10.3899 7.835C10.1499 8.515 10.0299 9.255 10.0299 10.055C10.0299 10.835 10.1499 11.565 10.3899 12.245C10.6299 12.915 10.9749 13.5 11.4249 14C11.8749 14.5 12.4249 14.895 13.0749 15.185C13.7349 15.465 14.4749 15.605 15.2949 15.605C15.9549 15.605 16.5599 15.505 17.1099 15.305C17.6599 15.105 18.1399 14.815 18.5499 14.435C18.9599 14.055 19.2899 13.595 19.5399 13.055C19.7899 12.515 19.9449 11.91 20.0049 11.24H17.7249C17.6349 11.96 17.3849 12.54 16.9749 12.98C16.5749 13.42 16.0149 13.64 15.2949 13.64C14.7649 13.64 14.3149 13.54 13.9449 13.34C13.5749 13.13 13.2749 12.855 13.0449 12.515C12.8149 12.175 12.6449 11.795 12.5349 11.375C12.4349 10.945 12.3849 10.505 12.3849 10.055C12.3849 9.585 12.4349 9.13 12.5349 8.69C12.6449 8.25 12.8149 7.86 13.0449 7.52C13.2749 7.17 13.5749 6.895 13.9449 6.695C14.3149 6.485 14.7649 6.38 15.2949 6.38C15.5849 6.38 15.8599 6.43 16.1199 6.53C16.3899 6.62 16.6299 6.75 16.8399 6.92C17.0499 7.09 17.2249 7.29 17.3649 7.52C17.5049 7.74 17.5949 7.985 17.6349 8.255Z" fill="black"/>
</svg>
