<svg width="16" height="16" viewBox="0 0 16 16" fill="none" xmlns="http://www.w3.org/2000/svg">
<path d="M1.93083 7.74133V5.10949H3.43123C3.6526 5.10949 3.86577 5.12589 4.07074 5.15868C4.27571 5.19148 4.45609 5.25707 4.61186 5.35546C4.76764 5.44564 4.89063 5.57682 4.98081 5.749C5.0792 5.92118 5.12839 6.14665 5.12839 6.42541C5.12839 6.70417 5.0792 6.92964 4.98081 7.10181C4.89063 7.27399 4.76764 7.40927 4.61186 7.50766C4.45609 7.59785 4.27571 7.65934 4.07074 7.69213C3.86577 7.72493 3.6526 7.74133 3.43123 7.74133H1.93083ZM0 3.6091V12.3901H1.93083V9.24172H3.96006C4.50938 9.24172 4.97671 9.16383 5.36206 9.00805C5.74741 8.84407 6.05897 8.6309 6.29673 8.36854C6.5427 8.10618 6.71898 7.80692 6.82556 7.47076C6.94034 7.12641 6.99774 6.77796 6.99774 6.42541C6.99774 6.06466 6.94034 5.7162 6.82556 5.38005C6.71898 5.0439 6.5427 4.74464 6.29673 4.48228C6.05897 4.21991 5.74741 4.01084 5.36206 3.85506C4.97671 3.69108 4.50938 3.6091 3.96006 3.6091H0Z" fill="black"/>
<path d="M14.0569 6.56069H15.9262C15.8688 6.05236 15.7294 5.60142 15.5081 5.20787C15.2867 4.81433 15.0038 4.48637 14.6595 4.22401C14.3233 3.95345 13.938 3.74848 13.5034 3.6091C13.0771 3.46971 12.6221 3.40002 12.1383 3.40002C11.466 3.40002 10.8593 3.51891 10.3182 3.75668C9.78526 3.99444 9.33432 4.3224 8.96537 4.74054C8.59642 5.15868 8.31356 5.65061 8.11679 6.21634C7.92001 6.77386 7.82163 7.38058 7.82163 8.03649C7.82163 8.676 7.92001 9.27452 8.11679 9.83204C8.31356 10.3814 8.59642 10.861 8.96537 11.2709C9.33432 11.6809 9.78526 12.0047 10.3182 12.2425C10.8593 12.4721 11.466 12.5869 12.1383 12.5869C12.6795 12.5869 13.1755 12.5049 13.6264 12.3409C14.0774 12.1769 14.4709 11.9391 14.8071 11.6276C15.1432 11.316 15.4138 10.9389 15.6188 10.4961C15.8237 10.0534 15.9508 9.55738 16 9.00805H14.1307C14.0569 9.59837 13.8519 10.0739 13.5157 10.4347C13.1878 10.7954 12.7287 10.9758 12.1383 10.9758C11.7038 10.9758 11.3348 10.8938 11.0315 10.7298C10.7281 10.5576 10.4822 10.3322 10.2936 10.0534C10.105 9.77465 9.96563 9.46309 9.87544 9.11874C9.79345 8.76619 9.75246 8.40543 9.75246 8.03649C9.75246 7.65114 9.79345 7.27809 9.87544 6.91734C9.96563 6.55659 10.105 6.23683 10.2936 5.95807C10.4822 5.67111 10.7281 5.44564 11.0315 5.28167C11.3348 5.10949 11.7038 5.0234 12.1383 5.0234C12.3761 5.0234 12.6016 5.06439 12.8147 5.14638C13.0361 5.22017 13.2329 5.32676 13.4051 5.46614C13.5772 5.60552 13.7207 5.7695 13.8355 5.95807C13.9503 6.13845 14.0241 6.33932 14.0569 6.56069Z" fill="black"/>
</svg>
