<svg width="16" height="16" viewBox="0 0 16 16" fill="none" xmlns="http://www.w3.org/2000/svg">
<path d="M3.2001 0H9.6001L14.4001 4.8V14.4C14.4001 15.2837 13.6838 16 12.8001 16H3.2001C2.31644 16 1.6001 15.2837 1.6001 14.4V1.6C1.6001 0.716344 2.31644 0 3.2001 0Z" fill="#D00303"/>
<path opacity="0.5" fill-rule="evenodd" clip-rule="evenodd" d="M9.6001 0L14.4001 4.8H11.2001C10.3164 4.8 9.6001 4.08366 9.6001 3.2V0Z" fill="white"/>
<path d="M4.73223 7.46759H3.23926V11.2H3.97754V9.94767H4.72676C5.5334 9.94767 5.99277 9.41447 5.99277 8.71173C5.99277 8.01447 5.53887 7.46759 4.73223 7.46759ZM5.24082 8.71173C5.24082 9.12736 4.99746 9.36798 4.59004 9.36798H3.9748V8.05548H4.59004C4.99746 8.05548 5.24082 8.29337 5.24082 8.71173Z" fill="white"/>
<path d="M6.65723 7.46759V11.2H8.01895C9.14551 11.2 9.68965 10.5109 9.68965 9.32423C9.68965 8.14572 9.15371 7.46759 8.01895 7.46759H6.65723ZM7.39551 8.06915H7.92051C8.6123 8.06915 8.92949 8.49572 8.92949 9.3379C8.92949 10.1801 8.61504 10.5957 7.92051 10.5957H7.39551V8.06915Z" fill="white"/>
<path d="M11.1689 11.2V9.71525H12.6674V9.11915H11.1689V8.07736H12.8096V7.46759H10.4307V11.2H11.1689Z" fill="white"/>
</svg>
