<svg width="16" height="16" viewBox="0 0 16 16" fill="none" xmlns="http://www.w3.org/2000/svg">
<path d="M3.2001 0H9.6001L14.4001 4.8V14.4C14.4001 15.2837 13.6838 16 12.8001 16H3.2001C2.31644 16 1.6001 15.2837 1.6001 14.4V1.6C1.6001 0.716344 2.31644 0 3.2001 0Z" fill="#D00303"/>
<path opacity="0.5" fill-rule="evenodd" clip-rule="evenodd" d="M9.6001 0L14.4001 4.8H11.2001C10.3164 4.8 9.6001 4.08366 9.6001 3.2V0Z" fill="white"/>
<path d="M4.73223 7.46753H3.23926V11.2H3.97754V9.94761H4.72676C5.5334 9.94761 5.99277 9.4144 5.99277 8.71167C5.99277 8.0144 5.53887 7.46753 4.73223 7.46753ZM5.24082 8.71167C5.24082 9.12729 4.99746 9.36792 4.59004 9.36792H3.9748V8.05542H4.59004C4.99746 8.05542 5.24082 8.29331 5.24082 8.71167Z" fill="white"/>
<path d="M6.65723 7.46753V11.2H8.01895C9.14551 11.2 9.68965 10.5109 9.68965 9.32417C9.68965 8.14565 9.15371 7.46753 8.01895 7.46753H6.65723ZM7.39551 8.06909H7.92051C8.6123 8.06909 8.92949 8.49565 8.92949 9.33784C8.92949 10.18 8.61504 10.5957 7.92051 10.5957H7.39551V8.06909Z" fill="white"/>
<path d="M11.1689 11.2V9.71519H12.6674V9.11909H11.1689V8.07729H12.8096V7.46753H10.4307V11.2H11.1689Z" fill="white"/>
</svg>
