<svg width="20" height="20" viewBox="0 0 20 20" fill="none" xmlns="http://www.w3.org/2000/svg">
<path fill-rule="evenodd" clip-rule="evenodd" d="M2 2C2 0.895431 2.89543 0 4 0H12L18 6V18C18 19.1046 17.1046 20 16 20H4C2.89543 20 2 19.1046 2 18V2ZM5.12939 15V13.5508H5.96338C7.04004 13.5508 7.60742 12.8433 7.60742 11.9512C7.60742 11.0728 7.05029 10.3345 5.97705 10.3345H4.0083V15H5.12939ZM5.71729 12.7065H5.12598V11.1958H5.71729C6.18213 11.1958 6.46924 11.4624 6.46924 11.9512C6.46924 12.4331 6.18213 12.7065 5.71729 12.7065ZM12.314 12.6484C12.314 14.1045 11.644 15 10.2051 15H8.37646V10.3345H10.2051C11.6611 10.3345 12.314 11.2095 12.314 12.6484ZM10.0273 14.1079H9.50098V11.2231H10.0273C10.8203 11.2231 11.1621 11.7153 11.1621 12.6758C11.1621 13.6328 10.8237 14.1079 10.0273 14.1079ZM14.293 13.2397V15H13.1685V10.3345H16.2754V11.2368H14.293V12.3647H16.0942V13.2397H14.293ZM16.5 6L12 1.5V4C12 5.10457 12.8954 6 14 6H16.5Z" fill="#FF00FF"/>
</svg>
