<svg width="16" height="16" viewBox="0 0 16 16" fill="none" xmlns="http://www.w3.org/2000/svg">
<path d="M13.6283 10.547L11.6488 10.321C11.1734 10.2665 10.7058 10.4301 10.3707 10.7653L8.93665 12.1993C6.73109 11.077 4.923 9.2767 3.80073 7.06335L5.24253 5.62155C5.57765 5.28643 5.74131 4.81882 5.68676 4.34341L5.46075 2.37945C5.36723 1.59231 4.70478 1 3.90984 1H2.56156C1.6809 1 0.948308 1.73259 1.00286 2.61326C1.41592 9.26891 6.73888 14.5841 13.3867 14.9971C14.2674 15.0517 15 14.3191 15 13.4384V12.0902C15.0078 11.303 14.4155 10.6406 13.6283 10.547V10.547Z" fill="#FF00FF"/>
</svg>
