<svg width="16" height="16" viewBox="0 0 16 16" fill="none" xmlns="http://www.w3.org/2000/svg">
<path fill-rule="evenodd" clip-rule="evenodd" d="M6 1.5H10C10.8284 1.5 11.5 2.17157 11.5 3V13C11.5 13.8284 10.8284 14.5 10 14.5H6C5.17157 14.5 4.5 13.8284 4.5 13V3C4.5 2.17157 5.17157 1.5 6 1.5ZM3 3C3 1.34315 4.34315 0 6 0H10C11.6569 0 13 1.34315 13 3V13C13 14.6569 11.6569 16 10 16H6C4.34315 16 3 14.6569 3 13V3ZM9.5 11.5C9.5 12.3284 8.82843 13 8 13C7.17157 13 6.5 12.3284 6.5 11.5C6.5 10.6716 7.17157 10 8 10C8.82843 10 9.5 10.6716 9.5 11.5Z" fill="#FF00FF"/>
</svg>
