<svg width="16" height="16" viewBox="0 0 16 16" fill="none" xmlns="http://www.w3.org/2000/svg">
<g clip-path="url(#clip0_1447_1791)">
<path fill-rule="evenodd" clip-rule="evenodd" d="M0 0H16V16H0V0ZM1.125 1.125H14.875V14.875H1.125V1.125ZM10.0809 7.46763C10.0809 7.2479 10.2606 6.98156 10.7867 6.98156C11.2195 6.98156 11.6523 7.09477 11.9452 7.28116C12.0118 7.30116 12.0451 7.26785 12.0451 7.21458V6.30237C12.0451 6.25576 12.0318 6.2025 11.9785 6.16921C11.7588 6.06935 11.3593 5.98277 10.7867 5.98277C9.62142 5.98277 8.94888 6.69523 8.94888 7.55421C8.94888 8.31995 9.34171 8.77939 10.2872 9.23217C10.9598 9.57842 11.1129 9.7915 11.1129 10.0312C11.1129 10.3309 10.8932 10.5506 10.3672 10.5506C9.9277 10.5506 9.44829 10.4307 9.0288 10.1577C8.98217 10.1244 8.94888 10.1444 8.94888 10.211V11.1898C8.94888 11.2431 8.95554 11.2764 9.00214 11.2964C9.28845 11.4628 9.78786 11.5827 10.3672 11.5827C11.4658 11.5827 12.2782 11.01 12.2782 9.94465C12.2782 9.23217 11.9519 8.7461 10.9065 8.24003C10.2007 7.87381 10.0809 7.70733 10.0809 7.46763ZM5.06024 7.77394C5.21339 7.78726 5.33326 7.78726 5.59959 7.78726C6.37868 7.78726 7.11111 7.51426 7.11111 6.45555C7.11111 5.60991 6.58507 5.18374 5.69948 5.18374C5.43315 5.18374 5.1801 5.19705 5.06024 5.20371V7.77394ZM4.0215 4.15829C3.96826 4.15829 3.87503 4.1916 3.87503 4.23821L3.875 11.3896C3.875 11.4495 3.90166 11.4695 3.95492 11.4695H4.97368C5.0336 11.4695 5.05358 11.4428 5.05358 11.3896V8.83265C5.13583 8.83265 5.19856 8.83544 5.26664 8.83846C5.3474 8.84205 5.43567 8.84597 5.57296 8.84597C7.07779 8.84597 8.30297 8.12017 8.30297 6.42889C8.30297 5.13711 7.58386 4.125 5.73943 4.125C5.08024 4.125 4.44767 4.13832 4.0215 4.15829Z" fill="#FF00FF"/>
</g>
<defs>
<clipPath id="clip0_1447_1791">
<rect width="16" height="16" fill="white"/>
</clipPath>
</defs>
</svg>
