<svg width="20" height="20" viewBox="0 0 20 20" fill="none" xmlns="http://www.w3.org/2000/svg">
<rect width="20" height="20" fill="#01CAFA"/>
<path fill-rule="evenodd" clip-rule="evenodd" d="M1.40625 1.40625H18.5938V18.5938H1.40625V1.40625Z" fill="#130F31"/>
<path fill-rule="evenodd" clip-rule="evenodd" d="M13.4833 8.72695C12.8258 8.72695 12.6011 9.05987 12.6011 9.33454C12.6011 9.63417 12.7509 9.84226 13.6331 10.3C14.9399 10.9326 15.3477 11.5402 15.3477 12.4308C15.3477 13.7625 14.3323 14.4783 12.959 14.4783C12.2348 14.4783 11.6106 14.3285 11.2527 14.1204C11.1944 14.0955 11.1861 14.0539 11.1861 13.9873V12.7637C11.1861 12.6805 11.2277 12.6555 11.286 12.6972C11.8104 13.0384 12.4096 13.1882 12.959 13.1882C13.6165 13.1882 13.8912 12.9136 13.8912 12.539C13.8912 12.2394 13.6997 11.973 12.8591 11.5402C11.6771 10.9742 11.1861 10.3999 11.1861 9.44276C11.1861 8.36904 12.0268 7.47846 13.4833 7.47846C14.1991 7.47846 14.6985 7.58669 14.9732 7.71152C15.0398 7.75313 15.0564 7.81971 15.0564 7.87796V9.01823C15.0564 9.08481 15.0148 9.12645 14.9315 9.10145C14.5653 8.86846 14.0243 8.72695 13.4833 8.72695ZM6.32529 9.71742C6.51674 9.73407 6.66657 9.73407 6.99949 9.73407C7.97335 9.73407 8.88888 9.39283 8.88888 8.06944C8.88888 7.01239 8.23133 6.47967 7.12435 6.47967C6.79143 6.47967 6.47513 6.49632 6.32529 6.50464V9.71742ZM4.84378 5.29776C4.84378 5.23951 4.96033 5.19786 5.02687 5.19786C5.55959 5.17289 6.35029 5.15625 7.17429 5.15625C9.47982 5.15625 10.3787 6.42138 10.3787 8.03612C10.3787 10.1502 8.84724 11.0575 6.9662 11.0575C6.64992 11.0575 6.54174 11.0408 6.31697 11.0408V14.237C6.31697 14.3035 6.29201 14.3368 6.21711 14.3368H4.94365C4.87707 14.3368 4.84375 14.3119 4.84375 14.237V5.29776H4.84378Z" fill="#31C5F0"/>
</svg>
