<svg width="20" height="20" viewBox="0 0 20 20" fill="none" xmlns="http://www.w3.org/2000/svg">
<path fill-rule="evenodd" clip-rule="evenodd" d="M0 0H20V20H0V0ZM1.40625 1.40625H18.5938V18.5938H1.40625V1.40625ZM12.6011 9.33454C12.6011 9.05987 12.8258 8.72695 13.4833 8.72695C14.0243 8.72695 14.5653 8.86846 14.9315 9.10145C15.0148 9.12645 15.0564 9.08481 15.0564 9.01823V7.87796C15.0564 7.81971 15.0398 7.75313 14.9732 7.71152C14.6985 7.58669 14.1991 7.47846 13.4833 7.47846C12.0268 7.47846 11.1861 8.36903 11.1861 9.44276C11.1861 10.3999 11.6771 10.9742 12.8591 11.5402C13.6997 11.973 13.8912 12.2394 13.8912 12.539C13.8912 12.9136 13.6165 13.1882 12.959 13.1882C12.4096 13.1882 11.8104 13.0384 11.286 12.6972C11.2277 12.6555 11.1861 12.6805 11.1861 12.7637V13.9873C11.1861 14.0539 11.1944 14.0955 11.2527 14.1204C11.6106 14.3285 12.2348 14.4783 12.959 14.4783C14.3323 14.4783 15.3477 13.7625 15.3477 12.4308C15.3477 11.5402 14.9399 10.9326 13.6331 10.3C12.7509 9.84226 12.6011 9.63417 12.6011 9.33454ZM6.32529 9.71742C6.51674 9.73407 6.66657 9.73407 6.99949 9.73407C7.97335 9.73407 8.88888 9.39283 8.88888 8.06944C8.88888 7.01239 8.23133 6.47967 7.12435 6.47967C6.79143 6.47967 6.47513 6.49632 6.32529 6.50464V9.71742ZM5.02687 5.19786C4.96033 5.19786 4.84378 5.2395 4.84378 5.29776H4.84375V14.237C4.84375 14.3119 4.87707 14.3368 4.94365 14.3368H6.21711C6.29201 14.3368 6.31697 14.3035 6.31697 14.237V11.0408C6.41978 11.0408 6.4982 11.0443 6.5833 11.0481C6.68425 11.0526 6.79459 11.0575 6.9662 11.0575C8.84724 11.0575 10.3787 10.1502 10.3787 8.03612C10.3787 6.42138 9.47982 5.15625 7.17429 5.15625C6.35029 5.15625 5.55959 5.17289 5.02687 5.19786Z" fill="#FF00FF"/>
</svg>
