<svg width="16" height="16" viewBox="0 0 16 16" fill="none" xmlns="http://www.w3.org/2000/svg">
<path fill-rule="evenodd" clip-rule="evenodd" d="M6.57487 4H7.74511L7.41439 5.61968H8.46591C9.04255 5.63104 9.47215 5.74976 9.75487 5.97584C10.0432 6.20192 10.128 6.63168 10.0093 7.2648L9.44111 10.0886H8.25391L8.79663 7.392C8.85311 7.10928 8.83615 6.90864 8.74575 6.78992C8.65535 6.6712 8.46031 6.61184 8.16063 6.61184L7.21935 6.60336L6.52399 10.0886H5.35375L6.57487 4ZM11.2658 5.61969H13.5384C14.2054 5.62529 14.6888 5.81761 14.9885 6.19633C15.2882 6.57505 15.387 7.09233 15.2853 7.74817C15.2458 8.04785 15.1581 8.34177 15.0224 8.63009C14.8923 8.91841 14.7115 9.17841 14.4797 9.41025C14.197 9.70417 13.8946 9.89073 13.5723 9.96993C13.2501 10.0491 12.9165 10.0886 12.5717 10.0886H11.5541L11.2318 11.6998H10.0531L11.2658 5.61969ZM11.7491 9.13041L12.2562 6.59489H12.4275C12.4898 6.59489 12.5547 6.59201 12.6226 6.58641C13.0749 6.58081 13.4507 6.62321 13.7504 6.71361C14.0557 6.80401 14.1574 7.14609 14.0557 7.73969C13.9314 8.44641 13.6882 8.85905 13.3264 8.97777C12.9646 9.09089 12.5123 9.14449 11.9696 9.13889H11.8509C11.817 9.13889 11.783 9.13601 11.7491 9.13041ZM3.48528 5.61969H1.21264L0 11.6998H1.17872L1.50096 10.0886H2.51856C2.86336 10.0886 3.19696 10.0491 3.5192 9.96993C3.84144 9.89073 4.14384 9.70417 4.42656 9.41025C4.6584 9.17841 4.8392 8.91841 4.96928 8.63009C5.10496 8.34177 5.19264 8.04785 5.23216 7.74817C5.33392 7.09233 5.23504 6.57505 4.93536 6.19633C4.63568 5.81761 4.15232 5.62529 3.48528 5.61969ZM2.2031 6.59489L1.696 9.13041C1.72992 9.13601 1.76384 9.13889 1.79776 9.13889H1.91648C2.4592 9.14449 2.91152 9.09089 3.27328 8.97777C3.63504 8.85905 3.87824 8.44641 4.00256 7.73969C4.10432 7.14609 4.00256 6.80401 3.69728 6.71361C3.3976 6.62321 3.02176 6.58081 2.56944 6.58641C2.5016 6.59201 2.43664 6.59489 2.3744 6.59489H2.2031Z" fill="#222430"/>
</svg>
