<svg width="20" height="20" viewBox="0 0 20 20" fill="none" xmlns="http://www.w3.org/2000/svg">
<path fill-rule="evenodd" clip-rule="evenodd" d="M8.21859 5H9.68139L9.26799 7.0246H10.5824C11.3032 7.0388 11.8402 7.1872 12.1936 7.4698C12.554 7.7524 12.66 8.2896 12.5116 9.081L11.8014 12.6108H10.3174L10.9958 9.24C11.0664 8.8866 11.0452 8.6358 10.9322 8.4874C10.8192 8.339 10.5754 8.2648 10.2008 8.2648L9.02419 8.2542L8.15499 12.6108H6.69219L8.21859 5ZM14.0822 7.02461H16.923C17.7568 7.03161 18.361 7.27201 18.7356 7.74541C19.1102 8.21881 19.2338 8.86541 19.1066 9.68521C19.0572 10.0598 18.9476 10.4272 18.778 10.7876C18.6154 11.148 18.3894 11.473 18.0996 11.7628C17.7462 12.1302 17.3682 12.3634 16.9654 12.4624C16.5626 12.5614 16.1456 12.6108 15.7146 12.6108H14.4426L14.0398 14.6248H12.5664L14.0822 7.02461ZM14.6864 11.413L15.3203 8.24361H15.5344C15.6122 8.24361 15.6934 8.24001 15.7782 8.23301C16.3436 8.22601 16.8134 8.27901 17.188 8.39201C17.5696 8.50501 17.6968 8.93261 17.5696 9.67461C17.4142 10.558 17.1102 11.0738 16.658 11.2222C16.2058 11.3636 15.6404 11.4306 14.962 11.4236H14.8136C14.7712 11.4236 14.7288 11.42 14.6864 11.413ZM4.3566 7.02461H1.5158L0 14.6248H1.4734L1.8762 12.6108H3.1482C3.5792 12.6108 3.9962 12.5614 4.399 12.4624C4.8018 12.3634 5.1798 12.1302 5.5332 11.7628C5.823 11.473 6.049 11.148 6.2116 10.7876C6.3812 10.4272 6.4908 10.0598 6.5402 9.68521C6.6674 8.86541 6.5438 8.21881 6.1692 7.74541C5.7946 7.27201 5.1904 7.03161 4.3566 7.02461ZM2.75388 8.24361L2.12 11.413C2.1624 11.42 2.2048 11.4236 2.2472 11.4236H2.3956C3.074 11.4306 3.6394 11.3636 4.0916 11.2222C4.5438 11.0738 4.8478 10.558 5.0032 9.67461C5.1304 8.93261 5.0032 8.50501 4.6216 8.39201C4.247 8.27901 3.7772 8.22601 3.2118 8.23301C3.127 8.24001 3.0458 8.24361 2.968 8.24361H2.75388Z" fill="#222430"/>
</svg>
