<svg width="20" height="20" viewBox="0 0 20 20" fill="none" xmlns="http://www.w3.org/2000/svg">
<path fill-rule="evenodd" clip-rule="evenodd" d="M13.9712 14.6086C13.9792 14.5919 13.9856 14.5742 13.9921 14.5562C13.9967 14.5434 14.0014 14.5304 14.0068 14.5176C14.0592 14.4018 14.1058 14.286 14.1434 14.1643C14.1458 14.1555 14.1477 14.1467 14.1496 14.1381C14.1523 14.1253 14.1551 14.1127 14.1592 14.1009C14.1978 13.9664 14.2304 13.8337 14.2562 13.6972V13.6764C14.4492 12.5195 14.1127 11.2291 13.3428 10.0633L14.4412 8.36714C15.7069 8.52845 16.8015 8.2098 17.3279 7.39535C18.2413 5.98713 17.13 3.64275 14.849 2.15735C12.5659 0.670954 9.97711 0.608609 9.06568 2.01484C8.53722 2.83028 8.6916 3.9614 9.35563 5.05591L8.25519 6.7521C6.88062 6.52152 5.56741 6.73627 4.59066 7.38545L4.58887 7.38604C4.58338 7.38784 4.57741 7.3898 4.57384 7.39337C4.46003 7.47056 4.3492 7.55567 4.24529 7.64473C4.23904 7.64987 4.23239 7.65488 4.22578 7.65986C4.21459 7.66827 4.20353 7.67659 4.19482 7.6853C4.09784 7.76843 4.01075 7.86145 3.92664 7.95448C3.91757 7.96535 3.90685 7.97561 3.89608 7.9859C3.88333 7.99809 3.87052 8.01034 3.86033 8.02375C3.75543 8.14349 3.65845 8.27016 3.57334 8.40475C2.20373 10.5156 3.37245 13.71 6.17899 15.5388C8.9875 17.3676 12.3739 17.1361 13.7406 15.0252C13.8267 14.8916 13.9059 14.7521 13.9712 14.6086ZM5.15177 15.7318L3.06864 18.948L3.29032 20L4.3393 19.7754L6.42144 16.5611C6.19977 16.4424 5.98007 16.3157 5.76731 16.1752C5.55157 16.0356 5.34573 15.8862 5.15177 15.7318ZM12.2097 2.73924C11.8584 3.28253 12.2869 4.18308 13.1646 4.75408C14.0434 5.32509 15.038 5.34983 15.3873 4.80851C15.7366 4.26719 15.3121 3.36467 14.4323 2.79367C13.5565 2.22266 12.56 2.19792 12.2097 2.73924Z" fill="#FF00FF"/>
</svg>
