<svg width="16" height="16" viewBox="0 0 16 16" fill="none" xmlns="http://www.w3.org/2000/svg">
<path fill-rule="evenodd" clip-rule="evenodd" d="M11.1768 11.6869C11.1833 11.6735 11.1884 11.6593 11.1936 11.645C11.1973 11.6347 11.201 11.6243 11.2053 11.6141C11.2473 11.5214 11.2845 11.4288 11.3146 11.3314C11.3165 11.3244 11.318 11.3174 11.3195 11.3104C11.3218 11.3002 11.324 11.2902 11.3273 11.2808C11.3581 11.1731 11.3843 11.067 11.4048 10.9577V10.9411C11.5592 10.0156 11.29 8.98328 10.6741 8.05067L11.5529 6.69372C12.5655 6.82276 13.4411 6.56784 13.8622 5.91628C14.593 4.78971 13.7039 2.9142 11.8791 1.72588C10.0526 0.536763 7.98159 0.486887 7.25244 1.61187C6.82968 2.26423 6.95319 3.16912 7.48441 4.04473L6.60405 5.40168C5.5044 5.21722 4.45383 5.38902 3.67243 5.90836L3.671 5.90883C3.66661 5.91027 3.66183 5.91184 3.65897 5.9147C3.56793 5.97645 3.47926 6.04453 3.39613 6.11578C3.39114 6.1199 3.38581 6.12391 3.38052 6.12788L3.38051 6.12789C3.37156 6.13463 3.36272 6.14128 3.35576 6.14824C3.27817 6.21475 3.2085 6.28916 3.14121 6.36358C3.13396 6.37228 3.12538 6.38048 3.11677 6.38872L3.11677 6.38872C3.10657 6.39847 3.09632 6.40827 3.08817 6.419C3.00425 6.51479 2.92666 6.61613 2.85858 6.7238C1.76288 8.41247 2.69787 10.968 4.94309 12.4311C7.1899 13.8941 9.89905 13.7089 10.9924 12.0202C11.0613 11.9133 11.1246 11.8017 11.1768 11.6869ZM4.12132 12.5855L2.45482 15.1584L2.63216 16L3.47134 15.8203L5.13705 13.2489C4.95972 13.1539 4.78396 13.0525 4.61375 12.9401C4.44116 12.8285 4.27649 12.709 4.12132 12.5855ZM9.76763 2.19139C9.48658 2.62603 9.82939 3.34646 10.5316 3.80327C11.2346 4.26007 12.0303 4.27986 12.3097 3.84681C12.5892 3.41375 12.2496 2.69174 11.5458 2.23493C10.8451 1.77813 10.0479 1.75834 9.76763 2.19139Z" fill="#FF00FF"/>
</svg>
