<svg width="16" height="16" viewBox="0 0 16 16" fill="none" xmlns="http://www.w3.org/2000/svg">
<g clip-path="url(#clip0_1347_2432)">
<path fill-rule="evenodd" clip-rule="evenodd" d="M7.94887 7.78945C9.02885 6.76048 8.6993 5.48786 7.72118 3.94576C6.74307 2.40366 4.77413 1.85502 4.40681 2.20499C4.0395 2.55496 3.95808 5.05709 4.93619 6.59919C5.9143 8.1413 6.86889 8.81841 7.94887 7.78945Z" fill="url(#paint0_linear_1347_2432)"/>
<path fill-rule="evenodd" clip-rule="evenodd" d="M8.88262 7.93178C9.68159 9.19145 10.7497 8.73087 12.0719 7.4712C13.394 6.21152 13.9422 3.79855 13.6705 3.37011C13.3987 2.94168 11.3336 2.96316 10.0115 4.22283C8.68939 5.4825 8.08365 6.67211 8.88262 7.93178Z" fill="url(#paint1_linear_1347_2432)"/>
<path fill-rule="evenodd" clip-rule="evenodd" d="M8.44574 7.23877C9.7724 7.40166 10.2941 6.17603 10.5374 4.19488C10.7806 2.21373 9.77786 0.119777 9.32664 0.0643746C8.87542 0.0089717 7.35951 1.79367 7.11625 3.77482C6.873 5.75597 7.11908 7.07587 8.44574 7.23877Z" fill="url(#paint2_linear_1347_2432)"/>
<path fill-rule="evenodd" clip-rule="evenodd" d="M8.11165 16C10.8932 16 13.1489 15.192 13.1489 11.5277C13.1489 7.86334 10.8932 4.85641 8.11165 4.85641C5.33014 4.85641 3.07617 7.86334 3.07617 11.5277C3.07617 15.192 5.33014 16 8.11165 16Z" fill="url(#paint3_linear_1347_2432)"/>
<path d="M10.6558 10.7796C11.0531 10.7796 11.3752 10.6298 11.3752 10.445C11.3752 10.2601 11.0531 10.1103 10.6558 10.1103C10.2584 10.1103 9.93628 10.2601 9.93628 10.445C9.93628 10.6298 10.2584 10.7796 10.6558 10.7796Z" fill="#EAADCC"/>
<path d="M5.32762 10.5764C5.72202 10.6248 6.06 10.5154 6.08252 10.3319C6.10505 10.1485 5.80358 9.96051 5.40919 9.91208C5.01479 9.86366 4.67681 9.97311 4.65429 10.1565C4.63176 10.34 4.93322 10.528 5.32762 10.5764Z" fill="#EAADCC"/>
<path d="M8.57251 10.3263C8.35597 10.5023 8.10586 10.5741 7.82218 10.5417C7.5385 10.5092 7.32823 10.3915 7.19137 10.1884" stroke="black" stroke-width="0.200785" stroke-linecap="round" stroke-linejoin="round"/>
<path fill-rule="evenodd" clip-rule="evenodd" d="M5.78605 8.58489C5.98462 8.57796 6.1672 8.65216 6.30187 8.77773C6.43654 8.9033 6.5233 9.08025 6.53024 9.27881C6.53717 9.47739 6.46297 9.65996 6.33739 9.79462C6.2118 9.92929 6.03484 10.016 5.83627 10.023C5.63771 10.0299 5.45514 9.95571 5.32049 9.83013C5.18584 9.70456 5.09909 9.5276 5.09215 9.32903C5.08522 9.13047 5.15941 8.9479 5.28498 8.81324C5.41055 8.67858 5.58749 8.59183 5.78605 8.58489V8.58489Z" fill="black"/>
<path fill-rule="evenodd" clip-rule="evenodd" d="M5.82385 9.18619C5.81933 9.05692 5.71082 8.95575 5.58159 8.96026C5.45228 8.96478 5.35112 9.07327 5.35564 9.20254C5.36015 9.33182 5.46863 9.43299 5.59794 9.42848C5.72716 9.42392 5.82836 9.31547 5.82385 9.18619Z" fill="white"/>
<path fill-rule="evenodd" clip-rule="evenodd" d="M10.1455 8.76748C10.344 8.76055 10.5266 8.83474 10.6613 8.96031C10.7959 9.08588 10.8827 9.26283 10.8896 9.46139C10.8965 9.65998 10.8223 9.84255 10.6968 9.97721C10.5712 10.1119 10.3943 10.1986 10.1957 10.2056C9.99712 10.2125 9.81454 10.1383 9.67988 10.0127C9.54522 9.88714 9.45846 9.71019 9.45153 9.51161C9.44459 9.31305 9.5188 9.13049 9.64437 8.99583C9.76995 8.86117 9.9469 8.77441 10.1455 8.76748V8.76748Z" fill="black"/>
<path d="M6.43 9.28217C6.44193 9.62392 6.17459 9.91058 5.83286 9.92251C5.49116 9.93444 5.20451 9.66713 5.19258 9.32538C5.18065 8.98368 5.44795 8.69702 5.78965 8.68509C6.13138 8.67315 6.41807 8.94046 6.43 9.28217ZM6.63066 9.27517C6.61486 8.82263 6.2352 8.46862 5.78264 8.48443C5.33012 8.50023 4.97611 8.87986 4.99192 9.33239C5.00772 9.78495 5.38733 10.139 5.83987 10.1232C6.29243 10.1074 6.64647 9.72773 6.63066 9.27517Z" fill="white" stroke="white" stroke-width="0.100393"/>
<path d="M10.7894 9.46488C10.8013 9.80663 10.534 10.0933 10.1923 10.1052C9.85057 10.1171 9.56389 9.84984 9.55195 9.50809C9.54002 9.16638 9.80736 8.87973 10.1491 8.8678C10.4908 8.85586 10.7774 9.12317 10.7894 9.46488ZM10.99 9.45787C10.9742 9.00534 10.5946 8.65133 10.1421 8.66713C9.68953 8.68294 9.33549 9.06257 9.35129 9.5151C9.36709 9.96766 9.74674 10.3217 10.1993 10.3059C10.6518 10.2901 11.0058 9.91044 10.99 9.45787Z" fill="white" stroke="white" stroke-width="0.100393"/>
<path fill-rule="evenodd" clip-rule="evenodd" d="M10.1832 9.3689C10.1787 9.23962 10.0702 9.13846 9.94094 9.14297C9.81166 9.14749 9.7105 9.25597 9.71501 9.38525C9.71952 9.51453 9.82801 9.6157 9.95729 9.61119C10.0866 9.60667 10.1877 9.49818 10.1832 9.3689Z" fill="white"/>
<path d="M4.29761 11.8672L6.77396 14.444" stroke="#ECB732" stroke-width="0.368106" stroke-linecap="round"/>
<path d="M6.43927 12.1684L4.86646 13.8416" stroke="#ECB732" stroke-width="0.368106" stroke-linecap="round"/>
<path d="M11.894 11.8672L9.41769 14.444" stroke="#ECB732" stroke-width="0.368106" stroke-linecap="round"/>
<path d="M9.75238 12.1684L11.3252 13.8416" stroke="#ECB732" stroke-width="0.368106" stroke-linecap="round"/>
<path d="M9.11646 6.17822L7.47671 7.81797" stroke="#FFC73B" stroke-width="0.368106" stroke-linecap="round"/>
<path d="M8.78174 7.81793L7.14199 6.17819" stroke="#FFC73B" stroke-width="0.368106" stroke-linecap="round"/>
</g>
<defs>
<linearGradient id="paint0_linear_1347_2432" x1="4.2649" y1="2.31447" x2="4.81977" y2="5.0072" gradientUnits="userSpaceOnUse">
<stop stop-color="#52CE63"/>
<stop offset="1" stop-color="#51A256"/>
</linearGradient>
<linearGradient id="paint1_linear_1347_2432" x1="14.0138" y1="3.80773" x2="11.3207" y2="4.36197" gradientUnits="userSpaceOnUse">
<stop stop-color="#52CE63"/>
<stop offset="1" stop-color="#51A256"/>
</linearGradient>
<linearGradient id="paint2_linear_1347_2432" x1="9.30846" y1="0.0621423" x2="8.79039" y2="4.28149" gradientUnits="userSpaceOnUse">
<stop stop-color="#8AE99C"/>
<stop offset="1" stop-color="#52CE63"/>
</linearGradient>
<linearGradient id="paint3_linear_1347_2432" x1="8.2513" y1="6.80348" x2="7.41511" y2="15.9862" gradientUnits="userSpaceOnUse">
<stop stop-color="#FFE56C"/>
<stop offset="1" stop-color="#FFC63A"/>
</linearGradient>
<clipPath id="clip0_1347_2432">
<rect width="16" height="16" fill="white"/>
</clipPath>
</defs>
</svg>
