<svg width="16" height="16" viewBox="0 0 16 16" fill="none" xmlns="http://www.w3.org/2000/svg">
<path fill-rule="evenodd" clip-rule="evenodd" d="M15.8577 11.0514C15.5452 11.4458 14.7794 11.727 14.7794 11.727L9.08319 13.7731V12.2642L13.2752 10.7705C13.751 10.6001 13.824 10.3591 13.4373 10.2327C13.0514 10.1058 12.3525 10.1422 11.8764 10.3133L9.08319 11.2971V9.73114L9.24419 9.67663C9.24419 9.67663 10.0513 9.39098 11.1863 9.26524C12.3213 9.14022 13.711 9.28232 14.802 9.69589C16.0314 10.0844 16.1699 10.6571 15.8577 11.0514ZM9.62541 8.48206V4.62327C9.62541 4.17008 9.54183 3.75288 9.11663 3.63477C8.791 3.53046 8.58894 3.83283 8.58894 4.28565V13.949L5.98285 13.1219V1.59998C7.09092 1.80567 8.70523 2.29193 9.57308 2.58448C11.7801 3.34221 12.5284 4.28529 12.5284 6.41021C12.5284 8.48134 11.2499 9.26633 9.62541 8.48206ZM1.20097 12.1065C-0.0611885 11.751 -0.271245 11.0104 0.304049 10.5837C0.835733 10.1898 1.73992 9.89323 1.73992 9.89323L5.47661 8.56456V10.0793L2.78766 11.0416C2.31267 11.2121 2.23962 11.4534 2.62558 11.5799C3.01189 11.7063 3.71111 11.6704 4.18683 11.4995L5.47661 11.0315V12.3867C5.39484 12.4012 5.30362 12.4157 5.21931 12.4299C3.92917 12.6407 2.55507 12.5527 1.20097 12.1065Z" fill="#FF00FF"/>
</svg>
