<svg width="20" height="20" viewBox="0 0 20 20" fill="none" xmlns="http://www.w3.org/2000/svg">
<path fill-rule="evenodd" clip-rule="evenodd" d="M19.8221 13.8143C19.4315 14.3072 18.4743 14.6588 18.4743 14.6588L11.354 17.2164V15.3303L16.5941 13.4632C17.1887 13.2501 17.28 12.9489 16.7967 12.7909C16.3142 12.6323 15.4407 12.6777 14.8455 12.8917L11.354 14.1214V12.164L11.5552 12.0958C11.5552 12.0958 12.5642 11.7388 13.9829 11.5816C15.4016 11.4253 17.1387 11.6029 18.5025 12.1199C20.0393 12.6055 20.2124 13.3214 19.8221 13.8143ZM12.0318 10.6026V5.77912C12.0318 5.21264 11.9273 4.69113 11.3958 4.54349C10.9888 4.41311 10.7362 4.79107 10.7362 5.35709V17.4363L7.47857 16.4023V2C8.86365 2.25712 10.8815 2.86494 11.9664 3.23063C14.7252 4.1778 15.6605 5.35664 15.6605 8.01279C15.6605 10.6017 14.0624 11.5829 12.0318 10.6026ZM1.50121 15.1331C-0.0764856 14.6888 -0.339057 13.763 0.380061 13.2297C1.04467 12.7373 2.1749 12.3666 2.1749 12.3666L6.84576 10.7057V12.5992L3.48458 13.8021C2.89084 14.0151 2.79953 14.3168 3.28197 14.4749C3.76487 14.6329 4.63889 14.588 5.23354 14.3745L6.84576 13.7894V15.4833C6.74355 15.5015 6.62953 15.5197 6.52413 15.5374C4.91146 15.8009 3.19384 15.691 1.50121 15.1331Z" fill="#FF00FF"/>
</svg>
