<svg width="20" height="20" viewBox="0 0 20 20" fill="none" xmlns="http://www.w3.org/2000/svg">
<g clip-path="url(#clip0)">
<path fill-rule="evenodd" clip-rule="evenodd" d="M10.791 5.15985L10.7779 17.1955L7.55322 16.1467V2L11.6693 3.08824C14.3041 3.79637 15.9165 5.17285 15.8903 7.58526C15.8641 10.3911 14.5663 11.5185 12.0363 10.7843V5.25145C12.0363 4.58277 10.791 4.54361 10.791 5.15985Z" fill="#DE0029"/>
<path fill-rule="evenodd" clip-rule="evenodd" d="M6.07191 13.8127L4.55126 14.3241C3.56798 14.6651 2.72914 13.8654 3.63362 13.5374L4.36766 13.2754L1.6017 12.3968C0.749575 12.6853 -0.0501067 13.3015 0.0024553 14.1669C0.0548954 15.0452 2.06046 15.2551 3.60742 15.5042C5.0493 15.7401 6.36019 15.609 7.55323 15.1895V14.2847L6.07191 13.8127ZM10.8042 17.1955L13.6226 16.2121L10.778 15.3075V17.1298L10.8042 17.1955Z" fill="#F3C202"/>
<path fill-rule="evenodd" clip-rule="evenodd" d="M18.3023 14.5603L18.3547 14.5471C19.5869 14.1146 20.1113 13.5113 19.9803 12.9477C19.7706 12.0038 18.263 11.4923 15.9427 11.3219C14.2779 11.2039 12.6394 11.5709 11.0401 12.1215L10.7779 12.2134L13.6487 13.105L15.3266 12.5411C17.0832 12.2134 17.7912 12.7902 16.1001 13.3278L15.2611 13.6161L18.3023 14.5603ZM7.55318 10.3911L6.28149 10.8237L7.55318 11.217V10.3911Z" fill="#326DB3"/>
<path fill-rule="evenodd" clip-rule="evenodd" d="M13.6226 16.2121L18.3025 14.5603L15.2612 13.6161L10.778 15.1501V15.3076L13.6226 16.2121ZM7.55334 13.3146L6.07201 13.8128L7.55334 14.2848V13.3146ZM10.778 14.0883V12.2134L13.6489 13.1049L10.778 14.0883ZM4.36777 13.2754L7.5533 12.1348V11.217L6.28165 10.8236L1.66733 12.3839C1.65421 12.3839 1.62801 12.3968 1.60181 12.3968L4.36777 13.2754Z" fill="#00AA9E"/>
</g>
<defs>
<clipPath id="clip0">
<rect width="20" height="20" fill="white"/>
</clipPath>
</defs>
</svg>
