<svg width="16" height="16" viewBox="0 0 16 16" fill="none" xmlns="http://www.w3.org/2000/svg">
<path fill-rule="evenodd" clip-rule="evenodd" d="M8.63272 4.12786L8.62223 13.7563L6.04248 12.9173V1.59998L9.33538 2.47057C11.4432 3.03707 12.7331 4.13826 12.7121 6.06818C12.6912 8.31283 11.653 9.21475 9.62898 8.62739V4.20114C9.62898 3.66619 8.63272 3.63486 8.63272 4.12786Z" fill="#DE0029"/>
<path fill-rule="evenodd" clip-rule="evenodd" d="M4.85752 11.0501L3.64101 11.4593C2.85438 11.732 2.18331 11.0922 2.9069 10.8299L3.49413 10.6202L1.28136 9.91736C0.59966 10.1482 -0.0400854 10.6412 0.00196424 11.3335C0.0439164 12.0361 1.64837 12.204 2.88594 12.4033C4.03944 12.592 5.08815 12.4872 6.04258 12.1515V11.4277L4.85752 11.0501ZM8.64332 13.7563L10.898 12.9696L8.62236 12.246V13.7038L8.64332 13.7563Z" fill="#F3C202"/>
<path fill-rule="evenodd" clip-rule="evenodd" d="M14.642 11.6482L14.684 11.6376C15.6698 11.2916 16.0892 10.809 15.9844 10.3581C15.8166 9.60298 14.6106 9.19383 12.7544 9.05744C11.4226 8.96311 10.1117 9.25671 8.83228 9.69719L8.62252 9.77069L10.9192 10.4839L12.2615 10.0328C13.6668 9.77069 14.2332 10.2321 12.8803 10.6622L12.2091 10.8928L14.642 11.6482ZM6.04274 8.31287L5.02539 8.65888L6.04274 8.97357V8.31287Z" fill="#326DB3"/>
<path fill-rule="evenodd" clip-rule="evenodd" d="M10.8979 12.9697L14.6418 11.6483L12.2088 10.8929L8.62222 12.1201V12.2461L10.8979 12.9697ZM6.04247 10.6517L4.85742 11.0502L6.04247 11.4278V10.6517ZM8.62222 11.2707V9.77075L10.9189 10.484L8.62222 11.2707ZM3.49402 10.6203L6.04244 9.70783V8.97362L5.02513 8.65894L1.33367 9.9071C1.32317 9.9071 1.30221 9.91747 1.28125 9.91747L3.49402 10.6203Z" fill="#00AA9E"/>
</svg>
