<svg width="16" height="16" viewBox="0 0 16 16" fill="none" xmlns="http://www.w3.org/2000/svg">
<path opacity="0.3" d="M11 2H15C15.5523 2 16 2.44772 16 3V13C16 13.5523 15.5523 14 15 14H11L12 13V3L11 2Z" fill="#FF00FF"/>
<path fill-rule="evenodd" clip-rule="evenodd" d="M11.5 3L1.5 3C1.22386 3 1 3.22386 1 3.5V12.5C1 12.7761 1.22386 13 1.5 13L11.5 13C11.7761 13 12 12.7761 12 12.5V3.5C12 3.22386 11.7761 3 11.5 3ZM1.5 2L11.5 2C12.3284 2 13 2.67157 13 3.5V12.5C13 13.3284 12.3284 14 11.5 14L1.5 14C0.671574 14 0 13.3284 0 12.5V3.5C0 2.67157 0.671574 2 1.5 2ZM4.85355 3.64645L9.20711 8L4.85355 12.3536L4.14645 11.6464L7.79289 8L4.14645 4.35355L4.85355 3.64645Z" fill="#FF00FF"/>
</svg>
