<svg width="16" height="16" viewBox="0 0 16 16" fill="none" xmlns="http://www.w3.org/2000/svg">
<g clip-path="url(#clip0_1447_1756)">
<path d="M11.4187 0C10.7971 0.0046243 10.179 0.095033 9.58207 0.268667L9.54007 0.282C9.16355 0.215458 8.78237 0.178678 8.40007 0.172C7.61474 0.158667 6.94007 0.349333 6.39607 0.666667C5.86007 0.480667 4.74807 0.16 3.57607 0.224C2.76007 0.268667 1.8694 0.516667 1.2094 1.21333C0.551404 1.91 0.203404 2.988 0.276737 4.45467C0.296737 4.85933 0.412071 5.51933 0.603404 6.374C0.794737 7.22867 1.0634 8.22933 1.39874 9.142C1.73407 10.0553 2.1014 10.8753 2.6754 11.4327C2.96207 11.712 3.35674 11.9467 3.82207 11.9273C4.14874 11.914 4.44407 11.7707 4.69874 11.5593C4.82274 11.7227 4.9554 11.794 5.07607 11.86C5.22807 11.9433 5.37607 12 5.5294 12.0373C5.80474 12.106 6.27607 12.198 6.82807 12.104C7.01607 12.0727 7.21407 12.0113 7.4114 11.924C7.41874 12.144 7.4274 12.3593 7.43607 12.5773C7.4634 13.268 7.48074 13.906 7.68807 14.4653C7.7214 14.5567 7.81274 15.0273 8.17274 15.4427C8.53274 15.8587 9.23807 16.118 10.0414 15.946C10.6081 15.8247 11.3287 15.606 11.8074 14.9247C12.2807 14.2513 12.4941 13.2853 12.5361 11.7187C12.5467 11.634 12.5594 11.562 12.5727 11.4947L12.6854 11.5047H12.6987C13.3034 11.532 13.9594 11.446 14.5074 11.1913C14.9927 10.9667 15.3601 10.7393 15.6274 10.336C15.6941 10.236 15.7674 10.1153 15.7874 9.90733C15.8074 9.69933 15.6881 9.374 15.4901 9.224C15.0934 8.92267 14.8441 9.03733 14.5767 9.09267C14.3134 9.15089 14.045 9.18348 13.7754 9.19C14.5461 7.892 15.0987 6.51333 15.4141 5.29333C15.6007 4.57333 15.7054 3.90933 15.7141 3.32867C15.7227 2.748 15.6754 2.234 15.3274 1.78933C14.2401 0.4 12.7114 0.016 11.5287 0.00266667C11.4921 0.002 11.4554 0.00133333 11.4187 0.002V0ZM11.3874 0.426667C12.5061 0.416 13.9354 0.73 14.9614 2.04133C15.1921 2.336 15.2607 2.76667 15.2527 3.29733C15.2441 3.82733 15.1461 4.462 14.9667 5.15733C14.6187 6.504 13.9614 8.074 13.0354 9.48267C13.0681 9.5059 13.1035 9.52515 13.1407 9.54C13.3341 9.62 13.7747 9.68867 14.6541 9.508C14.8754 9.46133 15.0374 9.43 15.2054 9.558C15.2462 9.59261 15.2785 9.63619 15.2997 9.68535C15.3208 9.73451 15.3303 9.78789 15.3274 9.84133C15.3184 9.92225 15.2886 9.99945 15.2407 10.0653C15.0707 10.3207 14.7354 10.5627 14.3054 10.762C13.9247 10.9393 13.3787 11.032 12.8947 11.0373C12.6521 11.04 12.4281 11.0213 12.2381 10.962L12.2261 10.9573C12.1527 11.664 11.9841 13.0593 11.8741 13.696C11.7861 14.2093 11.6321 14.6173 11.3381 14.9227C11.0447 15.228 10.6294 15.412 10.0707 15.532C9.37874 15.6807 8.87407 15.5207 8.54874 15.2467C8.22407 14.9733 8.0754 14.6107 7.98607 14.3887C7.92474 14.2353 7.89274 14.0367 7.86207 13.7713C7.8314 13.506 7.80874 13.1813 7.7934 12.8153C7.77298 12.2549 7.76631 11.6941 7.7734 11.1333C7.48434 11.3981 7.12513 11.574 6.73874 11.64C6.2794 11.718 5.8694 11.6413 5.62474 11.58C5.50413 11.5497 5.3877 11.5047 5.27807 11.446C5.16474 11.3853 5.05674 11.3167 4.98474 11.1813C4.94243 11.1038 4.92897 11.0138 4.94674 10.9273C4.96927 10.8397 5.02041 10.762 5.09207 10.7067C5.22407 10.5993 5.39874 10.5393 5.66207 10.4847C6.1414 10.386 6.30874 10.3187 6.41074 10.238C6.4974 10.1687 6.5954 10.0287 6.76874 9.82333C6.76791 9.81424 6.76724 9.80512 6.76674 9.796C6.45653 9.78727 6.15275 9.7055 5.88007 9.55733C5.78007 9.66267 5.2694 10.2027 4.64674 10.952C4.38474 11.2653 4.0954 11.4453 3.79007 11.458C3.48474 11.4713 3.20874 11.3173 2.97407 11.09C2.5054 10.6347 2.1314 9.85133 1.8054 8.966C1.48007 8.08067 1.2154 7.09467 1.0274 6.25467C0.838737 5.41467 0.727404 4.73733 0.711404 4.41067C0.641404 3.02267 0.966071 2.08733 1.52274 1.49733C2.08007 0.907333 2.84407 0.684 3.58874 0.641333C4.9254 0.564667 6.19474 1.03067 6.4514 1.13067C6.94607 0.794667 7.5834 0.585333 8.3794 0.598667C8.7573 0.603967 9.13332 0.652732 9.50007 0.744L9.5134 0.738C9.67482 0.681258 9.83931 0.633627 10.0061 0.595333C10.4589 0.489703 10.9218 0.433596 11.3867 0.428L11.3874 0.426667ZM11.4887 0.873333H11.3914C11.0095 0.87866 10.629 0.921533 10.2554 1.00133C11.0861 1.36933 11.7134 1.936 12.1554 2.50133C12.4624 2.89276 12.7162 3.32318 12.9101 3.78133C12.9834 3.95733 13.0327 4.106 13.0607 4.22133C13.0747 4.27933 13.0841 4.328 13.0874 4.37867C13.0887 4.404 13.0901 4.43 13.0794 4.47467C13.0794 4.47667 13.0761 4.48133 13.0754 4.48333C13.0954 5.06733 12.9507 5.46333 12.9334 6.02067C12.9201 6.42467 13.0234 6.89933 13.0487 7.41733C13.0727 7.904 13.0141 8.43867 12.6981 8.96333C12.7247 8.99533 12.7487 9.02733 12.7741 9.05933C13.6101 7.74267 14.2127 6.286 14.5341 5.044C14.7061 4.37533 14.7974 3.76933 14.8054 3.28933C14.8121 2.80933 14.7227 2.46133 14.6087 2.316C13.7141 1.172 12.5034 0.881333 11.4887 0.873333ZM8.2954 1.044C7.5074 1.046 6.94207 1.284 6.5134 1.64067C6.0714 2.00933 5.77474 2.514 5.58007 3.03067C5.34874 3.644 5.2694 4.23733 5.23807 4.64L5.24674 4.63467C5.48474 4.50133 5.7974 4.368 6.13207 4.29067C6.46674 4.214 6.8274 4.19 7.15407 4.31667C7.48074 4.44333 7.75074 4.74133 7.84874 5.19333C8.31807 7.36467 7.70274 8.172 7.47607 8.78133C7.39008 9.00219 7.31641 9.22765 7.2554 9.45667C7.28407 9.45 7.31274 9.442 7.3414 9.43933C7.5014 9.426 7.62674 9.47933 7.7014 9.51133C7.9294 9.606 8.08607 9.80467 8.17074 10.0313C8.19274 10.0907 8.20874 10.1547 8.21807 10.2207C8.22792 10.2478 8.23245 10.2765 8.2314 10.3053C8.20613 11.1359 8.20902 11.967 8.24007 12.7973C8.2554 13.156 8.27807 13.472 8.30674 13.7213C8.3354 13.97 8.37607 14.1593 8.40207 14.2233C8.4874 14.4367 8.61207 14.716 8.8374 14.906C9.06274 15.0953 9.38607 15.222 9.97674 15.0953C10.4887 14.9853 10.8047 14.8327 11.0161 14.6133C11.2267 14.394 11.3527 14.0887 11.4334 13.6213C11.5541 12.9213 11.7967 10.8913 11.8261 10.5093C11.8127 10.2213 11.8554 10 11.9474 9.83133C12.0421 9.658 12.1887 9.552 12.3154 9.49467C12.3787 9.466 12.4381 9.44667 12.4867 9.43267C12.4352 9.35863 12.3812 9.28636 12.3247 9.216C12.1421 8.99451 11.9926 8.74773 11.8807 8.48333C11.8272 8.37415 11.77 8.26675 11.7094 8.16133C11.6207 8.00133 11.5087 7.80133 11.3914 7.57667C11.1567 7.12667 10.9014 6.58133 10.7687 6.05C10.6367 5.51933 10.6174 4.97 10.9561 4.58267C11.2561 4.23867 11.7827 4.096 12.5734 4.176C12.5501 4.106 12.5361 4.048 12.4967 3.95467C12.318 3.53392 12.0846 3.13853 11.8027 2.77867C11.1327 1.922 10.0481 1.07267 8.37207 1.04533H8.2954V1.044ZM3.8674 1.07867C3.78274 1.07867 3.69807 1.08133 3.61407 1.086C2.94074 1.12467 2.30407 1.32 1.84874 1.80267C1.39274 2.28533 1.09274 3.07667 1.15807 4.38667C1.17074 4.63467 1.27874 5.32933 1.46407 6.15467C1.64874 6.98 1.91074 7.95133 2.2254 8.80933C2.54074 9.66733 2.92274 10.414 3.2854 10.7673C3.46807 10.944 3.62674 11.0153 3.77074 11.0093C3.9154 11.0027 4.0894 10.9193 4.30207 10.664C4.68981 10.1963 5.09223 9.74095 5.50874 9.29867C5.21321 9.04207 4.98704 8.71521 4.85107 8.3482C4.7151 7.9812 4.67372 7.58587 4.73074 7.19867C4.7994 6.706 4.80874 6.24533 4.80074 5.88133C4.79274 5.52667 4.7674 5.29067 4.7674 5.14333C4.76728 5.13911 4.76728 5.13489 4.7674 5.13067V5.12733L4.76674 5.12333C4.76634 4.35586 4.8999 3.59355 5.1614 2.872C5.34807 2.376 5.62607 1.872 6.04274 1.464C5.6334 1.32933 4.90674 1.124 4.12007 1.08533C4.03569 1.081 3.95189 1.07878 3.8674 1.07867ZM12.1327 4.6C11.6801 4.606 11.4261 4.72267 11.2927 4.87533C11.1041 5.092 11.0861 5.472 11.2034 5.94C11.3201 6.40867 11.5614 6.93267 11.7881 7.368C11.9014 7.586 12.0114 7.782 12.1001 7.94133C12.1894 8.10133 12.2547 8.21467 12.2947 8.31133C12.3314 8.40067 12.3721 8.47933 12.4134 8.55267C12.5887 8.18267 12.6201 7.81933 12.6021 7.44067C12.5787 6.972 12.4701 6.49267 12.4861 6.00733C12.5041 5.44 12.6161 5.07067 12.6261 4.632C12.4625 4.61081 12.2977 4.60012 12.1327 4.6ZM6.6434 4.67667C6.50512 4.67796 6.36739 4.6945 6.23274 4.726C5.96436 4.7912 5.70586 4.89187 5.46407 5.02533C5.38228 5.06921 5.30444 5.12006 5.2314 5.17733L5.21674 5.19067C5.22074 5.288 5.24007 5.524 5.24807 5.87133C5.25607 6.25133 5.24674 6.736 5.1734 7.26067C5.01407 8.40067 5.8414 9.34467 6.8134 9.346C6.87007 9.112 6.9634 8.87467 7.05674 8.62467C7.3274 7.89533 7.86007 7.36333 7.4114 5.28733C7.33807 4.94733 7.19274 4.81 6.99274 4.73267C6.88064 4.69302 6.76228 4.67405 6.6434 4.67667ZM11.9214 4.81267H11.9547C11.9987 4.814 12.0394 4.81867 12.0747 4.82733C12.1107 4.83533 12.1414 4.84733 12.1667 4.864C12.1797 4.87205 12.1909 4.88273 12.1995 4.89537C12.2081 4.908 12.214 4.92229 12.2167 4.93733L12.2161 4.94267C12.2174 4.97432 12.2093 5.00564 12.1927 5.03267C12.1731 5.06926 12.1484 5.10292 12.1194 5.13267C12.0518 5.20714 11.9612 5.25688 11.8621 5.274C11.7656 5.28566 11.6682 5.2612 11.5887 5.20533C11.5562 5.18344 11.527 5.15694 11.5021 5.12667C11.4805 5.10288 11.466 5.07357 11.4601 5.042C11.4587 5.02662 11.4604 5.01112 11.4653 4.99644C11.4701 4.98177 11.4778 4.96823 11.4881 4.95667C11.5099 4.93181 11.5364 4.91143 11.5661 4.89667C11.6301 4.86067 11.7167 4.834 11.8147 4.81933C11.8514 4.814 11.8874 4.81133 11.9214 4.81067V4.81267ZM6.70807 4.92467C6.7434 4.92467 6.78074 4.928 6.81874 4.93333C6.92074 4.94733 7.0114 4.97467 7.08074 5.01467C7.11455 5.03232 7.14465 5.05631 7.1694 5.08533C7.18288 5.10073 7.19303 5.11874 7.19923 5.13824C7.20542 5.15775 7.20752 5.17832 7.2054 5.19867C7.19899 5.237 7.18163 5.27265 7.1554 5.30133C7.12813 5.33482 7.096 5.36403 7.06007 5.388C6.97337 5.44942 6.86687 5.47629 6.7614 5.46333C6.65363 5.44562 6.55497 5.39206 6.4814 5.31133C6.4501 5.27883 6.42361 5.24201 6.40274 5.202C6.38076 5.1668 6.37115 5.12528 6.3754 5.084C6.3854 5.012 6.44474 4.97467 6.50274 4.954C6.5688 4.93289 6.63813 4.92386 6.7074 4.92733L6.70807 4.92467ZM12.7481 9.82L12.7461 9.82067C12.6481 9.856 12.5674 9.87067 12.4994 9.90067C12.4306 9.92714 12.374 9.9779 12.3401 10.0433C12.2981 10.12 12.2621 10.256 12.2727 10.4873C12.3029 10.5081 12.3362 10.5239 12.3714 10.534C12.4854 10.5687 12.6767 10.5913 12.8901 10.588C13.3154 10.5833 13.8387 10.484 14.1167 10.3547C14.3448 10.2487 14.5565 10.1107 14.7454 9.94467C13.8167 10.1367 13.2914 10.0853 12.9694 9.95267C12.8894 9.9194 12.8149 9.87513 12.7481 9.82ZM7.39407 9.88267H7.38007C7.34474 9.886 7.2934 9.898 7.19407 10.008C6.96207 10.268 6.88074 10.4313 6.6894 10.584C6.49807 10.736 6.2494 10.8173 5.75274 10.9193C5.5954 10.9513 5.5054 10.9867 5.4454 11.0153C5.46474 11.0313 5.46274 11.0353 5.49207 11.0507C5.56474 11.0907 5.65807 11.126 5.7334 11.1453C5.94674 11.1987 6.2974 11.2607 6.6634 11.1987C7.0294 11.136 7.41007 10.9607 7.73474 10.5053C7.79074 10.4267 7.79674 10.3107 7.75074 10.186C7.70407 10.0613 7.60207 9.954 7.53007 9.924C7.48723 9.90333 7.44128 9.88981 7.39407 9.884V9.88267Z" fill="#FF00FF"/>
</g>
<defs>
<clipPath id="clip0_1447_1756">
<rect width="16" height="16" fill="white"/>
</clipPath>
</defs>
</svg>
