<svg width="20" height="20" viewBox="0 0 20 20" fill="none" xmlns="http://www.w3.org/2000/svg">
<path d="M14.2733 0C13.4962 0.00578037 12.7236 0.118791 11.9775 0.335833L11.925 0.3525C11.4543 0.269323 10.9778 0.223347 10.5 0.215C9.5183 0.198333 8.67496 0.436667 7.99497 0.833333C7.32497 0.600833 5.93497 0.2 4.46997 0.28C3.44997 0.335833 2.33663 0.645833 1.51163 1.51667C0.689133 2.3875 0.254133 3.735 0.3458 5.56833C0.3708 6.07417 0.514966 6.89917 0.754133 7.9675C0.993299 9.03583 1.32913 10.2867 1.7483 11.4275C2.16747 12.5692 2.62663 13.5942 3.34413 14.2908C3.70247 14.64 4.1958 14.9333 4.77747 14.9092C5.1858 14.8925 5.55497 14.7133 5.8733 14.4492C6.0283 14.6533 6.19413 14.7425 6.34497 14.825C6.53497 14.9292 6.71997 15 6.91163 15.0467C7.2558 15.1325 7.84497 15.2475 8.53497 15.13C8.76997 15.0908 9.01746 15.0142 9.26413 14.905C9.2733 15.18 9.28413 15.4492 9.29497 15.7217C9.32913 16.585 9.3508 17.3825 9.60997 18.0817C9.65163 18.1958 9.7658 18.7842 10.2158 19.3033C10.6658 19.8233 11.5475 20.1475 12.5516 19.9325C13.26 19.7808 14.1608 19.5075 14.7591 18.6558C15.3508 17.8142 15.6175 16.6067 15.67 14.6483C15.6833 14.5425 15.6991 14.4525 15.7158 14.3683L15.8566 14.3808H15.8733C16.6291 14.415 17.4491 14.3075 18.1341 13.9892C18.7408 13.7083 19.2 13.4242 19.5341 12.92C19.6175 12.795 19.7091 12.6442 19.7341 12.3842C19.7591 12.1242 19.61 11.7175 19.3625 11.53C18.8666 11.1533 18.555 11.2967 18.2208 11.3658C17.8916 11.4386 17.5562 11.4794 17.2191 11.4875C18.1825 9.865 18.8733 8.14167 19.2675 6.61667C19.5008 5.71667 19.6316 4.88667 19.6425 4.16083C19.6533 3.435 19.5941 2.7925 19.1591 2.23667C17.8 0.5 15.8891 0.02 14.4108 0.00333333C14.365 0.0025 14.3191 0.00166667 14.2733 0.0025V0ZM14.2341 0.533333C15.6325 0.52 17.4191 0.9125 18.7016 2.55167C18.99 2.92 19.0758 3.45833 19.0658 4.12167C19.055 4.78417 18.9325 5.5775 18.7083 6.44667C18.2733 8.13 17.4516 10.0925 16.2941 11.8533C16.335 11.8824 16.3792 11.9064 16.4258 11.925C16.6675 12.025 17.2183 12.1108 18.3175 11.885C18.5941 11.8267 18.7966 11.7875 19.0066 11.9475C19.0577 11.9908 19.098 12.0452 19.1244 12.1067C19.1509 12.1681 19.1628 12.2349 19.1591 12.3017C19.1479 12.4028 19.1106 12.4993 19.0508 12.5817C18.8383 12.9008 18.4191 13.2033 17.8816 13.4525C17.4058 13.6742 16.7233 13.79 16.1183 13.7967C15.815 13.8 15.535 13.7767 15.2975 13.7025L15.2825 13.6967C15.1908 14.58 14.98 16.3242 14.8425 17.12C14.7325 17.7617 14.54 18.2717 14.1725 18.6533C13.8058 19.035 13.2866 19.265 12.5883 19.415C11.7233 19.6008 11.0925 19.4008 10.6858 19.0583C10.28 18.7167 10.0941 18.2633 9.98247 17.9858C9.9058 17.7942 9.8658 17.5458 9.82747 17.2142C9.78913 16.8825 9.7608 16.4767 9.74163 16.0192C9.7161 15.3186 9.70777 14.6176 9.71663 13.9167C9.3553 14.2476 8.90629 14.4675 8.4233 14.55C7.84913 14.6475 7.33663 14.5517 7.0308 14.475C6.88004 14.4371 6.7345 14.3809 6.59747 14.3075C6.4558 14.2317 6.3208 14.1458 6.2308 13.9767C6.17792 13.8798 6.16109 13.7673 6.1833 13.6592C6.21146 13.5496 6.2754 13.4525 6.36497 13.3833C6.52997 13.2492 6.7483 13.1742 7.07747 13.1058C7.67663 12.9825 7.8858 12.8983 8.0133 12.7975C8.12163 12.7108 8.24413 12.5358 8.4608 12.2792C8.45976 12.2678 8.45893 12.2564 8.4583 12.245C8.07054 12.2341 7.69081 12.1319 7.34997 11.9467C7.22497 12.0783 6.58663 12.7533 5.8083 13.69C5.4808 14.0817 5.11913 14.3067 4.73747 14.3225C4.3558 14.3392 4.0108 14.1467 3.71747 13.8625C3.13163 13.2933 2.66413 12.3142 2.25663 11.2075C1.84997 10.1008 1.51913 8.86833 1.28413 7.81833C1.0483 6.76833 0.909133 5.92167 0.889133 5.51333C0.801633 3.77833 1.20747 2.60917 1.9033 1.87167C2.59997 1.13417 3.55497 0.855 4.4858 0.801667C6.15663 0.705833 7.7433 1.28833 8.06413 1.41333C8.68247 0.993333 9.47913 0.731667 10.4741 0.748333C10.9465 0.754959 11.4165 0.815915 11.875 0.93L11.8916 0.9225C12.0934 0.851572 12.299 0.792034 12.5075 0.744167C13.0735 0.612129 13.6521 0.541995 14.2333 0.535L14.2341 0.533333ZM14.3608 1.09167H14.2391C13.7617 1.09833 13.2861 1.15192 12.8191 1.25167C13.8575 1.71167 14.6416 2.42 15.1941 3.12667C15.5779 3.61595 15.8951 4.15398 16.1375 4.72667C16.2291 4.94667 16.2908 5.1325 16.3258 5.27667C16.3433 5.34917 16.355 5.41 16.3591 5.47333C16.3608 5.505 16.3625 5.5375 16.3491 5.59333C16.3491 5.59583 16.345 5.60167 16.3441 5.60417C16.3691 6.33417 16.1883 6.82917 16.1666 7.52583C16.15 8.03083 16.2791 8.62417 16.3108 9.27167C16.3408 9.88 16.2675 10.5483 15.8725 11.2042C15.9058 11.2442 15.9358 11.2842 15.9675 11.3242C17.0125 9.67833 17.7658 7.8575 18.1675 6.305C18.3825 5.46917 18.4966 4.71167 18.5066 4.11167C18.515 3.51167 18.4033 3.07667 18.2608 2.895C17.1425 1.465 15.6291 1.10167 14.3608 1.09167ZM10.3691 1.305C9.38413 1.3075 8.67747 1.605 8.14163 2.05083C7.58913 2.51167 7.2183 3.1425 6.97497 3.78833C6.6858 4.555 6.58663 5.29667 6.54747 5.8L6.5583 5.79333C6.8558 5.62667 7.24663 5.46 7.66497 5.36333C8.0833 5.2675 8.53413 5.2375 8.94246 5.39583C9.3508 5.55417 9.6883 5.92667 9.8108 6.49167C10.3975 9.20583 9.6283 10.215 9.34496 10.9767C9.23748 11.2527 9.14539 11.5346 9.06913 11.8208C9.10497 11.8125 9.1408 11.8025 9.17663 11.7992C9.37663 11.7825 9.5333 11.8492 9.62663 11.8892C9.91163 12.0075 10.1075 12.2558 10.2133 12.5392C10.2408 12.6133 10.2608 12.6933 10.2725 12.7758C10.2848 12.8097 10.2904 12.8456 10.2891 12.8817C10.2575 13.9198 10.2611 14.9588 10.3 15.9967C10.3191 16.445 10.3475 16.84 10.3833 17.1517C10.4191 17.4625 10.47 17.6992 10.5025 17.7792C10.6091 18.0458 10.765 18.395 11.0466 18.6325C11.3283 18.8692 11.7325 19.0275 12.4708 18.8692C13.1108 18.7317 13.5058 18.5408 13.77 18.2667C14.0333 17.9925 14.1908 17.6108 14.2916 17.0267C14.4425 16.1517 14.7458 13.6142 14.7825 13.1367C14.7658 12.7767 14.8191 12.5 14.9341 12.2892C15.0525 12.0725 15.2358 11.94 15.3941 11.8683C15.4733 11.8325 15.5475 11.8083 15.6083 11.7908C15.5439 11.6983 15.4764 11.608 15.4058 11.52C15.1775 11.2431 14.9906 10.9347 14.8508 10.6042C14.7839 10.4677 14.7124 10.3334 14.6366 10.2017C14.5258 10.0017 14.3858 9.75167 14.2391 9.47083C13.9458 8.90833 13.6266 8.22667 13.4608 7.5625C13.2958 6.89917 13.2716 6.2125 13.695 5.72833C14.07 5.29833 14.7283 5.12 15.7166 5.22C15.6875 5.1325 15.67 5.06 15.6208 4.94333C15.3974 4.41741 15.1057 3.92316 14.7533 3.47333C13.9158 2.4025 12.56 1.34083 10.465 1.30667H10.3691V1.305ZM4.83413 1.34833C4.7283 1.34833 4.62247 1.35167 4.51747 1.3575C3.6758 1.40583 2.87997 1.65 2.3108 2.25333C1.7408 2.85667 1.3658 3.84583 1.44747 5.48333C1.4633 5.79333 1.5983 6.66167 1.82997 7.69333C2.0608 8.725 2.3883 9.93917 2.78163 11.0117C3.1758 12.0842 3.6533 13.0175 4.10663 13.4592C4.33497 13.68 4.5333 13.7692 4.7133 13.7617C4.89413 13.7533 5.11163 13.6492 5.37747 13.33C5.86214 12.7454 6.36516 12.1762 6.8858 11.6233C6.51639 11.3026 6.23367 10.894 6.06371 10.4353C5.89376 9.9765 5.84203 9.48234 5.9133 8.99833C5.99913 8.3825 6.0108 7.80667 6.0008 7.35167C5.9908 6.90833 5.95913 6.61333 5.95913 6.42917C5.95898 6.42389 5.95898 6.41861 5.95913 6.41333V6.40917L5.9583 6.40417C5.9578 5.44483 6.12475 4.49193 6.45163 3.59C6.68497 2.97 7.03247 2.34 7.5533 1.83C7.04163 1.66167 6.1333 1.405 5.14997 1.35667C5.0445 1.35125 4.93974 1.34847 4.83413 1.34833ZM15.1658 5.75C14.6 5.7575 14.2825 5.90333 14.1158 6.09417C13.88 6.365 13.8575 6.84 14.0041 7.425C14.15 8.01083 14.4516 8.66583 14.735 9.21C14.8766 9.4825 15.0141 9.7275 15.125 9.92667C15.2366 10.1267 15.3183 10.2683 15.3683 10.3892C15.4141 10.5008 15.465 10.5992 15.5166 10.6908C15.7358 10.2283 15.775 9.77417 15.7525 9.30083C15.7233 8.715 15.5875 8.11583 15.6075 7.50917C15.63 6.8 15.77 6.33833 15.7825 5.79C15.578 5.76351 15.372 5.75015 15.1658 5.75ZM8.30413 5.84583C8.13127 5.84745 7.95912 5.86813 7.7908 5.9075C7.45533 5.98901 7.13221 6.11483 6.82997 6.28167C6.72773 6.33651 6.63042 6.40008 6.53913 6.47167L6.5208 6.48833C6.5258 6.61 6.54997 6.905 6.55997 7.33917C6.56997 7.81417 6.5583 8.42 6.46663 9.07583C6.26747 10.5008 7.30163 11.6808 8.51663 11.6825C8.58747 11.39 8.70413 11.0933 8.8208 10.7808C9.15913 9.86917 9.82496 9.20417 9.26413 6.60917C9.17247 6.18417 8.9908 6.0125 8.7408 5.91583C8.60068 5.86627 8.45272 5.84256 8.30413 5.84583ZM14.9016 6.01583H14.9433C14.9983 6.0175 15.0491 6.02333 15.0933 6.03417C15.1383 6.04417 15.1766 6.05917 15.2083 6.08C15.2245 6.09006 15.2385 6.10342 15.2493 6.11921C15.26 6.135 15.2674 6.15287 15.2708 6.17167L15.27 6.17833C15.2716 6.21789 15.2614 6.25705 15.2408 6.29083C15.2162 6.33657 15.1854 6.37865 15.1491 6.41583C15.0646 6.50892 14.9514 6.57111 14.8275 6.5925C14.7069 6.60707 14.5852 6.5765 14.4858 6.50667C14.4451 6.4793 14.4086 6.44618 14.3775 6.40833C14.3505 6.3786 14.3323 6.34196 14.325 6.3025C14.3232 6.28327 14.3254 6.26389 14.3314 6.24555C14.3375 6.22721 14.3472 6.21029 14.36 6.19583C14.3873 6.16476 14.4204 6.13929 14.4575 6.12083C14.5375 6.07583 14.6458 6.0425 14.7683 6.02417C14.8141 6.0175 14.8591 6.01417 14.9016 6.01333V6.01583ZM8.38497 6.15583C8.42913 6.15583 8.4758 6.16 8.5233 6.16667C8.6508 6.18417 8.76413 6.21833 8.8508 6.26833C8.89307 6.2904 8.9307 6.32039 8.96163 6.35667C8.97848 6.37591 8.99117 6.39843 8.99891 6.42281C9.00666 6.44718 9.00928 6.47289 9.00663 6.49833C8.99862 6.54625 8.97691 6.59082 8.94413 6.62667C8.91004 6.66852 8.86987 6.70504 8.82497 6.735C8.71659 6.81178 8.58346 6.84536 8.45163 6.82917C8.31691 6.80702 8.1936 6.74008 8.10163 6.63917C8.06251 6.59853 8.02939 6.55251 8.0033 6.5025C7.97583 6.4585 7.96381 6.4066 7.96913 6.355C7.98163 6.265 8.0558 6.21833 8.1283 6.1925C8.21088 6.16611 8.29754 6.15482 8.38413 6.15917L8.38497 6.15583ZM15.935 12.275L15.9325 12.2758C15.81 12.32 15.7091 12.3383 15.6241 12.3758C15.5382 12.4089 15.4673 12.4724 15.425 12.5542C15.3725 12.65 15.3275 12.82 15.3408 13.1092C15.3785 13.1351 15.4201 13.1548 15.4641 13.1675C15.6066 13.2108 15.8458 13.2392 16.1125 13.235C16.6441 13.2292 17.2983 13.105 17.6458 12.9433C17.9309 12.8109 18.1955 12.6383 18.4316 12.4308C17.2708 12.6708 16.6141 12.6067 16.2116 12.4408C16.1117 12.3992 16.0184 12.3439 15.935 12.275ZM9.24247 12.3533H9.22497C9.1808 12.3575 9.11663 12.3725 8.99247 12.51C8.70247 12.835 8.6008 13.0392 8.36163 13.23C8.12247 13.42 7.81163 13.5217 7.1908 13.6492C6.99413 13.6892 6.88163 13.7333 6.80663 13.7692C6.8308 13.7892 6.8283 13.7942 6.86497 13.8133C6.9558 13.8633 7.07247 13.9075 7.16663 13.9317C7.4333 13.9983 7.87163 14.0758 8.32913 13.9983C8.78663 13.92 9.26247 13.7008 9.6683 13.1317C9.7383 13.0333 9.7458 12.8883 9.6883 12.7325C9.62997 12.5767 9.50247 12.4425 9.41247 12.405C9.35891 12.3792 9.30148 12.3623 9.24247 12.355V12.3533Z" fill="#FF00FF"/>
</svg>
