<svg width="16" height="16" viewBox="0 0 16 16" fill="none" xmlns="http://www.w3.org/2000/svg">
<path fill-rule="evenodd" clip-rule="evenodd" d="M8.3999 1.6H7.5999V8H8.3999V1.6ZM7.9999 13.6C11.0927 13.6 13.5999 11.0928 13.5999 8C13.5999 5.46318 11.9131 3.32034 9.5999 2.6319V3.47313C11.4642 4.13207 12.7999 5.91005 12.7999 8C12.7999 10.651 10.6509 12.8 7.9999 12.8C5.34894 12.8 3.1999 10.651 3.1999 8C3.1999 5.91005 4.53559 4.13207 6.3999 3.47313V2.6319C4.08671 3.32034 2.3999 5.46318 2.3999 8C2.3999 11.0928 4.90711 13.6 7.9999 13.6Z" fill="#FF00FF"/>
</svg>
