<svg width="16" height="16" viewBox="0 0 16 16" fill="none" xmlns="http://www.w3.org/2000/svg">
<path fill-rule="evenodd" clip-rule="evenodd" d="M8.3999 1.60001H7.5999V8.00001H8.3999V1.60001ZM7.9999 13.6C11.0927 13.6 13.5999 11.0928 13.5999 8.00001C13.5999 5.84569 12.3834 3.97551 10.5999 3.03888V3.96447C11.9236 4.81907 12.7999 6.3072 12.7999 8.00001C12.7999 10.651 10.6509 12.8 7.9999 12.8C5.34894 12.8 3.1999 10.651 3.1999 8.00001C3.1999 6.3072 4.07619 4.81907 5.3999 3.96447V3.03888C3.61638 3.97551 2.3999 5.84569 2.3999 8.00001C2.3999 11.0928 4.90711 13.6 7.9999 13.6Z" fill="#FF00FF"/>
</svg>
