<svg width="20" height="20" viewBox="0 0 20 20" fill="none" xmlns="http://www.w3.org/2000/svg">
<path fill-rule="evenodd" clip-rule="evenodd" d="M10 20C4.47715 20 0 15.5228 0 10C0 4.47715 4.47715 0 10 0C15.5228 0 20 4.47715 20 10C20 15.5228 15.5228 20 10 20ZM10 19C14.9706 19 19 14.9706 19 10C19 5.02944 14.9706 1 10 1C5.02944 1 1 5.02944 1 10C1 14.9706 5.02944 19 10 19ZM5.85938 14.2344V8.80834C5.85938 6.40305 7.80483 4.45312 10.2045 4.45312H10.2441C12.6289 4.45312 14.5368 6.37799 14.5306 8.75834L14.5312 8.75835V8.75837L14.5297 8.83503L14.5291 8.83502C14.4422 11.1725 12.5131 13.0859 10.2243 13.0859C9.47096 13.0859 8.86026 12.4738 8.86026 11.7188C8.86026 10.9637 9.47096 10.3516 10.2243 10.3516C11.0272 10.3516 11.7646 9.62217 11.8025 8.74233C11.7996 7.87582 11.1138 7.1875 10.2441 7.1875H10.2045C9.3115 7.1875 8.58745 7.91321 8.58745 8.80834V14.6484C8.58745 15.4035 7.97675 16.0156 7.22341 16.0156C6.89386 16.0156 6.59161 15.8985 6.35583 15.7035C6.61687 15.577 6.79688 15.3095 6.79688 15C6.79688 14.5685 6.4471 14.2188 6.01562 14.2188C5.96211 14.2188 5.90986 14.2241 5.85938 14.2344ZM10.2344 12.5781C10.709 12.5781 11.0938 12.1934 11.0938 11.7188C11.0938 11.2441 10.709 10.8594 10.2344 10.8594C9.75976 10.8594 9.375 11.2441 9.375 11.7188C9.375 12.1934 9.75976 12.5781 10.2344 12.5781Z" fill="#FF00FF"/>
</svg>
