<svg width="16" height="16" viewBox="0 0 16 16" fill="none" xmlns="http://www.w3.org/2000/svg">
<g clip-path="url(#clip0_1447_3081)">
<path fill-rule="evenodd" clip-rule="evenodd" d="M8.28345 0.00196046C8.60752 0.0188021 8.89625 0.212004 9.03543 0.505143L14.5384 12.1891C14.6524 12.4306 14.6543 12.7101 14.5436 12.9531C14.4314 13.1973 14.2188 13.3809 13.9609 13.4563L5.49315 15.961C5.09477 16.0795 4.66591 15.9218 4.43919 15.5734L1.5213 11.0548C1.32991 10.7607 1.32602 10.3824 1.5113 10.0844L7.47948 0.418746C7.64886 0.140845 7.95873 -0.0197964 8.28345 0.00196046ZM5.73675 14.469C5.69115 14.6906 5.90154 14.8806 6.12073 14.8154L13.3053 12.6907C13.4019 12.6631 13.4816 12.5946 13.5233 12.5031C13.565 12.4117 13.5646 12.3066 13.5221 12.2155L8.76984 2.12388C8.66944 1.91069 8.35185 1.94749 8.30385 2.17748L5.73675 14.469Z" fill="black"/>
</g>
<defs>
<clipPath id="clip0_1447_3081">
<rect width="16" height="16" fill="white"/>
</clipPath>
</defs>
</svg>
