<svg width="20" height="20" viewBox="0 0 20 20" fill="none" xmlns="http://www.w3.org/2000/svg">
<path fill-rule="evenodd" clip-rule="evenodd" d="M10.3543 0.00245057C10.7594 0.0235026 11.1203 0.265005 11.2943 0.631428L18.173 15.2364C18.3155 15.5383 18.3179 15.8876 18.1795 16.1914C18.0393 16.4966 17.7735 16.7261 17.4511 16.8204L6.86644 19.9512C6.36846 20.0993 5.83238 19.9022 5.54899 19.4668L1.90162 13.8185C1.66239 13.4508 1.65752 12.978 1.88912 12.6055L9.34935 0.523432C9.56107 0.176056 9.94842 -0.0247455 10.3543 0.00245057ZM7.17093 18.0863C7.11393 18.3633 7.37692 18.6008 7.65091 18.5193L16.6316 15.8634C16.7524 15.8289 16.852 15.7432 16.9042 15.6289C16.9563 15.5146 16.9557 15.3832 16.9026 15.2694L10.9623 2.65486C10.8368 2.38837 10.4398 2.43436 10.3798 2.72185L7.17093 18.0863Z" fill="black"/>
</svg>
