<svg width="20" height="20" viewBox="0 0 20 20" fill="none" xmlns="http://www.w3.org/2000/svg">
<path fill-rule="evenodd" clip-rule="evenodd" d="M4.80728 0L15.1927 0C16.8643 0 17.4705 0.174048 18.0816 0.500874C18.6927 0.8277 19.1723 1.3073 19.4991 1.91841C19.826 2.52953 20 3.13569 20 4.80728V15.1927C20 16.8643 19.826 17.4705 19.4991 18.0816C19.1723 18.6927 18.6927 19.1723 18.0816 19.4991C17.4705 19.826 16.8643 20 15.1927 20H4.80728C3.13569 20 2.52953 19.826 1.91841 19.4991C1.3073 19.1723 0.8277 18.6927 0.500874 18.0816C0.174048 17.4705 0 16.8643 0 15.1927L0 4.80728C0 3.13569 0.174048 2.52953 0.500874 1.91841C0.8277 1.3073 1.3073 0.8277 1.91841 0.500874C2.52953 0.174048 3.13569 0 4.80728 0Z" fill="black"/>
<path fill-rule="evenodd" clip-rule="evenodd" d="M3.33325 5H7.71302C9.86132 5 11.3166 6.39986 11.3166 8.54816C11.3166 10.6757 9.78509 12.0686 7.56056 12.0686H5.87656V15H3.33325V5ZM5.87656 6.95426V10.149H7.02695C8.10803 10.149 8.74559 9.59459 8.74559 8.55509C8.74559 7.50173 8.11496 6.95426 7.04081 6.95426H5.87656ZM13.9496 15H9.14709V5H13.811C15.8068 5 16.9849 5.94248 16.9849 7.4948C16.9849 8.56895 16.181 9.47678 15.1208 9.62231V9.75398C16.4305 9.82329 17.4423 10.842 17.4423 12.1171C17.4423 13.8704 16.091 15 13.9496 15ZM11.6904 6.79487V9.07484H13.0348C13.9634 9.07484 14.504 8.64518 14.504 7.93832C14.504 7.22453 13.9981 6.79487 13.1318 6.79487H11.6904ZM11.6904 13.2051H13.2289C14.2822 13.2051 14.8574 12.7408 14.8574 11.8954C14.8574 11.0776 14.2684 10.6202 13.215 10.6202H11.6904V13.2051Z" fill="white"/>
</svg>
