<svg width="16" height="16" viewBox="0 0 16 16" fill="none" xmlns="http://www.w3.org/2000/svg">
<g clip-path="url(#clip0_1447_1795)">
<path d="M4.70132 8.1192V5.56341H5.63271C6.49203 5.56341 6.99654 6.00139 6.99654 6.84408C6.99654 7.67568 6.48649 8.1192 5.62162 8.1192H4.70132Z" fill="#FF00FF"/>
<path d="M9.35239 7.25988V5.4359H10.5055C11.1985 5.4359 11.6033 5.77963 11.6033 6.35066C11.6033 6.91615 11.1708 7.25988 10.4279 7.25988H9.35239Z" fill="#FF00FF"/>
<path d="M10.5832 10.5641H9.35239V8.49619H10.5721C11.4148 8.49619 11.886 8.86209 11.886 9.51628C11.886 10.1927 11.4258 10.5641 10.5832 10.5641Z" fill="#FF00FF"/>
<path fill-rule="evenodd" clip-rule="evenodd" d="M12.1542 0H3.84583C2.50855 0 2.02362 0.139238 1.53473 0.400699C1.04584 0.66216 0.66216 1.04584 0.400699 1.53473C0.139238 2.02362 0 2.50855 0 3.84583V12.1542C0 13.4915 0.139238 13.9764 0.400699 14.4653C0.66216 14.9542 1.04584 15.3378 1.53473 15.5993C2.02362 15.8608 2.50855 16 3.84583 16H12.1542C13.4915 16 13.9764 15.8608 14.4653 15.5993C14.9542 15.3378 15.3378 14.9542 15.5993 14.4653C15.8608 13.9764 16 13.4915 16 12.1542V3.84583C16 2.50855 15.8608 2.02362 15.5993 1.53473C15.3378 1.04584 14.9542 0.66216 14.4653 0.400699C13.9764 0.139238 13.4915 0 12.1542 0ZM6.17048 4H2.66667V12H4.70132V9.65489H6.04851C6.51341 9.65489 6.94047 9.57884 7.31774 9.43614V12H11.1597C12.8728 12 13.9539 11.0963 13.9539 9.69369C13.9539 8.6736 13.1445 7.85863 12.0967 7.80319V7.69785C12.9449 7.58143 13.588 6.85516 13.588 5.99584C13.588 4.75398 12.6455 4 11.0489 4H7.31774V4.19139C6.974 4.0663 6.58865 4 6.17048 4ZM7.31774 4.19139V9.43614C8.38466 9.03258 9.05336 8.09592 9.05336 6.83853C9.05336 5.53806 8.38675 4.58042 7.31774 4.19139Z" fill="#FF00FF"/>
</g>
<defs>
<clipPath id="clip0_1447_1795">
<rect width="16" height="16" fill="white"/>
</clipPath>
</defs>
</svg>
