<svg width="20" height="20" viewBox="0 0 20 20" fill="none" xmlns="http://www.w3.org/2000/svg">
<path fill-rule="evenodd" clip-rule="evenodd" d="M15.1927 0H4.80728C3.13569 0 2.52953 0.174048 1.91841 0.500874C1.3073 0.8277 0.8277 1.3073 0.500874 1.91841C0.174048 2.52953 0 3.13569 0 4.80728V15.1927C0 16.8643 0.174048 17.4705 0.500874 18.0816C0.8277 18.6927 1.3073 19.1723 1.91841 19.4991C2.52953 19.826 3.13569 20 4.80728 20H15.1927C16.8643 20 17.4705 19.826 18.0816 19.4991C18.6927 19.1723 19.1723 18.6927 19.4991 18.0816C19.826 17.4705 20 16.8643 20 15.1927V4.80728C20 3.13569 19.826 2.52953 19.4991 1.91841C19.1723 1.3073 18.6927 0.8277 18.0816 0.500874C17.4705 0.174048 16.8643 0 15.1927 0ZM7.7131 5H3.33333V15H5.87665V12.0686H7.56064C8.14176 12.0686 8.67558 11.9736 9.14717 11.7952V15H13.9497C16.091 15 17.4424 13.8704 17.4424 12.1171C17.4424 10.842 16.4306 9.82329 15.1208 9.75398V9.62231C16.1811 9.47678 16.985 8.56895 16.985 7.4948C16.985 5.94248 15.8069 5 13.8111 5H9.14717V5.23924C8.71749 5.08287 8.23581 5 7.7131 5ZM9.14717 5.23924V11.7952C10.4808 11.2907 11.3167 10.1199 11.3167 8.54816C11.3167 6.92257 10.4834 5.72552 9.14717 5.23924ZM5.87665 10.149V6.95426H7.04089C8.11504 6.95426 8.74567 7.50173 8.74567 8.55509C8.74567 9.59459 8.10811 10.149 7.02703 10.149H5.87665ZM11.6905 9.07484V6.79487H13.1319C13.9982 6.79487 14.5041 7.22453 14.5041 7.93832C14.5041 8.64518 13.9635 9.07484 13.0349 9.07484H11.6905ZM13.2289 13.2051H11.6905V10.6202H13.2151C14.2684 10.6202 14.8575 11.0776 14.8575 11.8954C14.8575 12.7408 14.2823 13.2051 13.2289 13.2051Z" fill="#FF00FF"/>
</svg>
