<svg width="16" height="16" viewBox="0 0 16 16" fill="none" xmlns="http://www.w3.org/2000/svg">
<g clip-path="url(#clip0_1447_3009)">
<path fill-rule="evenodd" clip-rule="evenodd" d="M3.84583 0L12.1542 0C13.4915 0 13.9764 0.139238 14.4653 0.400699C14.9542 0.66216 15.3378 1.04584 15.5993 1.53473C15.8608 2.02362 16 2.50855 16 3.84583V12.1542C16 13.4915 15.8608 13.9764 15.5993 14.4653C15.3378 14.9542 14.9542 15.3378 14.4653 15.5993C13.9764 15.8608 13.4915 16 12.1542 16H3.84583C2.50855 16 2.02362 15.8608 1.53473 15.5993C1.04584 15.3378 0.66216 14.9542 0.400699 14.4653C0.139238 13.9764 0 13.4915 0 12.1542L0 3.84583C0 2.50855 0.139238 2.02362 0.400699 1.53473C0.66216 1.04584 1.04584 0.66216 1.53473 0.400699C2.02362 0.139238 2.50855 0 3.84583 0Z" fill="black"/>
<path fill-rule="evenodd" clip-rule="evenodd" d="M2.6665 4H6.17032C7.88896 4 9.0532 5.11989 9.0532 6.83853C9.0532 8.54054 7.82797 9.65489 6.04835 9.65489H4.70115V12H2.6665V4ZM4.70115 5.56341V8.1192H5.62146C6.48632 8.1192 6.99637 7.67568 6.99637 6.84408C6.99637 6.00139 6.49187 5.56341 5.63255 5.56341H4.70115ZM11.1596 12H7.31757V4H11.0487C12.6454 4 13.5878 4.75398 13.5878 5.99584C13.5878 6.85516 12.9447 7.58143 12.0965 7.69785V7.80319C13.1443 7.85863 13.9537 8.6736 13.9537 9.69369C13.9537 11.0963 12.8727 12 11.1596 12ZM9.35222 5.4359V7.25988H10.4278C11.1707 7.25988 11.6031 6.91615 11.6031 6.35066C11.6031 5.77963 11.1984 5.4359 10.5054 5.4359H9.35222ZM9.35222 10.5641H10.583C11.4257 10.5641 11.8858 10.1927 11.8858 9.51629C11.8858 8.86209 11.4146 8.49619 10.5719 8.49619H9.35222V10.5641Z" fill="white"/>
</g>
<defs>
<clipPath id="clip0_1447_3009">
<rect width="16" height="16" fill="white"/>
</clipPath>
</defs>
</svg>
