<svg width="16" height="16" viewBox="0 0 16 16" fill="none" xmlns="http://www.w3.org/2000/svg">
<g clip-path="url(#clip0_1447_1774)">
<path d="M7.90627 0.00013087C7.25373 0.00316295 6.63057 0.0588152 6.08225 0.15584C4.46697 0.441206 4.1737 1.0385 4.1737 2.14002V3.59479H7.9908V4.07971H2.74118C1.63182 4.07971 0.660441 4.74649 0.356605 6.01495C0.00613394 7.46889 -0.00941136 8.37618 0.356605 9.89433C0.627938 11.0244 1.27592 11.8296 2.38527 11.8296H3.69768V10.0856C3.69768 8.82574 4.78777 7.7144 6.08225 7.7144H9.8949C10.9562 7.7144 11.8034 6.84056 11.8034 5.77471V2.14002C11.8034 1.10556 10.9308 0.328486 9.8949 0.15584C9.23918 0.0466869 8.55881 -0.00290121 7.90627 0.00013087ZM5.84201 1.17017C6.23629 1.17017 6.55828 1.49741 6.55828 1.89978C6.55828 2.30072 6.23629 2.62494 5.84201 2.62494C5.44632 2.62494 5.12575 2.30072 5.12575 1.89978C5.12575 1.49741 5.44632 1.17017 5.84201 1.17017Z" fill="#FF00FF"/>
<path d="M12.2788 4.07971V5.77472C12.2788 7.08883 11.1647 8.19488 9.89424 8.19488H6.0816C5.03725 8.19488 4.17305 9.0887 4.17305 10.1346V13.7693C4.17305 14.8037 5.07258 15.4122 6.0816 15.709C7.28987 16.0642 8.44855 16.1284 9.89424 15.709C10.8552 15.4307 11.8028 14.8708 11.8028 13.7693V12.3145H7.99014V11.8296H13.7113C14.8207 11.8296 15.2341 11.0558 15.6199 9.89433C16.0184 8.69865 16.0015 7.5488 15.6199 6.01495C15.3457 4.91058 14.8221 4.07971 13.7113 4.07971H12.2788ZM10.1345 13.2843C10.5302 13.2843 10.8507 13.6086 10.8507 14.0095C10.8507 14.4119 10.5302 14.7391 10.1345 14.7391C9.7402 14.7391 9.41822 14.4119 9.41822 14.0095C9.41822 13.6086 9.7402 13.2843 10.1345 13.2843Z" fill="#FF00FF"/>
</g>
<defs>
<clipPath id="clip0_1447_1774">
<rect width="16" height="16" fill="white"/>
</clipPath>
</defs>
</svg>
