<svg width="20" height="20" viewBox="0 0 20 20" fill="none" xmlns="http://www.w3.org/2000/svg">
<path d="M9.88309 0.000163588C9.06741 0.00395369 8.28846 0.0735191 7.60306 0.1948C5.58396 0.551508 5.21737 1.29813 5.21737 2.67502V4.49348H9.98874V5.09964H5.21737H3.42672C2.04002 5.09964 0.825796 5.93312 0.446 7.51869C0.00791159 9.33612 -0.0115201 10.4702 0.446 12.3679C0.785167 13.7805 1.59514 14.787 2.98183 14.787H4.62234V12.607C4.62234 11.0322 5.98496 9.64301 7.60306 9.64301H12.3689C13.6955 9.64301 14.7546 8.5507 14.7546 7.21839V2.67502C14.7546 1.38195 13.6637 0.410608 12.3689 0.1948C11.5492 0.0583587 10.6988 -0.00362651 9.88309 0.000163588ZM7.30276 1.46272C7.79561 1.46272 8.19809 1.87177 8.19809 2.37473C8.19809 2.8759 7.79561 3.28118 7.30276 3.28118C6.80815 3.28118 6.40743 2.8759 6.40743 2.37473C6.40743 1.87177 6.80815 1.46272 7.30276 1.46272Z" fill="#FF00FF"/>
<path d="M15.3488 5.09964V7.2184C15.3488 8.86104 13.9561 10.2436 12.368 10.2436H7.60224C6.2968 10.2436 5.21655 11.3609 5.21655 12.6682V17.2116C5.21655 18.5047 6.34097 19.2652 7.60224 19.6362C9.11259 20.0803 10.5609 20.1606 12.368 19.6362C13.5693 19.2884 14.7537 18.5885 14.7537 17.2116V15.3931H9.98792V14.787H14.7537H17.1394C18.5261 14.787 19.0429 13.8197 19.5251 12.3679C20.0233 10.8733 20.0021 9.436 19.5251 7.51869C19.1824 6.13823 18.5279 5.09964 17.1394 5.09964H15.3488ZM12.6683 16.6054C13.163 16.6054 13.5637 17.0107 13.5637 17.5119C13.5637 18.0148 13.163 18.4239 12.6683 18.4239C12.1755 18.4239 11.773 18.0148 11.773 17.5119C11.773 17.0107 12.1755 16.6054 12.6683 16.6054Z" fill="#FF00FF"/>
</svg>
