<svg width="16" height="16" viewBox="0 0 16 16" fill="none" xmlns="http://www.w3.org/2000/svg">
<g clip-path="url(#clip0_2179_3685)">
<path d="M7.90627 0.00013087C7.25373 0.00316295 6.63057 0.0588152 6.08225 0.15584C4.46697 0.441206 4.1737 1.0385 4.1737 2.14002V3.59479H7.9908V4.07971H4.1737H2.74118C1.63182 4.07971 0.660441 4.7465 0.356605 6.01495C0.00613396 7.46889 -0.00941136 8.37618 0.356605 9.89433C0.627938 11.0244 1.27592 11.8296 2.38527 11.8296H3.69768V10.0856C3.69768 8.82574 4.78777 7.7144 6.08225 7.7144H9.8949C10.9562 7.7144 11.8034 6.84056 11.8034 5.77471V2.14002C11.8034 1.10556 10.9308 0.328486 9.8949 0.15584C9.23918 0.0466869 8.55881 -0.00290121 7.90627 0.00013087ZM5.84201 1.17017C6.23629 1.17017 6.55828 1.49741 6.55828 1.89978C6.55828 2.30072 6.23629 2.62494 5.84201 2.62494C5.44632 2.62494 5.12575 2.30072 5.12575 1.89978C5.12575 1.49741 5.44632 1.17017 5.84201 1.17017Z" fill="url(#paint0_linear_2179_3685)"/>
<path d="M12.2789 4.07959V5.77459C12.2789 7.08871 11.1648 8.19476 9.89429 8.19476H6.08164C5.0373 8.19476 4.1731 9.08858 4.1731 10.1344V13.7691C4.1731 14.8036 5.07263 15.4121 6.08164 15.7088C7.28992 16.0641 8.4486 16.1283 9.89429 15.7088C10.8553 15.4306 11.8028 14.8707 11.8028 13.7691V12.3144H7.99019V11.8295H11.8028H13.7114C14.8207 11.8295 15.2341 11.0557 15.6199 9.89421C16.0185 8.69853 16.0015 7.54868 15.6199 6.01483C15.3458 4.91046 14.8222 4.07959 13.7114 4.07959H12.2789ZM10.1345 13.2842C10.5302 13.2842 10.8508 13.6084 10.8508 14.0094C10.8508 14.4117 10.5302 14.739 10.1345 14.739C9.74025 14.739 9.41827 14.4117 9.41827 14.0094C9.41827 13.6084 9.74025 13.2842 10.1345 13.2842Z" fill="url(#paint1_linear_2179_3685)"/>
</g>
<defs>
<linearGradient id="paint0_linear_2179_3685" x1="0.0878906" y1="1.08223e-08" x2="8.8897" y2="7.50036" gradientUnits="userSpaceOnUse">
<stop stop-color="#5A9FD4"/>
<stop offset="1" stop-color="#306998"/>
</linearGradient>
<linearGradient id="paint1_linear_2179_3685" x1="10.0428" y1="13.8871" x2="6.88505" y2="9.46212" gradientUnits="userSpaceOnUse">
<stop stop-color="#FFD43B"/>
<stop offset="1" stop-color="#FFE873"/>
</linearGradient>
<clipPath id="clip0_2179_3685">
<rect width="16" height="16" fill="white"/>
</clipPath>
</defs>
</svg>
