<svg width="16" height="16" viewBox="0 0 16 16" fill="none" xmlns="http://www.w3.org/2000/svg">
<g clip-path="url(#clip0_1447_1792)">
<path d="M9.48287 8.00004C9.48287 8.82083 8.81748 9.48622 7.99669 9.48622C7.1759 9.48622 6.51051 8.82083 6.51051 8.00004C6.51051 7.17925 7.1759 6.51386 7.99669 6.51386C8.81748 6.51386 9.48287 7.17925 9.48287 8.00004Z" fill="#FF00FF"/>
<path fill-rule="evenodd" clip-rule="evenodd" d="M15.9772 8.00004C15.9772 6.94313 14.6536 5.9415 12.6243 5.32036C13.0926 3.25207 12.8845 1.60654 11.9674 1.07971C11.7569 0.956633 11.5109 0.898071 11.2422 0.897603V0.894348C10.3479 0.894348 9.17718 1.53175 7.99344 2.63744C6.8097 1.53825 5.63897 0.907356 4.74466 0.907356V0.910608C4.47149 0.910608 4.22433 0.969145 4.0097 1.09272C3.09588 1.61955 2.891 3.26183 3.36254 5.32362C1.33978 5.94801 0.0227051 6.94638 0.0227051 8.00004C0.0227051 9.05695 1.34628 10.0586 3.37555 10.6797C2.90726 12.748 3.11539 14.3935 4.03246 14.9204C4.24384 15.0439 4.491 15.1025 4.76417 15.1025C5.65848 15.1025 6.82921 14.4651 8.01295 13.3594C9.19669 14.4586 10.3674 15.0895 11.2617 15.0895C11.5349 15.0895 11.7821 15.0309 11.9967 14.9074C12.9105 14.3805 13.1154 12.7382 12.6438 10.6765C14.6601 10.0553 15.9772 9.0537 15.9772 8.00004ZM8.51051 3.14475C9.56898 2.16097 10.5626 1.62128 11.239 1.61956V1.6228C11.3886 1.6228 11.5089 1.65207 11.6097 1.70736C12.052 1.96101 12.2438 2.92687 12.0942 4.16914C12.0585 4.47484 11.9999 4.79679 11.9284 5.12524C11.291 4.96914 10.5951 4.84882 9.86336 4.77077C9.42433 4.16914 8.96905 3.6228 8.51051 3.14475ZM4.74466 1.63256C5.41783 1.63256 6.4162 2.16914 7.47636 3.14801C7.02108 3.62606 6.56579 4.16914 6.13327 4.77077C5.39831 4.84882 4.70238 4.96914 4.06498 5.12849C3.99018 4.80329 3.9349 4.48784 3.89588 4.1854C3.74303 2.94313 3.93165 1.97727 4.37067 1.72036C4.46823 1.66183 4.59506 1.63581 4.74466 1.63581V1.63256ZM11.743 5.83093C11.6227 6.25045 11.4731 6.68297 11.304 7.11549C11.1707 6.85532 11.0308 6.59516 10.878 6.335C10.7284 6.07484 10.569 5.82118 10.4097 5.57402C10.8715 5.64232 11.317 5.72687 11.743 5.83093ZM9.46986 10.5366C9.73978 10.1496 9.99994 9.73337 10.2536 9.29435C10.4975 8.86833 10.7219 8.43256 10.9268 7.99679C10.7219 7.56102 10.4975 7.12849 10.2503 6.70248C9.99669 6.26671 9.73327 5.8537 9.46336 5.46671C8.98205 5.42768 8.491 5.40492 7.99994 5.40492C7.50563 5.40492 7.01458 5.42768 6.53002 5.46996C6.2601 5.85695 5.99994 6.27321 5.74628 6.71223C5.50238 7.13825 5.27474 7.57402 5.07311 8.0098C5.27799 8.44557 5.50238 8.87809 5.74953 9.3041C6.00319 9.73988 6.26661 10.1529 6.53653 10.5399C7.01783 10.5789 7.50888 10.6017 7.99994 10.6017C8.49425 10.6017 8.98531 10.5789 9.46986 10.5366ZM11.304 8.87158C11.4796 9.30736 11.6292 9.74313 11.7528 10.1659C11.3268 10.27 10.878 10.3578 10.4129 10.4261C10.5723 10.1756 10.7316 9.91874 10.8812 9.65532C11.0308 9.39516 11.1707 9.13175 11.304 8.87158ZM7.10238 11.3009C7.40157 11.6813 7.70401 12.0293 8.00644 12.3415C8.30563 12.0293 8.60807 11.6813 8.90075 11.3009C8.60482 11.3171 8.30238 11.3236 7.99669 11.3236C7.69425 11.3236 7.39506 11.3139 7.10238 11.3009ZM5.58693 10.4261C5.12514 10.3578 4.67962 10.2732 4.2536 10.1691C4.37392 9.74963 4.52352 9.31711 4.69262 8.88459C4.82596 9.14475 4.96579 9.40492 5.11864 9.66508C5.27149 9.92524 5.42758 10.1789 5.58693 10.4261ZM8.89425 4.69923C8.59506 4.31874 8.29262 3.97077 7.99018 3.65858C7.691 3.97077 7.38856 4.31874 7.09588 4.69923C7.39181 4.68297 7.69425 4.67646 7.99994 4.67646C8.30238 4.67646 8.60157 4.68622 8.89425 4.69923ZM5.58368 5.57402C5.42433 5.82443 5.26498 6.08134 5.11539 6.34476C4.96579 6.60492 4.82596 6.86508 4.69262 7.12524C4.51701 6.68947 4.36742 6.2537 4.24384 5.83093C4.66986 5.73012 5.11864 5.64232 5.58368 5.57402ZM0.744656 8.00004C0.744656 8.51061 1.48937 9.15451 2.64059 9.64557C2.92352 9.76589 3.22921 9.87646 3.55116 9.97727C3.73327 9.34313 3.97392 8.68297 4.27311 8.00654C3.97067 7.32687 3.72677 6.66345 3.5414 6.02606C3.22596 6.12687 2.92027 6.23419 2.64059 6.35451C1.48937 6.84232 0.744656 7.48947 0.744656 8.00004ZM4.39018 14.2927C3.94791 14.0391 3.75604 13.0732 3.90563 11.8309C3.9414 11.5252 3.99994 11.2033 4.07149 10.8748C4.70888 11.0309 5.40482 11.1513 6.13653 11.2293C6.57555 11.8309 7.03084 12.3773 7.48937 12.8553C6.42921 13.8407 5.43409 14.3805 4.75766 14.3805C4.61132 14.3773 4.48775 14.348 4.39018 14.2927ZM11.6292 14.2797C12.0682 14.0228 12.2569 13.0569 12.104 11.8147C12.0682 11.5122 12.0097 11.1968 11.9349 10.8683C11.2975 11.0277 10.6016 11.148 9.86661 11.2261C9.43409 11.8277 8.9788 12.3708 8.52352 12.8488C9.58368 13.8277 10.5821 14.3643 11.2552 14.3643C11.4048 14.3643 11.5316 14.3383 11.6292 14.2797ZM13.356 9.64557C13.0764 9.76589 12.7707 9.87321 12.4552 9.97402C12.2699 9.33663 12.026 8.67321 11.7235 7.99354C12.0227 7.31711 12.2634 6.65695 12.4455 6.0228C12.7674 6.12362 13.0731 6.23419 13.3593 6.35451C14.5105 6.84557 15.2552 7.48947 15.2552 8.00004C15.252 8.51061 14.5073 9.15776 13.356 9.64557Z" fill="#FF00FF"/>
</g>
<defs>
<clipPath id="clip0_1447_1792">
<rect width="16" height="16" fill="white"/>
</clipPath>
</defs>
</svg>
