<svg width="16" height="16" viewBox="0 0 16 16" fill="none" xmlns="http://www.w3.org/2000/svg">
<g clip-path="url(#clip0_1447_3003)">
<path fill-rule="evenodd" clip-rule="evenodd" d="M15.9774 8.00004C15.9774 6.94313 14.6538 5.9415 12.6246 5.32036C13.0929 3.25207 12.8847 1.60654 11.9677 1.07971C11.7571 0.956633 11.5111 0.898071 11.2425 0.897603V0.894348C10.3482 0.894348 9.17742 1.53175 7.99368 2.63744C6.80994 1.53825 5.63921 0.907356 4.7449 0.907356V0.910608C4.47173 0.910608 4.22458 0.969145 4.00994 1.09272C3.09612 1.61955 2.89124 3.26183 3.36279 5.32362C1.34002 5.94801 0.0229492 6.94638 0.0229492 8.00004C0.0229492 9.05695 1.34653 10.0586 3.37579 10.6797C2.9075 12.748 3.11563 14.3935 4.03271 14.9204C4.24409 15.0439 4.49124 15.1025 4.76441 15.1025C5.65872 15.1025 6.82945 14.4651 8.01319 13.3594C9.19693 14.4586 10.3677 15.0895 11.262 15.0895C11.5351 15.0895 11.7823 15.0309 11.9969 14.9074C12.9108 14.3805 13.1156 12.7382 12.6441 10.6765C14.6603 10.0553 15.9774 9.0537 15.9774 8.00004ZM8.51075 3.14475C9.56922 2.16097 10.5629 1.62128 11.2392 1.61956V1.6228C11.3888 1.6228 11.5091 1.65207 11.6099 1.70736C12.0522 1.96101 12.2441 2.92687 12.0945 4.16914C12.0587 4.47484 12.0002 4.79679 11.9286 5.12524C11.2912 4.96914 10.5953 4.84882 9.8636 4.77077C9.42457 4.16914 8.96929 3.6228 8.51075 3.14475ZM4.7449 1.63256C5.41807 1.63256 6.41644 2.16914 7.47661 3.14801C7.02132 3.62606 6.56604 4.16914 6.13352 4.77077C5.39856 4.84882 4.70262 4.96914 4.06523 5.12849C3.99043 4.80329 3.93514 4.48784 3.89612 4.1854C3.74327 2.94313 3.93189 1.97727 4.37092 1.72036C4.46848 1.66183 4.59531 1.63581 4.7449 1.63581V1.63256ZM11.7433 5.83093C11.6229 6.25045 11.4734 6.68297 11.3043 7.11549C11.1709 6.85532 11.0311 6.59516 10.8782 6.335C10.7286 6.07484 10.5693 5.82118 10.4099 5.57402C10.8717 5.64232 11.3173 5.72687 11.7433 5.83093ZM9.4701 10.5366C9.74002 10.1496 10.0002 9.73337 10.2538 9.29435C10.4977 8.86833 10.7221 8.43256 10.927 7.99679C10.7221 7.56102 10.4977 7.12849 10.2506 6.70248C9.99693 6.26671 9.73352 5.8537 9.4636 5.46671C8.9823 5.42768 8.49124 5.40492 8.00019 5.40492C7.50588 5.40492 7.01482 5.42768 6.53027 5.46996C6.26035 5.85695 6.00019 6.27321 5.74653 6.71223C5.50262 7.13825 5.27498 7.57402 5.07336 8.0098C5.27823 8.44557 5.50262 8.87809 5.74978 9.3041C6.00344 9.73988 6.26685 10.1529 6.53677 10.5399C7.01807 10.5789 7.50913 10.6017 8.00019 10.6017C8.49449 10.6017 8.98555 10.5789 9.4701 10.5366ZM11.3042 8.87158C11.4799 9.30736 11.6295 9.74313 11.753 10.1659C11.327 10.27 10.8782 10.3578 10.4132 10.4261C10.5725 10.1756 10.7319 9.91874 10.8815 9.65532C11.0311 9.39516 11.1709 9.13175 11.3042 8.87158ZM7.10262 11.3009C7.40181 11.6813 7.70425 12.0293 8.00669 12.3415C8.30588 12.0293 8.60831 11.6813 8.901 11.3009C8.60506 11.3171 8.30262 11.3236 7.99693 11.3236C7.69449 11.3236 7.39531 11.3139 7.10262 11.3009ZM5.58718 10.4261C5.12539 10.3578 4.67986 10.2732 4.25384 10.1691C4.37417 9.74963 4.52376 9.31711 4.69287 8.88459C4.8262 9.14475 4.96604 9.40492 5.11888 9.66508C5.27173 9.92524 5.42783 10.1789 5.58718 10.4261ZM8.89449 4.69923C8.59531 4.31874 8.29287 3.97077 7.99043 3.65858C7.69124 3.97077 7.3888 4.31874 7.09612 4.69923C7.39205 4.68297 7.69449 4.67646 8.00018 4.67646C8.30262 4.67646 8.60181 4.68622 8.89449 4.69923ZM5.58392 5.57402C5.42458 5.82443 5.26523 6.08134 5.11563 6.34476C4.96604 6.60492 4.8262 6.86508 4.69287 7.12524C4.51726 6.68947 4.36766 6.2537 4.24409 5.83093C4.6701 5.73012 5.11888 5.64232 5.58392 5.57402ZM0.7449 8.00004C0.7449 8.51061 1.48962 9.15451 2.64084 9.64557C2.92376 9.76589 3.22945 9.87646 3.5514 9.97727C3.73352 9.34313 3.97417 8.68297 4.27336 8.00654C3.97092 7.32687 3.72701 6.66345 3.54165 6.02606C3.2262 6.12687 2.92051 6.23419 2.64084 6.35451C1.48962 6.84232 0.7449 7.48947 0.7449 8.00004ZM4.39043 14.2927C3.94815 14.0391 3.75628 13.0732 3.90588 11.8309C3.94165 11.5252 4.00019 11.2033 4.07173 10.8748C4.70913 11.0309 5.40506 11.1513 6.13677 11.2293C6.57579 11.8309 7.03108 12.3773 7.48962 12.8553C6.42945 13.8407 5.43433 14.3805 4.75791 14.3805C4.61157 14.3773 4.48799 14.348 4.39043 14.2927ZM11.6295 14.2797C12.0685 14.0228 12.2571 13.0569 12.1043 11.8147C12.0685 11.5122 12.0099 11.1968 11.9351 10.8683C11.2977 11.0277 10.6018 11.148 9.86685 11.2261C9.43433 11.8277 8.97905 12.3708 8.52376 12.8488C9.58393 13.8277 10.5823 14.3643 11.2555 14.3643C11.4051 14.3643 11.5319 14.3383 11.6295 14.2797ZM13.3563 9.64557C13.0766 9.76589 12.7709 9.87321 12.4555 9.97402C12.2701 9.33663 12.0262 8.67321 11.7238 7.99354C12.0229 7.31711 12.2636 6.65695 12.4457 6.0228C12.7677 6.12362 13.0734 6.23419 13.3595 6.35451C14.5108 6.84557 15.2555 7.48947 15.2555 8.00004C15.2522 8.51061 14.5075 9.15776 13.3563 9.64557ZM9.48311 8.00004C9.48311 8.82083 8.81773 9.48622 7.99693 9.48622C7.17614 9.48622 6.51075 8.82083 6.51075 8.00004C6.51075 7.17925 7.17614 6.51386 7.99693 6.51386C8.81773 6.51386 9.48311 7.17925 9.48311 8.00004Z" fill="#61DAFB"/>
</g>
<defs>
<clipPath id="clip0_1447_3003">
<rect width="16" height="16" fill="white"/>
</clipPath>
</defs>
</svg>
