<svg width="16" height="16" viewBox="0 0 16 16" fill="none" xmlns="http://www.w3.org/2000/svg">
<g clip-path="url(#clip0_1447_1792)">
<path d="M9.48287 8.0001C9.48287 8.82089 8.81748 9.48628 7.99669 9.48628C7.1759 9.48628 6.51051 8.82089 6.51051 8.0001C6.51051 7.17931 7.1759 6.51392 7.99669 6.51392C8.81748 6.51392 9.48287 7.17931 9.48287 8.0001Z" fill="#FF00FF"/>
<path fill-rule="evenodd" clip-rule="evenodd" d="M15.9772 8.0001C15.9772 6.94319 14.6536 5.94156 12.6243 5.32043C13.0926 3.25213 12.8845 1.6066 11.9674 1.07978C11.7569 0.956694 11.5109 0.898132 11.2422 0.897664V0.894409C10.3479 0.894409 9.17718 1.53181 7.99344 2.6375C6.8097 1.53831 5.63897 0.907417 4.74466 0.907417V0.910669C4.47149 0.910669 4.22433 0.969206 4.0097 1.09278C3.09588 1.61961 2.891 3.26189 3.36254 5.32368C1.33978 5.94807 0.0227051 6.94644 0.0227051 8.0001C0.0227051 9.05701 1.34628 10.0586 3.37555 10.6798C2.90726 12.7481 3.11539 14.3936 4.03246 14.9204C4.24384 15.044 4.491 15.1025 4.76417 15.1025C5.65848 15.1025 6.82921 14.4651 8.01295 13.3594C9.19669 14.4586 10.3674 15.0895 11.2617 15.0895C11.5349 15.0895 11.7821 15.031 11.9967 14.9074C12.9105 14.3806 13.1154 12.7383 12.6438 10.6765C14.6601 10.0554 15.9772 9.05376 15.9772 8.0001ZM8.51051 3.14482C9.56898 2.16103 10.5626 1.62134 11.239 1.61962V1.62286C11.3886 1.62286 11.5089 1.65213 11.6097 1.70742C12.052 1.96108 12.2438 2.92693 12.0942 4.16921C12.0585 4.4749 11.9999 4.79685 11.9284 5.1253C11.291 4.96921 10.5951 4.84888 9.86336 4.77083C9.42433 4.16921 8.96905 3.62286 8.51051 3.14482ZM4.74466 1.63262C5.41783 1.63262 6.4162 2.16921 7.47636 3.14807C7.02108 3.62612 6.56579 4.16921 6.13327 4.77083C5.39831 4.84888 4.70238 4.96921 4.06498 5.12856C3.99018 4.80335 3.9349 4.4879 3.89588 4.18547C3.74303 2.94319 3.93165 1.97734 4.37067 1.72043C4.46823 1.66189 4.59506 1.63587 4.74466 1.63587V1.63262ZM11.743 5.83099C11.6227 6.25051 11.4731 6.68303 11.304 7.11555C11.1707 6.85538 11.0308 6.59522 10.878 6.33506C10.7284 6.0749 10.569 5.82124 10.4097 5.57408C10.8715 5.64238 11.317 5.72693 11.743 5.83099ZM9.46986 10.5367C9.73978 10.1497 9.99994 9.73343 10.2536 9.29441C10.4975 8.86839 10.7219 8.43262 10.9268 7.99685C10.7219 7.56108 10.4975 7.12856 10.2503 6.70254C9.99669 6.26677 9.73327 5.85376 9.46336 5.46677C8.98205 5.42774 8.491 5.40498 7.99994 5.40498C7.50563 5.40498 7.01458 5.42774 6.53002 5.47002C6.2601 5.85701 5.99994 6.27327 5.74628 6.7123C5.50238 7.13831 5.27474 7.57408 5.07311 8.00986C5.27799 8.44563 5.50238 8.87815 5.74953 9.30417C6.00319 9.73994 6.26661 10.1529 6.53653 10.5399C7.01783 10.579 7.50888 10.6017 7.99994 10.6017C8.49425 10.6017 8.98531 10.579 9.46986 10.5367ZM11.304 8.87164C11.4796 9.30742 11.6292 9.74319 11.7528 10.166C11.3268 10.27 10.878 10.3578 10.4129 10.4261C10.5723 10.1757 10.7316 9.9188 10.8812 9.65538C11.0308 9.39522 11.1707 9.13181 11.304 8.87164ZM7.10238 11.3009C7.40157 11.6814 7.70401 12.0294 8.00644 12.3416C8.30563 12.0294 8.60807 11.6814 8.90075 11.3009C8.60482 11.3172 8.30238 11.3237 7.99669 11.3237C7.69425 11.3237 7.39506 11.3139 7.10238 11.3009ZM5.58693 10.4261C5.12514 10.3578 4.67962 10.2733 4.2536 10.1692C4.37392 9.74969 4.52352 9.31717 4.69262 8.88465C4.82596 9.14481 4.96579 9.40498 5.11864 9.66514C5.27149 9.9253 5.42758 10.179 5.58693 10.4261ZM8.89425 4.69929C8.59506 4.3188 8.29262 3.97083 7.99018 3.65864C7.691 3.97083 7.38856 4.3188 7.09588 4.69929C7.39181 4.68303 7.69425 4.67652 7.99994 4.67652C8.30238 4.67652 8.60157 4.68628 8.89425 4.69929ZM5.58368 5.57408C5.42433 5.82449 5.26498 6.0814 5.11539 6.34482C4.96579 6.60498 4.82596 6.86514 4.69262 7.1253C4.51701 6.68953 4.36742 6.25376 4.24384 5.831C4.66986 5.73018 5.11864 5.64238 5.58368 5.57408ZM0.744656 8.0001C0.744656 8.51067 1.48937 9.15457 2.64059 9.64563C2.92352 9.76595 3.22921 9.87652 3.55116 9.97734C3.73327 9.34319 3.97392 8.68303 4.27311 8.0066C3.97067 7.32693 3.72677 6.66351 3.5414 6.02612C3.22596 6.12693 2.92027 6.23425 2.64059 6.35457C1.48937 6.84238 0.744656 7.48953 0.744656 8.0001ZM4.39018 14.2928C3.94791 14.0391 3.75604 13.0733 3.90563 11.831C3.9414 11.5253 3.99994 11.2034 4.07149 10.8749C4.70888 11.031 5.40482 11.1513 6.13653 11.2294C6.57555 11.831 7.03084 12.3773 7.48937 12.8554C6.42921 13.8408 5.43409 14.3806 4.75766 14.3806C4.61132 14.3773 4.48775 14.3481 4.39018 14.2928ZM11.6292 14.2798C12.0682 14.0229 12.2569 13.057 12.104 11.8147C12.0682 11.5123 12.0097 11.1968 11.9349 10.8684C11.2975 11.0277 10.6016 11.1481 9.86661 11.2261C9.43409 11.8277 8.9788 12.3708 8.52352 12.8489C9.58368 13.8277 10.5821 14.3643 11.2552 14.3643C11.4048 14.3643 11.5316 14.3383 11.6292 14.2798ZM13.356 9.64563C13.0764 9.76595 12.7707 9.87327 12.4552 9.97408C12.2699 9.33669 12.026 8.67327 11.7235 7.9936C12.0227 7.31717 12.2634 6.65701 12.4455 6.02286C12.7674 6.12368 13.0731 6.23425 13.3593 6.35457C14.5105 6.84563 15.2552 7.48953 15.2552 8.0001C15.252 8.51067 14.5073 9.15782 13.356 9.64563Z" fill="#FF00FF"/>
</g>
<defs>
<clipPath id="clip0_1447_1792">
<rect width="16" height="16" fill="white"/>
</clipPath>
</defs>
</svg>
