<svg width="16" height="16" viewBox="0 0 16 16" fill="none" xmlns="http://www.w3.org/2000/svg">
<g clip-path="url(#clip0_1447_3003)">
<path d="M9.48311 8.0001C9.48311 8.82089 8.81773 9.48628 7.99693 9.48628C7.17614 9.48628 6.51075 8.82089 6.51075 8.0001C6.51075 7.17931 7.17614 6.51392 7.99693 6.51392C8.81773 6.51392 9.48311 7.17931 9.48311 8.0001Z" fill="#61DAFB"/>
<path fill-rule="evenodd" clip-rule="evenodd" d="M15.9774 8.0001C15.9774 6.94319 14.6538 5.94156 12.6246 5.32043C13.0929 3.25213 12.8847 1.6066 11.9677 1.07978C11.7571 0.956694 11.5111 0.898133 11.2425 0.897664V0.894409C10.3482 0.894409 9.17742 1.53181 7.99368 2.6375C6.80994 1.53831 5.63921 0.907417 4.7449 0.907417V0.910669C4.47173 0.910669 4.22458 0.969206 4.00994 1.09278C3.09612 1.61961 2.89124 3.26189 3.36279 5.32368C1.34002 5.94807 0.0229492 6.94644 0.0229492 8.0001C0.0229492 9.05701 1.34653 10.0586 3.37579 10.6798C2.9075 12.7481 3.11563 14.3936 4.03271 14.9204C4.24409 15.044 4.49124 15.1025 4.76441 15.1025C5.65872 15.1025 6.82945 14.4651 8.01319 13.3594C9.19693 14.4586 10.3677 15.0895 11.262 15.0895C11.5351 15.0895 11.7823 15.031 11.9969 14.9074C12.9108 14.3806 13.1156 12.7383 12.6441 10.6765C14.6603 10.0554 15.9774 9.05376 15.9774 8.0001ZM8.51075 3.14482C9.56922 2.16103 10.5629 1.62134 11.2392 1.61962V1.62286C11.3888 1.62286 11.5091 1.65213 11.6099 1.70742C12.0522 1.96108 12.2441 2.92693 12.0945 4.16921C12.0587 4.4749 12.0002 4.79685 11.9286 5.1253C11.2912 4.96921 10.5953 4.84888 9.8636 4.77083C9.42458 4.16921 8.96929 3.62286 8.51075 3.14482ZM4.7449 1.63262C5.41807 1.63262 6.41644 2.16921 7.47661 3.14807C7.02132 3.62612 6.56604 4.16921 6.13352 4.77083C5.39856 4.84888 4.70262 4.96921 4.06523 5.12856C3.99043 4.80335 3.93514 4.4879 3.89612 4.18547C3.74327 2.94319 3.93189 1.97734 4.37092 1.72043C4.46848 1.66189 4.59531 1.63587 4.7449 1.63587V1.63262ZM11.7433 5.83099C11.6229 6.25051 11.4734 6.68303 11.3043 7.11555C11.1709 6.85538 11.0311 6.59522 10.8782 6.33506C10.7286 6.0749 10.5693 5.82124 10.4099 5.57408C10.8717 5.64238 11.3173 5.72693 11.7433 5.83099ZM9.4701 10.5367C9.74002 10.1497 10.0002 9.73343 10.2538 9.29441C10.4977 8.86839 10.7221 8.43262 10.927 7.99685C10.7221 7.56108 10.4977 7.12856 10.2506 6.70254C9.99693 6.26677 9.73352 5.85376 9.4636 5.46677C8.9823 5.42774 8.49124 5.40498 8.00019 5.40498C7.50588 5.40498 7.01482 5.42774 6.53027 5.47002C6.26035 5.85701 6.00019 6.27327 5.74653 6.7123C5.50262 7.13831 5.27498 7.57408 5.07336 8.00986C5.27823 8.44563 5.50262 8.87815 5.74978 9.30417C6.00344 9.73994 6.26685 10.1529 6.53677 10.5399C7.01807 10.579 7.50913 10.6017 8.00019 10.6017C8.49449 10.6017 8.98555 10.579 9.4701 10.5367ZM11.3042 8.87164C11.4799 9.30742 11.6295 9.74319 11.753 10.166C11.327 10.27 10.8782 10.3578 10.4132 10.4261C10.5725 10.1757 10.7319 9.9188 10.8815 9.65538C11.0311 9.39522 11.1709 9.13181 11.3042 8.87164ZM7.10262 11.3009C7.40181 11.6814 7.70425 12.0294 8.00669 12.3416C8.30588 12.0294 8.60831 11.6814 8.901 11.3009C8.60506 11.3172 8.30262 11.3237 7.99693 11.3237C7.69449 11.3237 7.39531 11.3139 7.10262 11.3009ZM5.58718 10.4261C5.12539 10.3578 4.67986 10.2733 4.25384 10.1692C4.37417 9.74969 4.52376 9.31717 4.69287 8.88465C4.8262 9.14481 4.96604 9.40498 5.11888 9.66514C5.27173 9.9253 5.42783 10.179 5.58718 10.4261ZM8.89449 4.69929C8.59531 4.3188 8.29287 3.97083 7.99043 3.65864C7.69124 3.97083 7.3888 4.3188 7.09612 4.69929C7.39205 4.68303 7.69449 4.67652 8.00018 4.67652C8.30262 4.67652 8.60181 4.68628 8.89449 4.69929ZM5.58392 5.57408C5.42458 5.82449 5.26523 6.0814 5.11563 6.34482C4.96604 6.60498 4.8262 6.86514 4.69287 7.1253C4.51726 6.68953 4.36766 6.25376 4.24409 5.831C4.6701 5.73018 5.11888 5.64238 5.58392 5.57408ZM0.7449 8.0001C0.7449 8.51067 1.48962 9.15457 2.64084 9.64563C2.92376 9.76595 3.22945 9.87652 3.5514 9.97734C3.73352 9.34319 3.97417 8.68303 4.27336 8.0066C3.97092 7.32693 3.72701 6.66351 3.54165 6.02612C3.2262 6.12693 2.92051 6.23425 2.64084 6.35457C1.48962 6.84238 0.7449 7.48953 0.7449 8.0001ZM4.39043 14.2928C3.94815 14.0391 3.75628 13.0733 3.90588 11.831C3.94165 11.5253 4.00019 11.2034 4.07173 10.8749C4.70913 11.031 5.40506 11.1513 6.13677 11.2294C6.57579 11.831 7.03108 12.3773 7.48962 12.8554C6.42945 13.8408 5.43433 14.3806 4.75791 14.3806C4.61157 14.3773 4.48799 14.3481 4.39043 14.2928ZM11.6295 14.2798C12.0685 14.0229 12.2571 13.057 12.1043 11.8147C12.0685 11.5123 12.0099 11.1968 11.9351 10.8684C11.2977 11.0277 10.6018 11.1481 9.86685 11.2261C9.43433 11.8277 8.97905 12.3708 8.52376 12.8489C9.58393 13.8277 10.5823 14.3643 11.2555 14.3643C11.4051 14.3643 11.5319 14.3383 11.6295 14.2798ZM13.3563 9.64563C13.0766 9.76595 12.7709 9.87327 12.4555 9.97408C12.2701 9.33669 12.0262 8.67327 11.7238 7.9936C12.0229 7.31717 12.2636 6.65701 12.4457 6.02286C12.7677 6.12368 13.0734 6.23425 13.3595 6.35457C14.5108 6.84563 15.2555 7.48953 15.2555 8.0001C15.2522 8.51067 14.5075 9.15782 13.3563 9.64563Z" fill="#61DAFB"/>
</g>
<defs>
<clipPath id="clip0_1447_3003">
<rect width="16" height="16" fill="white"/>
</clipPath>
</defs>
</svg>
