<svg width="20" height="20" viewBox="0 0 20 20" fill="none" xmlns="http://www.w3.org/2000/svg">
<path fill-rule="evenodd" clip-rule="evenodd" d="M19.9717 10.0001C19.9717 8.67894 18.3172 7.42691 15.7806 6.65049C16.366 4.06512 16.1058 2.00821 14.9595 1.34968C14.6963 1.19583 14.3888 1.12262 14.053 1.12204V1.11797C12.9351 1.11797 11.4717 1.91472 9.99198 3.29683C8.5123 1.92285 7.04889 1.13423 5.931 1.13423V1.13829C5.58954 1.13829 5.2806 1.21147 5.0123 1.36594C3.87003 2.02447 3.61393 4.07732 4.20336 6.65455C1.67491 7.43504 0.0285645 8.68301 0.0285645 10.0001C0.0285645 11.3212 1.68304 12.5733 4.21962 13.3497C3.63426 15.935 3.89442 17.992 5.04076 18.6505C5.30499 18.805 5.61393 18.8781 5.95539 18.8781C7.07328 18.8781 8.53669 18.0814 10.0164 16.6993C11.496 18.0733 12.9595 18.8619 14.0773 18.8619C14.4188 18.8619 14.7278 18.7887 14.996 18.6342C16.1383 17.9757 16.3944 15.9228 15.805 13.3456C18.3253 12.5692 19.9717 11.3172 19.9717 10.0001ZM10.6383 3.93098C11.9614 2.70124 13.2034 2.02664 14.0489 2.02448V2.02854C14.2359 2.02854 14.3863 2.06512 14.5123 2.13423C15.0652 2.4513 15.305 3.65862 15.118 5.21147C15.0733 5.59358 15.0001 5.99602 14.9107 6.40659C14.1139 6.21147 13.244 6.06106 12.3294 5.9635C11.7806 5.21147 11.2115 4.52854 10.6383 3.93098ZM5.931 2.04073C6.77247 2.04073 8.02043 2.71147 9.34564 3.93504C8.77653 4.5326 8.20743 5.21147 7.66678 5.9635C6.74808 6.06106 5.87816 6.21147 5.08141 6.41065C4.98791 6.00415 4.91881 5.60984 4.87003 5.23179C4.67897 3.67895 4.91474 2.47163 5.46352 2.15049C5.58547 2.07732 5.74401 2.0448 5.931 2.0448V2.04073ZM14.679 7.2887C14.5286 7.81309 14.3416 8.35374 14.1302 8.89439C13.9635 8.56919 13.7887 8.24399 13.5977 7.91878C13.4107 7.59358 13.2115 7.27651 13.0123 6.96756C13.5895 7.05293 14.1465 7.15862 14.679 7.2887ZM11.8375 13.1708C12.1749 12.6871 12.5001 12.1667 12.8172 11.618C13.1221 11.0854 13.4025 10.5407 13.6586 9.99602C13.4025 9.4513 13.1221 8.91065 12.8131 8.37813C12.496 7.83342 12.1668 7.31716 11.8294 6.83342C11.2278 6.78464 10.6139 6.75618 10.0001 6.75618C9.38222 6.75618 8.7684 6.78464 8.16271 6.83748C7.82531 7.32122 7.50011 7.84155 7.18304 8.39033C6.87816 8.92285 6.59361 9.46756 6.34157 10.0123C6.59767 10.557 6.87816 11.0976 7.1871 11.6302C7.50417 12.1749 7.83344 12.6911 8.17084 13.1749C8.77247 13.2237 9.38629 13.2521 10.0001 13.2521C10.618 13.2521 11.2318 13.2237 11.8375 13.1708ZM14.1302 11.0895C14.3497 11.6342 14.5367 12.1789 14.6912 12.7074C14.1586 12.8375 13.5977 12.9472 13.0164 13.0326C13.2156 12.7196 13.4147 12.3985 13.6017 12.0692C13.7887 11.744 13.9635 11.4147 14.1302 11.0895ZM8.87816 14.1261C9.25214 14.6017 9.63019 15.0367 10.0082 15.4269C10.3822 15.0367 10.7603 14.6017 11.1261 14.1261C10.7562 14.1464 10.3782 14.1546 9.99604 14.1546C9.618 14.1546 9.24401 14.1424 8.87816 14.1261ZM6.98385 13.0326C6.40661 12.9472 5.8497 12.8415 5.31718 12.7115C5.46759 12.1871 5.65458 11.6464 5.86596 11.1058C6.03263 11.431 6.20743 11.7562 6.39848 12.0814C6.58954 12.4066 6.78466 12.7237 6.98385 13.0326ZM11.118 5.87407C10.744 5.39846 10.366 4.9635 9.98791 4.57325C9.61393 4.9635 9.23588 5.39846 8.87003 5.87407C9.23995 5.85374 9.618 5.84561 10.0001 5.84561C10.3782 5.84561 10.7521 5.85781 11.118 5.87407ZM6.97978 6.96756C6.7806 7.28057 6.58141 7.60171 6.39442 7.93098C6.20743 8.25618 6.03263 8.58138 5.86596 8.90659C5.64645 8.36187 5.45946 7.81716 5.30499 7.2887C5.83751 7.16268 6.39848 7.05293 6.97978 6.96756ZM0.931003 10.0001C0.931003 10.6383 1.8619 11.4432 3.30092 12.057C3.65458 12.2074 4.03669 12.3456 4.43913 12.4716C4.66678 11.6789 4.96759 10.8537 5.34157 10.0082C4.96352 9.15862 4.65865 8.32935 4.42694 7.5326C4.03263 7.65862 3.65052 7.79277 3.30092 7.94317C1.8619 8.55293 0.931003 9.36187 0.931003 10.0001ZM5.48791 17.8659C4.93507 17.5489 4.69523 16.3415 4.88222 14.7887C4.92694 14.4066 5.00011 14.0041 5.08954 13.5936C5.88629 13.7887 6.75621 13.9391 7.67084 14.0367C8.21962 14.7887 8.78873 15.4716 9.3619 16.0692C8.03669 17.3009 6.79279 17.9757 5.94726 17.9757C5.76434 17.9716 5.60987 17.935 5.48791 17.8659ZM14.5367 17.8497C15.0855 17.5285 15.3212 16.3212 15.1302 14.7684C15.0855 14.3903 15.0123 13.996 14.9188 13.5854C14.1221 13.7846 13.2521 13.935 12.3334 14.0326C11.7928 14.7846 11.2237 15.4635 10.6546 16.0611C11.9798 17.2846 13.2278 17.9554 14.0692 17.9554C14.2562 17.9554 14.4147 17.9228 14.5367 17.8497ZM16.6952 12.057C16.3456 12.2074 15.9635 12.3415 15.5692 12.4676C15.3375 11.6708 15.0326 10.8415 14.6546 9.99195C15.0286 9.14643 15.3294 8.32122 15.557 7.52854C15.9595 7.65455 16.3416 7.79277 16.6993 7.94317C18.1383 8.55699 19.0692 9.36187 19.0692 10.0001C19.0652 10.6383 18.1343 11.4472 16.6952 12.057ZM11.8538 10.0001C11.8538 11.0261 11.022 11.8578 9.99604 11.8578C8.97005 11.8578 8.13832 11.0261 8.13832 10.0001C8.13832 8.97409 8.97005 8.14236 9.99604 8.14236C11.022 8.14236 11.8538 8.97409 11.8538 10.0001Z" fill="#61DAFB"/>
</svg>
