<svg width="20" height="20" viewBox="0 0 20 20" fill="none" xmlns="http://www.w3.org/2000/svg">
<circle cx="10" cy="10" r="10" fill="#FF4500"/>
<path fill-rule="evenodd" clip-rule="evenodd" d="M12.1757 13.255C12.2584 13.3367 12.2584 13.4699 12.1757 13.5525C11.7236 14.0017 11.0149 14.2204 10.0067 14.2204L9.99892 14.2185L9.99114 14.2204C8.98392 14.2204 8.2742 14.0017 7.82211 13.5515C7.73947 13.4699 7.73947 13.3367 7.82211 13.255C7.90378 13.1733 8.03795 13.1733 8.12059 13.255C8.48906 13.6215 9.10059 13.8004 9.99114 13.8004L9.99892 13.8024L10.0067 13.8004C10.8963 13.8004 11.5078 13.6215 11.8773 13.255C11.9599 13.1733 12.0941 13.1733 12.1757 13.255ZM8.83128 10.9042C8.83128 10.4113 8.42878 10.0107 7.93489 10.0107C7.44003 10.0107 7.03753 10.4113 7.03753 10.9042C7.03753 11.3961 7.44003 11.7967 7.93489 11.7967C8.42878 11.7976 8.83128 11.3971 8.83128 10.9042ZM16.8054 9.87459C16.8054 9.04723 16.1298 8.37445 15.2985 8.37445C14.8931 8.37445 14.5256 8.53681 14.2543 8.79737C13.2277 8.12167 11.8384 7.69195 10.3013 7.63654L11.1423 4.9882L13.4202 5.52195L13.4173 5.55501C13.4173 6.23167 13.9704 6.78195 14.65 6.78195C15.3296 6.78195 15.8818 6.23167 15.8818 5.55501C15.8818 4.87834 15.3296 4.32806 14.65 4.32806C14.1279 4.32806 13.6836 4.65376 13.5038 5.10973L11.0489 4.53417C10.942 4.50792 10.8321 4.57015 10.7991 4.67515L9.86086 7.62876C8.25086 7.6482 6.7935 8.08181 5.72114 8.77695C5.45184 8.52904 5.09503 8.37348 4.70031 8.37348C3.87003 8.37445 3.19434 9.04723 3.19434 9.87459C3.19434 10.4249 3.4967 10.9013 3.941 11.1628C3.91184 11.3222 3.89239 11.4846 3.89239 11.6489C3.89239 13.8665 6.61947 15.671 9.9717 15.671C13.3239 15.671 16.051 13.8665 16.051 11.6489C16.051 11.4933 16.0345 11.3407 16.0082 11.19C16.4807 10.9363 16.8054 10.4453 16.8054 9.87459ZM11.1724 10.9051C11.1724 10.4122 11.5739 10.0117 12.0688 10.0117C12.5636 10.0117 12.9652 10.4122 12.9652 10.9051C12.9652 11.3971 12.5627 11.7976 12.0688 11.7976C11.5749 11.7976 11.1724 11.3971 11.1724 10.9051Z" fill="white"/>
</svg>
