<svg width="20" height="20" viewBox="0 0 20 20" fill="none" xmlns="http://www.w3.org/2000/svg">
<path fill-rule="evenodd" clip-rule="evenodd" d="M12.8774 13.8054C12.9867 13.9134 12.9867 14.0896 12.8774 14.1989C12.2796 14.7929 11.3423 15.0821 10.009 15.0821L9.99871 15.0796L9.98843 15.0821C8.65643 15.0821 7.71786 14.7929 7.12 14.1976C7.01071 14.0896 7.01071 13.9134 7.12 13.8054C7.228 13.6974 7.40543 13.6974 7.51471 13.8054C8.002 14.2901 8.81072 14.5267 9.98843 14.5267L9.99871 14.5293L10.009 14.5267C11.1854 14.5267 11.9941 14.2901 12.4827 13.8054C12.592 13.6974 12.7694 13.6974 12.8774 13.8054ZM8.45457 10.6966C8.45457 10.0447 7.92229 9.515 7.26914 9.515C6.61472 9.515 6.08243 10.0447 6.08243 10.6966C6.08243 11.3471 6.61472 11.8769 7.26914 11.8769C7.92229 11.8781 8.45457 11.3484 8.45457 10.6966ZM19 9.335C19 8.24086 18.1064 7.35114 17.0071 7.35114C16.471 7.35114 15.985 7.56586 15.6263 7.91043C14.2686 7.01686 12.4313 6.44857 10.3986 6.37529L11.5107 2.873L14.5231 3.57886L14.5193 3.62257C14.5193 4.51743 15.2509 5.24514 16.1496 5.24514C17.0483 5.24514 17.7786 4.51743 17.7786 3.62257C17.7786 2.72771 17.0483 2 16.1496 2C15.4591 2 14.8716 2.43071 14.6337 3.03371L11.3873 2.27257C11.2459 2.23786 11.1006 2.32014 11.0569 2.459L9.81614 6.365C7.687 6.39071 5.75971 6.96414 4.34157 7.88343C3.98543 7.55557 3.51357 7.34986 2.99157 7.34986C1.89357 7.35114 1 8.24086 1 9.335C1 10.0627 1.39986 10.6927 1.98743 11.0386C1.94886 11.2494 1.92314 11.4641 1.92314 11.6814C1.92314 14.6141 5.52957 17.0004 9.96271 17.0004C14.3959 17.0004 18.0023 14.6141 18.0023 11.6814C18.0023 11.4757 17.9804 11.2739 17.9457 11.0746C18.5706 10.739 19 10.0897 19 9.335ZM11.5506 10.6979C11.5506 10.046 12.0816 9.51629 12.736 9.51629C13.3904 9.51629 13.9214 10.046 13.9214 10.6979C13.9214 11.3484 13.3891 11.8781 12.736 11.8781C12.0829 11.8781 11.5506 11.3484 11.5506 10.6979Z" fill="#FF00FF"/>
</svg>
