<svg width="20" height="20" viewBox="0 0 20 20" fill="none" xmlns="http://www.w3.org/2000/svg">
<path fill-rule="evenodd" clip-rule="evenodd" d="M10 20C15.5228 20 20 15.5228 20 10C20 4.47715 15.5228 0 10 0C4.47715 0 0 4.47715 0 10C0 15.5228 4.47715 20 10 20ZM12.1758 13.5525C12.2585 13.4699 12.2585 13.3367 12.1758 13.255C12.0942 13.1733 11.96 13.1733 11.8773 13.255C11.5079 13.6215 10.8964 13.8004 10.0068 13.8004L9.99901 13.8024L9.99123 13.8004C9.10068 13.8004 8.48915 13.6215 8.12068 13.255C8.03804 13.1733 7.90387 13.1733 7.82221 13.255C7.73957 13.3367 7.73957 13.4699 7.82221 13.5515C8.27429 14.0017 8.98401 14.2204 9.99123 14.2204L9.99901 14.2185L10.0068 14.2204C11.015 14.2204 11.7237 14.0017 12.1758 13.5525ZM7.93498 10.0107C8.42887 10.0107 8.83137 10.4112 8.83137 10.9042C8.83137 11.3971 8.42887 11.7976 7.93498 11.7967C7.44012 11.7967 7.03762 11.3961 7.03762 10.9042C7.03762 10.4112 7.44012 10.0107 7.93498 10.0107ZM15.2986 8.37444C16.1298 8.37444 16.8055 9.04722 16.8055 9.87458C16.8055 10.4453 16.4808 10.9362 16.0083 11.19C16.0346 11.3407 16.0511 11.4933 16.0511 11.6489C16.0511 13.8665 13.324 15.671 9.97179 15.671C6.61957 15.671 3.89248 13.8665 3.89248 11.6489C3.89248 11.4846 3.91193 11.3222 3.94109 11.1628C3.49679 10.9012 3.19443 10.4249 3.19443 9.87458C3.19443 9.04722 3.87012 8.37444 4.7004 8.37347C5.09512 8.37347 5.45193 8.52903 5.72123 8.77694C6.79359 8.0818 8.25096 7.64819 9.86096 7.62875L10.7991 4.67514C10.8322 4.57014 10.9421 4.50792 11.049 4.53416L13.5039 5.10972C13.6837 4.65375 14.128 4.32805 14.6501 4.32805C15.3297 4.32805 15.8819 4.87833 15.8819 5.555C15.8819 6.23166 15.3297 6.78194 14.6501 6.78194C13.9705 6.78194 13.4173 6.23166 13.4173 5.555L13.4203 5.52194L11.1423 4.98819L10.3014 7.63653C11.8385 7.69194 13.2278 8.12166 14.2544 8.79736C14.5257 8.5368 14.8932 8.37444 15.2986 8.37444ZM12.0689 10.0117C11.574 10.0117 11.1725 10.4122 11.1725 10.9051C11.1725 11.3971 11.575 11.7976 12.0689 11.7976C12.5628 11.7976 12.9653 11.3971 12.9653 10.9051C12.9653 10.4122 12.5637 10.0117 12.0689 10.0117Z" fill="#FF00FF"/>
</svg>
