<svg width="16" height="16" viewBox="0 0 16 16" fill="none" xmlns="http://www.w3.org/2000/svg">
<g clip-path="url(#clip0_1447_3017)">
<circle cx="8" cy="8" r="8" fill="#FF4500"/>
<path fill-rule="evenodd" clip-rule="evenodd" d="M9.74078 10.604C9.80689 10.6694 9.80689 10.7759 9.74078 10.842C9.37911 11.2014 8.81211 11.3764 8.00555 11.3764L7.99933 11.3748L7.99311 11.3764C7.18733 11.3764 6.61955 11.2014 6.25789 10.8412C6.19178 10.7759 6.19178 10.6694 6.25789 10.604C6.32322 10.5387 6.43055 10.5387 6.49666 10.604C6.79144 10.8972 7.28066 11.0404 7.99311 11.0404L7.99933 11.0419L8.00555 11.0404C8.71722 11.0404 9.20644 10.8972 9.502 10.604C9.56811 10.5387 9.67544 10.5387 9.74078 10.604ZM7.06522 8.72335C7.06522 8.32902 6.74322 8.00857 6.34811 8.00857C5.95222 8.00857 5.63022 8.32902 5.63022 8.72335C5.63022 9.11691 5.95222 9.43735 6.34811 9.43735C6.74322 9.43813 7.06522 9.11768 7.06522 8.72335ZM13.4446 7.89968C13.4446 7.2378 12.904 6.69957 12.239 6.69957C11.9147 6.69957 11.6207 6.82946 11.4037 7.03791C10.5823 6.49735 9.47089 6.15357 8.24122 6.10924L8.914 3.99057L10.7363 4.41757L10.734 4.44402C10.734 4.98535 11.1766 5.42557 11.7202 5.42557C12.2639 5.42557 12.7057 4.98535 12.7057 4.44402C12.7057 3.90269 12.2639 3.46246 11.7202 3.46246C11.3026 3.46246 10.9471 3.72302 10.8032 4.0878L8.83933 3.62735C8.75378 3.60635 8.66589 3.65613 8.63944 3.74013L7.88889 6.10302C6.60089 6.11857 5.435 6.46546 4.57711 7.02157C4.36166 6.82324 4.07622 6.6988 3.76044 6.6988C3.09622 6.69957 2.55566 7.2378 2.55566 7.89968C2.55566 8.33991 2.79755 8.72102 3.153 8.93024C3.12966 9.0578 3.11411 9.18768 3.11411 9.31913C3.11411 11.0932 5.29577 12.5368 7.97755 12.5368C10.6593 12.5368 12.841 11.0932 12.841 9.31913C12.841 9.19468 12.8278 9.07257 12.8068 8.95202C13.1848 8.74902 13.4446 8.35624 13.4446 7.89968ZM8.93811 8.72413C8.93811 8.3298 9.25933 8.00935 9.65522 8.00935C10.0511 8.00935 10.3723 8.3298 10.3723 8.72413C10.3723 9.11768 10.0503 9.43813 9.65522 9.43813C9.26011 9.43813 8.93811 9.11768 8.93811 8.72413Z" fill="white"/>
</g>
<defs>
<clipPath id="clip0_1447_3017">
<rect width="16" height="16" fill="white"/>
</clipPath>
</defs>
</svg>
