<svg width="16" height="16" viewBox="0 0 16 16" fill="none" xmlns="http://www.w3.org/2000/svg">
<g clip-path="url(#clip0_1447_3017)">
<circle cx="8" cy="8" r="8" fill="#FF4500"/>
<path fill-rule="evenodd" clip-rule="evenodd" d="M9.74078 10.604C9.80689 10.6693 9.80689 10.7758 9.74078 10.842C9.37911 11.2013 8.81211 11.3763 8.00555 11.3763L7.99933 11.3747L7.99311 11.3763C7.18733 11.3763 6.61955 11.2013 6.25789 10.8412C6.19178 10.7758 6.19178 10.6693 6.25789 10.604C6.32322 10.5386 6.43055 10.5386 6.49666 10.604C6.79144 10.8972 7.28066 11.0403 7.99311 11.0403L7.99933 11.0418L8.00555 11.0403C8.71722 11.0403 9.20644 10.8972 9.502 10.604C9.56811 10.5386 9.67544 10.5386 9.74078 10.604ZM7.06522 8.72329C7.06522 8.32896 6.74322 8.00851 6.34811 8.00851C5.95222 8.00851 5.63022 8.32896 5.63022 8.72329C5.63022 9.11685 5.95222 9.43729 6.34811 9.43729C6.74322 9.43807 7.06522 9.11762 7.06522 8.72329ZM13.4446 7.89962C13.4446 7.23774 12.904 6.69951 12.239 6.69951C11.9147 6.69951 11.6207 6.8294 11.4037 7.03785C10.5823 6.49729 9.47089 6.15351 8.24122 6.10918L8.914 3.99051L10.7363 4.41751L10.734 4.44396C10.734 4.98529 11.1766 5.42551 11.7202 5.42551C12.2639 5.42551 12.7057 4.98529 12.7057 4.44396C12.7057 3.90262 12.2639 3.4624 11.7202 3.4624C11.3026 3.4624 10.9471 3.72296 10.8032 4.08774L8.83933 3.62729C8.75378 3.60629 8.66589 3.65607 8.63944 3.74007L7.88889 6.10296C6.60089 6.11851 5.435 6.4654 4.57711 7.02151C4.36166 6.82318 4.07622 6.69873 3.76044 6.69873C3.09622 6.69951 2.55566 7.23774 2.55566 7.89962C2.55566 8.33985 2.79755 8.72096 3.153 8.93018C3.12966 9.05773 3.11411 9.18762 3.11411 9.31907C3.11411 11.0932 5.29577 12.5367 7.97755 12.5367C10.6593 12.5367 12.841 11.0932 12.841 9.31907C12.841 9.19462 12.8278 9.07251 12.8068 8.95196C13.1848 8.74896 13.4446 8.35618 13.4446 7.89962ZM8.93811 8.72407C8.93811 8.32973 9.25933 8.00929 9.65522 8.00929C10.0511 8.00929 10.3723 8.32973 10.3723 8.72407C10.3723 9.11762 10.0503 9.43807 9.65522 9.43807C9.26011 9.43807 8.93811 9.11762 8.93811 8.72407Z" fill="white"/>
</g>
<defs>
<clipPath id="clip0_1447_3017">
<rect width="16" height="16" fill="white"/>
</clipPath>
</defs>
</svg>
