<svg width="16" height="16" viewBox="0 0 16 16" fill="none" xmlns="http://www.w3.org/2000/svg">
<g clip-path="url(#clip0_2179_3714)">
<path fill-rule="evenodd" clip-rule="evenodd" d="M7.26948 0.712164C9.39173 -0.63979 12.3272 -0.00954509 13.8135 2.117V2.12843C14.1662 2.62224 14.4167 3.1815 14.5505 3.77342C14.6842 4.36533 14.6985 4.978 14.5923 5.57549C14.4886 6.14574 14.2709 6.68918 13.9521 7.17325C14.4177 8.06069 14.5741 9.07806 14.3965 10.0644C14.29 10.6486 14.0632 11.2044 13.7306 11.6964C13.398 12.1885 12.9668 12.606 12.4644 12.9226L8.73719 15.2878C6.61494 16.6398 3.67951 16.0095 2.19322 13.883C1.84022 13.3893 1.58947 12.8301 1.45571 12.2381C1.32196 11.6462 1.30789 11.0334 1.41434 10.4359C1.51689 9.86559 1.73422 9.32202 2.05316 8.83818C1.5878 7.95013 1.4319 6.93225 1.61013 5.94563C1.71583 5.36107 1.94225 4.80497 2.27494 4.31283C2.60762 3.82069 3.03927 3.40332 3.54231 3.08737L7.26948 0.712164ZM5.13054 13.9988C5.6989 14.2097 6.31826 14.2411 6.90503 14.0888C7.17291 14.0168 7.42829 13.9045 7.66247 13.7558L11.3911 11.3806C11.694 11.19 11.9538 10.9382 12.1538 10.6414C12.3539 10.3447 12.4898 10.0094 12.5529 9.65709C12.6168 9.29787 12.6082 8.92951 12.5277 8.57365C12.4472 8.21779 12.2964 7.88161 12.0842 7.58485C11.739 7.08682 11.2492 6.7068 10.681 6.49619C10.1128 6.28557 9.49365 6.25453 8.90724 6.40725C8.63894 6.47805 8.38336 6.59041 8.1498 6.74024L6.72067 7.64631C6.64974 7.69063 6.57271 7.72433 6.49201 7.74634C6.31635 7.79061 6.13138 7.78042 5.96164 7.71712C5.7919 7.65382 5.64543 7.5404 5.54164 7.39192C5.47768 7.30219 5.43212 7.20067 5.40759 7.09323C5.38306 6.9858 5.38005 6.87457 5.39873 6.76596C5.41804 6.65998 5.45913 6.55915 5.5194 6.46986C5.57967 6.38057 5.6578 6.30474 5.74887 6.24719L9.47746 3.87627C9.54811 3.83141 9.62523 3.79767 9.70612 3.77623C9.88098 3.7302 10.0657 3.7385 10.2357 3.80002C10.4057 3.86155 10.553 3.97338 10.6579 4.12065C10.7723 4.28182 10.8259 4.47823 10.8094 4.67515L10.7965 4.81806L10.9395 4.85951C11.4632 5.01809 11.9561 5.26455 12.3972 5.58836L12.5872 5.73127L12.6587 5.5169C12.6954 5.4031 12.725 5.28711 12.7473 5.16963C12.8113 4.81041 12.8028 4.44202 12.7223 4.08614C12.6418 3.73026 12.4909 3.39408 12.2786 3.09739C11.9334 2.59925 11.4437 2.21907 10.8755 2.00822C10.3074 1.79736 9.68816 1.766 9.1016 1.91836C8.8357 1.99022 8.58224 2.10201 8.34988 2.24992L4.617 4.62513C4.31409 4.81578 4.05429 5.06754 3.85423 5.36431C3.65416 5.66109 3.51823 5.99635 3.45512 6.34866C3.39065 6.70759 3.39852 7.07579 3.47828 7.43164C3.55804 7.78749 3.70808 8.12382 3.91958 8.42089C4.26477 8.9178 4.75389 9.29704 5.32112 9.50758C5.88834 9.71811 6.50645 9.74984 7.09225 9.59849C7.3596 9.52694 7.61452 9.41514 7.84826 9.26694L9.27738 8.35944C9.34803 8.31459 9.42515 8.28085 9.50604 8.2594C9.68274 8.21355 9.86924 8.22295 10.0404 8.28631C10.2116 8.34968 10.3593 8.46398 10.4636 8.61382C10.5278 8.70312 10.5736 8.80438 10.5981 8.91164C10.6227 9.0189 10.6255 9.12998 10.6065 9.23835C10.5876 9.34468 10.5467 9.44588 10.4864 9.53547C10.4261 9.62506 10.3477 9.70104 10.2563 9.75856L6.53489 12.1338C6.4641 12.1784 6.38702 12.2121 6.30623 12.2338C6.12953 12.2797 5.94303 12.2703 5.77184 12.2069C5.60064 12.1435 5.45297 12.0292 5.34871 11.8794C5.23428 11.7197 5.17919 11.5251 5.19294 11.3292L5.2058 11.1863L5.06289 11.1448C4.54107 10.9875 4.04965 10.743 3.60946 10.4217L3.41796 10.2788L3.34793 10.4931C3.31002 10.6056 3.28041 10.7207 3.25933 10.8375C3.1951 11.1967 3.20336 11.565 3.28361 11.9209C3.36387 12.2768 3.51451 12.613 3.72665 12.9098C4.07217 13.4079 4.56218 13.788 5.13054 13.9988Z" fill="#FF00FF"/>
</g>
<defs>
<clipPath id="clip0_2179_3714">
<rect width="16" height="16" fill="white"/>
</clipPath>
</defs>
</svg>
