<svg width="16" height="16" viewBox="0 0 16 16" fill="none" xmlns="http://www.w3.org/2000/svg">
<path d="M13.8139 2.117C12.3277 -0.00954509 9.39222 -0.63979 7.26997 0.712164L3.5428 3.08737C3.03975 3.40332 2.60811 3.82069 2.27542 4.31283C1.94274 4.80497 1.71632 5.36107 1.61062 5.94563C1.43239 6.93225 1.58829 7.95013 2.05365 8.83818C1.73471 9.32202 1.51738 9.86559 1.41483 10.4359C1.30838 11.0334 1.32244 11.6462 1.4562 12.2381C1.58996 12.8301 1.84071 13.3893 2.19371 13.883C3.68 16.0095 6.61543 16.6398 8.73768 15.2878L12.4648 12.9226C12.9673 12.606 13.3985 12.1885 13.7311 11.6964C14.0637 11.2044 14.2905 10.6486 14.397 10.0644C14.5746 9.07806 14.4182 8.06069 13.9526 7.17325C14.2713 6.68918 14.4891 6.14574 14.5928 5.57549C14.6989 4.978 14.6847 4.36533 14.551 3.77342C14.4172 3.1815 14.1667 2.62224 13.8139 2.12843" fill="#159497"/>
<path d="M6.90523 14.0888C6.31845 14.2411 5.69909 14.2097 5.13073 13.9988C4.56237 13.788 4.07237 13.4079 3.72685 12.9098C3.5147 12.613 3.36407 12.2768 3.28381 11.9209C3.20355 11.565 3.19529 11.1967 3.25952 10.8376C3.28061 10.7207 3.31022 10.6056 3.34813 10.4931L3.41816 10.2788L3.60966 10.4217C4.04984 10.743 4.54126 10.9875 5.06308 11.1448L5.20599 11.1863L5.19313 11.3292C5.17938 11.5251 5.23448 11.7197 5.34891 11.8794C5.45317 12.0292 5.60084 12.1435 5.77203 12.2069C5.94323 12.2703 6.12973 12.2797 6.30642 12.2338C6.38722 12.2121 6.4643 12.1784 6.53508 12.1338L10.2565 9.75857C10.3479 9.70106 10.4263 9.62507 10.4866 9.53548C10.5469 9.4459 10.5878 9.34469 10.6067 9.23837C10.6257 9.13 10.6229 9.01891 10.5983 8.91165C10.5738 8.8044 10.528 8.70314 10.4638 8.61384C10.3595 8.46399 10.2118 8.34969 10.0406 8.28633C9.86943 8.22296 9.68293 8.21357 9.50624 8.25941C9.42535 8.28086 9.34823 8.3146 9.27758 8.35945L7.84845 9.26695C7.61471 9.41515 7.3598 9.52695 7.09244 9.59851C6.50664 9.74985 5.88854 9.71812 5.32131 9.50759C4.75409 9.29705 4.26497 8.91781 3.91978 8.4209C3.70827 8.12383 3.55823 7.7875 3.47847 7.43165C3.39871 7.0758 3.39084 6.7076 3.45531 6.34867C3.51842 5.99636 3.65436 5.6611 3.85442 5.36433C4.05449 5.06755 4.31428 4.81579 4.61719 4.62514L8.35008 2.24993C8.58243 2.10202 8.83589 1.99023 9.1018 1.91837C9.68835 1.76601 10.3075 1.79737 10.8757 2.00823C11.4439 2.21908 11.9336 2.59927 12.2787 3.0974C12.4911 3.39409 12.642 3.73027 12.7225 4.08615C12.803 4.44203 12.8115 4.81043 12.7475 5.16964C12.7252 5.28713 12.6956 5.40311 12.6589 5.51692L12.5874 5.73129L12.3974 5.58837C11.9563 5.26457 11.4634 5.0181 10.9397 4.85952L10.7967 4.81807L10.8096 4.67516C10.8261 4.47824 10.7725 4.28183 10.6581 4.12066C10.5532 3.97339 10.4059 3.86156 10.2359 3.80004C10.0659 3.73851 9.88117 3.73021 9.70632 3.77624C9.62543 3.79768 9.54831 3.83142 9.47766 3.87628L5.74906 6.2472C5.658 6.30476 5.57986 6.38058 5.51959 6.46987C5.45933 6.55917 5.41824 6.65999 5.39893 6.76597C5.38024 6.87458 5.38325 6.98581 5.40778 7.09325C5.43231 7.20068 5.47787 7.3022 5.54184 7.39193C5.64562 7.54042 5.7921 7.65383 5.96184 7.71713C6.13157 7.78043 6.31655 7.79062 6.49221 7.74636C6.5729 7.72434 6.64994 7.69064 6.72087 7.64632L8.15 6.74025C8.38356 6.59042 8.63913 6.47807 8.90743 6.40726C9.49384 6.25454 10.113 6.28559 10.6812 6.4962C11.2494 6.70681 11.7392 7.08683 12.0844 7.58486C12.2966 7.88162 12.4474 8.21781 12.5279 8.57367C12.6084 8.92952 12.617 9.29788 12.5531 9.6571C12.49 10.0094 12.3541 10.3447 12.154 10.6414C11.954 10.9382 11.6942 11.19 11.3913 11.3806L7.66267 13.7558C7.42849 13.9045 7.1731 14.0168 6.90523 14.0888Z" fill="white"/>
</svg>
