<svg width="20" height="20" viewBox="0 0 20 20" fill="none" xmlns="http://www.w3.org/2000/svg">
<path d="M17.2671 2.64625C15.4092 -0.0119314 11.7399 -0.799738 9.08709 0.890205L4.42814 3.85922C3.79933 4.25416 3.25977 4.77586 2.84391 5.39104C2.42806 6.00621 2.14503 6.70134 2.01291 7.43204C1.79012 8.66531 1.985 9.93767 2.5667 11.0477C2.16802 11.6525 1.89636 12.332 1.76817 13.0449C1.63511 13.7918 1.65269 14.5577 1.81988 15.2977C1.98708 16.0376 2.30052 16.7367 2.74177 17.3538C4.59963 20.0119 8.26892 20.7997 10.9217 19.1098L15.5807 16.1533C16.2088 15.7575 16.7478 15.2356 17.1635 14.6205C17.5793 14.0055 17.8628 13.3108 17.9959 12.5805C18.2179 11.3476 18.0224 10.0759 17.4403 8.96656C17.8388 8.36147 18.111 7.68217 18.2407 6.96936C18.3733 6.2225 18.3555 5.45667 18.1883 4.71677C18.0212 3.97687 17.708 3.2778 17.2671 2.66054" fill="#159497"/>
<path d="M8.63153 17.611C7.89807 17.8013 7.12387 17.7621 6.41342 17.4985C5.70296 17.235 5.09046 16.7599 4.65856 16.1372C4.39338 15.7662 4.20508 15.346 4.10476 14.9011C4.00444 14.4563 3.99412 13.9958 4.0744 13.5469C4.10076 13.4009 4.13777 13.257 4.18516 13.1164L4.2727 12.8484L4.51207 13.0271C5.0623 13.4288 5.67658 13.7344 6.32885 13.931L6.50749 13.9828L6.49142 14.1615C6.47423 14.4064 6.5431 14.6496 6.68613 14.8492C6.81646 15.0365 7.00105 15.1794 7.21504 15.2586C7.42903 15.3378 7.66216 15.3496 7.88303 15.2923C7.98402 15.2651 8.08037 15.223 8.16885 15.1672L12.8207 12.1982C12.9349 12.1263 13.0329 12.0313 13.1082 11.9193C13.1836 11.8074 13.2347 11.6808 13.2583 11.5479C13.2821 11.4125 13.2786 11.2736 13.2479 11.1396C13.2172 11.0055 13.16 10.8789 13.0797 10.7673C12.9494 10.58 12.7648 10.4371 12.5508 10.3579C12.3368 10.2787 12.1037 10.2669 11.8828 10.3243C11.7817 10.3511 11.6853 10.3932 11.597 10.4493L9.81056 11.5837C9.51839 11.7689 9.19975 11.9087 8.86555 11.9981C8.1333 12.1873 7.36067 12.1476 6.65164 11.8845C5.94261 11.6213 5.33121 11.1472 4.89973 10.5261C4.63534 10.1548 4.44779 9.73436 4.34809 9.28955C4.24839 8.84473 4.23855 8.38449 4.31914 7.93582C4.39803 7.49544 4.56795 7.07636 4.81803 6.70539C5.06811 6.33442 5.39285 6.01972 5.77149 5.78141L10.4376 2.8124C10.728 2.62751 11.0449 2.48777 11.3772 2.39795C12.1104 2.2075 12.8844 2.2467 13.5946 2.51027C14.3048 2.77384 14.917 3.24907 15.3484 3.87174C15.6139 4.2426 15.8025 4.66282 15.9032 5.10767C16.0038 5.55253 16.0144 6.01302 15.9344 6.46203C15.9065 6.60889 15.8695 6.75387 15.8236 6.89613L15.7343 7.16409L15.4967 6.98545C14.9453 6.58069 14.3292 6.27261 13.6746 6.07438L13.4959 6.02258L13.512 5.84394C13.5326 5.59779 13.4656 5.35227 13.3226 5.15081C13.1915 4.96673 13.0074 4.82694 12.7949 4.75003C12.5824 4.67313 12.3515 4.66275 12.1329 4.72028C12.0318 4.74709 11.9354 4.78927 11.8471 4.84533L7.18633 7.80899C7.0725 7.88093 6.97483 7.97571 6.89949 8.08732C6.82416 8.19894 6.7728 8.32497 6.74866 8.45745C6.7253 8.59321 6.72907 8.73225 6.75973 8.86654C6.79039 9.00084 6.84734 9.12773 6.9273 9.2399C7.05703 9.4255 7.24012 9.56727 7.45229 9.6464C7.66447 9.72552 7.89568 9.73826 8.11526 9.68293C8.21613 9.65541 8.31242 9.61328 8.40109 9.55788L10.1875 8.4253C10.4794 8.23801 10.7989 8.09757 11.1343 8.00906C11.8673 7.81816 12.6413 7.85697 13.3515 8.12023C14.0617 8.3835 14.674 8.85852 15.1055 9.48107C15.3708 9.85201 15.5593 10.2722 15.6599 10.7171C15.7605 11.1619 15.7713 11.6223 15.6914 12.0714C15.6125 12.5117 15.4426 12.9308 15.1925 13.3018C14.9425 13.6728 14.6177 13.9875 14.2391 14.2258L9.57833 17.1948C9.28561 17.3806 8.96638 17.521 8.63153 17.611Z" fill="white"/>
</svg>
