<svg width="16" height="16" viewBox="0 0 16 16" fill="none" xmlns="http://www.w3.org/2000/svg">
<path opacity="0.4" fill-rule="evenodd" clip-rule="evenodd" d="M3 9.75C3.41421 9.75 3.75 10.0858 3.75 10.5V12.75H12.25V10.5C12.25 10.0858 12.5858 9.75 13 9.75C13.4142 9.75 13.75 10.0858 13.75 10.5V13.5C13.75 13.9142 13.4142 14.25 13 14.25H3C2.58579 14.25 2.25 13.9142 2.25 13.5V10.5C2.25 10.0858 2.58579 9.75 3 9.75Z" fill="#FF00FF"/>
<path fill-rule="evenodd" clip-rule="evenodd" d="M8 0.75C8.41421 0.75 8.75 1.08579 8.75 1.5V7.68934L10.4697 5.96967C10.7626 5.67678 11.2374 5.67678 11.5303 5.96967C11.8232 6.26256 11.8232 6.73744 11.5303 7.03033L8.53033 10.0303C8.23744 10.3232 7.76256 10.3232 7.46967 10.0303L4.46967 7.03033C4.17678 6.73744 4.17678 6.26256 4.46967 5.96967C4.76256 5.67678 5.23744 5.67678 5.53033 5.96967L7.25 7.68934V1.5C7.25 1.08579 7.58579 0.75 8 0.75Z" fill="#FF00FF"/>
</svg>
