<svg width="20" height="20" viewBox="0 0 20 20" fill="none" xmlns="http://www.w3.org/2000/svg">
<path fill-rule="evenodd" clip-rule="evenodd" d="M10 0C15.5229 0 20 4.47717 20 10C20 15.5229 15.5229 20 10 20C4.47717 20 0 15.5229 0 10C0 4.47717 4.47717 0 10 0ZM16.2727 4.28013C15.8199 2.5041 12.875 1.92026 10.0878 2.9104C8.42917 3.49974 6.63352 4.4246 5.34241 5.63223C3.80728 7.06811 3.56248 8.31784 3.66339 8.84005C3.93009 10.2208 5.41453 11.2431 6.57869 12.0449C6.96815 12.3131 7.32176 12.5567 7.58194 12.7807V12.7861C7.27591 12.9368 5.03594 14.0704 4.51173 15.2293C3.95861 16.4519 4.59979 17.3292 5.02425 17.4473C6.33946 17.8132 7.68908 17.1551 8.41437 16.0732C9.1143 15.0292 9.05603 13.681 8.75185 13.0104C9.17144 12.8997 9.6606 12.8501 10.2823 12.9227C12.0364 13.1276 12.3806 14.223 12.3148 14.6813C12.2491 15.1397 11.8811 15.3917 11.7581 15.4678C11.635 15.544 11.5975 15.5703 11.6079 15.6269C11.6228 15.7091 11.6797 15.706 11.7846 15.6883C11.929 15.6639 12.7057 15.3154 12.7389 14.4693C12.7812 13.395 11.7517 12.1932 9.92881 12.2246C9.17806 12.2376 8.70599 12.309 8.36501 12.4359C8.3398 12.4072 8.31414 12.3786 8.28761 12.3503C7.93982 11.9792 7.50095 11.6417 7.06293 11.3048C6.08161 10.55 5.10458 9.79855 5.16566 8.68097C5.19779 8.09334 5.40204 6.54595 9.16881 4.66901C12.2545 3.13145 14.7246 3.55455 15.1515 4.49226C15.7613 5.8319 13.8313 8.32183 10.6269 8.68097C9.40602 8.81785 8.76319 8.34466 8.60328 8.16845C8.43491 7.98294 8.40984 7.97457 8.347 8.00937C8.24611 8.06524 8.30757 8.22501 8.3453 8.32311L8.347 8.32753C8.44265 8.57651 8.83528 9.01806 9.50464 9.23769C10.0934 9.43094 11.5269 9.53711 13.2604 8.86658C15.2019 8.11554 16.718 6.02642 16.2727 4.28013ZM7.99195 14.8256C8.14221 14.3711 8.15818 13.8692 8.01269 13.331C7.98178 13.3481 7.95125 13.3647 7.92122 13.3809L7.92283 13.384C7.92283 13.384 6.88012 13.8766 6.15541 14.6427C5.48177 15.3547 5.29349 16.2485 5.66937 16.4663C6.01746 16.6683 6.82925 16.4286 7.41026 15.7947C7.60073 15.587 7.75625 15.3619 7.87215 15.1214C7.89532 15.0733 7.91694 15.0246 7.9369 14.9754C7.95685 14.926 7.97525 14.8761 7.99195 14.8256Z" fill="#FF00FF"/>
</svg>
