<svg width="16" height="16" viewBox="0 0 16 16" fill="none" xmlns="http://www.w3.org/2000/svg">
<g clip-path="url(#clip0_1447_2999)">
<path fill-rule="evenodd" clip-rule="evenodd" d="M8.00002 0C12.4183 0 16 3.58174 16 8.00002C16 12.4183 12.4183 16 8.00002 16C3.58174 16 0 12.4183 0 8.00002C0 3.58174 3.58174 0 8.00002 0ZM13.0182 3.4241C12.6559 2.00328 10.3 1.53621 8.07027 2.32832C6.74333 2.79979 5.30681 3.53968 4.27393 4.50578C3.04582 5.65449 2.84998 6.65427 2.93071 7.07204C3.14407 8.17661 4.33163 8.99451 5.26295 9.63593C5.57452 9.85052 5.85741 10.0454 6.06555 10.2246V10.2289C5.82073 10.3494 4.02875 11.2563 3.60939 12.1834C3.16689 13.1615 3.67983 13.8634 4.0194 13.9579C5.07157 14.2506 6.15126 13.7241 6.73149 12.8586C7.29144 12.0234 7.24482 10.9448 7.00148 10.4083C7.33715 10.3198 7.72848 10.2801 8.2258 10.3382C9.62914 10.5021 9.9045 11.3784 9.85185 11.745C9.79924 12.1118 9.50488 12.3134 9.40648 12.3743C9.30803 12.4352 9.27801 12.4562 9.2863 12.5015C9.29822 12.5673 9.34378 12.5648 9.4277 12.5506C9.5432 12.5312 10.1646 12.2523 10.1911 11.5754C10.225 10.716 9.40137 9.75457 7.94305 9.77969C7.34245 9.79005 6.96479 9.84718 6.69201 9.9487C6.67184 9.92572 6.65131 9.90287 6.63009 9.88024C6.35186 9.58339 6.00076 9.31335 5.65035 9.04384C4.86529 8.44002 4.08366 7.83884 4.13253 6.94478C4.15823 6.47467 4.32163 5.23676 7.33505 3.73521C9.80356 2.50516 11.7797 2.84364 12.1212 3.59381C12.609 4.66552 11.0651 6.65747 8.50151 6.94478C7.52481 7.05428 7.01055 6.67573 6.88263 6.53476C6.74793 6.38635 6.72787 6.37966 6.6776 6.4075C6.59689 6.45219 6.64605 6.58001 6.67624 6.65849L6.6776 6.66202C6.75412 6.86121 7.06822 7.21445 7.60371 7.39015C8.07475 7.54475 9.2215 7.62968 10.6083 7.09326C12.1615 6.49243 13.3744 4.82113 13.0182 3.4241ZM6.39356 11.8605C6.51377 11.4969 6.52655 11.0954 6.41015 10.6648C6.38542 10.6785 6.361 10.6918 6.33698 10.7047L6.33826 10.7072C6.33826 10.7072 5.50409 11.1013 4.92433 11.7142C4.38542 12.2838 4.23479 12.9988 4.5355 13.1731C4.81397 13.3346 5.4634 13.1429 5.92821 12.6358C6.08059 12.4696 6.205 12.2895 6.29772 12.0971C6.31626 12.0587 6.33355 12.0197 6.34952 11.9803C6.36548 11.9408 6.3802 11.9008 6.39356 11.8605Z" fill="#CD679A"/>
</g>
<defs>
<clipPath id="clip0_1447_2999">
<rect width="16" height="16" fill="white"/>
</clipPath>
</defs>
</svg>
