<svg width="20" height="20" viewBox="0 0 20 20" fill="none" xmlns="http://www.w3.org/2000/svg">
<path fill-rule="evenodd" clip-rule="evenodd" d="M8 1.5C4.41015 1.5 1.5 4.41015 1.5 8C1.5 11.5899 4.41015 14.5 8 14.5C9.43409 14.5 10.7597 14.0356 11.8347 13.2489L16.2928 17.7071L17.7071 16.2929L13.2489 11.8347C14.0356 10.7598 14.5 9.43412 14.5 8C14.5 4.41015 11.5899 1.5 8 1.5ZM2.5 8C2.5 4.96243 4.96243 2.5 8 2.5C11.0376 2.5 13.5 4.96243 13.5 8C13.5 11.0376 11.0376 13.5 8 13.5C4.96243 13.5 2.5 11.0376 2.5 8Z" fill="#FF00FF"/>
</svg>
