<svg width="20" height="20" viewBox="0 0 20 20" fill="none" xmlns="http://www.w3.org/2000/svg">
<path fill-rule="evenodd" clip-rule="evenodd" d="M10.0011 0C4.48371 0 0.0100098 4.47654 0.0100098 9.99988C0.0100098 15.5219 4.48371 20 10.0011 20C15.5183 20 19.9913 15.5219 19.9913 9.99988C19.9913 4.47654 15.5183 0 10.0011 0Z" fill="url(#paint0_linear)"/>
<path fill-rule="evenodd" clip-rule="evenodd" d="M15.2185 13.8487C14.2704 14.8954 12.5711 16.5237 12.4989 16.5937C12.2758 16.8067 11.9886 16.9134 11.7023 16.9134C11.397 16.9134 11.0942 16.7933 10.8675 16.5561C10.4264 16.0937 10.4432 15.3628 10.9039 14.9211C10.9207 14.9043 12.6156 13.2806 13.5076 12.2939C13.9294 11.8277 14.1417 11.2292 14.1041 10.6114C14.0641 9.95699 13.749 9.34267 13.2156 8.8818C12.5153 8.27588 11.1324 8.14118 10.2676 8.91822C9.7525 9.37983 9.12828 10.0598 9.12248 10.0666C8.68943 10.5362 7.96024 10.567 7.49068 10.1356C7.02186 9.70353 6.98991 8.97155 7.42185 8.50143C7.45059 8.46983 8.12749 7.73267 8.72668 7.19526C10.3693 5.7197 13.06 5.69032 14.725 7.13118C15.7331 8.00291 16.3307 9.18983 16.4088 10.4714C16.485 11.7159 16.0612 12.9159 15.2185 13.8487ZM8.23812 13.9311C7.16925 13.9311 6.10198 13.5771 5.28263 12.8678C4.27493 11.9964 3.67734 10.8104 3.59853 9.52785C3.52391 8.2839 3.94598 7.08402 4.79 6.1518C5.73726 5.10415 7.43678 3.47563 7.50844 3.40674C7.96924 2.96489 8.6993 2.98254 9.14036 3.4439C9.58057 3.90587 9.5649 4.63773 9.10385 5.07884C9.08646 5.0955 7.39274 6.71896 6.50013 7.70489C6.07842 8.17291 5.86566 8.77007 5.90328 9.38723C5.94361 10.0423 6.25875 10.6567 6.79158 11.118C7.49265 11.7253 8.87518 11.8579 9.74029 11.0824C10.2549 10.6193 10.8797 9.93983 10.886 9.93316C11.3173 9.46254 12.0483 9.43242 12.5169 9.86513C12.9861 10.2967 13.0175 11.0292 12.5858 11.4993C12.5572 11.5292 11.8794 12.266 11.2809 12.804C10.4469 13.554 9.34178 13.9311 8.23812 13.9311Z" fill="white"/>
<defs>
<linearGradient id="paint0_linear" x1="9.98778" y1="0.259885" x2="10.0007" y2="20" gradientUnits="userSpaceOnUse">
<stop stop-color="#00AAFF"/>
<stop offset="1" stop-color="#2255FF"/>
</linearGradient>
</defs>
</svg>
