<svg width="16" height="16" viewBox="0 0 16 16" fill="none" xmlns="http://www.w3.org/2000/svg">
<g clip-path="url(#clip0_1447_3117)">
<path fill-rule="evenodd" clip-rule="evenodd" d="M8.0007 0C3.58677 0 0.0078125 3.58123 0.0078125 7.9999C0.0078125 12.4175 3.58677 16 8.0007 16C12.4144 16 15.9928 12.4175 15.9928 7.9999C15.9928 3.58123 12.4144 0 8.0007 0Z" fill="url(#paint0_linear_1447_3117)"/>
<path fill-rule="evenodd" clip-rule="evenodd" d="M12.1748 11.0789C11.4163 11.9163 10.0569 13.2189 9.99915 13.2749C9.82065 13.4453 9.59084 13.5307 9.36182 13.5307C9.11761 13.5307 8.87537 13.4346 8.69401 13.2448C8.34115 12.8749 8.35457 12.2902 8.72311 11.9368C8.73653 11.9234 10.0925 10.6244 10.8061 9.83507C11.1436 9.46213 11.3134 8.98332 11.2833 8.4891C11.2513 7.96554 10.9992 7.47408 10.5724 7.10539C10.0123 6.62065 8.90595 6.5129 8.21406 7.13453C7.802 7.50381 7.30262 8.04781 7.29798 8.05324C6.95154 8.42895 6.36819 8.45354 5.99254 8.10845C5.61749 7.76277 5.59193 7.17719 5.93748 6.8011C5.96047 6.77581 6.50199 6.18608 6.98134 5.75616C8.29547 4.57571 10.448 4.55221 11.78 5.7049C12.5865 6.40228 13.0645 7.35181 13.1271 8.3771C13.188 9.37265 12.8489 10.3327 12.1748 11.0789ZM6.5905 11.1448C5.7354 11.1448 4.88158 10.8616 4.2261 10.2942C3.41994 9.59705 2.94187 8.64831 2.87882 7.62223C2.81913 6.62707 3.15678 5.66717 3.832 4.92139C4.58981 4.08327 5.94942 2.78045 6.00675 2.72534C6.37539 2.37186 6.95944 2.38598 7.31229 2.75507C7.66445 3.12465 7.65192 3.71013 7.28308 4.06302C7.26917 4.07635 5.9142 5.37512 5.2001 6.16386C4.86274 6.53828 4.69253 7.01601 4.72262 7.50974C4.75489 8.03379 5.007 8.52534 5.43326 8.89433C5.99412 9.38016 7.10014 9.48623 7.79224 8.86589C8.2039 8.49542 8.70377 7.95181 8.70881 7.94648C9.05387 7.56998 9.6386 7.54589 10.0136 7.89206C10.3889 8.23734 10.414 8.82332 10.0686 9.19942C10.0457 9.22332 9.50352 9.81275 9.02476 10.2432C8.35753 10.8432 7.47342 11.1448 6.5905 11.1448Z" fill="white"/>
</g>
<defs>
<linearGradient id="paint0_linear_1447_3117" x1="7.99003" y1="0.207908" x2="8.00033" y2="16" gradientUnits="userSpaceOnUse">
<stop stop-color="#00AAFF"/>
<stop offset="1" stop-color="#2255FF"/>
</linearGradient>
<clipPath id="clip0_1447_3117">
<rect width="16" height="16" fill="white"/>
</clipPath>
</defs>
</svg>
