<svg width="16" height="16" viewBox="0 0 16 16" fill="none" xmlns="http://www.w3.org/2000/svg">
<g clip-path="url(#clip0_1447_3117)">
<path fill-rule="evenodd" clip-rule="evenodd" d="M8.0007 0C3.58677 0 0.0078125 3.58123 0.0078125 7.9999C0.0078125 12.4175 3.58677 16 8.0007 16C12.4144 16 15.9928 12.4175 15.9928 7.9999C15.9928 3.58123 12.4144 0 8.0007 0Z" fill="url(#paint0_linear_1447_3117)"/>
<path fill-rule="evenodd" clip-rule="evenodd" d="M12.1748 11.079C11.4163 11.9163 10.0569 13.2189 9.99915 13.2749C9.82065 13.4454 9.59084 13.5307 9.36182 13.5307C9.11761 13.5307 8.87537 13.4346 8.69401 13.2449C8.34115 12.8749 8.35457 12.2902 8.72311 11.9369C8.73653 11.9234 10.0925 10.6245 10.8061 9.83513C11.1436 9.46219 11.3134 8.98338 11.2833 8.48916C11.2513 7.9656 10.9992 7.47414 10.5724 7.10545C10.0123 6.62071 8.90595 6.51296 8.21406 7.13459C7.802 7.50387 7.30262 8.04787 7.29798 8.05331C6.95154 8.42901 6.36819 8.4536 5.99254 8.10851C5.61749 7.76284 5.59193 7.17726 5.93748 6.80116C5.96047 6.77587 6.50199 6.18614 6.98134 5.75622C8.29547 4.57577 10.448 4.55227 11.78 5.70496C12.5865 6.40234 13.0645 7.35187 13.1271 8.37716C13.188 9.37271 12.8489 10.3327 12.1748 11.079ZM6.5905 11.1449C5.7354 11.1449 4.88158 10.8617 4.2261 10.2943C3.41994 9.59711 2.94187 8.64837 2.87882 7.62229C2.81913 6.62713 3.15678 5.66723 3.832 4.92145C4.58981 4.08333 5.94942 2.78051 6.00675 2.7254C6.37539 2.37192 6.95944 2.38605 7.31229 2.75513C7.66445 3.12471 7.65192 3.71019 7.28308 4.06308C7.26917 4.07642 5.9142 5.37518 5.2001 6.16392C4.86274 6.53834 4.69253 7.01607 4.72262 7.5098C4.75489 8.03385 5.007 8.5254 5.43326 8.89439C5.99412 9.38022 7.10014 9.48629 7.79224 8.86595C8.2039 8.49548 8.70377 7.95187 8.70881 7.94654C9.05387 7.57005 9.6386 7.54595 10.0136 7.89212C10.3889 8.2374 10.414 8.82338 10.0686 9.19948C10.0457 9.22338 9.50352 9.81281 9.02476 10.2432C8.35753 10.8432 7.47342 11.1449 6.5905 11.1449Z" fill="white"/>
</g>
<defs>
<linearGradient id="paint0_linear_1447_3117" x1="7.99003" y1="0.207908" x2="8.00033" y2="16" gradientUnits="userSpaceOnUse">
<stop stop-color="#00AAFF"/>
<stop offset="1" stop-color="#2255FF"/>
</linearGradient>
<clipPath id="clip0_1447_3117">
<rect width="16" height="16" fill="white"/>
</clipPath>
</defs>
</svg>
