<svg width="20" height="20" viewBox="0 0 20 20" fill="none" xmlns="http://www.w3.org/2000/svg">
<path fill-rule="evenodd" clip-rule="evenodd" d="M0.0100098 9.99988C0.0100098 4.47654 4.48371 0 10.0011 0C15.5183 0 19.9913 4.47654 19.9913 9.99988C19.9913 15.5219 15.5183 20 10.0011 20C4.48371 20 0.0100098 15.5219 0.0100098 9.99988ZM12.5275 16.566C12.7662 16.3361 14.3255 14.8345 15.2184 13.8487C16.0611 12.9159 16.4849 11.7159 16.4088 10.4714C16.3306 9.18983 15.733 8.00291 14.7249 7.13118C13.0599 5.69032 10.3692 5.7197 8.72659 7.19526C8.1274 7.73267 7.45051 8.46983 7.42177 8.50143C6.98983 8.97155 7.02177 9.70353 7.49059 10.1356C7.96015 10.567 8.68934 10.5362 9.12239 10.0666C9.12819 10.0598 9.75242 9.37983 10.2675 8.91822C11.1324 8.14118 12.5153 8.27588 13.2155 8.8818C13.7489 9.34267 14.0641 9.95699 14.104 10.6114C14.1416 11.2292 13.9294 11.8277 13.5075 12.2939C12.6742 13.2157 11.1401 14.6934 10.9282 14.8975C10.9133 14.9119 10.9049 14.92 10.9038 14.9211C10.4431 15.3628 10.4264 16.0937 10.8674 16.5561C11.0941 16.7933 11.3969 16.9134 11.7022 16.9134C11.9885 16.9134 12.2757 16.8067 12.4989 16.5937C12.5031 16.5896 12.5128 16.5802 12.5275 16.566ZM5.28254 12.8678C6.1019 13.5771 7.16917 13.9311 8.23804 13.9311C9.3417 13.9311 10.4468 13.554 11.2809 12.804C11.8301 12.3102 12.4462 11.649 12.5659 11.5205C12.5766 11.509 12.5833 11.5018 12.5857 11.4993C13.0174 11.0292 12.9861 10.2967 12.5169 9.86513C12.0482 9.43242 11.3172 9.46254 10.8859 9.93316C10.8857 9.9334 10.8846 9.93457 10.8827 9.9366C10.8336 9.9897 10.2358 10.6364 9.74021 11.0824C8.8751 11.8579 7.49257 11.7253 6.7915 11.118C6.25866 10.6567 5.94353 10.0423 5.90319 9.38723C5.86558 8.77007 6.07834 8.17291 6.50004 7.70489C7.39266 6.71896 9.08638 5.0955 9.10377 5.07884C9.56482 4.63773 9.58048 3.90587 9.14028 3.4439C8.69921 2.98254 7.96916 2.96489 7.50835 3.40674C7.50666 3.40837 7.50406 3.41086 7.50059 3.4142C7.35686 3.5522 5.71481 5.12888 4.78992 6.1518C3.9459 7.08402 3.52382 8.2839 3.59844 9.52785C3.67726 10.8104 4.27485 11.9964 5.28254 12.8678Z" fill="#FF00FF"/>
</svg>
