<svg width="16" height="16" viewBox="0 0 16 16" fill="none" xmlns="http://www.w3.org/2000/svg">
<g clip-path="url(#clip0_2179_3658)">
<path fill-rule="evenodd" clip-rule="evenodd" d="M0.0078125 7.9999C0.0078125 3.58123 3.58677 0 8.0007 0C12.4144 0 15.9928 3.58123 15.9928 7.9999C15.9928 12.4175 12.4144 16 8.0007 16C3.58677 16 0.0078125 12.4175 0.0078125 7.9999ZM10.0218 13.2528C10.2128 13.0689 11.4602 11.8676 12.1745 11.079C12.8487 10.3327 13.1877 9.3727 13.1268 8.37714C13.0643 7.35186 12.5862 6.40233 11.7797 5.70495C10.4478 4.55226 8.2952 4.57576 6.98108 5.75621C6.50173 6.18613 5.96021 6.77586 5.93722 6.80115C5.59167 7.17724 5.61722 7.76282 5.99228 8.1085C6.36793 8.45359 6.95128 8.429 7.29772 8.05329C7.30236 8.04786 7.80174 7.50386 8.2138 7.13458C8.90569 6.51295 10.012 6.6207 10.5722 7.10544C10.9989 7.47413 11.251 7.96559 11.283 8.48914C11.3131 8.98337 11.1433 9.46218 10.8058 9.83512C10.1392 10.5725 8.91203 11.7546 8.74239 11.918C8.73044 11.9295 8.72285 11.9368 8.72285 11.9368C8.35431 12.2902 8.34089 12.8749 8.69374 13.2449C8.8751 13.4346 9.11735 13.5307 9.36156 13.5307C9.59058 13.5307 9.82039 13.4454 9.99889 13.2749C10.0022 13.2717 10.01 13.2642 10.0218 13.2528ZM4.22584 10.2943C4.88132 10.8617 5.73514 11.1448 6.59024 11.1448C7.47316 11.1448 8.35727 10.8432 9.0245 10.2432C9.4639 9.84818 9.95675 9.31919 10.0525 9.21642C10.0611 9.20722 10.0665 9.20143 10.0684 9.19947C10.4137 8.82337 10.3886 8.23739 10.0133 7.89211C9.63834 7.54593 9.0536 7.57003 8.70854 7.94653C8.70854 7.94653 8.70749 7.94766 8.70598 7.9493C8.66658 7.99192 8.18838 8.5092 7.79197 8.86594C7.09988 9.48628 5.99386 9.38021 5.433 8.89438C5.00674 8.52539 4.75463 8.03384 4.72236 7.50979C4.69227 7.01606 4.86248 6.53833 5.19984 6.16391C5.91393 5.37517 7.26891 4.0764 7.28282 4.06307C7.65166 3.71018 7.66419 3.1247 7.31203 2.75512C6.95917 2.38603 6.37513 2.37191 6.00649 2.72539C6.00649 2.72539 6.00307 2.72868 6.00029 2.73134C5.88545 2.84162 4.5717 4.10306 3.83174 4.92144C3.15652 5.66722 2.81886 6.62712 2.87856 7.62228C2.94161 8.64835 3.41968 9.59709 4.22584 10.2943Z" fill="#FF00FF"/>
</g>
<defs>
<clipPath id="clip0_2179_3658">
<rect width="16" height="16" fill="white"/>
</clipPath>
</defs>
</svg>
