<svg width="20" height="20" viewBox="0 0 20 20" fill="none" xmlns="http://www.w3.org/2000/svg">
<path fill-rule="evenodd" clip-rule="evenodd" d="M4.35484 1.84667L9.97984 1.25L15.6048 1.84667L19.9597 7.71225L9.97984 19.3726L0 7.71225L4.35484 1.84667Z" fill="#FDB300"/>
<path fill-rule="evenodd" clip-rule="evenodd" d="M4.04229 7.71225L9.97979 19.3727L0 7.71225H4.04229Z" fill="#EA6C00"/>
<path fill-rule="evenodd" clip-rule="evenodd" d="M15.9174 7.71225L9.97993 19.3727L19.9597 7.71225H15.9174Z" fill="#EA6C00"/>
<path fill-rule="evenodd" clip-rule="evenodd" d="M4.04224 7.71225H15.9172L9.97974 19.3727L4.04224 7.71225Z" fill="#FDAD00"/>
<path fill-rule="evenodd" clip-rule="evenodd" d="M9.97974 1.25L4.35474 1.84657L4.04224 7.71218L9.97974 1.25Z" fill="#FDD231"/>
<path fill-rule="evenodd" clip-rule="evenodd" d="M9.97998 1.25L15.605 1.84657L15.9175 7.71218L9.97998 1.25Z" fill="#FDD231"/>
<path fill-rule="evenodd" clip-rule="evenodd" d="M19.9597 7.71219L15.6049 1.84657L15.9174 7.71219H19.9597Z" fill="#FDAD00"/>
<path fill-rule="evenodd" clip-rule="evenodd" d="M0 7.71219L4.35479 1.84657L4.04229 7.71219H0Z" fill="#FDAD00"/>
<path fill-rule="evenodd" clip-rule="evenodd" d="M9.97974 1.25L4.04224 7.71218H15.9172L9.97974 1.25Z" fill="#FEEEB7"/>
</svg>
