<svg width="20" height="20" viewBox="0 0 20 20" fill="none" xmlns="http://www.w3.org/2000/svg">
<path fill-rule="evenodd" clip-rule="evenodd" d="M10.0497 1.73999H9.95033L4.44792 2.32366L0 8.31461L10 19.9985L20 8.31461L15.5521 2.32366L10.0497 1.73999ZM8.80948 2.80797L4.95731 3.21584L1.53832 7.8208H4.2037L8.80948 2.80797ZM4.14856 8.8208H1.67178L7.7857 15.9636L4.14856 8.8208ZM5.20484 8.8208H14.794L9.99921 18.2361L5.20484 8.8208ZM14.5178 7.8208H5.48225L9.99921 2.90414L14.5178 7.8208ZM15.8513 8.8208L12.2164 15.9594L18.3266 8.8208H15.8513ZM18.4602 7.8208H15.7963L11.1904 2.80795L15.042 3.21584L18.4602 7.8208Z" fill="#FF00FF"/>
</svg>
