<svg width="16" height="16" viewBox="0 0 16 16" fill="none" xmlns="http://www.w3.org/2000/svg">
<path fill-rule="evenodd" clip-rule="evenodd" d="M3.48387 1.47734L7.98387 1L12.4839 1.47734L15.9677 6.1698L7.98387 15.4981L0 6.1698L3.48387 1.47734Z" fill="#FDB300"/>
<path fill-rule="evenodd" clip-rule="evenodd" d="M3.23383 6.1698L7.98383 15.4981L0 6.1698H3.23383Z" fill="#EA6C00"/>
<path fill-rule="evenodd" clip-rule="evenodd" d="M12.7339 6.1698L7.98394 15.4981L15.9678 6.1698H12.7339Z" fill="#EA6C00"/>
<path fill-rule="evenodd" clip-rule="evenodd" d="M3.23389 6.1698H12.7339L7.98389 15.4981L3.23389 6.1698Z" fill="#FDAD00"/>
<path fill-rule="evenodd" clip-rule="evenodd" d="M7.98389 1L3.48389 1.47726L3.23389 6.16975L7.98389 1Z" fill="#FDD231"/>
<path fill-rule="evenodd" clip-rule="evenodd" d="M7.98389 1L12.4839 1.47726L12.7339 6.16975L7.98389 1Z" fill="#FDD231"/>
<path fill-rule="evenodd" clip-rule="evenodd" d="M15.9678 6.16979L12.4839 1.47729L12.7339 6.16979H15.9678Z" fill="#FDAD00"/>
<path fill-rule="evenodd" clip-rule="evenodd" d="M0 6.16979L3.48383 1.47729L3.23383 6.16979H0Z" fill="#FDAD00"/>
<path fill-rule="evenodd" clip-rule="evenodd" d="M7.98389 1L3.23389 6.16975H12.7339L7.98389 1Z" fill="#FEEEB7"/>
</svg>
