<svg width="20" height="20" viewBox="0 0 20 20" fill="none" xmlns="http://www.w3.org/2000/svg">
<path fill-rule="evenodd" clip-rule="evenodd" d="M1.63718 8.87185C1.58795 9.24089 1.56253 9.61747 1.56253 9.99999C1.56253 14.6668 5.34573 18.45 10.0125 18.45C10.3951 18.45 10.7716 18.4246 11.1407 18.3753C11.895 18.7818 12.758 19.0125 13.675 19.0125C16.6297 19.0125 19.025 16.6172 19.025 13.6625C19.025 12.7456 18.7943 11.8826 18.3879 11.1283C18.4371 10.7592 18.4625 10.3825 18.4625 9.99999C18.4625 5.33318 14.6793 1.54999 10.0125 1.54999C9.62999 1.54999 9.25339 1.57541 8.88432 1.62465C8.13 1.21816 7.26694 0.987488 6.35 0.987488C3.39528 0.987488 1 3.38276 1 6.33749C1 7.25444 1.23068 8.11752 1.63718 8.87185ZM6.93126 8.9625C7.13593 9.31327 7.41813 9.61257 7.75626 9.8375L7.76876 9.7875C8.22091 10.079 8.70024 10.326 9.20001 10.525C9.75626 10.7625 10.1938 10.9563 10.5 11.1188C10.7597 11.2503 10.9962 11.4234 11.2 11.6313C11.3582 11.8003 11.4435 12.0248 11.4375 12.2563C11.4447 12.4134 11.4138 12.5699 11.3474 12.7124C11.281 12.855 11.1811 12.9794 11.0563 13.075C10.7257 13.2986 10.3293 13.4043 9.93126 13.375C9.70638 13.3792 9.48183 13.3561 9.26251 13.3063C9.08478 13.2689 8.91106 13.2144 8.74376 13.1438C8.59203 13.0876 8.41504 13.001 8.19462 12.8933C8.16989 12.8812 8.14461 12.8689 8.11876 12.8563C7.91206 12.7486 7.68304 12.6908 7.45001 12.6875C7.2416 12.6774 7.03751 12.7492 6.88126 12.8875C6.806 12.9583 6.74735 13.0449 6.70953 13.1411C6.67171 13.2373 6.65565 13.3406 6.66251 13.4438C6.65872 13.6394 6.71548 13.8315 6.82501 13.9938C6.96419 14.1659 7.14189 14.3029 7.34376 14.3938C8.13172 14.735 8.98556 14.8972 9.84376 14.8688C10.4714 14.8813 11.0962 14.7796 11.6875 14.5688C12.1875 14.3992 12.6237 14.0808 12.9375 13.6563C13.2434 13.2149 13.399 12.6867 13.3813 12.15C13.3927 11.7119 13.2824 11.2792 13.0625 10.9C12.8389 10.5385 12.5379 10.2312 12.1813 10C11.7336 9.71517 11.2583 9.47645 10.7625 9.2875L10.6 9.225C10.075 9.0125 9.70626 8.84375 9.45001 8.71875C9.21622 8.61043 9.00436 8.46001 8.82501 8.275C8.67841 8.11969 8.59775 7.91357 8.60001 7.7C8.59187 7.53583 8.62822 7.37251 8.70523 7.2273C8.78224 7.08208 8.89704 6.96036 9.03751 6.875C9.37128 6.68237 9.75235 6.5871 10.1375 6.6C10.4347 6.59526 10.7312 6.63101 11.0188 6.70625C11.3279 6.79644 11.6306 6.9071 11.925 7.0375C12.0467 7.09312 12.1787 7.12292 12.3125 7.125C12.4081 7.12792 12.5032 7.11048 12.5916 7.07384C12.68 7.03721 12.7595 6.98221 12.825 6.9125C12.8952 6.83598 12.9495 6.74633 12.9849 6.64872C13.0203 6.55112 13.0361 6.44747 13.0313 6.34375C13.0339 6.14592 12.9626 5.95423 12.8313 5.80625C12.6592 5.62182 12.4446 5.48233 12.2063 5.4C11.9438 5.30869 11.6741 5.23969 11.4 5.19375C11.0156 5.1328 10.6268 5.10353 10.2375 5.10625C9.64368 5.10303 9.05376 5.2024 8.49376 5.4C7.97826 5.57433 7.51722 5.88026 7.15626 6.2875C6.81319 6.69642 6.63098 7.21639 6.64376 7.75C6.63349 8.17219 6.73253 8.58987 6.93126 8.9625Z" fill="#FF00FF"/>
</svg>
