<svg width="16" height="16" viewBox="0 0 16 16" fill="none" xmlns="http://www.w3.org/2000/svg">
<g clip-path="url(#clip0_1447_3041)">
<path d="M1.69339 11.7962C2.62259 11.7962 3.37359 11.0446 3.37359 10.1146V8.43311H1.69339C0.764184 8.43311 0.0131836 9.1847 0.0131836 10.1146C0.0131836 11.0446 0.764184 11.7962 1.69339 11.7962Z" fill="#E01E5A"/>
<path d="M5.89388 8.43313C4.96468 8.43313 4.21368 9.18472 4.21368 10.1147V14.3185C4.21368 15.2484 4.96468 16 5.89388 16C6.82309 16 7.57409 15.2484 7.57409 14.3185V10.1147C7.57409 9.18472 6.82309 8.43313 5.89388 8.43313Z" fill="#E01E5A"/>
<path d="M4.21341 1.68153C4.21341 2.61147 4.96441 3.36306 5.89362 3.36306H7.57382V1.68153C7.57382 0.751594 6.82282 0 5.89362 0C4.96441 0 4.21341 0.751594 4.21341 1.68153Z" fill="#36C5F0"/>
<path d="M7.57365 5.89814C7.57365 4.96821 6.82265 4.21661 5.89344 4.21661H1.6802C0.751 4.21661 0 4.96821 0 5.89814C0 6.82808 0.751 7.57968 1.6802 7.57968H5.89344C6.82265 7.57968 7.57365 6.82808 7.57365 5.89814Z" fill="#36C5F0"/>
<path d="M10.1065 7.57963C11.0357 7.57963 11.7867 6.82804 11.7867 5.8981V1.68153C11.7867 0.751594 11.0357 0 10.1065 0C9.17727 0 8.42627 0.751594 8.42627 1.68153V5.8981C8.42627 6.82804 9.17727 7.57963 10.1065 7.57963Z" fill="#2EB67D"/>
<path d="M14.307 4.21661C13.3778 4.21661 12.6268 4.96821 12.6268 5.89814V7.57968H14.307C15.2362 7.57968 15.9872 6.82808 15.9872 5.89814C15.9872 4.96821 15.2362 4.21661 14.307 4.21661Z" fill="#2EB67D"/>
<path d="M8.42627 10.1146C8.42627 11.0446 9.17727 11.7962 10.1065 11.7962H14.3197C15.2489 11.7962 15.9999 11.0446 15.9999 10.1146C15.9999 9.1847 15.2489 8.43311 14.3197 8.43311H10.1065C9.17727 8.43311 8.42627 9.1847 8.42627 10.1146Z" fill="#ECB22E"/>
<path d="M11.7867 14.3185C11.7867 13.3885 11.0357 12.6369 10.1065 12.6369H8.42629V14.3185C8.42629 15.2484 9.17729 16 10.1065 16C11.0357 16 11.7867 15.2484 11.7867 14.3185Z" fill="#ECB22E"/>
</g>
<defs>
<clipPath id="clip0_1447_3041">
<rect width="16" height="16" fill="white"/>
</clipPath>
</defs>
</svg>
