<svg width="20" height="20" viewBox="0 0 20 20" fill="none" xmlns="http://www.w3.org/2000/svg">
<g clip-path="url(#clip0)">
<path fill-rule="evenodd" clip-rule="evenodd" d="M2.11661 14.7452C3.27812 14.7452 4.21687 13.8057 4.21687 12.6433V10.5414H2.11661C0.955108 10.5414 0.0163574 11.4809 0.0163574 12.6433C0.0163574 13.8057 0.955108 14.7452 2.11661 14.7452ZM7.36723 10.5414C6.20573 10.5414 5.26698 11.4809 5.26698 12.6434V17.8981C5.26698 19.0606 6.20573 20.0001 7.36723 20.0001C8.52874 20.0001 9.46749 19.0606 9.46749 17.8981V12.6434C9.46749 11.4809 8.52874 10.5414 7.36723 10.5414Z" fill="#E01E5A"/>
<path fill-rule="evenodd" clip-rule="evenodd" d="M5.26677 2.10192C5.26677 3.26434 6.20551 4.20383 7.36702 4.20383H9.46727V2.10192C9.46727 0.939493 8.52852 0 7.36702 0C6.20551 0 5.26677 0.939493 5.26677 2.10192ZM9.46706 7.37268C9.46706 6.21026 8.52831 5.27077 7.3668 5.27077H2.10026C0.93875 5.27077 0 6.21026 0 7.37268C0 8.5351 0.93875 9.47459 2.10026 9.47459H7.3668C8.52831 9.47459 9.46706 8.5351 9.46706 7.37268Z" fill="#36C5F0"/>
<path fill-rule="evenodd" clip-rule="evenodd" d="M12.6332 9.47454C13.7947 9.47454 14.7335 8.53505 14.7335 7.37262V2.10191C14.7335 0.939493 13.7947 0 12.6332 0C11.4717 0 10.533 0.939493 10.533 2.10191V7.37262C10.533 8.53505 11.4717 9.47454 12.6332 9.47454ZM17.8838 5.27077C16.7223 5.27077 15.7836 6.21026 15.7836 7.37268V9.47459H17.8838C19.0454 9.47459 19.9841 8.5351 19.9841 7.37268C19.9841 6.21026 19.0454 5.27077 17.8838 5.27077Z" fill="#2EB67D"/>
<path fill-rule="evenodd" clip-rule="evenodd" d="M10.533 12.6433C10.533 13.8057 11.4717 14.7452 12.6332 14.7452H17.8998C19.0613 14.7452 20 13.8057 20 12.6433C20 11.4809 19.0613 10.5414 17.8998 10.5414H12.6332C11.4717 10.5414 10.533 11.4809 10.533 12.6433ZM14.7335 17.8981C14.7335 16.7357 13.7947 15.7962 12.6332 15.7962H10.533V17.8981C10.533 19.0605 11.4717 20 12.6332 20C13.7947 20 14.7335 19.0605 14.7335 17.8981Z" fill="#ECB22E"/>
</g>
<defs>
<clipPath id="clip0">
<rect width="20" height="20" fill="white"/>
</clipPath>
</defs>
</svg>
