<svg width="16" height="16" viewBox="0 0 16 16" fill="none" xmlns="http://www.w3.org/2000/svg">
<g clip-path="url(#clip0_1447_1730)">
<path d="M5.89363 3.36306C4.96443 3.36306 4.21343 2.61146 4.21343 1.68153C4.21343 0.751593 4.96443 0 5.89363 0C6.82283 0 7.57383 0.751593 7.57383 1.68153V3.36306H5.89363Z" fill="#FF00FF"/>
<path d="M5.89343 4.2166C6.82263 4.2166 7.57363 4.9682 7.57363 5.89813C7.57363 6.82807 6.82263 7.57966 5.89343 7.57966H1.6802C0.750999 7.57966 0 6.82807 0 5.89813C0 4.9682 0.750999 4.2166 1.6802 4.2166H5.89343Z" fill="#FF00FF"/>
<path d="M3.3734 10.1146C3.3734 11.0446 2.6224 11.7962 1.6932 11.7962C0.763997 11.7962 0.0129985 11.0446 0.0129985 10.1146C0.0129985 9.1847 0.763997 8.43311 1.6932 8.43311H3.3734V10.1146Z" fill="#FF00FF"/>
<path d="M4.21349 10.1146C4.21349 9.1847 4.96448 8.43311 5.89369 8.43311C6.82289 8.43311 7.57389 9.1847 7.57389 10.1146V14.3185C7.57389 15.2484 6.82289 16 5.89369 16C4.96448 16 4.21349 15.2484 4.21349 14.3185V10.1146Z" fill="#FF00FF"/>
<path d="M10.1066 7.57961C11.0358 7.57961 11.7868 6.82802 11.7868 5.89808V1.68153C11.7868 0.751592 11.0358 0 10.1066 0C9.17737 0 8.42636 0.751592 8.42636 1.68153V5.89808C8.42636 6.82802 9.17737 7.57961 10.1066 7.57961Z" fill="#FF00FF"/>
<path d="M14.307 4.2166C13.3778 4.2166 12.6268 4.9682 12.6268 5.89813V7.57966H14.307C15.2362 7.57966 15.9872 6.82807 15.9872 5.89813C15.9872 4.9682 15.2362 4.2166 14.307 4.2166Z" fill="#FF00FF"/>
<path d="M10.1066 11.7962C9.17737 11.7962 8.42636 11.0446 8.42636 10.1146C8.42636 9.1847 9.17737 8.43311 10.1066 8.43311H14.3198C15.249 8.43311 16 9.1847 16 10.1146C16 11.0446 15.249 11.7962 14.3198 11.7962H10.1066Z" fill="#FF00FF"/>
<path d="M10.1066 12.6369C11.0358 12.6369 11.7868 13.3885 11.7868 14.3184C11.7868 15.2484 11.0358 16 10.1066 16C9.17736 16 8.42636 15.2484 8.42636 14.3184V12.6369H10.1066Z" fill="#FF00FF"/>
</g>
<defs>
<clipPath id="clip0_1447_1730">
<rect width="16" height="16" fill="white"/>
</clipPath>
</defs>
</svg>
