<svg width="20" height="20" viewBox="0 0 20 20" fill="none" xmlns="http://www.w3.org/2000/svg">
<g clip-path="url(#clip0)">
<path fill-rule="evenodd" clip-rule="evenodd" d="M7.36703 4.20382C6.20553 4.20382 5.26678 3.26433 5.26678 2.10191C5.26678 0.939491 6.20553 0 7.36703 0C8.52853 0 9.46728 0.939491 9.46728 2.10191V4.20382H7.36703ZM7.36679 5.27075C8.52829 5.27075 9.46704 6.21024 9.46704 7.37266C9.46704 8.53508 8.52829 9.47457 7.36679 9.47457H2.10025C0.938748 9.47457 0 8.53508 0 7.37266C0 6.21024 0.938748 5.27075 2.10025 5.27075H7.36679ZM4.21675 12.6433C4.21675 13.8057 3.278 14.7452 2.1165 14.7452C0.954996 14.7452 0.0162482 13.8057 0.0162482 12.6433C0.0162482 11.4809 0.954996 10.5414 2.1165 10.5414H4.21675V12.6433ZM5.26686 12.6433C5.26686 11.4809 6.20561 10.5414 7.36711 10.5414C8.52861 10.5414 9.46736 11.4809 9.46736 12.6433V17.8981C9.46736 19.0605 8.52861 20 7.36711 20C6.20561 20 5.26686 19.0605 5.26686 17.8981V12.6433ZM12.6332 9.47451C13.7947 9.47451 14.7335 8.53503 14.7335 7.37261V2.10191C14.7335 0.93949 13.7947 0 12.6332 0C11.4717 0 10.533 0.93949 10.533 2.10191V7.37261C10.533 8.53503 11.4717 9.47451 12.6332 9.47451ZM17.8838 5.27075C16.7223 5.27075 15.7836 6.21024 15.7836 7.37266V9.47457H17.8838C19.0453 9.47457 19.9841 8.53508 19.9841 7.37266C19.9841 6.21024 19.0453 5.27075 17.8838 5.27075ZM12.6332 14.7452C11.4717 14.7452 10.533 13.8057 10.533 12.6433C10.533 11.4809 11.4717 10.5414 12.6332 10.5414H17.8997C19.0612 10.5414 20 11.4809 20 12.6433C20 13.8057 19.0612 14.7452 17.8997 14.7452H12.6332ZM12.6332 15.7961C13.7947 15.7961 14.7335 16.7356 14.7335 17.898C14.7335 19.0605 13.7947 20 12.6332 20C11.4717 20 10.533 19.0605 10.533 17.898V15.7961H12.6332Z" fill="#FF00FF"/>
</g>
<defs>
<clipPath id="clip0">
<rect width="20" height="20" fill="white"/>
</clipPath>
</defs>
</svg>
