<svg width="16" height="16" viewBox="0 0 16 16" fill="none" xmlns="http://www.w3.org/2000/svg">
<path fill-rule="evenodd" clip-rule="evenodd" d="M6.71264 11.2188L6.62069 9.4375L6.71264 5.03125C6.71264 4.876 6.83623 4.75 6.98851 4.75C7.14078 4.75 7.26437 4.876 7.26437 5.03125L7.35632 9.4375L7.26437 11.2188C7.26437 11.374 7.14078 11.5 6.98851 11.5C6.83623 11.5 6.71264 11.374 6.71264 11.2188ZM5.6092 11.2188L5.51724 9.4375L5.6092 6.15625C5.6092 6.001 5.73278 5.875 5.88506 5.875C6.03733 5.875 6.16092 6.001 6.16092 6.15625L6.25287 9.4375L6.16092 11.2188C6.16092 11.374 6.03733 11.5 5.88506 11.5C5.73278 11.5 5.6092 11.374 5.6092 11.2188ZM4.50575 11.2188L4.41379 9.4375L4.50575 5.78125C4.50575 5.626 4.62933 5.5 4.78161 5.5C4.93389 5.5 5.05747 5.626 5.05747 5.78125L5.14943 9.4375L5.05747 11.2188C5.05747 11.374 4.93389 11.5 4.78161 11.5C4.62933 11.5 4.50575 11.374 4.50575 11.2188ZM3.4023 11.2188L3.31034 9.4375L3.4023 6.53125C3.4023 6.376 3.52589 6.25 3.67816 6.25C3.83044 6.25 3.95402 6.376 3.95402 6.53125L4.04598 9.4375L3.95402 11.2188C3.95402 11.374 3.83044 11.5 3.67816 11.5C3.52589 11.5 3.4023 11.374 3.4023 11.2188ZM2.29885 11.2188L2.2069 9.4375L2.29885 8.03125C2.29885 7.876 2.42244 7.75 2.57471 7.75C2.72699 7.75 2.85057 7.876 2.85057 8.03125L2.94253 9.4375L2.85057 11.2188C2.85057 11.374 2.72699 11.5 2.57471 11.5C2.42244 11.5 2.29885 11.374 2.29885 11.2188ZM1.1954 11.2188L1.10345 9.4375L1.1954 7.65625C1.1954 7.501 1.31899 7.375 1.47126 7.375C1.62354 7.375 1.74713 7.501 1.74713 7.65625L1.83908 9.4375L1.74713 11.2188C1.74713 11.374 1.62354 11.5 1.47126 11.5C1.31899 11.5 1.1954 11.374 1.1954 11.2188ZM0.091954 10.4688L0 9.4375L0.091954 8.40625C0.091954 8.251 0.21554 8.125 0.367816 8.125C0.520092 8.125 0.643678 8.251 0.643678 8.40625L0.735632 9.4375L0.643678 10.4688C0.643678 10.624 0.520092 10.75 0.367816 10.75C0.21554 10.75 0.091954 10.624 0.091954 10.4688ZM13.0098 7.14637C13.2533 7.05208 13.5172 7 13.7931 7C15.0119 7 16 8.00737 16 9.25C16 10.4926 15.0119 11.5 13.7931 11.5H8.27611C7.97126 11.5 7.72414 11.2473 7.72414 10.937V4.9375C7.72414 4 9.37931 4 9.37931 4C11.2091 4 12.7266 5.36233 13.0098 7.14637Z" fill="url(#paint0_linear_1447_3119)"/>
<defs>
<linearGradient id="paint0_linear_1447_3119" x1="8.00003" y1="-15.1373" x2="8.00003" y2="17.9242" gradientUnits="userSpaceOnUse">
<stop stop-color="#F8A01D"/>
<stop offset="0.7128" stop-color="#F26E23"/>
<stop offset="1" stop-color="#EF5826"/>
</linearGradient>
</defs>
</svg>
