<svg width="20" height="20" viewBox="0 0 20 20" fill="none" xmlns="http://www.w3.org/2000/svg">
<path fill-rule="evenodd" clip-rule="evenodd" d="M8.3908 14.0234L8.27586 11.7969L8.3908 6.28906C8.3908 6.095 8.54529 5.9375 8.73563 5.9375C8.92598 5.9375 9.08046 6.095 9.08046 6.28906L9.1954 11.7969L9.08046 14.0234C9.08046 14.2175 8.92598 14.375 8.73563 14.375C8.54529 14.375 8.3908 14.2175 8.3908 14.0234ZM7.01149 14.0234L6.89655 11.7969L7.01149 7.69531C7.01149 7.50125 7.16598 7.34375 7.35632 7.34375C7.54667 7.34375 7.70115 7.50125 7.70115 7.69531L7.81609 11.7969L7.70115 14.0234C7.70115 14.2175 7.54667 14.375 7.35632 14.375C7.16598 14.375 7.01149 14.2175 7.01149 14.0234ZM5.63218 14.0234L5.51724 11.7969L5.63218 7.22656C5.63218 7.0325 5.78667 6.875 5.97701 6.875C6.16736 6.875 6.32184 7.0325 6.32184 7.22656L6.43678 11.7969L6.32184 14.0234C6.32184 14.2175 6.16736 14.375 5.97701 14.375C5.78667 14.375 5.63218 14.2175 5.63218 14.0234ZM4.25287 14.0234L4.13793 11.7969L4.25287 8.16406C4.25287 7.97 4.40736 7.8125 4.5977 7.8125C4.78805 7.8125 4.94253 7.97 4.94253 8.16406L5.05747 11.7969L4.94253 14.0234C4.94253 14.2175 4.78805 14.375 4.5977 14.375C4.40736 14.375 4.25287 14.2175 4.25287 14.0234ZM2.87356 14.0234L2.75862 11.7969L2.87356 10.0391C2.87356 9.845 3.02805 9.6875 3.21839 9.6875C3.40874 9.6875 3.56322 9.845 3.56322 10.0391L3.67816 11.7969L3.56322 14.0234C3.56322 14.2175 3.40874 14.375 3.21839 14.375C3.02805 14.375 2.87356 14.2175 2.87356 14.0234ZM1.49425 14.0234L1.37931 11.7969L1.49425 9.57031C1.49425 9.37625 1.64874 9.21875 1.83908 9.21875C2.02943 9.21875 2.18391 9.37625 2.18391 9.57031L2.29885 11.7969L2.18391 14.0234C2.18391 14.2175 2.02943 14.375 1.83908 14.375C1.64874 14.375 1.49425 14.2175 1.49425 14.0234ZM0.114943 13.0859L0 11.7969L0.114943 10.5078C0.114943 10.3137 0.269425 10.1562 0.45977 10.1562C0.650115 10.1562 0.804598 10.3137 0.804598 10.5078L0.91954 11.7969L0.804598 13.0859C0.804598 13.28 0.650115 13.4375 0.45977 13.4375C0.269425 13.4375 0.114943 13.28 0.114943 13.0859ZM16.2623 8.93297C16.5666 8.8151 16.8965 8.75 17.2414 8.75C18.7649 8.75 20 10.0092 20 11.5625C20 13.1158 18.7649 14.375 17.2414 14.375H10.3451C9.96408 14.375 9.65517 14.0591 9.65517 13.6712V6.17188C9.65517 5 11.7241 5 11.7241 5C14.0114 5 15.9083 6.70292 16.2623 8.93297Z" fill="#FF00FF"/>
</svg>
