<svg width="20" height="20" viewBox="0 0 20 20" fill="none" xmlns="http://www.w3.org/2000/svg">
<path fill-rule="evenodd" clip-rule="evenodd" d="M12.5 1.5166V18.4834L5.83707 13.625H1.5V6.37499H5.83707L12.5 1.5166ZM5.5 7.37499H2.5V12.625H5.5V7.37499ZM6.5 12.8708L11.5 16.5166V3.48338L6.5 7.12921V12.8708ZM17.858 8.03874C17.6005 7.41694 17.223 6.85197 16.7471 6.37607L17.4542 5.66896C18.0229 6.23772 18.4741 6.91294 18.7819 7.65606C19.0897 8.39917 19.2481 9.19564 19.2481 9.99999C19.2481 10.8043 19.0897 11.6008 18.7819 12.3439C18.4741 13.087 18.0229 13.7623 17.4542 14.331L16.7471 13.6239C17.223 13.148 17.6005 12.583 17.858 11.9612C18.1156 11.3394 18.2481 10.673 18.2481 9.99999C18.2481 9.32697 18.1156 8.66053 17.858 8.03874ZM14.5374 8.58578C14.7231 8.77149 14.8704 8.99197 14.9709 9.23462C15.0714 9.47727 15.1231 9.73735 15.1231 9.99999C15.1231 10.2626 15.0714 10.5227 14.9709 10.7654C14.8704 11.008 14.7231 11.2285 14.5374 11.4142L15.2445 12.1213C15.523 11.8427 15.744 11.512 15.8948 11.148C16.0455 10.7841 16.1231 10.394 16.1231 9.99999C16.1231 9.60603 16.0455 9.21592 15.8948 8.85194C15.744 8.48796 15.523 8.15725 15.2445 7.87867L14.5374 8.58578Z" fill="#FF00FF"/>
</svg>
