<svg width="16" height="16" viewBox="0 0 16 16" fill="none" xmlns="http://www.w3.org/2000/svg">
<g clip-path="url(#clip0_2224_8229)">
<path fill-rule="evenodd" clip-rule="evenodd" d="M10.25 1.49998C10.25 1.21353 10.0868 0.952091 9.82951 0.826239C9.57219 0.700386 9.26565 0.732098 9.03955 0.907961L4.74267 4.24998H1.5C1.08579 4.24998 0.75 4.58576 0.75 4.99998V11C0.75 11.4142 1.08579 11.75 1.5 11.75H4.74267L9.03955 15.092C9.26565 15.2679 9.57219 15.2996 9.82951 15.1737C10.0868 15.0479 10.25 14.7864 10.25 14.5V1.49998ZM2.25 5.74998H4.25V10.25H2.25V5.74998ZM8.75 12.9665L5.75 10.6332V5.36679L8.75 3.03345V12.9665ZM14.2864 6.43098C14.0804 5.93355 13.7784 5.48157 13.3977 5.10085L13.9633 4.53516C14.4183 4.99017 14.7793 5.53034 15.0255 6.12484C15.2718 6.71933 15.3985 7.35651 15.3985 7.99999C15.3985 8.64346 15.2718 9.28064 15.0255 9.87513C14.7793 10.4696 14.4183 11.0098 13.9633 11.4648L13.3977 10.8991C13.7784 10.5184 14.0804 10.0664 14.2864 9.56899C14.4925 9.07155 14.5985 8.5384 14.5985 7.99999C14.5985 7.46157 14.4925 6.92842 14.2864 6.43098ZM11.9767 7.38769C11.8963 7.19357 11.7785 7.01719 11.6299 6.86861L12.1956 6.30293C12.4184 6.52579 12.5952 6.79036 12.7158 7.08154C12.8364 7.37273 12.8985 7.68481 12.8985 7.99999C12.8985 8.31516 12.8364 8.62724 12.7158 8.91843C12.5952 9.20961 12.4184 9.47418 12.1956 9.69704L11.6299 9.13136C11.7785 8.98278 11.8963 8.8064 11.9767 8.61228C12.0571 8.41816 12.0985 8.2101 12.0985 7.99999C12.0985 7.78987 12.0571 7.58181 11.9767 7.38769Z" fill="#FF00FF"/>
</g>
<defs>
<clipPath id="clip0_2224_8229">
<rect width="16" height="16" fill="white"/>
</clipPath>
</defs>
</svg>
