<svg width="16" height="16" viewBox="0 0 16 16" fill="none" xmlns="http://www.w3.org/2000/svg">
<path fill-rule="evenodd" clip-rule="evenodd" d="M11.2115 1.26284C11.1345 1.03192 10.9503 0.852723 10.7173 0.782188C10.4844 0.711654 10.2317 0.758558 10.0395 0.907993L5.74267 4.25001H2.5C2.08579 4.25001 1.75 4.58579 1.75 5.00001V11C1.75 11.4142 2.08579 11.75 2.5 11.75H5.74267L10.0395 15.092C10.2317 15.2415 10.4844 15.2884 10.7173 15.2178C10.9503 15.1473 11.1345 14.9681 11.2115 14.7372L11.7115 13.2372C11.8425 12.8442 11.6301 12.4195 11.2372 12.2885C10.8442 12.1575 10.4195 12.3699 10.2885 12.7628L10.1237 13.2572L6.75 10.6332V5.36682L10.1237 2.74283L10.2885 3.23718C10.4195 3.63014 10.8442 3.84251 11.2372 3.71152C11.6301 3.58053 11.8425 3.15579 11.7115 2.76284L11.2115 1.26284ZM3.25 5.75001H5.25V10.25H3.25V5.75001ZM11.0303 5.96968C10.7374 5.67678 10.2626 5.67678 9.96967 5.96968C9.67678 6.26257 9.67678 6.73744 9.96967 7.03034L10.9393 8.00001L9.96967 8.96968C9.67678 9.26257 9.67678 9.73744 9.96967 10.0303C10.2626 10.3232 10.7374 10.3232 11.0303 10.0303L12 9.06067L12.9697 10.0303C13.2626 10.3232 13.7374 10.3232 14.0303 10.0303C14.3232 9.73744 14.3232 9.26257 14.0303 8.96968L13.0607 8.00001L14.0303 7.03034C14.3232 6.73744 14.3232 6.26257 14.0303 5.96968C13.7374 5.67678 13.2626 5.67678 12.9697 5.96968L12 6.93935L11.0303 5.96968Z" fill="#FF00FF"/>
</svg>
