<svg width="16" height="16" viewBox="0 0 16 16" fill="none" xmlns="http://www.w3.org/2000/svg">
<path fill-rule="evenodd" clip-rule="evenodd" d="M9.99995 1.21329V14.7867L4.6696 10.9H1.19995V5.1H4.6696L9.99995 1.21329ZM4.39995 5.9H1.99995V10.1H4.39995V5.9ZM5.19995 10.2966L9.19995 13.2133V2.78671L5.19995 5.70338V10.2966ZM14.2864 6.431C14.0803 5.93356 13.7783 5.48158 13.3976 5.10086L13.9633 4.53518C14.4183 4.99018 14.7792 5.53035 15.0255 6.12485C15.2717 6.71935 15.3985 7.35652 15.3985 8C15.3985 8.64348 15.2717 9.28065 15.0255 9.87515C14.7792 10.4696 14.4183 11.0098 13.9633 11.4648L13.3976 10.8991C13.7783 10.5184 14.0803 10.0664 14.2864 9.569C14.4924 9.07157 14.5985 8.53842 14.5985 8C14.5985 7.46158 14.4924 6.92843 14.2864 6.431ZM11.6298 6.86863C11.7784 7.0172 11.8963 7.19358 11.9767 7.38771C12.0571 7.58183 12.0985 7.78988 12.0985 8C12.0985 8.21011 12.0571 8.41817 11.9767 8.61229C11.8963 8.80641 11.7784 8.9828 11.6298 9.13137L12.1955 9.69706C12.4184 9.4742 12.5952 9.20962 12.7158 8.91844C12.8364 8.62726 12.8985 8.31517 12.8985 8C12.8985 7.68483 12.8364 7.37274 12.7158 7.08156C12.5952 6.79038 12.4184 6.5258 12.1955 6.30294L11.6298 6.86863Z" fill="#FF00FF"/>
</svg>
