<svg width="20" height="20" viewBox="0 0 20 20" fill="none" xmlns="http://www.w3.org/2000/svg">
<path d="M9.99968 0.0329819C4.49384 0.0329819 0.0302734 4.49643 0.0302734 10.0023C0.0302734 15.5083 4.49384 19.9714 9.99968 19.9714C15.5061 19.9714 19.9692 15.5083 19.9692 10.0023C19.9692 4.49679 15.5062 0.0329819 9.99968 0.0329819Z" fill="#1ED760"/>
<path d="M14.5716 14.4115C14.393 14.7044 14.0096 14.7972 13.7168 14.6175C11.3761 13.1877 8.42941 12.8639 4.95917 13.6568C4.62477 13.733 4.29143 13.5234 4.21524 13.1889C4.1387 12.8544 4.34739 12.5211 4.68262 12.4449C8.48024 11.5769 11.7377 11.9508 14.3656 13.5568C14.6585 13.7365 14.7513 14.1187 14.5716 14.4115ZM15.7918 11.6966C15.5668 12.0627 15.0882 12.1782 14.7227 11.9532C12.043 10.3057 7.9581 9.82867 4.78846 10.7908C4.37739 10.915 3.94322 10.6833 3.81846 10.273C3.69465 9.86189 3.92643 9.42855 4.33679 9.30355C7.95739 8.20498 12.4585 8.73712 15.5358 10.6282C15.9013 10.8532 16.0168 11.3316 15.7918 11.6966ZM15.8966 8.86998C12.6835 6.96153 7.38227 6.78605 4.31453 7.71712C3.82191 7.86653 3.30096 7.58843 3.15167 7.09581C3.00239 6.60296 3.28024 6.08236 3.77322 5.9326C7.29477 4.86355 13.1489 5.0701 16.8482 7.26617C17.2923 7.52915 17.4375 8.10141 17.1744 8.54391C16.9125 8.987 16.3382 9.13308 15.8966 8.86998Z" fill="black"/>
</svg>
