<svg width="20" height="20" viewBox="0 0 20 20" fill="none" xmlns="http://www.w3.org/2000/svg">
<path d="M9.99968 0.032959C4.49385 0.032959 0.0302734 4.49641 0.0302734 10.0022C0.0302734 15.5083 4.49385 19.9714 9.99968 19.9714C15.5061 19.9714 19.9692 15.5083 19.9692 10.0022C19.9692 4.49677 15.5061 0.0334352 9.99956 0.0334352L9.99968 0.032959V0.032959ZM14.5716 14.4115C14.393 14.7044 14.0097 14.7972 13.7168 14.6175C11.3761 13.1877 8.42944 12.8639 4.9592 13.6568C4.6248 13.733 4.29146 13.5234 4.21527 13.1889C4.13873 12.8544 4.34742 12.5211 4.68265 12.4449C8.48027 11.5769 11.7378 11.9508 14.3656 13.5568C14.6585 13.7365 14.7513 14.1187 14.5716 14.4115V14.4115ZM15.7918 11.6967C15.5668 12.0627 15.0882 12.1782 14.7228 11.9532C12.043 10.3057 7.95813 9.82867 4.78849 10.7908C4.37742 10.915 3.94325 10.6833 3.81849 10.273C3.69468 9.86189 3.92646 9.42855 4.33682 9.30355C7.95742 8.20498 12.4585 8.73713 15.5359 10.6282C15.9013 10.8532 16.0168 11.3318 15.7918 11.6968V11.6967ZM15.8966 8.86998C12.6835 6.96153 7.3823 6.78605 4.31456 7.71713C3.82194 7.86653 3.30099 7.58844 3.1517 7.09582C3.00242 6.60296 3.28027 6.08236 3.77325 5.9326C7.2948 4.86355 13.149 5.0701 16.8482 7.26617C17.2923 7.52915 17.4375 8.10141 17.1744 8.54391C16.9125 8.98701 16.3387 9.13308 15.8971 8.86998H15.8966Z" fill="#FF00FF"/>
</svg>
