<svg width="16" height="16" viewBox="0 0 16 16" fill="none" xmlns="http://www.w3.org/2000/svg">
<g clip-path="url(#clip0_2179_3720)">
<path d="M7.99994 0.0263672C3.59527 0.0263672 0.0244141 3.59713 0.0244141 8.0018C0.0244141 12.4067 3.59527 15.9771 7.99994 15.9771C12.4051 15.9771 15.9756 12.4067 15.9756 8.0018C15.9756 3.59741 12.4051 0.0267481 7.99984 0.0267481L7.99994 0.0263672V0.0263672ZM11.6575 11.5292C11.5146 11.7635 11.2079 11.8378 10.9737 11.694C9.10108 10.5502 6.74375 10.2911 3.96756 10.9254C3.70003 10.9864 3.43337 10.8187 3.37241 10.5511C3.31118 10.2835 3.47813 10.0168 3.74632 9.95589C6.78441 9.26151 9.39041 9.56065 11.4927 10.8454C11.727 10.9892 11.8013 11.2949 11.6575 11.5292V11.5292ZM12.6337 9.35732C12.4537 9.65018 12.0708 9.74256 11.7784 9.56256C9.6346 8.24456 6.3667 7.86294 3.83099 8.63265C3.50213 8.73199 3.1548 8.54665 3.05499 8.21837C2.95594 7.88951 3.14137 7.54284 3.46965 7.44284C6.36613 6.56399 9.96699 6.9897 12.4289 8.50256C12.7213 8.68256 12.8137 9.06541 12.6337 9.35741V9.35732ZM12.7175 7.09599C10.147 5.56922 5.90603 5.42884 3.45184 6.1737C3.05775 6.29322 2.64099 6.07075 2.52156 5.67665C2.40213 5.28237 2.62441 4.86589 3.0188 4.74608C5.83603 3.89084 10.5194 4.05608 13.4788 5.81294C13.834 6.02332 13.9502 6.48113 13.7397 6.83513C13.5302 7.18961 13.0712 7.30646 12.7178 7.09599H12.7175Z" fill="#FF00FF"/>
</g>
<defs>
<clipPath id="clip0_2179_3720">
<rect width="16" height="16" fill="white"/>
</clipPath>
</defs>
</svg>
