<svg width="16" height="16" viewBox="0 0 16 16" fill="none" xmlns="http://www.w3.org/2000/svg">
<g clip-path="url(#clip0_1447_2969)">
<path d="M7.99945 0.0263672C3.59478 0.0263672 0.0239258 3.59713 0.0239258 8.0018C0.0239258 12.4067 3.59478 15.9771 7.99945 15.9771C12.4046 15.9771 15.9751 12.4067 15.9751 8.0018C15.9751 3.59741 12.4047 0.0263672 7.99945 0.0263672Z" fill="#1ED760"/>
<path d="M11.6569 11.5292C11.5141 11.7635 11.2074 11.8378 10.9731 11.694C9.10057 10.5502 6.74323 10.2911 3.96704 10.9254C3.69952 10.9864 3.43285 10.8187 3.3719 10.5511C3.31066 10.2835 3.47762 10.0168 3.74581 9.95588C6.7839 9.2615 9.3899 9.56064 11.4922 10.8454C11.7265 10.9892 11.8008 11.2949 11.6569 11.5292ZM12.6331 9.35731C12.4531 9.65017 12.0703 9.74255 11.7779 9.56255C9.63409 8.24455 6.36619 7.86293 3.83047 8.63264C3.50162 8.73198 3.15428 8.54664 3.05447 8.21836C2.95543 7.8895 3.14085 7.54283 3.46914 7.44283C6.36562 6.56398 9.96647 6.98969 12.4284 8.50255C12.7208 8.68255 12.8131 9.06531 12.6331 9.35731ZM12.7169 7.09598C10.1465 5.56922 5.90552 5.42883 3.45133 6.17369C3.05724 6.29322 2.64047 6.07074 2.52104 5.67664C2.40162 5.28236 2.6239 4.86588 3.01828 4.74607C5.83552 3.89083 10.5189 4.05607 13.4783 5.81293C13.8335 6.02331 13.9497 6.48112 13.7392 6.83512C13.5297 7.1896 13.0703 7.30645 12.7169 7.09598Z" fill="black"/>
</g>
<defs>
<clipPath id="clip0_1447_2969">
<rect width="16" height="16" fill="white"/>
</clipPath>
</defs>
</svg>
