<svg width="20" height="20" viewBox="0 0 20 20" fill="none" xmlns="http://www.w3.org/2000/svg">
<g clip-path="url(#clip0)">
<path fill-rule="evenodd" clip-rule="evenodd" d="M16.2156 12.954H17.9925V20.0618H2V12.954H3.77695V18.2848H16.2156V12.954Z" fill="#BBBBBB"/>
<path d="M5.71354 12.4258L14.4408 14.2601L14.8076 12.5154L6.0804 10.6803L5.71354 12.4258ZM6.8684 8.24688L14.9529 12.0121L15.706 10.3952L7.62134 6.63002L6.8684 8.24688ZM9.10541 4.28057L15.9593 9.98797L17.1007 8.6173L10.2469 2.91006L9.10541 4.28057ZM13.5295 0.0617676L12.0983 1.12632L17.4207 8.28258L18.852 7.21819L13.5295 0.0617676ZM5.55396 16.5079H14.4387V14.731H5.55396V16.5079Z" fill="#F58025"/>
</g>
<defs>
<clipPath id="clip0">
<rect width="20" height="20" fill="white"/>
</clipPath>
</defs>
</svg>
