<svg width="16" height="16" viewBox="0 0 16 16" fill="none" xmlns="http://www.w3.org/2000/svg">
<g clip-path="url(#clip0_2179_3745)">
<path fill-rule="evenodd" clip-rule="evenodd" d="M12.9726 10.3632H14.3941V16.0494H1.6001V10.3632H3.02166V14.6278H12.9726V10.3632Z" fill="#BBBBBB"/>
<path d="M4.57078 9.94065L11.5526 11.4081L11.8461 10.0124L4.86427 8.54429L4.57078 9.94065ZM5.49467 6.59753L11.9623 9.60969L12.5647 8.3162L6.09702 5.30404L5.49467 6.59753ZM7.28428 3.42448L12.7674 7.9904L13.6805 6.89386L8.19744 2.32807L7.28428 3.42448ZM10.8236 0.0494385L9.67858 0.901082L13.9365 6.62609L15.0815 5.77458L10.8236 0.0494385ZM4.44312 13.2064H11.5509V11.7848H4.44312V13.2064Z" fill="#F58025"/>
</g>
<defs>
<clipPath id="clip0_2179_3745">
<rect width="16" height="16" fill="white"/>
</clipPath>
</defs>
</svg>
