<svg width="20" height="20" viewBox="0 0 20 20" fill="none" xmlns="http://www.w3.org/2000/svg">
<g clip-path="url(#clip0)">
<path fill-rule="evenodd" clip-rule="evenodd" d="M14.4409 14.2601L5.7136 12.4258L6.08046 10.6803L14.8077 12.5154L14.4409 14.2601ZM14.9529 12.0121L6.86846 8.24688L7.6214 6.63002L15.706 10.3952L14.9529 12.0121ZM15.9593 9.98797L9.10548 4.28057L10.2469 2.91006L17.1008 8.6173L15.9593 9.98797ZM12.0983 1.12632L13.5296 0.0617676L18.852 7.21819L17.4208 8.28258L12.0983 1.12632ZM14.4388 16.5079H5.55402V14.731H14.4388V16.5079ZM17.9925 12.954H16.2156V18.2848H3.77695V12.954H2V20.0618H17.9925V12.954Z" fill="#FF00FF"/>
</g>
<defs>
<clipPath id="clip0">
<rect width="20" height="20" fill="white"/>
</clipPath>
</defs>
</svg>
