<svg width="16" height="16" viewBox="0 0 16 16" fill="none" xmlns="http://www.w3.org/2000/svg">
<g clip-path="url(#clip0_1447_1742)">
<path d="M11.5528 11.4081L4.57098 9.94065L4.86447 8.54429L11.8463 10.0124L11.5528 11.4081Z" fill="#FF00FF"/>
<path d="M11.9624 9.60969L5.49486 6.59753L6.09722 5.30404L12.5649 8.3162L11.9624 9.60969Z" fill="#FF00FF"/>
<path d="M12.7676 7.9904L7.28448 3.42448L8.19764 2.32807L13.6807 6.89386L12.7676 7.9904Z" fill="#FF00FF"/>
<path d="M9.67877 0.901082L10.8238 0.0494385L15.0817 5.77458L13.9367 6.62609L9.67877 0.901082Z" fill="#FF00FF"/>
<path d="M11.5511 13.2064H4.44331V11.7848H11.5511V13.2064Z" fill="#FF00FF"/>
<path d="M14.3941 10.3632H12.9726V14.6279H3.02166V10.3632H1.6001V16.0494H14.3941V10.3632Z" fill="#FF00FF"/>
</g>
<defs>
<clipPath id="clip0_1447_1742">
<rect width="16" height="16" fill="white"/>
</clipPath>
</defs>
</svg>
