<svg width="16" height="16" viewBox="0 0 16 16" fill="none" xmlns="http://www.w3.org/2000/svg">
<path fill-rule="evenodd" clip-rule="evenodd" d="M8.25182 1.06811L7.99989 0.921148L7.74795 1.06811L1.74795 4.56811L1.00757 5L1.74795 5.43189L7.74795 8.93189L7.99989 9.07885L8.25182 8.93189L14.2518 5.43189L14.9922 5L14.2518 4.56811L8.25182 1.06811ZM7.99989 7.92115L2.9922 5L7.99989 2.07885L13.0076 5L7.99989 7.92115ZM1.81993 7.31617L2.25182 7.56811L7.99989 10.9211L13.748 7.56811L14.1798 7.31617L14.6837 8.17995L14.2518 8.43189L8.25182 11.9319L7.99989 12.0789L7.74795 11.9319L1.74795 8.43189L1.31606 8.17995L1.81993 7.31617ZM1.81993 10.3162L2.25182 10.5681L7.99989 13.9211L13.7479 10.5681L14.1798 10.3162L14.6837 11.18L14.2518 11.4319L8.25182 14.9319L7.99989 15.0789L7.74795 14.9319L1.74795 11.4319L1.31606 11.18L1.81993 10.3162Z" fill="#222222"/>
</svg>
