<svg width="20" height="20" viewBox="0 0 20 20" fill="none" xmlns="http://www.w3.org/2000/svg">
<path fill-rule="evenodd" clip-rule="evenodd" d="M3 2H17C17.5523 2 18 2.44772 18 3V17C18 17.5523 17.5523 18 17 18H3C2.44772 18 2 17.5523 2 17V3C2 2.44772 2.44772 2 3 2ZM1 3C1 1.89543 1.89543 1 3 1H17C18.1046 1 19 1.89543 19 3V17C19 18.1046 18.1046 19 17 19H3C1.89543 19 1 18.1046 1 17V3ZM10.0727 7.07873C9.44188 7.07873 9.04346 7.26687 9.04346 7.75382C9.04346 8.28429 9.7097 8.51687 10.5383 8.80614C11.888 9.27729 13.6684 9.89883 13.7027 12.2028C13.7027 14.4273 11.9763 15.7 9.47508 15.7C8.33097 15.6991 7.19983 15.4578 6.15494 14.9917V12.0147C7.16874 12.6013 8.30579 12.9424 9.47508 13.0107C10.0948 13.0107 10.5818 12.8226 10.5818 12.2471C10.5818 11.6645 9.86412 11.3992 8.99685 11.0786C7.67277 10.5891 6 9.97069 6 7.8977C6 5.7064 7.62687 4.40048 10.0727 4.40048C11.0963 4.38936 12.1119 4.5812 13.0608 4.9649V7.87556C12.143 7.37451 11.1182 7.10123 10.0727 7.07873Z" fill="#FF00FF"/>
</svg>
