<svg width="16" height="16" viewBox="0 0 16 16" fill="none" xmlns="http://www.w3.org/2000/svg">
<g clip-path="url(#clip0_2179_3628)">
<path d="M8.05797 5.66303C7.55331 5.66303 7.23457 5.81354 7.23457 6.20311C7.23457 6.62748 7.76757 6.81354 8.43048 7.04496C9.51019 7.42188 10.9346 7.91911 10.962 9.7623C10.962 11.5419 9.58081 12.5601 7.57987 12.5601C6.66458 12.5593 5.75967 12.3663 4.92376 11.9934V9.61178C5.7348 10.0811 6.64444 10.354 7.57987 10.4086C8.07568 10.4086 8.46524 10.2581 8.46524 9.79771C8.46524 9.33167 7.8911 9.11942 7.19728 8.86292C6.13802 8.47132 4.7998 7.9766 4.7998 6.31821C4.7998 4.56517 6.1013 3.52043 8.05797 3.52043C8.87681 3.51154 9.68929 3.66501 10.4485 3.97197V6.3005C9.71418 5.89965 8.89435 5.68103 8.05797 5.66303Z" fill="#FF00FF"/>
<path fill-rule="evenodd" clip-rule="evenodd" d="M0.799805 2.40005C0.799805 1.51639 1.51615 0.800049 2.3998 0.800049H13.5998C14.4835 0.800049 15.1998 1.51639 15.1998 2.40005V13.6C15.1998 14.4837 14.4835 15.2 13.5998 15.2H2.3998C1.51615 15.2 0.799805 14.4837 0.799805 13.6V2.40005ZM2.3998 1.60005H13.5998C14.0416 1.60005 14.3998 1.95822 14.3998 2.40005V13.6C14.3998 14.0419 14.0416 14.4 13.5998 14.4H2.3998C1.95798 14.4 1.5998 14.0419 1.5998 13.6V2.40005C1.5998 1.95822 1.95798 1.60005 2.3998 1.60005Z" fill="#FF00FF"/>
</g>
<defs>
<clipPath id="clip0_2179_3628">
<rect width="16" height="16" fill="white"/>
</clipPath>
</defs>
</svg>
