<svg width="16" height="16" viewBox="0 0 16 16" fill="none" xmlns="http://www.w3.org/2000/svg">
<g clip-path="url(#clip0_1447_1750)">
<path d="M8.05821 5.66303C7.55355 5.66303 7.23482 5.81354 7.23482 6.20311C7.23482 6.62748 7.76781 6.81354 8.43072 7.04496C9.51044 7.42188 10.9348 7.91911 10.9622 9.7623C10.9622 11.5419 9.58105 12.5601 7.58011 12.5601C6.66483 12.5593 5.75991 12.3663 4.924 11.9934V9.61178C5.73504 10.0811 6.64468 10.354 7.58011 10.4086C8.07592 10.4086 8.46548 10.2581 8.46548 9.79771C8.46548 9.33167 7.89134 9.11942 7.19752 8.86292C6.13827 8.47132 4.80005 7.9766 4.80005 6.31821C4.80005 4.56517 6.10154 3.52043 8.05821 3.52043C8.87705 3.51154 9.68953 3.66501 10.4487 3.97197V6.3005C9.71442 5.89965 8.8946 5.68103 8.05821 5.66303Z" fill="#FF00FF"/>
<path fill-rule="evenodd" clip-rule="evenodd" d="M0.800049 2.40005C0.800049 1.51639 1.51639 0.800049 2.40005 0.800049H13.6C14.4837 0.800049 15.2 1.51639 15.2 2.40005V13.6C15.2 14.4837 14.4837 15.2 13.6 15.2H2.40005C1.51639 15.2 0.800049 14.4837 0.800049 13.6V2.40005ZM2.40005 1.60005H13.6C14.0419 1.60005 14.4 1.95822 14.4 2.40005V13.6C14.4 14.0419 14.0419 14.4 13.6 14.4H2.40005C1.95822 14.4 1.60005 14.0419 1.60005 13.6V2.40005C1.60005 1.95822 1.95822 1.60005 2.40005 1.60005Z" fill="#FF00FF"/>
</g>
<defs>
<clipPath id="clip0_1447_1750">
<rect width="16" height="16" fill="white"/>
</clipPath>
</defs>
</svg>
