<svg width="20" height="20" viewBox="0 0 20 20" fill="none" xmlns="http://www.w3.org/2000/svg">
<path fill-rule="evenodd" clip-rule="evenodd" d="M11.71 15.4375C12.0662 14.665 12.8434 14.125 13.75 14.125C14.9931 14.125 16 15.1328 16 16.375C16 17.6172 14.9931 18.625 13.75 18.625C12.8425 18.625 12.0662 18.085 11.71 17.3125H8.59375C6.78156 17.3125 5.3125 15.8434 5.3125 14.0312V5.29C4.54 4.93375 4 4.15656 4 3.25C4 2.00688 5.00688 1 6.25 1C7.49312 1 8.5 2.00688 8.5 3.25C8.5 4.15656 7.96094 4.93375 7.1875 5.29V7.46875C7.1875 8.245 7.8175 8.875 8.59375 8.875H11.71C12.0662 8.1025 12.8434 7.5625 13.75 7.5625C14.9931 7.5625 16 8.57031 16 9.8125C16 11.0547 14.9931 12.0625 13.75 12.0625C12.8425 12.0625 12.0662 11.5225 11.71 10.75H8.59375C8.08844 10.75 7.615 10.6263 7.1875 10.4219V14.0312C7.1875 14.8075 7.8175 15.4375 8.59375 15.4375H11.71Z" fill="#FF00FF"/>
</svg>
