<svg width="16" height="16" viewBox="0 0 16 16" fill="none" xmlns="http://www.w3.org/2000/svg">
<path fill-rule="evenodd" clip-rule="evenodd" d="M9.36795 12.35C9.65295 11.732 10.2747 11.3 11 11.3C11.9945 11.3 12.8 12.1063 12.8 13.1C12.8 14.0938 11.9945 14.9 11 14.9C10.274 14.9 9.65295 14.468 9.36795 13.85H6.87495C5.4252 13.85 4.24995 12.6748 4.24995 11.225V4.232C3.63195 3.947 3.19995 3.32525 3.19995 2.6C3.19995 1.6055 4.00545 0.8 4.99995 0.8C5.99445 0.8 6.79995 1.6055 6.79995 2.6C6.79995 3.32525 6.3687 3.947 5.74995 4.232V5.975C5.74995 6.596 6.25395 7.1 6.87495 7.1H9.36795C9.65295 6.482 10.2747 6.05 11 6.05C11.9945 6.05 12.8 6.85625 12.8 7.85C12.8 8.84375 11.9945 9.65 11 9.65C10.274 9.65 9.65295 9.218 9.36795 8.6H6.87495C6.4707 8.6 6.09195 8.501 5.74995 8.3375V11.225C5.74995 11.846 6.25395 12.35 6.87495 12.35H9.36795Z" fill="#FF00FF"/>
</svg>
