<svg width="16" height="16" viewBox="0 0 16 16" fill="none" xmlns="http://www.w3.org/2000/svg">
<path fill-rule="evenodd" clip-rule="evenodd" d="M9.36795 12.35C9.65295 11.732 10.2747 11.3 11 11.3C11.9945 11.3 12.8 12.1062 12.8 13.1C12.8 14.0937 11.9945 14.9 11 14.9C10.274 14.9 9.65295 14.468 9.36795 13.85H6.87495C5.4252 13.85 4.24995 12.6747 4.24995 11.225V4.23199C3.63195 3.94699 3.19995 3.32524 3.19995 2.59999C3.19995 1.60549 4.00545 0.799988 4.99995 0.799988C5.99445 0.799988 6.79995 1.60549 6.79995 2.59999C6.79995 3.32524 6.3687 3.94699 5.74995 4.23199V5.97499C5.74995 6.59599 6.25395 7.09999 6.87495 7.09999H9.36795C9.65295 6.48199 10.2747 6.04999 11 6.04999C11.9945 6.04999 12.8 6.85624 12.8 7.84999C12.8 8.84374 11.9945 9.64999 11 9.64999C10.274 9.64999 9.65295 9.21799 9.36795 8.59999H6.87495C6.4707 8.59999 6.09195 8.50099 5.74995 8.33749V11.225C5.74995 11.846 6.25395 12.35 6.87495 12.35H9.36795Z" fill="#FF00FF"/>
</svg>
