<svg width="16" height="16" viewBox="0 0 16 16" fill="none" xmlns="http://www.w3.org/2000/svg">
<g clip-path="url(#clip0_1461_1287)">
<rect width="16" height="16" fill="#2727E7"/>
<path fill-rule="evenodd" clip-rule="evenodd" d="M7.72309 2.88436C7.72766 2.90637 7.75249 3.01636 7.77829 3.12881C7.80409 3.24125 7.84528 3.42125 7.86983 3.52881C7.89438 3.63636 7.92958 3.7861 7.94803 3.86157C7.9665 3.93704 7.99404 4.06104 8.00926 4.13713C8.02448 4.21321 8.04373 4.29547 8.05207 4.31992C8.06041 4.34436 8.07632 4.40836 8.08741 4.46214C8.0985 4.51592 8.12405 4.62792 8.14419 4.71103C8.16432 4.79414 8.18462 4.88214 8.1893 4.90658C8.19395 4.93103 8.21669 5.03103 8.2398 5.1288C8.26291 5.22658 8.30322 5.40258 8.32935 5.51992C8.35548 5.63725 8.404 5.84525 8.43719 5.98214C8.47036 6.11903 8.51006 6.28703 8.52538 6.35547C8.54071 6.42392 8.56796 6.54392 8.58595 6.62214C8.60393 6.70036 8.63927 6.85636 8.66449 6.9688C8.6897 7.08125 8.72197 7.22125 8.73619 7.27992C8.75042 7.33858 8.75619 7.39256 8.74905 7.39986C8.7419 7.40715 8.56126 7.45716 8.34762 7.51097C8.13399 7.56479 7.94437 7.60881 7.92624 7.60881C7.9081 7.60881 7.89326 7.60447 7.89326 7.59917C7.89326 7.59387 7.88094 7.52786 7.86588 7.4525C7.85081 7.37714 7.8318 7.29547 7.82364 7.27103C7.81546 7.24658 7.79934 7.18258 7.78778 7.1288C7.77625 7.07503 7.75468 6.97903 7.73986 6.91547C7.72505 6.85192 7.70602 6.77192 7.69758 6.73769C7.68914 6.70347 7.6611 6.57947 7.63527 6.46214C7.60944 6.3448 7.57637 6.2008 7.56176 6.14214C7.54716 6.08347 7.51905 5.95947 7.49929 5.86658C7.47952 5.77369 7.45808 5.69245 7.45162 5.68603C7.44519 5.67961 7.05593 5.77039 6.58659 5.88772C6.11726 6.00505 5.7307 6.10352 5.72759 6.10655C5.72446 6.10955 5.73011 6.1428 5.74016 6.18041C5.7502 6.21803 5.77792 6.3328 5.80176 6.43547C5.8256 6.53814 5.86682 6.71814 5.8934 6.83547C5.91998 6.9528 5.96801 7.1608 6.00016 7.29769C6.0323 7.43458 6.08487 7.6572 6.11698 7.7924C6.1665 8.00098 6.1715 8.04066 6.14986 8.05435C6.13584 8.06322 6.10894 8.0706 6.09008 8.07076C6.07122 8.0709 6.03122 8.07908 6.00119 8.08893C5.97116 8.09878 5.81554 8.13878 5.65536 8.17782C5.4952 8.21686 5.3499 8.24881 5.33248 8.24881C5.30896 8.24881 5.29777 8.22939 5.28896 8.17325C5.28241 8.1317 5.27034 8.07369 5.26211 8.04436C5.25388 8.01503 5.23089 7.91903 5.211 7.83103C5.19111 7.74303 5.16218 7.61503 5.14673 7.54658C5.13127 7.47814 5.11143 7.39414 5.10261 7.35992C5.09381 7.32569 5.07873 7.26169 5.06912 7.21769C5.05948 7.17369 5.03856 7.08169 5.02261 7.01325C5.00666 6.9448 4.98641 6.8608 4.97761 6.82658C4.96881 6.79236 4.95678 6.74036 4.95088 6.71103C4.94497 6.68169 4.92817 6.60569 4.91354 6.54214C4.89891 6.47858 4.88016 6.39858 4.87185 6.36436C4.86355 6.33014 4.84883 6.26614 4.83916 6.22214C4.82949 6.17814 4.80439 6.06614 4.78341 5.97325C4.76242 5.88036 4.73701 5.77236 4.72695 5.73325C4.71687 5.69414 4.70156 5.63814 4.69294 5.6088C4.6843 5.57947 4.66101 5.47947 4.64117 5.38658C4.62133 5.29369 4.58949 5.14969 4.5704 5.06658C4.55132 4.98347 4.52275 4.85547 4.50693 4.78214C4.49111 4.7088 4.45779 4.5648 4.4329 4.46214C4.408 4.35947 4.38369 4.25147 4.37888 4.22214C4.37404 4.1928 4.35811 4.1248 4.34345 4.07103C4.3288 4.01725 4.30233 3.91101 4.28462 3.83496L4.25244 3.69666L4.30841 3.6733C4.33918 3.66045 4.39637 3.64447 4.43548 3.63778C4.47459 3.63108 4.60259 3.60155 4.71993 3.57213C4.83726 3.54273 4.95783 3.51094 4.98786 3.5015C5.01788 3.49208 5.05934 3.48436 5.08 3.48436C5.10064 3.48436 5.12137 3.49835 5.12606 3.51547C5.13075 3.53259 5.14394 3.59058 5.15536 3.64436C5.16677 3.69814 5.19891 3.83814 5.22677 3.95547C5.25465 4.07281 5.29376 4.2408 5.3137 4.3288C5.33363 4.4168 5.37026 4.5768 5.39506 4.68436C5.41986 4.79192 5.44764 4.90792 5.45682 4.94214C5.46597 4.97636 5.48741 5.07032 5.50446 5.15092C5.52153 5.23152 5.54138 5.30704 5.54862 5.31876C5.55836 5.33451 5.68121 5.31083 6.02085 5.22777C6.27335 5.16603 6.49593 5.10937 6.51548 5.10185C6.53504 5.09433 6.64704 5.06637 6.76437 5.0397C6.8817 5.01305 6.9937 4.98486 7.01326 4.97705C7.03281 4.96927 7.09882 4.95257 7.15993 4.93995C7.22794 4.92593 7.27104 4.908 7.27104 4.89376C7.27104 4.88096 7.25946 4.82461 7.24531 4.76854C7.23116 4.71247 7.19029 4.53858 7.15447 4.38214C7.11865 4.22569 7.07738 4.04969 7.06277 3.99103C7.04816 3.93236 7.01658 3.79636 6.9926 3.68881C6.96862 3.58125 6.94227 3.46525 6.93404 3.43103C6.92581 3.39681 6.91057 3.32881 6.90018 3.27992C6.88979 3.23103 6.87303 3.16326 6.86295 3.12932C6.84922 3.08315 6.85017 3.0626 6.8667 3.0477C6.87886 3.03675 6.96481 3.00955 7.0577 2.98724C7.15059 2.96495 7.25459 2.94027 7.28882 2.9324C7.32304 2.92454 7.41104 2.90216 7.48437 2.88265C7.5577 2.86315 7.63955 2.84657 7.66625 2.84578C7.70288 2.84472 7.71683 2.85417 7.72309 2.88436ZM10.8728 4.85128C10.9012 4.85997 10.9924 4.88795 11.0755 4.91346C11.1586 4.93896 11.2982 4.97983 11.3857 5.00427C11.4731 5.02872 11.5521 5.05604 11.561 5.06498C11.5701 5.07405 11.5706 5.09179 11.5623 5.10504C11.554 5.1181 11.5218 5.2288 11.4908 5.35103C11.4597 5.47325 11.4089 5.67325 11.3779 5.79547C11.347 5.91769 11.3149 6.03369 11.3066 6.05325C11.2983 6.0728 11.2877 6.1088 11.2831 6.13325C11.2785 6.15769 11.2491 6.28169 11.2177 6.4088C11.1864 6.53592 11.1537 6.65592 11.145 6.67547C11.1364 6.69503 11.1058 6.80703 11.0771 6.92436C11.0483 7.04169 11.0085 7.19277 10.9885 7.26009C10.9685 7.3274 10.9492 7.38541 10.9457 7.38898C10.9421 7.39257 10.9038 7.38797 10.8607 7.37874C10.8175 7.36953 10.7141 7.34208 10.631 7.31773C10.5479 7.29337 10.4141 7.25469 10.3337 7.23176C10.2532 7.2088 10.1782 7.18089 10.1671 7.16971C10.1518 7.15444 10.1586 7.10134 10.1944 6.95686C10.2207 6.85099 10.2488 6.74836 10.257 6.7288C10.2651 6.70925 10.2965 6.59325 10.3268 6.47103C10.357 6.3488 10.4106 6.1408 10.4459 6.0088C10.4812 5.8768 10.5422 5.6408 10.5815 5.48436C10.6208 5.32792 10.6598 5.18392 10.6683 5.16436C10.6767 5.1448 10.6871 5.1088 10.6913 5.08436C10.6955 5.05992 10.7033 5.02792 10.7086 5.01325C10.7138 4.99858 10.7269 4.95257 10.7375 4.91103C10.7513 4.85705 10.7661 4.83547 10.7891 4.83547C10.8068 4.83547 10.8445 4.84258 10.8728 4.85128ZM10.3703 8.56564C10.4153 8.58555 10.4916 8.6388 10.5399 8.68397C10.5885 8.72944 10.6483 8.80959 10.6738 8.86349C10.7101 8.94025 10.7199 8.98809 10.72 9.08928C10.7201 9.16665 10.7077 9.25268 10.6889 9.30569C10.6702 9.35833 10.6203 9.43419 10.5645 9.49453C10.5045 9.5596 10.4382 9.60976 10.3779 9.63595C10.3265 9.65828 10.2426 9.67862 10.1914 9.68118C10.1403 9.68372 10.06 9.67565 10.0129 9.66322C9.96585 9.6508 9.88736 9.61419 9.83852 9.58187C9.78967 9.54955 9.72469 9.48639 9.69413 9.44152C9.66357 9.39663 9.62588 9.32895 9.61036 9.29108C9.59481 9.25311 9.58215 9.17168 9.58215 9.10952C9.58215 9.03972 9.59591 8.96002 9.61829 8.90018C9.63818 8.84704 9.68642 8.76726 9.72547 8.72288C9.76455 8.67849 9.82476 8.62472 9.8593 8.60338C9.89383 8.58203 9.95961 8.55377 10.0055 8.54056C10.0513 8.52735 10.1337 8.51944 10.1886 8.52299C10.2435 8.52653 10.3252 8.54573 10.3703 8.56564ZM11.2117 11.3821C11.2193 11.3944 11.2274 11.416 11.2295 11.4302C11.2316 11.4444 11.2381 11.5324 11.2438 11.6258C11.2495 11.7191 11.2628 11.8735 11.2734 11.9689C11.2839 12.0642 11.2884 12.1532 11.2832 12.1666C11.2778 12.1808 11.2306 12.197 11.1702 12.2053C11.1132 12.2131 11.0626 12.2206 11.0577 12.2219C11.0528 12.2233 10.9568 12.2313 10.8444 12.2399C10.7319 12.2485 10.6359 12.2565 10.631 12.2578C10.6261 12.2591 10.5421 12.2662 10.4444 12.2737C10.3466 12.2812 10.2466 12.2908 10.2221 12.2951C10.1977 12.2994 10.0977 12.3107 9.99993 12.3202C9.90215 12.3298 9.77815 12.3419 9.72437 12.3473C9.67059 12.3526 9.46259 12.3724 9.26215 12.3913C9.0617 12.4102 8.8457 12.43 8.78215 12.4354C8.71859 12.4408 8.60259 12.4529 8.52437 12.4624C8.44615 12.4718 8.29015 12.488 8.1777 12.4983C8.06526 12.5086 7.92926 12.5205 7.87548 12.5247C7.8217 12.5288 7.6897 12.5408 7.58215 12.5513C7.47459 12.5617 7.32259 12.5777 7.24437 12.5868C7.16615 12.5958 7.04215 12.6083 6.96881 12.6145C6.89548 12.6207 6.81148 12.6286 6.78215 12.632C6.75282 12.6353 6.62881 12.647 6.50659 12.6577C6.38437 12.6686 6.20837 12.6848 6.11548 12.6939C6.02259 12.7029 5.85859 12.7182 5.75104 12.7278C5.64348 12.7375 5.53148 12.7494 5.50215 12.7544C5.47281 12.7593 5.37281 12.7681 5.27993 12.7739C5.18704 12.7797 5.06385 12.7917 5.0062 12.8005C4.94855 12.8093 4.89555 12.813 4.88844 12.8086C4.88135 12.8042 4.871 12.7344 4.86547 12.6536C4.85994 12.5727 4.84674 12.3915 4.83612 12.2507C4.82549 12.11 4.82057 11.9911 4.82517 11.9865C4.82978 11.9819 4.90798 11.9715 4.99897 11.9633C5.08994 11.9551 5.25637 11.9402 5.36881 11.9301C5.48126 11.92 5.60126 11.9076 5.63548 11.9027C5.6697 11.8977 5.7937 11.8853 5.91104 11.8752C6.02837 11.8651 6.16437 11.8529 6.21326 11.8482C6.26215 11.8434 6.33815 11.8354 6.38215 11.8304C6.42615 11.8253 6.54215 11.8139 6.63993 11.8049C6.7377 11.796 6.9057 11.7802 7.01326 11.7698C7.12081 11.7594 7.25282 11.7468 7.30659 11.7418C7.36037 11.7369 7.48437 11.7246 7.58215 11.7146C7.67993 11.7046 7.83993 11.6891 7.9377 11.6801C8.03548 11.6711 8.16348 11.6589 8.22215 11.653C8.28082 11.6471 8.40082 11.6349 8.48881 11.626C8.57682 11.617 8.70882 11.6053 8.78215 11.6001C8.85548 11.5948 8.93948 11.5867 8.96882 11.582C8.99815 11.5773 9.11415 11.5653 9.22659 11.5552C9.33904 11.5452 9.45904 11.5337 9.49326 11.5297C9.52748 11.5257 9.65148 11.5136 9.76882 11.5027C9.88615 11.4919 10.0261 11.4791 10.0799 11.4744C10.1337 11.4697 10.2577 11.4577 10.3555 11.4478C10.4533 11.438 10.6093 11.4222 10.7021 11.4128C10.795 11.4035 10.935 11.3889 11.0133 11.3804C11.0915 11.3719 11.165 11.3638 11.1767 11.3624C11.1883 11.3611 11.2041 11.3699 11.2117 11.3821Z" fill="white"/>
</g>
<defs>
<clipPath id="clip0_1461_1287">
<rect width="16" height="16" fill="white"/>
</clipPath>
</defs>
</svg>
