<svg width="16" height="16" viewBox="0 0 16 16" fill="none" xmlns="http://www.w3.org/2000/svg">
<g clip-path="url(#clip0_1461_1287)">
<rect width="16" height="16" fill="#2727E7"/>
<path fill-rule="evenodd" clip-rule="evenodd" d="M7.72309 2.88448C7.72766 2.90649 7.75249 3.01648 7.77829 3.12893C7.80409 3.24137 7.84528 3.42137 7.86983 3.52893C7.89438 3.63648 7.92958 3.78622 7.94803 3.86169C7.9665 3.93716 7.99404 4.06116 8.00926 4.13725C8.02448 4.21334 8.04373 4.29559 8.05207 4.32004C8.06041 4.34448 8.07632 4.40848 8.08741 4.46226C8.0985 4.51604 8.12405 4.62804 8.14419 4.71115C8.16432 4.79426 8.18462 4.88226 8.1893 4.9067C8.19395 4.93115 8.21669 5.03115 8.2398 5.12893C8.26291 5.2267 8.30322 5.4027 8.32935 5.52004C8.35548 5.63737 8.404 5.84537 8.43719 5.98226C8.47036 6.11915 8.51006 6.28715 8.52538 6.35559C8.54071 6.42404 8.56796 6.54404 8.58595 6.62226C8.60393 6.70048 8.63927 6.85648 8.66449 6.96893C8.6897 7.08137 8.72197 7.22137 8.73619 7.28004C8.75042 7.3387 8.75619 7.39268 8.74905 7.39998C8.7419 7.40727 8.56126 7.45728 8.34762 7.5111C8.13399 7.56491 7.94437 7.60893 7.92624 7.60893C7.9081 7.60893 7.89326 7.60459 7.89326 7.59929C7.89326 7.59399 7.88094 7.52799 7.86588 7.45262C7.85081 7.37726 7.8318 7.29559 7.82364 7.27115C7.81546 7.2467 7.79934 7.1827 7.78778 7.12893C7.77625 7.07515 7.75468 6.97915 7.73986 6.91559C7.72505 6.85204 7.70602 6.77204 7.69758 6.73782C7.68914 6.70359 7.6611 6.57959 7.63527 6.46226C7.60944 6.34493 7.57637 6.20093 7.56176 6.14226C7.54716 6.08359 7.51905 5.95959 7.49929 5.8667C7.47952 5.77382 7.45808 5.69257 7.45162 5.68615C7.44519 5.67974 7.05593 5.77051 6.58659 5.88784C6.11726 6.00518 5.7307 6.10365 5.72759 6.10667C5.72446 6.10967 5.73011 6.14292 5.74016 6.18054C5.7502 6.21815 5.77792 6.33293 5.80176 6.43559C5.8256 6.53826 5.86682 6.71826 5.8934 6.83559C5.91998 6.95293 5.96801 7.16093 6.00016 7.29782C6.0323 7.4347 6.08487 7.65732 6.11698 7.79252C6.1665 8.0011 6.1715 8.04078 6.14986 8.05447C6.13584 8.06334 6.10894 8.07072 6.09008 8.07088C6.07122 8.07102 6.03122 8.0792 6.00119 8.08905C5.97116 8.0989 5.81554 8.1389 5.65536 8.17794C5.4952 8.21698 5.3499 8.24893 5.33248 8.24893C5.30896 8.24893 5.29777 8.22951 5.28896 8.17337C5.28241 8.13182 5.27034 8.07382 5.26211 8.04448C5.25388 8.01515 5.23089 7.91915 5.211 7.83115C5.19111 7.74315 5.16218 7.61515 5.14673 7.5467C5.13127 7.47826 5.11143 7.39426 5.10261 7.36004C5.09381 7.32582 5.07873 7.26182 5.06912 7.21782C5.05948 7.17382 5.03856 7.08182 5.02261 7.01337C5.00666 6.94493 4.98641 6.86093 4.97761 6.8267C4.96881 6.79248 4.95678 6.74048 4.95088 6.71115C4.94497 6.68182 4.92817 6.60582 4.91354 6.54226C4.89891 6.4787 4.88016 6.3987 4.87185 6.36448C4.86355 6.33026 4.84883 6.26626 4.83916 6.22226C4.82949 6.17826 4.80439 6.06626 4.78341 5.97337C4.76242 5.88048 4.73701 5.77248 4.72695 5.73337C4.71687 5.69426 4.70156 5.63826 4.69294 5.60893C4.6843 5.57959 4.66101 5.47959 4.64117 5.3867C4.62133 5.29382 4.58949 5.14982 4.5704 5.0667C4.55132 4.98359 4.52275 4.85559 4.50693 4.78226C4.49111 4.70893 4.45779 4.56493 4.4329 4.46226C4.408 4.35959 4.38369 4.25159 4.37888 4.22226C4.37404 4.19293 4.35811 4.12493 4.34345 4.07115C4.3288 4.01737 4.30233 3.91113 4.28462 3.83508L4.25244 3.69678L4.30841 3.67343C4.33918 3.66057 4.39637 3.64459 4.43548 3.63791C4.47459 3.6312 4.60259 3.60167 4.71993 3.57225C4.83726 3.54285 4.95783 3.51106 4.98786 3.50162C5.01788 3.4922 5.05934 3.48448 5.08 3.48448C5.10064 3.48448 5.12137 3.49847 5.12606 3.51559C5.13075 3.53271 5.14394 3.5907 5.15536 3.64448C5.16677 3.69826 5.19891 3.83826 5.22677 3.95559C5.25465 4.07293 5.29376 4.24093 5.3137 4.32893C5.33363 4.41693 5.37026 4.57693 5.39506 4.68448C5.41986 4.79204 5.44764 4.90804 5.45682 4.94226C5.46597 4.97648 5.48741 5.07044 5.50446 5.15104C5.52153 5.23165 5.54138 5.30717 5.54862 5.31888C5.55836 5.33463 5.68121 5.31095 6.02085 5.2279C6.27335 5.16615 6.49593 5.1095 6.51548 5.10198C6.53504 5.09446 6.64704 5.06649 6.76437 5.03982C6.8817 5.01318 6.9937 4.98498 7.01326 4.97718C7.03281 4.96939 7.09882 4.9527 7.15993 4.94007C7.22794 4.92605 7.27104 4.90813 7.27104 4.89389C7.27104 4.88109 7.25946 4.82473 7.24531 4.76866C7.23116 4.71259 7.19029 4.5387 7.15447 4.38226C7.11865 4.22582 7.07738 4.04982 7.06277 3.99115C7.04816 3.93248 7.01658 3.79648 6.9926 3.68893C6.96862 3.58137 6.94227 3.46537 6.93404 3.43115C6.92581 3.39693 6.91057 3.32893 6.90018 3.28004C6.88979 3.23115 6.87303 3.16338 6.86295 3.12944C6.84922 3.08327 6.85017 3.06272 6.8667 3.04783C6.87886 3.03687 6.96481 3.00967 7.0577 2.98736C7.15059 2.96507 7.25459 2.94039 7.28882 2.93252C7.32304 2.92466 7.41104 2.90228 7.48437 2.88278C7.5577 2.86327 7.63955 2.84669 7.66625 2.8459C7.70288 2.84484 7.71683 2.8543 7.72309 2.88448ZM10.8728 4.8514C10.9012 4.86009 10.9924 4.88807 11.0755 4.91358C11.1586 4.93908 11.2982 4.97995 11.3857 5.00439C11.4731 5.02884 11.5521 5.05616 11.561 5.0651C11.5701 5.07417 11.5706 5.09191 11.5623 5.10516C11.554 5.11822 11.5218 5.22893 11.4908 5.35115C11.4597 5.47337 11.4089 5.67337 11.3779 5.79559C11.347 5.91782 11.3149 6.03382 11.3066 6.05337C11.2983 6.07293 11.2877 6.10893 11.2831 6.13337C11.2785 6.15782 11.2491 6.28182 11.2177 6.40893C11.1864 6.53604 11.1537 6.65604 11.145 6.67559C11.1364 6.69515 11.1058 6.80715 11.0771 6.92448C11.0483 7.04182 11.0085 7.19289 10.9885 7.26022C10.9685 7.32752 10.9492 7.38553 10.9457 7.3891C10.9421 7.3927 10.9038 7.38809 10.8607 7.37886C10.8175 7.36966 10.7141 7.34221 10.631 7.31785C10.5479 7.2935 10.4141 7.25481 10.3337 7.23188C10.2532 7.20893 10.1782 7.18102 10.1671 7.16983C10.1518 7.15456 10.1586 7.10146 10.1944 6.95698C10.2207 6.85111 10.2488 6.74848 10.257 6.72893C10.2651 6.70937 10.2965 6.59337 10.3268 6.47115C10.357 6.34893 10.4106 6.14093 10.4459 6.00893C10.4812 5.87693 10.5422 5.64093 10.5815 5.48448C10.6208 5.32804 10.6598 5.18404 10.6683 5.16448C10.6767 5.14493 10.6871 5.10893 10.6913 5.08448C10.6955 5.06004 10.7033 5.02804 10.7086 5.01337C10.7138 4.9987 10.7269 4.9527 10.7375 4.91115C10.7513 4.85718 10.7661 4.83559 10.7891 4.83559C10.8068 4.83559 10.8445 4.8427 10.8728 4.8514ZM10.3703 8.56576C10.4153 8.58567 10.4916 8.63892 10.5399 8.68409C10.5885 8.72957 10.6483 8.80971 10.6738 8.86361C10.7101 8.94038 10.7199 8.98822 10.72 9.08941C10.7201 9.16678 10.7077 9.2528 10.6889 9.30582C10.6702 9.35846 10.6203 9.43431 10.5645 9.49465C10.5045 9.55972 10.4382 9.60989 10.3779 9.63607C10.3265 9.6584 10.2426 9.67874 10.1914 9.6813C10.1403 9.68384 10.06 9.67577 10.0129 9.66334C9.96585 9.65092 9.88736 9.61431 9.83852 9.58199C9.78967 9.54967 9.72469 9.48651 9.69413 9.44164C9.66357 9.39675 9.62588 9.32907 9.61036 9.2912C9.59481 9.25323 9.58215 9.17181 9.58215 9.10964C9.58215 9.03984 9.59591 8.96014 9.61829 8.9003C9.63818 8.84717 9.68642 8.76738 9.72547 8.72301C9.76455 8.67862 9.82476 8.62484 9.8593 8.6035C9.89383 8.58215 9.95961 8.55389 10.0055 8.54068C10.0513 8.52747 10.1337 8.51956 10.1886 8.52311C10.2435 8.52665 10.3252 8.54585 10.3703 8.56576ZM11.2117 11.3823C11.2193 11.3945 11.2274 11.4161 11.2295 11.4303C11.2316 11.4446 11.2381 11.5326 11.2438 11.6259C11.2495 11.7192 11.2628 11.8736 11.2734 11.969C11.2839 12.0643 11.2884 12.1533 11.2832 12.1668C11.2778 12.181 11.2306 12.1971 11.1702 12.2054C11.1132 12.2132 11.0626 12.2207 11.0577 12.2221C11.0528 12.2234 10.9568 12.2315 10.8444 12.24C10.7319 12.2486 10.6359 12.2567 10.631 12.2579C10.6261 12.2592 10.5421 12.2664 10.4444 12.2738C10.3466 12.2813 10.2466 12.2909 10.2221 12.2952C10.1977 12.2995 10.0977 12.3108 9.99993 12.3203C9.90215 12.3299 9.77815 12.342 9.72437 12.3474C9.67059 12.3527 9.46259 12.3726 9.26215 12.3914C9.0617 12.4103 8.8457 12.4302 8.78215 12.4355C8.71859 12.4409 8.60259 12.4531 8.52437 12.4625C8.44615 12.472 8.29015 12.4881 8.1777 12.4985C8.06526 12.5088 7.92926 12.5206 7.87548 12.5248C7.8217 12.529 7.6897 12.5409 7.58215 12.5514C7.47459 12.5619 7.32259 12.5778 7.24437 12.5869C7.16615 12.596 7.04215 12.6084 6.96881 12.6147C6.89548 12.6208 6.81148 12.6287 6.78215 12.6321C6.75282 12.6355 6.62881 12.6471 6.50659 12.6579C6.38437 12.6687 6.20837 12.6849 6.11548 12.694C6.02259 12.703 5.85859 12.7183 5.75104 12.728C5.64348 12.7376 5.53148 12.7495 5.50215 12.7545C5.47281 12.7594 5.37281 12.7682 5.27993 12.774C5.18704 12.7798 5.06385 12.7918 5.0062 12.8006C4.94855 12.8095 4.89555 12.8131 4.88844 12.8087C4.88135 12.8043 4.871 12.7346 4.86547 12.6537C4.85994 12.5729 4.84674 12.3916 4.83612 12.2509C4.82549 12.1101 4.82057 11.9912 4.82517 11.9866C4.82978 11.982 4.90798 11.9716 4.99897 11.9634C5.08994 11.9552 5.25637 11.9403 5.36881 11.9302C5.48126 11.9201 5.60126 11.9078 5.63548 11.9028C5.6697 11.8978 5.7937 11.8854 5.91104 11.8753C6.02837 11.8652 6.16437 11.853 6.21326 11.8483C6.26215 11.8435 6.33815 11.8355 6.38215 11.8305C6.42615 11.8254 6.54215 11.814 6.63993 11.8051C6.7377 11.7961 6.9057 11.7803 7.01326 11.7699C7.12081 11.7595 7.25282 11.747 7.30659 11.742C7.36037 11.737 7.48437 11.7247 7.58215 11.7147C7.67993 11.7047 7.83993 11.6892 7.9377 11.6802C8.03548 11.6712 8.16348 11.659 8.22215 11.6531C8.28082 11.6472 8.40082 11.6351 8.48881 11.6261C8.57682 11.6171 8.70882 11.6055 8.78215 11.6002C8.85548 11.5949 8.93948 11.5868 8.96882 11.5821C8.99815 11.5774 9.11415 11.5654 9.22659 11.5554C9.33904 11.5454 9.45904 11.5339 9.49326 11.5299C9.52748 11.5259 9.65148 11.5137 9.76882 11.5028C9.88615 11.492 10.0261 11.4792 10.0799 11.4745C10.1337 11.4698 10.2577 11.4579 10.3555 11.448C10.4533 11.4381 10.6093 11.4223 10.7021 11.413C10.795 11.4036 10.935 11.389 11.0133 11.3805C11.0915 11.372 11.165 11.3639 11.1767 11.3625C11.1883 11.3612 11.2041 11.37 11.2117 11.3823Z" fill="white"/>
</g>
<defs>
<clipPath id="clip0_1461_1287">
<rect width="16" height="16" fill="white"/>
</clipPath>
</defs>
</svg>
