<svg width="16" height="16" viewBox="0 0 16 16" fill="none" xmlns="http://www.w3.org/2000/svg">
<path fill-rule="evenodd" clip-rule="evenodd" d="M7.67279 0.062071C7.68012 0.0974098 7.72 0.274018 7.76142 0.454566C7.80284 0.635114 7.86898 0.924133 7.9084 1.09683C7.94782 1.26953 8.00434 1.50996 8.03397 1.63114C8.06363 1.75231 8.10784 1.95141 8.13228 2.07359C8.15671 2.19576 8.18763 2.32784 8.20101 2.36709C8.2144 2.40634 8.23995 2.5091 8.25776 2.59545C8.27557 2.6818 8.31659 2.86163 8.34893 2.99508C8.38125 3.12853 8.41385 3.26983 8.42135 3.30908C8.42883 3.34833 8.46534 3.50889 8.50245 3.66589C8.53956 3.82289 8.60427 4.10548 8.64623 4.29388C8.68819 4.48228 8.76609 4.81626 8.81939 5.03606C8.87265 5.25585 8.93639 5.5256 8.961 5.6355C8.98561 5.7454 9.02936 5.93808 9.05825 6.06368C9.08711 6.18928 9.14386 6.43976 9.18436 6.62031C9.22484 6.80086 9.27665 7.02565 9.29949 7.11985C9.32232 7.21405 9.3316 7.30071 9.32013 7.31244C9.30865 7.32415 9.0186 7.40444 8.67558 7.49085C8.33255 7.57725 8.02809 7.64793 7.99897 7.64793C7.96986 7.64793 7.94602 7.64097 7.94602 7.63246C7.94602 7.62395 7.92624 7.51797 7.90206 7.39696C7.87785 7.27596 7.84734 7.14482 7.83424 7.10557C7.82111 7.06633 7.79522 6.96356 7.77666 6.87721C7.75814 6.79086 7.72351 6.63672 7.69971 6.53467C7.67593 6.43262 7.64538 6.30417 7.63183 6.24922C7.61827 6.19427 7.57325 5.99517 7.53177 5.80677C7.4903 5.61837 7.4372 5.38716 7.41374 5.29296C7.3903 5.19876 7.34517 4.99966 7.31343 4.85051C7.28169 4.70136 7.24726 4.57091 7.2369 4.56061C7.22657 4.5503 6.60155 4.69605 5.84796 4.88445C5.09437 5.07285 4.47368 5.23096 4.46868 5.23581C4.46366 5.24064 4.47274 5.29402 4.48887 5.35442C4.50499 5.41482 4.5495 5.59911 4.58777 5.76396C4.62605 5.9288 4.69225 6.21782 4.73493 6.40622C4.7776 6.59462 4.85473 6.9286 4.90634 7.14839C4.95795 7.36819 5.04236 7.72563 5.09391 7.94272C5.17344 8.27764 5.18146 8.34135 5.14672 8.36333C5.12419 8.37757 5.08101 8.38942 5.05072 8.38968C5.02043 8.3899 4.95621 8.40304 4.90799 8.41885C4.85978 8.43466 4.6099 8.49889 4.35271 8.56157C4.09554 8.62426 3.86224 8.67556 3.83427 8.67556C3.7965 8.67556 3.77855 8.64438 3.76439 8.55424C3.75389 8.48753 3.7345 8.39439 3.72129 8.34729C3.70807 8.30019 3.67116 8.14604 3.63922 8.00475C3.60728 7.86345 3.56084 7.65792 3.53603 7.54802C3.5112 7.43813 3.47934 7.30325 3.46518 7.2483C3.45105 7.19335 3.42685 7.09059 3.4114 7.01994C3.39593 6.94929 3.36233 6.80157 3.33673 6.69167C3.31112 6.58177 3.27861 6.4469 3.26448 6.39195C3.25035 6.337 3.23103 6.2535 3.22155 6.2064C3.21207 6.1593 3.1851 6.03727 3.1616 5.93523C3.13811 5.83318 3.108 5.70472 3.09467 5.64977C3.08134 5.59483 3.0577 5.49206 3.04217 5.42141C3.02664 5.35076 2.98634 5.17093 2.95265 5.02178C2.91894 4.87263 2.87815 4.69922 2.86199 4.63642C2.84581 4.57362 2.82123 4.48371 2.80739 4.43661C2.79352 4.38951 2.75612 4.22894 2.72427 4.07979C2.69241 3.93065 2.64128 3.69943 2.61063 3.56598C2.58 3.43253 2.53413 3.22701 2.50872 3.10926C2.48332 2.99151 2.42982 2.7603 2.38986 2.59545C2.34987 2.4306 2.31085 2.25719 2.30311 2.21009C2.29535 2.16299 2.26977 2.05381 2.24622 1.96746C2.2227 1.88111 2.1802 1.71052 2.15176 1.58841L2.1001 1.36635L2.18996 1.32885C2.23937 1.30821 2.3312 1.28255 2.394 1.27181C2.4568 1.26105 2.66232 1.21364 2.85072 1.1664C3.03912 1.11918 3.23271 1.06814 3.28092 1.05299C3.32914 1.03786 3.3957 1.02547 3.42887 1.02547C3.46201 1.02547 3.4953 1.04793 3.50283 1.07542C3.51037 1.10291 3.53155 1.19603 3.54988 1.28237C3.5682 1.36872 3.61981 1.59352 3.66454 1.78191C3.7093 1.97031 3.7721 2.24006 3.80413 2.38136C3.83613 2.52266 3.89493 2.77956 3.93475 2.95226C3.97457 3.12496 4.01919 3.31122 4.03391 3.36617C4.04862 3.42112 4.08304 3.57198 4.11042 3.7014C4.13782 3.83082 4.1697 3.95208 4.18132 3.97089C4.19696 3.99619 4.39421 3.95816 4.93956 3.8248C5.34499 3.72566 5.70238 3.63469 5.73378 3.62262C5.76517 3.61054 5.94501 3.56564 6.13341 3.52282C6.3218 3.48003 6.50164 3.43476 6.53304 3.42223C6.56444 3.40973 6.67043 3.38292 6.76854 3.36266C6.87775 3.34013 6.94694 3.31136 6.94694 3.2885C6.94694 3.26794 6.92836 3.17745 6.90564 3.08742C6.88292 2.99739 6.81729 2.71819 6.75977 2.467C6.70225 2.2158 6.636 1.9332 6.61254 1.839C6.58907 1.7448 6.53838 1.52643 6.49987 1.35374C6.46136 1.18104 6.41906 0.994782 6.40584 0.939833C6.39262 0.884884 6.36816 0.775698 6.35146 0.697199C6.33479 0.6187 6.30787 0.509887 6.29169 0.455394C6.26965 0.381262 6.27117 0.348264 6.29771 0.324343C6.31724 0.30676 6.45525 0.263086 6.6044 0.227262C6.75355 0.191466 6.92054 0.151845 6.97549 0.1392C7.03044 0.126583 7.17173 0.0906448 7.28948 0.0593308C7.40723 0.0280168 7.53865 0.00138412 7.58153 0.000128132C7.64033 -0.00158457 7.66274 0.0136014 7.67279 0.062071ZM12.7302 3.22027C12.7757 3.23423 12.9221 3.27916 13.0556 3.32012C13.189 3.36106 13.4132 3.42668 13.5536 3.46593C13.6941 3.50518 13.8208 3.54906 13.8352 3.56341C13.8497 3.57797 13.8506 3.60646 13.8372 3.62773C13.824 3.64871 13.7723 3.82646 13.7224 4.0227C13.6725 4.21895 13.5909 4.54008 13.5412 4.73633C13.4915 4.93258 13.44 5.11884 13.4266 5.15024C13.4133 5.18163 13.3964 5.23944 13.389 5.27869C13.3816 5.31794 13.3344 5.51704 13.284 5.72114C13.2337 5.92523 13.1811 6.11791 13.1672 6.14931C13.1534 6.18071 13.1043 6.36055 13.0581 6.54895C13.012 6.73734 12.948 6.97992 12.9159 7.08802C12.8838 7.19609 12.8529 7.28923 12.8472 7.29497C12.8414 7.30074 12.78 7.29334 12.7107 7.27853C12.6413 7.26374 12.4754 7.21967 12.342 7.18056C12.2085 7.14146 11.9937 7.07934 11.8645 7.04252C11.7353 7.00567 11.6149 6.96085 11.597 6.9429C11.5724 6.91838 11.5834 6.83311 11.6409 6.60113C11.683 6.43114 11.7282 6.26635 11.7413 6.23495C11.7545 6.20355 11.8049 6.01729 11.8534 5.82105C11.9019 5.6248 11.988 5.29082 12.0447 5.07887C12.1014 4.86693 12.1994 4.48799 12.2624 4.23679C12.3255 3.9856 12.3882 3.75438 12.4017 3.72298C12.4153 3.69158 12.432 3.63378 12.4387 3.59453C12.4455 3.55528 12.458 3.5039 12.4665 3.48035C12.4749 3.4568 12.4959 3.38292 12.5129 3.31621C12.5351 3.22955 12.5588 3.1949 12.5957 3.1949C12.6242 3.1949 12.6847 3.20631 12.7302 3.22027ZM11.9232 9.18429C11.9955 9.21626 12.1181 9.30175 12.1956 9.37428C12.2737 9.4473 12.3697 9.57598 12.4106 9.66253C12.469 9.78579 12.4847 9.8626 12.4848 10.0251C12.4849 10.1493 12.4651 10.2874 12.4349 10.3726C12.4049 10.4571 12.3247 10.5789 12.2352 10.6758C12.1387 10.7802 12.0324 10.8608 11.9355 10.9028C11.8529 10.9387 11.7182 10.9714 11.6361 10.9755C11.5541 10.9795 11.4251 10.9666 11.3495 10.9466C11.2739 10.9267 11.1479 10.8679 11.0695 10.816C10.991 10.7641 10.8867 10.6627 10.8376 10.5906C10.7885 10.5186 10.728 10.4099 10.7031 10.3491C10.6781 10.2881 10.6578 10.1574 10.6578 10.0576C10.6578 9.9455 10.6799 9.81753 10.7158 9.72145C10.7478 9.63613 10.8252 9.50802 10.8879 9.43677C10.9507 9.36549 11.0474 9.27914 11.1028 9.24489C11.1583 9.21061 11.2639 9.16522 11.3375 9.14401C11.4111 9.1228 11.5434 9.1101 11.6316 9.11581C11.7197 9.12149 11.851 9.15232 11.9232 9.18429ZM13.2743 13.7066C13.2866 13.7263 13.2995 13.761 13.3029 13.7838C13.3063 13.8067 13.3167 13.9479 13.3259 14.0978C13.3351 14.2477 13.3564 14.4956 13.3734 14.6487C13.3903 14.8018 13.3974 14.9447 13.3891 14.9663C13.3804 14.9891 13.3047 15.015 13.2077 15.0283C13.1162 15.0409 13.0349 15.053 13.0271 15.0551C13.0192 15.0572 12.8651 15.0702 12.6845 15.0839C12.504 15.0977 12.3498 15.1106 12.342 15.1127C12.3341 15.1147 12.1992 15.1262 12.0422 15.1382C11.8852 15.1502 11.7247 15.1656 11.6854 15.1725C11.6462 15.1794 11.4856 15.1975 11.3286 15.2129C11.1716 15.2282 10.9725 15.2477 10.8862 15.2563C10.7998 15.2649 10.4658 15.2967 10.144 15.327C9.82215 15.3573 9.47532 15.3892 9.37328 15.3978C9.27123 15.4065 9.08497 15.426 8.95937 15.4411C8.83377 15.4563 8.58329 15.4823 8.40274 15.4989C8.22219 15.5154 8.00382 15.5345 7.91748 15.5412C7.83113 15.5478 7.61918 15.5671 7.44648 15.5839C7.27378 15.6007 7.02972 15.6263 6.90412 15.6409C6.77853 15.6554 6.57942 15.6755 6.46168 15.6854C6.34393 15.6954 6.20905 15.708 6.16195 15.7134C6.11485 15.7189 5.91575 15.7375 5.7195 15.7548C5.52326 15.7722 5.24066 15.7982 5.09151 15.8128C4.94236 15.8273 4.67903 15.8519 4.50634 15.8674C4.33364 15.8829 4.1538 15.902 4.1067 15.9099C4.05961 15.9178 3.89904 15.932 3.74989 15.9413C3.60074 15.9506 3.40295 15.9699 3.31038 15.9841C3.21781 15.9982 3.13272 16.0041 3.1213 15.997C3.10991 15.99 3.0933 15.878 3.08442 15.7481C3.07554 15.6183 3.05433 15.3272 3.03729 15.1013C3.02022 14.8754 3.01231 14.6844 3.01971 14.677C3.0271 14.6697 3.15267 14.6529 3.29876 14.6397C3.44483 14.6266 3.71207 14.6026 3.89262 14.5864C4.07316 14.5702 4.26584 14.5504 4.32079 14.5424C4.37574 14.5344 4.57484 14.5145 4.76324 14.4983C4.95164 14.482 5.17001 14.4625 5.24851 14.4549C5.32701 14.4473 5.44904 14.4344 5.51969 14.4263C5.59034 14.4182 5.77659 14.3998 5.93359 14.3855C6.09059 14.3712 6.36034 14.3458 6.53304 14.3291C6.70574 14.3124 6.91768 14.2922 7.00403 14.2842C7.09038 14.2762 7.28948 14.2565 7.44648 14.2405C7.60348 14.2244 7.86039 14.1995 8.01738 14.185C8.17438 14.1705 8.37991 14.151 8.47411 14.1415C8.5683 14.1321 8.76098 14.1125 8.90228 14.0981C9.04358 14.0837 9.25553 14.065 9.37328 14.0565C9.49102 14.0481 9.6259 14.035 9.673 14.0275C9.7201 14.02 9.90636 14.0007 10.0869 13.9846C10.2675 13.9685 10.4601 13.9501 10.5151 13.9436C10.57 13.9372 10.7691 13.9177 10.9575 13.9003C11.1459 13.8828 11.3707 13.8623 11.4571 13.8548C11.5434 13.8472 11.7425 13.828 11.8995 13.8121C12.0565 13.7963 12.307 13.771 12.4561 13.7559C12.6053 13.7409 12.8301 13.7174 12.9557 13.7038C13.0813 13.6902 13.1993 13.6772 13.218 13.675C13.2367 13.6728 13.2621 13.687 13.2743 13.7066Z" fill="#FF00FF"/>
</svg>
