<svg width="16" height="16" viewBox="0 0 16 16" fill="none" xmlns="http://www.w3.org/2000/svg">
<g clip-path="url(#clip0_1447_1812)">
<path fill-rule="evenodd" clip-rule="evenodd" d="M7.26972 0.712164C9.39198 -0.63979 12.3274 -0.00954509 13.8137 2.117V2.12843C14.1664 2.62224 14.417 3.1815 14.5507 3.77342C14.6845 4.36533 14.6987 4.978 14.5926 5.57549C14.4889 6.14574 14.2711 6.68918 13.9523 7.17325C14.418 8.06069 14.5744 9.07806 14.3968 10.0644C14.2902 10.6486 14.0635 11.2044 13.7309 11.6964C13.3983 12.1885 12.9671 12.606 12.4646 12.9226L8.73744 15.2878C6.61518 16.6398 3.67975 16.0095 2.19346 13.883C1.84046 13.3893 1.58971 12.8301 1.45596 12.2381C1.3222 11.6462 1.30813 11.0334 1.41459 10.4359C1.51713 9.86559 1.73447 9.32202 2.05341 8.83818C1.58805 7.95013 1.43215 6.93225 1.61038 5.94563C1.71607 5.36107 1.94249 4.80497 2.27518 4.31283C2.60787 3.82069 3.03951 3.40332 3.54256 3.08737L7.26972 0.712164ZM5.13078 13.9988C5.69914 14.2097 6.3185 14.2411 6.90528 14.0888C7.17315 14.0168 7.42854 13.9045 7.66271 13.7558L11.3913 11.3806C11.6942 11.19 11.954 10.9382 12.1541 10.6414C12.3541 10.3447 12.4901 10.0094 12.5532 9.65709C12.6171 9.29787 12.6085 8.92951 12.528 8.57365C12.4475 8.21779 12.2967 7.88161 12.0844 7.58485C11.7392 7.08682 11.2494 6.7068 10.6812 6.49619C10.1131 6.28557 9.49389 6.25453 8.90748 6.40725C8.63918 6.47805 8.38361 6.59041 8.15005 6.74024L6.72092 7.64631C6.64999 7.69063 6.57295 7.72433 6.49226 7.74634C6.31659 7.79061 6.13162 7.78042 5.96188 7.71712C5.79215 7.65382 5.64567 7.5404 5.54189 7.39192C5.47792 7.30219 5.43236 7.20067 5.40783 7.09323C5.3833 6.9858 5.38029 6.87457 5.39898 6.76596C5.41829 6.65998 5.45938 6.55915 5.51964 6.46986C5.57991 6.38057 5.65805 6.30474 5.74911 6.24719L9.47771 3.87627C9.54836 3.83141 9.62547 3.79767 9.70637 3.77623C9.88122 3.7302 10.0659 3.7385 10.236 3.80002C10.406 3.86155 10.5533 3.97338 10.6582 4.12065C10.7725 4.28182 10.8262 4.47823 10.8097 4.67515L10.7968 4.81806L10.9397 4.85951C11.4634 5.01809 11.9563 5.26455 12.3974 5.58836L12.5875 5.73127L12.6589 5.5169C12.6957 5.4031 12.7253 5.28711 12.7475 5.16963C12.8116 4.81041 12.8031 4.44202 12.7226 4.08614C12.6421 3.73026 12.4912 3.39408 12.2788 3.09739C11.9337 2.59925 11.4439 2.21907 10.8758 2.00822C10.3076 1.79736 9.6884 1.766 9.10185 1.91836C8.83594 1.99022 8.58248 2.10201 8.35012 2.24992L4.61724 4.62513C4.31433 4.81578 4.05454 5.06754 3.85447 5.36431C3.65441 5.66109 3.51847 5.99635 3.45536 6.34866C3.39089 6.70759 3.39876 7.07579 3.47852 7.43164C3.55828 7.78749 3.70832 8.12382 3.91983 8.42089C4.26502 8.9178 4.75414 9.29704 5.32136 9.50758C5.88859 9.71811 6.50669 9.74984 7.09249 9.59849C7.35985 9.52694 7.61476 9.41514 7.8485 9.26694L9.27763 8.35944C9.34828 8.31459 9.4254 8.28085 9.50629 8.2594C9.68298 8.21355 9.86948 8.22295 10.0407 8.28631C10.2119 8.34968 10.3595 8.46398 10.4638 8.61382C10.5281 8.70312 10.5738 8.80438 10.5984 8.91164C10.6229 9.0189 10.6258 9.12998 10.6067 9.23835C10.5878 9.34468 10.5469 9.44588 10.4866 9.53547C10.4263 9.62506 10.348 9.70104 10.2566 9.75856L6.53513 12.1338C6.46435 12.1784 6.38727 12.2121 6.30647 12.2338C6.12978 12.2797 5.94328 12.2703 5.77208 12.2069C5.60089 12.1435 5.45322 12.0292 5.34896 11.8794C5.23453 11.7197 5.17943 11.5251 5.19318 11.3292L5.20604 11.1863L5.06313 11.1448C4.54131 10.9875 4.04989 10.743 3.60971 10.4217L3.41821 10.2788L3.34818 10.4931C3.31027 10.6056 3.28065 10.7207 3.25957 10.8375C3.19534 11.1967 3.2036 11.565 3.28386 11.9209C3.36411 12.2768 3.51475 12.613 3.7269 12.9098C4.07242 13.4079 4.56242 13.788 5.13078 13.9988Z" fill="#FF00FF"/>
</g>
<defs>
<clipPath id="clip0_1447_1812">
<rect width="16" height="16" fill="white"/>
</clipPath>
</defs>
</svg>
