<svg width="16" height="16" viewBox="0 0 16 16" fill="none" xmlns="http://www.w3.org/2000/svg">
<path d="M13.8139 2.117C12.3277 -0.00954509 9.39222 -0.63979 7.26997 0.712164L3.5428 3.08737C3.03975 3.40332 2.60811 3.82069 2.27542 4.31283C1.94274 4.80497 1.71632 5.36107 1.61062 5.94563C1.43239 6.93225 1.58829 7.95013 2.05365 8.83818C1.73471 9.32202 1.51738 9.86559 1.41483 10.4359C1.30838 11.0334 1.32244 11.6462 1.4562 12.2381C1.58996 12.8301 1.84071 13.3893 2.19371 13.883C3.68 16.0095 6.61543 16.6398 8.73768 15.2878L12.4648 12.9226C12.9673 12.606 13.3985 12.1885 13.7311 11.6964C14.0637 11.2044 14.2905 10.6486 14.397 10.0644C14.5746 9.07806 14.4182 8.06069 13.9526 7.17325C14.2713 6.68918 14.4891 6.14574 14.5928 5.57549C14.6989 4.978 14.6847 4.36533 14.551 3.77342C14.4172 3.1815 14.1667 2.62224 13.8139 2.12843" fill="#FF3E00"/>
<path d="M6.90523 14.0888C6.31845 14.241 5.69909 14.2096 5.13073 13.9988C4.56237 13.788 4.07237 13.4078 3.72685 12.9097C3.5147 12.6129 3.36407 12.2767 3.28381 11.9208C3.20355 11.565 3.19529 11.1966 3.25952 10.8375C3.28061 10.7207 3.31022 10.6056 3.34813 10.4931L3.41816 10.2787L3.60966 10.4216C4.04984 10.743 4.54126 10.9875 5.06308 11.1448L5.20599 11.1862L5.19313 11.3291C5.17938 11.5251 5.23448 11.7197 5.34891 11.8793C5.45317 12.0292 5.60084 12.1435 5.77203 12.2068C5.94323 12.2702 6.12973 12.2796 6.30642 12.2338C6.38722 12.212 6.4643 12.1783 6.53508 12.1337L10.2565 9.75851C10.3479 9.70099 10.4263 9.62501 10.4866 9.53542C10.5469 9.44583 10.5878 9.34463 10.6067 9.2383C10.6257 9.12994 10.6229 9.01885 10.5983 8.91159C10.5738 8.80434 10.528 8.70307 10.4638 8.61378C10.3595 8.46393 10.2118 8.34963 10.0406 8.28626C9.86943 8.2229 9.68293 8.21351 9.50624 8.25935C9.42535 8.2808 9.34823 8.31454 9.27758 8.35939L7.84845 9.26689C7.61471 9.41509 7.3598 9.52689 7.09244 9.59844C6.50664 9.74979 5.88854 9.71806 5.32131 9.50753C4.75409 9.29699 4.26497 8.91775 3.91978 8.42084C3.70827 8.12377 3.55823 7.78744 3.47847 7.43159C3.39871 7.07574 3.39084 6.70754 3.45531 6.34861C3.51842 5.9963 3.65436 5.66104 3.85442 5.36427C4.05449 5.06749 4.31428 4.81573 4.61719 4.62508L8.35008 2.24987C8.58243 2.10196 8.83589 1.99017 9.1018 1.91831C9.68835 1.76595 10.3075 1.79731 10.8757 2.00817C11.4439 2.21902 11.9336 2.59921 12.2787 3.09734C12.4911 3.39403 12.642 3.73021 12.7225 4.08609C12.803 4.44197 12.8115 4.81036 12.7475 5.16958C12.7252 5.28706 12.6956 5.40305 12.6589 5.51686L12.5874 5.73123L12.3974 5.58831C11.9563 5.2645 11.4634 5.01804 10.9397 4.85946L10.7967 4.81801L10.8096 4.6751C10.8261 4.47818 10.7725 4.28177 10.6581 4.1206C10.5532 3.97333 10.4059 3.8615 10.2359 3.79998C10.0659 3.73845 9.88117 3.73015 9.70632 3.77618C9.62543 3.79762 9.54831 3.83136 9.47766 3.87622L5.74906 6.24714C5.658 6.3047 5.57986 6.38052 5.51959 6.46981C5.45933 6.5591 5.41824 6.65993 5.39893 6.76591C5.38024 6.87452 5.38325 6.98575 5.40778 7.09318C5.43231 7.20062 5.47787 7.30214 5.54184 7.39187C5.64562 7.54035 5.7921 7.65377 5.96184 7.71707C6.13157 7.78037 6.31655 7.79056 6.49221 7.74629C6.5729 7.72428 6.64994 7.69058 6.72087 7.64626L8.15 6.74019C8.38356 6.59036 8.63913 6.478 8.90743 6.4072C9.49384 6.25448 10.113 6.28553 10.6812 6.49614C11.2494 6.70675 11.7392 7.08677 12.0844 7.5848C12.2966 7.88156 12.4474 8.21775 12.5279 8.57361C12.6084 8.92946 12.617 9.29782 12.5531 9.65704C12.49 10.0093 12.3541 10.3446 12.154 10.6414C11.954 10.9382 11.6942 11.1899 11.3913 11.3806L7.66267 13.7558C7.42849 13.9045 7.1731 14.0167 6.90523 14.0888Z" fill="white"/>
</svg>
