<svg width="20" height="20" viewBox="0 0 20 20" fill="none" xmlns="http://www.w3.org/2000/svg">
<g clip-path="url(#clip0)">
<path fill-rule="evenodd" clip-rule="evenodd" d="M9.08709 0.890205C11.7399 -0.799738 15.4092 -0.0119314 17.2671 2.64625V2.66054C17.708 3.2778 18.0212 3.97687 18.1883 4.71677C18.3555 5.45667 18.3733 6.2225 18.2407 6.96936C18.111 7.68217 17.8388 8.36147 17.4403 8.96656C18.0224 10.0759 18.2179 11.3476 17.9959 12.5805C17.8628 13.3108 17.5793 14.0055 17.1635 14.6205C16.7478 15.2356 16.2088 15.7575 15.5807 16.1533L10.9217 19.1098C8.26892 20.7997 4.59963 20.0119 2.74177 17.3538C2.30052 16.7367 1.98708 16.0376 1.81988 15.2977C1.65269 14.5577 1.63511 13.7918 1.76817 13.0449C1.89636 12.332 2.16802 11.6525 2.5667 11.0477C1.985 9.93767 1.79012 8.66531 2.01291 7.43204C2.14503 6.70134 2.42806 6.00621 2.84391 5.39104C3.25977 4.77586 3.79933 4.25416 4.42814 3.85922L9.08709 0.890205ZM6.41342 17.4985C7.12387 17.7621 7.89807 17.8013 8.63153 17.611C8.96638 17.521 9.28561 17.3806 9.57833 17.1948L14.2391 14.2258C14.6177 13.9875 14.9425 13.6728 15.1925 13.3018C15.4426 12.9308 15.6125 12.5117 15.6914 12.0714C15.7713 11.6223 15.7605 11.1619 15.6599 10.7171C15.5593 10.2722 15.3708 9.85201 15.1055 9.48107C14.674 8.85852 14.0617 8.3835 13.3515 8.12023C12.6413 7.85697 11.8673 7.81816 11.1343 8.00906C10.7989 8.09757 10.4794 8.23801 10.1875 8.4253L8.40109 9.55788C8.31242 9.61328 8.21613 9.65541 8.11526 9.68293C7.89568 9.73826 7.66447 9.72552 7.45229 9.6464C7.24012 9.56727 7.05703 9.4255 6.9273 9.2399C6.84734 9.12773 6.79039 9.00084 6.75973 8.86654C6.72907 8.73225 6.7253 8.59321 6.74866 8.45745C6.7728 8.32497 6.82416 8.19894 6.89949 8.08732C6.97483 7.97571 7.0725 7.88093 7.18633 7.80899L11.8471 4.84533C11.9354 4.78927 12.0318 4.74709 12.1329 4.72028C12.3515 4.66275 12.5824 4.67313 12.7949 4.75003C13.0074 4.82694 13.1915 4.96673 13.3226 5.15081C13.4656 5.35227 13.5326 5.59779 13.512 5.84394L13.4959 6.02258L13.6746 6.07438C14.3292 6.27261 14.9453 6.58069 15.4967 6.98545L15.7343 7.16409L15.8236 6.89613C15.8695 6.75387 15.9065 6.60889 15.9344 6.46203C16.0144 6.01302 16.0038 5.55253 15.9032 5.10767C15.8025 4.66282 15.6139 4.2426 15.3484 3.87174C14.917 3.24907 14.3048 2.77384 13.5946 2.51027C12.8844 2.2467 12.1104 2.2075 11.3772 2.39795C11.0449 2.48777 10.728 2.62751 10.4376 2.8124L5.77149 5.78141C5.39285 6.01972 5.06811 6.33442 4.81803 6.70539C4.56795 7.07636 4.39803 7.49544 4.31914 7.93582C4.23855 8.38449 4.24839 8.84473 4.34809 9.28955C4.44779 9.73436 4.63534 10.1548 4.89973 10.5261C5.33121 11.1472 5.94261 11.6213 6.65164 11.8845C7.36067 12.1476 8.1333 12.1873 8.86555 11.9981C9.19975 11.9087 9.51839 11.7689 9.81056 11.5837L11.597 10.4493C11.6853 10.3932 11.7817 10.3511 11.8828 10.3243C12.1037 10.2669 12.3368 10.2787 12.5508 10.3579C12.7648 10.4371 12.9494 10.58 13.0797 10.7673C13.16 10.8789 13.2172 11.0055 13.2479 11.1396C13.2786 11.2736 13.2821 11.4125 13.2583 11.5479C13.2347 11.6808 13.1836 11.8074 13.1082 11.9193C13.0329 12.0313 12.9349 12.1263 12.8207 12.1982L8.16885 15.1672C8.08037 15.223 7.98402 15.2651 7.88303 15.2923C7.66216 15.3496 7.42903 15.3378 7.21504 15.2586C7.00105 15.1794 6.81646 15.0365 6.68613 14.8492C6.5431 14.6496 6.47423 14.4064 6.49142 14.1615L6.50749 13.9828L6.32885 13.931C5.67658 13.7344 5.0623 13.4288 4.51207 13.0271L4.2727 12.8484L4.18516 13.1164C4.13777 13.257 4.10076 13.4009 4.0744 13.5469C3.99412 13.9958 4.00444 14.4563 4.10476 14.9011C4.20508 15.346 4.39338 15.7662 4.65856 16.1372C5.09046 16.7599 5.70296 17.235 6.41342 17.4985Z" fill="#FF00FF"/>
</g>
<defs>
<clipPath id="clip0">
<rect width="20" height="20" fill="white"/>
</clipPath>
</defs>
</svg>
