<svg width="16" height="16" viewBox="0 0 16 16" fill="none" xmlns="http://www.w3.org/2000/svg">
<g clip-path="url(#clip0_1447_1734)">
<path fill-rule="evenodd" clip-rule="evenodd" d="M15.9917 3.94883C15.9961 4.10993 15.9979 4.27077 15.9989 4.43168C16 4.61518 16 4.79873 16 4.98221L16 5.00497V10.9949L16 11.0371C16 11.2143 16 11.3912 15.9988 11.5684C15.9979 11.7293 15.9961 11.8901 15.9917 12.051C15.9823 12.4016 15.9616 12.7553 15.8993 13.1018C15.8361 13.4538 15.7328 13.7815 15.57 14.1012C15.4101 14.4154 15.2012 14.7027 14.9519 14.9519C14.7027 15.2012 14.4153 15.4102 14.1011 15.5702C13.7815 15.7328 13.4541 15.836 13.1023 15.8992C12.7554 15.9615 12.4018 15.9823 12.0511 15.9917C11.8901 15.996 11.7292 15.9979 11.5683 15.9988C11.3979 16 11.2274 16 11.057 16L10.995 16H5.005L4.94294 16C4.77247 16 4.60216 16 4.43182 15.9988C4.2708 15.9979 4.10976 15.996 3.94898 15.9917C3.59835 15.9823 3.24447 15.9616 2.8978 15.8992C2.54596 15.836 2.21856 15.7328 1.89897 15.5702C1.58471 15.4101 1.2972 15.2012 1.04809 14.9519C0.798785 14.7027 0.589838 14.4154 0.430002 14.1012C0.267176 13.7815 0.163995 13.4538 0.100739 13.1018C0.0384808 12.7553 0.0178177 12.4016 0.00838865 12.051C0.00397047 11.8901 0.0021116 11.7293 0.00106093 11.5684C-3.37151e-05 11.3995 -1.43014e-05 11.2308 5.13253e-06 11.0619C7.69968e-06 11.0396 1.02672e-05 11.0173 1.02672e-05 10.9949V7.61328V5.00497C1.02672e-05 4.98486 8.4763e-06 4.96474 6.68533e-06 4.94463C-8.53853e-06 4.77367 -2.37674e-05 4.60265 0.00106093 4.43165C0.0021116 4.27074 0.00397047 4.10991 0.00838865 3.9488C0.0178177 3.59837 0.0385077 3.24475 0.100739 2.89806C0.163995 2.54598 0.267176 2.2186 0.430002 1.89877C0.589838 1.58467 0.798785 1.29725 1.04809 1.048C1.11038 0.985686 1.17506 0.925906 1.24195 0.868766C1.44263 0.697372 1.66327 0.549875 1.89894 0.429938C1.97884 0.389285 2.05923 0.352323 2.14035 0.31881C2.38373 0.218188 2.63389 0.148252 2.89772 0.100837C3.15774 0.053988 3.42184 0.0306848 3.68553 0.0179691C3.77343 0.0137395 3.86129 0.0106683 3.94895 0.00829756C4.10973 0.00393326 4.27078 0.00210133 4.4318 0.00110455C4.6228 0 4.81378 0 5.00498 0H6.75961H10.995C11.186 0 11.3772 0 11.5683 0.00107761C11.7293 0.00207439 11.8901 0.00390632 12.0511 0.00827062C12.4019 0.0177536 12.7555 0.0383358 13.1023 0.10081C13.4541 0.164012 13.7815 0.2673 14.1011 0.429938C14.4153 0.589854 14.7028 0.798775 14.9519 1.04803C15.2012 1.29728 15.4101 1.5847 15.57 1.8988C15.7328 2.21863 15.8361 2.546 15.8993 2.89809C15.9616 3.24478 15.9823 3.59839 15.9917 3.94883ZM12.6769 9.87517L12.678 9.87647C14.0527 11.568 13.6788 13.3812 13.5028 13.039C12.7843 11.641 11.4457 11.9979 10.7679 12.3497C10.7117 12.3832 10.6542 12.4149 10.5963 12.446C10.5924 12.4484 10.5881 12.4509 10.5838 12.4533C10.5807 12.4551 10.5777 12.4569 10.575 12.4587L10.5761 12.457C9.1655 13.2066 7.27158 13.2621 5.36705 12.4436C3.77001 11.7572 2.45784 10.5814 1.60586 9.21867C2.03908 9.5385 2.50709 9.82 3.00491 10.0533C5.01764 10.996 7.03915 10.9279 8.46977 10.0524C6.43361 8.48649 4.73404 6.44726 3.43081 4.79451C3.18013 4.49808 2.95208 4.19018 2.76035 3.87043C4.32094 5.29877 6.78607 7.09237 7.67062 7.58879C5.79314 5.60522 4.1388 3.16247 4.21639 3.24068C7.17331 6.22012 9.90151 7.90461 9.90151 7.90461C10.0043 7.96127 10.0808 8.00655 10.1415 8.04645C10.1974 7.90286 10.2481 7.75512 10.2902 7.60118C10.7623 5.87534 10.2309 3.90187 9.02903 2.27256C11.7717 3.91954 13.3924 7.04756 12.7283 9.69333C12.7155 9.74467 12.7007 9.79471 12.6859 9.84474C12.6829 9.85488 12.6799 9.86502 12.6769 9.87517Z" fill="#FF00FF"/>
</g>
<defs>
<clipPath id="clip0_1447_1734">
<rect width="16" height="16" fill="white"/>
</clipPath>
</defs>
</svg>
