<svg width="20" height="20" viewBox="0 0 20 20" fill="none" xmlns="http://www.w3.org/2000/svg">
<path d="M19.9986 5.5396C19.9974 5.33846 19.9952 5.13742 19.9896 4.93604C19.9779 4.49799 19.952 4.05597 19.8742 3.62261C19.7952 3.18251 19.666 2.77329 19.4625 2.37349C19.2627 1.98087 19.0015 1.62159 18.6899 1.31003C18.3784 0.998469 18.0192 0.737318 17.6264 0.537422C17.2269 0.334125 16.8176 0.205014 16.3779 0.126012C15.9443 0.0479198 15.5023 0.0221919 15.0639 0.0103383C14.8627 0.0048829 14.6616 0.00259299 14.4604 0.00134701C14.2215 0 13.9826 0 13.7438 0H8.44952H6.25622C6.01723 0 5.7785 0 5.53975 0.00138068C5.33847 0.00262666 5.13716 0.00491658 4.93619 0.010372C4.82661 0.0133354 4.71679 0.0171743 4.60691 0.0224613C4.2773 0.038356 3.94718 0.067485 3.62215 0.126046C3.29237 0.185314 2.97966 0.272735 2.67544 0.398512C2.57404 0.440404 2.47356 0.486606 2.37367 0.537422C2.07908 0.687344 1.80328 0.871716 1.55244 1.08596C1.46882 1.15738 1.38797 1.23211 1.31011 1.31C0.998482 1.62156 0.737297 1.98084 0.537502 2.37346C0.33397 2.77325 0.204994 3.18247 0.125924 3.62257C0.0481347 4.05594 0.0222721 4.49796 0.0104858 4.93601C0.00496308 5.13738 0.0026395 5.33842 0.00132617 5.53957C-0.000189217 5.77846 1.2834e-05 6.01738 1.2834e-05 6.25621V9.5166V13.7437C1.2834e-05 13.9827 -0.000222892 14.2214 0.00132617 14.4605C0.0026395 14.6616 0.00496308 14.8627 0.0104858 15.0637C0.0222721 15.502 0.048101 15.9441 0.125924 16.3773C0.204994 16.8172 0.33397 17.2268 0.537502 17.6265C0.737297 18.0192 0.998482 18.3784 1.31011 18.6899C1.62151 19.0016 1.98089 19.2627 2.37371 19.4627C2.7732 19.666 3.18245 19.795 3.62225 19.874C4.05558 19.952 4.49794 19.9779 4.93622 19.9896C5.13719 19.995 5.3385 19.9974 5.53978 19.9985C5.77854 20.0002 6.01726 20 6.25625 20H13.7438C13.9826 20 14.2215 20.0002 14.4603 19.9985C14.6615 19.9974 14.8626 19.995 15.0639 19.9896C15.5023 19.9779 15.9443 19.9519 16.3779 19.874C16.8176 19.795 17.2269 19.666 17.6263 19.4627C18.0191 19.2627 18.3784 19.0016 18.6899 18.6899C19.0015 18.3784 19.2627 18.0192 19.4624 17.6265C19.666 17.2268 19.7951 16.8173 19.8741 16.3773C19.952 15.9441 19.9779 15.502 19.9896 15.0637C19.9951 14.8627 19.9973 14.6617 19.9986 14.4605C20.0001 14.2214 20 13.9827 20 13.7437V6.25621C20 6.01738 20.0001 5.77846 19.9986 5.5396Z" fill="#F05138"/>
<path d="M15.8475 12.3456C15.847 12.345 15.8466 12.3445 15.8461 12.344C15.8682 12.2687 15.8911 12.1938 15.9104 12.1167C16.7405 8.80945 14.7146 4.89943 11.2863 2.8407C12.7886 4.87734 13.4529 7.34418 12.8627 9.50148C12.8101 9.6939 12.7468 9.87857 12.6769 10.0581C12.601 10.0082 12.5053 9.95158 12.3769 9.88076C12.3769 9.88076 8.96664 7.77516 5.27048 4.05085C5.1735 3.95309 7.24142 7.00652 9.58828 9.48599C8.48259 8.86546 5.40118 6.62346 3.45044 4.83804C3.69011 5.23773 3.97517 5.6226 4.28851 5.99313C5.91755 8.05907 8.04202 10.6081 10.5872 12.5655C8.79893 13.6599 6.27205 13.745 3.75614 12.5666C3.13386 12.275 2.54885 11.9231 2.00732 11.5233C3.0723 13.2268 4.71252 14.6965 6.70882 15.5545C9.08948 16.5776 11.4569 16.5082 13.2201 15.5713L13.2187 15.5733C13.2268 15.5682 13.237 15.5627 13.2454 15.5575C13.3178 15.5186 13.3896 15.479 13.4599 15.4371C14.3071 14.9974 15.9804 14.5512 16.8785 16.2988C17.0985 16.7265 17.5659 14.46 15.8475 12.3456Z" fill="white"/>
</svg>
