<svg width="20" height="20" viewBox="0 0 20 20" fill="none" xmlns="http://www.w3.org/2000/svg">
<path fill-rule="evenodd" clip-rule="evenodd" d="M19.9896 4.93604C19.9952 5.13742 19.9974 5.33846 19.9986 5.5396C20 5.76923 20 5.99892 20 6.22853L20 6.25621V13.7437V13.797C20 14.0182 20 14.2392 19.9986 14.4605C19.9973 14.6617 19.9951 14.8627 19.9896 15.0637C19.9779 15.502 19.952 15.9441 19.8741 16.3773C19.7951 16.8173 19.666 17.2268 19.4624 17.6265C19.2627 18.0192 19.0015 18.3784 18.6899 18.6899C18.3784 19.0016 18.0191 19.2627 17.6263 19.4627C17.2269 19.666 16.8176 19.795 16.3779 19.874C15.9443 19.9519 15.5023 19.9779 15.0639 19.9896C14.8626 19.995 14.6615 19.9974 14.4603 19.9985C14.2473 20 14.0341 20 13.8211 20L13.7438 20H6.25625L6.17888 20C5.96573 20 5.75277 20 5.53978 19.9985C5.3385 19.9974 5.13719 19.995 4.93622 19.9896C4.49794 19.9779 4.05558 19.952 3.62225 19.874C3.18245 19.795 2.7732 19.666 2.37371 19.4627C1.98089 19.2627 1.62151 19.0016 1.31011 18.6899C0.998482 18.3784 0.737297 18.0192 0.537502 17.6265C0.33397 17.2268 0.204994 16.8172 0.125924 16.3773C0.048101 15.9441 0.0222721 15.502 0.0104858 15.0637C0.00496308 14.8627 0.0026395 14.6616 0.00132617 14.4605C-4.21437e-05 14.2493 -1.78768e-05 14.0384 6.41566e-06 13.8273C9.6246e-06 13.7995 1.2834e-05 13.7716 1.2834e-05 13.7437V9.5166V6.25621C1.2834e-05 6.23107 1.05954e-05 6.20593 8.35666e-06 6.18079C-1.06732e-05 5.96709 -2.97092e-05 5.75331 0.00132617 5.53957C0.0026395 5.33842 0.00496308 5.13738 0.0104858 4.93601C0.0222721 4.49796 0.0481347 4.05594 0.125924 3.62257C0.204994 3.18247 0.33397 2.77325 0.537502 2.37346C0.737297 1.98084 0.998482 1.62156 1.31011 1.31C1.38797 1.23211 1.46882 1.15738 1.55244 1.08596C1.80328 0.871716 2.07908 0.687344 2.37367 0.537422C2.47356 0.486606 2.57404 0.440404 2.67544 0.398512C2.97966 0.272735 3.29237 0.185314 3.62215 0.126046C3.94718 0.067485 4.2773 0.038356 4.60691 0.0224613C4.71679 0.0171743 4.82661 0.0133354 4.93619 0.010372C5.13716 0.00491658 5.33847 0.00262666 5.53975 0.00138068C5.7785 0 6.01723 0 6.25622 0H8.44952H13.7438C13.9826 0 14.2215 0 14.4604 0.00134701C14.6616 0.00259299 14.8627 0.0048829 15.0639 0.0103383C15.5023 0.0221919 15.9443 0.0479198 16.3779 0.126012C16.8176 0.205014 17.2269 0.334125 17.6264 0.537422C18.0192 0.737318 18.3784 0.998469 18.6899 1.31003C19.0015 1.62159 19.2627 1.98087 19.4625 2.37349C19.666 2.77329 19.7952 3.18251 19.8742 3.62261C19.952 4.05597 19.9779 4.49799 19.9896 4.93604ZM15.8461 12.344L15.8475 12.3456C17.5659 14.46 17.0985 16.7265 16.8785 16.2988C15.9804 14.5512 14.3071 14.9974 13.4599 15.4371C13.3896 15.479 13.3178 15.5186 13.2454 15.5575C13.2415 15.5599 13.2372 15.5624 13.233 15.5649C13.228 15.5677 13.2231 15.5706 13.2187 15.5733L13.2201 15.5713C11.4569 16.5082 9.08948 16.5776 6.70882 15.5545C4.71252 14.6965 3.0723 13.2268 2.00732 11.5233C2.54885 11.9231 3.13386 12.275 3.75614 12.5666C6.27205 13.745 8.79893 13.6599 10.5872 12.5655C8.04202 10.6081 5.91755 8.05907 4.28851 5.99313C3.97517 5.6226 3.69011 5.23773 3.45044 4.83804C5.40118 6.62346 8.48259 8.86546 9.58828 9.48599C7.24142 7.00652 5.1735 3.95309 5.27048 4.05085C8.96664 7.77516 12.3769 9.88076 12.3769 9.88076C12.5053 9.95158 12.601 10.0082 12.6769 10.0581C12.7468 9.87857 12.8101 9.6939 12.8627 9.50148C13.4529 7.34418 12.7886 4.87734 11.2863 2.8407C14.7146 4.89943 16.7405 8.80945 15.9104 12.1167C15.8943 12.1808 15.8758 12.2433 15.8573 12.3059C15.8536 12.3186 15.8498 12.3313 15.8461 12.344Z" fill="#FF00FF"/>
</svg>
