<svg width="16" height="16" viewBox="0 0 16 16" fill="none" xmlns="http://www.w3.org/2000/svg">
<path fill-rule="evenodd" clip-rule="evenodd" d="M11.5303 1.96967C11.2374 1.67678 10.7626 1.67678 10.4697 1.96967L7.96967 4.46967C7.67678 4.76256 7.67678 5.23744 7.96967 5.53033C8.26256 5.82322 8.73744 5.82322 9.03033 5.53033L10.25 4.31066V9C10.25 9.41421 10.5858 9.75 11 9.75C11.4142 9.75 11.75 9.41421 11.75 9V4.31066L12.9697 5.53033C13.2626 5.82322 13.7374 5.82322 14.0303 5.53033C14.3232 5.23744 14.3232 4.76256 14.0303 4.46967L11.5303 1.96967ZM5.75 7C5.75 6.58579 5.41421 6.25 5 6.25C4.58579 6.25 4.25 6.58579 4.25 7V11.6893L3.03033 10.4697C2.73744 10.1768 2.26256 10.1768 1.96967 10.4697C1.67678 10.7626 1.67678 11.2374 1.96967 11.5303L4.46967 14.0303C4.76256 14.3232 5.23744 14.3232 5.53033 14.0303L8.03033 11.5303C8.32322 11.2374 8.32322 10.7626 8.03033 10.4697C7.73744 10.1768 7.26256 10.1768 6.96967 10.4697L5.75 11.6893V7Z" fill="#FF00FF"/>
</svg>
