<svg width="16" height="16" viewBox="0 0 16 16" fill="none" xmlns="http://www.w3.org/2000/svg">
<g clip-path="url(#clip0_2179_3847)">
<path d="M10.861 5.83582C10.8601 6.03917 10.8192 6.24037 10.7406 6.4279C10.6619 6.61544 10.5471 6.78564 10.4026 6.92876C10.2582 7.07189 10.0869 7.18514 9.89865 7.26204C9.7104 7.33894 9.50883 7.37798 9.30548 7.37693C9.10212 7.37798 8.90055 7.33894 8.7123 7.26204C8.52404 7.18514 8.35278 7.07189 8.20832 6.92876C8.06386 6.78564 7.94903 6.61544 7.87039 6.4279C7.79174 6.24037 7.75084 6.03917 7.75 5.83582C7.75084 5.63246 7.79174 5.43126 7.87039 5.24373C7.94903 5.05619 8.06386 4.88599 8.20832 4.74287C8.35278 4.59974 8.52404 4.48649 8.7123 4.40959C8.90055 4.33269 9.10212 4.29365 9.30548 4.2947C9.50883 4.29365 9.7104 4.33269 9.89865 4.40959C10.0869 4.48649 10.2582 4.59974 10.4026 4.74287C10.5471 4.88599 10.6619 5.05619 10.7406 5.24373C10.8192 5.43126 10.8601 5.63246 10.861 5.83582Z" fill="#FFC131"/>
<path d="M8.25402 10.1639C8.25318 10.3673 8.21227 10.5685 8.13363 10.756C8.05499 10.9436 7.94015 11.1138 7.79569 11.2569C7.65123 11.4 7.47998 11.5133 7.29172 11.5902C7.10346 11.6671 6.9019 11.7061 6.69854 11.7051C6.49519 11.7061 6.29362 11.6671 6.10536 11.5902C5.91711 11.5133 5.74585 11.4 5.60139 11.2569C5.45693 11.1138 5.3421 10.9436 5.26345 10.756C5.18481 10.5685 5.1439 10.3673 5.14307 10.1639C5.1439 9.96058 5.18481 9.75939 5.26345 9.57185C5.3421 9.38432 5.45693 9.21412 5.60139 9.07099C5.74585 8.92787 5.91711 8.81461 6.10536 8.73771C6.29362 8.66081 6.49519 8.62177 6.69854 8.62282C6.9019 8.62177 7.10346 8.66081 7.29172 8.73771C7.47998 8.81461 7.65123 8.92787 7.79569 9.07099C7.94015 9.21412 8.05499 9.38432 8.13363 9.57185C8.21227 9.75939 8.25318 9.96058 8.25402 10.1639Z" fill="#24C8DB"/>
<path d="M5.51318 4.448C2.82978 4.99042 0.810059 7.34357 0.810059 10.1642C0.810059 13.3868 3.44719 16 6.69853 16C7.95005 16.0033 9.17005 15.6076 10.1813 14.8703C11.1926 14.133 11.9425 13.0925 12.3222 11.8999C11.6143 12.2455 10.8523 12.4667 10.0695 12.554C9.6838 13.0867 9.17702 13.5202 8.59093 13.8186C8.00484 14.1171 7.35623 14.272 6.69853 14.2706C4.40919 14.2706 2.55379 12.4328 2.55379 10.1642C2.55379 8.39332 3.68649 6.88411 5.27228 6.30819C5.20846 5.68121 5.28823 5.04466 5.51318 4.448Z" fill="#24C8DB"/>
<path fill-rule="evenodd" clip-rule="evenodd" d="M10.4906 11.552C13.1756 11.0096 15.1938 8.65485 15.1938 5.83585C15.1938 2.61322 12.5582 2.52602e-05 9.30688 2.52602e-05C8.05508 -0.00364126 6.83472 0.391929 5.82311 1.12926C4.81151 1.86659 4.06135 2.90727 3.68164 4.1001C4.38948 3.75456 5.15146 3.53331 5.93429 3.446C6.32 2.91277 6.82696 2.47888 7.41335 2.18014C7.99975 1.88139 8.64877 1.72635 9.30688 1.7278C11.5962 1.7278 13.4516 3.56725 13.4516 5.83585C13.4516 7.6067 12.3189 9.11591 10.7331 9.69183C10.7969 10.3188 10.7172 10.9554 10.4938 11.552H10.4906Z" fill="#FFC131"/>
</g>
<defs>
<clipPath id="clip0_2179_3847">
<rect width="16" height="16" fill="white"/>
</clipPath>
</defs>
</svg>
