<svg width="16" height="16" viewBox="0 0 16 16" fill="none" xmlns="http://www.w3.org/2000/svg">
<g clip-path="url(#clip0_2179_3848)">
<path d="M10.8609 5.83582C10.8601 6.03917 10.8192 6.24037 10.7405 6.4279C10.6619 6.61544 10.5471 6.78564 10.4026 6.92876C10.2581 7.07189 10.0869 7.18514 9.89862 7.26204C9.71037 7.33894 9.5088 7.37798 9.30544 7.37693C9.10209 7.37798 8.90052 7.33894 8.71227 7.26204C8.52401 7.18514 8.35275 7.07189 8.20829 6.92876C8.06383 6.78564 7.949 6.61544 7.87036 6.4279C7.79171 6.24037 7.75081 6.03917 7.74997 5.83582C7.75081 5.63246 7.79171 5.43126 7.87036 5.24373C7.949 5.05619 8.06383 4.88599 8.20829 4.74287C8.35275 4.59974 8.52401 4.48649 8.71227 4.40959C8.90052 4.33269 9.10209 4.29365 9.30544 4.2947C9.5088 4.29365 9.71037 4.33269 9.89862 4.40959C10.0869 4.48649 10.2581 4.59974 10.4026 4.74287C10.5471 4.88599 10.6619 5.05619 10.7405 5.24373C10.8192 5.43126 10.8601 5.63246 10.8609 5.83582Z" fill="#FF00FF"/>
<path d="M8.254 10.1639C8.25317 10.3673 8.21226 10.5685 8.13361 10.756C8.05497 10.9436 7.94014 11.1138 7.79568 11.2569C7.65122 11.4 7.47996 11.5133 7.29171 11.5902C7.10345 11.6671 6.90188 11.7061 6.69853 11.7051C6.49517 11.7061 6.2936 11.6671 6.10535 11.5902C5.91709 11.5133 5.74584 11.4 5.60138 11.2569C5.45691 11.1138 5.34208 10.9436 5.26344 10.756C5.1848 10.5685 5.14389 10.3673 5.14305 10.1639C5.14389 9.96058 5.1848 9.75939 5.26344 9.57185C5.34208 9.38432 5.45691 9.21412 5.60138 9.07099C5.74584 8.92787 5.91709 8.81461 6.10535 8.73771C6.2936 8.66081 6.49517 8.62177 6.69853 8.62282C6.90188 8.62177 7.10345 8.66081 7.29171 8.73771C7.47996 8.81461 7.65122 8.92787 7.79568 9.07099C7.94014 9.21412 8.05497 9.38432 8.13361 9.57185C8.21226 9.75939 8.25317 9.96058 8.254 10.1639Z" fill="#FF00FF"/>
<path d="M5.51318 4.448C2.82978 4.99042 0.810059 7.34358 0.810059 10.1642C0.810059 13.3868 3.44719 16 6.69853 16C7.95005 16.0033 9.17005 15.6076 10.1813 14.8703C11.1926 14.133 11.9425 13.0925 12.3222 11.8999C11.6143 12.2455 10.8523 12.4667 10.0695 12.554C9.6838 13.0867 9.17702 13.5202 8.59093 13.8186C8.00484 14.1171 7.35623 14.272 6.69853 14.2706C4.40919 14.2706 2.55379 12.4328 2.55379 10.1642C2.55379 8.39332 3.68649 6.88411 5.27228 6.30819C5.20846 5.68121 5.28823 5.04466 5.51318 4.448Z" fill="#FF00FF"/>
<path fill-rule="evenodd" clip-rule="evenodd" d="M10.4906 11.552C13.1756 11.0096 15.1937 8.65485 15.1937 5.83585C15.1937 2.61322 12.5582 2.52602e-05 9.30686 2.52602e-05C8.05506 -0.00364126 6.83471 0.391929 5.8231 1.12926C4.81149 1.86659 4.06133 2.90727 3.68163 4.1001C4.38947 3.75456 5.15145 3.53331 5.93427 3.446C6.31998 2.91277 6.82694 2.47888 7.41334 2.18014C7.99973 1.88139 8.64875 1.72635 9.30686 1.7278C11.5962 1.7278 13.4516 3.56725 13.4516 5.83585C13.4516 7.6067 12.3189 9.11591 10.7331 9.69183C10.7969 10.3188 10.7172 10.9554 10.4938 11.552H10.4906Z" fill="#FF00FF"/>
</g>
<defs>
<clipPath id="clip0_2179_3848">
<rect width="16" height="16" fill="white"/>
</clipPath>
</defs>
</svg>
