<svg width="16" height="16" viewBox="0 0 16 16" fill="none" xmlns="http://www.w3.org/2000/svg">
<g clip-path="url(#clip0_1447_1733)">
<path fill-rule="evenodd" clip-rule="evenodd" d="M16 8C16 12.4183 12.4183 16 8 16C3.58172 16 0 12.4183 0 8C0 3.58172 3.58172 0 8 0C12.4183 0 16 3.58172 16 8ZM8.2867 5.90597C7.50858 6.22961 5.95344 6.89948 3.62128 7.91556C3.24257 8.06616 3.04419 8.21349 3.02613 8.35754C2.99561 8.60101 3.30049 8.69688 3.71567 8.82742C3.77214 8.84518 3.83065 8.86358 3.89064 8.88308C4.29911 9.01586 4.84857 9.17119 5.13421 9.17736C5.39331 9.18296 5.6825 9.07614 6.00178 8.8569C8.18079 7.38601 9.3056 6.64255 9.37622 6.62652C9.42604 6.61522 9.49508 6.601 9.54186 6.64258C9.58864 6.68415 9.58404 6.76289 9.57908 6.78401C9.54888 6.91277 8.3521 8.02541 7.73276 8.60119C7.53969 8.78069 7.40273 8.90802 7.37473 8.9371C7.31202 9.00224 7.2481 9.06386 7.18667 9.12308C6.80719 9.48889 6.52262 9.76322 7.20242 10.2112C7.52911 10.4265 7.79052 10.6045 8.05131 10.7821C8.33613 10.9761 8.62021 11.1695 8.98776 11.4104C9.0814 11.4718 9.17083 11.5356 9.25794 11.5977C9.5894 11.834 9.88718 12.0463 10.2551 12.0124C10.4688 11.9928 10.6897 11.7917 10.8018 11.1922C11.0668 9.77543 11.5878 6.70565 11.7082 5.44066C11.7187 5.32984 11.7054 5.188 11.6948 5.12573C11.6841 5.06347 11.6619 4.97475 11.5809 4.90908C11.4851 4.83131 11.3371 4.81491 11.2709 4.81607C10.97 4.82137 10.5084 4.98189 8.2867 5.90597Z" fill="#FF00FF"/>
</g>
<defs>
<clipPath id="clip0_1447_1733">
<rect width="16" height="16" fill="white"/>
</clipPath>
</defs>
</svg>
