<svg width="16" height="16" viewBox="0 0 16 16" fill="none" xmlns="http://www.w3.org/2000/svg">
<g clip-path="url(#clip0_1447_2963)">
<path d="M8 16C12.4183 16 16 12.4183 16 8C16 3.58172 12.4183 0 8 0C3.58172 0 0 3.58172 0 8C0 12.4183 3.58172 16 8 16Z" fill="url(#paint0_linear_1447_2963)"/>
<path fill-rule="evenodd" clip-rule="evenodd" d="M3.62118 7.91558C5.95334 6.8995 7.50848 6.22964 8.2866 5.90599C10.5083 4.98192 10.9699 4.8214 11.2708 4.8161C11.337 4.81493 11.485 4.83133 11.5808 4.90911C11.6618 4.97478 11.684 5.06349 11.6947 5.12576C11.7053 5.18802 11.7186 5.32986 11.7081 5.44069C11.5877 6.70567 11.0667 9.77546 10.8017 11.1923C10.6896 11.7918 10.4687 11.9928 10.255 12.0124C9.7904 12.0552 9.43762 11.7054 8.98766 11.4105C8.28356 10.9489 7.88578 10.6616 7.20233 10.2112C6.41248 9.69072 6.9245 9.40465 7.37464 8.93712C7.49244 8.81477 9.53937 6.95294 9.57898 6.78404C9.58394 6.76292 9.58854 6.68418 9.54176 6.6426C9.49498 6.60102 9.42595 6.61524 9.37612 6.62655C9.30551 6.64258 8.18069 7.38604 6.00168 8.85693C5.6824 9.07616 5.39321 9.18298 5.13411 9.17739C4.84847 9.17122 4.29901 9.01588 3.89054 8.8831C3.38954 8.72025 2.99136 8.63415 3.02603 8.35757C3.04409 8.21351 3.24247 8.06618 3.62118 7.91558Z" fill="white"/>
</g>
<defs>
<linearGradient id="paint0_linear_1447_2963" x1="8" y1="0" x2="8" y2="15.8813" gradientUnits="userSpaceOnUse">
<stop stop-color="#2AABEE"/>
<stop offset="1" stop-color="#229ED9"/>
</linearGradient>
<clipPath id="clip0_1447_2963">
<rect width="16" height="16" fill="white"/>
</clipPath>
</defs>
</svg>
