<svg width="20" height="20" viewBox="0 0 20 20" fill="none" xmlns="http://www.w3.org/2000/svg">
<path fill-rule="evenodd" clip-rule="evenodd" d="M20 10C20 15.5228 15.5228 20 10 20C4.47715 20 0 15.5228 0 10C0 4.47715 4.47715 0 10 0C15.5228 0 20 4.47715 20 10ZM10.3584 7.38246C9.38573 7.78701 7.4418 8.62434 4.5266 9.89445C4.05321 10.0827 3.80524 10.2669 3.78266 10.4469C3.74451 10.7513 4.12562 10.8711 4.64458 11.0343C4.71517 11.0565 4.78832 11.0795 4.8633 11.1039C5.37388 11.2698 6.06071 11.464 6.41776 11.4717C6.74164 11.4787 7.10313 11.3452 7.50222 11.0711C10.226 9.23251 11.632 8.30319 11.7203 8.28316C11.7826 8.26902 11.8689 8.25125 11.9273 8.30322C11.9858 8.35519 11.98 8.45361 11.9739 8.48002C11.9361 8.64097 10.4401 10.0318 9.66595 10.7515C9.42461 10.9759 9.25341 11.135 9.21842 11.1714C9.14002 11.2528 9.06012 11.3298 8.98334 11.4038C8.50899 11.8611 8.15328 12.204 9.00303 12.764C9.41139 13.0331 9.73815 13.2556 10.0641 13.4776C10.4202 13.7201 10.7753 13.9619 11.2347 14.2631C11.3518 14.3398 11.4635 14.4195 11.5724 14.4971C11.9867 14.7925 12.359 15.0578 12.8188 15.0155C13.0861 14.9909 13.3621 14.7397 13.5022 13.9903C13.8335 12.2193 14.4847 8.38206 14.6352 6.80083C14.6484 6.66229 14.6318 6.48499 14.6185 6.40716C14.6052 6.32933 14.5773 6.21844 14.4762 6.13635C14.3563 6.03913 14.1714 6.01863 14.0887 6.02009C13.7125 6.02672 13.1355 6.22737 10.3584 7.38246Z" fill="#FF00FF"/>
</svg>
