<svg width="20" height="20" viewBox="0 0 20 20" fill="none" xmlns="http://www.w3.org/2000/svg">
<path d="M0 8C0 4.22876 0 2.34315 1.17157 1.17157C2.34315 0 4.22876 0 8 0H12C15.7712 0 17.6569 0 18.8284 1.17157C20 2.34315 20 4.22876 20 8V12C20 15.7712 20 17.6569 18.8284 18.8284C17.6569 20 15.7712 20 12 20H8C4.22876 20 2.34315 20 1.17157 18.8284C0 17.6569 0 15.7712 0 12V8Z" fill="#100F0D"/>
<path fill-rule="evenodd" clip-rule="evenodd" d="M4.66649 10.3335L7.33351 7.66653L10.0001 10.3331L7.33324 13L10.0003 15.6671L12.6668 13L10.0005 10.3331L12.6665 7.66653L15.3335 10.3335L18 7.66649L15.3335 5L12.6667 7.66622L10.0003 5.00034L7.33328 7.66622L4.66649 5L2 7.66649L4.66649 10.3335Z" fill="white"/>
</svg>
