<svg width="16" height="16" viewBox="0 0 16 16" fill="none" xmlns="http://www.w3.org/2000/svg">
<rect opacity="0.3" x="1" y="3.5" width="5" height="9" fill="#FF00FF"/>
<path fill-rule="evenodd" clip-rule="evenodd" d="M2 4.25C1.86193 4.25 1.75 4.36193 1.75 4.5V11.5C1.75 11.6381 1.86193 11.75 2 11.75H14C14.1381 11.75 14.25 11.6381 14.25 11.5V4.5C14.25 4.36193 14.1381 4.25 14 4.25H2ZM0.25 4.5C0.25 3.5335 1.0335 2.75 2 2.75H14C14.9665 2.75 15.75 3.5335 15.75 4.5V11.5C15.75 12.4665 14.9665 13.25 14 13.25H2C1.0335 13.25 0.25 12.4665 0.25 11.5V4.5Z" fill="#FF00FF"/>
</svg>
