<svg width="16" height="16" viewBox="0 0 16 16" fill="none" xmlns="http://www.w3.org/2000/svg">
<path fill-rule="evenodd" clip-rule="evenodd" d="M10.5658 1.6H5.43439L3.71724 3.31716H4.84861L5.76576 2.4H10.2344L11.1516 3.31716H12.2829L10.5658 1.6ZM14.4001 4.9H13.3001V12.4C13.3001 13.7807 12.1808 14.9 10.8001 14.9H5.2001C3.81938 14.9 2.7001 13.7807 2.7001 12.4V4.9H1.6001V3.9H2.7001H3.2001H12.8001H13.3001H14.4001V4.9ZM3.7001 4.9H12.3001V12.4C12.3001 13.2284 11.6285 13.9 10.8001 13.9H5.2001C4.37167 13.9 3.7001 13.2284 3.7001 12.4V4.9ZM5.9001 12V6.4H6.9001V12H5.9001ZM9.1001 6.4V12H10.1001V6.4H9.1001Z" fill="#FF00FF"/>
</svg>
