<svg width="20" height="20" viewBox="0 0 20 20" fill="none" xmlns="http://www.w3.org/2000/svg">
<path fill-rule="evenodd" clip-rule="evenodd" d="M13.2071 2H6.79287L4.64642 4.14645H6.06064L7.20708 3H12.7929L13.9393 4.14645H15.3535L13.2071 2ZM18 6H16.5V16C16.5 17.3807 15.3807 18.5 14 18.5H6C4.61929 18.5 3.5 17.3807 3.5 16V6H2V5H3.5H4H16H16.5H18V6ZM4.5 6H15.5V16C15.5 16.8284 14.8284 17.5 14 17.5H6C5.17157 17.5 4.5 16.8284 4.5 16V6ZM7.5 15V8H8.5V15H7.5ZM11.5 8V15H12.5V8H11.5Z" fill="#FF00FF"/>
</svg>
