<svg width="20" height="20" viewBox="0 0 20 20" fill="none" xmlns="http://www.w3.org/2000/svg">
<path fill-rule="evenodd" clip-rule="evenodd" d="M17.9641 6.85609C17.9641 12.28 13.837 18.5322 6.29022 18.5322C3.97174 18.5322 1.8163 17.8528 0 16.6876C0.321739 16.7257 0.647826 16.7452 0.978261 16.7452C2.90217 16.7452 4.67065 16.0887 6.07391 14.9898C4.27935 14.9561 2.76304 13.7713 2.2413 12.1409C2.4913 12.1876 2.74891 12.2126 3.01304 12.2126C3.38804 12.2126 3.75109 12.1637 4.09457 12.0702C2.21739 11.692 0.803261 10.0343 0.803261 8.04522C0.803261 8.02782 0.803261 8.01152 0.803261 7.99413C1.35652 8.30174 1.99022 8.48652 2.66196 8.50826C1.56087 7.7713 0.83587 6.51696 0.83587 5.09196C0.83587 4.34087 1.03804 3.63543 1.39239 3.02891C3.41522 5.51261 6.44022 7.14522 9.85 7.31696C9.78044 7.01587 9.74457 6.70391 9.74457 6.38109C9.74457 4.11587 11.5804 2.28 13.8467 2.28C15.0272 2.28 16.0935 2.77674 16.8424 3.57456C17.7761 3.38978 18.6543 3.04848 19.4478 2.57891C19.1413 3.53652 18.4902 4.34087 17.6435 4.84848C18.4739 4.74848 19.263 4.53 20 4.20282C19.45 5.02674 18.7543 5.74848 17.9522 6.32565C17.9609 6.50174 17.9641 6.68 17.9641 6.85609Z" fill="#1DA1F2"/>
</svg>
