<svg width="20" height="20" viewBox="0 0 20 20" fill="none" xmlns="http://www.w3.org/2000/svg">
<path d="M17.9641 6.57609C17.9641 12 13.837 18.2522 6.29022 18.2522C3.97174 18.2522 1.8163 17.5728 0 16.4076C0.321739 16.4457 0.647826 16.4652 0.978261 16.4652C2.90217 16.4652 4.67065 15.8087 6.07391 14.7098C4.27935 14.6761 2.76304 13.4913 2.2413 11.8609C2.4913 11.9076 2.74891 11.9326 3.01304 11.9326C3.38804 11.9326 3.75109 11.8837 4.09457 11.7902C2.21739 11.412 0.803261 9.75435 0.803261 7.76522C0.803261 7.74783 0.803261 7.73152 0.803261 7.71413C1.35652 8.02174 1.99022 8.20652 2.66196 8.22826C1.56087 7.4913 0.83587 6.23696 0.83587 4.81196C0.83587 4.06087 1.03804 3.35543 1.39239 2.74891C3.41522 5.23261 6.44022 6.86522 9.85 7.03696C9.78044 6.73587 9.74457 6.42391 9.74457 6.10109C9.74457 3.83587 11.5804 2 13.8467 2C15.0272 2 16.0935 2.49674 16.8424 3.29457C17.7761 3.10978 18.6543 2.76848 19.4478 2.29891C19.1413 3.25652 18.4902 4.06087 17.6435 4.56848C18.4739 4.46848 19.263 4.25 20 3.92283C19.45 4.74674 18.7543 5.46848 17.9522 6.04565C17.9609 6.22174 17.9641 6.4 17.9641 6.57609Z" fill="#FF00FF"/>
</svg>
