<svg width="16" height="16" viewBox="0 0 16 16" fill="none" xmlns="http://www.w3.org/2000/svg">
<path d="M14.3713 5.26097C14.3713 9.6001 11.0696 14.6018 5.03217 14.6018C3.17739 14.6018 1.45304 14.0584 0 13.1262C0.257391 13.1566 0.518261 13.1723 0.782609 13.1723C2.32174 13.1723 3.73652 12.6471 4.85913 11.7679C3.42348 11.741 2.21043 10.7931 1.79304 9.48879C1.99304 9.52618 2.19913 9.54618 2.41043 9.54618C2.71043 9.54618 3.00087 9.50705 3.27565 9.43227C1.77391 9.12966 0.642609 7.80358 0.642609 6.21227C0.642609 6.19836 0.642609 6.18532 0.642609 6.1714C1.08522 6.41749 1.59217 6.56532 2.12957 6.58271C1.2487 5.99314 0.668696 4.98966 0.668696 3.84966C0.668696 3.24879 0.830435 2.68445 1.11391 2.19923C2.73217 4.18618 5.15217 5.49227 7.88 5.62966C7.82435 5.38879 7.79565 5.13923 7.79565 4.88097C7.79565 3.06879 9.26435 1.6001 11.0774 1.6001C12.0217 1.6001 12.8748 1.99749 13.4739 2.63575C14.2209 2.48792 14.9235 2.21488 15.5583 1.83923C15.313 2.60532 14.7922 3.24879 14.1148 3.65488C14.7791 3.57488 15.4104 3.4001 16 3.13836C15.56 3.79749 15.0035 4.37488 14.3617 4.83662C14.3687 4.97749 14.3713 5.1201 14.3713 5.26097Z" fill="#FF00FF"/>
</svg>
