<svg width="20" height="20" viewBox="0 0 20 20" fill="none" xmlns="http://www.w3.org/2000/svg">
<g clip-path="url(#clip0)">
<path fill-rule="evenodd" clip-rule="evenodd" d="M0.759011 0H19.2416C19.6606 0 20.0002 0.335786 20.0002 0.75V19.25C20.0002 19.6642 19.6606 20 19.2416 20H0.759011C0.340091 20 0.000488281 19.6642 0.000488281 19.25V0.75C0.000488281 0.335786 0.340091 0 0.759011 0ZM11.0171 10.6403V9H3.81832V10.6403H6.3884V17.9438H8.4344V10.6403H11.0171ZM11.8328 17.751C12.1627 17.9173 12.5529 18.0421 13.0034 18.1252C13.4539 18.2084 13.9287 18.25 14.4279 18.25C14.9143 18.25 15.3764 18.2042 15.8142 18.1128C16.252 18.0213 16.6359 17.8705 16.9658 17.6605C17.2957 17.4505 17.5569 17.1762 17.7494 16.8372C17.9419 16.4983 18.0381 16.0794 18.0381 15.5804C18.0381 15.2186 17.9831 14.9016 17.8731 14.6292C17.7632 14.3568 17.6046 14.1146 17.3972 13.9025C17.19 13.6905 16.9415 13.5002 16.6517 13.3318C16.3619 13.1635 16.0352 13.0044 15.6715 12.8547C15.4049 12.7465 15.1659 12.6415 14.9545 12.5397C14.7429 12.4378 14.5632 12.3338 14.4152 12.2278C14.2671 12.1218 14.1529 12.0095 14.0726 11.891C13.9922 11.7725 13.952 11.6384 13.952 11.4887C13.952 11.3515 13.9879 11.2278 14.0599 11.1176C14.1318 11.0074 14.2332 10.9128 14.3644 10.8338C14.4956 10.7548 14.6562 10.6935 14.8466 10.6498C15.0369 10.6062 15.2485 10.5843 15.4811 10.5843C15.6503 10.5843 15.829 10.5968 16.0172 10.6217C16.2055 10.6467 16.3948 10.6852 16.5851 10.7371C16.7755 10.7891 16.9606 10.8545 17.1403 10.9336C17.3201 11.0126 17.4861 11.1041 17.6384 11.208V9.34308C17.3296 9.22661 16.9922 9.14031 16.6263 9.08423C16.2605 9.02808 15.8406 9 15.3669 9C14.8847 9 14.4279 9.05092 13.9964 9.15285C13.5649 9.25469 13.1853 9.41377 12.8575 9.63C12.5296 9.84623 12.2706 10.1217 12.0802 10.4564C11.8899 10.7912 11.7947 11.1914 11.7947 11.6571C11.7947 12.2518 11.9692 12.7591 12.3182 13.179C12.6672 13.599 13.1969 13.9545 13.9076 14.2456C14.1868 14.3579 14.4469 14.4681 14.688 14.5762C14.9291 14.6843 15.1374 14.7966 15.3129 14.913C15.4885 15.0295 15.627 15.1562 15.7286 15.2935C15.8301 15.4307 15.8809 15.5866 15.8809 15.7613C15.8809 15.8902 15.8491 16.0098 15.7856 16.1199C15.7222 16.2302 15.6259 16.3258 15.4969 16.4068C15.3679 16.4879 15.2072 16.5514 15.0148 16.5971C14.8223 16.6428 14.597 16.6657 14.339 16.6657C13.8991 16.6657 13.4634 16.5898 13.0319 16.4381C12.6006 16.2863 12.2008 16.0586 11.8328 15.7551V17.751Z" fill="#FF00FF"/>
</g>
<defs>
<clipPath id="clip0">
<rect width="20" height="20" fill="white"/>
</clipPath>
</defs>
</svg>
