<svg width="16" height="16" viewBox="0 0 16 16" fill="none" xmlns="http://www.w3.org/2000/svg">
<g clip-path="url(#clip0_1447_3133)">
<path fill-rule="evenodd" clip-rule="evenodd" d="M0.607307 0H15.3934C15.7285 0 16.0002 0.268629 16.0002 0.6V15.4C16.0002 15.7314 15.7285 16 15.3934 16H0.607307C0.27217 16 0.000488281 15.7314 0.000488281 15.4V0.6C0.000488281 0.268629 0.27217 0 0.607307 0ZM8.81377 8.51225V7.2H3.05475V8.51225H5.11082V14.3551H6.74762V8.51225H8.81377ZM9.46632 14.2008C9.73026 14.3338 10.0424 14.4337 10.4028 14.5002C10.7632 14.5667 11.1431 14.6 11.5424 14.6C11.9316 14.6 12.3012 14.5634 12.6515 14.4902C13.0017 14.417 13.3088 14.2964 13.5727 14.1284C13.8367 13.9604 14.0457 13.7409 14.1996 13.4698C14.3536 13.1986 14.4306 12.8635 14.4306 12.4643C14.4306 12.1749 14.3866 11.9213 14.2986 11.7034C14.2106 11.4855 14.0837 11.2917 13.9179 11.122C13.7521 10.9524 13.5533 10.8002 13.3215 10.6655C13.0897 10.5308 12.8283 10.4035 12.5373 10.2838C12.324 10.1972 12.1328 10.1132 11.9637 10.0318C11.7944 9.95028 11.6506 9.86708 11.5322 9.78228C11.4138 9.69742 11.3224 9.60763 11.2581 9.5128C11.1938 9.41803 11.1617 9.31071 11.1617 9.19095C11.1617 9.08117 11.1904 8.98222 11.248 8.89409C11.3055 8.80591 11.3867 8.73022 11.4916 8.66702C11.5965 8.60382 11.7251 8.55477 11.8774 8.51982C12.0296 8.48492 12.1989 8.46745 12.385 8.46745C12.5204 8.46745 12.6633 8.47742 12.8139 8.49735C12.9645 8.51735 13.1159 8.54812 13.2682 8.58966C13.4205 8.63126 13.5685 8.68363 13.7124 8.74689C13.8562 8.81009 13.989 8.88326 14.1108 8.9664V7.47446C13.8637 7.38129 13.5939 7.31225 13.3012 7.26738C13.0085 7.22246 12.6726 7.2 12.2936 7.2C11.9079 7.2 11.5424 7.24074 11.1972 7.32228C10.852 7.40375 10.5484 7.53102 10.2861 7.704C10.0238 7.87698 9.81654 8.09735 9.66429 8.36511C9.51199 8.63292 9.43586 8.95311 9.43586 9.32566C9.43586 9.80142 9.57543 10.2073 9.85463 10.5432C10.1338 10.8792 10.5576 11.1636 11.1261 11.3965C11.3495 11.4863 11.5576 11.5745 11.7505 11.661C11.9434 11.7474 12.11 11.8373 12.2504 11.9304C12.3909 12.0236 12.5017 12.125 12.5829 12.2348C12.6642 12.3446 12.7048 12.4693 12.7048 12.609C12.7048 12.7122 12.6794 12.8078 12.6286 12.8959C12.5778 12.9841 12.5008 13.0606 12.3976 13.1255C12.2944 13.1903 12.1659 13.2411 12.0119 13.2777C11.858 13.3143 11.6777 13.3326 11.4713 13.3326C11.1194 13.3326 10.7708 13.2719 10.4256 13.1505C10.0805 13.029 9.76073 12.8469 9.46632 12.6041V14.2008Z" fill="#3178C6"/>
</g>
<defs>
<clipPath id="clip0_1447_3133">
<rect width="16" height="16" fill="white"/>
</clipPath>
</defs>
</svg>
