<svg width="20" height="20" viewBox="0 0 20 20" fill="none" xmlns="http://www.w3.org/2000/svg">
<path fill-rule="evenodd" clip-rule="evenodd" d="M10.862 8.6776L10.8619 8.67762L10.8619 8.67762C10.6481 8.73438 10.4313 8.79196 10.1804 8.85671L10.1653 8.86075C10.0427 8.89368 10.0299 8.89711 9.91584 8.76548C9.779 8.6104 9.67866 8.51006 9.48709 8.41883C8.91237 8.13604 8.35591 8.21814 7.83593 8.55567C7.21561 8.95705 6.89633 9.55001 6.90545 10.2889C6.91457 11.0187 7.4163 11.6208 8.13697 11.7211C8.75729 11.8032 9.27727 11.5843 9.68778 11.1191C9.74867 11.0446 9.80454 10.9652 9.86656 10.877C9.88816 10.8463 9.91051 10.8145 9.93408 10.7815H8.17346C7.98189 10.7815 7.93628 10.6629 8.00014 10.5079C8.11873 10.2251 8.33766 9.7507 8.46538 9.51352C8.49274 9.45879 8.5566 9.36756 8.69344 9.36756H11.6292C11.7611 8.94985 11.975 8.55515 12.2603 8.18169C12.9263 7.30594 13.729 6.84982 14.8146 6.65825C15.7451 6.49405 16.6208 6.58527 17.4145 7.12349C18.1351 7.6161 18.5821 8.28203 18.7007 9.15778C18.8558 10.3893 18.5 11.3928 17.6517 12.2503C17.0496 12.8615 16.3107 13.2446 15.4623 13.4179C15.3004 13.4479 15.1386 13.4621 14.9794 13.4761C14.8962 13.4834 14.8138 13.4907 14.7325 13.5C13.9024 13.4818 13.1452 13.2446 12.5066 12.6973C12.0575 12.309 11.7481 11.8319 11.5944 11.2764C11.4877 11.4918 11.3601 11.6982 11.2112 11.8945C10.5544 12.7611 9.6969 13.2993 8.61134 13.4453C7.71734 13.5639 6.8872 13.3905 6.15741 12.8432C5.48236 12.3323 5.09922 11.6573 4.99887 10.818C4.88028 9.82368 5.17219 8.92969 5.77427 8.14516C6.42196 7.29678 7.27947 6.75856 8.32854 6.56699C9.18605 6.41191 10.0071 6.51225 10.746 7.01399C11.2295 7.33327 11.5761 7.77114 11.8042 8.30024C11.8589 8.38234 11.8224 8.42796 11.7129 8.45532C11.3932 8.53652 11.13 8.60642 10.862 8.6776ZM16.9036 9.8146C16.901 9.77997 16.8991 9.74768 16.8973 9.71704V9.71702C16.8929 9.64272 16.8892 9.57814 16.8762 9.51356C16.712 8.61044 15.8819 8.09959 15.0153 8.30028C14.1669 8.49185 13.6196 9.03007 13.4189 9.88757C13.2547 10.5991 13.6013 11.3198 14.2581 11.6117C14.7599 11.8306 15.2616 11.8033 15.7451 11.557C16.4657 11.183 16.858 10.5991 16.9036 9.8146ZM1.38646 8.57393C1.36821 8.6013 1.37733 8.61954 1.41382 8.61954L4.71613 8.62866C4.7435 8.62866 4.78911 8.6013 4.80735 8.57393L4.96243 8.33675C4.98068 8.30938 4.97156 8.28201 4.93507 8.28201H1.67837C1.64188 8.28201 1.59627 8.30026 1.57803 8.32762L1.38646 8.57393ZM0.00912239 9.41319C-0.00912239 9.44056 0 9.4588 0.0364896 9.4588L4.35138 9.44968C4.38787 9.44968 4.42436 9.43143 4.43348 9.39494L4.50646 9.17601C4.51558 9.14864 4.49734 9.12127 4.46085 9.12127H0.301039C0.264549 9.12127 0.218937 9.13952 0.200693 9.16688L0.00912239 9.41319ZM2.24405 10.2981C2.20756 10.2981 2.19844 10.2707 2.21668 10.2433L2.3444 10.0153C2.36264 9.9879 2.39913 9.96053 2.43562 9.96053H4.2601C4.29659 9.96053 4.31483 9.9879 4.31483 10.0244L4.29659 10.2433C4.29659 10.2798 4.2601 10.3072 4.23273 10.3072L2.24405 10.2981Z" fill="#FF00FF"/>
</svg>
