<svg width="16" height="16" viewBox="0 0 16 16" fill="none" xmlns="http://www.w3.org/2000/svg">
<path fill-rule="evenodd" clip-rule="evenodd" d="M10.0025 6.65977C9.72941 6.72911 9.50459 6.78881 9.27567 6.8496C9.09314 6.89807 8.90797 6.94724 8.6937 7.00254L8.68082 7.00599C8.57612 7.03411 8.5652 7.03704 8.46778 6.92464C8.35093 6.7922 8.26524 6.70651 8.10164 6.62861C7.61086 6.38711 7.13566 6.45722 6.69162 6.74546C6.16188 7.08823 5.88923 7.59459 5.89702 8.2256C5.90481 8.84882 6.33327 9.36297 6.94869 9.44866C7.47843 9.51877 7.92247 9.33181 8.27303 8.93451C8.32503 8.87095 8.37274 8.80312 8.4257 8.72781C8.44415 8.70158 8.46324 8.67445 8.48336 8.64627H6.97985C6.81626 8.64627 6.77731 8.545 6.83184 8.41257C6.93311 8.17107 7.12008 7.76598 7.22914 7.56343C7.25251 7.51669 7.30704 7.43879 7.4239 7.43879H9.93094C10.0435 7.08209 10.2262 6.74504 10.4699 6.42611C11.0386 5.67826 11.7241 5.28874 12.6511 5.12515C13.4458 4.98493 14.1936 5.06283 14.8714 5.52245C15.4868 5.94312 15.8685 6.51181 15.9698 7.25967C16.1022 8.31134 15.7984 9.16827 15.0739 9.90055C14.5597 10.4225 13.9287 10.7497 13.2043 10.8977C13.0661 10.9233 12.9279 10.9354 12.7919 10.9474C12.7209 10.9536 12.6505 10.9598 12.581 10.9678C11.8721 10.9522 11.2255 10.7497 10.6802 10.2823C10.2967 9.95073 10.0325 9.54324 9.9012 9.06886C9.8101 9.25284 9.70116 9.42905 9.57399 9.59668C9.0131 10.3367 8.28082 10.7964 7.35378 10.921C6.59034 11.0223 5.88143 10.8743 5.25822 10.4069C4.68174 9.97061 4.35455 9.39413 4.26886 8.67743C4.16759 7.8283 4.41688 7.06486 4.93103 6.3949C5.48413 5.67041 6.21641 5.21079 7.11229 5.0472C7.84457 4.91476 8.54568 5.00045 9.17669 5.42892C9.58957 5.70157 9.8856 6.0755 10.0804 6.52734C10.1271 6.59745 10.0959 6.6364 10.0025 6.65977ZM14.4297 7.73726C14.426 7.6738 14.4228 7.61864 14.4117 7.56348C14.2715 6.79225 13.5626 6.356 12.8225 6.52739C12.098 6.69098 11.6306 7.1506 11.4592 7.88288C11.319 8.49052 11.6151 9.10595 12.1759 9.35523C12.6044 9.5422 13.0329 9.51883 13.4458 9.30849C14.0612 8.98909 14.3962 8.49052 14.4351 7.82056C14.4328 7.79101 14.4312 7.76341 14.4297 7.73726Z" fill="#FF00FF"/>
<path d="M1.18399 6.76111C1.16841 6.78448 1.1762 6.80006 1.20736 6.80006L4.02741 6.80785C4.05078 6.80785 4.08973 6.78448 4.10531 6.76111L4.23775 6.55856C4.25333 6.53519 4.24554 6.51182 4.21438 6.51182H1.43327C1.40211 6.51182 1.36316 6.5274 1.34758 6.55077L1.18399 6.76111Z" fill="#FF00FF"/>
<path d="M0.00779021 7.47778C-0.00779021 7.50115 0 7.51674 0.0311608 7.51674L3.71593 7.50894C3.74709 7.50894 3.77825 7.49336 3.78604 7.4622L3.84836 7.27524C3.85615 7.25187 3.84057 7.2285 3.80941 7.2285H0.257077C0.225916 7.2285 0.186965 7.24408 0.171385 7.26745L0.00779021 7.47778Z" fill="#FF00FF"/>
<path d="M1.91634 8.23354C1.88518 8.23354 1.87739 8.21017 1.89297 8.1868L2.00203 7.99204C2.01761 7.96867 2.04878 7.9453 2.07994 7.9453H3.63798C3.66914 7.9453 3.68472 7.96867 3.68472 7.99984L3.66914 8.1868C3.66914 8.21796 3.63798 8.24133 3.61461 8.24133L1.91634 8.23354Z" fill="#FF00FF"/>
</svg>
