<svg width="16" height="16" viewBox="0 0 16 16" fill="none" xmlns="http://www.w3.org/2000/svg">
<path fill-rule="evenodd" clip-rule="evenodd" d="M10.0025 6.66978C9.72941 6.73912 9.50459 6.79882 9.27567 6.85961C9.09314 6.90808 8.90797 6.95725 8.6937 7.01255L8.68082 7.016C8.57612 7.04412 8.5652 7.04705 8.46778 6.93465C8.35093 6.80221 8.26524 6.71652 8.10164 6.63862C7.61086 6.39712 7.13566 6.46723 6.69162 6.75547C6.16188 7.09824 5.88923 7.6046 5.89702 8.23561C5.90481 8.85883 6.33327 9.37298 6.94869 9.45867C7.47843 9.52878 7.92247 9.34182 8.27303 8.94452C8.32503 8.88096 8.37274 8.81313 8.4257 8.73782C8.44415 8.71159 8.46324 8.68446 8.48336 8.65628H6.97985C6.81626 8.65628 6.77731 8.55501 6.83184 8.42258C6.93311 8.18108 7.12008 7.77599 7.22914 7.57344C7.25251 7.5267 7.30704 7.4488 7.4239 7.4488H9.93094C10.0435 7.0921 10.2262 6.75505 10.4699 6.43612C11.0386 5.68826 11.7241 5.29875 12.6511 5.13516C13.4458 4.99494 14.1936 5.07284 14.8714 5.53246C15.4868 5.95313 15.8685 6.52182 15.9698 7.26968C16.1022 8.32135 15.7984 9.17828 15.0739 9.91056C14.5597 10.4325 13.9287 10.7597 13.2043 10.9077C13.0661 10.9333 12.9279 10.9454 12.7919 10.9574C12.7209 10.9636 12.6505 10.9698 12.581 10.9778C11.8721 10.9622 11.2255 10.7597 10.6802 10.2923C10.2967 9.96074 10.0325 9.55325 9.9012 9.07887C9.8101 9.26285 9.70116 9.43906 9.57399 9.60669C9.0131 10.3468 8.28082 10.8064 7.35378 10.931C6.59034 11.0323 5.88143 10.8843 5.25822 10.4169C4.68174 9.98062 4.35455 9.40414 4.26886 8.68744C4.16759 7.83831 4.41688 7.07487 4.93103 6.40491C5.48413 5.68042 6.21641 5.2208 7.11229 5.05721C7.84457 4.92477 8.54568 5.01046 9.17669 5.43893C9.58957 5.71158 9.8856 6.08551 10.0804 6.53735C10.1271 6.60746 10.0959 6.64641 10.0025 6.66978ZM14.4297 7.74731C14.426 7.68386 14.4228 7.62865 14.4117 7.57349C14.2715 6.80226 13.5626 6.36601 12.8225 6.5374C12.098 6.70099 11.6306 7.16061 11.4592 7.89289C11.319 8.50053 11.6151 9.11595 12.1759 9.36524C12.6044 9.55221 13.0329 9.52884 13.4458 9.3185C14.0612 8.9991 14.3962 8.50053 14.4351 7.83057C14.4328 7.80102 14.4312 7.77346 14.4297 7.74731Z" fill="#00ACD7"/>
<path d="M1.18399 6.77112C1.16841 6.79449 1.1762 6.81007 1.20736 6.81007L4.02741 6.81786C4.05078 6.81786 4.08973 6.79449 4.10531 6.77112L4.23775 6.56857C4.25333 6.5452 4.24554 6.52183 4.21438 6.52183H1.43327C1.40211 6.52183 1.36316 6.53741 1.34758 6.56078L1.18399 6.77112Z" fill="#00ACD7"/>
<path d="M0.00779021 7.48779C-0.00779021 7.51116 0 7.52674 0.0311608 7.52674L3.71593 7.51895C3.74709 7.51895 3.77825 7.50337 3.78604 7.47221L3.84836 7.28525C3.85615 7.26188 3.84057 7.23851 3.80941 7.23851H0.257077C0.225916 7.23851 0.186965 7.25409 0.171385 7.27746L0.00779021 7.48779Z" fill="#00ACD7"/>
<path d="M1.91634 8.24355C1.88518 8.24355 1.87739 8.22018 1.89297 8.19681L2.00203 8.00205C2.01761 7.97868 2.04878 7.95531 2.07994 7.95531H3.63798C3.66914 7.95531 3.68472 7.97868 3.68472 8.00984L3.66914 8.19681C3.66914 8.22797 3.63798 8.25134 3.61461 8.25134L1.91634 8.24355Z" fill="#00ACD7"/>
</svg>
