<svg width="16" height="16" viewBox="0 0 16 16" fill="none" xmlns="http://www.w3.org/2000/svg">
<g clip-path="url(#clip0_1447_3137)">
<path fill-rule="evenodd" clip-rule="evenodd" d="M0 8.00007C0 3.58171 3.58169 0 8 0C12.4182 0 16 3.58171 16 8.00007C16 12.4183 12.4182 16 8 16C3.58169 16 0 12.4183 0 8.00007ZM0.5 8.00006C0.5 3.85785 3.85783 0.5 8 0.5C12.142 0.5 15.5 3.85785 15.5 8.00006C15.5 12.1421 12.142 15.5 8 15.5C3.85783 15.5 0.5 12.1421 0.5 8.00006Z" fill="#2B2C2A"/>
<path fill-rule="evenodd" clip-rule="evenodd" d="M11.5823 10.3839C11.2935 10.3824 11.1801 10.2143 11.1801 10.2143C11.1646 10.1363 11.1376 9.00777 11.128 7.87868C11.1183 6.70907 11.1268 5.53839 11.1861 5.5349C11.5191 4.91607 12.5814 3.66808 12.5814 3.66808C10.5973 4.0554 9.51525 5.34271 9.51525 5.34271C9.19606 5.09349 8.54413 5.13496 8.54413 5.13496C8.84925 5.30124 9.15451 5.78559 9.15451 6.18687V10.1313C9.15451 10.1313 8.48851 10.7125 7.97514 10.7125C7.67177 10.7125 7.48464 10.5481 7.38234 10.4136C7.31158 10.3204 7.2814 10.2419 7.2814 10.2419V5.37036C7.21848 5.41532 7.12891 5.45303 7.03703 5.45249C6.92797 5.45196 6.81526 5.39787 6.73853 5.23857C6.68062 5.11886 6.64341 4.93942 6.64341 4.67825C6.64341 3.7788 7.67015 3.18359 7.67015 3.18359C6.36589 3.52958 5.15878 4.1939 3.54939 6.02086C1.94 7.84768 2.24526 9.3563 2.24526 9.3563C2.24526 9.3563 2.68921 8.31821 3.75763 7.22496C4.26356 6.70706 4.64189 6.5338 4.89993 6.53326C5.18692 6.53246 5.32521 6.7449 5.32521 6.93427V10.6433C5.32521 11.0092 5.0872 11.089 4.86772 11.0852C4.68032 11.0817 4.50685 11.0172 4.50685 11.0172C5.60273 12.5948 8.22493 12.8163 8.22493 12.8163L9.37656 11.5984L9.40349 11.6213L10.4586 12.5116C12.3872 11.3769 13.3168 9.27323 13.3168 9.27323C12.4565 10.1754 11.9078 10.3857 11.5823 10.3839Z" fill="#2B2C2A"/>
</g>
<defs>
<clipPath id="clip0_1447_3137">
<rect width="16" height="16" fill="white"/>
</clipPath>
</defs>
</svg>
