<svg width="16" height="16" viewBox="0 0 16 16" fill="none" xmlns="http://www.w3.org/2000/svg">
<g clip-path="url(#clip0_1447_1844)">
<path fill-rule="evenodd" clip-rule="evenodd" d="M0 8.00007C0 3.58171 3.58169 0 8 0C12.4182 0 16 3.58171 16 8.00007C16 12.4183 12.4182 16 8 16C3.58169 16 0 12.4183 0 8.00007ZM0.5 8.00006C0.5 3.85785 3.85783 0.5 8 0.5C12.142 0.5 15.5 3.85785 15.5 8.00006C15.5 12.1421 12.142 15.5 8 15.5C3.85783 15.5 0.5 12.1421 0.5 8.00006Z" fill="#FF00FF"/>
<path fill-rule="evenodd" clip-rule="evenodd" d="M11.5821 10.384C11.2934 10.3825 11.18 10.2143 11.18 10.2143C11.1644 10.1364 11.1375 9.00783 11.1279 7.87875C11.1182 6.70913 11.1267 5.53845 11.186 5.53496C11.519 4.91613 12.5813 3.66814 12.5813 3.66814C10.5972 4.05546 9.51513 5.34277 9.51513 5.34277C9.19593 5.09355 8.544 5.13502 8.544 5.13502C8.84913 5.3013 9.15439 5.78566 9.15439 6.18693V10.1314C9.15439 10.1314 8.48839 10.7125 7.97502 10.7125C7.67165 10.7125 7.48452 10.5481 7.38222 10.4136C7.31145 10.3205 7.28128 10.242 7.28128 10.242V5.37042C7.21836 5.41538 7.12879 5.45309 7.03691 5.45255C6.92785 5.45202 6.81513 5.39793 6.73841 5.23863C6.6805 5.11892 6.64329 4.93948 6.64329 4.67832C6.64329 3.77886 7.67003 3.18365 7.67003 3.18365C6.36576 3.52964 5.15865 4.19396 3.54926 6.02092C1.93987 7.84774 2.24513 9.35636 2.24513 9.35636C2.24513 9.35636 2.68909 8.31827 3.75751 7.22502C4.26344 6.70712 4.64177 6.53386 4.8998 6.53332C5.1868 6.53252 5.32509 6.74497 5.32509 6.93433V10.6434C5.32509 11.0093 5.08708 11.0891 4.8676 11.0852C4.68019 11.0817 4.50673 11.0173 4.50673 11.0173C5.60261 12.5949 8.2248 12.8163 8.2248 12.8163L9.37644 11.5984L9.40337 11.6214L10.4585 12.5117C12.3871 11.377 13.3167 9.27329 13.3167 9.27329C12.4564 10.1754 11.9077 10.3857 11.5821 10.384Z" fill="#FF00FF"/>
</g>
<defs>
<clipPath id="clip0_1447_1844">
<rect width="16" height="16" fill="white"/>
</clipPath>
</defs>
</svg>
