<svg width="16" height="16" viewBox="0 0 16 16" fill="none" xmlns="http://www.w3.org/2000/svg">
<g clip-path="url(#clip0_1447_3137)">
<path fill-rule="evenodd" clip-rule="evenodd" d="M0 8.00007C0 3.58171 3.58169 0 8 0C12.4182 0 16 3.58171 16 8.00007C16 12.4183 12.4182 16 8 16C3.58169 16 0 12.4183 0 8.00007ZM0.5 8.00006C0.5 3.85785 3.85783 0.5 8 0.5C12.142 0.5 15.5 3.85785 15.5 8.00006C15.5 12.1421 12.142 15.5 8 15.5C3.85783 15.5 0.5 12.1421 0.5 8.00006Z" fill="#2B2C2A"/>
<path fill-rule="evenodd" clip-rule="evenodd" d="M11.5823 10.384C11.2935 10.3825 11.1801 10.2143 11.1801 10.2143C11.1646 10.1364 11.1376 9.00783 11.128 7.87875C11.1183 6.70913 11.1268 5.53845 11.1861 5.53496C11.5191 4.91613 12.5814 3.66814 12.5814 3.66814C10.5973 4.05546 9.51525 5.34277 9.51525 5.34277C9.19606 5.09355 8.54413 5.13502 8.54413 5.13502C8.84925 5.3013 9.15451 5.78566 9.15451 6.18693V10.1314C9.15451 10.1314 8.48851 10.7125 7.97514 10.7125C7.67177 10.7125 7.48464 10.5481 7.38234 10.4136C7.31158 10.3205 7.2814 10.242 7.2814 10.242V5.37042C7.21848 5.41538 7.12891 5.45309 7.03703 5.45255C6.92797 5.45202 6.81526 5.39793 6.73853 5.23863C6.68062 5.11892 6.64341 4.93948 6.64341 4.67832C6.64341 3.77886 7.67015 3.18365 7.67015 3.18365C6.36589 3.52964 5.15878 4.19396 3.54939 6.02092C1.94 7.84774 2.24526 9.35636 2.24526 9.35636C2.24526 9.35636 2.68921 8.31827 3.75763 7.22502C4.26356 6.70712 4.64189 6.53386 4.89993 6.53332C5.18692 6.53252 5.32521 6.74497 5.32521 6.93433V10.6434C5.32521 11.0093 5.0872 11.0891 4.86772 11.0852C4.68032 11.0817 4.50685 11.0173 4.50685 11.0173C5.60273 12.5949 8.22493 12.8163 8.22493 12.8163L9.37656 11.5984L9.40349 11.6214L10.4586 12.5117C12.3872 11.377 13.3168 9.27329 13.3168 9.27329C12.4565 10.1754 11.9078 10.3857 11.5823 10.384Z" fill="#2B2C2A"/>
</g>
<defs>
<clipPath id="clip0_1447_3137">
<rect width="16" height="16" fill="white"/>
</clipPath>
</defs>
</svg>
