<svg width="20" height="20" viewBox="0 0 20 20" fill="none" xmlns="http://www.w3.org/2000/svg">
<path fill-rule="evenodd" clip-rule="evenodd" d="M14.4777 12.98C14.1168 12.9781 13.975 12.7679 13.975 12.7679C13.9556 12.6705 13.9219 11.2598 13.9099 9.84842C13.8977 8.3864 13.9084 6.92304 13.9825 6.91868C14.3987 6.14515 15.7266 4.58516 15.7266 4.58516C13.2465 5.06931 11.8939 6.67845 11.8939 6.67845C11.4949 6.36692 10.68 6.41876 10.68 6.41876C11.0614 6.62661 11.443 7.23205 11.443 7.73365V12.6642C11.443 12.6642 10.6105 13.3906 9.96881 13.3906C9.5896 13.3906 9.35568 13.1851 9.22781 13.017C9.13935 12.9006 9.10163 12.8025 9.10163 12.8025V6.71301C9.02298 6.76921 8.91101 6.81635 8.79617 6.81568C8.65984 6.81501 8.51895 6.7474 8.42305 6.54827C8.35065 6.39863 8.30414 6.17434 8.30414 5.84788C8.30414 4.72356 9.58757 3.97955 9.58757 3.97955C7.95724 4.41203 6.44835 5.24244 4.43661 7.52614C2.42487 9.80966 2.80645 11.6954 2.80645 11.6954C2.80645 11.6954 3.36139 10.3978 4.69691 9.03126C5.32933 8.38388 5.80224 8.16731 6.12479 8.16664C6.48353 8.16563 6.65639 8.43119 6.65639 8.6679V13.3042C6.65639 13.7616 6.35887 13.8614 6.08453 13.8565C5.85027 13.8521 5.63344 13.7716 5.63344 13.7716C7.00329 15.7436 10.281 16.0204 10.281 16.0204L11.7206 14.498L11.7542 14.5267L13.0732 15.6396C15.4839 14.2212 16.6459 11.5916 16.6459 11.5916C15.5705 12.7193 14.8847 12.9821 14.4777 12.98Z" fill="#2B2C2A"/>
<path fill-rule="evenodd" clip-rule="evenodd" d="M10 0.440031C12.5535 0.440031 14.9542 1.4345 16.7598 3.24009C18.5655 5.04567 19.5597 7.44646 19.5597 10.0001C19.5597 12.5535 18.5655 14.9543 16.7598 16.7599C14.9542 18.5655 12.5535 19.56 10 19.56C7.44634 19.56 5.04575 18.5655 3.24003 16.7599C1.43447 14.9543 0.43993 12.5535 0.43993 10.0001C0.43993 7.44646 1.43447 5.04567 3.24003 3.24009C5.04575 1.4345 7.44634 0.440031 10 0.440031ZM10 0C4.47711 0 0 4.47714 0 10.0001C0 15.5229 4.47711 20 10 20C15.5227 20 20 15.5229 20 10.0001C20 4.47714 15.5227 0 10 0Z" fill="#2B2C2A"/>
</svg>
