<svg width="16" height="16" viewBox="0 0 16 16" fill="none" xmlns="http://www.w3.org/2000/svg">
<path opacity="0.4" fill-rule="evenodd" clip-rule="evenodd" d="M3 9.75C3.41421 9.75 3.75 10.0858 3.75 10.5V12.75H12.25V10.5C12.25 10.0858 12.5858 9.75 13 9.75C13.4142 9.75 13.75 10.0858 13.75 10.5V13.5C13.75 13.9142 13.4142 14.25 13 14.25H3C2.58579 14.25 2.25 13.9142 2.25 13.5V10.5C2.25 10.0858 2.58579 9.75 3 9.75Z" fill="#FF00FF"/>
<path fill-rule="evenodd" clip-rule="evenodd" d="M7.46967 0.96967C7.76256 0.676777 8.23744 0.676777 8.53033 0.96967L11.5303 3.96967C11.8232 4.26256 11.8232 4.73744 11.5303 5.03033C11.2374 5.32322 10.7626 5.32322 10.4697 5.03033L8.75 3.31066V9.5C8.75 9.91421 8.41421 10.25 8 10.25C7.58579 10.25 7.25 9.91421 7.25 9.5V3.31066L5.53033 5.03033C5.23744 5.32322 4.76256 5.32322 4.46967 5.03033C4.17678 4.73744 4.17678 4.26256 4.46967 3.96967L7.46967 0.96967Z" fill="#FF00FF"/>
</svg>
