<svg width="20" height="20" viewBox="0 0 20 20" fill="none" xmlns="http://www.w3.org/2000/svg">
<path fill-rule="evenodd" clip-rule="evenodd" d="M10 2.5C12.4853 2.5 14.5 4.51472 14.5 7C14.5 8.32031 13.9314 9.50781 13.0257 10.331C13.0454 10.3131 13.0648 10.2951 13.0842 10.2769C15.1181 11.3753 16.5 13.5263 16.5 16C16.5 16.5163 16.4398 17.0185 16.3261 17.5H15.293C15.4278 17.0232 15.5 16.52 15.5 16C15.5 13.7325 14.1278 11.7854 12.1685 10.944C11.5253 11.2984 10.7862 11.5 10 11.5C9.18452 11.5 8.4197 11.2831 7.76009 10.9038C7.78376 10.9174 7.80757 10.9308 7.83151 10.944C5.8722 11.7854 4.5 13.7325 4.5 16C4.5 16.52 4.57217 17.0232 4.70703 17.5H3.67393C3.56019 17.0185 3.5 16.5163 3.5 16C3.5 13.5263 4.88188 11.3753 6.91582 10.2769C6.91582 10.2769 6.91582 10.2769 6.91582 10.2769C6.0442 9.45621 5.5 8.29166 5.5 7C5.5 4.51472 7.51472 2.5 10 2.5ZM10 3.5C8.067 3.5 6.5 5.067 6.5 7C6.5 8.933 8.067 10.5 10 10.5C11.933 10.5 13.5 8.933 13.5 7C13.5 5.067 11.933 3.5 10 3.5Z" fill="#FF00FF"/>
</svg>
