<svg width="20" height="20" viewBox="0 0 20 20" fill="none" xmlns="http://www.w3.org/2000/svg">
<path fill-rule="evenodd" clip-rule="evenodd" d="M10.7368 0.802695C10.3405 0.370944 9.65959 0.370944 9.26332 0.802695L7.74516 2.45678C7.52493 2.69673 7.20165 2.8144 6.87871 2.77215L4.6525 2.48089C4.07142 2.40487 3.5498 2.84256 3.52377 3.42802L3.42402 5.67097C3.40955 5.99635 3.23753 6.29429 2.96299 6.4695L1.0704 7.67737C0.576399 7.99264 0.458158 8.66322 0.814538 9.12844L2.17987 10.9108C2.37793 11.1693 2.43767 11.5081 2.33999 11.8188L1.66658 13.9606C1.49081 14.5197 1.83127 15.1094 2.40331 15.2367L4.59487 15.7244C4.91279 15.7952 5.17633 16.0163 5.30121 16.3171L6.16208 18.3907C6.38679 18.9319 7.02665 19.1648 7.54668 18.8946L9.53902 17.8595C9.82803 17.7094 10.1721 17.7094 10.4611 17.8595L12.4534 18.8946C12.9735 19.1648 13.6133 18.9319 13.838 18.3907L14.6989 16.3171C14.8238 16.0163 15.0873 15.7952 15.4052 15.7244L17.5968 15.2367C18.1688 15.1094 18.5093 14.5197 18.3335 13.9606L17.6601 11.8188C17.5624 11.5081 17.6222 11.1693 17.8202 10.9108L19.1856 9.12844C19.5419 8.66322 19.4237 7.99264 18.9297 7.67737L17.0371 6.4695C16.7626 6.29429 16.5905 5.99635 16.5761 5.67097L16.4763 3.42802C16.4503 2.84256 15.9287 2.40487 15.3476 2.48089L13.1214 2.77215C12.7984 2.8144 12.4752 2.69673 12.2549 2.45678L10.7368 0.802695ZM8.99995 14.4142L15.7071 7.70712L14.2928 6.29291L8.99995 11.5858L6.70705 9.29291L5.29284 10.7071L8.99995 14.4142Z" fill="#FF00FF"/>
</svg>
