<svg width="20" height="20" viewBox="0 0 20 20" fill="none" xmlns="http://www.w3.org/2000/svg">
<path fill-rule="evenodd" clip-rule="evenodd" d="M18.5 3.375C16.5 1.875 3.5 1.875 1.5 3.375C-0.5 4.875 -0.5 15.375 1.5 16.875C3.5 18.375 16.5 18.375 18.5 16.875C20.5 15.375 20.5 4.875 18.5 3.375ZM8 12.7207V7.50007C8 7.40837 8.0252 7.31843 8.0729 7.2401C8.2165 7.00422 8.5241 6.92939 8.76 7.07297L13.0483 9.6833C13.1166 9.7248 13.1739 9.7821 13.2155 9.8504C13.359 10.0863 13.2842 10.3939 13.0483 10.5375L8.76 13.1478C8.6816 13.1955 8.5917 13.2207 8.5 13.2207C8.2239 13.2207 8 12.9968 8 12.7207Z" fill="#FF00FF"/>
</svg>
