<svg width="16" height="16" viewBox="0 0 16 16" fill="none" xmlns="http://www.w3.org/2000/svg">
<path fill-rule="evenodd" clip-rule="evenodd" d="M14.8 2.7C13.2 1.5 2.8 1.5 1.2 2.7C-0.4 3.9 -0.4 12.3 1.2 13.5C2.8 14.7 13.2 14.7 14.8 13.5C16.4 12.3 16.4 3.9 14.8 2.7ZM6.4 10.1766V6.00006C6.4 5.9267 6.42016 5.85475 6.45832 5.79208C6.5732 5.60338 6.81928 5.54351 7.008 5.65838L10.4386 7.74664C10.4933 7.77984 10.5391 7.82568 10.5724 7.88032C10.6872 8.06904 10.6274 8.31512 10.4386 8.43L7.008 10.5182C6.94528 10.5564 6.87336 10.5766 6.8 10.5766C6.57912 10.5766 6.4 10.3974 6.4 10.1766Z" fill="#FF00FF"/>
</svg>
