<svg width="16" height="16" viewBox="0 0 16 16" fill="none" xmlns="http://www.w3.org/2000/svg">
<path opacity="0.2" d="M15.5 12L14 13.5H2L0.5 11.5V9.64093C0.5 9.22408 0.630246 8.81766 0.872533 8.47845L1.87442 7.07581C2.50185 6.19742 3.71312 5.97541 4.61129 6.57419L10.956 10.804C11.563 11.2087 12.3713 11.1287 12.8872 10.6128C13.8514 9.64859 15.5 10.3315 15.5 11.695V12Z" fill="#FF00FF"/>
<path fill-rule="evenodd" clip-rule="evenodd" d="M10 3H6C4.55752 3 3.57625 3.00212 2.84143 3.10092C2.13538 3.19584 1.80836 3.36322 1.58579 3.58579C1.36322 3.80836 1.19584 4.13538 1.10092 4.84143C1.00212 5.57625 1 6.55752 1 8C1 9.44248 1.00212 10.4237 1.10092 11.1586C1.19584 11.8646 1.36322 12.1916 1.58579 12.4142C1.80836 12.6368 2.13538 12.8042 2.84143 12.8991C3.57625 12.9979 4.55752 13 6 13H10C11.4425 13 12.4237 12.9979 13.1586 12.8991C13.8646 12.8042 14.1916 12.6368 14.4142 12.4142C14.6368 12.1916 14.8042 11.8646 14.8991 11.1586C14.9979 10.4237 15 9.44248 15 8C15 6.55752 14.9979 5.57625 14.8991 4.84143C14.8042 4.13538 14.6368 3.80836 14.4142 3.58579C14.1916 3.36322 13.8646 3.19584 13.1586 3.10092C12.4237 3.00212 11.4425 3 10 3ZM0.87868 2.87868C0 3.75736 0 5.17157 0 8C0 10.8284 0 12.2426 0.87868 13.1213C1.75736 14 3.17157 14 6 14H10C12.8284 14 14.2426 14 15.1213 13.1213C16 12.2426 16 10.8284 16 8C16 5.17157 16 3.75736 15.1213 2.87868C14.2426 2 12.8284 2 10 2H6C3.17157 2 1.75736 2 0.87868 2.87868Z" fill="#FF00FF"/>
<path d="M8.46521 5.98477C7.37727 5.28538 6.8333 4.93569 6.41665 5.16316C6 5.39063 6 6.0373 6 7.33066V8.66933C6 9.96268 6 10.6094 6.41665 10.8368C6.8333 11.0643 7.37727 10.7146 8.46521 10.0152L9.5064 9.34588C10.4492 8.7398 10.9206 8.43675 10.9206 7.99999C10.9206 7.56323 10.4492 7.26019 9.5064 6.65411L8.46521 5.98477Z" fill="#FF00FF"/>
</svg>
