<svg width="16" height="16" viewBox="0 0 16 16" fill="none" xmlns="http://www.w3.org/2000/svg">
<path opacity="0.2" d="M15.5 12L14 13.5H2L0.5 11.5V9.64093C0.5 9.22408 0.630246 8.81766 0.872533 8.47845L1.87442 7.07581C2.50185 6.19742 3.71312 5.97541 4.61129 6.57419L10.956 10.804C11.563 11.2087 12.3713 11.1287 12.8872 10.6128C13.8514 9.64859 15.5 10.3315 15.5 11.695V12Z" fill="#FF00FF"/>
<path fill-rule="evenodd" clip-rule="evenodd" d="M6 3.5H10C11.4566 3.5 12.3982 3.50319 13.0919 3.59646C13.7426 3.68393 13.9465 3.82515 14.0607 3.93934C14.1748 4.05353 14.3161 4.25745 14.4035 4.90806C14.4968 5.60182 14.5 6.54338 14.5 8C14.5 9.45662 14.4968 10.3982 14.4035 11.0919C14.3161 11.7426 14.1748 11.9465 14.0607 12.0607C13.9465 12.1748 13.7426 12.3161 13.0919 12.4035C12.3982 12.4968 11.4566 12.5 10 12.5H6C4.54338 12.5 3.60182 12.4968 2.90806 12.4035C2.25745 12.3161 2.05353 12.1748 1.93934 12.0607C1.82515 11.9465 1.68393 11.7426 1.59646 11.0919C1.50319 10.3982 1.5 9.45662 1.5 8C1.5 6.54338 1.50319 5.60182 1.59646 4.90806C1.68393 4.25745 1.82515 4.05353 1.93934 3.93934C2.05353 3.82515 2.25745 3.68393 2.90806 3.59646C3.60182 3.50319 4.54338 3.5 6 3.5ZM0 8C0 5.17157 0 3.75736 0.87868 2.87868C1.75736 2 3.17157 2 6 2H10C12.8284 2 14.2426 2 15.1213 2.87868C16 3.75736 16 5.17157 16 8C16 10.8284 16 12.2426 15.1213 13.1213C14.2426 14 12.8284 14 10 14H6C3.17157 14 1.75736 14 0.87868 13.1213C0 12.2426 0 10.8284 0 8ZM6.41665 5.16316C6.8333 4.93569 7.37727 5.28538 8.46521 5.98477L9.5064 6.65411C10.4492 7.26019 10.9206 7.56323 10.9206 8C10.9206 8.43676 10.4492 8.7398 9.5064 9.34588L8.46521 10.0152C7.37727 10.7146 6.8333 11.0643 6.41665 10.8368C6 10.6094 6 9.96269 6 8.66933V7.33066C6 6.03731 6 5.39063 6.41665 5.16316Z" fill="#FF00FF"/>
</svg>
