<svg width="16" height="16" viewBox="0 0 16 16" fill="none" xmlns="http://www.w3.org/2000/svg">
<g clip-path="url(#clip0_1447_1763)">
<path opacity="0.75" d="M15.4341 14.2707L12.1394 15.857C11.7581 16.0406 11.3023 15.9631 11.003 15.6639L0.217365 5.82988C-0.0727413 5.56537 -0.0724078 5.10863 0.218084 4.84455L1.09909 4.04363C1.33658 3.82773 1.69424 3.81184 1.94994 4.00582L14.9383 13.8591C15.3741 14.1896 15.9999 13.8789 15.9999 13.3319V13.3702C15.9999 13.7541 15.78 14.1041 15.4341 14.2707Z" fill="#FF00FF"/>
<path d="M12.1395 15.8574C11.758 16.0408 11.3022 15.9633 11.0029 15.664C11.3717 16.0328 12.0023 15.7716 12.0023 15.25V0.753963C12.0023 0.232405 11.3717 -0.0287946 11.0029 0.340004C11.3022 0.0406843 11.758 -0.0368792 12.1395 0.146577L15.4336 1.73074C15.7798 1.8972 15.9999 2.2473 15.9999 2.63139V13.3727C15.9999 13.7567 15.7798 14.1068 15.4336 14.2733L12.1395 15.8574Z" fill="#FF00FF"/>
<g opacity="0.4">
<path d="M11.7304 15.9555C11.5968 15.9594 11.4635 15.9364 11.339 15.8879C11.2131 15.8389 11.096 15.7638 10.9963 15.664L4.69394 9.9142L1.94876 11.998C1.69321 12.192 1.33576 12.1761 1.09842 11.9602L0.217952 11.1593C-0.072364 10.8952 -0.0726969 10.4385 0.217233 10.174L2.59795 8.00199L0.217233 5.83002L11.003 15.664C11.1997 15.8607 11.464 15.9615 11.7304 15.9555Z" fill="#FF00FF"/>
<path d="M15.985 13.4752C15.9885 13.4414 15.9903 13.4071 15.9903 13.3726V2.63139C15.9903 2.2473 15.7703 1.89719 15.4243 1.73073L12.1322 0.146577C11.7986 -0.0139469 11.4082 0.0253713 11.1154 0.238231C11.0736 0.268639 11.0337 0.302589 10.9963 0.340004L4.69525 6.08859L7.21525 8.00032L11.9951 4.37203V11.6264L14.9383 13.8592C15.3344 14.1597 15.8876 13.9303 15.985 13.4752Z" fill="#FF00FF"/>
</g>
</g>
<defs>
<clipPath id="clip0_1447_1763">
<rect width="16" height="16" fill="white"/>
</clipPath>
</defs>
</svg>
