<svg width="20" height="20" viewBox="0 0 20 20" fill="none" xmlns="http://www.w3.org/2000/svg">
<g clip-path="url(#clip0)">
<path d="M19.2926 2.16646L15.1743 0.183535C14.6976 -0.0459874 14.1279 0.0508303 13.7537 0.424946L0.271706 12.7174C-0.0909267 13.0481 -0.0905097 13.619 0.272605 13.9491L1.37386 14.9502C1.67073 15.2201 2.1178 15.2399 2.43743 14.9975L18.6729 2.68088C19.2176 2.26768 19.9999 2.65616 19.9999 3.33984V3.29202C19.9999 2.81212 19.725 2.37464 19.2926 2.16646Z" fill="#0065A9"/>
<path d="M19.2926 17.8384L15.1743 19.8214C14.6976 20.0508 14.1279 19.954 13.7537 19.58L0.271706 7.28747C-0.0909267 6.95684 -0.0905097 6.38591 0.272605 6.05581L1.37386 5.05466C1.67073 4.78479 2.1178 4.76492 2.43743 5.0074L18.6729 17.324C19.2176 17.7372 19.9999 17.3487 19.9999 16.665V16.7129C19.9999 17.1927 19.725 17.6302 19.2926 17.8384Z" fill="#007ACC"/>
<path d="M15.1746 19.8216C14.6978 20.0509 14.1281 19.954 13.7539 19.5799C14.2149 20.0409 15.0031 19.7143 15.0031 19.0624V0.942332C15.0031 0.290384 14.2149 -0.0361153 13.7539 0.424883C14.1281 0.0507333 14.6978 -0.0462211 15.1746 0.183099L19.2922 2.1633C19.725 2.37137 20.0001 2.80901 20.0001 3.28912V16.7157C20.0001 17.1958 19.725 17.6334 19.2922 17.8415L15.1746 19.8216Z" fill="#1F9CF0"/>
<path style="mix-blend-mode:overlay" opacity="0.25" fill-rule="evenodd" clip-rule="evenodd" d="M14.1737 19.8598C14.4885 19.9824 14.8475 19.9746 15.1652 19.8217L19.2804 17.8415C19.7128 17.6334 19.9878 17.1958 19.9878 16.7157V3.28911C19.9878 2.809 19.7128 2.37137 19.2804 2.16329L15.1652 0.183099C14.7483 -0.0175557 14.2602 0.0315921 13.8942 0.297667C13.842 0.335676 13.7921 0.378114 13.7454 0.424883L5.86743 7.61211L2.43595 5.00733C2.11652 4.76485 1.6697 4.78472 1.37302 5.05459L0.27244 6.05574C-0.0904551 6.38585 -0.0908712 6.95676 0.271541 7.28741L3.24744 10.0024L0.271541 12.7173C-0.0908712 13.048 -0.0904551 13.6189 0.27244 13.949L1.37302 14.9501C1.6697 15.22 2.11652 15.2399 2.43595 14.9974L5.86743 12.3926L13.7454 19.5799C13.87 19.7046 14.0164 19.7985 14.1737 19.8598ZM14.9939 5.46491L9.01631 10.0024L14.9939 14.5398V5.46491Z" fill="url(#paint0_linear)"/>
</g>
<defs>
<linearGradient id="paint0_linear" x1="9.99392" y1="0.0599975" x2="9.99392" y2="19.9447" gradientUnits="userSpaceOnUse">
<stop stop-color="white"/>
<stop offset="1" stop-color="white" stop-opacity="0"/>
</linearGradient>
<clipPath id="clip0">
<rect width="20" height="20" fill="white"/>
</clipPath>
</defs>
</svg>
