<svg width="20" height="20" viewBox="0 0 20 20" fill="none" xmlns="http://www.w3.org/2000/svg">
<path opacity="0.75" d="M19.2926 17.8384L15.1743 19.8214C14.6976 20.0508 14.1279 19.954 13.7537 19.58L0.271706 7.28747C-0.0909267 6.95684 -0.0905097 6.38591 0.272605 6.05581L1.37386 5.05466C1.67073 4.78479 2.1178 4.76492 2.43743 5.0074L18.6729 17.324C19.2176 17.7372 19.9999 17.3487 19.9999 16.665V16.7129C19.9999 17.1927 19.725 17.6302 19.2926 17.8384Z" fill="#FF00FF"/>
<path d="M15.1746 19.8216C14.6978 20.0509 14.1281 19.954 13.7539 19.5799C14.2149 20.0409 15.0031 19.7143 15.0031 19.0624V0.942332C15.0031 0.290384 14.2149 -0.0361153 13.7539 0.424883C14.1281 0.0507333 14.6978 -0.0462211 15.1746 0.183099L19.2922 2.1633C19.725 2.37137 20.0001 2.80901 20.0001 3.28912V16.7157C20.0001 17.1958 19.725 17.6334 19.2922 17.8415L15.1746 19.8216Z" fill="#FF00FF"/>
<path opacity="0.4" fill-rule="evenodd" clip-rule="evenodd" d="M14.663 19.9442C14.496 19.9492 14.3294 19.9204 14.1737 19.8598C14.0164 19.7985 13.87 19.7046 13.7454 19.5799L5.86743 12.3926L2.43595 14.9974C2.11652 15.2399 1.6697 15.22 1.37302 14.9501L0.27244 13.949C-0.0904551 13.6189 -0.0908712 13.048 0.271541 12.7173L3.24744 10.0024L0.271541 7.28741C0.091039 7.12273 0.000540498 6.89845 2.411e-06 6.674C0.000548225 6.89844 0.0911016 7.12271 0.271706 7.28737L13.7537 19.5799C13.9997 19.8257 14.3301 19.9518 14.663 19.9442ZM19.9812 16.8439C19.9856 16.8016 19.9878 16.7588 19.9878 16.7157V3.28911C19.9878 2.809 19.7128 2.37137 19.2804 2.16329L15.1652 0.183099C14.7483 -0.0175557 14.2602 0.0315921 13.8942 0.297667C13.842 0.335676 13.7921 0.378114 13.7454 0.424883L5.86906 7.61061L9.01907 10.0003L14.9939 5.46491V14.5329L18.6729 17.3239C19.168 17.6995 19.8595 17.4127 19.9812 16.8439ZM1.91202 4.83827C1.71781 4.84316 1.52557 4.91583 1.37302 5.05459L0.27244 6.05574C0.115803 6.19822 0.0266985 6.38557 0.00515313 6.5791C0.0267061 6.38556 0.115866 6.1982 0.272605 6.05571L1.37386 5.05456C1.5262 4.91608 1.71809 4.84342 1.91202 4.83827Z" fill="#FF00FF"/>
</svg>
