<svg width="16" height="16" viewBox="0 0 16 16" fill="none" xmlns="http://www.w3.org/2000/svg">
<g clip-path="url(#clip0_1447_2927)">
<path d="M15.4341 1.73307L12.1394 0.14673C11.7581 -0.0368876 11.3023 0.0405666 11.003 0.339859L0.217365 10.1738C-0.0727413 10.4384 -0.0724078 10.8951 0.218084 11.1592L1.09909 11.9601C1.33658 12.176 1.69424 12.1919 1.94994 11.9979L14.9383 2.14461C15.3741 1.81404 15.9999 2.12483 15.9999 2.67177V2.63352C15.9999 2.2496 15.78 1.89962 15.4341 1.73307Z" fill="#0065A9"/>
<path d="M15.4341 14.2707L12.1394 15.857C11.7581 16.0406 11.3023 15.9631 11.003 15.6639L0.217365 5.82988C-0.0727413 5.56537 -0.0724078 5.10863 0.218084 4.84455L1.09909 4.04363C1.33658 3.82773 1.69424 3.81184 1.94994 4.00582L14.9383 13.8591C15.3741 14.1896 15.9999 13.8789 15.9999 13.3319V13.3702C15.9999 13.7541 15.78 14.1041 15.4341 14.2707Z" fill="#007ACC"/>
<path d="M12.1395 15.8574C11.758 16.0408 11.3022 15.9633 11.0029 15.664C11.3717 16.0328 12.0023 15.7716 12.0023 15.25V0.753963C12.0023 0.232405 11.3717 -0.0287946 11.0029 0.340004C11.3022 0.0406843 11.758 -0.0368792 12.1395 0.146577L15.4336 1.73074C15.7798 1.8972 15.9999 2.2473 15.9999 2.63139V13.3727C15.9999 13.7567 15.7798 14.1068 15.4336 14.2733L12.1395 15.8574Z" fill="#1F9CF0"/>
<path style="mix-blend-mode:overlay" opacity="0.25" fill-rule="evenodd" clip-rule="evenodd" d="M11.339 15.8879C11.5908 15.986 11.878 15.9797 12.1322 15.8574L15.4243 14.2733C15.7703 14.1068 15.9903 13.7567 15.9903 13.3726V2.63139C15.9903 2.2473 15.7703 1.89719 15.4243 1.73073L12.1322 0.146577C11.7986 -0.0139469 11.4082 0.0253713 11.1154 0.238231C11.0736 0.268639 11.0337 0.302589 10.9963 0.340004L4.69394 6.08978L1.94876 4.00596C1.69321 3.81198 1.33576 3.82788 1.09842 4.04377L0.217952 4.84469C-0.0723641 5.10878 -0.072697 5.56551 0.217233 5.83002L2.59795 8.00199L0.217233 10.174C-0.072697 10.4385 -0.0723641 10.8952 0.217952 11.1593L1.09842 11.9602C1.33576 12.1761 1.69321 12.192 1.94876 11.998L4.69394 9.9142L10.9963 15.664C11.096 15.7638 11.2131 15.8389 11.339 15.8879ZM11.9951 4.37203L7.21305 8.00199L11.9951 11.632V4.37203Z" fill="url(#paint0_linear_1447_2927)"/>
</g>
<defs>
<linearGradient id="paint0_linear_1447_2927" x1="7.99513" y1="0.0480956" x2="7.99513" y2="15.9559" gradientUnits="userSpaceOnUse">
<stop stop-color="white"/>
<stop offset="1" stop-color="white" stop-opacity="0"/>
</linearGradient>
<clipPath id="clip0_1447_2927">
<rect width="16" height="16" fill="white"/>
</clipPath>
</defs>
</svg>
