<svg width="16" height="16" viewBox="0 0 16 16" fill="none" xmlns="http://www.w3.org/2000/svg">
<path fill-rule="evenodd" clip-rule="evenodd" d="M9.70653 2.79256C8.92667 1.51643 7.07326 1.51643 6.2934 2.79256L1.05951 11.3571C0.245082 12.6898 1.20422 14.4 2.76608 14.4H13.2338C14.7957 14.4 15.7548 12.6898 14.9404 11.3571L9.70653 2.79256ZM8.62316 9.8288L8.84716 4.8H7.13356L7.36876 9.8288H8.62316ZM7.99596 12.3824C7.50316 12.3824 7.09996 11.968 7.09996 11.4864C7.09996 10.9936 7.50316 10.5792 7.99596 10.5792C8.48876 10.5792 8.90316 10.9936 8.90316 11.4864C8.90316 11.968 8.48876 12.3824 7.99596 12.3824Z" fill="#FF00FF"/>
</svg>
