<svg width="20" height="20" viewBox="0 0 20 20" fill="none" xmlns="http://www.w3.org/2000/svg">
<path fill-rule="evenodd" clip-rule="evenodd" d="M11.7066 2.79255C10.9267 1.51642 9.07331 1.51642 8.29345 2.79255L0.859563 14.9571C0.0451312 16.2898 1.00427 18 2.56613 18H17.4339C18.9958 18 19.9549 16.2898 19.1405 14.9571L11.7066 2.79255ZM10.779 12.286L11.059 5.99999H8.91701L9.21101 12.286H10.779ZM9.99501 15.478C9.37901 15.478 8.87501 14.96 8.87501 14.358C8.87501 13.742 9.37901 13.224 9.99501 13.224C10.611 13.224 11.129 13.742 11.129 14.358C11.129 14.96 10.611 15.478 9.99501 15.478Z" fill="#FF00FF"/>
</svg>
