<svg width="16" height="16" viewBox="0 0 16 16" fill="none" xmlns="http://www.w3.org/2000/svg">
<g clip-path="url(#clip0_2052_1482)">
<path fill-rule="evenodd" clip-rule="evenodd" d="M2 0C0.89543 0 0 0.89543 0 2V14C0 15.1046 0.89543 16 2 16H14C15.1046 16 16 15.1046 16 14V2C16 0.89543 15.1046 0 14 0H2ZM9.96407 9.46418C10.0241 9.24818 10.8361 6.70418 10.8361 6.70418C11.2241 5.66018 11.9801 4.68018 13.4161 4.68018L11.3801 9.68418C10.9601 10.6882 10.1761 11.6042 8.72407 11.6042C8.72407 11.6042 8.10807 7.32018 8.10007 7.22418C8.06407 7.32418 7.19607 9.57618 7.19607 9.57618C6.78807 10.6202 6.00807 11.6002 4.56007 11.6042L3.42407 4.68018C4.36807 4.68018 5.53207 5.45218 5.61607 6.72818C5.61607 6.72818 5.76407 9.26818 5.76807 9.46818C5.84807 9.25618 6.83607 6.70418 6.83607 6.70418C7.22807 5.66418 7.96407 4.68018 9.34807 4.68018C9.34807 4.68018 9.94007 9.25218 9.96407 9.46418Z" fill="#FF00FF"/>
</g>
<defs>
<clipPath id="clip0_2052_1482">
<rect width="16" height="16" fill="white"/>
</clipPath>
</defs>
</svg>
