<svg width="16" height="16" viewBox="0 0 16 16" fill="none" xmlns="http://www.w3.org/2000/svg">
<g clip-path="url(#clip0_2179_3845)">
<path d="M0 2C0 0.89543 0.89543 0 2 0H14C15.1046 0 16 0.89543 16 2V14C16 15.1046 15.1046 16 14 16H2C0.89543 16 0 15.1046 0 14V2Z" fill="#4353FF"/>
<path d="M10.8361 6.70418C10.8361 6.70418 10.0241 9.24818 9.96407 9.46418C9.94007 9.25218 9.34807 4.68018 9.34807 4.68018C7.96407 4.68018 7.22807 5.66418 6.83607 6.70418C6.83607 6.70418 5.84807 9.25618 5.76807 9.46818C5.76407 9.26818 5.61607 6.72818 5.61607 6.72818C5.53207 5.45218 4.36807 4.68018 3.42407 4.68018L4.56007 11.6042C6.00807 11.6002 6.78807 10.6202 7.19607 9.57618C7.19607 9.57618 8.06407 7.32418 8.10007 7.22418C8.10807 7.32018 8.72407 11.6042 8.72407 11.6042C10.1761 11.6042 10.9601 10.6882 11.3801 9.68418L13.4161 4.68018C11.9801 4.68018 11.2241 5.66018 10.8361 6.70418Z" fill="white"/>
</g>
<defs>
<clipPath id="clip0_2179_3845">
<rect width="16" height="16" fill="white"/>
</clipPath>
</defs>
</svg>
