<svg width="16" height="16" viewBox="0 0 16 16" fill="none" xmlns="http://www.w3.org/2000/svg">
<g clip-path="url(#clip0_2052_1481)">
<path d="M0 2C0 0.89543 0.89543 0 2 0H14C15.1046 0 16 0.89543 16 2V14C16 15.1046 15.1046 16 14 16H2C0.89543 16 0 15.1046 0 14V2Z" fill="#4353FF"/>
<path d="M10.8358 6.70418C10.8358 6.70418 10.0238 9.24818 9.96383 9.46418C9.93983 9.25218 9.34783 4.68018 9.34783 4.68018C7.96383 4.68018 7.22783 5.66418 6.83583 6.70418C6.83583 6.70418 5.84783 9.25618 5.76783 9.46818C5.76383 9.26818 5.61583 6.72818 5.61583 6.72818C5.53183 5.45218 4.36783 4.68018 3.42383 4.68018L4.55983 11.6042C6.00783 11.6002 6.78783 10.6202 7.19583 9.57618C7.19583 9.57618 8.06383 7.32418 8.09983 7.22418C8.10783 7.32018 8.72383 11.6042 8.72383 11.6042C10.1758 11.6042 10.9598 10.6882 11.3798 9.68418L13.4158 4.68018C11.9798 4.68018 11.2238 5.66018 10.8358 6.70418Z" fill="white"/>
</g>
<defs>
<clipPath id="clip0_2052_1481">
<rect width="16" height="16" fill="white"/>
</clipPath>
</defs>
</svg>
