<svg width="16" height="16" viewBox="0 0 16 16" fill="none" xmlns="http://www.w3.org/2000/svg">
<g clip-path="url(#clip0_2179_3744)">
<path fill-rule="evenodd" clip-rule="evenodd" d="M1.05886 3.78132L7.72469 0.0106201V2.77793L3.45336 5.12769L3.41927 5.14686L1.05886 3.78132ZM0.779785 4.27982V11.9682L3.15724 10.5963V5.65388L0.779785 4.27982ZM15.2405 4.27982V11.9682L12.8631 10.5963V5.65388L15.2405 4.27982ZM8.29562 16.0478L14.7953 12.3708L12.3454 10.9563L8.29562 13.1846V16.0478ZM1.22503 12.3708L7.72469 16.0478V13.1846L3.67278 10.9563L1.22503 12.3708ZM8.29562 0.0106201L14.9614 3.78132L12.601 5.14473L12.5669 5.12556L8.29562 2.77793V0.0106201Z" fill="#FF00FF"/>
<path fill-rule="evenodd" clip-rule="evenodd" d="M8.01015 3.2743L3.99873 5.4792L8.01015 7.79487L12.0216 5.4792L8.01015 3.2743ZM7.72469 12.5327L3.72817 10.3342V5.98196L7.72469 8.28911V12.5327ZM8.29562 12.5327L12.2921 10.3364V5.98196L8.29562 8.28911V12.5327Z" fill="#FF00FF"/>
</g>
<defs>
<clipPath id="clip0_2179_3744">
<rect width="16" height="16" fill="white"/>
</clipPath>
</defs>
</svg>
