<svg width="16" height="16" viewBox="0 0 16 16" fill="none" xmlns="http://www.w3.org/2000/svg">
<g clip-path="url(#clip0_1447_3007)">
<path fill-rule="evenodd" clip-rule="evenodd" d="M1.05886 3.78138L7.72469 0.0106812V2.77799L3.45336 5.12775L3.41927 5.14692L1.05886 3.78138ZM0.779785 4.27988V11.9683L3.15724 10.5963V5.65395L0.779785 4.27988ZM15.2405 4.27988V11.9683L12.8631 10.5963V5.65395L15.2405 4.27988ZM8.29562 16.0479L14.7953 12.3709L12.3454 10.9564L8.29562 13.1847V16.0479ZM1.22503 12.3709L7.72469 16.0479V13.1847L3.67278 10.9564L1.22503 12.3709ZM8.29562 0.0106812L14.9614 3.78138L12.601 5.14479L12.5669 5.12562L8.29562 2.77799V0.0106812Z" fill="#8ED6FB"/>
<path fill-rule="evenodd" clip-rule="evenodd" d="M8.01049 3.27435L3.99907 5.47925L8.01049 7.79493L12.0219 5.47925L8.01049 3.27435ZM7.72503 12.5328L3.72852 10.3343V5.98201L7.72503 8.28917V12.5328ZM8.29596 12.5328L12.2925 10.3364V5.98201L8.29596 8.28917V12.5328Z" fill="#1C78C0"/>
</g>
<defs>
<clipPath id="clip0_1447_3007">
<rect width="16" height="16" fill="white"/>
</clipPath>
</defs>
</svg>
