<svg width="16" height="16" viewBox="0 0 16 16" fill="none" xmlns="http://www.w3.org/2000/svg">
<g clip-path="url(#clip0_1447_1794)">
<path fill-rule="evenodd" clip-rule="evenodd" d="M1.0591 3.78132L7.72493 0.0106201V2.77793L3.4536 5.12769L3.41952 5.14686L1.0591 3.78132ZM0.780029 4.27982V11.9682L3.15749 10.5963V5.65388L0.780029 4.27982ZM15.2408 4.27982V11.9682L12.8633 10.5963V5.65388L15.2408 4.27982ZM8.29586 16.0478L14.7955 12.3708L12.3456 10.9563L8.29586 13.1846V16.0478ZM1.22527 12.3708L7.72493 16.0478V13.1846L3.67303 10.9563L1.22527 12.3708ZM8.29586 0.0106201L14.9617 3.78132L12.6013 5.14473L12.5672 5.12556L8.29586 2.77793V0.0106201Z" fill="#FF00FF"/>
<path fill-rule="evenodd" clip-rule="evenodd" d="M8.0104 3.2743L3.99897 5.4792L8.0104 7.79487L12.0218 5.4792L8.0104 3.2743ZM7.72493 12.5327L3.72842 10.3342V5.98196L7.72493 8.28911V12.5327ZM8.29586 12.5327L12.2924 10.3364V5.98196L8.29586 8.28911V12.5327Z" fill="#FF00FF"/>
</g>
<defs>
<clipPath id="clip0_1447_1794">
<rect width="16" height="16" fill="white"/>
</clipPath>
</defs>
</svg>
