<svg width="20" height="21" viewBox="0 0 20 21" fill="none" xmlns="http://www.w3.org/2000/svg">
<path fill-rule="evenodd" clip-rule="evenodd" d="M1.3237 4.72669L9.65598 0.0133133V3.47245L4.31682 6.40965L4.27421 6.43362L1.3237 4.72669ZM0.974854 5.34981V14.9603L3.94667 13.2454V7.06739L0.974854 5.34981ZM19.0508 5.34981V14.9603L16.0789 13.2454V7.06739L19.0508 5.34981ZM10.3696 20.0598L18.4942 15.4636L15.4319 13.6954L10.3696 16.4808V20.0598ZM1.5314 15.4636L9.65598 20.0598V16.4808L4.5911 13.6954L1.5314 15.4636ZM10.3696 0.0133133L18.7019 4.72669L15.7514 6.43095L15.7088 6.40699L10.3696 3.47245V0.0133133Z" fill="#8ED6FB"/>
<path fill-rule="evenodd" clip-rule="evenodd" d="M10.0129 4.09291L4.99859 6.84904L10.0129 9.74363L15.0272 6.84904L10.0129 4.09291ZM9.65604 15.666L4.6604 12.9178V7.47748L9.65604 10.3614V15.666ZM10.3697 15.666L15.3653 12.9205V7.47748L10.3697 10.3614V15.666Z" fill="#1C78C0"/>
</svg>
