<svg width="16" height="16" viewBox="0 0 16 16" fill="none" xmlns="http://www.w3.org/2000/svg">
<g clip-path="url(#clip0_1447_3007)">
<path fill-rule="evenodd" clip-rule="evenodd" d="M1.05886 3.78132L7.72469 0.0106201V2.77793L3.45336 5.12769L3.41927 5.14686L1.05886 3.78132ZM0.779785 4.27982V11.9682L3.15724 10.5963V5.65388L0.779785 4.27982ZM15.2405 4.27982V11.9682L12.8631 10.5963V5.65388L15.2405 4.27982ZM8.29562 16.0478L14.7953 12.3708L12.3454 10.9563L8.29562 13.1846V16.0478ZM1.22503 12.3708L7.72469 16.0478V13.1846L3.67278 10.9563L1.22503 12.3708ZM8.29562 0.0106201L14.9614 3.78132L12.601 5.14473L12.5669 5.12556L8.29562 2.77793V0.0106201Z" fill="#8ED6FB"/>
<path fill-rule="evenodd" clip-rule="evenodd" d="M8.01049 3.27429L3.99907 5.47919L8.01049 7.79487L12.0219 5.47919L8.01049 3.27429ZM7.72503 12.5327L3.72852 10.3342V5.98195L7.72503 8.28911V12.5327ZM8.29596 12.5327L12.2925 10.3364V5.98195L8.29596 8.28911V12.5327Z" fill="#1C78C0"/>
</g>
<defs>
<clipPath id="clip0_1447_3007">
<rect width="16" height="16" fill="white"/>
</clipPath>
</defs>
</svg>
