<svg width="16" height="16" viewBox="0 0 16 16" fill="none" xmlns="http://www.w3.org/2000/svg">
<g clip-path="url(#clip0_1447_1834)">
<path d="M5.56951 4.27267C5.71073 4.27845 5.86701 4.28505 6.01544 4.61507C6.11687 4.84063 6.28753 5.26108 6.42356 5.59621C6.52383 5.84326 6.60529 6.04394 6.62631 6.08599C6.67586 6.18508 6.70889 6.30079 6.64283 6.43313C6.63293 6.45294 6.62376 6.47163 6.61501 6.48949C6.56538 6.59076 6.52891 6.66518 6.44485 6.76355C6.4119 6.80203 6.37783 6.84347 6.34376 6.88492C6.27536 6.96812 6.20695 7.05134 6.14756 7.1106C6.04815 7.20939 5.94493 7.31674 6.06055 7.51493C6.17616 7.71332 6.57389 8.36199 7.16299 8.88719C7.79584 9.45146 8.34562 9.69013 8.62481 9.81133C8.67964 9.83513 8.72403 9.8544 8.75656 9.87072C8.95475 9.96982 9.07037 9.9533 9.18598 9.82087C9.30159 9.68874 9.68115 9.24251 9.81328 9.04432C9.94541 8.84592 10.0775 8.87895 10.2592 8.94501C10.4409 9.01108 11.4151 9.49055 11.6133 9.58965C11.652 9.60898 11.6881 9.62642 11.7216 9.6426C11.8599 9.70933 11.9533 9.7544 11.9932 9.82087C12.0427 9.90377 12.0427 10.3003 11.8776 10.763C11.7124 11.2258 10.9033 11.672 10.54 11.705C10.505 11.7082 10.4703 11.7123 10.4345 11.7165C10.0987 11.756 9.67492 11.8059 8.16199 11.2093C6.30047 10.4752 5.07304 8.65598 4.81942 8.28009C4.79861 8.24925 4.78436 8.22813 4.77685 8.21811L4.77468 8.21522C4.66796 8.07261 3.96768 7.13684 3.96768 6.16859C3.96768 5.25601 4.41626 4.77763 4.62264 4.55753C4.63675 4.54249 4.64972 4.52866 4.66134 4.51597C4.84291 4.31767 5.05762 4.26802 5.18975 4.26802C5.19697 4.26802 5.20419 4.26802 5.21141 4.26802C5.33619 4.268 5.46032 4.26799 5.56951 4.27267Z" fill="#FF00FF"/>
<path fill-rule="evenodd" clip-rule="evenodd" d="M7.99759 0.00146484C10.119 0.00240295 12.1102 0.828093 13.6077 2.3266C15.105 3.82522 15.9292 5.81723 15.9285 7.9358C15.9266 12.3071 12.3685 15.8642 7.99759 15.8642H7.99418C6.66693 15.8637 5.36269 15.5307 4.20431 14.899L0 16.0015L1.12514 11.8931C0.431169 10.6908 0.0660634 9.32677 0.0665786 7.92941C0.0683359 3.55796 3.62595 0.00146484 7.99759 0.00146484ZM7.99501 14.5252H7.99759C11.6308 14.5252 14.5878 11.5688 14.5894 7.93531C14.5899 6.1744 13.905 4.51869 12.6604 3.27318C11.4158 2.02766 9.76087 1.34133 8.00007 1.3406C4.364 1.3406 1.40704 4.29654 1.4056 7.92994C1.40509 9.17502 1.75347 10.3876 2.41337 11.4369L2.57027 11.6862L1.90417 14.1178L4.39909 13.4637L4.63992 13.6065C5.65183 14.2069 6.81196 14.5245 7.99501 14.5252Z" fill="#FF00FF"/>
</g>
<defs>
<clipPath id="clip0_1447_1834">
<rect width="16" height="16" fill="white"/>
</clipPath>
</defs>
</svg>
