<svg width="20" height="20" viewBox="0 0 20 20" fill="none" xmlns="http://www.w3.org/2000/svg">
<g clip-path="url(#clip0)">
<path d="M0.344727 19.6558L1.70252 14.6981C0.864847 13.2471 0.424334 11.601 0.424862 9.91505C0.427059 4.6399 4.7203 0.348206 9.99535 0.348206C12.5556 0.349362 14.9585 1.34573 16.7652 3.15411C18.5723 4.96247 19.5669 7.36618 19.5658 9.92253C19.5636 15.1978 15.2701 19.4899 9.99573 19.4899C9.99535 19.4899 9.996 19.4899 9.99573 19.4899H9.99147C8.3898 19.4894 6.81601 19.0873 5.41823 18.3255L0.344727 19.6558Z" fill="url(#paint0_linear)"/>
<path fill-rule="evenodd" clip-rule="evenodd" d="M7.51918 5.76889C7.33364 5.35638 7.13829 5.34812 6.96176 5.3409C6.81738 5.33471 6.65209 5.33509 6.48706 5.33509C6.3219 5.33509 6.05352 5.39715 5.82656 5.64503C5.59946 5.8929 4.95947 6.49211 4.95947 7.7108C4.95947 8.92963 5.8472 10.1073 5.97094 10.2727C6.09481 10.4379 7.6846 13.0187 10.2024 14.0116C12.2949 14.8368 12.7207 14.6726 13.1749 14.6314C13.629 14.5901 14.6404 14.0323 14.8468 13.4538C15.0533 12.8755 15.0533 12.3798 14.9913 12.2762C14.9294 12.1729 14.7642 12.111 14.5165 11.9871C14.2688 11.8633 13.051 11.2639 12.8239 11.1813C12.5968 11.0987 12.4316 11.0575 12.2665 11.3055C12.1013 11.5532 11.6269 12.111 11.4824 12.2762C11.3378 12.4417 11.1933 12.4623 10.9456 12.3385C10.6978 12.2142 9.90004 11.9529 8.95362 11.1091C8.21724 10.4525 7.72008 9.64171 7.57556 9.39373C7.43105 9.14599 7.56007 9.01179 7.68433 8.88831C7.79555 8.77733 7.93207 8.59914 8.05594 8.4545C8.17955 8.30985 8.22084 8.20663 8.30342 8.04147C8.386 7.87604 8.34471 7.73141 8.28277 7.60755C8.22084 7.48368 7.73943 6.25869 7.51918 5.76889Z" fill="white"/>
<path d="M17.0096 2.90831C15.1378 1.03518 12.6488 0.00306472 9.99699 0.00189209C4.53244 0.00189209 0.0854199 4.44751 0.0832233 9.91182C0.0825792 11.6585 0.538961 13.3635 1.40642 14.8665L0 20.0019L5.25539 18.6238C6.70337 19.4135 8.33366 19.8296 9.99273 19.8303H9.99694H9.99699C15.4606 19.8303 19.9083 15.3839 19.9106 9.91982C19.9115 7.2716 18.8812 4.78158 17.0096 2.90831ZM9.99699 18.1565H9.99377C8.51496 18.1557 7.06478 17.7587 5.7999 17.0081L5.49887 16.8297L2.38021 17.6474L3.21284 14.6078L3.01672 14.2962C2.19183 12.9846 1.75636 11.4688 1.757 9.91248C1.7588 5.37074 5.455 1.67581 10.0001 1.67581C12.2011 1.67672 14.2697 2.53464 15.8255 4.09153C17.3813 5.64842 18.2374 7.71806 18.2367 9.9192C18.2348 14.4611 14.5384 18.1565 9.99699 18.1565Z" fill="white"/>
</g>
<defs>
<linearGradient id="paint0_linear" x1="9.95529" y1="19.6558" x2="9.95529" y2="0.348238" gradientUnits="userSpaceOnUse">
<stop stop-color="#20B038"/>
<stop offset="1" stop-color="#60D66A"/>
</linearGradient>
<clipPath id="clip0">
<rect width="20" height="20" fill="white"/>
</clipPath>
</defs>
</svg>
