<svg width="16" height="16" viewBox="0 0 16 16" fill="none" xmlns="http://www.w3.org/2000/svg">
<g clip-path="url(#clip0_1447_1834)">
<path d="M5.56951 4.2727C5.71073 4.27848 5.86701 4.28508 6.01544 4.6151C6.11687 4.84066 6.28753 5.26111 6.42356 5.59624C6.52383 5.84329 6.60529 6.04397 6.62631 6.08602C6.67586 6.18511 6.70889 6.30082 6.64283 6.43316C6.63293 6.45297 6.62376 6.47166 6.61501 6.48952C6.56538 6.59079 6.52891 6.66521 6.44485 6.76358C6.4119 6.80206 6.37783 6.8435 6.34376 6.88495C6.27536 6.96816 6.20695 7.05137 6.14756 7.11063C6.04815 7.20942 5.94493 7.31677 6.06055 7.51496C6.17616 7.71335 6.57389 8.36202 7.16299 8.88722C7.79584 9.45149 8.34562 9.69016 8.62481 9.81136C8.67964 9.83516 8.72403 9.85443 8.75656 9.87075C8.95475 9.96985 9.07037 9.95333 9.18598 9.8209C9.30159 9.68877 9.68115 9.24254 9.81328 9.04435C9.94541 8.84595 10.0775 8.87898 10.2592 8.94504C10.4409 9.01111 11.4151 9.49058 11.6133 9.58968C11.652 9.60901 11.6881 9.62646 11.7216 9.64263C11.8599 9.70936 11.9533 9.75443 11.9932 9.8209C12.0427 9.9038 12.0427 10.3004 11.8776 10.763C11.7124 11.2258 10.9033 11.672 10.54 11.7051C10.505 11.7082 10.4703 11.7123 10.4345 11.7165C10.0987 11.756 9.67492 11.8059 8.16199 11.2093C6.30047 10.4752 5.07304 8.65601 4.81942 8.28012C4.79861 8.24928 4.78436 8.22816 4.77685 8.21814L4.77468 8.21525C4.66796 8.07264 3.96768 7.13687 3.96768 6.16862C3.96768 5.25604 4.41626 4.77766 4.62264 4.55756C4.63675 4.54252 4.64972 4.52869 4.66134 4.516C4.84291 4.3177 5.05762 4.26805 5.18975 4.26805C5.19697 4.26805 5.20419 4.26805 5.21141 4.26805C5.33619 4.26803 5.46032 4.26802 5.56951 4.2727Z" fill="#FF00FF"/>
<path fill-rule="evenodd" clip-rule="evenodd" d="M7.99759 0.00149536C10.119 0.00243347 12.1102 0.828124 13.6077 2.32663C15.105 3.82525 15.9292 5.81726 15.9285 7.93583C15.9266 12.3071 12.3685 15.8642 7.99759 15.8642H7.99418C6.66693 15.8637 5.36269 15.5308 4.20431 14.899L0 16.0015L1.12514 11.8932C0.431169 10.6908 0.0660634 9.3268 0.0665786 7.92944C0.0683359 3.55799 3.62595 0.00149536 7.99759 0.00149536ZM7.99501 14.5252H7.99759C11.6308 14.5252 14.5878 11.5688 14.5894 7.93534C14.5899 6.17443 13.905 4.51872 12.6604 3.27321C11.4158 2.02769 9.76087 1.34136 8.00007 1.34063C4.364 1.34063 1.40704 4.29657 1.4056 7.92997C1.40509 9.17506 1.75347 10.3876 2.41337 11.4369L2.57027 11.6862L1.90417 14.1179L4.39909 13.4637L4.63992 13.6065C5.65183 14.2069 6.81196 14.5246 7.99501 14.5252Z" fill="#FF00FF"/>
</g>
<defs>
<clipPath id="clip0_1447_1834">
<rect width="16" height="16" fill="white"/>
</clipPath>
</defs>
</svg>
