<svg width="20" height="20" viewBox="0 0 20 20" fill="none" xmlns="http://www.w3.org/2000/svg">
<g clip-path="url(#clip0)">
<path fill-rule="evenodd" clip-rule="evenodd" d="M9.99699 0.00189209C12.6488 0.00306472 15.1378 1.03518 17.0096 2.90831C18.8812 4.78158 19.9115 7.2716 19.9106 9.91982C19.9083 15.3839 15.4606 19.8303 9.99699 19.8303H9.99694H9.99273C8.33366 19.8296 6.70337 19.4135 5.25539 18.6238L0 20.0019L1.40642 14.8665C0.538961 13.3635 0.0825792 11.6585 0.0832233 9.91182C0.0854199 4.44751 4.53244 0.00189209 9.99699 0.00189209ZM9.99377 18.1565H9.99699C14.5384 18.1565 18.2348 14.4611 18.2367 9.9192C18.2374 7.71806 17.3813 5.64842 15.8255 4.09153C14.2697 2.53464 12.2011 1.67672 10.0001 1.67581C5.455 1.67581 1.7588 5.37074 1.757 9.91248C1.75636 11.4688 2.19183 12.9846 3.01672 14.2962L3.21284 14.6078L2.38021 17.6474L5.49887 16.8297L5.7999 17.0081C7.06478 17.7587 8.51496 18.1557 9.99377 18.1565ZM6.96189 5.3409C7.13841 5.34812 7.33376 5.35638 7.5193 5.76889C7.64609 6.05084 7.85942 6.57642 8.02945 6.99533C8.15479 7.30413 8.25661 7.55498 8.28289 7.60755C8.34483 7.73141 8.38612 7.87604 8.30354 8.04147C8.29116 8.06623 8.27971 8.0896 8.26877 8.11192C8.20673 8.23851 8.16114 8.33154 8.05606 8.4545C8.01488 8.5026 7.97229 8.5544 7.9297 8.60621C7.8442 8.71021 7.75869 8.81423 7.68446 8.88831C7.56019 9.0118 7.43117 9.14599 7.57568 9.39373C7.7202 9.64171 8.21736 10.4525 8.95374 11.1091C9.7448 11.8144 10.432 12.1127 10.781 12.2642C10.8495 12.294 10.905 12.3181 10.9457 12.3385C11.1934 12.4623 11.338 12.4417 11.4825 12.2761C11.627 12.111 12.1014 11.5532 12.2666 11.3055C12.4318 11.0575 12.5969 11.0987 12.824 11.1813C13.0511 11.2639 14.2689 11.8633 14.5166 11.9871C14.565 12.0113 14.6101 12.0331 14.652 12.0533C14.8249 12.1367 14.9416 12.1931 14.9915 12.2761C15.0534 12.3798 15.0534 12.8755 14.8469 13.4538C14.6405 14.0323 13.6292 14.5901 13.175 14.6314C13.1313 14.6353 13.0878 14.6404 13.0432 14.6457C12.6234 14.6951 12.0937 14.7574 10.2025 14.0116C7.87559 13.094 6.34131 10.82 6.02427 10.3502C5.99827 10.3116 5.98045 10.2852 5.97106 10.2727L5.96836 10.2691C5.83495 10.0908 4.95959 8.92111 4.95959 7.7108C4.95959 6.57007 5.52032 5.9721 5.7783 5.69698C5.79594 5.67818 5.81215 5.66088 5.82668 5.64503C6.05364 5.39715 6.32203 5.33509 6.48719 5.33509L6.51425 5.33509C6.67022 5.33507 6.8254 5.33505 6.96189 5.3409Z" fill="#FF00FF"/>
</g>
<defs>
<clipPath id="clip0">
<rect width="20" height="20" fill="white"/>
</clipPath>
</defs>
</svg>
