<svg width="16" height="16" viewBox="0 0 16 16" fill="none" xmlns="http://www.w3.org/2000/svg">
<path fill-rule="evenodd" clip-rule="evenodd" d="M2.28311 6.53618C2.93417 3.9858 5.24691 2.1 8.0001 2.1C10.7533 2.1 13.066 3.9858 13.7171 6.53618C13.3862 6.46814 12.9662 6.38745 12.4823 6.3068C11.2676 6.10434 9.63789 5.89999 8.0001 5.89999C6.3623 5.89999 4.73262 6.10434 3.5179 6.3068C3.03398 6.38745 2.61396 6.46814 2.28311 6.53618ZM2.11381 7.59453C2.10472 7.72851 2.1001 7.86371 2.1001 8C2.1001 8.37592 2.13525 8.74362 2.20246 9.10001H2.80011C5.28539 9.10001 7.30011 11.1147 7.30011 13.6V13.8589C7.52966 13.886 7.76325 13.9 8.0001 13.9C8.10071 13.9 8.20073 13.8975 8.30011 13.8925V13.6C8.30011 11.1147 10.3148 9.10001 12.8001 9.10001H13.7977C13.8649 8.74362 13.9001 8.37592 13.9001 8C13.9001 7.86371 13.8955 7.72851 13.8864 7.59453C13.8427 7.5849 13.7956 7.57466 13.7453 7.5639C13.4016 7.49023 12.9092 7.39174 12.3179 7.29319C11.1326 7.09564 9.5623 6.89999 8.0001 6.89999C6.43789 6.89999 4.86758 7.09564 3.6823 7.29319C3.09103 7.39174 2.59864 7.49023 2.25486 7.5639C2.2046 7.57466 2.15753 7.5849 2.11381 7.59453ZM6.30011 13.6V13.6514C4.54411 13.1239 3.13258 11.8004 2.48478 10.1H2.80011C4.73311 10.1 6.30011 11.667 6.30011 13.6ZM9.30011 13.7563C11.2405 13.32 12.8191 11.9277 13.5154 10.1H12.8001C10.8671 10.1 9.30011 11.667 9.30011 13.6V13.7563ZM8.0001 1.1C4.18933 1.1 1.1001 4.18923 1.1001 8C1.1001 11.8108 4.18933 14.9 8.0001 14.9C11.8109 14.9 14.9001 11.8108 14.9001 8C14.9001 4.18923 11.8109 1.1 8.0001 1.1Z" fill="#FF00FF"/>
</svg>
