<svg width="16" height="16" viewBox="0 0 16 16" fill="none" xmlns="http://www.w3.org/2000/svg">
<path fill-rule="evenodd" clip-rule="evenodd" d="M2.05255 6.07612C5.34105 2.78762 10.6728 2.78762 13.9613 6.07612C14.2542 6.36901 14.729 6.36901 15.0219 6.07612C15.3148 5.78322 15.3148 5.30835 15.0219 5.01546C11.1476 1.14117 4.86617 1.14117 0.991887 5.01546C0.698994 5.30835 0.698994 5.78322 0.991887 6.07612C1.28478 6.36901 1.75965 6.36901 2.05255 6.07612ZM11.5165 8.50787C9.57103 6.5624 6.41679 6.5624 4.47131 8.50787C4.17842 8.80077 3.70354 8.80077 3.41065 8.50787C3.11776 8.21498 3.11776 7.74011 3.41065 7.44721C5.94192 4.91595 10.0459 4.91595 12.5772 7.44721C12.8701 7.74011 12.8701 8.21498 12.5772 8.50787C12.2843 8.80077 11.8094 8.80077 11.5165 8.50787ZM10.0001 11.1646C10.0001 12.2692 9.10469 13.1646 8.00012 13.1646C6.89555 13.1646 6.00012 12.2692 6.00012 11.1646C6.00012 10.06 6.89555 9.16461 8.00012 9.16461C9.10469 9.16461 10.0001 10.06 10.0001 11.1646Z" fill="#FF00FF"/>
</svg>
