<svg width="16" height="16" viewBox="0 0 16 16" fill="none" xmlns="http://www.w3.org/2000/svg">
<path fill-rule="evenodd" clip-rule="evenodd" d="M15.3167 5.68333C13.4912 3.72477 10.8886 2.5 8.00002 2.5C5.11142 2.5 2.50887 3.72476 0.68335 5.68332L1.74479 6.74476C3.29817 5.0573 5.52562 4 8.00002 4C10.4744 4 12.7019 5.0573 14.2553 6.74476L15.3167 5.68333ZM12.4853 8.51469C11.3863 7.27867 9.7841 6.5 8.00002 6.5C6.21595 6.5 4.61374 7.27867 3.51471 8.51469L4.57782 9.57779C5.40318 8.61213 6.63012 8 8.00002 8C9.36993 8 10.5969 8.61213 11.4222 9.5778L12.4853 8.51469ZM9.64209 11.3579C9.28074 10.8393 8.68001 10.5 8.00002 10.5C7.32004 10.5 6.71931 10.8393 6.35796 11.3579L8.00002 13L9.64209 11.3579Z" fill="#FF00FF"/>
</svg>
