<svg width="20" height="20" viewBox="0 0 20 20" fill="none" xmlns="http://www.w3.org/2000/svg">
<path fill-rule="evenodd" clip-rule="evenodd" d="M13.7784 6.08676C13.7784 6.67673 14.2752 7.17354 14.8962 7.17354C15.5483 7.17354 16.0606 6.69223 16.0606 6.08676C16.0606 5.48127 15.5483 5 14.8962 5C14.2752 5 13.7784 5.48127 13.7784 6.08676ZM15.8899 14.4704V8.24475H13.9647V14.4704H15.8899ZM18.8086 7.17354C18.1876 7.17354 17.6752 6.67673 17.6752 6.08676C17.6752 5.48127 18.1876 5 18.8086 5C19.4451 5 19.9575 5.48127 19.9575 6.08676C19.9575 6.69223 19.4451 7.17354 18.8086 7.17354ZM19.7867 14.4704V8.24475H17.8616V14.4704H19.7867ZM9.22947 12.1261L10.9062 5.52782H12.94C12.94 5.52782 10.9994 12.5608 10.7354 13.3836C10.5181 14.0202 10.0368 14.5325 9.30712 14.5325C8.48425 14.5325 8.09613 13.927 7.90983 13.3836C7.73903 12.8247 6.48149 8.18265 6.48149 8.18265C6.48149 8.18265 5.22393 12.8247 5.03763 13.3836C4.86686 13.927 4.47871 14.5325 3.64036 14.5325C2.9262 14.5325 2.42937 14.0202 2.22756 13.3836C1.96363 12.5608 0.0229492 5.52782 0.0229492 5.52782H2.04125L3.73351 12.1261C3.73351 12.1261 5.02212 7.17351 5.22393 6.45933C5.4413 5.7607 5.86049 5.4502 6.48149 5.4502C7.08698 5.4502 7.52169 5.7607 7.72352 6.45933C7.94088 7.17351 9.22947 12.1261 9.22947 12.1261Z" fill="#8B8B8B"/>
</svg>
