<svg width="16" height="16" viewBox="0 0 16 16" fill="none" xmlns="http://www.w3.org/2000/svg">
<g clip-path="url(#clip0_1447_1787)">
<path fill-rule="evenodd" clip-rule="evenodd" d="M7.99887 0.000671387L9.70786 2.85713L12.8129 1.52633L12.4758 4.81944L15.7937 5.5263L13.5352 8.00151L15.7938 10.4773L12.475 11.1829L12.8121 14.4764L9.70743 13.1447L7.99894 16.0002L6.29005 13.1439L3.18491 14.4752L3.52249 11.1823L0.204102 10.4751L2.46346 8.00025L0.204911 5.52457L3.52296 4.81895L3.18667 1.52546L6.29118 2.85704L7.99887 0.000671387ZM7.99903 0.989535L6.49905 3.49848L3.77921 2.33189L4.07418 5.22064L1.1768 5.8368L3.15062 8.00038L1.17603 10.1632L4.07387 10.7809L3.77781 13.6687L6.49782 12.5026L7.99895 15.0116L9.4997 12.5034L12.2194 13.6699L11.9237 10.7812L14.8219 10.165L12.8481 8.00149L14.822 5.83823L11.9245 5.22094L12.2202 2.3326L9.50006 3.4984L7.99903 0.989535Z" fill="#FF00FF"/>
<path fill-rule="evenodd" clip-rule="evenodd" d="M3.28199 1.77089C3.35295 1.68015 3.47612 1.64859 3.58197 1.694L6.49415 2.94349C6.53246 2.95993 6.56613 2.98555 6.59219 3.0181L8.19602 5.0213C8.2667 5.10958 8.27044 5.23397 8.20519 5.32634C8.13994 5.4187 8.02146 5.45675 7.91463 5.41964L5.13203 4.453C5.08472 4.43657 5.04334 4.40651 5.01308 4.36661L3.27969 2.08056C3.21009 1.98877 3.21104 1.86163 3.28199 1.77089ZM4.26434 2.53908L5.37113 3.99874L7.24958 4.6513L6.23566 3.38489L4.26434 2.53908Z" fill="#FF00FF"/>
<path fill-rule="evenodd" clip-rule="evenodd" d="M3.90715 4.73563L5.69971 7.22066L2.7331 8.29562L0.204102 5.52349L3.90715 4.73563ZM1.17593 5.83565L2.8793 7.70278L4.89483 6.97245L3.6891 5.30095L1.17593 5.83565Z" fill="#FF00FF"/>
<path fill-rule="evenodd" clip-rule="evenodd" d="M3.3889 1.6911C3.49474 1.64941 3.6154 1.68324 3.68414 1.77389L5.41753 4.05994C5.44951 4.10211 5.4675 4.15322 5.46899 4.20611L5.55037 7.08945C5.55351 7.20083 5.48364 7.30124 5.3781 7.33698C5.27256 7.37272 5.15606 7.33545 5.09087 7.24508L3.59172 5.16682C3.56569 5.13072 3.5496 5.08841 3.54508 5.04413L3.22945 1.953C3.21789 1.83983 3.28306 1.7328 3.3889 1.6911ZM3.82628 2.80141L4.04311 4.92498L5.01973 6.27886L4.96393 4.30177L3.82628 2.80141Z" fill="#FF00FF"/>
<path fill-rule="evenodd" clip-rule="evenodd" d="M7.99887 0.000671387L9.91294 3.19767L7.99952 5.5858L6.0875 3.19766L7.99887 0.000671387ZM7.99967 0.988744L6.70402 3.1556L7.99966 4.77388L9.29627 3.15559L7.99967 0.988744Z" fill="#FF00FF"/>
<path fill-rule="evenodd" clip-rule="evenodd" d="M12.093 4.7368L15.7955 5.52514L13.266 8.29684L10.2994 7.22046L12.093 4.7368ZM12.3108 5.30212L11.1045 6.97262L13.12 7.70391L14.8236 5.83715L12.3108 5.30212Z" fill="#FF00FF"/>
<path fill-rule="evenodd" clip-rule="evenodd" d="M12.6103 1.69183C12.7161 1.73356 12.7813 1.8406 12.7697 1.95375L12.4532 5.04527C12.4487 5.08957 12.4326 5.1319 12.4065 5.168L10.9066 7.24508C10.8414 7.33539 10.7249 7.37262 10.6194 7.33685C10.5139 7.30109 10.444 7.2007 10.4472 7.08934L10.5285 4.20601C10.53 4.15306 10.5481 4.1019 10.5801 4.05971L12.3151 1.77445C12.3839 1.68386 12.5045 1.65009 12.6103 1.69183ZM11.0336 4.30175L10.9778 6.27952L11.9552 4.92596L12.1727 2.80137L11.0336 4.30175Z" fill="#FF00FF"/>
<path fill-rule="evenodd" clip-rule="evenodd" d="M12.8107 1.52489L12.4517 5.04527C12.4472 5.0896 12.4311 5.13197 12.405 5.1681L10.9051 7.24517C10.8399 7.33547 10.7234 7.3727 10.6179 7.33696C10.5124 7.30123 10.4425 7.20088 10.4456 7.08954L10.5156 4.5736L8.08022 5.41963C7.97338 5.45675 7.85488 5.41868 7.78964 5.32629C7.7244 5.2339 7.72817 5.10949 7.79889 5.02122L9.40391 3.01802C9.42997 2.98548 9.46365 2.95988 9.50196 2.94345L12.8107 1.52489ZM11.031 4.3018L10.9759 6.28009L11.9537 4.9261L12.1704 2.80096L11.031 4.3018ZM11.7313 2.5399L10.6238 3.99871L8.74583 4.65109L9.76031 3.38493L11.7313 2.5399Z" fill="#FF00FF"/>
<path fill-rule="evenodd" clip-rule="evenodd" d="M10.4952 6.94782C10.5616 6.85594 10.6808 6.81923 10.7874 6.8579L13.2785 7.76173C13.3171 7.77574 13.3517 7.7989 13.3794 7.82924L15.4956 10.1485C15.5735 10.2338 15.5839 10.3611 15.5208 10.4579C15.4578 10.5548 15.3373 10.5968 15.2277 10.5602L12.4214 9.62282C12.3744 9.60714 12.3331 9.57807 12.3025 9.53918L10.5015 7.25353C10.4314 7.16448 10.4288 7.03971 10.4952 6.94782ZM11.4512 7.63867L12.6542 9.16545L14.4628 9.76959L13.0466 8.21754L11.4512 7.63867Z" fill="#FF00FF"/>
<path fill-rule="evenodd" clip-rule="evenodd" d="M5.50408 6.94787C5.57044 7.03975 5.56784 7.1645 5.49769 7.25353L3.69674 9.53918C3.66607 9.5781 3.62468 9.6072 3.57767 9.62287L0.77097 10.5587C0.661357 10.5952 0.540894 10.5531 0.47792 10.4563C0.414947 10.3594 0.425363 10.2322 0.503259 10.1469L2.61984 7.82802C2.64754 7.79768 2.68219 7.77451 2.72082 7.76051L5.21189 6.85786C5.31846 6.81925 5.43771 6.85598 5.50408 6.94787ZM2.95255 8.2164L1.53564 9.76871L3.34507 9.16539L4.54847 7.63811L2.95255 8.2164Z" fill="#FF00FF"/>
<path fill-rule="evenodd" clip-rule="evenodd" d="M9.74579 9.9569C9.85204 9.99192 9.92283 10.0924 9.92005 10.2042L9.85487 12.8292C9.85379 12.8729 9.84142 12.9157 9.81896 12.9532L8.21474 15.6351C8.15615 15.733 8.03938 15.7798 7.92937 15.7494C7.81935 15.719 7.74316 15.6189 7.74316 15.5048V12.5768C7.74316 12.5246 7.75924 12.4737 7.78921 12.431L9.45862 10.0521C9.52288 9.96057 9.63953 9.92188 9.74579 9.9569ZM8.25073 12.657V14.5862L9.34912 12.7499L9.39181 11.0309L8.25073 12.657Z" fill="#FF00FF"/>
<path fill-rule="evenodd" clip-rule="evenodd" d="M9.42113 9.85634L12.4329 10.788L12.8098 14.4752L9.34336 12.9884L9.42113 9.85634ZM9.91189 10.5394L9.8593 12.6574L12.2172 13.6687L11.9621 11.1737L9.91189 10.5394Z" fill="#FF00FF"/>
<path fill-rule="evenodd" clip-rule="evenodd" d="M3.41713 9.14144C3.46582 9.1252 3.5183 9.12411 3.56763 9.13832L6.4004 9.95406C6.50822 9.98511 6.58286 10.0833 6.58394 10.1955C6.58503 10.3077 6.5123 10.4073 6.4051 10.4404L3.87373 11.2226C3.83232 11.2354 3.78833 11.2373 3.74594 11.2283L0.637825 10.5662C0.525858 10.5424 0.44372 10.4465 0.437315 10.3322C0.43091 10.2179 0.501823 10.1135 0.610425 10.0773L3.41713 9.14144ZM3.50291 9.64787L1.6551 10.264L3.78704 10.7181L5.44281 10.2065L3.50291 9.64787Z" fill="#FF00FF"/>
<path fill-rule="evenodd" clip-rule="evenodd" d="M6.24879 9.95689C6.35504 9.92189 6.47167 9.96058 6.53593 10.0521L8.20533 12.431C8.2353 12.4737 8.25138 12.5246 8.25138 12.5768V15.5048C8.25138 15.6189 8.1752 15.719 8.0652 15.7494C7.95519 15.7798 7.83843 15.733 7.77983 15.6351L6.17482 12.9528C6.15233 12.9153 6.13996 12.8725 6.13888 12.8287L6.07449 10.2042C6.07175 10.0923 6.14255 9.99189 6.24879 9.95689ZM6.60248 11.0306L6.64465 12.7495L7.74382 14.5864V12.657L6.60248 11.0306Z" fill="#FF00FF"/>
<path fill-rule="evenodd" clip-rule="evenodd" d="M6.57193 9.85643L6.64876 12.9881L3.18184 14.474L3.55975 10.7872L6.57193 9.85643ZM4.03043 11.173L3.77471 13.6676L6.13292 12.6569L6.08097 10.5394L4.03043 11.173Z" fill="#FF00FF"/>
<path fill-rule="evenodd" clip-rule="evenodd" d="M10.9295 4.00843C10.9968 4.05773 11.0356 4.13693 11.0332 4.22031L10.9519 7.10364C10.9488 7.21056 10.8791 7.30412 10.7775 7.33755L8.07627 8.22637C7.99894 8.25181 7.9141 8.23862 7.84816 8.1909C7.78221 8.14317 7.74316 8.06671 7.74316 7.9853V5.17979C7.74316 5.07173 7.81159 4.97552 7.91367 4.94006L10.6963 3.97342C10.7751 3.94605 10.8623 3.95914 10.9295 4.00843ZM8.25073 5.36029V7.63463L10.4495 6.91113L10.5156 4.5736L8.25073 5.36029Z" fill="#FF00FF"/>
<path fill-rule="evenodd" clip-rule="evenodd" d="M5.06805 4.00843C5.13533 3.95914 5.22253 3.94605 5.30132 3.97342L8.08392 4.94006C8.186 4.97552 8.25442 5.07173 8.25442 5.17979V7.9853C8.25442 8.06671 8.21537 8.14317 8.14943 8.1909C8.08348 8.23862 7.99865 8.25181 7.92132 8.22637L5.22009 7.33755C5.11849 7.30412 5.04875 7.21056 5.04574 7.10364L4.96436 4.22031C4.96201 4.13693 5.00077 4.05773 5.06805 4.00843ZM5.48209 4.57353L5.54807 6.91113L7.74686 7.63463V5.36029L5.48209 4.57353Z" fill="#FF00FF"/>
<path fill-rule="evenodd" clip-rule="evenodd" d="M7.9976 7.73163C8.07722 7.73163 8.15223 7.769 8.20019 7.83256L9.86959 10.0451C9.9359 10.133 9.93798 10.2536 9.87474 10.3438L8.20533 12.7226C8.15782 12.7903 8.08031 12.8306 7.9976 12.8306C7.91489 12.8306 7.83738 12.7903 7.78987 12.7226L6.12046 10.3438C6.05722 10.2536 6.0593 10.133 6.12561 10.0451L7.79501 7.83256C7.84297 7.769 7.91798 7.73163 7.9976 7.73163ZM6.64203 10.2034L7.9976 12.1351L9.35317 10.2034L7.9976 8.40676L6.64203 10.2034Z" fill="#FF00FF"/>
<path fill-rule="evenodd" clip-rule="evenodd" d="M10.6189 6.85539C10.7202 6.82206 10.8315 6.85562 10.8975 6.93939L12.6985 9.22505C12.7508 9.29142 12.7666 9.37947 12.7407 9.4599C12.7148 9.54034 12.6506 9.6026 12.5694 9.62598L9.73658 10.4417C9.63557 10.4708 9.52708 10.4346 9.46377 10.3507L7.79436 8.13813C7.74505 8.07277 7.7303 7.98763 7.75475 7.90949C7.7792 7.83135 7.83985 7.76981 7.91763 7.74421L10.6189 6.85539ZM8.41312 8.11551L9.76383 9.90569L12.0662 9.24269L10.6088 7.39304L8.41312 8.11551Z" fill="#FF00FF"/>
<path fill-rule="evenodd" clip-rule="evenodd" d="M5.09622 6.93939C5.16222 6.85562 5.27357 6.82206 5.37488 6.85539L8.0761 7.74421C8.15388 7.76981 8.21453 7.83135 8.23898 7.90949C8.26343 7.98763 8.24868 8.07277 8.19937 8.13813L6.52996 10.3507C6.46665 10.4346 6.35816 10.4708 6.25715 10.4417L3.42438 9.62598C3.34318 9.6026 3.27894 9.54034 3.25304 9.4599C3.22714 9.37947 3.24297 9.29142 3.29527 9.22505L5.09622 6.93939ZM5.38496 7.39304L3.92755 9.24269L6.2299 9.90569L7.58061 8.11551L5.38496 7.39304Z" fill="#FF00FF"/>
</g>
<defs>
<clipPath id="clip0_1447_1787">
<rect width="16" height="16" fill="white"/>
</clipPath>
</defs>
</svg>
