<svg width="16" height="16" viewBox="0 0 16 16" fill="none" xmlns="http://www.w3.org/2000/svg">
<g clip-path="url(#clip0_1447_1787)">
<path fill-rule="evenodd" clip-rule="evenodd" d="M7.99887 0.000732422L9.70786 2.85719L12.8129 1.52639L12.4758 4.81951L15.7937 5.52636L13.5352 8.00158L15.7938 10.4773L12.475 11.1829L12.8121 14.4765L9.70743 13.1448L7.99894 16.0003L6.29005 13.144L3.18491 14.4752L3.52249 11.1824L0.204102 10.4751L2.46346 8.00032L0.204911 5.52463L3.52296 4.81901L3.18667 1.52552L6.29118 2.85711L7.99887 0.000732422ZM7.99903 0.989596L6.49905 3.49855L3.77921 2.33195L4.07418 5.2207L1.1768 5.83686L3.15062 8.00044L1.17603 10.1633L4.07387 10.781L3.77781 13.6688L6.49782 12.5027L7.99895 15.0117L9.4997 12.5034L12.2194 13.6699L11.9237 10.7812L14.8219 10.1651L12.8481 8.00155L14.822 5.8383L11.9245 5.221L12.2202 2.33266L9.50006 3.49846L7.99903 0.989596Z" fill="#FF00FF"/>
<path fill-rule="evenodd" clip-rule="evenodd" d="M3.28199 1.77095C3.35295 1.68022 3.47612 1.64865 3.58197 1.69406L6.49415 2.94355C6.53246 2.95999 6.56613 2.98561 6.59219 3.01816L8.19602 5.02136C8.2667 5.10964 8.27044 5.23403 8.20519 5.3264C8.13994 5.41876 8.02146 5.45681 7.91463 5.4197L5.13203 4.45306C5.08472 4.43663 5.04334 4.40657 5.01308 4.36667L3.27969 2.08062C3.21009 1.98883 3.21104 1.86169 3.28199 1.77095ZM4.26434 2.53914L5.37113 3.99881L7.24958 4.65136L6.23566 3.38495L4.26434 2.53914Z" fill="#FF00FF"/>
<path fill-rule="evenodd" clip-rule="evenodd" d="M3.90715 4.73569L5.69971 7.22072L2.7331 8.29568L0.204102 5.52356L3.90715 4.73569ZM1.17593 5.83571L2.8793 7.70284L4.89483 6.97251L3.6891 5.30101L1.17593 5.83571Z" fill="#FF00FF"/>
<path fill-rule="evenodd" clip-rule="evenodd" d="M3.3889 1.69116C3.49474 1.64947 3.6154 1.6833 3.68414 1.77395L5.41753 4.06C5.44951 4.10217 5.4675 4.15328 5.46899 4.20617L5.55037 7.08951C5.55351 7.20089 5.48364 7.3013 5.3781 7.33704C5.27256 7.37278 5.15606 7.33551 5.09087 7.24514L3.59172 5.16688C3.56569 5.13078 3.5496 5.08847 3.54508 5.04419L3.22945 1.95306C3.21789 1.83989 3.28306 1.73286 3.3889 1.69116ZM3.82628 2.80147L4.04311 4.92504L5.01973 6.27892L4.96393 4.30183L3.82628 2.80147Z" fill="#FF00FF"/>
<path fill-rule="evenodd" clip-rule="evenodd" d="M7.99887 0.000732422L9.91294 3.19773L7.99952 5.58586L6.0875 3.19772L7.99887 0.000732422ZM7.99967 0.988805L6.70402 3.15566L7.99966 4.77394L9.29627 3.15565L7.99967 0.988805Z" fill="#FF00FF"/>
<path fill-rule="evenodd" clip-rule="evenodd" d="M12.093 4.73687L15.7955 5.5252L13.266 8.2969L10.2994 7.22052L12.093 4.73687ZM12.3108 5.30218L11.1045 6.97268L13.12 7.70397L14.8236 5.83721L12.3108 5.30218Z" fill="#FF00FF"/>
<path fill-rule="evenodd" clip-rule="evenodd" d="M12.6103 1.69189C12.7161 1.73362 12.7813 1.84066 12.7697 1.95381L12.4532 5.04533C12.4487 5.08963 12.4326 5.13196 12.4065 5.16806L10.9066 7.24514C10.8414 7.33545 10.7249 7.37268 10.6194 7.33691C10.5139 7.30115 10.444 7.20076 10.4472 7.08941L10.5285 4.20607C10.53 4.15312 10.5481 4.10196 10.5801 4.05977L12.3151 1.77451C12.3839 1.68392 12.5045 1.65015 12.6103 1.69189ZM11.0336 4.30181L10.9778 6.27958L11.9552 4.92602L12.1727 2.80144L11.0336 4.30181Z" fill="#FF00FF"/>
<path fill-rule="evenodd" clip-rule="evenodd" d="M12.8107 1.52495L12.4517 5.04533C12.4472 5.08967 12.4311 5.13203 12.405 5.16816L10.9051 7.24524C10.8399 7.33554 10.7234 7.37276 10.6179 7.33702C10.5124 7.30129 10.4425 7.20094 10.4456 7.0896L10.5156 4.57366L8.08022 5.41969C7.97338 5.45681 7.85488 5.41874 7.78964 5.32635C7.7244 5.23396 7.72817 5.10955 7.79889 5.02128L9.40391 3.01808C9.42997 2.98555 9.46365 2.95994 9.50196 2.94351L12.8107 1.52495ZM11.031 4.30186L10.9759 6.28015L11.9537 4.92616L12.1704 2.80103L11.031 4.30186ZM11.7313 2.53996L10.6238 3.99877L8.74583 4.65115L9.76031 3.38499L11.7313 2.53996Z" fill="#FF00FF"/>
<path fill-rule="evenodd" clip-rule="evenodd" d="M10.4952 6.94788C10.5616 6.856 10.6808 6.8193 10.7874 6.85796L13.2785 7.76179C13.3171 7.7758 13.3517 7.79897 13.3794 7.8293L15.4956 10.1485C15.5735 10.2339 15.5839 10.3611 15.5208 10.458C15.4578 10.5548 15.3373 10.5969 15.2277 10.5603L12.4214 9.62289C12.3744 9.6072 12.3331 9.57813 12.3025 9.53924L10.5015 7.25359C10.4314 7.16455 10.4288 7.03977 10.4952 6.94788ZM11.4512 7.63873L12.6542 9.16551L14.4628 9.76965L13.0466 8.2176L11.4512 7.63873Z" fill="#FF00FF"/>
<path fill-rule="evenodd" clip-rule="evenodd" d="M5.50408 6.94793C5.57044 7.03981 5.56784 7.16456 5.49769 7.25359L3.69674 9.53924C3.66607 9.57817 3.62468 9.60726 3.57767 9.62293L0.77097 10.5588C0.661357 10.5953 0.540894 10.5532 0.47792 10.4563C0.414947 10.3594 0.425363 10.2323 0.503259 10.1469L2.61984 7.82808C2.64754 7.79774 2.68219 7.77457 2.72082 7.76057L5.21189 6.85792C5.31846 6.81931 5.43771 6.85604 5.50408 6.94793ZM2.95255 8.21646L1.53564 9.76877L3.34507 9.16545L4.54847 7.63817L2.95255 8.21646Z" fill="#FF00FF"/>
<path fill-rule="evenodd" clip-rule="evenodd" d="M9.74579 9.95696C9.85204 9.99198 9.92283 10.0924 9.92005 10.2043L9.85487 12.8293C9.85379 12.873 9.84142 12.9157 9.81896 12.9533L8.21474 15.6351C8.15615 15.7331 8.03938 15.7799 7.92937 15.7495C7.81935 15.7191 7.74316 15.619 7.74316 15.5048V12.5769C7.74316 12.5247 7.75924 12.4738 7.78921 12.4311L9.45862 10.0522C9.52288 9.96063 9.63953 9.92194 9.74579 9.95696ZM8.25073 12.657V14.5862L9.34912 12.75L9.39181 11.031L8.25073 12.657Z" fill="#FF00FF"/>
<path fill-rule="evenodd" clip-rule="evenodd" d="M9.42113 9.8564L12.4329 10.7881L12.8098 14.4753L9.34336 12.9884L9.42113 9.8564ZM9.91189 10.5395L9.8593 12.6574L12.2172 13.6688L11.9621 11.1737L9.91189 10.5395Z" fill="#FF00FF"/>
<path fill-rule="evenodd" clip-rule="evenodd" d="M3.41713 9.1415C3.46582 9.12526 3.5183 9.12417 3.56763 9.13838L6.4004 9.95412C6.50822 9.98517 6.58286 10.0833 6.58394 10.1955C6.58503 10.3077 6.5123 10.4073 6.4051 10.4405L3.87373 11.2226C3.83232 11.2354 3.78833 11.2374 3.74594 11.2284L0.637825 10.5663C0.525858 10.5424 0.44372 10.4466 0.437315 10.3323C0.43091 10.218 0.501823 10.1135 0.610425 10.0773L3.41713 9.1415ZM3.50291 9.64793L1.6551 10.264L3.78704 10.7182L5.44281 10.2066L3.50291 9.64793Z" fill="#FF00FF"/>
<path fill-rule="evenodd" clip-rule="evenodd" d="M6.24879 9.95695C6.35504 9.92195 6.47167 9.96064 6.53593 10.0522L8.20533 12.4311C8.2353 12.4738 8.25138 12.5247 8.25138 12.5769V15.5048C8.25138 15.619 8.1752 15.7191 8.0652 15.7495C7.95519 15.7799 7.83843 15.7331 7.77983 15.6352L6.17482 12.9529C6.15233 12.9153 6.13996 12.8726 6.13888 12.8288L6.07449 10.2042C6.07175 10.0924 6.14255 9.99195 6.24879 9.95695ZM6.60248 11.0306L6.64465 12.7496L7.74382 14.5865V12.657L6.60248 11.0306Z" fill="#FF00FF"/>
<path fill-rule="evenodd" clip-rule="evenodd" d="M6.57193 9.85649L6.64876 12.9881L3.18184 14.474L3.55975 10.7872L6.57193 9.85649ZM4.03043 11.173L3.77471 13.6677L6.13292 12.657L6.08097 10.5394L4.03043 11.173Z" fill="#FF00FF"/>
<path fill-rule="evenodd" clip-rule="evenodd" d="M10.9295 4.00849C10.9968 4.05779 11.0356 4.13699 11.0332 4.22037L10.9519 7.1037C10.9488 7.21063 10.8791 7.30418 10.7775 7.33761L8.07627 8.22643C7.99894 8.25187 7.9141 8.23868 7.84816 8.19096C7.78221 8.14323 7.74316 8.06677 7.74316 7.98536V5.17985C7.74316 5.07179 7.81159 4.97558 7.91367 4.94012L10.6963 3.97348C10.7751 3.94611 10.8623 3.9592 10.9295 4.00849ZM8.25073 5.36035V7.63469L10.4495 6.91119L10.5156 4.57366L8.25073 5.36035Z" fill="#FF00FF"/>
<path fill-rule="evenodd" clip-rule="evenodd" d="M5.06805 4.00849C5.13533 3.9592 5.22253 3.94611 5.30132 3.97348L8.08392 4.94012C8.186 4.97558 8.25442 5.07179 8.25442 5.17985V7.98536C8.25442 8.06677 8.21537 8.14323 8.14943 8.19096C8.08348 8.23868 7.99865 8.25187 7.92132 8.22643L5.22009 7.33761C5.11849 7.30418 5.04875 7.21063 5.04574 7.1037L4.96436 4.22037C4.96201 4.13699 5.00077 4.05779 5.06805 4.00849ZM5.48209 4.57359L5.54807 6.91119L7.74686 7.63469V5.36035L5.48209 4.57359Z" fill="#FF00FF"/>
<path fill-rule="evenodd" clip-rule="evenodd" d="M7.9976 7.73169C8.07722 7.73169 8.15223 7.76906 8.20019 7.83262L9.86959 10.0452C9.9359 10.1331 9.93798 10.2537 9.87474 10.3438L8.20533 12.7227C8.15782 12.7904 8.08031 12.8307 7.9976 12.8307C7.91489 12.8307 7.83738 12.7904 7.78987 12.7227L6.12046 10.3438C6.05722 10.2537 6.0593 10.1331 6.12561 10.0452L7.79501 7.83262C7.84297 7.76906 7.91798 7.73169 7.9976 7.73169ZM6.64203 10.2035L7.9976 12.1351L9.35317 10.2035L7.9976 8.40682L6.64203 10.2035Z" fill="#FF00FF"/>
<path fill-rule="evenodd" clip-rule="evenodd" d="M10.6189 6.85545C10.7202 6.82212 10.8315 6.85568 10.8975 6.93945L12.6985 9.22511C12.7508 9.29148 12.7666 9.37953 12.7407 9.45996C12.7148 9.5404 12.6506 9.60266 12.5694 9.62605L9.73658 10.4418C9.63557 10.4709 9.52708 10.4347 9.46377 10.3508L7.79436 8.13819C7.74505 8.07283 7.7303 7.98769 7.75475 7.90955C7.7792 7.83141 7.83985 7.76987 7.91763 7.74428L10.6189 6.85545ZM8.41312 8.11557L9.76383 9.90575L12.0662 9.24275L10.6088 7.3931L8.41312 8.11557Z" fill="#FF00FF"/>
<path fill-rule="evenodd" clip-rule="evenodd" d="M5.09622 6.93945C5.16222 6.85568 5.27357 6.82212 5.37488 6.85545L8.0761 7.74428C8.15388 7.76987 8.21453 7.83141 8.23898 7.90955C8.26343 7.98769 8.24868 8.07283 8.19937 8.13819L6.52996 10.3508C6.46665 10.4347 6.35816 10.4709 6.25715 10.4418L3.42438 9.62605C3.34318 9.60266 3.27894 9.5404 3.25304 9.45996C3.22714 9.37953 3.24297 9.29148 3.29527 9.22511L5.09622 6.93945ZM5.38496 7.3931L3.92755 9.24275L6.2299 9.90575L7.58061 8.11557L5.38496 7.3931Z" fill="#FF00FF"/>
</g>
<defs>
<clipPath id="clip0_1447_1787">
<rect width="16" height="16" fill="white"/>
</clipPath>
</defs>
</svg>
