<svg width="20" height="20" viewBox="0 0 20 20" fill="none" xmlns="http://www.w3.org/2000/svg">
<g clip-path="url(#clip0)">
<mask id="mask0" mask-type="alpha" maskUnits="userSpaceOnUse" x="-235" y="-227" width="2031" height="1607">
<path fill-rule="evenodd" clip-rule="evenodd" d="M1796 -227H-235V1380H1796V-227ZM-1.05461 -0.970474H-0.461426C-0.175568 -0.543488 0.118271 -0.123428 0.420334 0.289429L9.41429 -0.502151L19.2439 0.665344C19.654 0.217926 20.0804 -0.248322 20.5231 -0.733398L20.8084 17.8258C21.5994 18.3011 22.4382 18.7926 23.3248 19.2991V19.8925H-3.05054V19.0754L-2.76062 18.9304C-2.16641 18.6137 -1.5979 18.3057 -1.05461 18.0048V-0.970474ZM15.6723 12.4875C16.9608 14.1488 18.3945 15.7619 19.9984 17.3345C19.2855 16.898 18.6149 16.4761 17.9866 16.0698C15.047 14.1322 12.3582 12.1022 9.93283 9.95358C7.54712 12.3133 4.89766 14.409 1.95828 16.2414C1.33023 16.6355 0.653229 17.0383 -0.0740356 17.4536C0.74176 16.7184 1.64645 15.7588 2.64917 14.5704C4.24399 12.6853 5.85214 10.4708 7.51314 7.91388L5.14059 5.62019L5.12843 5.60802C4.27696 4.75639 3.55609 4.03537 2.99194 3.40569C2.54372 2.92474 2.11037 2.43056 1.69133 1.92375C2.4209 2.4767 3.31415 3.01579 4.37106 3.53738C5.14862 3.93285 6.07141 4.34146 7.16524 4.77626L7.18532 4.78418C7.62878 4.95901 8.55728 5.3251 9.93341 5.85709C12.517 4.86879 14.4811 4.03838 15.8389 3.32666C16.6998 2.8898 17.4131 2.45894 17.9816 2.03825C15.2602 4.98882 13.392 6.94705 12.3771 7.90027C13.7217 9.8512 14.8154 11.3803 15.6723 12.4875Z" fill="#C4C4C4"/>
</mask>
<g mask="url(#mask0)">
<path fill-rule="evenodd" clip-rule="evenodd" d="M1.04121 1.65265L2.26708 2.78633C2.39472 2.87966 2.52648 2.97259 2.66237 3.06511V13.2518L3.29169 13.2495L-0.317383 17.8126L1.14573 16.9292C1.26764 16.8136 1.39108 16.6933 1.51604 16.5682V17.2544H7.50035V13.2343L9.93446 13.2255V13.252H12.4063V17.2039H18.3906V17.2038V16.4606C18.4562 16.5373 18.522 16.6139 18.5878 16.6905L20.6443 17.6659L16.9095 13.252H17.1486V3.04993L17.1483 3.05006L17.1485 3.04991L18.0185 1.99542L9.93403 5.81553L1.04121 1.65265Z" fill="#FF00FF"/>
</g>
</g>
<defs>
<clipPath id="clip0">
<rect width="20" height="20" fill="white"/>
</clipPath>
</defs>
</svg>
