<svg width="16" height="16" viewBox="0 0 16 16" fill="none" xmlns="http://www.w3.org/2000/svg">
<g clip-path="url(#clip0_1447_2951)">
<mask id="mask0_1447_2951" style="mask-type:alpha" maskUnits="userSpaceOnUse" x="-188" y="-182" width="1625" height="1286">
<path fill-rule="evenodd" clip-rule="evenodd" d="M1436.8 -181.6H-188V1104H1436.8V-181.6ZM-0.843689 -0.776352H-0.369141C-0.140457 -0.434769 0.0946198 -0.0987091 0.336273 0.231583L7.53143 -0.401688L15.3951 0.532303C15.7232 0.174377 16.0644 -0.198639 16.4185 -0.586685L16.6467 14.2606C17.2795 14.6409 17.9506 15.0341 18.6599 15.4393V15.914H-2.44043V15.2603L-2.2085 15.1443C-1.73314 14.891 -1.27832 14.6446 -0.843689 14.4039V-0.776352ZM12.5378 9.99004C13.5686 11.3191 14.7156 12.6095 15.9987 13.8676C15.4284 13.5184 14.8919 13.1809 14.3893 12.8559C12.0376 11.3058 9.88658 9.68182 7.94626 7.96289C6.0377 9.85068 3.91814 11.5272 1.56664 12.9931C1.06418 13.3085 0.522583 13.6306 -0.0592194 13.9629C0.593414 13.3748 1.31715 12.6071 2.11934 11.6563C3.39519 10.1483 4.68172 8.37668 6.01051 6.33113L4.11247 4.49617L4.10271 4.4864L4.10234 4.48604C3.42134 3.8049 2.84479 3.22823 2.39355 2.72458C2.03497 2.33981 1.68829 1.94447 1.35306 1.53903C1.93672 1.98138 2.65132 2.41266 3.49686 2.82994C4.1189 3.1463 4.85713 3.47321 5.73219 3.82103L5.74829 3.82739L5.7493 3.8278C6.10446 3.96782 6.84689 4.26051 7.94673 4.6857C10.0136 3.89507 11.5849 3.23073 12.6711 2.66136C13.3598 2.31186 13.9305 1.96718 14.3853 1.63062C12.2082 3.99107 10.7136 5.55768 9.9017 6.32024C10.9774 7.88098 11.8523 9.10431 12.5378 9.99004Z" fill="#C4C4C4"/>
</mask>
<g mask="url(#mask0_1447_2951)">
<path d="M7.95085 5.16037L2.12988 2.43982V10.6015L7.95085 10.5804V5.16037V5.16037Z" fill="url(#paint0_linear_1447_2951)"/>
<path d="M13.719 2.43994L7.94775 5.16036V10.6016H13.719V2.43994Z" fill="url(#paint1_linear_1447_2951)"/>
<path d="M14.7127 13.763V13.0462L9.92529 6.93005V13.7632H14.7127V13.763Z" fill="url(#paint2_linear_1447_2951)"/>
<path d="M6.00034 13.8036V6.97058L1.21289 13.0867V13.8036H6.00034Z" fill="url(#paint3_linear_1447_2951)"/>
<path d="M0.833008 1.32214L1.8137 2.22909C3.2268 3.26247 5.27248 4.23249 7.95103 5.1605V4.65422L0.833008 1.32214Z" fill="url(#paint4_linear_1447_2951)"/>
<path d="M13.7188 2.4399L14.4148 1.59631L7.9458 4.65307L7.94717 5.16032C10.7733 4.00023 12.696 3.09343 13.7188 2.4399Z" fill="url(#paint5_linear_1447_2951)"/>
<path d="M9.90381 6.31885L9.92474 6.98318C11.4643 9.19773 13.12 11.3173 14.8704 13.3525L16.5156 14.1328L9.90381 6.31885V6.31885Z" fill="url(#paint6_linear_1447_2951)"/>
<path d="M5.99904 7.01633L6.00958 6.33093L-0.253906 14.2501L0.916581 13.5433C2.35061 12.1833 4.04832 10.0111 5.99904 7.01633Z" fill="url(#paint7_linear_1447_2951)"/>
</g>
</g>
<defs>
<linearGradient id="paint0_linear_1447_2951" x1="1.46678" y1="10.0838" x2="7.24313" y2="4.30748" gradientUnits="userSpaceOnUse">
<stop offset="0.17" stop-color="#C9CA4C"/>
<stop offset="0.418" stop-color="#C8C94C"/>
<stop offset="0.578" stop-color="#C2C74D"/>
<stop offset="0.713" stop-color="#B9C350"/>
<stop offset="0.834" stop-color="#ABBD52"/>
<stop offset="0.944" stop-color="#9AB656"/>
<stop offset="1" stop-color="#90B258"/>
</linearGradient>
<linearGradient id="paint1_linear_1447_2951" x1="8.62769" y1="4.31513" x2="14.3791" y2="10.0666" gradientUnits="userSpaceOnUse">
<stop stop-color="#637E3E"/>
<stop offset="0.077" stop-color="#78974A"/>
<stop offset="0.151" stop-color="#89AB54"/>
<stop offset="0.192" stop-color="#90B258"/>
<stop offset="0.197" stop-color="#93B357"/>
<stop offset="0.229" stop-color="#A3BA54"/>
<stop offset="0.266" stop-color="#B2C051"/>
<stop offset="0.309" stop-color="#BDC54F"/>
<stop offset="0.362" stop-color="#C4C84D"/>
<stop offset="0.437" stop-color="#C8CA4C"/>
<stop offset="0.644" stop-color="#C9CA4C"/>
</linearGradient>
<linearGradient id="paint2_linear_1447_2951" x1="8.13576" y1="8.55689" x2="14.0914" y2="14.5125" gradientUnits="userSpaceOnUse">
<stop stop-color="#66813F"/>
<stop offset="0.226" stop-color="#90B258"/>
<stop offset="0.259" stop-color="#96B457"/>
<stop offset="0.379" stop-color="#A8BC53"/>
<stop offset="0.507" stop-color="#B7C250"/>
<stop offset="0.644" stop-color="#C1C74E"/>
<stop offset="0.798" stop-color="#C8C94C"/>
<stop offset="1" stop-color="#C9CA4C"/>
</linearGradient>
<linearGradient id="paint3_linear_1447_2951" x1="7.78138" y1="8.60617" x2="1.82577" y2="14.5618" gradientUnits="userSpaceOnUse">
<stop stop-color="#577036"/>
<stop offset="0.271" stop-color="#90B258"/>
<stop offset="0.316" stop-color="#9AB656"/>
<stop offset="0.409" stop-color="#ABBD53"/>
<stop offset="0.511" stop-color="#B9C350"/>
<stop offset="0.623" stop-color="#C2C74D"/>
<stop offset="0.756" stop-color="#C8C94C"/>
<stop offset="0.961" stop-color="#C9CA4C"/>
</linearGradient>
<linearGradient id="paint4_linear_1447_2951" x1="1.15881" y1="3.24126" x2="5.68518" y2="3.24126" gradientUnits="userSpaceOnUse">
<stop stop-color="#839363"/>
<stop offset="0.234" stop-color="#707E57"/>
<stop offset="0.575" stop-color="#586346"/>
<stop offset="0.842" stop-color="#475039"/>
<stop offset="1" stop-color="#404934"/>
</linearGradient>
<linearGradient id="paint5_linear_1447_2951" x1="7.93855" y1="3.37832" x2="13.7087" y2="3.37832" gradientUnits="userSpaceOnUse">
<stop stop-color="#49503D"/>
<stop offset="1" stop-color="#78875B"/>
</linearGradient>
<linearGradient id="paint6_linear_1447_2951" x1="9.89505" y1="10.2259" x2="16.5068" y2="10.2259" gradientUnits="userSpaceOnUse">
<stop stop-color="#434A39"/>
<stop offset="0.165" stop-color="#4B533F"/>
<stop offset="0.46" stop-color="#5E684D"/>
<stop offset="0.847" stop-color="#78865D"/>
<stop offset="1" stop-color="#839363"/>
</linearGradient>
<linearGradient id="paint7_linear_1447_2951" x1="-1.59927" y1="10.2905" x2="4.69022" y2="10.2905" gradientUnits="userSpaceOnUse">
<stop stop-color="#739148"/>
<stop offset="1" stop-color="#64724C"/>
</linearGradient>
<clipPath id="clip0_1447_2951">
<rect width="16" height="16" fill="white"/>
</clipPath>
</defs>
</svg>
