<svg width="16" height="16" viewBox="0 0 16 16" fill="none" xmlns="http://www.w3.org/2000/svg">
<g clip-path="url(#clip0_1447_1784)">
<path d="M7.19823 15.9671C5.96636 15.8491 4.71925 15.4068 3.64797 14.7078C2.75027 14.1223 2.54769 13.8812 2.54769 13.4008C2.54769 12.4356 3.60894 10.7449 5.42477 8.81791C6.45573 7.72321 7.89204 6.44079 8.04723 6.47536C8.34944 6.54282 10.7637 8.89783 11.6677 10.0067C13.097 11.7593 13.7538 13.1949 13.42 13.8348C13.1663 14.3212 11.5917 15.272 10.4351 15.6372C9.48169 15.9383 8.22956 16.0658 7.19823 15.9671ZM1.33515 12.3974C0.589113 11.2528 0.212193 10.1262 0.0304235 8.49656C-0.0297946 7.95851 -0.00860678 7.65091 0.166658 6.54617C0.384669 5.17082 1.16843 3.57801 2.11073 2.59854C2.51182 2.18222 2.5475 2.17107 3.03668 2.33648C3.62957 2.53721 4.26334 2.97509 5.24653 3.86423L5.82084 4.38352L5.50674 4.76825C4.05184 6.55435 2.51628 9.08759 1.93826 10.6544C1.62416 11.5056 1.49777 12.3606 1.63345 12.7165C1.72452 12.957 1.64088 12.8674 1.33422 12.3979L1.33515 12.3974ZM14.4294 12.592C14.5032 12.2321 14.4099 11.5716 14.1915 10.9051C13.7185 9.46191 12.137 6.77719 10.6849 4.95169L10.2277 4.37702L10.7225 3.92297C11.3681 3.33008 11.8164 2.97509 12.3004 2.67344C12.682 2.43554 13.2275 2.22497 13.462 2.22497C13.6064 2.22497 14.1155 2.75466 14.5262 3.33082C15.1626 4.22294 15.6306 5.30649 15.8678 6.4328C16.0211 7.16136 16.0339 8.71885 15.8925 9.44556C15.7754 10.0418 15.5301 10.8146 15.2922 11.3389C15.1119 11.7316 14.6677 12.4946 14.4725 12.7429C14.3722 12.8706 14.3722 12.8704 14.4279 12.5949L14.4294 12.592ZM7.33019 1.9525C6.65999 1.61238 5.62624 1.24716 5.05529 1.14866C4.8553 1.11428 4.51388 1.09476 4.29698 1.10591C3.82565 1.1297 3.84665 1.10517 4.60235 0.748136C5.23055 0.45132 5.75467 0.276799 6.46651 0.127369C7.26663 -0.0408324 8.77115 -0.042691 9.55863 0.12328C10.4089 0.302634 11.4105 0.675279 11.9748 1.02283L12.1428 1.1258L11.7581 1.10647C10.9931 1.06781 9.87831 1.37689 8.68138 1.959C8.32044 2.13482 8.00671 2.27496 7.98367 2.27124C7.96081 2.26678 7.66659 2.12349 7.32945 1.9525H7.33019Z" fill="#FF00FF"/>
</g>
<defs>
<clipPath id="clip0_1447_1784">
<rect width="16" height="16" fill="white"/>
</clipPath>
</defs>
</svg>
