<svg width="20" height="20" viewBox="0 0 20 20" fill="none" xmlns="http://www.w3.org/2000/svg">
<g clip-path="url(#clip0)">
<path d="M8.99779 19.9589C7.45795 19.8114 5.89907 19.2585 4.55996 18.3847C3.43784 17.6529 3.18461 17.3516 3.18461 16.751C3.18461 15.5446 4.51117 13.4311 6.78097 11.0224C8.06966 9.65401 9.86505 8.05098 10.059 8.0942C10.4368 8.17853 13.4547 11.1223 14.5847 12.5083C16.3713 14.6991 17.1923 16.4936 16.775 17.2935C16.4579 17.9015 14.4897 19.09 13.0439 19.5465C11.8521 19.9229 10.2869 20.0823 8.99779 19.9589ZM1.66894 15.4967C0.736392 14.0661 0.265241 12.6577 0.0380293 10.6207C-0.0372433 9.94813 -0.0107585 9.56364 0.208322 8.18271C0.480837 6.46352 1.46054 4.47252 2.63842 3.24818C3.13977 2.72777 3.18438 2.71383 3.79585 2.9206C4.53696 3.17151 5.32918 3.71886 6.55817 4.83029L7.27605 5.4794L6.88342 5.96031C5.0648 8.19293 3.14535 11.3595 2.42282 13.318C2.0302 14.382 1.87222 15.4507 2.04181 15.8956C2.15565 16.1962 2.05111 16.0842 1.66777 15.4974L1.66894 15.4967ZM18.0368 15.7399C18.129 15.2902 18.0124 14.4645 17.7394 13.6314C17.1481 11.8274 15.1713 8.47149 13.3562 6.18961L12.7847 5.47127L13.4031 4.90371C14.2102 4.1626 14.7705 3.71886 15.3755 3.3418C15.8525 3.04443 16.5343 2.78121 16.8275 2.78121C17.008 2.78121 17.6444 3.44333 18.1578 4.16353C18.9533 5.27868 19.5383 6.63312 19.8347 8.04099C20.0264 8.9517 20.0424 10.8986 19.8656 11.8069C19.7193 12.5522 19.4126 13.5182 19.1152 14.1736C18.8899 14.6645 18.3346 15.6182 18.0907 15.9286C17.9652 16.0882 17.9652 16.088 18.0349 15.7437L18.0368 15.7399ZM9.16274 2.44062C8.32498 2.01547 7.0328 1.55896 6.31911 1.43583C6.06913 1.39285 5.64235 1.36845 5.37123 1.38239C4.78206 1.41213 4.80831 1.38146 5.75294 0.93517C6.53819 0.56415 7.19334 0.345999 8.08313 0.159212C9.08328 -0.0510405 10.9639 -0.0533637 11.9483 0.1541C13.0112 0.378292 14.2632 0.844099 14.9685 1.27854L15.1785 1.40725L14.6976 1.38309C13.7414 1.33476 12.3479 1.72112 10.8517 2.44875C10.4006 2.66853 10.0084 2.8437 9.97959 2.83905C9.95101 2.83348 9.58324 2.65436 9.16181 2.44062H9.16274Z" fill="#107C10"/>
</g>
<defs>
<clipPath id="clip0">
<rect width="20" height="20" fill="white"/>
</clipPath>
</defs>
</svg>
