<svg width="16" height="16" viewBox="0 0 16 16" fill="none" xmlns="http://www.w3.org/2000/svg">
<g clip-path="url(#clip0_2179_3822)">
<path d="M11.7158 6.35023C12.4373 6.35023 12.6706 6.86812 12.6706 7.51304H10.699C10.699 6.89369 10.9404 6.35023 11.7158 6.35023Z" fill="#FF00FF"/>
<path fill-rule="evenodd" clip-rule="evenodd" d="M15.3069 0H0.69315C0.309147 0 0 0.309144 0 0.693149V15.3069C0 15.6909 0.309147 16 0.69315 16H15.3069C15.6909 16 16 15.6909 16 15.3069V0.693149C16 0.309144 15.6909 0 15.3069 0ZM7.68129 9.86264V4.34712H7.46483C7.25123 4.34712 7.05737 4.26044 7.05737 4.04577V3.71047C7.05737 3.54348 7.18806 3.42822 7.40965 3.42822H8.19698C8.61863 3.42822 8.62778 3.84672 8.62778 4.16037V9.86052C8.62778 10.0025 8.59647 10.2277 8.26064 10.2277H8.03782C7.81873 10.2277 7.68129 10.1428 7.68129 9.86264ZM11.7011 5.62439C10.5665 5.62439 9.71472 6.12639 9.71472 7.85548V8.24099C9.71472 9.79482 10.5129 10.2893 11.5866 10.2893H12.0887C12.8595 10.2893 13.345 10.1072 13.345 9.87754V9.60548C13.345 9.45095 13.2459 9.33027 13.0845 9.33027C13.0012 9.33027 12.9156 9.34655 12.8083 9.36693C12.6284 9.40112 12.3876 9.44687 11.9952 9.44687C11.0594 9.44687 10.6801 9.33613 10.6801 8.28615H12.9227C13.2077 8.28615 13.5361 8.17295 13.5361 7.73153V7.52565C13.5361 6.28603 12.9117 5.62439 11.7011 5.62439ZM2.90822 11.3182C2.81555 11.3182 2.6207 11.3226 2.6207 11.5944V11.8638C2.6207 12.1942 3.11097 12.2515 3.83259 12.2515C4.98783 12.2515 5.23262 11.5487 5.30093 11.3526C5.30535 11.3399 5.30904 11.3293 5.31218 11.3212L6.45864 6.6843C6.45864 6.6843 6.56368 6.25409 6.56368 6.08406C6.56368 5.87295 6.45325 5.74792 6.23956 5.74792H5.97245C5.7375 5.74792 5.64062 5.88359 5.5973 6.06605L4.83499 9.36137C4.3604 9.36137 4.33149 9.24805 4.272 9.01494C4.26288 8.97918 4.25304 8.9406 4.24076 8.89919L3.55348 6.27314C3.42443 5.82796 3.36813 5.74792 3.1123 5.74792H2.89622C2.71577 5.74792 2.51807 5.80471 2.51807 6.09006C2.51807 6.24825 2.58409 6.48322 2.58409 6.48322L3.30138 9.05525C3.31622 9.10718 3.33015 9.16247 3.34454 9.2196C3.45282 9.64934 3.58745 10.1837 4.33379 10.1837H4.67293C4.65934 10.2461 4.64666 10.3058 4.63453 10.363C4.4851 11.0675 4.41856 11.3812 3.74256 11.3812C3.55518 11.3812 3.40443 11.3631 3.26448 11.3463C3.14322 11.3317 3.03007 11.3182 2.90822 11.3182Z" fill="#FF00FF"/>
</g>
<defs>
<clipPath id="clip0_2179_3822">
<rect width="16" height="16" fill="white"/>
</clipPath>
</defs>
</svg>
