<svg width="20" height="20" viewBox="0 0 20 20" fill="none" xmlns="http://www.w3.org/2000/svg">
<path fill-rule="evenodd" clip-rule="evenodd" d="M19.582 5.18595C19.352 4.3256 18.6744 3.64782 17.8139 3.41783C16.2542 3 9.99992 3 9.99992 3C9.99992 3 3.74581 3 2.18611 3.41783C1.3256 3.64782 0.647981 4.3256 0.417994 5.18595C0 6.74581 0 9.99988 0 9.99988C0 9.99988 0 13.2541 0.417994 14.8138C0.647981 15.6742 1.3256 16.3521 2.18611 16.5819C3.74581 16.9999 9.99992 16.9999 9.99992 16.9999C9.99992 16.9999 16.2542 16.9999 17.8139 16.5819C18.6744 16.3521 19.352 15.6742 19.582 14.8138C20 13.2541 20 9.99988 20 9.99988C20 9.99988 20 6.74581 19.582 5.18595Z" fill="#D9252A"/>
<path fill-rule="evenodd" clip-rule="evenodd" d="M7.99976 13L13.1956 10.0001L7.99976 6.99988V13Z" fill="#FFFFFE"/>
</svg>
