<svg width="20" height="20" viewBox="0 0 20 20" fill="none" xmlns="http://www.w3.org/2000/svg">
<path fill-rule="evenodd" clip-rule="evenodd" d="M17.8139 3.41783C18.6744 3.64782 19.352 4.3256 19.582 5.18595C20 6.74581 20 9.99988 20 9.99988C20 9.99988 20 13.2541 19.582 14.8138C19.352 15.6742 18.6744 16.3521 17.8139 16.5819C16.2542 16.9999 9.99992 16.9999 9.99992 16.9999C9.99992 16.9999 3.74581 16.9999 2.18611 16.5819C1.3256 16.3521 0.647981 15.6742 0.417994 14.8138C0 13.2541 0 9.99988 0 9.99988C0 9.99988 0 6.74581 0.417994 5.18595C0.647981 4.3256 1.3256 3.64782 2.18611 3.41783C3.74581 3 9.99992 3 9.99992 3C9.99992 3 16.2542 3 17.8139 3.41783ZM13.1956 10.0001L7.99973 12.9999V6.99987L13.1956 10.0001Z" fill="#FF00FF"/>
</svg>
