<svg width="16" height="16" viewBox="0 0 16 16" fill="none" xmlns="http://www.w3.org/2000/svg">
<path fill-rule="evenodd" clip-rule="evenodd" d="M15.6656 4.14878C15.4816 3.4605 14.9395 2.91828 14.2511 2.73429C13.0033 2.40002 7.99993 2.40002 7.99993 2.40002C7.99993 2.40002 2.99665 2.40002 1.74889 2.73429C1.06048 2.91828 0.518385 3.4605 0.334395 4.14878C0 5.39667 0 7.99993 0 7.99993C0 7.99993 0 10.6033 0.334395 11.8511C0.518385 12.5393 1.06048 13.0817 1.74889 13.2656C2.99665 13.6 7.99993 13.6 7.99993 13.6C7.99993 13.6 13.0033 13.6 14.2511 13.2656C14.9395 13.0817 15.4816 12.5393 15.6656 11.8511C16 10.6033 16 7.99993 16 7.99993C16 7.99993 16 5.39667 15.6656 4.14878Z" fill="#D9252A"/>
<path fill-rule="evenodd" clip-rule="evenodd" d="M6.3999 10.3999L10.5566 8.00002L6.3999 5.59985V10.3999Z" fill="#FFFFFE"/>
</svg>
