<svg width="20" height="20" viewBox="0 0 20 20" fill="none" xmlns="http://www.w3.org/2000/svg">
<path fill-rule="evenodd" clip-rule="evenodd" d="M10.2151 2.92989C10.706 2.91589 11.1381 3.64413 11.5178 4.95686C11.518 4.95753 11.3253 4.99457 11.3253 4.99457C10.9733 3.78554 10.5757 3.115 10.2207 3.12512C9.79979 3.13712 9.51559 4.08085 9.39911 5.55797C9.32988 5.58338 9.26109 5.60926 9.19274 5.63561C9.16946 5.61444 9.14035 5.58461 9.12949 5.57347L9.12947 5.57345L9.1269 5.57082C8.06082 4.48162 7.25405 3.97743 6.91479 4.18642C6.57262 4.3972 6.76264 5.28071 7.33506 6.52359C7.27726 6.55721 7.21998 6.59117 7.16324 6.62545C6.54176 5.26973 6.36396 4.29634 6.81235 4.02012C7.26582 3.74078 8.10158 4.25449 9.2145 5.38134C9.35305 3.88504 9.68638 2.94496 10.2151 2.92989ZM9.49424 10.2248L9.29399 10.2977L9.29401 10.2979L9.49435 10.225C9.52547 10.2706 9.55678 10.3163 9.5883 10.362C10.5704 11.7882 11.5542 13.0053 12.3984 13.861C12.3293 13.8858 12.2603 13.91 12.1913 13.9335L12.2338 13.9767C12.1228 15.5285 11.8106 16.4201 11.369 16.4317C10.9462 16.4428 10.531 15.6883 10.1863 14.4462C10.8413 14.3353 11.5149 14.1657 12.1928 13.935C11.3777 13.102 10.4556 11.9534 9.52044 10.6073C9.67335 12.1087 9.90651 13.4378 10.1862 14.4458C10.1205 14.457 10.055 14.4676 9.98973 14.4776C10.3661 15.8262 10.8422 16.6409 11.3741 16.6269C11.9526 16.6117 12.287 15.7175 12.4158 14.1576C13.4048 15.1208 14.2147 15.5784 14.6646 15.3026C15.1256 15.02 15.018 14.1835 14.459 12.921C17.2649 11.3253 18.8768 8.94373 18.2232 7.05018L18.2233 7.05014C17.3563 4.76564 13.4391 4.08996 9.44458 5.54384L9.39887 5.56057C9.30802 6.71501 9.31954 8.19484 9.44821 9.81015C9.45883 9.94346 9.47008 10.0757 9.48194 10.2068C9.48603 10.2128 9.49013 10.2188 9.49424 10.2248ZM14.4575 12.9177C14.4364 12.8702 14.4148 12.8222 14.3925 12.7735C14.37 12.7245 14.312 12.7029 14.263 12.7254C14.214 12.7479 14.1924 12.8059 14.2149 12.8549C14.24 12.9096 14.2642 12.9636 14.2876 13.0166C13.7229 13.326 13.1122 13.6036 12.464 13.8396L12.4 13.8627C13.387 14.8629 14.1831 15.3686 14.5625 15.1361C14.8964 14.9315 14.7978 14.1742 14.2862 13.0134C14.3438 12.9818 14.4009 12.9499 14.4575 12.9177ZM4.15944 9.4628C4.7745 8.43958 5.81946 7.44386 7.16501 6.6294C7.64139 7.66772 8.37762 8.92988 9.29185 10.2747C9.44231 11.9241 9.6829 13.3784 9.98977 14.4779C8.42025 14.7171 6.96826 14.6173 5.83814 14.2143L2.63264 15.381L2.71794 12.6687L0.90918 10.6458L4.15944 9.4628ZM9.193 5.63821C8.52932 5.89465 7.90746 6.19474 7.33677 6.52737C7.77545 7.47914 8.43802 8.64119 9.25732 9.87307L9.25351 9.82566C9.12691 8.23624 9.10665 6.79063 9.193 5.63821Z" fill="#FF00FF"/>
</svg>
