<svg width="16" height="16" viewBox="0 0 16 16" fill="none" xmlns="http://www.w3.org/2000/svg">
<path fill-rule="evenodd" clip-rule="evenodd" d="M2.18577 10.1475L0.727539 8.5166L5.19108 6.89201L5.88581 8.80076L2.18577 10.1475Z" fill="#F89920"/>
<path fill-rule="evenodd" clip-rule="evenodd" d="M2.17473 10.118L2.10596 12.3047L6.5695 10.6801L5.87477 8.77134L2.17473 10.118Z" fill="#FFBE22"/>
<path fill-rule="evenodd" clip-rule="evenodd" d="M14.5788 5.64014C15.2157 7.48533 13.1636 9.9098 9.97145 11.0716C6.77933 12.2335 3.64886 11.6953 2.95068 9.87244L14.5788 5.64014Z" fill="#F0670A"/>
<path fill-rule="evenodd" clip-rule="evenodd" d="M14.5789 5.64001C13.8852 3.81241 10.7514 3.27187 7.55586 4.43496C4.36028 5.59806 2.30711 8.0265 2.95053 9.87237L14.5789 5.64001Z" fill="#FFD00E"/>
<path fill-rule="evenodd" clip-rule="evenodd" d="M14.5781 5.64027C14.9751 6.87485 12.7473 8.79749 9.56494 9.95576C6.38263 11.114 3.44012 11.0733 2.95068 9.87231L14.5781 5.64027Z" fill="#F89920"/>
<path fill-rule="evenodd" clip-rule="evenodd" d="M14.5785 5.64014C14.0964 4.43347 11.1494 4.39071 7.96188 5.5509C4.77431 6.71108 2.5443 8.63808 2.95063 9.87233L14.5785 5.64014Z" fill="#FFBE22"/>
<path d="M9.21429 3.96549C8.91055 2.9153 8.56488 2.33271 8.17216 2.34391C7.41245 2.36557 7.15704 4.77414 7.40289 7.86053C7.65134 10.9796 8.29582 13.3227 9.09934 13.3015C9.57853 13.2889 9.84836 12.5224 9.94301 11.1915C9.94494 11.1643 9.91467 11.1832 9.91645 11.1555C9.91645 11.1555 9.91255 11.1069 9.89453 11.1057C9.86057 11.1035 9.79266 11.0991 9.79266 11.0991C9.70915 12.3913 9.45629 13.1358 9.09523 13.1453C8.43489 13.1627 7.79736 10.8449 7.55865 7.84812C7.32387 4.90076 7.57663 2.5172 8.17661 2.5001C8.46058 2.492 8.7787 3.02843 9.06033 3.99565C9.06033 3.99565 9.21444 3.96603 9.21429 3.96549Z" fill="#F0670A"/>
<path d="M5.44993 3.2161C4.80284 3.61471 5.78593 5.8283 7.54204 8.37826C9.31672 10.9552 11.0464 12.6621 11.7317 12.2421C12.1147 12.0073 12.0072 11.2947 11.514 10.2188C11.4961 10.1796 11.4497 10.1624 11.4105 10.1803C11.3712 10.1983 11.354 10.2447 11.372 10.2839C11.8305 11.2841 11.9291 11.9378 11.6501 12.1089C11.0869 12.4541 9.37582 10.7655 7.67072 8.28964C5.99372 5.85454 5.02084 3.66394 5.53188 3.34913C5.80329 3.18194 6.44871 3.5853 7.30157 4.45666C7.31106 4.46635 7.3657 4.52289 7.37782 4.52658C7.40425 4.53463 7.39091 4.47854 7.41205 4.45784C7.44289 4.42766 7.44342 4.3782 7.41324 4.34736C6.50213 3.41649 5.81834 2.98916 5.44993 3.2161Z" fill="#F0670A"/>
</svg>
