<svg width="16" height="16" viewBox="0 0 16 16" fill="none" xmlns="http://www.w3.org/2000/svg">
<path d="M8.1723 2.34391C8.56502 2.33271 8.9107 2.9153 9.21443 3.96549C9.21459 3.96603 9.06047 3.99565 9.06047 3.99565C8.77884 3.02843 8.46073 2.492 8.17675 2.5001C7.84003 2.5097 7.61267 3.26468 7.51948 4.44639C7.4641 4.46671 7.40907 4.48742 7.3544 4.50849C7.33578 4.49157 7.3125 4.46771 7.3038 4.45879L7.30172 4.45666C6.44885 3.5853 5.80343 3.18194 5.53203 3.34913C5.25829 3.51776 5.41031 4.22458 5.86825 5.21888C5.82201 5.24578 5.77619 5.27295 5.73079 5.30037C5.23361 4.21579 5.09136 3.43707 5.45007 3.2161C5.81285 2.99262 6.48146 3.40359 7.3718 4.30507C7.48264 3.10803 7.7493 2.35597 8.1723 2.34391Z" fill="#FF00FF"/>
<path fill-rule="evenodd" clip-rule="evenodd" d="M7.59559 8.17985C7.62048 8.21634 7.64562 8.25303 7.67084 8.28964C8.45656 9.43055 9.24354 10.4043 9.91889 11.0888C9.86365 11.1087 9.80843 11.128 9.75325 11.1468L9.78721 11.1814C9.69842 12.4228 9.4487 13.136 9.09538 13.1453C8.75718 13.1542 8.42497 12.5506 8.14926 11.557C8.6732 11.4682 9.21214 11.3326 9.75443 11.148C9.10233 10.4816 8.36469 9.56269 7.61655 8.48582C7.73887 9.68699 7.92552 10.7506 8.14926 11.557C8.09672 11.5659 8.04421 11.5741 7.99198 11.5821C8.29309 12.661 8.67399 13.3127 9.09948 13.3015C9.56228 13.2894 9.82979 12.574 9.93282 11.3261C10.724 12.0967 11.372 12.4627 11.7319 12.2421C12.1007 12.016 12.0146 11.3468 11.5674 10.3368C13.8121 9.06025 15.1016 7.15498 14.5788 5.64015C13.8851 3.81255 10.7514 3.27197 7.55586 4.43507L7.51929 4.44845C7.44661 5.37201 7.45583 6.55587 7.55876 7.84812C7.56726 7.95477 7.57626 8.06055 7.58575 8.16541C7.58902 8.17022 7.59231 8.17503 7.59559 8.17985ZM11.5662 10.3341C11.5493 10.2962 11.532 10.2577 11.5142 10.2188C11.4962 10.1796 11.4498 10.1624 11.4106 10.1803C11.3714 10.1983 11.3541 10.2447 11.3721 10.2839C11.3922 10.3277 11.4116 10.3708 11.4303 10.4133C10.9785 10.6608 10.49 10.8829 9.97137 11.0716L9.92018 11.0901C10.7098 11.8903 11.3467 12.2949 11.6502 12.1089C11.9173 11.9452 11.8384 11.3394 11.4292 10.4107C11.4752 10.3855 11.5209 10.3599 11.5662 10.3341Z" fill="#FF00FF"/>
<path d="M3.32775 7.57024C3.8198 6.75166 4.65577 5.95509 5.73221 5.30352C6.11331 6.13418 6.70229 7.14391 7.43368 8.21974C7.55404 9.5393 7.74648 10.7025 7.99198 11.5821C6.73636 11.7735 5.5748 11.6938 4.67071 11.3714L2.10631 12.3048L2.17455 10.135L0.727539 8.51664L3.32775 7.57024Z" fill="#FF00FF"/>
<path d="M7.3546 4.51057C6.82365 4.71572 6.32617 4.95579 5.86961 5.2219C6.22056 5.98331 6.75061 6.91295 7.40605 7.89846L7.40301 7.86053C7.30172 6.58899 7.28551 5.4325 7.3546 4.51057Z" fill="#FF00FF"/>
</svg>
