<svg width="20" height="20" viewBox="0 0 20 20" fill="none" xmlns="http://www.w3.org/2000/svg">
<path fill-rule="evenodd" clip-rule="evenodd" d="M2.73221 12.6844L0.909424 10.6458L6.48885 8.61507L7.35726 11.001L2.73221 12.6844Z" fill="#F89920"/>
<path fill-rule="evenodd" clip-rule="evenodd" d="M2.71878 12.6477L2.63281 15.381L8.21224 13.3502L7.34383 10.9643L2.71878 12.6477Z" fill="#FFBE22"/>
<path fill-rule="evenodd" clip-rule="evenodd" d="M18.2234 7.05017C19.0195 9.35666 16.4543 12.3873 12.4642 13.8395C8.47404 15.2918 4.56095 14.6191 3.68823 12.3405L18.2234 7.05017Z" fill="#F0670A"/>
<path fill-rule="evenodd" clip-rule="evenodd" d="M18.2234 7.05013C17.3564 4.76563 13.4392 4.08995 9.44471 5.54383C5.45022 6.9977 2.88377 10.0332 3.68804 12.3406L18.2234 7.05013Z" fill="#FFD00E"/>
<path fill-rule="evenodd" clip-rule="evenodd" d="M18.223 7.05034C18.7193 8.59357 15.9344 10.9969 11.9565 12.4447C7.97865 13.8925 4.30052 13.8416 3.68872 12.3404L18.223 7.05034Z" fill="#F89920"/>
<path fill-rule="evenodd" clip-rule="evenodd" d="M18.2232 7.05027C17.6206 5.54193 13.9369 5.48849 9.95247 6.93871C5.968 8.38894 3.1805 10.7977 3.68841 12.3405L18.2232 7.05027Z" fill="#FFBE22"/>
<path d="M11.5179 4.95686C11.1382 3.64413 10.7061 2.91589 10.2152 2.92989C9.26557 2.95697 8.9463 5.96768 9.25361 9.82566C9.56418 13.7245 10.3698 16.6533 11.3742 16.6269C11.9732 16.6112 12.3104 15.653 12.4288 13.9894C12.4312 13.9554 12.3933 13.979 12.3956 13.9444C12.3956 13.9444 12.3907 13.8836 12.3682 13.8821C12.3257 13.8794 12.2408 13.8739 12.2408 13.8739C12.1364 15.4891 11.8204 16.4198 11.369 16.4317C10.5436 16.4534 9.7467 13.5561 9.44831 9.81015C9.15484 6.12596 9.47079 3.14651 10.2208 3.12512C10.5757 3.115 10.9734 3.78554 11.3254 4.99457C11.3254 4.99457 11.5181 4.95753 11.5179 4.95686Z" fill="#F0670A"/>
<path d="M6.81242 4.02012C6.00355 4.51839 7.23241 7.28538 9.42754 10.4728C11.6459 13.694 13.808 15.8277 14.6646 15.3026C15.1434 15.0092 15.009 14.1183 14.3926 12.7735C14.3701 12.7245 14.3121 12.7029 14.2631 12.7254C14.2141 12.7479 14.1925 12.8059 14.215 12.8549C14.7881 14.1052 14.9114 14.9223 14.5626 15.1361C13.8586 15.5676 11.7198 13.4569 9.5884 10.362C7.49215 7.31818 6.27605 4.57992 6.91485 4.18642C7.25411 3.97743 8.06089 4.48162 9.12697 5.57082C9.13883 5.58294 9.20712 5.65361 9.22227 5.65822C9.25532 5.66828 9.23864 5.59817 9.26507 5.5723C9.30361 5.53458 9.30427 5.47275 9.26655 5.43421C8.12766 4.27061 7.27292 3.73645 6.81242 4.02012Z" fill="#F0670A"/>
</svg>
