<svg width="16" height="16" viewBox="0 0 16 16" fill="none" xmlns="http://www.w3.org/2000/svg">
<path opacity="0.4" fill-rule="evenodd" clip-rule="evenodd" d="M1.75 4C1.75 3.58579 2.08579 3.25 2.5 3.25H5.5C5.91421 3.25 6.25 3.58579 6.25 4C6.25 4.41421 5.91421 4.75 5.5 4.75H2.5C2.08579 4.75 1.75 4.41421 1.75 4ZM1.75 12C1.75 11.5858 2.08579 11.25 2.5 11.25H13.5C13.9142 11.25 14.25 11.5858 14.25 12C14.25 12.4142 13.9142 12.75 13.5 12.75H2.5C2.08579 12.75 1.75 12.4142 1.75 12ZM2.5 7.25C2.08579 7.25 1.75 7.58579 1.75 8C1.75 8.41421 2.08579 8.75 2.5 8.75H9.5C9.91421 8.75 10.25 8.41421 10.25 8C10.25 7.58579 9.91421 7.25 9.5 7.25H2.5Z" fill="#FF00FF"/>
<path fill-rule="evenodd" clip-rule="evenodd" d="M12 0.75C12.4142 0.75 12.75 1.08579 12.75 1.5V3.25H14.5C14.9142 3.25 15.25 3.58579 15.25 4C15.25 4.41421 14.9142 4.75 14.5 4.75H12.75V6.5C12.75 6.91421 12.4142 7.25 12 7.25C11.5858 7.25 11.25 6.91421 11.25 6.5V4.75H9.5C9.08579 4.75 8.75 4.41421 8.75 4C8.75 3.58579 9.08579 3.25 9.5 3.25H11.25V1.5C11.25 1.08579 11.5858 0.75 12 0.75Z" fill="#FF00FF"/>
</svg>
