<svg width="16" height="16" viewBox="0 0 16 16" fill="none" xmlns="http://www.w3.org/2000/svg">
<path fill-rule="evenodd" clip-rule="evenodd" d="M1.75 5.5C1.75 4.25736 2.75736 3.25 4 3.25H5C5.41421 3.25 5.75 3.58579 5.75 4C5.75 4.41421 5.41421 4.75 5 4.75H4C3.58579 4.75 3.25 5.08579 3.25 5.5V12C3.25 12.4142 3.58579 12.75 4 12.75H10.5C10.9142 12.75 11.25 12.4142 11.25 12V11C11.25 10.5858 11.5858 10.25 12 10.25C12.4142 10.25 12.75 10.5858 12.75 11V12C12.75 13.2426 11.7426 14.25 10.5 14.25H4C2.75736 14.25 1.75 13.2426 1.75 12V5.5Z" fill="#FF00FF"/>
<path fill-rule="evenodd" clip-rule="evenodd" d="M11 1.75C11.4142 1.75 11.75 2.08579 11.75 2.5V4.25H13.5C13.9142 4.25 14.25 4.58579 14.25 5C14.25 5.41421 13.9142 5.75 13.5 5.75H11.75V7.5C11.75 7.91421 11.4142 8.25 11 8.25C10.5858 8.25 10.25 7.91421 10.25 7.5V5.75H8.5C8.08579 5.75 7.75 5.41421 7.75 5C7.75 4.58579 8.08579 4.25 8.5 4.25H10.25V2.5C10.25 2.08579 10.5858 1.75 11 1.75Z" fill="#FF00FF"/>
</svg>
