<svg width="16" height="16" viewBox="0 0 16 16" fill="none" xmlns="http://www.w3.org/2000/svg">
<path d="M3.47917 1.17499H12.5208C13.8917 1.17499 15 2.28332 15 3.65415V12.3458C15 13.7167 13.8917 14.825 12.5208 14.825H3.47917C2.10833 14.825 1 13.7167 1 12.3458V3.65415C1 2.28332 2.10833 1.17499 3.47917 1.17499Z" fill="#001E36"/>
<path d="M8.35003 10.8233H4.65169C4.58753 10.8233 4.55836 10.7883 4.55836 10.7183V4.75664C4.55253 4.71581 4.58169 4.68081 4.62253 4.67497C4.62836 4.67497 4.63419 4.67497 4.64586 4.67497H5.78919C5.81836 4.66914 5.85336 4.69247 5.85336 4.72164C5.85336 4.72747 5.85336 4.73331 5.85336 4.73914V9.63914H8.54836C8.60669 9.63914 8.62419 9.66831 8.61253 9.72081L8.44336 10.7358C8.44336 10.765 8.42586 10.7883 8.40836 10.8058C8.39086 10.8175 8.37336 10.8233 8.35003 10.8233Z" fill="#31A8FF"/>
<path d="M9.2833 6.1567H10.3041C10.3625 6.1567 10.4091 6.19753 10.4266 6.25003C10.45 6.29087 10.4675 6.33753 10.4733 6.3842C10.485 6.44253 10.4966 6.5067 10.5025 6.56503C10.5083 6.6292 10.5141 6.6992 10.5141 6.77503C10.6891 6.57087 10.8991 6.4017 11.1383 6.27337C11.4066 6.12753 11.7041 6.05753 12.0075 6.06337C12.0483 6.05753 12.0833 6.0867 12.0891 6.12753C12.0891 6.13337 12.0891 6.1392 12.0891 6.15087V7.28837C12.0891 7.33503 12.06 7.35253 11.9958 7.35253C11.6166 7.3292 11.2375 7.3992 10.8933 7.55087C10.7766 7.60337 10.6658 7.67337 10.5783 7.7667V10.7417C10.5783 10.8 10.555 10.8234 10.5025 10.8234H9.36497C9.3183 10.8292 9.27747 10.8 9.27164 10.7534C9.27164 10.7475 9.27164 10.7359 9.27164 10.73V7.49837C9.27164 7.35837 9.27164 7.21253 9.2658 7.06087C9.25997 6.9092 9.25997 6.75753 9.25414 6.60587C9.2483 6.47753 9.23664 6.3492 9.21914 6.22087C9.2133 6.1917 9.2308 6.16253 9.25997 6.1567C9.2658 6.15087 9.27164 6.15087 9.2833 6.1567Z" fill="#31A8FF"/>
</svg>
