<svg width="16" height="16" viewBox="0 0 16 16" fill="none" xmlns="http://www.w3.org/2000/svg">
<path d="M12.5208 1.17499H3.47917C2.10996 1.17499 1 2.28495 1 3.65415V12.3458C1 13.715 2.10996 14.825 3.47917 14.825H12.5208C13.89 14.825 15 13.715 15 12.3458V3.65415C15 2.28495 13.89 1.17499 12.5208 1.17499Z" fill="#00005B"/>
<path d="M6.62419 9.34165H4.45469L4.01329 10.7155C4.00728 10.7405 3.99274 10.7626 3.97216 10.778C3.95159 10.7934 3.92627 10.8012 3.90058 10.8H2.80176C2.7391 10.8 2.71719 10.7655 2.73602 10.6967L4.61437 5.30942C4.63314 5.25309 4.65193 5.198 4.67071 5.12594C4.6953 5.00064 4.70788 4.87328 4.70827 4.74559C4.707 4.73666 4.70782 4.72756 4.71068 4.719C4.71353 4.71045 4.71834 4.70267 4.72472 4.69629C4.73109 4.68991 4.73887 4.68511 4.74742 4.68225C4.75598 4.67939 4.76508 4.67857 4.77401 4.67984H6.2673C6.31102 4.67984 6.33607 4.6955 6.34244 4.72681L8.47434 10.7061C8.49311 10.7687 8.47433 10.8 8.418 10.8H7.19707C7.1761 10.8023 7.155 10.7969 7.13772 10.7848C7.12044 10.7727 7.10815 10.7547 7.10316 10.7342L6.62419 9.34165ZM4.79281 8.18328H6.2767C6.23913 8.05811 6.19529 7.91723 6.14519 7.76065C6.095 7.60422 6.04179 7.43674 5.98554 7.25819C5.9292 7.07976 5.87285 6.90132 5.81649 6.72287C5.76015 6.54444 5.7085 6.37226 5.66152 6.20633C5.61458 6.04051 5.57232 5.88868 5.53474 5.75084H5.52534C5.4725 6.00449 5.40667 6.25526 5.32812 6.50217C5.24037 6.78392 5.15115 7.07193 5.06047 7.3662C4.96964 7.66057 4.88042 7.93293 4.79281 8.18328Z" fill="#9999FF"/>
<path d="M11.9306 8.80698H10.0805C10.1031 8.99004 10.1639 9.16632 10.2589 9.32443C10.3639 9.48099 10.5125 9.60342 10.6862 9.67661C10.9217 9.7785 11.1764 9.82842 11.4329 9.82295C11.6364 9.81905 11.8391 9.79679 12.0386 9.75645C12.2171 9.73236 12.3919 9.68677 12.5594 9.62068C12.5907 9.59574 12.6064 9.61129 12.6064 9.66765V10.5599C12.608 10.5842 12.6031 10.6085 12.5923 10.6303C12.5816 10.6474 12.5671 10.6618 12.55 10.6725C12.3643 10.7548 12.1687 10.8131 11.9682 10.8459C11.6958 10.8971 11.4189 10.9207 11.1417 10.9163C10.6971 10.9163 10.3245 10.8474 10.0241 10.7097C9.7401 10.5846 9.48925 10.3948 9.29158 10.1556C9.10692 9.93016 8.96957 9.66984 8.88771 9.39017C8.80667 9.11413 8.76556 8.82791 8.76564 8.54022C8.76477 8.22609 8.81391 7.91383 8.91121 7.61515C9.00492 7.32379 9.15311 7.05289 9.34792 6.81685C9.54006 6.58357 9.78034 6.39455 10.0523 6.26274C10.3277 6.12817 10.6534 6.0799 11.029 6.0799C11.3406 6.07203 11.65 6.13295 11.9353 6.25833C12.1752 6.36065 12.3864 6.52016 12.5505 6.72293C12.7043 6.92149 12.822 7.14563 12.898 7.38505C12.972 7.61577 13.01 7.85652 13.0107 8.09882C13.0107 8.23661 13.006 8.36183 12.9966 8.47448C12.9872 8.58718 12.9794 8.66857 12.9731 8.71867C12.9707 8.73937 12.9607 8.75846 12.9451 8.77231C12.9295 8.78616 12.9094 8.79381 12.8886 8.7938C12.851 8.7938 12.7868 8.7985 12.696 8.80789C12.6052 8.81727 12.4925 8.82353 12.358 8.82667C12.2232 8.82989 12.0809 8.80698 11.9306 8.80698ZM10.0805 7.95143H11.3108C11.461 7.95143 11.5722 7.94986 11.6442 7.94673C11.6923 7.94192 11.7389 7.9265 11.7804 7.90159V7.84523C11.7785 7.77178 11.7658 7.69901 11.7428 7.62923C11.6921 7.469 11.5903 7.32985 11.4528 7.23314C11.3154 7.13642 11.15 7.08751 10.9821 7.09391C10.824 7.08435 10.6666 7.121 10.529 7.19938C10.3914 7.27776 10.2796 7.39448 10.2073 7.53531C10.1429 7.6663 10.1001 7.80681 10.0805 7.95143Z" fill="#9999FF"/>
</svg>
