<svg width="16" height="16" viewBox="0 0 16 16" fill="none" xmlns="http://www.w3.org/2000/svg">
<path d="M8.19833 11.15L6.565 7.9825L8.105 5.025C8.13417 4.9725 8.11667 4.9375 8.07 4.9375H7.13083C7.07322 4.9375 7.05544 4.96596 7.0269 5.01163L7.02583 5.01333C6.92925 5.22075 6.83138 5.42902 6.73327 5.6378C6.46993 6.19821 6.20483 6.76235 5.95833 7.32333H5.94667C5.6893 6.74856 5.41933 6.18325 5.14833 5.6158C5.0508 5.41157 4.95309 5.20699 4.85583 5.00167C4.83833 4.94917 4.80917 4.9375 4.75083 4.9375H3.7475C3.70667 4.9375 3.67167 4.97833 3.70667 5.025L5.2525 8.08167L3.65417 11.1558C3.625 11.1908 3.63083 11.2375 3.68917 11.2375H4.6575C4.70417 11.2375 4.73333 11.22 4.7625 11.1733C5.13583 10.4033 5.52083 9.55167 5.87083 8.77H5.8825C6.27333 9.59833 6.6525 10.3975 7.02583 11.1675C7.055 11.2258 7.08417 11.2433 7.14833 11.2433H8.16333C8.21 11.2433 8.2275 11.1967 8.19833 11.15Z" fill="#FF00FF"/>
<path fill-rule="evenodd" clip-rule="evenodd" d="M8.55417 8.9275C8.55417 7.56833 9.42917 6.50667 10.8642 6.50667C10.9867 6.50667 11.0508 6.50667 11.1675 6.51833V5.00167C11.1675 4.96667 11.1967 4.94333 11.2258 4.94333H12.165C12.2117 4.94333 12.2233 4.96083 12.2233 4.99V10.3217C12.2233 10.4792 12.2233 10.6775 12.2525 10.8933C12.2525 10.9342 12.2525 10.94 12.2175 10.9575C11.7275 11.1908 11.2142 11.2958 10.7242 11.2958C9.45833 11.2958 8.55417 10.5142 8.55417 8.9275ZM11.1675 7.43417C11.08 7.39333 10.9692 7.37583 10.8292 7.37583C10.0942 7.37583 9.60417 7.94167 9.60417 8.88083C9.60417 9.95417 10.1058 10.3858 10.7592 10.3858C10.8992 10.3858 11.0508 10.3683 11.1617 10.3217V7.43417H11.1675Z" fill="#FF00FF"/>
<path fill-rule="evenodd" clip-rule="evenodd" d="M1 15V1H15V15H1ZM1.7 1.7H14.3V14.3H1.7V1.7Z" fill="#FF00FF"/>
</svg>
