<svg width="16" height="16" viewBox="0 0 16 16" fill="none" xmlns="http://www.w3.org/2000/svg">
<path d="M3.47917 1.17499H12.5208C13.8917 1.17499 15 2.28332 15 3.65415V12.3458C15 13.7167 13.8917 14.825 12.5208 14.825H3.47917C2.10833 14.825 1 13.7167 1 12.3458V3.65415C1 2.28332 2.10833 1.17499 3.47917 1.17499Z" fill="#00005B"/>
<path d="M4.32495 10.7475V4.74504C4.32495 4.70421 4.34245 4.68087 4.38328 4.68087C4.48245 4.68087 4.57578 4.68087 4.70995 4.67504C4.84995 4.66921 4.99578 4.66921 5.15328 4.66337C5.31078 4.65754 5.47995 4.65754 5.66078 4.65171C5.84162 4.64587 6.01662 4.64587 6.19162 4.64587C6.66995 4.64587 7.06662 4.70421 7.39328 4.82671C7.68495 4.92587 7.95328 5.08921 8.17495 5.30504C8.36162 5.49171 8.50745 5.71921 8.60078 5.97004C8.68828 6.21504 8.73495 6.46587 8.73495 6.72837C8.73495 7.23004 8.61828 7.64421 8.38495 7.97087C8.15162 8.29754 7.82495 8.54254 7.44578 8.68254C7.04912 8.82837 6.61162 8.88087 6.13328 8.88087C5.99328 8.88087 5.89995 8.88087 5.84162 8.87504C5.78328 8.86921 5.70162 8.86921 5.59078 8.86921V10.7417C5.59662 10.7825 5.56745 10.8175 5.52662 10.8234C5.52078 10.8234 5.51495 10.8234 5.50328 10.8234H4.39495C4.34828 10.8234 4.32495 10.8 4.32495 10.7475ZM5.59662 5.80671V7.76671C5.67828 7.77254 5.75412 7.77837 5.82412 7.77837H6.13328C6.36078 7.77837 6.58828 7.74337 6.80412 7.67337C6.99078 7.62087 7.15412 7.51004 7.28245 7.36421C7.40495 7.21837 7.46328 7.02004 7.46328 6.76337C7.46912 6.58254 7.42245 6.40171 7.32912 6.24421C7.22995 6.09254 7.08995 5.97587 6.92078 5.91171C6.70495 5.82421 6.47162 5.78921 6.23245 5.79504C6.08078 5.79504 5.94662 5.79504 5.83578 5.80087C5.71912 5.79504 5.63745 5.80087 5.59662 5.80671Z" fill="#9999FF"/>
<path d="M9.55164 6.14501H10.5725C10.6308 6.14501 10.6775 6.18585 10.695 6.23835C10.7125 6.28502 10.7241 6.33168 10.73 6.38418C10.7416 6.44252 10.7533 6.50668 10.7591 6.56502C10.765 6.62918 10.7708 6.69918 10.7708 6.77501C10.9458 6.57085 11.1558 6.40168 11.395 6.27335C11.6633 6.12168 11.9725 6.04585 12.2816 6.04585C12.3225 6.04001 12.3575 6.06918 12.3633 6.11001C12.3633 6.11585 12.3633 6.12168 12.3633 6.13335V7.27085C12.3633 7.31751 12.3341 7.33501 12.27 7.33501C12.06 7.32918 11.8441 7.34668 11.64 7.39335C11.4708 7.42835 11.3075 7.48085 11.15 7.55085C11.0391 7.60335 10.9341 7.67335 10.8525 7.76668V10.7417C10.8525 10.8 10.8291 10.8233 10.7766 10.8233H9.62747C9.5808 10.8292 9.53997 10.8 9.53414 10.7533C9.53414 10.7475 9.53414 10.7358 9.53414 10.73V7.49835C9.53414 7.35835 9.53414 7.21251 9.5283 7.06085C9.52247 6.90918 9.52247 6.75751 9.51664 6.60585C9.51664 6.47168 9.50497 6.34335 9.49331 6.20918C9.48747 6.18002 9.50497 6.15085 9.53414 6.14501C9.53414 6.13918 9.54581 6.13918 9.55164 6.14501Z" fill="#9999FF"/>
</svg>
