<svg width="16" height="16" viewBox="0 0 16 16" fill="none" xmlns="http://www.w3.org/2000/svg">
<path d="M12.5208 1.17499H3.47917C2.10996 1.17499 1 2.28495 1 3.65415V12.3458C1 13.715 2.10996 14.825 3.47917 14.825H12.5208C13.89 14.825 15 13.715 15 12.3458V3.65415C15 2.28495 13.89 1.17499 12.5208 1.17499Z" fill="#49021F"/>
<path d="M6.08412 4.74597V10.7285C6.08412 10.7911 6.05596 10.8224 5.99962 10.8224H4.8632C4.81304 10.8224 4.788 10.7911 4.78809 10.7285V4.74597C4.78809 4.69592 4.81626 4.67087 4.8726 4.67083H6.00899C6.01919 4.66938 6.0296 4.67032 6.03937 4.67358C6.04915 4.67685 6.05803 4.68234 6.06532 4.68963C6.07261 4.69692 6.0781 4.7058 6.08137 4.71558C6.08463 4.72536 6.08557 4.73576 6.08412 4.74597Z" fill="#FF3366"/>
<path d="M9.44642 10.9163C9.01415 10.9228 8.58584 10.833 8.19263 10.6533C7.82633 10.4838 7.52013 10.207 7.31452 9.85969C7.10158 9.50603 6.99514 9.06306 6.9952 8.53077C6.99167 8.09973 7.10181 7.67537 7.31452 7.30046C7.53363 6.91858 7.85586 6.60612 8.2443 6.39886C8.65121 6.17346 9.1427 6.06076 9.71878 6.06076C9.75003 6.06076 9.79072 6.06233 9.84086 6.06546C9.8909 6.06868 9.95039 6.07338 10.0193 6.07955V4.22939C10.0193 4.18565 10.0381 4.16365 10.0757 4.16365H11.259C11.2667 4.16255 11.2745 4.16326 11.2818 4.1657C11.2891 4.16814 11.2958 4.17226 11.3013 4.17773C11.3067 4.1832 11.3109 4.18986 11.3133 4.19719C11.3158 4.20453 11.3165 4.21233 11.3154 4.21999V9.77047C11.3154 9.87701 11.3201 9.99284 11.3294 10.118C11.3388 10.2433 11.3467 10.356 11.3529 10.4561C11.3541 10.4756 11.3493 10.495 11.3393 10.5117C11.3292 10.5285 11.3143 10.5418 11.2966 10.55C10.9913 10.6773 10.6733 10.7717 10.348 10.8317C10.0506 10.8866 9.74887 10.9149 9.44642 10.9163ZM10.0193 9.75169V7.18777C9.96854 7.17402 9.91671 7.16459 9.86436 7.15958C9.80038 7.15315 9.73611 7.15002 9.67181 7.1502C9.44391 7.14793 9.21868 7.19941 9.01439 7.30046C8.81543 7.39937 8.64554 7.54823 8.52135 7.73248C8.39295 7.92031 8.32877 8.16762 8.32881 8.47442C8.32423 8.67915 8.35767 8.88295 8.42742 9.07549C8.48418 9.23062 8.5739 9.3716 8.6904 9.48872C8.80192 9.59647 8.93695 9.67685 9.08483 9.72352C9.24104 9.7741 9.40431 9.79946 9.5685 9.79864C9.65612 9.79864 9.73751 9.79551 9.81269 9.78926C9.88268 9.78398 9.95193 9.77139 10.0193 9.75169Z" fill="#FF3366"/>
</svg>
