<svg width="16" height="16" viewBox="0 0 16 16" fill="none" xmlns="http://www.w3.org/2000/svg">
<path d="M3.47917 1.17499H12.5208C13.8917 1.17499 15 2.28332 15 3.65415V12.3458C15 13.7167 13.8917 14.825 12.5208 14.825H3.47917C2.10833 14.825 1 13.7167 1 12.3458V3.65415C1 2.28332 2.10833 1.17499 3.47917 1.17499Z" fill="#001E36"/>
<path d="M4.1499 10.7475V4.74504C4.1499 4.70421 4.1674 4.68087 4.20824 4.68087C4.3074 4.68087 4.40074 4.68087 4.5349 4.67504C4.6749 4.66921 4.82074 4.66921 4.97824 4.66337C5.13574 4.65754 5.3049 4.65754 5.48574 4.65171C5.66657 4.64587 5.84157 4.64587 6.01657 4.64587C6.4949 4.64587 6.89157 4.70421 7.21824 4.82671C7.5099 4.92587 7.77824 5.08921 7.9999 5.30504C8.18657 5.49171 8.3324 5.71921 8.42574 5.97004C8.51324 6.21504 8.5599 6.46587 8.5599 6.72837C8.5599 7.23004 8.44324 7.64421 8.2099 7.97087C7.97657 8.29754 7.6499 8.54254 7.27074 8.68254C6.87407 8.82837 6.43657 8.88087 5.95824 8.88087C5.81824 8.88087 5.7249 8.88087 5.66657 8.87504C5.60824 8.86921 5.52657 8.86921 5.41574 8.86921V10.7417C5.42157 10.7825 5.3924 10.8175 5.35157 10.8234C5.34574 10.8234 5.3399 10.8234 5.32824 10.8234H4.2199C4.17324 10.8234 4.1499 10.8 4.1499 10.7475ZM5.42157 5.80671V7.76671C5.50324 7.77254 5.57907 7.77837 5.64907 7.77837H5.95824C6.18574 7.77837 6.41324 7.74337 6.62907 7.67337C6.81574 7.62087 6.97907 7.51004 7.1074 7.36421C7.2299 7.21837 7.28824 7.02004 7.28824 6.76337C7.29407 6.58254 7.2474 6.40171 7.15407 6.24421C7.0549 6.09254 6.9149 5.97587 6.74574 5.91171C6.5299 5.82421 6.29657 5.78921 6.0574 5.79504C5.90574 5.79504 5.77157 5.79504 5.66074 5.80087C5.54407 5.79504 5.4624 5.80087 5.42157 5.80671Z" fill="#31A8FF"/>
<path d="M12.1999 7.41086C12.0249 7.31753 11.8383 7.25336 11.6399 7.21253C11.4241 7.16586 11.2083 7.1367 10.9866 7.1367C10.8699 7.13086 10.7474 7.14836 10.6366 7.17753C10.5608 7.19503 10.4966 7.23586 10.4558 7.2942C10.4266 7.34086 10.4091 7.3992 10.4091 7.4517C10.4091 7.5042 10.4324 7.5567 10.4674 7.60336C10.5199 7.66753 10.5899 7.72003 10.6658 7.76086C10.7999 7.83086 10.9399 7.89503 11.0799 7.95336C11.3949 8.05836 11.6983 8.2042 11.9783 8.3792C12.1708 8.5017 12.3283 8.66503 12.4391 8.86336C12.5324 9.05003 12.5791 9.2542 12.5733 9.4642C12.5791 9.73836 12.4974 10.0125 12.3458 10.24C12.1824 10.4734 11.9549 10.6542 11.6924 10.7592C11.4066 10.8817 11.0566 10.9459 10.6366 10.9459C10.3683 10.9459 10.1058 10.9225 9.84326 10.87C9.63909 10.835 9.43493 10.7709 9.24826 10.6834C9.20743 10.66 9.17826 10.6192 9.18409 10.5725V9.55753C9.18409 9.54003 9.18993 9.5167 9.20743 9.50503C9.22493 9.49336 9.24243 9.4992 9.25993 9.51086C9.48743 9.64503 9.72659 9.73836 9.98326 9.7967C10.2049 9.85503 10.4383 9.8842 10.6716 9.8842C10.8933 9.8842 11.0508 9.85503 11.1558 9.80253C11.2491 9.7617 11.3133 9.66253 11.3133 9.55753C11.3133 9.47586 11.2666 9.40003 11.1733 9.3242C11.0799 9.24836 10.8874 9.16086 10.6016 9.05003C10.3041 8.94503 10.0299 8.80503 9.77326 8.63003C9.59243 8.5017 9.44076 8.33253 9.32993 8.1342C9.23659 7.94753 9.18993 7.74336 9.19576 7.5392C9.19576 7.28836 9.26576 7.0492 9.39409 6.83336C9.53993 6.60003 9.75576 6.41336 10.0066 6.2967C10.2808 6.1567 10.6249 6.09253 11.0391 6.09253C11.2783 6.09253 11.5233 6.11003 11.7624 6.14503C11.9374 6.16836 12.1066 6.21503 12.2641 6.2792C12.2874 6.28503 12.3108 6.30836 12.3224 6.3317C12.3283 6.35503 12.3341 6.37836 12.3341 6.4017V7.35253C12.3341 7.37586 12.3224 7.3992 12.3049 7.41086C12.2524 7.42253 12.2233 7.42253 12.1999 7.41086Z" fill="#31A8FF"/>
</svg>
