<svg width="16" height="16" viewBox="0 0 16 16" fill="none" xmlns="http://www.w3.org/2000/svg">
<path d="M3.47917 1.17499H12.5208C13.8917 1.17499 15 2.28332 15 3.65415V12.3458C15 13.7167 13.8917 14.825 12.5208 14.825H3.47917C2.10833 14.825 1 13.7167 1 12.3458V3.65415C1 2.28332 2.10833 1.17499 3.47917 1.17499Z" fill="#330000"/>
<path d="M7.78421 9.36502H5.61421L5.17088 10.7359C5.15921 10.7884 5.11255 10.8234 5.06005 10.8175H3.96338C3.89921 10.8175 3.88171 10.7825 3.89921 10.7125L5.77755 5.30502C5.79505 5.24669 5.81255 5.18252 5.83588 5.11252C5.85921 4.99002 5.87088 4.86169 5.87088 4.73336C5.86505 4.70419 5.88838 4.67502 5.91755 4.66919C5.92338 4.66919 5.92921 4.66919 5.93505 4.66919H7.42838C7.47505 4.66919 7.49838 4.68669 7.50421 4.71586L9.63338 10.7242C9.65088 10.7884 9.63338 10.8175 9.57505 10.8175H8.35588C8.31505 10.8234 8.27421 10.7942 8.26255 10.7534L7.78421 9.36502ZM5.95255 8.18086H7.43421C7.39921 8.05836 7.35255 7.91252 7.30005 7.76086C7.24755 7.60336 7.19505 7.43419 7.14255 7.25919C7.08421 7.07836 7.03171 6.90336 6.97338 6.72252C6.91505 6.54169 6.86255 6.37252 6.81588 6.20336C6.76921 6.04002 6.72838 5.88836 6.68755 5.74836H6.67588C6.62338 5.99919 6.55921 6.25002 6.47755 6.50086C6.39005 6.78086 6.30255 7.07252 6.20921 7.36419C6.12755 7.66169 6.04005 7.93586 5.95255 8.18086Z" fill="#FF9A00"/>
<path d="M10.9051 5.66662C10.7126 5.67245 10.5259 5.59662 10.3859 5.46245C10.2518 5.31662 10.1818 5.12412 10.1876 4.92579C10.1818 4.72745 10.2576 4.54079 10.3976 4.40662C10.5376 4.27245 10.7243 4.20245 10.9168 4.20245C11.1443 4.20245 11.3193 4.27245 11.4476 4.40662C11.5759 4.54662 11.6459 4.73329 11.6401 4.92579C11.6459 5.12412 11.5759 5.31662 11.4359 5.46245C11.3018 5.60245 11.1034 5.67829 10.9051 5.66662ZM10.2518 10.73V6.23829C10.2518 6.17995 10.2751 6.15662 10.3276 6.15662H11.4826C11.5351 6.15662 11.5584 6.18579 11.5584 6.23829V10.73C11.5584 10.7941 11.5351 10.8233 11.4826 10.8233H10.3393C10.2809 10.8233 10.2518 10.7883 10.2518 10.73Z" fill="#FF9A00"/>
</svg>
