<svg width="16" height="16" viewBox="0 0 16 16" fill="none" xmlns="http://www.w3.org/2000/svg">
<path d="M3.47917 1.17499H12.5208C13.8917 1.17499 15 2.28332 15 3.65415V12.3458C15 13.7167 13.8917 14.825 12.5208 14.825H3.47917C2.10833 14.825 1 13.7167 1 12.3458V3.65415C1 2.28332 2.10833 1.17499 3.47917 1.17499Z" fill="#000B1D"/>
<path d="M6.2033 10.9167C5.88246 10.9226 5.56163 10.8876 5.25246 10.8292C5.00746 10.7826 4.76246 10.7067 4.53496 10.6017C4.48246 10.5784 4.45913 10.5259 4.45913 10.4442V9.32422C4.45913 9.30672 4.46496 9.28338 4.48246 9.27172C4.49996 9.26005 4.5233 9.26588 4.5408 9.27755C4.8033 9.44088 5.0833 9.56338 5.37496 9.64505C5.65496 9.72672 5.94663 9.76755 6.2383 9.76755C6.59413 9.76755 6.8508 9.71505 7.00246 9.60422C7.14246 9.51672 7.22996 9.36505 7.22996 9.19588C7.22996 9.09672 7.20663 8.99755 7.15413 8.91005C7.08413 8.81088 6.99663 8.72338 6.89163 8.65922C6.7283 8.56005 6.5533 8.47255 6.37246 8.40838L5.89996 8.21005C5.5208 8.04672 5.21746 7.87172 5.00163 7.69088C4.8033 7.53338 4.65163 7.32922 4.5583 7.09588C4.47663 6.87422 4.4358 6.64672 4.4358 6.40755C4.42413 5.73088 4.8208 5.10672 5.43913 4.83255C5.77163 4.67505 6.1858 4.59338 6.68163 4.59338C6.96163 4.59338 7.24163 4.61088 7.52163 4.65172C7.73746 4.67505 7.94746 4.73922 8.1458 4.83255C8.18663 4.85588 8.2158 4.90255 8.20996 4.95505V6.01672C8.20996 6.03422 8.1983 6.04588 8.18663 6.05755C8.16913 6.07505 8.15163 6.06922 8.1283 6.05172C7.9183 5.94672 7.69663 5.86505 7.46913 5.81838C7.21246 5.76005 6.94996 5.73088 6.68746 5.73672C6.52996 5.73672 6.3783 5.74838 6.22663 5.78338C6.12163 5.80672 6.01663 5.84755 5.9233 5.90005C5.84746 5.94088 5.78913 6.00505 5.7483 6.08088C5.7133 6.15088 5.68996 6.22672 5.68996 6.30255C5.68996 6.39588 5.71913 6.49505 5.77163 6.57088C5.84746 6.67005 5.94663 6.74588 6.05163 6.80422C6.22663 6.90338 6.40746 6.99672 6.59413 7.07838L6.94413 7.21255C7.3583 7.38172 7.67913 7.56255 7.91246 7.75505C8.12246 7.91838 8.29163 8.13422 8.40246 8.37338C8.4958 8.60088 8.54246 8.84588 8.54246 9.09088C8.5483 9.44088 8.4433 9.77922 8.24496 10.0651C8.03496 10.3509 7.74913 10.5726 7.42246 10.7067C7.0958 10.8409 6.68163 10.9167 6.2033 10.9167Z" fill="white"/>
<path d="M11.7275 9.89V10.66C11.7275 10.73 11.7042 10.7708 11.6517 10.7825C11.5292 10.8233 11.4009 10.8525 11.2784 10.8758C11.1267 10.905 10.9809 10.9167 10.8292 10.9108C10.4209 10.9108 10.1 10.8058 9.87253 10.59C9.64503 10.3742 9.52253 10.0358 9.52253 9.56917V7.23H8.95669C8.90419 7.23 8.88086 7.20083 8.88086 7.14833L8.88669 6.22083C8.88669 6.16833 8.91586 6.145 8.96836 6.145H9.53419C9.54003 6.04 9.54003 5.92333 9.55169 5.78333C9.56336 5.64333 9.57503 5.50333 9.58669 5.36333C9.59836 5.22333 9.61586 5.10667 9.62753 5.01917C9.63336 5.00167 9.64503 4.98417 9.65669 4.96667C9.66836 4.94917 9.68586 4.9375 9.70336 4.93167L10.8234 4.79167C10.8409 4.78583 10.8525 4.78583 10.87 4.79167C10.8817 4.7975 10.8875 4.815 10.8875 4.85C10.8759 4.99583 10.8642 5.18833 10.8584 5.43917C10.8525 5.68417 10.8525 5.9175 10.8467 6.15083H11.675C11.71 6.15083 11.7334 6.17417 11.7334 6.22667L11.7275 7.17167C11.7334 7.20083 11.71 7.23 11.6809 7.23583H10.8525V9.26C10.8525 9.47 10.8759 9.6275 10.9459 9.715C11.0159 9.8025 11.15 9.84917 11.3425 9.84917C11.4009 9.84917 11.4534 9.84917 11.5 9.84333C11.5467 9.8375 11.5992 9.8375 11.6517 9.83167C11.6692 9.82583 11.6867 9.82583 11.7042 9.8375C11.7217 9.84333 11.7275 9.86083 11.7275 9.89Z" fill="white"/>
</svg>
