<svg width="16" height="16" viewBox="0 0 16 16" fill="none" xmlns="http://www.w3.org/2000/svg">
<path d="M1 1V15H15V1H1Z" fill="#FF2BC2"/>
<path d="M10.8291 7.37578C10.9691 7.37578 11.08 7.39328 11.1675 7.43412H11.1616V10.3216C11.0508 10.3683 10.8991 10.3858 10.7591 10.3858C10.1058 10.3858 9.60412 9.95412 9.60412 8.88078C9.60412 7.94162 10.0941 7.37578 10.8291 7.37578Z" fill="#2E001E"/>
<path fill-rule="evenodd" clip-rule="evenodd" d="M14.3 1.69995H1.69995V14.3H14.3V1.69995ZM6.56495 7.98245L8.19828 11.15C8.22745 11.1966 8.20995 11.2433 8.16329 11.2433H7.14828C7.08412 11.2433 7.05495 11.2258 7.02578 11.1675C6.65245 10.3975 6.27328 9.59828 5.88245 8.76995H5.87078C5.52078 9.55162 5.13578 10.4033 4.76245 11.1733C4.73328 11.22 4.70412 11.2375 4.65745 11.2375H3.68912C3.63078 11.2375 3.62495 11.1908 3.65412 11.1558L5.25245 8.08162L3.70662 5.02495C3.67162 4.97828 3.70662 4.93745 3.74745 4.93745H4.75078C4.80912 4.93745 4.83828 4.94912 4.85578 5.00162C4.95304 5.20694 5.05071 5.41144 5.14824 5.61567C5.41924 6.18313 5.68925 6.7485 5.94662 7.32329H5.95828C6.20478 6.76229 6.46986 6.1982 6.73321 5.63777C6.83132 5.42899 6.9292 5.2207 7.02578 5.01328L7.02685 5.01158C7.05539 4.96591 7.07317 4.93745 7.13078 4.93745H8.06995C8.11662 4.93745 8.13412 4.97245 8.10495 5.02495L6.56495 7.98245ZM10.8641 6.50662C9.42912 6.50662 8.55412 7.56828 8.55412 8.92745C8.55412 10.5141 9.45829 11.2958 10.7241 11.2958C11.2141 11.2958 11.7275 11.1908 12.2175 10.9575C12.2525 10.94 12.2525 10.9341 12.2525 10.8933C12.2233 10.6775 12.2233 10.4791 12.2233 10.3216V4.98995C12.2233 4.96078 12.2116 4.94328 12.165 4.94328H11.2258C11.1966 4.94328 11.1675 4.96662 11.1675 5.00162V6.51828C11.0508 6.50662 10.9866 6.50662 10.8641 6.50662Z" fill="#2E001E"/>
</svg>
