<svg width="16" height="16" viewBox="0 0 16 16" fill="none" xmlns="http://www.w3.org/2000/svg">
<path fill-rule="evenodd" clip-rule="evenodd" d="M13.6328 1C14.3874 1 15 1.61261 15 2.36719V13.6328C15 14.3874 14.3874 15 13.6328 15H2.36719C1.61261 15 1 14.3874 1 13.6328V2.36719C1 1.61261 1.61261 1 2.36719 1H13.6328ZM13.4277 13.9746C13.7281 13.9746 13.9723 13.7318 13.9746 13.432V9.8884H5.54946L7.90854 13.9746H13.4277ZM2.02539 11.0285V13.4277C2.02539 13.7295 2.27039 13.9746 2.57227 13.9746H7.37082L4.8634 9.63145L9.25467 2.02539H7.2233L2.02539 11.0285ZM6.63213 9.42246H8.68592L7.10381 6.68219L6.07637 8.46185C5.96166 8.66034 5.96166 8.90505 6.07637 9.10354C6.19094 9.30215 6.40285 9.42246 6.63213 9.42246ZM13.9746 2.56801C13.9723 2.26813 13.7281 2.02539 13.4277 2.02539H9.79239L7.3726 6.21648L9.22391 9.42246H13.9746V2.56801Z" fill="#FF00FF"/>
</svg>
