<svg width="16" height="16" viewBox="0 0 16 16" fill="none" xmlns="http://www.w3.org/2000/svg">
<path fill-rule="evenodd" clip-rule="evenodd" d="M13.6328 1C14.3874 1 15 1.61261 15 2.36719V13.6328C15 14.3874 14.3874 15 13.6328 15H2.36719C1.61261 15 1 14.3874 1 13.6328V2.36719C1 1.61261 1.61261 1 2.36719 1H13.6328ZM13.9746 13.4277V9.88789H7.46325L9.82356 13.9745L13.4387 13.9745C13.7355 13.9687 13.9746 13.7259 13.9746 13.4277ZM2.89027 13.9745H9.28571L6.08977 8.44128L2.89027 13.9745ZM2.0269 13.4683C2.04262 13.6835 2.1833 13.8644 2.37676 13.9385L6.65756 6.52686H4.62537L2.02539 11.0283L2.0269 13.4683ZM8.95403 6.77733C8.86256 6.62319 8.69317 6.51919 8.51612 6.51845H8.50997L7.49592 6.51819L7.4869 6.51834C7.30766 6.52059 7.13854 6.62574 7.0494 6.77857C6.86934 7.09055 6.50963 7.71451 6.50963 7.71451L6.50567 7.7214C6.41789 7.87778 6.41776 8.0762 6.50567 8.22979C6.50676 8.23195 7.04434 9.16244 7.04434 9.16244C7.04434 9.16244 7.04817 9.16926 7.05022 9.1726C7.14182 9.32673 7.31395 9.42114 7.491 9.42188L7.49219 9.42188C7.52398 9.42191 8.18618 9.42264 8.52036 9.42123C8.69973 9.419 8.86844 9.31928 8.95758 9.16644C9.01672 9.06409 9.07599 8.96182 9.13527 8.85955C9.258 8.6478 9.38072 8.43606 9.50214 8.22363C9.58991 8.06726 9.58649 7.87373 9.49872 7.72014L9.49407 7.71243L8.95676 6.78203L8.95403 6.77733ZM9.3486 9.42188L13.604 2.05446C13.8194 2.12789 13.9746 2.3321 13.9746 2.57226V9.42188H9.3486ZM13.0828 2.02539H7.22536L6.98637 2.43932L9.91503 7.50995L13.0828 2.02539ZM4.8943 6.0612H8.54032L6.71731 2.90498L4.8943 6.0612Z" fill="#FF00FF"/>
</svg>
