<svg width="16" height="16" viewBox="0 0 16 16" fill="none" xmlns="http://www.w3.org/2000/svg">
<path fill-rule="evenodd" clip-rule="evenodd" d="M15 2.36719C15 1.61261 14.3874 1 13.6328 1H2.36719C1.61261 1 1 1.61261 1 2.36719V13.6328C1 14.3874 1.61261 15 2.36719 15H13.6328C14.3874 15 15 14.3874 15 13.6328V2.36719Z" fill="#891B26"/>
<path fill-rule="evenodd" clip-rule="evenodd" d="M7.37326 13.9746L3.84865 7.87219L2.02563 11.0284V13.4277C2.02563 13.7295 2.27063 13.9746 2.57251 13.9746H7.37326ZM9.94343 13.9746H7.91125C7.91125 13.9746 5.27872 9.4152 4.39675 7.88984C4.2238 7.59072 4.2238 7.22207 4.39661 6.92291C4.71558 6.371 5.1338 5.64719 5.1338 5.64719L9.94343 13.9746ZM12.5136 13.9746H10.4814L5.43253 5.12989L6.41882 3.42241L12.5136 13.9746ZM13.9749 12.0548V13.4277C13.9749 13.7295 13.7299 13.9746 13.428 13.9746H13.0516L6.68775 2.95673L7.22574 2.02539H8.18208L13.9749 12.0548ZM13.428 2.02539H8.71994L13.9749 11.1234V2.57226C13.9749 2.27043 13.7299 2.02539 13.428 2.02539Z" fill="url(#paint0_radial_2179_3591)"/>
<defs>
<radialGradient id="paint0_radial_2179_3591" cx="0" cy="0" r="1" gradientUnits="userSpaceOnUse" gradientTransform="translate(11.1578 -0.220354) scale(14.195 14.1949)">
<stop stop-color="#FFAE71"/>
<stop offset="1" stop-color="#FF9350"/>
</radialGradient>
</defs>
</svg>
