<svg width="16" height="16" viewBox="0 0 16 16" fill="none" xmlns="http://www.w3.org/2000/svg">
<path fill-rule="evenodd" clip-rule="evenodd" d="M13.6328 1C14.3874 1 15 1.61261 15 2.36719V13.6328C15 14.3874 14.3874 15 13.6328 15H2.36719C1.61261 15 1 14.3874 1 13.6328V2.36719C1 1.61261 1.61261 1 2.36719 1H13.6328ZM3.84851 7.87219L7.37312 13.9746H2.57237C2.2705 13.9746 2.0255 13.7295 2.0255 13.4277V11.0284L3.84851 7.87219ZM7.91111 13.9746H9.9433L5.13367 5.64719L4.39647 6.92291C4.22366 7.22207 4.22366 7.59072 4.39661 7.88984C5.27858 9.4152 7.91111 13.9746 7.91111 13.9746ZM10.4813 13.9746H12.5135L6.41869 3.42241L5.43239 5.12989L10.4813 13.9746ZM13.9747 13.4277V12.0548L8.18195 2.02539H7.2256L6.68761 2.95673L13.0515 13.9746H13.4279C13.7297 13.9746 13.9747 13.7295 13.9747 13.4277ZM8.7198 2.02539H13.4279C13.7297 2.02539 13.9747 2.27043 13.9747 2.57226V11.1234L8.7198 2.02539Z" fill="#FF00FF"/>
</svg>
