<svg width="16" height="16" viewBox="0 0 16 16" fill="none" xmlns="http://www.w3.org/2000/svg">
<path fill-rule="evenodd" clip-rule="evenodd" d="M15 2.36719C15 1.61261 14.3874 1 13.6328 1H2.36719C1.61261 1 1 1.61261 1 2.36719V13.6328C1 14.3874 1.61261 15 2.36719 15H13.6328C14.3874 15 15 14.3874 15 13.6328V2.36719Z" fill="#4E3188"/>
<path fill-rule="evenodd" clip-rule="evenodd" d="M13.9746 9.88789V13.4277C13.9746 13.7259 13.7355 13.9687 13.4387 13.9745L9.82356 13.9745L7.46325 9.88789H13.9746ZM9.28571 13.9745H2.89027L6.08977 8.44128L9.28571 13.9745ZM2.37676 13.9385C2.1833 13.8644 2.04262 13.6835 2.0269 13.4683L2.02539 11.0283L4.62537 6.52686H6.65756L2.37676 13.9385ZM8.51612 6.51845C8.69317 6.51919 8.86256 6.62319 8.95403 6.77733C8.95499 6.77889 8.95676 6.78203 8.95676 6.78203L9.49407 7.71243C9.49407 7.71243 9.49721 7.71764 9.49872 7.72014C9.58649 7.87373 9.58991 8.06726 9.50214 8.22363C9.32208 8.53866 9.13915 8.85217 8.95758 9.16644C8.86844 9.31928 8.69973 9.419 8.52036 9.42123C8.17815 9.42267 7.49196 9.42188 7.491 9.42188C7.31395 9.42114 7.14182 9.32673 7.05022 9.1726C7.04817 9.16926 7.04434 9.16244 7.04434 9.16244C7.04434 9.16244 6.50676 8.23195 6.50567 8.22979C6.41776 8.0762 6.41789 7.87778 6.50567 7.7214C6.5069 7.7191 6.50963 7.71451 6.50963 7.71451C6.50963 7.71451 6.86934 7.09055 7.0494 6.77857C7.13854 6.62574 7.30766 6.52059 7.4869 6.51834C7.48991 6.51833 7.49592 6.51819 7.49592 6.51819L8.50997 6.51845H8.51612ZM13.604 2.05446L9.3486 9.42188H13.9746V2.57226C13.9746 2.3321 13.8194 2.12789 13.604 2.05446ZM7.22536 2.02539H13.0828L9.91503 7.50995L6.98637 2.43932L7.22536 2.02539ZM8.54032 6.0612H4.8943L6.71731 2.90498L8.54032 6.0612Z" fill="url(#paint0_radial_2179_3763)"/>
<defs>
<radialGradient id="paint0_radial_2179_3763" cx="0" cy="0" r="1" gradientUnits="userSpaceOnUse" gradientTransform="translate(11.1586 -0.220332) scale(14.1948 14.1948)">
<stop stop-color="#F9A6FF"/>
<stop offset="1" stop-color="#EA73FF"/>
</radialGradient>
</defs>
</svg>
