<svg width="16" height="16" viewBox="0 0 16 16" fill="none" xmlns="http://www.w3.org/2000/svg">
<path fill-rule="evenodd" clip-rule="evenodd" d="M15 2.36719C15 1.61261 14.3874 1 13.6328 1H2.36719C1.61261 1 1 1.61261 1 2.36719V13.6328C1 14.3874 1.61261 15 2.36719 15H13.6328C14.3874 15 15 14.3874 15 13.6328V2.36719Z" fill="#134881"/>
<path fill-rule="evenodd" clip-rule="evenodd" d="M13.9746 13.432C13.9723 13.7318 13.7281 13.9746 13.4277 13.9746H7.90854L5.54946 9.8884H13.9746V13.432ZM2.02539 13.4277V11.0285L7.2233 2.02539H9.25467L4.8634 9.63145L7.37082 13.9746H2.57227C2.27039 13.9746 2.02539 13.7295 2.02539 13.4277ZM8.68592 9.42246H6.63213C6.40285 9.42246 6.19094 9.30215 6.07637 9.10354C5.96166 8.90505 5.96166 8.66034 6.07637 8.46185C6.5326 7.67162 7.10381 6.68219 7.10381 6.68219L8.68592 9.42246ZM13.4277 2.02539C13.7281 2.02539 13.9723 2.26813 13.9746 2.56801V9.42246H9.22391L7.3726 6.21648L9.79239 2.02539H13.4277Z" fill="url(#paint0_radial_2179_3813)"/>
<defs>
<radialGradient id="paint0_radial_2179_3813" cx="0" cy="0" r="1" gradientUnits="userSpaceOnUse" gradientTransform="translate(11.1586 -0.220335) scale(14.195 14.1949)">
<stop stop-color="#6BE1FB"/>
<stop offset="1" stop-color="#38BDFA"/>
</radialGradient>
</defs>
</svg>
