<svg width="16" height="16" viewBox="0 0 16 16" fill="none" xmlns="http://www.w3.org/2000/svg">
<path fill-rule="evenodd" clip-rule="evenodd" d="M15 4.87992V5.38091H14.9944V11.1201C14.9944 11.2592 14.9944 11.404 14.9889 11.5431C14.9777 11.8493 14.9611 12.1555 14.9054 12.4616C14.8498 12.7678 14.7608 13.0573 14.6162 13.3356C14.4772 13.6139 14.2936 13.8644 14.0767 14.0815C13.8598 14.2986 13.6039 14.4823 13.3313 14.6215C13.0532 14.7662 12.764 14.8553 12.4581 14.9109C12.1577 14.9666 11.8462 14.9889 11.5403 14.9944C11.4013 15 11.2567 15 11.1176 15H4.87684C4.73778 15 4.59317 15 4.45411 14.9944C4.14819 14.9833 3.84227 14.9666 3.53635 14.9109C3.23043 14.8553 2.9412 14.7662 2.66309 14.6215C2.38498 14.4823 2.13468 14.2986 1.91776 14.0815C1.70083 13.8644 1.51728 13.6083 1.37823 13.3356C1.23361 13.0573 1.14462 12.7678 1.08899 12.4616C1.03337 12.161 1.01112 11.8493 1.00556 11.5431C1 11.404 1 11.2592 1 11.1201V4.87435C1 4.73519 1 4.59046 1.00556 4.45129C1.01669 4.14513 1.03337 3.83897 1.08899 3.5328C1.14462 3.22664 1.23361 2.93718 1.37823 2.65885C1.52284 2.38608 1.70083 2.13559 1.92332 1.91849C2.14025 1.69582 2.39054 1.51769 2.66865 1.37853C2.94676 1.2338 3.236 1.14473 3.54191 1.08907C3.84227 1.0334 4.15375 1.01113 4.45967 1.00557C4.59873 1 4.74335 1 4.8824 1H11.1232C11.2622 1 11.4068 1 11.5459 1.00557C11.8518 1.0167 12.1577 1.0334 12.4636 1.08907C12.7696 1.14473 13.0588 1.2338 13.3369 1.37853C13.615 1.51769 13.8653 1.70139 14.0822 1.91849C14.2992 2.13559 14.4827 2.39165 14.6218 2.66441C14.7664 2.94274 14.8554 3.23221 14.911 3.53837C14.9666 3.83897 14.9889 4.1507 14.9944 4.45686C15 4.596 15 4.74077 15 4.87992ZM10.9006 3.13754C11.1231 3.12084 11.2511 3.26557 11.2455 3.50493V10.1069C11.2455 10.285 11.2455 10.4465 11.2066 10.6246C11.1676 10.7972 11.1009 10.9586 11.0008 11.1033C10.9007 11.2481 10.7672 11.3705 10.617 11.4596C10.4668 11.5542 10.3055 11.6043 10.1331 11.6377C9.81047 11.7045 9.58798 11.7212 9.38218 11.6767C9.18194 11.6377 9.00952 11.5431 8.87602 11.4206C8.67022 11.2314 8.54785 10.9864 8.52004 10.7248C8.49223 10.4242 8.59235 10.0958 8.8204 9.85642C8.93721 9.73952 9.08182 9.64489 9.2765 9.56696C9.47674 9.48903 9.69923 9.43893 10.0441 9.37213C10.0886 9.36378 10.1345 9.35404 10.1804 9.34429C10.2262 9.33455 10.2721 9.32481 10.3166 9.31646C10.439 9.2942 10.5391 9.26079 10.6225 9.1606C10.706 9.0604 10.706 8.93793 10.706 8.81547V5.73157C10.706 5.49777 10.5947 5.43097 10.3722 5.47551C10.2109 5.50891 6.75127 6.20473 6.75127 6.20473C6.55659 6.24927 6.48985 6.3105 6.48985 6.55543V11.0699C6.48985 11.2481 6.48429 11.4095 6.44535 11.5876C6.40642 11.7602 6.33967 11.9216 6.23955 12.0664C6.13943 12.2111 6.00594 12.3336 5.85576 12.4226C5.70558 12.5117 5.54428 12.5674 5.37185 12.6008C5.04925 12.6676 4.82676 12.6843 4.62096 12.6397C4.42072 12.5952 4.24829 12.5006 4.1148 12.3781C3.91456 12.1888 3.79776 11.9439 3.76994 11.6823C3.73657 11.3817 3.83113 11.0532 4.05918 10.8139C4.17598 10.697 4.3206 10.6023 4.51528 10.5244C4.71551 10.4465 4.938 10.3964 5.28286 10.3296L5.5554 10.2739C5.67777 10.2516 5.77789 10.2183 5.86132 10.1181C5.94476 10.0179 5.95588 9.90096 5.95588 9.77849V4.56815C5.95588 4.50135 5.96144 4.45125 5.967 4.42899C5.98369 4.31765 6.02819 4.22302 6.10606 4.15622C6.1728 4.10056 6.25624 4.06159 6.36748 4.03932L10.528 3.19877C10.5669 3.1932 10.8671 3.14312 10.9006 3.13754Z" fill="#FF00FF"/>
</svg>
