<svg width="16" height="16" viewBox="0 0 16 16" fill="none" xmlns="http://www.w3.org/2000/svg">
<path fill-rule="evenodd" clip-rule="evenodd" d="M4.11453 1H11.8855C13.6056 1 15 2.39442 15 4.11453V11.8855C15 13.6056 13.6056 15 11.8855 15H4.11453C2.39442 15 1 13.6056 1 11.8855V4.11453C1 2.39442 2.39442 1 4.11453 1ZM6.89396 11.7147C7.0165 12.5658 7.09724 12.9119 7.28624 13.0946C7.31616 13.1342 7.34979 13.169 7.3882 13.1991C7.49086 13.2831 7.63086 13.3251 7.7382 13.3484C7.84553 13.3718 7.92487 13.3718 8.00887 13.3718C8.09287 13.3718 8.18153 13.3718 8.27953 13.3484C8.37753 13.3251 8.4802 13.2831 8.56887 13.2131C8.65753 13.1431 8.73687 13.0451 8.79753 12.8958C8.8582 12.7511 8.90487 12.5551 8.9702 12.1071C9.03553 11.6614 9.11953 10.9656 9.16153 10.491C9.20353 10.015 9.20353 9.76024 9.1942 9.57637C9.1802 9.39297 9.15687 9.28097 9.1102 9.1867C9.06353 9.09244 8.98887 9.01497 8.8862 8.9403C8.874 8.93161 8.8614 8.92295 8.84843 8.91435C8.63591 8.73506 8.31332 8.63773 7.91596 8.63934C7.33496 8.64168 6.91963 8.84561 6.76656 9.20494C6.6513 9.47608 6.69469 10.3319 6.89396 11.7147ZM3.08643 8.33134C3.42243 9.92828 4.34643 11.1285 5.78843 11.8379L5.81176 11.8551C6.06376 11.9765 6.30176 12.0791 6.33443 12.0791C6.38576 12.0791 6.39043 12.0185 6.36709 11.8085C6.32976 11.4631 6.28776 11.3931 6.09176 11.3091C6.00309 11.2718 5.78843 11.1505 5.61109 11.0338C4.70576 10.4505 4.01509 9.47048 3.74909 8.40181C3.64176 7.96314 3.64176 6.89448 3.74909 6.45581C4.15043 4.84114 5.46643 3.55781 7.05776 3.23114C7.51976 3.13781 8.35043 3.13781 8.80776 3.23114C10.3804 3.55781 11.6638 4.78048 12.0884 6.35314C12.2238 6.84781 12.2378 7.91648 12.1164 8.39714C11.9251 9.16714 11.5098 9.89981 10.9451 10.4598C10.6184 10.7874 10.0864 11.1663 9.77376 11.297C9.57776 11.3791 9.53576 11.451 9.49376 11.7963C9.47043 12.0115 9.4751 12.0647 9.52643 12.0647C9.66643 12.0647 10.5344 11.5971 10.8891 11.3292C11.8831 10.5797 12.5644 9.46441 12.7791 8.23988C12.8444 7.85254 12.8444 6.91361 12.7744 6.56921C12.5691 5.53461 12.1678 4.74921 11.4538 4.00721C10.5158 3.02394 9.28376 2.49801 7.92109 2.49801C6.54443 2.49801 5.30776 3.03374 4.34643 4.04734C3.67909 4.74921 3.27776 5.54301 3.06776 6.55801C2.98843 6.93601 3.00243 7.91928 3.08643 8.33134ZM4.71509 8.19134C4.89243 8.86521 5.32176 9.55214 5.80709 9.93948L5.82669 9.94601C5.97136 10.0627 6.10669 10.156 6.12536 10.156C6.1445 10.156 6.15989 9.99734 6.15989 9.80134V9.44668L5.9191 9.15734C5.00443 8.06068 5.06976 6.52208 6.07309 5.52808C6.48236 5.12301 6.94343 4.89248 7.53843 4.79541C7.93043 4.73101 8.00976 4.73101 8.3831 4.80008C8.96176 4.90601 9.40976 5.13561 9.7971 5.52668C10.7958 6.53094 10.8611 8.06161 9.94643 9.15734L9.70376 9.44668V9.79948C9.70376 9.99268 9.71776 10.1513 9.73176 10.1513C9.81576 10.1513 10.2918 9.73088 10.4878 9.48028C10.8844 8.98421 11.1084 8.45034 11.1971 7.80028C11.4211 6.18701 10.2684 4.56068 8.64443 4.19901C8.1731 4.09494 7.32376 4.12528 6.94109 4.26061C5.82109 4.65961 5.01376 5.50894 4.71976 6.60468C4.60776 7.01068 4.60776 7.78441 4.71509 8.19134ZM7.17869 7.88097C6.92255 7.67382 6.78606 7.37108 6.78243 7.00134C6.78243 6.57434 7.02043 6.20194 7.4311 5.98401C7.60236 5.8941 7.8598 5.86311 8.09046 5.8913C8.68856 5.9399 9.15878 6.44069 9.15878 7.0513C9.15878 7.69409 8.6377 8.21517 7.99492 8.21517C7.67695 8.21517 7.38875 8.08765 7.17869 7.88097Z" fill="#FF00FF"/>
</svg>
