<svg width="16" height="16" viewBox="0 0 16 16" fill="none" xmlns="http://www.w3.org/2000/svg">
<path d="M11.8855 1H4.11453C2.39442 1 1 2.39442 1 4.11453V11.8855C1 13.6056 2.39442 15 4.11453 15H11.8855C13.6056 15 15 13.6056 15 11.8855V4.11453C15 2.39442 13.6056 1 11.8855 1Z" fill="url(#paint0_linear_2179_3561)"/>
<path d="M7.28625 13.0947C7.09717 12.912 7.01643 12.566 6.89386 11.7147C6.6946 10.332 6.6512 9.47611 6.76646 9.20498C6.91953 8.84565 7.33486 8.64171 7.91586 8.63938C8.31313 8.63777 8.63568 8.73506 8.8482 8.91427C8.86122 8.9229 8.87388 8.93161 8.88612 8.94033C8.98879 9.015 9.06346 9.09246 9.11012 9.18673C9.15679 9.281 9.18012 9.393 9.19412 9.5764C9.20346 9.76026 9.20346 10.0151 9.16146 10.4911C9.11946 10.9657 9.03546 11.6615 8.97012 12.1071C8.90479 12.5551 8.85812 12.7511 8.79746 12.8958C8.73679 13.0451 8.65746 13.1431 8.56879 13.2131C8.48012 13.2831 8.37746 13.3251 8.27946 13.3485C8.18146 13.3718 8.09279 13.3718 8.00879 13.3718C7.92479 13.3718 7.84546 13.3718 7.73812 13.3485C7.63079 13.3251 7.49079 13.2831 7.38812 13.1991C7.34975 13.1691 7.31615 13.1343 7.28625 13.0947Z" fill="white"/>
<path d="M5.78833 11.8379C4.34633 11.1286 3.42233 9.92831 3.08633 8.33138C3.00233 7.91931 2.98833 6.93605 3.06766 6.55805C3.27766 5.54305 3.679 4.74925 4.34633 4.04738C5.30766 3.03378 6.54433 2.49805 7.921 2.49805C9.28366 2.49805 10.5157 3.02398 11.4537 4.00725C12.1677 4.74925 12.569 5.53465 12.7743 6.56925C12.8443 6.91365 12.8443 7.85258 12.779 8.23991C12.5643 9.46445 11.883 10.5798 10.889 11.3292C10.5343 11.5971 9.66633 12.0647 9.52633 12.0647C9.475 12.0647 9.47033 12.0115 9.49366 11.7964C9.53566 11.451 9.57767 11.3792 9.77366 11.297C10.0863 11.1664 10.6183 10.7874 10.945 10.4598C11.5097 9.89985 11.925 9.16718 12.1163 8.39718C12.2377 7.91651 12.2237 6.84785 12.0883 6.35318C11.6637 4.78051 10.3803 3.55785 8.80766 3.23118C8.35033 3.13785 7.51966 3.13785 7.05766 3.23118C5.46633 3.55785 4.15033 4.84118 3.749 6.45585C3.64166 6.89451 3.64166 7.96318 3.749 8.40185C4.015 9.47051 4.70566 10.4505 5.611 11.0338C5.78833 11.1505 6.003 11.2718 6.09166 11.3092C6.28766 11.3932 6.32966 11.4632 6.367 11.8085C6.39033 12.0185 6.38566 12.0792 6.33433 12.0792C6.30166 12.0792 6.06366 11.9765 5.81166 11.8552L5.78833 11.8379Z" fill="white"/>
<path d="M5.807 9.93951C5.32166 9.55218 4.89233 8.86525 4.715 8.19138C4.60766 7.78445 4.60766 7.01071 4.71966 6.60471C5.01366 5.50898 5.821 4.65965 6.941 4.26065C7.32366 4.12531 8.173 4.09498 8.64433 4.19905C10.2683 4.56071 11.421 6.18705 11.197 7.80031C11.1083 8.45038 10.8843 8.98425 10.4877 9.48031C10.2917 9.73091 9.81567 10.1514 9.73167 10.1514C9.71766 10.1514 9.70367 9.99271 9.70367 9.79951V9.44671L9.94633 9.15738C10.861 8.06165 10.7957 6.53098 9.797 5.52671C9.40966 5.13565 8.96166 4.90605 8.383 4.80011C8.00967 4.73105 7.93033 4.73105 7.53833 4.79545C6.94333 4.89251 6.48226 5.12305 6.073 5.52811C5.06966 6.52211 5.00433 8.06071 5.919 9.15738L6.1598 9.44671V9.80138C6.1598 9.99738 6.1444 10.156 6.12526 10.156C6.1066 10.156 5.97126 10.0627 5.8266 9.94605L5.807 9.93951Z" fill="white"/>
<path d="M6.78233 7.00138C6.78596 7.37126 6.92256 7.6741 7.17889 7.88125C7.38893 8.08777 7.67701 8.21517 7.99484 8.21517C8.63763 8.21517 9.15871 7.69409 9.15871 7.05131C9.15871 6.4404 8.68803 5.93943 8.08954 5.89124C7.85908 5.86322 7.60205 5.89424 7.431 5.98405C7.02033 6.20198 6.78233 6.57438 6.78233 7.00138Z" fill="white"/>
<defs>
<linearGradient id="paint0_linear_2179_3561" x1="7.98553" y1="15.1778" x2="7.867" y2="0.999999" gradientUnits="userSpaceOnUse">
<stop stop-color="#822CBE"/>
<stop offset="1" stop-color="#D772FB"/>
</linearGradient>
</defs>
</svg>
