<svg width="16" height="16" viewBox="0 0 16 16" fill="none" xmlns="http://www.w3.org/2000/svg">
<path d="M16 8.0007C16 10.9436 13.6143 13.3293 10.6714 13.3293C9.30439 13.3293 8.05766 12.8145 7.11442 11.9684C8.62552 11.2881 9.67755 9.76913 9.67755 8.00447C9.67755 6.23759 8.6229 4.71706 7.10876 4.03804C8.05274 3.18891 9.30168 2.67212 10.6714 2.67212C13.6143 2.67212 16 5.05777 16 8.0007Z" fill="#FF00FF"/>
<path d="M8.54131 3.74737C7.98279 3.32528 7.34657 3.01738 6.66901 2.84127C5.99145 2.66517 5.28582 2.6243 4.59246 2.72101C3.8991 2.81773 3.23159 3.05012 2.62808 3.40492C2.02456 3.75971 1.49688 4.22995 1.07518 4.78877C0.653485 5.34758 0.346037 5.98402 0.170407 6.66171C-0.00522229 7.33939 -0.0455898 8.04505 0.0516114 8.73834C0.148813 9.43163 0.381677 10.099 0.736898 10.7022C1.09212 11.3055 1.56273 11.8328 2.12185 12.2542C3.24993 13.1054 4.66997 13.4737 6.06959 13.278C7.46921 13.0822 8.73374 12.3385 9.58502 11.2104C10.4363 10.0824 10.8046 8.66232 10.6088 7.26271C10.4131 5.86309 9.66939 4.59864 8.54131 3.74737ZM7.94869 4.53255C8.86851 5.22667 9.47491 6.25774 9.63451 7.39896C9.79411 8.54018 9.49382 9.69806 8.79971 10.6179C8.10559 11.5377 7.07452 12.1441 5.9333 12.3037C4.79208 12.4633 3.6342 12.163 2.71438 11.4689C1.79457 10.7748 1.18816 9.7437 1.02857 8.60248C0.868969 7.46126 1.16926 6.30338 1.86337 5.38357C2.55748 4.46375 3.58856 3.85735 4.72978 3.69775C5.871 3.53815 7.02888 3.83844 7.94869 4.53255Z" fill="#FF00FF"/>
<path d="M5.47496 6.15706C5.46857 6.1728 5.38708 6.49276 5.29937 6.87232C5.20829 7.25188 5.06401 7.85097 4.9826 8.20545C4.82561 8.85471 4.7315 9.28133 4.7315 9.33781C4.7315 9.35339 4.82881 9.36609 4.94793 9.36609H5.16443L5.26157 8.93308C5.31814 8.69789 5.44365 8.15831 5.54399 7.73489C5.64441 7.31139 5.76664 6.79698 5.81378 6.5899C5.86075 6.38283 5.90781 6.19477 5.91732 6.1728C5.92674 6.1446 5.87329 6.13525 5.71024 6.13525C5.58785 6.13525 5.48111 6.1446 5.47496 6.15706ZM3.79039 7.51527L3.50183 7.829L3.5866 7.92934C3.63349 7.98575 3.76228 8.12699 3.87204 8.24307L4.07281 8.4563H4.6437L4.374 8.16454C4.22644 8.00788 4.10412 7.8572 4.10412 7.83843C4.10412 7.81646 4.21709 7.67538 4.35514 7.52478C4.49311 7.37116 4.60608 7.23925 4.60608 7.2236C4.60608 7.21105 4.48688 7.20162 4.3426 7.20162H4.08224L3.79039 7.51527ZM5.98618 7.2204C5.98618 7.22991 6.03955 7.28942 6.10529 7.35533C6.35016 7.59996 6.52264 7.80712 6.51322 7.84778C6.50699 7.86983 6.38771 8.01714 6.24351 8.17085L5.98323 8.4563H6.27482L6.56658 8.45318L6.8331 8.16151C6.98066 7.99853 7.09977 7.85401 7.09977 7.83523C7.09977 7.81966 6.97434 7.67218 6.81744 7.50601L6.53527 7.20162H6.2622C6.10849 7.20162 5.98618 7.21105 5.98618 7.2204Z" fill="#FF00FF"/>
</svg>
