<svg width="16" height="16" viewBox="0 0 16 16" fill="none" xmlns="http://www.w3.org/2000/svg">
<g clip-path="url(#clip0_2376_2673)">
<path fill-rule="evenodd" clip-rule="evenodd" d="M2.75 9.5C2.75 7.70507 4.20507 6.25 6 6.25H11.6893L9.46967 8.46967C9.17678 8.76256 9.17678 9.23744 9.46967 9.53033C9.76256 9.82322 10.2374 9.82322 10.5303 9.53033L14.0303 6.03033C14.3232 5.73744 14.3232 5.26256 14.0303 4.96967L10.5303 1.46967C10.2374 1.17678 9.76256 1.17678 9.46967 1.46967C9.17678 1.76256 9.17678 2.23744 9.46967 2.53033L11.6893 4.75H6C3.37665 4.75 1.25 6.87665 1.25 9.5C1.25 12.1234 3.37665 14.25 6 14.25H11C11.4142 14.25 11.75 13.9142 11.75 13.5C11.75 13.0858 11.4142 12.75 11 12.75H6C4.20507 12.75 2.75 11.2949 2.75 9.5Z" fill="#FF00FF"/>
</g>
<defs>
<clipPath id="clip0_2376_2673">
<rect width="16" height="16" fill="white"/>
</clipPath>
</defs>
</svg>
