<svg width="16" height="16" viewBox="0 0 16 16" fill="none" xmlns="http://www.w3.org/2000/svg">
<path fill-rule="evenodd" clip-rule="evenodd" d="M9.5 2.75C7.70507 2.75 6.25 4.20507 6.25 6V11.6893L8.46967 9.46967C8.76256 9.17678 9.23744 9.17678 9.53033 9.46967C9.82322 9.76256 9.82322 10.2374 9.53033 10.5303L6.03033 14.0303C5.73744 14.3232 5.26256 14.3232 4.96967 14.0303L1.46967 10.5303C1.17678 10.2374 1.17678 9.76256 1.46967 9.46967C1.76256 9.17678 2.23744 9.17678 2.53033 9.46967L4.75 11.6893V6C4.75 3.37665 6.87665 1.25 9.5 1.25C12.1234 1.25 14.25 3.37665 14.25 6V11C14.25 11.4142 13.9142 11.75 13.5 11.75C13.0858 11.75 12.75 11.4142 12.75 11V6C12.75 4.20507 11.2949 2.75 9.5 2.75Z" fill="#FF00FF"/>
</svg>
