<svg width="16" height="16" viewBox="0 0 16 16" fill="none" xmlns="http://www.w3.org/2000/svg">
<g clip-path="url(#clip0_2376_2674)">
<path fill-rule="evenodd" clip-rule="evenodd" d="M13.25 9.5C13.25 7.70507 11.7949 6.25 10 6.25H4.31066L6.53033 8.46967C6.82322 8.76256 6.82322 9.23744 6.53033 9.53033C6.23744 9.82322 5.76256 9.82322 5.46967 9.53033L1.96967 6.03033C1.67678 5.73744 1.67678 5.26256 1.96967 4.96967L5.46967 1.46967C5.76256 1.17678 6.23744 1.17678 6.53033 1.46967C6.82322 1.76256 6.82322 2.23744 6.53033 2.53033L4.31066 4.75H10C12.6234 4.75 14.75 6.87665 14.75 9.5C14.75 12.1234 12.6234 14.25 10 14.25H5C4.58579 14.25 4.25 13.9142 4.25 13.5C4.25 13.0858 4.58579 12.75 5 12.75H10C11.7949 12.75 13.25 11.2949 13.25 9.5Z" fill="#FF00FF"/>
</g>
<defs>
<clipPath id="clip0_2376_2674">
<rect width="16" height="16" fill="white"/>
</clipPath>
</defs>
</svg>
