<svg width="16" height="16" viewBox="0 0 16 16" fill="none" xmlns="http://www.w3.org/2000/svg">
<g clip-path="url(#clip0_2376_2679)">
<path fill-rule="evenodd" clip-rule="evenodd" d="M6.5 3.25C8.29493 3.25 9.75 4.70507 9.75 6.5V12.1893L7.53033 9.96967C7.23744 9.67678 6.76256 9.67678 6.46967 9.96967C6.17678 10.2626 6.17678 10.7374 6.46967 11.0303L9.96967 14.5303C10.1103 14.671 10.3011 14.75 10.5 14.75C10.6989 14.75 10.8897 14.671 11.0303 14.5303L14.5303 11.0303C14.8232 10.7374 14.8232 10.2626 14.5303 9.96967C14.2374 9.67678 13.7626 9.67678 13.4697 9.96967L11.25 12.1893V6.5C11.25 3.87665 9.12335 1.75 6.5 1.75H2.5C2.08579 1.75 1.75 2.08579 1.75 2.5C1.75 2.91421 2.08579 3.25 2.5 3.25H6.5Z" fill="#FF00FF"/>
</g>
<defs>
<clipPath id="clip0_2376_2679">
<rect width="16" height="16" fill="white"/>
</clipPath>
</defs>
</svg>
