<svg width="16" height="16" viewBox="0 0 16 16" fill="none" xmlns="http://www.w3.org/2000/svg">
<g clip-path="url(#clip0_2376_2672)">
<path fill-rule="evenodd" clip-rule="evenodd" d="M12.75 9.5C12.75 7.70507 11.2949 6.25 9.5 6.25H3.81066L6.03033 8.46967C6.32322 8.76256 6.32322 9.23744 6.03033 9.53033C5.73744 9.82322 5.26256 9.82322 4.96967 9.53033L1.46967 6.03033C1.32902 5.88968 1.25 5.69891 1.25 5.5C1.25 5.30109 1.32902 5.11032 1.46967 4.96967L4.96967 1.46967C5.26256 1.17678 5.73744 1.17678 6.03033 1.46967C6.32322 1.76256 6.32322 2.23744 6.03033 2.53033L3.81066 4.75H9.5C12.1234 4.75 14.25 6.87665 14.25 9.5V13.5C14.25 13.9142 13.9142 14.25 13.5 14.25C13.0858 14.25 12.75 13.9142 12.75 13.5V9.5Z" fill="#FF00FF"/>
</g>
<defs>
<clipPath id="clip0_2376_2672">
<rect width="16" height="16" fill="white"/>
</clipPath>
</defs>
</svg>
