<svg width="16" height="16" viewBox="0 0 16 16" fill="none" xmlns="http://www.w3.org/2000/svg">
<g clip-path="url(#clip0_2376_2669)">
<path fill-rule="evenodd" clip-rule="evenodd" d="M2.75 6.5C2.75 8.29493 4.20507 9.75 6 9.75H11.6893L9.46967 7.53033C9.17678 7.23744 9.17678 6.76256 9.46967 6.46967C9.76256 6.17678 10.2374 6.17678 10.5303 6.46967L14.0303 9.96967C14.3232 10.2626 14.3232 10.7374 14.0303 11.0303L10.5303 14.5303C10.2374 14.8232 9.76256 14.8232 9.46967 14.5303C9.17678 14.2374 9.17678 13.7626 9.46967 13.4697L11.6893 11.25H6C3.37665 11.25 1.25 9.12335 1.25 6.5C1.25 3.87665 3.37665 1.75 6 1.75H11C11.4142 1.75 11.75 2.08579 11.75 2.5C11.75 2.91421 11.4142 3.25 11 3.25H6C4.20507 3.25 2.75 4.70507 2.75 6.5Z" fill="#FF00FF"/>
</g>
<defs>
<clipPath id="clip0_2376_2669">
<rect width="16" height="16" fill="white"/>
</clipPath>
</defs>
</svg>
