<svg width="16" height="16" viewBox="0 0 16 16" fill="none" xmlns="http://www.w3.org/2000/svg">
<path fill-rule="evenodd" clip-rule="evenodd" d="M9.5 3.25C7.70507 3.25 6.25 4.70507 6.25 6.5V12.1893L8.46967 9.96967C8.76256 9.67678 9.23744 9.67678 9.53033 9.96967C9.82322 10.2626 9.82322 10.7374 9.53033 11.0303L6.03033 14.5303C5.88968 14.671 5.69891 14.75 5.5 14.75C5.30109 14.75 5.11032 14.671 4.96967 14.5303L1.46967 11.0303C1.17678 10.7374 1.17678 10.2626 1.46967 9.96967C1.76256 9.67678 2.23744 9.67678 2.53033 9.96967L4.75 12.1893V6.5C4.75 3.87665 6.87665 1.75 9.5 1.75H13.5C13.9142 1.75 14.25 2.08579 14.25 2.5C14.25 2.91421 13.9142 3.25 13.5 3.25H9.5Z" fill="#FF00FF"/>
</svg>
