<svg width="16" height="16" viewBox="0 0 16 16" fill="none" xmlns="http://www.w3.org/2000/svg">
<g clip-path="url(#clip0_2376_2681)">
<path fill-rule="evenodd" clip-rule="evenodd" d="M6.5 2.75C8.29493 2.75 9.75 4.20507 9.75 6V11.6893L7.53033 9.46967C7.23744 9.17678 6.76256 9.17678 6.46967 9.46967C6.17678 9.76256 6.17678 10.2374 6.46967 10.5303L9.96967 14.0303C10.2626 14.3232 10.7374 14.3232 11.0303 14.0303L14.5303 10.5303C14.8232 10.2374 14.8232 9.76256 14.5303 9.46967C14.2374 9.17678 13.7626 9.17678 13.4697 9.46967L11.25 11.6893V6C11.25 3.37665 9.12335 1.25 6.5 1.25C3.87665 1.25 1.75 3.37665 1.75 6V11C1.75 11.4142 2.08579 11.75 2.5 11.75C2.91421 11.75 3.25 11.4142 3.25 11V6C3.25 4.20507 4.70507 2.75 6.5 2.75Z" fill="#FF00FF"/>
</g>
<defs>
<clipPath id="clip0_2376_2681">
<rect width="16" height="16" fill="white"/>
</clipPath>
</defs>
</svg>
