<svg width="16" height="16" viewBox="0 0 16 16" fill="none" xmlns="http://www.w3.org/2000/svg">
<g clip-path="url(#clip0_2376_2677)">
<path fill-rule="evenodd" clip-rule="evenodd" d="M6.5 13.25C8.29493 13.25 9.75 11.7949 9.75 10V4.31066L7.53033 6.53033C7.23744 6.82322 6.76256 6.82322 6.46967 6.53033C6.17678 6.23744 6.17678 5.76256 6.46967 5.46967L9.96967 1.96967C10.2626 1.67678 10.7374 1.67678 11.0303 1.96967L14.5303 5.46967C14.8232 5.76256 14.8232 6.23744 14.5303 6.53033C14.2374 6.82322 13.7626 6.82322 13.4697 6.53033L11.25 4.31066V10C11.25 12.6234 9.12335 14.75 6.5 14.75C3.87665 14.75 1.75 12.6234 1.75 10V5C1.75 4.58579 2.08579 4.25 2.5 4.25C2.91421 4.25 3.25 4.58579 3.25 5V10C3.25 11.7949 4.70507 13.25 6.5 13.25Z" fill="#FF00FF"/>
</g>
<defs>
<clipPath id="clip0_2376_2677">
<rect width="16" height="16" fill="white"/>
</clipPath>
</defs>
</svg>
