<svg width="16" height="16" viewBox="0 0 16 16" fill="none" xmlns="http://www.w3.org/2000/svg">
<g clip-path="url(#clip0_2376_2675)">
<path fill-rule="evenodd" clip-rule="evenodd" d="M6.5 12.75C8.29493 12.75 9.75 11.2949 9.75 9.5V3.81066L7.53033 6.03033C7.23744 6.32322 6.76256 6.32322 6.46967 6.03033C6.17678 5.73744 6.17678 5.26256 6.46967 4.96967L9.96967 1.46967C10.1103 1.32902 10.3011 1.25 10.5 1.25C10.6989 1.25 10.8897 1.32902 11.0303 1.46967L14.5303 4.96967C14.8232 5.26256 14.8232 5.73744 14.5303 6.03033C14.2374 6.32322 13.7626 6.32322 13.4697 6.03033L11.25 3.81066V9.5C11.25 12.1234 9.12335 14.25 6.5 14.25H2.5C2.08579 14.25 1.75 13.9142 1.75 13.5C1.75 13.0858 2.08579 12.75 2.5 12.75H6.5Z" fill="#FF00FF"/>
</g>
<defs>
<clipPath id="clip0_2376_2675">
<rect width="16" height="16" fill="white"/>
</clipPath>
</defs>
</svg>
