<svg width="16" height="16" viewBox="0 0 16 16" fill="none" xmlns="http://www.w3.org/2000/svg">
<g clip-path="url(#clip0_2376_2668)">
<path fill-rule="evenodd" clip-rule="evenodd" d="M12.75 6.5C12.75 8.29493 11.2949 9.75 9.5 9.75H3.81066L6.03033 7.53033C6.32322 7.23744 6.32322 6.76256 6.03033 6.46967C5.73744 6.17678 5.26256 6.17678 4.96967 6.46967L1.46967 9.96967C1.32902 10.1103 1.25 10.3011 1.25 10.5C1.25 10.6989 1.32902 10.8897 1.46967 11.0303L4.96967 14.5303C5.26256 14.8232 5.73744 14.8232 6.03033 14.5303C6.32322 14.2374 6.32322 13.7626 6.03033 13.4697L3.81066 11.25H9.5C12.1234 11.25 14.25 9.12335 14.25 6.5V2.5C14.25 2.08579 13.9142 1.75 13.5 1.75C13.0858 1.75 12.75 2.08579 12.75 2.5V6.5Z" fill="#FF00FF"/>
</g>
<defs>
<clipPath id="clip0_2376_2668">
<rect width="16" height="16" fill="white"/>
</clipPath>
</defs>
</svg>
