<svg width="16" height="16" viewBox="0 0 16 16" fill="none" xmlns="http://www.w3.org/2000/svg">
<g clip-path="url(#clip0_2376_2667)">
<path fill-rule="evenodd" clip-rule="evenodd" d="M3.25 6.5C3.25 8.29493 4.70507 9.75 6.5 9.75H12.1893L9.96967 7.53033C9.67678 7.23744 9.67678 6.76256 9.96967 6.46967C10.2626 6.17678 10.7374 6.17678 11.0303 6.46967L14.5303 9.96967C14.671 10.1103 14.75 10.3011 14.75 10.5C14.75 10.6989 14.671 10.8897 14.5303 11.0303L11.0303 14.5303C10.7374 14.8232 10.2626 14.8232 9.96967 14.5303C9.67678 14.2374 9.67678 13.7626 9.96967 13.4697L12.1893 11.25H6.5C3.87665 11.25 1.75 9.12335 1.75 6.5V2.5C1.75 2.08579 2.08579 1.75 2.5 1.75C2.91421 1.75 3.25 2.08579 3.25 2.5V6.5Z" fill="#FF00FF"/>
</g>
<defs>
<clipPath id="clip0_2376_2667">
<rect width="16" height="16" fill="white"/>
</clipPath>
</defs>
</svg>
