<svg width="16" height="16" viewBox="0 0 16 16" fill="none" xmlns="http://www.w3.org/2000/svg">
<g clip-path="url(#clip0_2376_2671)">
<path fill-rule="evenodd" clip-rule="evenodd" d="M3.25 9.5C3.25 7.70507 4.70507 6.25 6.5 6.25H12.1893L9.96967 8.46967C9.67678 8.76256 9.67678 9.23744 9.96967 9.53033C10.2626 9.82322 10.7374 9.82322 11.0303 9.53033L14.5303 6.03033C14.671 5.88968 14.75 5.69891 14.75 5.5C14.75 5.30109 14.671 5.11032 14.5303 4.96967L11.0303 1.46967C10.7374 1.17678 10.2626 1.17678 9.96967 1.46967C9.67678 1.76256 9.67678 2.23744 9.96967 2.53033L12.1893 4.75H6.5C3.87665 4.75 1.75 6.87665 1.75 9.5V13.5C1.75 13.9142 2.08579 14.25 2.5 14.25C2.91421 14.25 3.25 13.9142 3.25 13.5V9.5Z" fill="#FF00FF"/>
</g>
<defs>
<clipPath id="clip0_2376_2671">
<rect width="16" height="16" fill="white"/>
</clipPath>
</defs>
</svg>
