<svg width="16" height="16" viewBox="0 0 16 16" fill="none" xmlns="http://www.w3.org/2000/svg">
<g clip-path="url(#clip0_2376_2676)">
<path fill-rule="evenodd" clip-rule="evenodd" d="M9.5 12.75C7.70507 12.75 6.25 11.2949 6.25 9.5V3.81066L8.46967 6.03033C8.76256 6.32322 9.23744 6.32322 9.53033 6.03033C9.82322 5.73744 9.82322 5.26256 9.53033 4.96967L6.03033 1.46967C5.88968 1.32902 5.69891 1.25 5.5 1.25C5.30109 1.25 5.11032 1.32902 4.96967 1.46967L1.46967 4.96967C1.17678 5.26256 1.17678 5.73744 1.46967 6.03033C1.76256 6.32322 2.23744 6.32322 2.53033 6.03033L4.75 3.81066V9.5C4.75 12.1234 6.87665 14.25 9.5 14.25H13.5C13.9142 14.25 14.25 13.9142 14.25 13.5C14.25 13.0858 13.9142 12.75 13.5 12.75H9.5Z" fill="#FF00FF"/>
</g>
<defs>
<clipPath id="clip0_2376_2676">
<rect width="16" height="16" fill="white"/>
</clipPath>
</defs>
</svg>
