<svg width="16" height="16" viewBox="0 0 16 16" fill="none" xmlns="http://www.w3.org/2000/svg">
<g clip-path="url(#clip0_2376_2678)">
<path fill-rule="evenodd" clip-rule="evenodd" d="M9.5 13.25C7.70507 13.25 6.25 11.7949 6.25 10V4.31066L8.46967 6.53033C8.76256 6.82322 9.23744 6.82322 9.53033 6.53033C9.82322 6.23744 9.82322 5.76256 9.53033 5.46967L6.03033 1.96967C5.73744 1.67678 5.26256 1.67678 4.96967 1.96967L1.46967 5.46967C1.17678 5.76256 1.17678 6.23744 1.46967 6.53033C1.76256 6.82322 2.23744 6.82322 2.53033 6.53033L4.75 4.31066V10C4.75 12.6234 6.87665 14.75 9.5 14.75C12.1234 14.75 14.25 12.6234 14.25 10V5C14.25 4.58579 13.9142 4.25 13.5 4.25C13.0858 4.25 12.75 4.58579 12.75 5V10C12.75 11.7949 11.2949 13.25 9.5 13.25Z" fill="#FF00FF"/>
</g>
<defs>
<clipPath id="clip0_2376_2678">
<rect width="16" height="16" fill="white"/>
</clipPath>
</defs>
</svg>
