<svg width="16" height="16" viewBox="0 0 16 16" fill="none" xmlns="http://www.w3.org/2000/svg">
<g clip-path="url(#clip0_2376_2670)">
<path fill-rule="evenodd" clip-rule="evenodd" d="M13.25 6.5C13.25 8.29493 11.7949 9.75 10 9.75H4.31066L6.53033 7.53033C6.82322 7.23744 6.82322 6.76256 6.53033 6.46967C6.23744 6.17678 5.76256 6.17678 5.46967 6.46967L1.96967 9.96967C1.67678 10.2626 1.67678 10.7374 1.96967 11.0303L5.46967 14.5303C5.76256 14.8232 6.23744 14.8232 6.53033 14.5303C6.82322 14.2374 6.82322 13.7626 6.53033 13.4697L4.31066 11.25H10C12.6234 11.25 14.75 9.12335 14.75 6.5C14.75 3.87665 12.6234 1.75 10 1.75H5C4.58579 1.75 4.25 2.08579 4.25 2.5C4.25 2.91421 4.58579 3.25 5 3.25H10C11.7949 3.25 13.25 4.70507 13.25 6.5Z" fill="#FF00FF"/>
</g>
<defs>
<clipPath id="clip0_2376_2670">
<rect width="16" height="16" fill="white"/>
</clipPath>
</defs>
</svg>
