<svg width="16" height="16" viewBox="0 0 16 16" fill="none" xmlns="http://www.w3.org/2000/svg">
<path fill-rule="evenodd" clip-rule="evenodd" d="M5 1.25C5.41421 1.25 5.75 1.58579 5.75 2V14C5.75 14.4142 5.41421 14.75 5 14.75C4.58579 14.75 4.25 14.4142 4.25 14V2C4.25 1.58579 4.58579 1.25 5 1.25ZM8.75 4C8.75 3.58579 8.41421 3.25 8 3.25C7.58579 3.25 7.25 3.58579 7.25 4V12C7.25 12.4142 7.58579 12.75 8 12.75C8.41421 12.75 8.75 12.4142 8.75 12V4ZM14 4.25C14.4142 4.25 14.75 4.58579 14.75 5V11C14.75 11.4142 14.4142 11.75 14 11.75C13.5858 11.75 13.25 11.4142 13.25 11V5C13.25 4.58579 13.5858 4.25 14 4.25ZM11 6.25C11.4142 6.25 11.75 6.58579 11.75 7V9C11.75 9.41421 11.4142 9.75 11 9.75C10.5858 9.75 10.25 9.41421 10.25 9V7C10.25 6.58579 10.5858 6.25 11 6.25ZM2.75 6C2.75 5.58579 2.41421 5.25 2 5.25C1.58579 5.25 1.25 5.58579 1.25 6V10C1.25 10.4142 1.58579 10.75 2 10.75C2.41421 10.75 2.75 10.4142 2.75 10V6Z" fill="#FF00FF"/>
</svg>
