<svg width="16" height="16" viewBox="0 0 16 16" fill="none" xmlns="http://www.w3.org/2000/svg">
<path fill-rule="evenodd" clip-rule="evenodd" d="M5.44449 4.11612C5.67891 3.8817 5.99685 3.75 6.32837 3.75H12.9999C13.6903 3.75 14.2499 4.30964 14.2499 5V11C14.2499 11.6904 13.6903 12.25 12.9999 12.25H6.32837C5.99685 12.25 5.67891 12.1183 5.44449 11.8839L2.44448 8.88388C1.95633 8.39573 1.95633 7.60427 2.44449 7.11612L5.44449 4.11612ZM6.32837 2.25C5.59902 2.25 4.89955 2.53973 4.38383 3.05546L1.38383 6.05546C0.309885 7.1294 0.309882 8.8706 1.38382 9.94454L4.38383 12.9445C4.89955 13.4603 5.59902 13.75 6.32837 13.75H12.9999C14.5187 13.75 15.7499 12.5188 15.7499 11V5C15.7499 3.48122 14.5187 2.25 12.9999 2.25H6.32837ZM7.53024 5.46967C7.23735 5.17678 6.76248 5.17678 6.46958 5.46967C6.17669 5.76256 6.17669 6.23744 6.46958 6.53033L7.93925 8L6.46958 9.46967C6.17669 9.76256 6.17669 10.2374 6.46958 10.5303C6.76248 10.8232 7.23735 10.8232 7.53024 10.5303L8.99991 9.06066L10.4696 10.5303C10.7625 10.8232 11.2374 10.8232 11.5302 10.5303C11.8231 10.2374 11.8231 9.76256 11.5302 9.46967L10.0606 8L11.5302 6.53033C11.8231 6.23744 11.8231 5.76256 11.5302 5.46967C11.2374 5.17678 10.7625 5.17678 10.4696 5.46967L8.99991 6.93934L7.53024 5.46967Z" fill="#FF00FF"/>
</svg>
