<svg width="16" height="16" viewBox="0 0 16 16" fill="none" xmlns="http://www.w3.org/2000/svg">
<path fill-rule="evenodd" clip-rule="evenodd" d="M6.5 2C6.5 1.44771 6.94772 1 7.5 1H8.5C9.05229 1 9.5 1.44772 9.5 2V12H6.5V2ZM12 8C11.4477 8 11 8.44772 11 9V12H14V9C14 8.44772 13.5523 8 13 8H12ZM1 12.75C0.585786 12.75 0.25 13.0858 0.25 13.5C0.25 13.9142 0.585786 14.25 1 14.25H15C15.4142 14.25 15.75 13.9142 15.75 13.5C15.75 13.0858 15.4142 12.75 15 12.75H1ZM3 5C2.44772 5 2 5.44772 2 6V12H5V6C5 5.44772 4.55228 5 4 5H3Z" fill="#FF00FF"/>
</svg>
