<svg width="16" height="16" viewBox="0 0 16 16" fill="none" xmlns="http://www.w3.org/2000/svg">
<path fill-rule="evenodd" clip-rule="evenodd" d="M11 1.5H10.437C10.215 0.637386 9.43192 0 8.5 0H7.5C6.56808 0 5.78503 0.637386 5.56301 1.5H5C3.89543 1.5 3 2.39543 3 3.5V14C3 15.1046 3.89543 16 5 16H11C12.1046 16 13 15.1046 13 14V3.5C13 2.39543 12.1046 1.5 11 1.5ZM8.66808 8.07678L9.58077 5.33872C9.83979 4.56165 8.84354 3.99127 8.30453 4.608L5.48576 7.83323C5.06186 8.31826 5.40631 9.07678 6.05048 9.07678H7.28065L6.40259 11.711C6.14579 12.4814 7.12572 13.0535 7.67037 12.4512L10.4931 9.32983C10.9292 8.8476 10.587 8.07678 9.93682 8.07678H8.66808Z" fill="#FF00FF"/>
</svg>
