<svg width="16" height="16" viewBox="0 0 16 16" fill="none" xmlns="http://www.w3.org/2000/svg">
<path fill-rule="evenodd" clip-rule="evenodd" d="M10.437 1.5H11C12.1046 1.5 13 2.39543 13 3.5V14C13 15.1046 12.1046 16 11 16H5C3.89543 16 3 15.1046 3 14V3.5C3 2.39543 3.89543 1.5 5 1.5H5.56301C5.78503 0.637386 6.56808 0 7.5 0H8.5C9.43192 0 10.215 0.637386 10.437 1.5ZM5 3H11C11.2761 3 11.5 3.22386 11.5 3.5V14C11.5 14.2761 11.2761 14.5 11 14.5H5C4.72386 14.5 4.5 14.2761 4.5 14V3.5C4.5 3.22386 4.72386 3 5 3Z" fill="#FF00FF"/>
</svg>
