<svg width="16" height="16" viewBox="0 0 16 16" fill="none" xmlns="http://www.w3.org/2000/svg">
<path fill-rule="evenodd" clip-rule="evenodd" d="M11 1.5H10.437C10.215 0.637386 9.43192 0 8.5 0H7.5C6.56808 0 5.78503 0.637386 5.56301 1.5H5C3.89543 1.5 3 2.39543 3 3.5V14C3 15.1046 3.89543 16 5 16H11C12.1046 16 13 15.1046 13 14V3.5C13 2.39543 12.1046 1.5 11 1.5ZM8.69367 8.07678L10.0553 3.99185C10.3175 3.20544 9.29833 2.63771 8.76764 3.27454L4.95756 7.84664C4.55048 8.33514 4.89784 9.07678 5.53372 9.07678H7.30625L5.9446 13.1617C5.68247 13.9481 6.70159 14.5159 7.23228 13.879L11.0424 9.30692C11.4494 8.81842 11.1021 8.07678 10.4662 8.07678H8.69367Z" fill="#FF00FF"/>
</svg>
