<svg width="16" height="16" viewBox="0 0 16 16" fill="none" xmlns="http://www.w3.org/2000/svg">
<path fill-rule="evenodd" clip-rule="evenodd" d="M11 1.5H10.437C10.215 0.637386 9.43192 0 8.5 0H7.5C6.56808 0 5.78503 0.637386 5.56301 1.5H5C3.89543 1.5 3 2.39543 3 3.5V14C3 15.1046 3.89543 16 5 16H11C12.1046 16 13 15.1046 13 14V3.5C13 2.39543 12.1046 1.5 11 1.5ZM11 3H5C4.72386 3 4.5 3.22386 4.5 3.5V14C4.5 14.2761 4.72386 14.5 5 14.5H11C11.2761 14.5 11.5 14.2761 11.5 14V3.5C11.5 3.22386 11.2761 3 11 3ZM5.5 5C5.5 4.72386 5.72386 4.5 6 4.5H10C10.2761 4.5 10.5 4.72386 10.5 5V6C10.5 6.27614 10.2761 6.5 10 6.5H6C5.72386 6.5 5.5 6.27614 5.5 6V5ZM6 7.75C5.72386 7.75 5.5 7.97386 5.5 8.25V9.25C5.5 9.52614 5.72386 9.75 6 9.75H10C10.2761 9.75 10.5 9.52614 10.5 9.25V8.25C10.5 7.97386 10.2761 7.75 10 7.75H6ZM6 11C5.72386 11 5.5 11.2239 5.5 11.5V12.5C5.5 12.7761 5.72386 13 6 13H10C10.2761 13 10.5 12.7761 10.5 12.5V11.5C10.5 11.2239 10.2761 11 10 11H6Z" fill="#FF00FF"/>
</svg>
