<svg width="16" height="16" viewBox="0 0 16 16" fill="none" xmlns="http://www.w3.org/2000/svg">
<rect x="1" y="1" width="14" height="14" rx="1.75" fill="#005CFF"/>
<path fill-rule="evenodd" clip-rule="evenodd" d="M7.97974 6.23153C7.97974 7.52625 6.92022 7.60857 6.92022 7.60857C8.28895 7.60857 8.2238 9.33448 8.22117 9.40401L8.2211 9.40617C8.2211 11.6154 6.01414 11.5431 6.01414 11.5431H2.3999V4.30457H6.01414C7.11286 4.30457 7.97974 4.93513 7.97974 6.23153ZM6.01414 5.59033H3.99254V7.20593H5.8887C6.21686 7.20593 6.50582 7.09673 6.50582 6.34297C6.50582 5.59033 6.01414 5.59033 6.01414 5.59033ZM5.91166 10.2562H3.99254V8.32144H6.01414C6.01414 8.32144 6.74662 8.31137 6.74662 9.31545C6.74662 10.1622 6.1995 10.2501 5.91166 10.2562ZM8.49382 8.92681C8.49382 8.92681 8.49158 6.14529 11.1633 6.14529C13.9751 6.14529 13.5781 9.28801 13.5781 9.28801H9.98118C9.98118 10.6331 11.2042 10.548 11.2042 10.548C12.3578 10.548 12.3175 9.76905 12.3175 9.76905H13.5394C13.5394 11.836 11.1633 11.6938 11.1633 11.6938C8.31126 11.6938 8.49382 8.92681 8.49382 8.92681ZM12.2503 8.32145H9.96886C9.96886 8.32145 10.1178 7.20593 11.1908 7.20593C12.2637 7.20593 12.2503 8.32145 12.2503 8.32145ZM9.6687 4.72961H12.5342V5.62225H9.6687V4.72961Z" fill="white"/>
</svg>
