<svg width="16" height="16" viewBox="0 0 16 16" fill="none" xmlns="http://www.w3.org/2000/svg">
<path d="M3.99264 5.59032H6.01424C6.01424 5.59032 6.50592 5.59032 6.50592 6.34296C6.50592 7.09672 6.21696 7.20592 5.8888 7.20592H3.99264V5.59032Z" fill="#FF00FF"/>
<path d="M3.99264 10.2562H5.91176C6.1996 10.2501 6.74672 10.1622 6.74672 9.31544C6.74672 8.31136 6.01424 8.32144 6.01424 8.32144H3.99264V10.2562Z" fill="#FF00FF"/>
<path d="M9.96896 8.32144H12.2504C12.2504 8.32144 12.2638 7.20592 11.1909 7.20592C10.1179 7.20592 9.96896 8.32144 9.96896 8.32144Z" fill="#FF00FF"/>
<path fill-rule="evenodd" clip-rule="evenodd" d="M2.75 1C1.7835 1 1 1.7835 1 2.75V13.25C1 14.2165 1.7835 15 2.75 15H13.25C14.2165 15 15 14.2165 15 13.25V2.75C15 1.7835 14.2165 1 13.25 1H2.75ZM6.92032 7.60856C6.92032 7.60856 7.97984 7.52624 7.97984 6.23152C7.97984 4.93512 7.11296 4.30456 6.01424 4.30456H2.4V11.5431H6.01424C6.01424 11.5431 8.2212 11.6154 8.2212 9.40616L8.22127 9.404C8.2239 9.33447 8.28904 7.60856 6.92032 7.60856ZM11.1634 6.14528C8.49168 6.14528 8.49392 8.9268 8.49392 8.9268C8.49392 8.9268 8.31136 11.6938 11.1634 11.6938C11.1634 11.6938 13.5395 11.836 13.5395 9.76904H12.3176C12.3176 9.76904 12.3579 10.548 11.2043 10.548C11.2043 10.548 9.98128 10.6331 9.98128 9.288H13.5782C13.5782 9.288 13.9752 6.14528 11.1634 6.14528ZM12.5343 4.7296H9.6688V5.62224H12.5343V4.7296Z" fill="#FF00FF"/>
</svg>
