<svg width="16" height="16" viewBox="0 0 16 16" fill="none" xmlns="http://www.w3.org/2000/svg">
<path fill-rule="evenodd" clip-rule="evenodd" d="M4.75 5.49938C4.75 3.70461 6.20492 2.25 8 2.25C9.79508 2.25 11.25 3.70461 11.25 5.49938V7C11.25 8.96131 12.0214 10.0777 12.7675 10.6714C13.1127 10.946 13.25 11.2093 13.25 11.3769C13.25 11.583 13.083 11.75 12.8769 11.75H12C11.5858 11.75 11.25 12.0858 11.25 12.5C11.25 12.9142 11.5858 13.25 12 13.25H12.8769C13.9114 13.25 14.75 12.4114 14.75 11.3769C14.75 10.5138 14.1629 9.86477 13.7015 9.49763C13.3188 9.19308 12.75 8.51167 12.75 7V5.49938C12.75 2.87588 10.6232 0.75 8 0.75C5.3768 0.75 3.25 2.87588 3.25 5.49938V7C3.25 8.51167 2.68122 9.19308 2.29848 9.49763C1.83709 9.86477 1.25 10.5138 1.25 11.3769C1.25 12.4114 2.08862 13.25 3.12311 13.25H4C4.41421 13.25 4.75 12.9142 4.75 12.5C4.75 12.0858 4.41421 11.75 4 11.75H3.12311C2.91705 11.75 2.75 11.583 2.75 11.3769C2.75 11.2093 2.88731 10.946 3.23245 10.6714C3.9786 10.0777 4.75 8.96131 4.75 7V5.49938ZM8 15C9.10457 15 10 14.1046 10 13C10 11.8954 9.10457 11 8 11C6.89543 11 6 11.8954 6 13C6 14.1046 6.89543 15 8 15Z" fill="#FF00FF"/>
</svg>
