<svg width="16" height="16" viewBox="0 0 16 16" fill="none" xmlns="http://www.w3.org/2000/svg">
<path opacity="0.4" fill-rule="evenodd" clip-rule="evenodd" d="M10.3731 1.38423C9.67488 0.98083 8.86439 0.75 8.00001 0.75C5.3768 0.75 3.25001 2.87588 3.25001 5.49938V7C3.25001 7.98527 3.00838 8.61783 2.73413 9.02323L4.75 7.00736C4.75001 7.00491 4.75001 7.00246 4.75001 7V5.49938C4.75001 3.70461 6.20493 2.25 8.00001 2.25C8.44524 2.25 8.86954 2.33949 9.25591 2.50145L10.3731 1.38423ZM6.2585 13.9841C6.60199 14.5907 7.2532 15 8.00001 15C9.10458 15 10 14.1046 10 13C10 12.2532 9.59069 11.602 8.98416 11.2585L6.2585 13.9841ZM11.4947 8.74791C11.7816 9.67222 12.28 10.2834 12.7676 10.6714C13.1127 10.946 13.25 11.2093 13.25 11.3769C13.25 11.583 13.083 11.75 12.8769 11.75H12C11.5858 11.75 11.25 12.0858 11.25 12.5C11.25 12.9142 11.5858 13.25 12 13.25H12.8769C13.9114 13.25 14.75 12.4114 14.75 11.3769C14.75 10.5138 14.1629 9.86477 13.7015 9.49763C13.3612 9.22684 12.8738 8.65811 12.7699 7.4727L11.4947 8.74791Z" fill="#FF00FF"/>
<path fill-rule="evenodd" clip-rule="evenodd" d="M13.5303 2.46967C13.8232 2.76256 13.8232 3.23744 13.5303 3.53033L3.53033 13.5303C3.23744 13.8232 2.76256 13.8232 2.46967 13.5303C2.17678 13.2374 2.17678 12.7626 2.46967 12.4697L12.4697 2.46967C12.7626 2.17678 13.2374 2.17678 13.5303 2.46967Z" fill="#FF00FF"/>
</svg>
