<svg width="16" height="16" viewBox="0 0 16 16" fill="none" xmlns="http://www.w3.org/2000/svg">
<path d="M0.746523 1.06401C0.673541 1.06307 0.601238 1.07811 0.53469 1.10809C0.468142 1.13806 0.408962 1.18224 0.361306 1.23752C0.313649 1.29281 0.278671 1.35785 0.258827 1.42809C0.238984 1.49833 0.234755 1.57206 0.24644 1.6441L2.36929 14.5313C2.39574 14.689 2.47691 14.8323 2.59855 14.9361C2.72018 15.0399 2.8745 15.0975 3.0344 15.0988H13.2186C13.3385 15.1004 13.4549 15.0588 13.5467 14.9817C13.6385 14.9046 13.6995 14.7971 13.7187 14.6788L15.8415 1.6466C15.8532 1.57456 15.849 1.50083 15.8292 1.43059C15.8093 1.36035 15.7743 1.29531 15.7267 1.24002C15.679 1.18474 15.6198 1.14056 15.5533 1.11059C15.4867 1.08061 15.4144 1.06557 15.3415 1.06651L0.746523 1.06401ZM9.68551 10.3781H6.43497L5.55483 5.77979H10.4731L9.68551 10.3781Z" fill="#FF00FF"/>
</svg>
