<svg width="16" height="16" viewBox="0 0 16 16" fill="none" xmlns="http://www.w3.org/2000/svg">
<g clip-path="url(#clip0_2179_3653)">
<path d="M6.56737 15.9096C5.09821 15.5757 4.1633 15.1499 3.10317 14.3486C1.75088 13.3218 0.649015 11.6691 0.2066 9.99121C-0.0688666 8.95612 -0.0688666 7.00282 0.2066 5.98443C0.548846 4.749 1.00796 3.84748 1.83435 2.82909C2.76927 1.67714 4.43042 0.625356 5.98304 0.207983C6.57571 0.0493811 6.90127 0.0159912 7.98644 0.0159912C9.45559 0.0159912 10.1985 0.166246 11.3254 0.692136C11.9682 0.992644 12.9949 1.6354 12.9949 1.74392C12.9949 1.77731 12.3605 2.31154 11.5842 2.92926L10.1818 4.06451L9.68932 3.84748C9.28029 3.65549 9.03822 3.61375 8.27025 3.58036C6.64249 3.51358 5.91626 3.78904 4.8144 4.89926C4.24677 5.46689 4.05478 5.72566 3.85444 6.19311C3.61236 6.75239 3.60402 6.82752 3.59567 8.06295L3.58732 9.3568L2.31851 10.3919C1.62567 10.9679 1.06639 11.4437 1.08308 11.4604C1.09978 11.4771 1.83435 11.3018 2.71919 11.068L4.33025 10.634L4.86448 11.1765C5.79105 12.1031 6.57571 12.412 8.02817 12.412C9.4055 12.412 10.115 12.1282 11.1 11.1682C11.7511 10.5338 12.1936 9.76583 12.3522 8.97282L12.4607 8.45528L14.1218 8.01286C15.04 7.77079 15.8414 7.57045 15.8998 7.57045C15.9666 7.57045 16 7.75409 16 8.23824C16 10.3502 14.8481 12.7459 13.1869 14.0982C12.1017 14.983 11.3004 15.4004 10.0232 15.7593C9.27194 15.968 7.22682 16.0598 6.56737 15.9096Z" fill="#E60800"/>
</g>
<defs>
<clipPath id="clip0_2179_3653">
<rect width="16" height="16" fill="white"/>
</clipPath>
</defs>
</svg>
