<svg width="16" height="16" viewBox="0 0 16 16" fill="none" xmlns="http://www.w3.org/2000/svg">
<path fill-rule="evenodd" clip-rule="evenodd" d="M7.99886 16C11.4959 16 13.9025 14.3455 13.9025 7.9906C13.9025 1.65452 11.4959 0 7.99886 0C4.5018 0 2.09521 1.65452 2.09521 8.0094C2.09521 14.3455 4.5018 16 7.99886 16Z" fill="#0082FC"/>
<path fill-rule="evenodd" clip-rule="evenodd" d="M8.63804 3.94826L9.95414 5.26436L8.63804 6.58046V3.94826ZM8.63804 12.0517L9.95414 10.7356L8.63804 9.41947V12.0517ZM7.22793 8.00937L4.37012 5.13275L5.19738 4.30549L7.47235 6.58046V1.12805L11.6087 5.26436L8.88245 8.00937L11.6275 10.7544L7.49115 14.8907V9.41947L5.19738 11.6944L4.37012 10.8672L7.22793 8.00937Z" fill="white"/>
</svg>
