<svg width="16" height="16" viewBox="0 0 16 16" fill="none" xmlns="http://www.w3.org/2000/svg">
<path fill-rule="evenodd" clip-rule="evenodd" d="M8.63786 3.9483L9.95396 5.26439L8.63786 6.58049V3.9483ZM8.63786 12.0517L9.95396 10.7356L8.63786 9.41951V12.0517ZM7.22776 8.0094L4.36994 5.13278L5.1972 4.30552L7.47217 6.58049V1.12808L11.6085 5.26439L8.88228 8.0094L11.6273 10.7544L7.49098 14.8907V9.41951L5.1972 11.6945L4.36994 10.8672L7.22776 8.0094ZM7.99861 16C11.4957 16 13.9023 14.3455 13.9023 7.9906C13.9023 1.65452 11.4957 0 7.99861 0C4.50155 0 2.09497 1.65452 2.09497 8.0094C2.09497 14.3455 4.50155 16 7.99861 16Z" fill="#FF00FF"/>
</svg>
