<svg width="16" height="16" viewBox="0 0 16 16" fill="none" xmlns="http://www.w3.org/2000/svg">
<path fill-rule="evenodd" clip-rule="evenodd" d="M7.99861 16C11.4957 16 13.9023 14.3455 13.9023 7.9906C13.9023 1.65452 11.4957 0 7.99861 0C4.50155 0 2.09497 1.65452 2.09497 8.0094C2.09497 14.3455 4.50155 16 7.99861 16Z" fill="#0082FC"/>
<path fill-rule="evenodd" clip-rule="evenodd" d="M8.63779 3.94826L9.95389 5.26436L8.63779 6.58046V3.94826ZM8.63779 12.0517L9.95389 10.7356L8.63779 9.41947V12.0517ZM7.22769 8.00937L4.36987 5.13275L5.19713 4.30549L7.47211 6.58046V1.12805L11.6084 5.26436L8.88221 8.00937L11.6272 10.7544L7.49091 14.8907V9.41947L5.19713 11.6944L4.36987 10.8672L7.22769 8.00937Z" fill="white"/>
</svg>
