<svg width="16" height="16" viewBox="0 0 16 16" fill="none" xmlns="http://www.w3.org/2000/svg">
<rect opacity="0.3" x="3" y="1.5" width="4" height="13" fill="#FF00FF"/>
<path fill-rule="evenodd" clip-rule="evenodd" d="M4 1.75C3.58579 1.75 3.25 2.08579 3.25 2.5V13.5C3.25 13.9142 3.58579 14.25 4 14.25H5.5H12C12.4142 14.25 12.75 13.9142 12.75 13.5V2.5C12.75 2.08579 12.4142 1.75 12 1.75H5.5H4ZM1.75 2.5C1.75 1.25736 2.75736 0.25 4 0.25H5.5H12C13.2426 0.25 14.25 1.25736 14.25 2.5V13.5C14.25 14.7426 13.2426 15.75 12 15.75H5.5H4C2.75736 15.75 1.75 14.7426 1.75 13.5V2.5Z" fill="#FF00FF"/>
</svg>
