<svg width="16" height="16" viewBox="0 0 16 16" fill="none" xmlns="http://www.w3.org/2000/svg">
<path fill-rule="evenodd" clip-rule="evenodd" d="M4.5 2.75C4.08579 2.75 3.75 3.08579 3.75 3.5V13.5858C3.75 13.8085 4.01929 13.9201 4.17678 13.7626L6.40901 11.5303C7.28769 10.6516 8.71231 10.6517 9.59099 11.5303L11.8232 13.7626C11.9807 13.9201 12.25 13.8085 12.25 13.5858V3.5C12.25 3.08579 11.9142 2.75 11.5 2.75H8.5H4.5ZM2.25 3.5C2.25 2.25736 3.25736 1.25 4.5 1.25H8.5H11.5C12.7426 1.25 13.75 2.25736 13.75 3.5V13.5858C13.75 15.1449 11.865 15.9257 10.7626 14.8232L8.53033 12.591C8.23744 12.2981 7.76256 12.2981 7.46967 12.591L5.23744 14.8232C4.135 15.9257 2.25 15.1449 2.25 13.5858V3.5Z" fill="#FF00FF"/>
</svg>
