<svg width="16" height="16" viewBox="0 0 16 16" fill="none" xmlns="http://www.w3.org/2000/svg">
<path fill-rule="evenodd" clip-rule="evenodd" d="M4.5 2.25C4.08579 2.25 3.75 2.58579 3.75 3V13.6893L6.40901 11.0303C7.28769 10.1516 8.71231 10.1517 9.59099 11.0303L12.25 13.6893V3C12.25 2.58579 11.9142 2.25 11.5 2.25H8.5H4.5ZM2.25 3C2.25 1.75736 3.25736 0.75 4.5 0.75H8.5H11.5C12.7426 0.75 13.75 1.75736 13.75 3V14.2929C13.75 15.4065 12.4036 15.9642 11.6161 15.1768L8.53033 12.091C8.23744 11.7981 7.76256 11.7981 7.46967 12.091L4.38388 15.1768C3.59643 15.9642 2.25 15.4065 2.25 14.2929V3Z" fill="#FF00FF"/>
</svg>
