<svg width="16" height="16" viewBox="0 0 16 16" fill="none" xmlns="http://www.w3.org/2000/svg">
<path d="M3 14.2929V3C3 2.17157 3.67157 1.5 4.5 1.5H8.5H11.5C12.3284 1.5 13 2.17157 13 3V14.2929C13 14.7383 12.4614 14.9614 12.1464 14.6464L9.06066 11.5607C8.47487 10.9749 7.52513 10.9749 6.93934 11.5607L3.85355 14.6464C3.53857 14.9614 3 14.7383 3 14.2929Z" fill="#FF00FF"/>
<path fill-rule="evenodd" clip-rule="evenodd" d="M4.5 2.25C4.08579 2.25 3.75 2.58579 3.75 3V13.6893L6.40901 11.0303C7.28769 10.1516 8.71231 10.1517 9.59099 11.0303L12.25 13.6893V3C12.25 2.58579 11.9142 2.25 11.5 2.25H8.5H4.5ZM2.25 3C2.25 1.75736 3.25736 0.75 4.5 0.75H8.5H11.5C12.7426 0.75 13.75 1.75736 13.75 3V14.2929C13.75 15.4065 12.4036 15.9642 11.6161 15.1768L8.53033 12.091C8.23744 11.7981 7.76256 11.7981 7.46967 12.091L4.38388 15.1768C3.59643 15.9642 2.25 15.4065 2.25 14.2929V3Z" fill="#FF00FF"/>
</svg>
