<svg width="16" height="16" viewBox="0 0 16 16" fill="none" xmlns="http://www.w3.org/2000/svg">
<g clip-path="url(#clip0_2371_2432)">
<path fill-rule="evenodd" clip-rule="evenodd" d="M5.75 5.9055C7.04392 5.57247 8 4.39789 8 3.00001C8 1.34315 6.65685 0 5 0C3.34315 0 2 1.34315 2 3.00001C2 4.39789 2.95608 5.57247 4.25 5.9055V10.0945C2.95608 10.4275 2 11.6021 2 13C2 14.6569 3.34315 16 5 16C6.65685 16 8 14.6569 8 13C8 12.6198 7.92929 12.2562 7.8003 11.9215L9.56816 10.6587C10.1449 11.1815 10.9103 11.5 11.7501 11.5C13.545 11.5 15.0001 10.0449 15.0001 8.25001C15.0001 6.45508 13.545 5 11.7501 5C9.95513 5 8.50006 6.45508 8.50006 8.25001C8.50006 8.66345 8.57726 9.05886 8.71804 9.42262L6.92783 10.7013C6.59041 10.418 6.18971 10.2077 5.75 10.0945V5.9055ZM11.7501 6.5C10.7836 6.5 10.0001 7.2835 10.0001 8.25001C10.0001 9.21651 10.7836 10 11.7501 10C12.7166 10 13.5001 9.21651 13.5001 8.25001C13.5001 7.2835 12.7166 6.5 11.7501 6.5Z" fill="#FF00FF"/>
</g>
<defs>
<clipPath id="clip0_2371_2432">
<rect width="16" height="16" fill="white"/>
</clipPath>
</defs>
</svg>
