<svg width="16" height="16" viewBox="0 0 16 16" fill="none" xmlns="http://www.w3.org/2000/svg">
<g clip-path="url(#clip0_2179_3622)">
<path d="M6.60136 6.4415C7.58266 5.4602 9.16046 5.42382 10.1847 6.35231C10.2338 6.39682 10.2375 6.47271 10.193 6.52181C10.1484 6.57092 10.0726 6.57463 10.0235 6.53012C9.09397 5.68748 7.66176 5.72051 6.77106 6.6112C5.84942 7.53284 5.84942 9.02711 6.77106 9.94875C7.65428 10.832 9.07149 10.8726 10.0023 10.0488C10.0519 10.0049 10.1277 10.0095 10.1716 10.0592C10.2156 10.1088 10.2109 10.1846 10.1613 10.2285C9.13568 11.1363 7.57442 11.0915 6.60136 10.1185C5.58599 9.10309 5.58599 7.45686 6.60136 6.4415Z" fill="#FF00FF"/>
<path fill-rule="evenodd" clip-rule="evenodd" d="M4.2665 0.666642V0.499976C4.2665 0.279062 4.44559 0.0999756 4.6665 0.0999756C4.88742 0.0999756 5.0665 0.279062 5.0665 0.499976V0.666642H10.9332V0.499976C10.9332 0.279062 11.1123 0.0999756 11.3332 0.0999756C11.5541 0.0999756 11.7332 0.279062 11.7332 0.499976V0.666642H13.6665C14.587 0.666642 15.3332 1.41283 15.3332 2.33331V13.6666C15.3332 14.5871 14.587 15.3333 13.6665 15.3333H2.33317C1.4127 15.3333 0.666504 14.5871 0.666504 13.6666V2.33331C0.666504 1.41283 1.4127 0.666642 2.33317 0.666642H4.2665ZM5.0665 1.46664H10.9332V2.66664C10.9332 2.88756 11.1123 3.06664 11.3332 3.06664C11.5541 3.06664 11.7332 2.88756 11.7332 2.66664V1.46664H13.6665L13.7609 1.47173C14.1952 1.51878 14.5332 1.88657 14.5332 2.33331V13.6666C14.5332 14.1453 14.1451 14.5333 13.6665 14.5333H2.33317C1.85452 14.5333 1.4665 14.1453 1.4665 13.6666V2.33331C1.4665 1.85466 1.85452 1.46664 2.33317 1.46664H4.2665V2.66664C4.2665 2.88756 4.44559 3.06664 4.6665 3.06664C4.88742 3.06664 5.0665 2.88756 5.0665 2.66664V1.46664Z" fill="#FF00FF"/>
</g>
<defs>
<clipPath id="clip0_2179_3622">
<rect width="16" height="16" fill="white"/>
</clipPath>
</defs>
</svg>
