<svg width="16" height="16" viewBox="0 0 16 16" fill="none" xmlns="http://www.w3.org/2000/svg">
<g clip-path="url(#clip0_2179_3622)">
<path fill-rule="evenodd" clip-rule="evenodd" d="M14.0061 8.7713C14.0061 8.7713 14.0061 8.7713 14.0061 8.7713L14.0035 8.7844C14.0029 8.78785 14.0022 8.7913 14.0016 8.79475C13.9515 9.06653 13.8728 9.335 13.7668 9.59435C13.7667 9.59434 13.7666 9.59432 13.7665 9.5943C13.7664 9.59455 13.7663 9.59479 13.7662 9.59504C14.2523 9.6684 14.7144 9.85471 15.1155 10.139C15.1141 10.1418 15.1133 10.1449 15.1126 10.1481L15.1115 10.1524C14.8841 10.8748 14.542 11.5559 14.0982 12.1696C13.6566 12.7805 13.1224 13.3187 12.5149 13.7649C11.2509 14.6964 9.72053 15.1962 8.15037 15.1902C7.16774 15.1902 6.21378 15.0008 5.31648 14.6289C4.45357 14.2721 3.6675 13.7524 3.00123 13.0982C2.33797 12.4501 1.80782 11.6786 1.44061 10.827C1.06171 9.94927 0.867032 9.00311 0.868635 8.04709C0.868635 7.0818 1.0613 6.1465 1.44061 5.26653C1.80783 4.41498 2.33798 3.64342 3.00123 2.99528C3.6675 2.34109 4.45357 1.82142 5.31648 1.46466C6.21475 1.09219 7.17794 0.901415 8.15037 0.903351C9.73898 0.903351 11.2483 1.396 12.5149 2.32797C13.1229 2.77404 13.6575 3.31227 14.0995 3.92324C14.5431 4.53697 14.885 5.2181 15.1121 5.9405L15.1161 5.95384C14.7154 6.23833 14.2535 6.42467 13.7675 6.49782C13.8742 6.76181 13.9542 7.0338 14.0042 7.30912L14.0062 7.32245C14.5947 7.21795 15.1524 6.98287 15.6381 6.63448C16.1028 6.29716 16.0134 5.91584 15.9428 5.68985C14.9175 2.4233 11.8162 0.0500488 8.15104 0.0500488C3.6492 0.0507155 0 3.63059 0 8.04643C0 12.4616 3.6492 16.0415 8.15037 16.0415C11.8169 16.0415 14.9168 13.6682 15.9421 10.4017C16.0128 10.177 16.1028 9.79636 15.6374 9.45838C15.1519 9.11028 14.5945 8.87543 14.0062 8.77107C14.0923 8.29279 14.0923 7.80297 14.0062 7.32469C13.7413 7.37282 13.4727 7.39692 13.2035 7.39669C11.6378 7.39669 10.9801 6.82483 10.3899 6.31169C9.90963 5.89411 9.4741 5.51542 8.63035 5.51542H7.92971C6.63909 5.51542 5.78978 6.42006 5.78978 7.57735V8.51865C5.78978 8.52995 5.78986 8.54123 5.79003 8.55248C5.80683 9.69372 6.65136 10.5797 7.9297 10.5797H8.62968C9.47381 10.5797 9.90938 10.2008 10.3896 9.78298C10.9797 9.26969 11.6372 8.69772 13.2028 8.69772C13.4723 8.69786 13.7411 8.7224 14.0061 8.77105L14.0061 8.7713ZM6.33784 11.0234C6.32663 11.017 6.31546 11.0105 6.30435 11.0039C6.10527 10.8859 5.92184 10.7447 5.75778 10.5817C5.21847 10.0463 4.92114 9.31303 4.92114 8.51773V7.57643C4.92114 6.78112 5.21847 6.04782 5.75778 5.5125C6.30976 4.96385 7.08107 4.66187 7.9297 4.66187H8.63034C9.80291 4.66187 10.4475 5.22182 10.9653 5.67166L10.9663 5.6725C11.5029 6.13981 11.9676 6.54313 13.2028 6.54313C13.3915 6.54322 13.5798 6.5285 13.7662 6.49913C13.7662 6.49933 13.7663 6.49952 13.7664 6.49971C13.7668 6.49965 13.7671 6.49959 13.7675 6.49953L13.7628 6.48887C13.6886 6.30852 13.6017 6.13365 13.5029 5.96555L12.6762 4.56094C11.9182 3.27232 10.5163 2.47901 9.00035 2.47901H7.34707C5.83046 2.47901 4.42918 3.27298 3.67054 4.56094L2.8439 5.96555C2.47159 6.59619 2.27521 7.31514 2.27521 8.04748C2.27521 8.77982 2.47159 9.49876 2.8439 10.1294L3.67054 11.534C4.42851 12.8226 5.83046 13.6159 7.34707 13.6159H9.00035C10.5163 13.6159 11.9176 12.822 12.6762 11.534L13.5029 10.1294C13.6028 9.95941 13.6895 9.78475 13.7628 9.60609L13.7668 9.59542C13.5807 9.56607 13.3926 9.55136 13.2042 9.55142C11.9682 9.55142 11.5043 9.95408 10.9663 10.4214C10.449 10.872 9.80432 11.432 8.63036 11.432H7.93039C7.34777 11.432 6.80161 11.29 6.33784 11.0234Z" fill="#FF00FF"/>
</g>
<defs>
<clipPath id="clip0_2179_3622">
<rect width="16" height="16" fill="white"/>
</clipPath>
</defs>
</svg>
