<svg width="16" height="16" viewBox="0 0 16 16" fill="none" xmlns="http://www.w3.org/2000/svg">
<path fill-rule="evenodd" clip-rule="evenodd" d="M5.5 0.25C5.91421 0.25 6.25 0.585786 6.25 1V1.5H9.75V1C9.75 0.585786 10.0858 0.25 10.5 0.25C10.9142 0.25 11.25 0.585786 11.25 1V1.5H11.5C13.1569 1.5 14.5 2.84315 14.5 4.5V11.5C14.5 13.1569 13.1569 14.5 11.5 14.5H4.5C2.84315 14.5 1.5 13.1569 1.5 11.5V4.5C1.5 2.84315 2.84315 1.5 4.5 1.5H4.75V1C4.75 0.585786 5.08579 0.25 5.5 0.25ZM9.75 3V6C9.75 6.41421 10.0858 6.75 10.5 6.75C10.9142 6.75 11.25 6.41421 11.25 6V3H11.5C12.3284 3 13 3.67157 13 4.5V11.5C13 12.3284 12.3284 13 11.5 13H4.5C3.67157 13 3 12.3284 3 11.5V4.5C3 3.67157 3.67157 3 4.5 3H4.75V6C4.75 6.41421 5.08579 6.75 5.5 6.75C5.91421 6.75 6.25 6.41421 6.25 6V3H9.75Z" fill="#FF00FF"/>
</svg>
