<svg width="16" height="16" viewBox="0 0 16 16" fill="none" xmlns="http://www.w3.org/2000/svg">
<g clip-path="url(#clip0_2179_3621)">
<path fill-rule="evenodd" clip-rule="evenodd" d="M14.0061 8.7713C13.7441 8.72331 13.4755 8.69931 13.2029 8.69931C11.6377 8.69931 10.9801 9.27102 10.39 9.78411C9.90957 10.2018 9.47387 10.5806 8.62968 10.5806H7.92971C6.63842 10.5806 5.78978 9.67594 5.78978 8.51865V7.57735C5.78978 6.42006 6.63909 5.51542 7.92971 5.51542H8.63035C9.4741 5.51542 9.90963 5.89411 10.3899 6.31169C10.9801 6.82483 11.6378 7.39669 13.2035 7.39669C13.4727 7.39692 13.7413 7.37282 14.0062 7.32469C14.0923 7.80297 14.0923 8.29279 14.0062 8.77107C14.5945 8.87543 15.1519 9.11028 15.6374 9.45838C16.1028 9.79636 16.0128 10.177 15.9421 10.4017C14.9168 13.6682 11.8169 16.0415 8.15037 16.0415C3.6492 16.0415 0 12.4616 0 8.04643C0 3.63059 3.6492 0.0507155 8.15104 0.0500488C11.8162 0.0500488 14.9175 2.4233 15.9428 5.68985C16.0134 5.91584 16.1028 6.29716 15.6381 6.63448C15.1524 6.98287 14.5947 7.21795 14.0062 7.32245L14.0042 7.30912C13.9542 7.0338 13.8742 6.76181 13.7675 6.49782C14.2535 6.42467 14.7154 6.23833 15.1161 5.95384L15.1121 5.9405C14.885 5.2181 14.5431 4.53697 14.0995 3.92324C13.6575 3.31227 13.1229 2.77404 12.5149 2.32797C11.2483 1.396 9.73898 0.903351 8.15037 0.903351C7.17794 0.901415 6.21475 1.09219 5.31648 1.46466C4.45357 1.82142 3.6675 2.34109 3.00123 2.99528C2.33798 3.64342 1.80783 4.41498 1.44061 5.26653C1.0613 6.1465 0.868635 7.0818 0.868635 8.04709C0.867032 9.00311 1.06171 9.94927 1.44061 10.827C1.80782 11.6786 2.33797 12.4501 3.00123 13.0982C3.6675 13.7524 4.45357 14.2721 5.31648 14.6289C6.21378 15.0008 7.16774 15.1902 8.15037 15.1902C9.72053 15.1962 11.2509 14.6964 12.5149 13.7649C13.1224 13.3187 13.6566 12.7805 14.0982 12.1696C14.542 11.5559 14.8841 10.8748 15.1115 10.1524C15.1119 10.1509 15.1122 10.1495 15.1126 10.1481C15.1133 10.1449 15.1141 10.1418 15.1155 10.139C14.7144 9.85471 14.2523 9.6684 13.7662 9.59504C13.8731 9.33375 13.9526 9.06208 14.0035 8.7844L14.0061 8.7713ZM10.9663 10.4214C10.449 10.872 9.80432 11.432 8.63036 11.432H7.93039C7.08175 11.432 6.31044 11.1307 5.75846 10.5821C5.21915 10.0461 4.92183 9.3141 4.92183 8.51813V7.57749C4.92183 6.78152 5.21915 6.04822 5.75846 5.5129C6.31044 4.96492 7.08175 4.66227 7.92972 4.66227H8.63036C9.80271 4.66227 10.4472 5.22204 10.9642 5.67105L10.9663 5.6729C11.5036 6.14021 11.9682 6.5442 13.2042 6.5442C13.3955 6.5442 13.5842 6.52887 13.7675 6.49953L13.7628 6.48887C13.6886 6.30852 13.6017 6.13365 13.5029 5.96555L12.6762 4.56094C11.9182 3.27232 10.5163 2.47901 9.00035 2.47901H7.34707C5.83046 2.47901 4.42918 3.27298 3.67054 4.56094L2.8439 5.96555C2.47159 6.59619 2.27521 7.31514 2.27521 8.04748C2.27521 8.77982 2.47159 9.49876 2.8439 10.1294L3.67054 11.534C4.42851 12.8226 5.83046 13.6159 7.34707 13.6159H9.00035C10.5163 13.6159 11.9176 12.822 12.6762 11.534L13.5029 10.1294C13.6028 9.95941 13.6895 9.78475 13.7628 9.60609L13.7668 9.59542C13.5807 9.56607 13.3926 9.55136 13.2042 9.55142C11.9682 9.55142 11.5043 9.95408 10.9663 10.4214Z" fill="#006BFF"/>
<path d="M13.7662 6.49913C13.5798 6.5285 13.3915 6.54322 13.2028 6.54313C11.9676 6.54313 11.5029 6.13981 10.9663 5.6725C10.4483 5.22251 9.80363 4.66187 8.63034 4.66187H7.9297C7.08107 4.66187 6.30976 4.96385 5.75778 5.5125C5.21847 6.04782 4.92114 6.78112 4.92114 7.57643V8.51773C4.92114 9.31303 5.21847 10.0463 5.75778 10.5817C6.30976 11.1303 7.08107 11.4316 7.9297 11.4316H8.62968C9.8043 11.4316 10.4483 10.8716 10.9663 10.421C11.5036 9.95434 11.9676 9.55036 13.2028 9.55036C13.3955 9.55036 13.5828 9.56569 13.7668 9.59435C13.8742 9.3317 13.9535 9.05971 14.0035 8.78438L14.0061 8.77105C13.7411 8.7224 13.4723 8.69786 13.2028 8.69772C10.3629 8.69772 10.5109 10.5797 8.62968 10.5797H7.9297C6.63841 10.5797 5.78978 9.67568 5.78978 8.51773V7.57576C5.78978 6.41847 6.63841 5.51383 7.9297 5.51383H8.62968C10.5109 5.51383 10.3629 7.3951 13.2028 7.3951C13.4755 7.3951 13.7442 7.3711 14.0061 7.3231L14.0035 7.30977C13.9529 7.03209 13.8729 6.76042 13.7662 6.49913Z" fill="#0AE8F0"/>
</g>
<defs>
<clipPath id="clip0_2179_3621">
<rect width="16" height="16" fill="white"/>
</clipPath>
</defs>
</svg>
