<svg width="16" height="16" viewBox="0 0 16 16" fill="none" xmlns="http://www.w3.org/2000/svg">
<path fill-rule="evenodd" clip-rule="evenodd" d="M3.74136 2.75006L3.6327 2.75C3.05018 2.74958 2.59971 2.74925 2.21086 2.86575C1.32463 3.13126 0.631307 3.82459 0.365793 4.71081C0.249293 5.09966 0.249624 5.55013 0.250051 6.13265L0.250103 6.24132V9.68187L0.250102 9.72883C0.250078 10.5435 0.250058 11.2231 0.316745 11.7668C0.386895 12.3387 0.540491 12.8609 0.921793 13.3009C1.00755 13.3999 1.10027 13.4926 1.19923 13.5784C1.63928 13.9597 2.16149 14.1133 2.7334 14.1834C3.27708 14.2501 3.95662 14.2501 4.77132 14.2501H4.77133H4.81829H11.0001L11.0521 14.2501H11.0521C11.9506 14.2501 12.6998 14.2501 13.2946 14.1701C13.9224 14.0857 14.4892 13.9001 14.9446 13.4446C15.4001 12.9891 15.5858 12.4223 15.6702 11.7945C15.7502 11.1998 15.7501 10.4506 15.7501 9.55208V9.55205L15.7501 9.50006V7.50006L15.7501 7.44806V7.44803C15.7501 6.54956 15.7502 5.80035 15.6702 5.20558C15.5858 4.57778 15.4001 4.01098 14.9446 3.55551C14.4892 3.10004 13.9224 2.91437 13.2946 2.82997C12.6998 2.75 11.9506 2.75003 11.0521 2.75006L11.0521 2.75006L11.0001 2.75006H8.0001H3.74136ZM2.64136 4.30264C2.79033 4.25801 2.99784 4.25006 3.74136 4.25006H8.0001H11.0001C11.9641 4.25006 12.6117 4.25165 13.0947 4.31659C13.5562 4.37863 13.7537 4.48586 13.884 4.61617C14.0143 4.74649 14.1215 4.94399 14.1836 5.40545C14.2485 5.88849 14.2501 6.53605 14.2501 7.50006V9.50006C14.2501 10.4641 14.2485 11.1116 14.1836 11.5947C14.1215 12.0561 14.0143 12.2536 13.884 12.3839C13.7537 12.5143 13.5562 12.6215 13.0947 12.6835C12.6117 12.7485 11.9641 12.7501 11.0001 12.7501H4.81829C3.94443 12.7501 3.35758 12.7487 2.91602 12.6946C2.49227 12.6426 2.30524 12.5519 2.18153 12.4447C2.13654 12.4058 2.0944 12.3636 2.05542 12.3186C1.94822 12.1949 1.85756 12.0079 1.80559 11.5841C1.75143 11.1426 1.7501 10.5557 1.7501 9.68187V6.24132C1.7501 5.4978 1.75806 5.29028 1.80269 5.14131C1.92338 4.73848 2.23853 4.42333 2.64136 4.30264ZM6.5001 11.0001C7.88082 11.0001 9.0001 9.88077 9.0001 8.50006C9.0001 7.11935 7.88082 6.00006 6.5001 6.00006C5.11939 6.00006 4.0001 7.11935 4.0001 8.50006C4.0001 9.88077 5.11939 11.0001 6.5001 11.0001Z" fill="#FF00FF"/>
<path opacity="0.4" fill-rule="evenodd" clip-rule="evenodd" d="M8.85446 2.25116C8.99994 2.61145 8.99994 3.0743 8.99994 4H3.04541C3.04541 3.0743 3.04541 2.61145 3.19089 2.25116C3.39413 1.74783 3.79324 1.34872 4.29657 1.14548C4.65686 1 5.11213 1 6.02267 1C6.93322 1 7.38849 1 7.74878 1.14548C8.25211 1.34872 8.65122 1.74783 8.85446 2.25116ZM12.2499 7.5C12.9403 7.5 13.4999 6.94036 13.4999 6.25C13.4999 5.55964 12.9403 5 12.2499 5C11.5596 5 10.9999 5.55964 10.9999 6.25C10.9999 6.94036 11.5596 7.5 12.2499 7.5Z" fill="#FF00FF"/>
</svg>
