<svg width="16" height="16" viewBox="0 0 16 16" fill="none" xmlns="http://www.w3.org/2000/svg">
<path fill-rule="evenodd" clip-rule="evenodd" d="M3.74132 2.75001L3.63265 2.74996C3.05013 2.74953 2.59966 2.7492 2.21081 2.8657C1.32459 3.13121 0.63126 3.82454 0.365746 4.71077C0.249246 5.09961 0.249576 5.55008 0.250003 6.13261L0.250056 6.24127V9.68183L0.250055 9.72878C0.250031 10.5435 0.250011 11.223 0.316698 11.7667C0.386848 12.3386 0.540444 12.8608 0.921746 13.3009C1.0075 13.3998 1.10022 13.4926 1.19919 13.5783C1.63923 13.9596 2.16144 14.1132 2.73335 14.1834C3.27703 14.2501 3.95657 14.25 4.77127 14.25H4.77128H4.81824H11.0001L11.0521 14.25H11.0521C11.9506 14.25 12.6998 14.2501 13.2945 14.1701C13.9223 14.0857 14.4891 13.9 14.9446 13.4446C15.4001 12.9891 15.5857 12.4223 15.6701 11.7945C15.7501 11.1997 15.7501 10.4505 15.7501 9.55204V9.552L15.7501 9.50001V7.50001L15.7501 7.44802V7.44798C15.7501 6.54952 15.7501 5.80031 15.6701 5.20553C15.5857 4.57774 15.4001 4.01094 14.9446 3.55547C14.4891 3.1 13.9223 2.91433 13.2945 2.82992C12.6998 2.74995 11.9506 2.74998 11.0521 2.75001L11.0521 2.75001L11.0001 2.75001H8.00006H3.74132ZM2.64131 4.3026C2.79028 4.25796 2.9978 4.25001 3.74132 4.25001H8.00006H11.0001C11.9641 4.25001 12.6116 4.2516 13.0947 4.31655C13.5561 4.37859 13.7536 4.48581 13.8839 4.61613C14.0143 4.74644 14.1215 4.94394 14.1835 5.4054C14.2485 5.88844 14.2501 6.536 14.2501 7.50001V9.50001C14.2501 10.464 14.2485 11.1116 14.1835 11.5946C14.1215 12.0561 14.0143 12.2536 13.8839 12.3839C13.7536 12.5142 13.5561 12.6214 13.0947 12.6835C12.6116 12.7484 11.9641 12.75 11.0001 12.75H4.81824C3.94439 12.75 3.35753 12.7487 2.91597 12.6945C2.49223 12.6426 2.30519 12.5519 2.18148 12.4447C2.13649 12.4057 2.09435 12.3636 2.05537 12.3186C1.94817 12.1949 1.85752 12.0078 1.80554 11.5841C1.75138 11.1425 1.75006 10.5557 1.75006 9.68183V6.24127C1.75006 5.49775 1.75801 5.29024 1.80264 5.14126C1.92333 4.73843 2.23848 4.42328 2.64131 4.3026ZM6.50006 11C7.88077 11 9.00006 9.88072 9.00006 8.50001C9.00006 7.1193 7.88077 6.00001 6.50006 6.00001C5.11934 6.00001 4.00006 7.1193 4.00006 8.50001C4.00006 9.88072 5.11934 11 6.50006 11Z" fill="#FF00FF"/>
<path opacity="0.4" fill-rule="evenodd" clip-rule="evenodd" d="M8.85446 2.25116C8.99994 2.61145 8.99994 3.0743 8.99994 4H3.04541C3.04541 3.0743 3.04541 2.61145 3.19089 2.25116C3.39413 1.74783 3.79324 1.34872 4.29657 1.14548C4.65686 1 5.11213 1 6.02267 1C6.93322 1 7.38849 1 7.74878 1.14548C8.25211 1.34872 8.65122 1.74783 8.85446 2.25116ZM12.2499 7.5C12.9403 7.5 13.4999 6.94036 13.4999 6.25C13.4999 5.55964 12.9403 5 12.2499 5C11.5596 5 10.9999 5.55964 10.9999 6.25C10.9999 6.94036 11.5596 7.5 12.2499 7.5Z" fill="#FF00FF"/>
</svg>
