<svg width="16" height="16" viewBox="0 0 16 16" fill="none" xmlns="http://www.w3.org/2000/svg">
<path opacity="0.4" d="M1 3H15V6H1V3Z" fill="#FF00FF"/>
<path fill-rule="evenodd" clip-rule="evenodd" d="M2 3.5H14C14.2761 3.5 14.5 3.72386 14.5 4V5.75H1.5V4C1.5 3.72386 1.72386 3.5 2 3.5ZM1.5 7.25V12C1.5 12.2761 1.72386 12.5 2 12.5H14C14.2761 12.5 14.5 12.2761 14.5 12V7.25H1.5ZM0 4C0 2.89543 0.895431 2 2 2H14C15.1046 2 16 2.89543 16 4V12C16 13.1046 15.1046 14 14 14H2C0.895431 14 0 13.1046 0 12V4Z" fill="#FF00FF"/>
</svg>
