<svg width="16" height="16" viewBox="0 0 16 16" fill="none" xmlns="http://www.w3.org/2000/svg">
<path fill-rule="evenodd" clip-rule="evenodd" d="M2.6 4.80001C3.48366 4.80001 4.2 4.08366 4.2 3.20001C4.2 2.31635 3.48366 1.60001 2.6 1.60001C1.71634 1.60001 1 2.31635 1 3.20001C1 4.08366 1.71634 4.80001 2.6 4.80001ZM5.75 3C5.75 2.58579 6.08579 2.25 6.5 2.25H14.5C14.9142 2.25 15.25 2.58579 15.25 3C15.25 3.41421 14.9142 3.75 14.5 3.75H6.5C6.08579 3.75 5.75 3.41421 5.75 3ZM6.5 7.25C6.08579 7.25 5.75 7.58579 5.75 8C5.75 8.41421 6.08579 8.75 6.5 8.75H14.5C14.9142 8.75 15.25 8.41421 15.25 8C15.25 7.58579 14.9142 7.25 14.5 7.25H6.5ZM6.5 12.25C6.08579 12.25 5.75 12.5858 5.75 13C5.75 13.4142 6.08579 13.75 6.5 13.75H14.5C14.9142 13.75 15.25 13.4142 15.25 13C15.25 12.5858 14.9142 12.25 14.5 12.25H6.5ZM4.2 12.8C4.2 13.6837 3.48366 14.4 2.6 14.4C1.71634 14.4 1 13.6837 1 12.8C1 11.9164 1.71634 11.2 2.6 11.2C3.48366 11.2 4.2 11.9164 4.2 12.8ZM2.6 9.60001C3.48366 9.60001 4.2 8.88366 4.2 8.00001C4.2 7.11635 3.48366 6.40001 2.6 6.40001C1.71634 6.40001 1 7.11635 1 8.00001C1 8.88366 1.71634 9.60001 2.6 9.60001Z" fill="#FF00FF"/>
</svg>
