<svg width="16" height="16" viewBox="0 0 16 16" fill="none" xmlns="http://www.w3.org/2000/svg">
<path fill-rule="evenodd" clip-rule="evenodd" d="M6.5 4H9.5C10.0523 4 10.5 3.55228 10.5 3V2.75C11.1904 2.75 11.75 3.30964 11.75 4V12.5C11.75 13.1904 11.1904 13.75 10.5 13.75H5.5C4.80964 13.75 4.25 13.1904 4.25 12.5V4C4.25 3.30964 4.80964 2.75 5.5 2.75V3C5.5 3.55228 5.94772 4 6.5 4ZM10.4685 1.25C10.3575 0.818693 9.96596 0.5 9.5 0.5H6.5C6.03404 0.5 5.64251 0.818693 5.5315 1.25H5.5C3.98122 1.25 2.75 2.48122 2.75 4V12.5C2.75 14.0188 3.98122 15.25 5.5 15.25H10.5C12.0188 15.25 13.25 14.0188 13.25 12.5V4C13.25 2.48122 12.0188 1.25 10.5 1.25H10.4685Z" fill="#FF00FF"/>
</svg>
