<svg width="16" height="16" viewBox="0 0 16 16" fill="none" xmlns="http://www.w3.org/2000/svg">
<path opacity="0.4" d="M9.5 5H6.5C5.94772 5 5.5 4.55228 5.5 4V2.5C5.5 1.94772 5.94772 1.5 6.5 1.5H9.5C10.0523 1.5 10.5 1.94772 10.5 2.5V4C10.5 4.55228 10.0523 5 9.5 5Z" fill="#FF00FF"/>
<path fill-rule="evenodd" clip-rule="evenodd" d="M4.41784 1.7512C4.69846 1.15932 5.30143 0.75 6 0.75H10C10.6986 0.75 11.3015 1.15932 11.5822 1.75121C13.0629 1.79466 14.25 3.0087 14.25 4.5V12C14.25 13.5188 13.0188 14.75 11.5 14.75H4.5C2.98122 14.75 1.75 13.5188 1.75 12V4.5C1.75 3.0087 2.93706 1.79465 4.41784 1.7512ZM4.25 3.275C3.67944 3.39082 3.25 3.89526 3.25 4.5V12C3.25 12.6904 3.80964 13.25 4.5 13.25H11.5C12.1904 13.25 12.75 12.6904 12.75 12V4.5C12.75 3.89526 12.3206 3.39082 11.75 3.275V3.5C11.75 4.4665 10.9665 5.25 10 5.25H6C5.0335 5.25 4.25 4.4665 4.25 3.5V3.275ZM10.25 2.5C10.25 2.36193 10.1381 2.25 10 2.25H6C5.86193 2.25 5.75 2.36193 5.75 2.5V3.5C5.75 3.63807 5.86193 3.75 6 3.75H10C10.1381 3.75 10.25 3.63807 10.25 3.5V2.5Z" fill="#FF00FF"/>
</svg>
