<svg width="16" height="16" viewBox="0 0 16 16" fill="none" xmlns="http://www.w3.org/2000/svg">
<g clip-path="url(#clip0_2257_3155)">
<path fill-rule="evenodd" clip-rule="evenodd" d="M8 3.25C8.41421 3.25 8.75 3.58579 8.75 4V7.5C8.75 7.63807 8.86193 7.75 9 7.75H11.5C11.9142 7.75 12.25 8.08579 12.25 8.5C12.25 8.91421 11.9142 9.25 11.5 9.25H9C8.0335 9.25 7.25 8.4665 7.25 7.5V4C7.25 3.58579 7.58579 3.25 8 3.25ZM0.75 8C0.75 3.99594 3.99594 0.75 8 0.75C12.0041 0.75 15.25 3.99594 15.25 8C15.25 12.0041 12.0041 15.25 8 15.25C3.99594 15.25 0.75 12.0041 0.75 8ZM8 2.25C4.82436 2.25 2.25 4.82436 2.25 8C2.25 11.1756 4.82436 13.75 8 13.75C11.1756 13.75 13.75 11.1756 13.75 8C13.75 4.82436 11.1756 2.25 8 2.25Z" fill="#FF00FF"/>
</g>
<defs>
<clipPath id="clip0_2257_3155">
<rect width="16" height="16" fill="white"/>
</clipPath>
</defs>
</svg>
