<svg width="16" height="16" viewBox="0 0 16 16" fill="none" xmlns="http://www.w3.org/2000/svg">
<g clip-path="url(#clip0_2258_3898)">
<path fill-rule="evenodd" clip-rule="evenodd" d="M8 0.25C3.71979 0.25 0.25 3.71979 0.25 8C0.25 12.2802 3.71979 15.75 8 15.75C12.2802 15.75 15.75 12.2802 15.75 8C15.75 3.71979 12.2802 0.25 8 0.25ZM1.75 8C1.75 4.54822 4.54822 1.75 8 1.75C11.4518 1.75 14.25 4.54822 14.25 8C14.25 11.4518 11.4518 14.25 8 14.25C4.54822 14.25 1.75 11.4518 1.75 8ZM8.75 4C8.75 3.58579 8.41421 3.25 8 3.25C7.58579 3.25 7.25 3.58579 7.25 4V7.5C7.25 8.4665 8.0335 9.25 9 9.25H11.5C11.9142 9.25 12.25 8.91421 12.25 8.5C12.25 8.08579 11.9142 7.75 11.5 7.75H9C8.86193 7.75 8.75 7.63807 8.75 7.5V4Z" fill="#FF00FF"/>
</g>
<defs>
<clipPath id="clip0_2258_3898">
<rect width="16" height="16" fill="white"/>
</clipPath>
</defs>
</svg>
