<svg width="16" height="16" viewBox="0 0 16 16" fill="none" xmlns="http://www.w3.org/2000/svg">
<path fill-rule="evenodd" clip-rule="evenodd" d="M7.46967 5.96967C7.76256 5.67678 8.23744 5.67678 8.53033 5.96967L11.5303 8.96967C11.8232 9.26256 11.8232 9.73744 11.5303 10.0303C11.2374 10.3232 10.7626 10.3232 10.4697 10.0303L8.75 8.31066V14C8.75 14.4142 8.41421 14.75 8 14.75C7.58579 14.75 7.25 14.4142 7.25 14V8.31066L5.53033 10.0303C5.23744 10.3232 4.76256 10.3232 4.46967 10.0303C4.17678 9.73744 4.17678 9.26256 4.46967 8.96967L7.46967 5.96967Z" fill="#FF00FF"/>
<path fill-rule="evenodd" clip-rule="evenodd" d="M16 9.08875C15.9948 6.72384 14.3477 4.74452 12.1382 4.23013C11.4507 2.62447 9.85745 1.5 8 1.5C6.36741 1.5 4.9404 2.36879 4.15186 3.66669C1.76555 4.26825 0 6.42732 0 9C0 10.4934 0.595163 11.8477 1.56123 12.8388L2.62201 11.778C1.92733 11.0585 1.5 10.0791 1.5 9C1.5 6.90338 3.11308 5.18351 5.16588 5.01376C5.57381 3.84138 6.68865 3 8 3C9.52127 3 10.7781 4.13231 10.9736 5.60011L11 5.60001C12.933 5.60001 14.5 7.16701 14.5 9.10001C14.5 10.1428 14.0439 11.0792 13.3203 11.7204L14.3824 12.7824C15.3742 11.8709 15.9968 10.5638 16 9.11126V9.08875Z" fill="#FF00FF"/>
</svg>
