<svg width="16" height="16" viewBox="0 0 16 16" fill="none" xmlns="http://www.w3.org/2000/svg">
<path fill-rule="evenodd" clip-rule="evenodd" d="M11.5406 6.04149C11.4176 6.02242 11.2924 6.00976 11.1656 6.00385C11.1107 6.00129 11.0555 6 11 6C10.9583 6 10.9169 6.00073 10.8756 6.00217C10.7485 6.00661 10.6231 6.01783 10.4998 6.03547L10.5 6C10.5 5.69362 10.4541 5.39797 10.3687 5.11955C9.99253 3.89233 8.85047 3 7.5 3C5.84315 3 4.5 4.34315 4.5 6L4.5002 6.03542C2.80396 6.27794 1.5 7.73669 1.5 9.5C1.5 11.433 3.067 13 5 13H11C12.933 13 14.5 11.433 14.5 9.5C14.5 7.75085 13.2169 6.30138 11.5406 6.04149ZM11.764 4.558C11.1629 2.77998 9.48093 1.5 7.5 1.5C5.41038 1.5 3.65341 2.92429 3.14696 4.85504C1.30268 5.59142 0 7.39267 0 9.5C0 12.2614 2.23858 14.5 5 14.5H11C13.7614 14.5 16 12.2614 16 9.5C16 6.99834 14.1628 4.92579 11.764 4.558Z" fill="#FF00FF"/>
</svg>
