<svg width="16" height="16" viewBox="0 0 16 16" fill="none" xmlns="http://www.w3.org/2000/svg">
<path fill-rule="evenodd" clip-rule="evenodd" d="M12.1382 4.23013C14.3477 4.74452 15.9948 6.72384 16 9.08875V9.11126C15.9968 10.5638 15.3742 11.8709 14.3824 12.7824L13.3203 11.7204C14.0439 11.0792 14.5 10.1428 14.5 9.10001C14.5 7.16701 12.933 5.60001 11 5.60001L10.9736 5.60011C10.7781 4.13231 9.52127 3 8 3C6.68865 3 5.57381 3.84138 5.16588 5.01376C3.11308 5.18351 1.5 6.90338 1.5 9C1.5 10.0791 1.92733 11.0585 2.62201 11.778L1.56123 12.8388C0.595163 11.8477 0 10.4934 0 9C0 6.42732 1.76555 4.26825 4.15186 3.66669C4.9404 2.36879 6.36741 1.5 8 1.5C9.85745 1.5 11.4507 2.62447 12.1382 4.23013ZM8.75 6.5C8.75 6.08579 8.41421 5.75 8 5.75C7.58579 5.75 7.25 6.08579 7.25 6.5V12.1893L5.53033 10.4697C5.23744 10.1768 4.76256 10.1768 4.46967 10.4697C4.17678 10.7626 4.17678 11.2374 4.46967 11.5303L7.46967 14.5303C7.76256 14.8232 8.23744 14.8232 8.53033 14.5303L11.5303 11.5303C11.8232 11.2374 11.8232 10.7626 11.5303 10.4697C11.2374 10.1768 10.7626 10.1768 10.4697 10.4697L8.75 12.1893V6.5Z" fill="#FF00FF"/>
</svg>
