<svg width="16" height="16" viewBox="0 0 16 16" fill="none" xmlns="http://www.w3.org/2000/svg">
<path fill-rule="evenodd" clip-rule="evenodd" d="M10.2116 3.73718C10.3426 3.34422 10.1302 2.91948 9.73727 2.78849C9.34431 2.65751 8.91957 2.86988 8.78859 3.26283L5.78859 12.2628C5.6576 12.6558 5.86997 13.0805 6.26293 13.2115C6.65589 13.3425 7.08063 13.1301 7.21161 12.7372L10.2116 3.73718ZM3.93603 3.8897C4.27309 4.13046 4.35116 4.59887 4.1104 4.93593L2.02557 7.8547C1.96348 7.94162 1.96348 8.05839 2.02557 8.14531L4.1104 11.0641C4.35116 11.4011 4.27309 11.8695 3.93603 12.1103C3.59897 12.3511 3.13056 12.273 2.8898 11.9359L0.80497 9.01717C0.370349 8.4087 0.370348 7.59131 0.80497 6.98284L2.8898 4.06408C3.13056 3.72702 3.59897 3.64895 3.93603 3.8897ZM12.0642 3.8897C12.4012 3.64895 12.8696 3.72702 13.1104 4.06408L15.1952 6.98284C15.6299 7.59131 15.6299 8.4087 15.1952 9.01717L13.1104 11.9359C12.8696 12.273 12.4012 12.3511 12.0642 12.1103C11.7271 11.8695 11.649 11.4011 11.8898 11.0641L13.9746 8.14531C14.0367 8.05839 14.0367 7.94162 13.9746 7.8547L11.8898 4.93593C11.649 4.59887 11.7271 4.13046 12.0642 3.8897Z" fill="#FF00FF"/>
</svg>
