<svg width="16" height="16" viewBox="0 0 16 16" fill="none" xmlns="http://www.w3.org/2000/svg">
<g clip-path="url(#clip0_2371_2409)">
<path fill-rule="evenodd" clip-rule="evenodd" d="M10.3043 2.34997C10.4009 2.2643 10.5415 2.25006 10.6533 2.31463L11.5981 2.8601C11.71 2.92466 11.7679 3.05354 11.742 3.18005L11.6151 3.80029C11.5131 4.29892 11.6576 4.7812 11.921 5.14379C12.0212 5.28165 12.1146 5.4255 12.201 5.57502C12.2873 5.72454 12.3651 5.87739 12.4344 6.03307C12.6167 6.44251 12.9621 6.8088 13.445 6.96975L14.0456 7.16995C14.1681 7.21078 14.2507 7.32542 14.2507 7.45455L14.2507 8.54549C14.2507 8.67462 14.1681 8.78926 14.0456 8.83009L13.4447 9.03038C12.9611 9.1916 12.6153 9.55883 12.4333 9.96941C12.2946 10.2822 12.1234 10.5796 11.9221 10.8563C11.6583 11.2189 11.5132 11.7016 11.6154 12.201L11.742 12.82C11.7679 12.9465 11.71 13.0754 11.5981 13.1399L10.6533 13.6854C10.5415 13.75 10.4009 13.7357 10.3043 13.6501L9.83156 13.2309C9.4502 12.8927 8.9596 12.777 8.51365 12.8241C8.17339 12.8601 7.83025 12.8598 7.48999 12.8234C7.04343 12.7757 6.55249 12.8916 6.17104 13.2299L5.69716 13.6501C5.60055 13.7357 5.45995 13.75 5.34812 13.6854L4.40334 13.1399C4.29151 13.0754 4.23355 12.9465 4.25943 12.82L4.38636 12.1998C4.48839 11.7011 4.34389 11.2188 4.08045 10.8562C3.98028 10.7184 3.88684 10.5745 3.80051 10.425C3.71418 10.2755 3.63633 10.1226 3.56702 9.96697C3.38473 9.55753 3.03932 9.19125 2.55647 9.03029L1.95586 8.83009C1.83336 8.78926 1.75073 8.67462 1.75073 8.54549V7.45455C1.75073 7.32542 1.83336 7.21078 1.95586 7.16995L2.55672 6.96966C3.04037 6.80845 3.38618 6.44121 3.56817 6.03063C3.70683 5.71779 3.8781 5.42045 4.07938 5.14377C4.34319 4.78113 4.48829 4.29841 4.3861 3.79906L4.25943 3.18005C4.23355 3.05354 4.29151 2.92466 4.40334 2.8601L5.34812 2.31463C5.45995 2.25006 5.60055 2.2643 5.69716 2.34997L6.16991 2.76918C6.55126 3.10735 7.04187 3.22305 7.48782 3.1759C7.82808 3.13993 8.17122 3.14027 8.51148 3.17661C8.95803 3.2243 9.44898 3.10843 9.83042 2.77019L10.3043 2.34997ZM11.4033 1.01559C10.7324 0.628202 9.88879 0.713631 9.3091 1.22767L8.83522 1.64788C8.81353 1.66712 8.75995 1.69462 8.67076 1.68509C8.22562 1.63755 7.77622 1.63706 7.33012 1.68422C7.24044 1.6937 7.18675 1.66606 7.16511 1.64688L6.69237 1.22767C6.11268 0.71363 5.2691 0.628203 4.59812 1.01559L3.65334 1.56106C2.98237 1.94845 2.63456 2.72172 2.78989 3.48077L2.91656 4.09978C2.92236 4.12811 2.91944 4.18843 2.86639 4.26135C2.6025 4.62411 2.37823 5.01354 2.19683 5.42281C2.16048 5.50482 2.10988 5.53747 2.08238 5.54664L1.48152 5.74692C0.746507 5.99193 0.250732 6.67978 0.250732 7.45455V8.54549C0.250732 9.32026 0.746506 10.0081 1.48152 10.2531L2.08212 10.4533C2.10959 10.4625 2.1602 10.4951 2.1967 10.5771C2.28739 10.7808 2.38905 10.9803 2.50147 11.175C2.6139 11.3697 2.73587 11.5576 2.86693 11.7379C2.91968 11.8105 2.92261 11.8707 2.91681 11.899L2.78989 12.5193C2.63456 13.2783 2.98237 14.0516 3.65334 14.439L4.59812 14.9845C5.2691 15.3718 6.11268 15.2864 6.69237 14.7724L7.16625 14.3522C7.18794 14.3329 7.24151 14.3054 7.33071 14.315C7.77585 14.3625 8.22524 14.363 8.67135 14.3158C8.76102 14.3063 8.81471 14.334 8.83635 14.3532L9.3091 14.7724C9.88879 15.2864 10.7324 15.3718 11.4033 14.9845L12.3481 14.439C13.0191 14.0516 13.3669 13.2783 13.2116 12.5193L13.0849 11.9003C13.0791 11.8719 13.082 11.8116 13.1351 11.7387C13.399 11.3759 13.6232 10.9865 13.8046 10.5772C13.841 10.4952 13.8916 10.4626 13.9191 10.4534L14.5199 10.2531C15.255 10.0081 15.7507 9.32026 15.7507 8.54549L15.7507 7.45455C15.7507 6.67978 15.255 5.99193 14.5199 5.74692L13.9193 5.54672C13.8919 5.53757 13.8413 5.50496 13.8048 5.42298C13.7141 5.21929 13.6124 5.01975 13.5 4.82502C13.3876 4.63029 13.2656 4.44248 13.1345 4.2621C13.0818 4.1895 13.0789 4.12937 13.0847 4.101L13.2116 3.48077C13.3669 2.72172 13.0191 1.94845 12.3481 1.56106L11.4033 1.01559ZM6.25006 8C6.25006 7.0335 7.03356 6.25 8.00006 6.25C8.96656 6.25 9.75006 7.0335 9.75006 8C9.75006 8.9665 8.96656 9.75 8.00006 9.75C7.03356 9.75 6.25006 8.9665 6.25006 8ZM8.00006 4.75C6.20514 4.75 4.75006 6.20508 4.75006 8C4.75006 9.79493 6.20514 11.25 8.00006 11.25C9.79499 11.25 11.2501 9.79493 11.2501 8C11.2501 6.20508 9.79499 4.75 8.00006 4.75Z" fill="#FF00FF"/>
</g>
<defs>
<clipPath id="clip0_2371_2409">
<rect width="16" height="16" fill="white"/>
</clipPath>
</defs>
</svg>
