<svg width="16" height="16" viewBox="0 0 16 16" fill="none" xmlns="http://www.w3.org/2000/svg">
<g clip-path="url(#clip0_2257_3176)">
<path fill-rule="evenodd" clip-rule="evenodd" d="M10.2421 2.27981C10.3689 2.16737 10.5534 2.14868 10.7002 2.23342L11.645 2.77889C11.7918 2.86363 11.8679 3.03278 11.8339 3.19883L12.4768 3.33039L11.8339 3.19883L11.707 3.81906C11.6109 4.28831 11.7466 4.7442 11.9969 5.08867C12.099 5.22919 12.1942 5.37578 12.2821 5.52813C12.3701 5.68048 12.4494 5.83625 12.5201 5.99492C12.6933 6.3839 13.0203 6.72933 13.4746 6.88079L14.0752 7.08099C14.236 7.13459 14.3445 7.28505 14.3445 7.45454L14.3445 8.54547C14.3445 8.71495 14.236 8.86542 14.0752 8.91902L13.4744 9.1193C13.0193 9.27102 12.6919 9.61734 12.519 10.0074C12.3777 10.3262 12.2031 10.6293 11.9979 10.9114C11.7473 11.2559 11.611 11.7123 11.7072 12.1822L11.8339 12.8012C11.8679 12.9672 11.7918 13.1364 11.645 13.2211L10.7002 13.7666C10.5534 13.8513 10.3689 13.8326 10.2421 13.7202L9.76936 13.301C9.41049 12.9828 8.94719 12.8726 8.5235 12.9174C8.17663 12.954 7.82685 12.9537 7.48003 12.9166C7.05581 12.8713 6.5922 12.9817 6.23324 13.3L5.75936 13.7202C5.63256 13.8326 5.44802 13.8513 5.30125 13.7666L4.35647 13.2211C4.20969 13.1364 4.13361 12.9672 4.16759 12.8012L4.29451 12.1809C4.39053 11.7117 4.25488 11.2558 4.0046 10.9113C3.90251 10.7708 3.80728 10.6242 3.71932 10.4719C3.63136 10.3195 3.55202 10.1638 3.48138 10.0051C3.3082 9.61611 2.98121 9.27068 2.52682 9.11922L1.92622 8.91902C1.76543 8.86542 1.65698 8.71496 1.65698 8.54547V7.45454C1.65698 7.28505 1.76543 7.13459 1.92622 7.08099L2.52707 6.88071C2.98221 6.72899 3.30958 6.38267 3.48246 5.99263C3.62379 5.67376 3.79837 5.37067 4.00357 5.0886C4.2542 4.74407 4.39042 4.28775 4.29426 3.81784L4.16759 3.19883C4.13361 3.03279 4.20969 2.86363 4.35647 2.77889L5.30125 2.23342C5.44802 2.14868 5.63256 2.16737 5.75936 2.27981L6.18159 1.80366L5.75936 2.27981L6.23211 2.69902C6.59098 3.01725 7.05428 3.12745 7.47796 3.08266C7.82484 3.04599 8.17462 3.04634 8.52143 3.08337C8.94565 3.12868 9.40926 3.01833 9.76822 2.70003L10.2421 2.27981ZM11.3565 1.09676C10.7204 0.729552 9.92079 0.810531 9.3713 1.2978L8.89742 1.71801C8.85324 1.75718 8.77233 1.79021 8.6608 1.7783C8.22222 1.73146 7.77946 1.73097 7.33998 1.77743C7.22803 1.78927 7.14703 1.75613 7.10291 1.717L6.63017 1.2978C6.08067 0.810531 5.28102 0.729553 4.645 1.09676L3.70022 1.64223C3.06419 2.00944 2.7345 2.74245 2.88173 3.46196L3.0084 4.08097C3.02023 4.13874 3.00842 4.22546 2.9422 4.31649C2.68222 4.67386 2.46127 5.05754 2.28254 5.46079C2.23709 5.56333 2.16803 5.61689 2.11202 5.63556L1.51117 5.83585C0.814435 6.06809 0.344482 6.72011 0.344482 7.45454V8.54547C0.344482 9.27989 0.814435 9.93192 1.51117 10.1642L2.11177 10.3644C2.1677 10.383 2.23673 10.4365 2.28235 10.5389C2.3717 10.7396 2.47187 10.9362 2.58266 11.1281C2.69345 11.32 2.81365 11.5051 2.94278 11.6828C3.00869 11.7735 3.02048 11.8601 3.00866 11.9178L2.88173 12.5381C2.7345 13.2576 3.06419 13.9906 3.70022 14.3578L4.645 14.9032C5.28103 15.2705 6.08067 15.1895 6.63017 14.7022L7.10405 14.282C7.14822 14.2428 7.22913 14.2098 7.34066 14.2217C7.77925 14.2686 8.222 14.269 8.66149 14.2226C8.77343 14.2107 8.85443 14.2439 8.89855 14.283L9.3713 14.7022C9.9208 15.1895 10.7204 15.2705 11.3565 14.9032L12.3012 14.3578C12.9373 13.9906 13.267 13.2576 13.1197 12.5381L12.9931 11.919C12.9812 11.8613 12.993 11.7746 13.0593 11.6835C13.3192 11.3261 13.5402 10.9425 13.7189 10.5392C13.7644 10.4367 13.8334 10.3831 13.8894 10.3644L14.4903 10.1642C15.187 9.93192 15.657 9.27989 15.657 8.54547L15.657 7.45454C15.657 6.72011 15.187 6.06809 14.4903 5.83585L13.8897 5.63564C13.8338 5.617 13.7647 5.56354 13.7191 5.46109C13.6298 5.2604 13.5296 5.06378 13.4188 4.87188C13.308 4.67998 13.1878 4.49492 13.0587 4.31719C12.9928 4.22647 12.981 4.13995 12.9928 4.08219L13.1197 3.46196C13.267 2.74245 12.9373 2.00944 12.3012 1.64223L11.3565 1.09676ZM6.07506 7.99998C6.07506 6.93684 6.93691 6.07498 8.00006 6.07498C9.06321 6.07498 9.92506 6.93684 9.92506 7.99998C9.92506 9.06313 9.06321 9.92498 8.00006 9.92498C6.93691 9.92498 6.07506 9.06313 6.07506 7.99998ZM8.00006 4.92498C6.30179 4.92498 4.92506 6.30171 4.92506 7.99998C4.92506 9.69826 6.30179 11.075 8.00006 11.075C9.69834 11.075 11.0751 9.69826 11.0751 7.99998C11.0751 6.30171 9.69834 4.92498 8.00006 4.92498Z" fill="#FF00FF"/>
</g>
<defs>
<clipPath id="clip0_2257_3176">
<rect width="16" height="16" fill="white"/>
</clipPath>
</defs>
</svg>
