<svg width="16" height="16" viewBox="0 0 16 16" fill="none" xmlns="http://www.w3.org/2000/svg">
<g clip-path="url(#clip0_2288_3425)">
<path fill-rule="evenodd" clip-rule="evenodd" d="M10.3043 2.34996C10.4009 2.26429 10.5415 2.25005 10.6533 2.31461L11.5981 2.86008C11.71 2.92465 11.7679 3.05352 11.742 3.18003L11.6151 3.80027C11.5131 4.29891 11.6576 4.78119 11.921 5.14378C12.0212 5.28164 12.1146 5.42548 12.201 5.57501C12.2873 5.72453 12.3651 5.87738 12.4344 6.03306C12.6167 6.4425 12.9621 6.80878 13.445 6.96973L14.0456 7.16993C14.1681 7.21077 14.2507 7.32541 14.2507 7.45454L14.2507 8.54547C14.2507 8.6746 14.1681 8.78924 14.0456 8.83008L13.4447 9.03036C12.9611 9.19158 12.6153 9.55882 12.4333 9.96939C12.2946 10.2822 12.1234 10.5796 11.9221 10.8563C11.6583 11.2189 11.5132 11.7016 11.6154 12.201L11.742 12.82C11.7679 12.9465 11.71 13.0754 11.5981 13.1399L10.6533 13.6854C10.5415 13.75 10.4009 13.7357 10.3043 13.6501L9.83156 13.2308C9.4502 12.8927 8.9596 12.777 8.51365 12.8241C8.17339 12.8601 7.83025 12.8598 7.48999 12.8234C7.04343 12.7757 6.55249 12.8916 6.17104 13.2298L5.69716 13.6501C5.60055 13.7357 5.45995 13.75 5.34812 13.6854L4.40334 13.1399C4.29151 13.0754 4.23355 12.9465 4.25943 12.82L4.38636 12.1997C4.48839 11.7011 4.34389 11.2188 4.08045 10.8562C3.98028 10.7184 3.88684 10.5745 3.80051 10.425C3.71418 10.2755 3.63633 10.1226 3.56702 9.96696C3.38473 9.55751 3.03932 9.19123 2.55647 9.03028L1.95586 8.83008C1.83336 8.78925 1.75073 8.6746 1.75073 8.54547V7.45454C1.75073 7.32541 1.83336 7.21077 1.95586 7.16993L2.55672 6.96965C3.04037 6.80843 3.38618 6.44119 3.56817 6.03062C3.70683 5.71778 3.8781 5.42044 4.07938 5.14375C4.34319 4.78112 4.48829 4.29839 4.3861 3.79905L4.25943 3.18003C4.23355 3.05353 4.29151 2.92465 4.40334 2.86008L5.34812 2.31461C5.45995 2.25005 5.60055 2.26429 5.69716 2.34996L6.16991 2.76917C6.55126 3.10733 7.04187 3.22303 7.48782 3.17589C7.82808 3.13992 8.17122 3.14026 8.51148 3.1766C8.95803 3.22428 9.44898 3.10842 9.83042 2.77017L10.3043 2.34996ZM11.4033 1.01557C10.7324 0.628187 9.88879 0.713615 9.3091 1.22765L8.83522 1.64787C8.81353 1.6671 8.75995 1.6946 8.67076 1.68508C8.22562 1.63754 7.77622 1.63704 7.33012 1.6842C7.24044 1.69368 7.18675 1.66605 7.16511 1.64686L6.69237 1.22765C6.11268 0.713615 5.2691 0.628187 4.59812 1.01557L3.65334 1.56104C2.98237 1.94843 2.63456 2.72171 2.78989 3.48075L2.91656 4.09977C2.92236 4.1281 2.91944 4.18841 2.86639 4.26134C2.6025 4.62409 2.37823 5.01353 2.19683 5.4228C2.16048 5.50481 2.10988 5.53746 2.08238 5.54662L1.48152 5.74691C0.746507 5.99191 0.250732 6.67976 0.250732 7.45454V8.54547C0.250732 9.32025 0.746506 10.0081 1.48152 10.2531L2.08212 10.4533C2.10959 10.4625 2.1602 10.4951 2.1967 10.577C2.28739 10.7807 2.38905 10.9803 2.50147 11.175C2.6139 11.3697 2.73587 11.5575 2.86693 11.7379C2.91968 11.8105 2.92261 11.8707 2.91681 11.899L2.78989 12.5193C2.63456 13.2783 2.98237 14.0516 3.65334 14.439L4.59812 14.9844C5.2691 15.3718 6.11268 15.2864 6.69237 14.7724L7.16625 14.3521C7.18794 14.3329 7.24151 14.3054 7.33071 14.3149C7.77585 14.3625 8.22524 14.363 8.67135 14.3158C8.76102 14.3063 8.81471 14.334 8.83635 14.3531L9.3091 14.7724C9.88879 15.2864 10.7324 15.3718 11.4033 14.9844L12.3481 14.439C13.0191 14.0516 13.3669 13.2783 13.2116 12.5193L13.0849 11.9002C13.0791 11.8719 13.082 11.8116 13.1351 11.7387C13.399 11.3759 13.6232 10.9865 13.8046 10.5772C13.841 10.4952 13.8916 10.4626 13.9191 10.4534L14.5199 10.2531C15.255 10.0081 15.7507 9.32025 15.7507 8.54547L15.7507 7.45454C15.7507 6.67976 15.255 5.99191 14.5199 5.74691L13.9193 5.54671C13.8919 5.53755 13.8413 5.50494 13.8048 5.42296C13.7141 5.21927 13.6124 5.01973 13.5 4.82501C13.3876 4.63028 13.2656 4.44247 13.1345 4.26209C13.0818 4.18949 13.0789 4.12936 13.0847 4.10099L13.2116 3.48075C13.3669 2.72171 13.0191 1.94843 12.3481 1.56104L11.4033 1.01557ZM6.25006 7.99999C6.25006 7.03349 7.03356 6.24999 8.00006 6.24999C8.96656 6.24999 9.75006 7.03349 9.75006 7.99999C9.75006 8.96648 8.96656 9.74999 8.00006 9.74999C7.03356 9.74999 6.25006 8.96648 6.25006 7.99999ZM8.00006 4.74999C6.20514 4.74999 4.75006 6.20506 4.75006 7.99999C4.75006 9.79491 6.20514 11.25 8.00006 11.25C9.79499 11.25 11.2501 9.79491 11.2501 7.99999C11.2501 6.20506 9.79499 4.74999 8.00006 4.74999Z" fill="#FF00FF"/>
</g>
<defs>
<clipPath id="clip0_2288_3425">
<rect width="16" height="16" fill="white"/>
</clipPath>
</defs>
</svg>
