<svg width="16" height="16" viewBox="0 0 16 16" fill="none" xmlns="http://www.w3.org/2000/svg">
<g clip-path="url(#clip0_2250_5613)">
<path fill-rule="evenodd" clip-rule="evenodd" d="M10.2421 2.27983C10.3689 2.16738 10.5534 2.1487 10.7002 2.23344L11.645 2.77891C11.7918 2.86365 11.8679 3.0328 11.8339 3.19884L12.4768 3.33041L11.8339 3.19884L11.707 3.81908C11.6109 4.28833 11.7466 4.74422 11.9969 5.08869C12.099 5.22921 12.1942 5.3758 12.2821 5.52814C12.3701 5.68049 12.4494 5.83626 12.5201 5.99494C12.6933 6.38391 13.0203 6.72934 13.4746 6.88081L14.0752 7.08101C14.236 7.1346 14.3445 7.28507 14.3445 7.45455L14.3445 8.54549C14.3445 8.71497 14.236 8.86544 14.0752 8.91903L13.4744 9.11932C13.0193 9.27103 12.6919 9.61736 12.519 10.0074C12.3777 10.3263 12.2031 10.6294 11.9979 10.9114C11.7473 11.256 11.611 11.7123 11.7072 12.1822L11.8339 12.8012C11.8679 12.9672 11.7918 13.1364 11.645 13.2211L10.7002 13.7666C10.5534 13.8513 10.3689 13.8327 10.2421 13.7202L9.76936 13.301C9.41049 12.9828 8.94719 12.8726 8.5235 12.9174C8.17663 12.954 7.82685 12.9537 7.48003 12.9167C7.05581 12.8713 6.5922 12.9817 6.23324 13.3L5.75936 13.7202C5.63256 13.8327 5.44802 13.8513 5.30125 13.7666L4.35647 13.2211C4.20969 13.1364 4.13361 12.9672 4.16759 12.8012L4.29451 12.181C4.39053 11.7117 4.25488 11.2558 4.0046 10.9114C3.90251 10.7708 3.80728 10.6242 3.71932 10.4719C3.63136 10.3195 3.55202 10.1638 3.48138 10.0051C3.3082 9.61613 2.98121 9.2707 2.52682 9.11923L1.92622 8.91903C1.76543 8.86544 1.65698 8.71497 1.65698 8.54549V7.45455C1.65698 7.28507 1.76543 7.1346 1.92622 7.08101L2.52707 6.88072C2.98221 6.72901 3.30958 6.38268 3.48246 5.99264C3.62379 5.67378 3.79837 5.37068 4.00357 5.08861C4.2542 4.74409 4.39042 4.28776 4.29426 3.81785L4.16759 3.19884C4.13361 3.0328 4.20969 2.86365 4.35647 2.77891L5.30125 2.23344C5.44802 2.1487 5.63256 2.16738 5.75936 2.27983L6.18159 1.80367L5.75936 2.27983L6.23211 2.69904C6.59098 3.01727 7.05428 3.12746 7.47796 3.08267C7.82484 3.046 8.17462 3.04635 8.52143 3.08339C8.94565 3.12869 9.40926 3.01835 9.76822 2.70004L10.2421 2.27983ZM11.3565 1.09678C10.7204 0.729567 9.92079 0.810547 9.3713 1.29781L8.89742 1.71803C8.85324 1.7572 8.77233 1.79022 8.6608 1.77831C8.22222 1.73147 7.77946 1.73098 7.33998 1.77745C7.22803 1.78928 7.14703 1.75614 7.10291 1.71702L6.63017 1.29781C6.08067 0.810546 5.28102 0.729568 4.645 1.09678L3.70022 1.64225C3.06419 2.00946 2.7345 2.74246 2.88173 3.46197L3.0084 4.08099C3.02023 4.13876 3.00842 4.22547 2.9422 4.3165C2.68222 4.67388 2.46127 5.05756 2.28254 5.4608C2.23709 5.56335 2.16803 5.61691 2.11202 5.63558L1.51117 5.83586C0.814435 6.06811 0.344482 6.72013 0.344482 7.45455V8.54549C0.344482 9.27991 0.814435 9.93193 1.51117 10.1642L2.11177 10.3644C2.1677 10.383 2.23673 10.4365 2.28235 10.5389C2.3717 10.7396 2.47187 10.9362 2.58266 11.1281C2.69345 11.32 2.81365 11.5051 2.94278 11.6828C3.00869 11.7736 3.02048 11.8601 3.00866 11.9178L2.88173 12.5381C2.7345 13.2576 3.06419 13.9906 3.70022 14.3578L4.645 14.9033C5.28103 15.2705 6.08067 15.1895 6.63017 14.7022L7.10405 14.282C7.14822 14.2428 7.22913 14.2098 7.34066 14.2217C7.77925 14.2686 8.222 14.2691 8.66149 14.2226C8.77343 14.2108 8.85443 14.2439 8.89855 14.283L9.3713 14.7022C9.9208 15.1895 10.7204 15.2705 11.3565 14.9033L12.3012 14.3578C12.9373 13.9906 13.267 13.2576 13.1197 12.5381L12.9931 11.9191C12.9812 11.8613 12.993 11.7746 13.0593 11.6835C13.3192 11.3262 13.5402 10.9425 13.7189 10.5392C13.7644 10.4367 13.8334 10.3831 13.8894 10.3645L14.4903 10.1642C15.187 9.93193 15.657 9.27991 15.657 8.54549L15.657 7.45455C15.657 6.72013 15.187 6.0681 14.4903 5.83586L13.8897 5.63566C13.8338 5.61702 13.7647 5.56355 13.7191 5.46111C13.6298 5.26042 13.5296 5.0638 13.4188 4.87189C13.308 4.67999 13.1878 4.49493 13.0587 4.31721C12.9928 4.22648 12.981 4.13997 12.9928 4.08221L13.1197 3.46197C13.267 2.74246 12.9373 2.00946 12.3012 1.64225L11.3565 1.09678ZM6.07506 8C6.07506 6.93685 6.93691 6.075 8.00006 6.075C9.06321 6.075 9.92506 6.93685 9.92506 8C9.92506 9.06315 9.06321 9.925 8.00006 9.925C6.93691 9.925 6.07506 9.06315 6.07506 8ZM8.00006 4.925C6.30179 4.925 4.92506 6.30172 4.92506 8C4.92506 9.69828 6.30179 11.075 8.00006 11.075C9.69834 11.075 11.0751 9.69828 11.0751 8C11.0751 6.30172 9.69834 4.925 8.00006 4.925Z" fill="#FF00FF"/>
</g>
<defs>
<clipPath id="clip0_2250_5613">
<rect width="16" height="16" fill="white"/>
</clipPath>
</defs>
</svg>
