<svg width="16" height="16" viewBox="0 0 16 16" fill="none" xmlns="http://www.w3.org/2000/svg">
<path fill-rule="evenodd" clip-rule="evenodd" d="M12.2366 0.69831C12.0699 0.319087 11.6274 0.14674 11.2482 0.313362C10.869 0.479984 10.6966 0.922479 10.8633 1.3017C11.4809 2.70736 11.842 5.24914 11.842 8.00003C11.842 10.7509 11.4809 13.2927 10.8633 14.6983C10.6966 15.0775 10.869 15.52 11.2482 15.6866C11.6274 15.8533 12.0699 15.6809 12.2366 15.3017C12.9817 13.6059 13.342 10.8109 13.342 8.00003C13.342 5.18914 12.9817 2.39415 12.2366 0.69831ZM9.43234 1.91147C9.27323 1.52903 8.83422 1.34799 8.45179 1.5071C8.06935 1.66621 7.88831 2.10522 8.04742 2.48765C8.23225 2.93192 8.41111 3.80118 8.5412 4.86518C8.66836 5.90511 8.73988 7.0511 8.73988 8C8.73988 8.9489 8.66836 10.0949 8.5412 11.1348C8.41111 12.1988 8.23225 13.0681 8.04742 13.5123C7.88831 13.8948 8.06935 14.3338 8.45179 14.4929C8.83422 14.652 9.27323 14.471 9.43234 14.0885C9.70292 13.4382 9.89906 12.3887 10.0301 11.3169C10.1641 10.221 10.2399 9.01408 10.2399 8C10.2399 6.98592 10.1641 5.77901 10.0301 4.68313C9.89906 3.61132 9.70292 2.56185 9.43234 1.91147ZM5.24988 4.23707C5.24988 3.82285 5.58566 3.48707 5.99988 3.48707C6.23374 3.48707 6.39531 3.59296 6.46768 3.65056C6.5437 3.71106 6.5907 3.77276 6.6127 3.80369C6.65759 3.86682 6.68249 3.92294 6.6907 3.9417C6.71085 3.98779 6.72296 4.02787 6.72754 4.04324C6.73904 4.08186 6.74849 4.12184 6.75555 4.15348C6.77073 4.22154 6.78796 4.3109 6.8061 4.41512C6.8428 4.62587 6.88743 4.92163 6.93068 5.27826C7.01706 5.99069 7.09988 6.96252 7.09988 8.00001C7.09988 9.03749 7.01706 10.0093 6.93068 10.7218C6.88743 11.0784 6.8428 11.3741 6.8061 11.5849C6.78796 11.6891 6.77073 11.7785 6.75555 11.8465C6.74849 11.8782 6.73904 11.9182 6.72754 11.9568C6.72296 11.9721 6.71085 12.0122 6.6907 12.0583C6.68249 12.0771 6.65759 12.1332 6.6127 12.1963C6.5907 12.2273 6.5437 12.289 6.46768 12.3495C6.39531 12.4071 6.23374 12.5129 5.99988 12.5129C5.58566 12.5129 5.24988 12.1772 5.24988 11.7629C5.24988 11.6739 5.2654 11.5885 5.29388 11.5092C5.30197 11.4717 5.31376 11.4113 5.32834 11.3276C5.36008 11.1453 5.40107 10.8753 5.44158 10.5412C5.5227 9.87217 5.59988 8.96252 5.59988 8.00001C5.59988 7.03749 5.5227 6.12785 5.44158 5.45881C5.40107 5.1247 5.36008 4.85474 5.32834 4.67243C5.31376 4.58872 5.30197 4.5283 5.29388 4.4908C5.2654 4.41155 5.24988 4.32612 5.24988 4.23707ZM5.99988 4.98707C5.95766 4.98707 5.91781 4.98361 5.88043 4.97761C5.91933 4.98383 5.95923 4.98707 5.99988 4.98707ZM5.99988 11.0129C5.95862 11.0129 5.91814 11.0163 5.87869 11.0227C5.91657 11.0165 5.95701 11.0129 5.99988 11.0129ZM3.94461 5.91209C3.89606 5.50073 3.52322 5.20662 3.11187 5.25518C2.70051 5.30373 2.4064 5.67656 2.45495 6.08792C2.46566 6.17868 2.48222 6.26607 2.49485 6.33273L2.49485 6.33274L2.5006 6.36326C2.51467 6.43866 2.52926 6.52155 2.54319 6.6374C2.57154 6.87302 2.59983 7.26725 2.59983 7.99999C2.59983 8.73272 2.57154 9.12696 2.54319 9.36257C2.52926 9.47843 2.51467 9.56131 2.5006 9.63672L2.49485 9.66724C2.48222 9.7339 2.46566 9.82129 2.45495 9.91205C2.4064 10.3234 2.70051 10.6962 3.11187 10.7448C3.52322 10.7934 3.89606 10.4992 3.94461 10.0879C3.94878 10.0525 3.95454 10.0218 3.96747 9.9529L3.96747 9.95289L3.97514 9.91189C3.99246 9.81909 4.01322 9.70161 4.03245 9.54174C4.07045 9.22591 4.09983 8.76723 4.09983 7.99999C4.09983 7.23274 4.07045 6.77407 4.03245 6.45823C4.01322 6.29836 3.99246 6.18088 3.97514 6.08808L3.96747 6.04708C3.95454 5.97816 3.94878 5.94746 3.94461 5.91209Z" fill="#FF00FF"/>
</svg>
