<svg width="16" height="16" viewBox="0 0 16 16" fill="none" xmlns="http://www.w3.org/2000/svg">
<path fill-rule="evenodd" clip-rule="evenodd" d="M12.1568 0.897706C11.9901 0.518483 11.5476 0.346136 11.1684 0.512758C10.7892 0.67938 10.6169 1.12188 10.7835 1.5011C11.4082 2.92293 11.8422 5.27829 11.8422 8.00002C11.8422 10.7218 11.4082 13.0771 10.7835 14.499C10.6169 14.8782 10.7892 15.3207 11.1684 15.4873C11.5476 15.6539 11.9901 15.4816 12.1568 15.1023C12.8948 13.4227 13.3422 10.8401 13.3422 8.00002C13.3422 5.15998 12.8948 2.57737 12.1568 0.897706ZM9.43258 2.91146C9.27347 2.52903 8.83447 2.34798 8.45203 2.50709C8.06959 2.6662 7.88855 3.10521 8.04766 3.48765C8.45137 4.458 8.74012 6.09247 8.74012 7.99999C8.74012 9.90752 8.45137 11.542 8.04766 12.5123C7.88855 12.8948 8.06959 13.3338 8.45203 13.4929C8.83447 13.652 9.27347 13.471 9.43258 13.0885C9.93971 11.8696 10.2401 10.0184 10.2401 7.99999C10.2401 5.98155 9.93971 4.1304 9.43258 2.91146ZM5.6918 4.55337C6.06939 4.38308 6.51353 4.55114 6.68381 4.92873C6.83395 5.26166 6.93215 5.73277 6.99609 6.228C7.06258 6.74299 7.10012 7.35217 7.10012 8C7.10012 8.64783 7.06258 9.25701 6.99609 9.772C6.93215 10.2672 6.83395 10.7383 6.68381 11.0713C6.51353 11.4489 6.06939 11.6169 5.6918 11.4466C5.3142 11.2764 5.14615 10.8322 5.31643 10.4546C5.372 10.3314 5.44881 10.0418 5.50844 9.57992C5.56552 9.13785 5.60012 8.59363 5.60012 8C5.60012 7.40638 5.56552 6.86216 5.50844 6.42008C5.44881 5.95825 5.372 5.66861 5.31643 5.54539C5.14615 5.16779 5.3142 4.72365 5.6918 4.55337ZM4.13504 6.91209C4.08649 6.50073 3.71365 6.20662 3.3023 6.25517C2.89094 6.30372 2.59683 6.67656 2.64538 7.08791C2.67628 7.34972 2.6948 7.66169 2.6948 7.99998C2.6948 8.33827 2.67628 8.65024 2.64538 8.91205C2.59683 9.32341 2.89094 9.69624 3.3023 9.74479C3.71365 9.79334 4.08649 9.49923 4.13504 9.08788C4.17358 8.76134 4.1948 8.39025 4.1948 7.99998C4.1948 7.60971 4.17358 7.23862 4.13504 6.91209Z" fill="#FF00FF"/>
</svg>
