<svg width="16" height="16" viewBox="0 0 16 16" fill="none" xmlns="http://www.w3.org/2000/svg">
<path d="M5.59232 11.1691C4.75026 10.3294 4.27699 9.18915 4.27699 7.99999C4.27699 6.81083 4.75026 5.67057 5.59232 4.83091C6.27534 4.14789 6.27534 3.0405 5.59232 2.35748C4.9093 1.67446 3.80191 1.67446 3.11889 2.35748C1.6388 3.86336 0.806543 5.88852 0.800049 7.99999C0.821046 10.1086 1.65116 12.1285 3.11889 13.6425C3.56073 14.0843 4.20471 14.2569 4.80827 14.0952C5.41183 13.9334 5.88327 13.462 6.04499 12.8585C6.20671 12.2549 6.03416 11.6109 5.59232 11.1691Z" fill="#FFD85F"/>
<path d="M5.59214 4.83084C6.4318 3.98878 7.57206 3.51551 8.76122 3.51551C9.95038 3.51551 11.0906 3.98878 11.9303 4.83084C12.6133 5.51386 13.7207 5.51386 14.4037 4.83084C15.0868 4.14783 15.0868 3.04043 14.4037 2.35741C12.8978 0.877324 10.8727 0.0450684 8.76122 0.0385742C6.65266 0.0595712 4.63272 0.889684 3.11871 2.35741C2.43569 3.04043 2.43569 4.14783 3.11871 4.83084C3.80173 5.51386 4.90912 5.51386 5.59214 4.83084Z" fill="#3BB4E7"/>
<path d="M11.9303 11.169C11.0906 12.0111 9.95038 12.4844 8.76122 12.4844C7.57206 12.4844 6.4318 12.0111 5.59214 11.169C4.90912 10.486 3.80173 10.486 3.11871 11.169C2.43569 11.8521 2.43569 12.9595 3.11871 13.6425C4.62459 15.1226 6.64975 15.9548 8.76122 15.9613C10.8698 15.9403 12.8897 15.1102 14.4037 13.6425C14.8456 13.2006 15.0181 12.5566 14.8564 11.9531C14.6947 11.3495 14.2232 10.8781 13.6197 10.7164C13.0161 10.5547 12.3721 10.7272 11.9303 11.169Z" fill="#ED5C68"/>
<path d="M5.64716 4.85391C6.34119 4.1594 6.34079 3.03377 5.64629 2.33975C4.95178 1.64573 3.82615 1.64612 3.13213 2.34063C2.43811 3.03513 2.4385 4.16076 3.13301 4.85478C3.82751 5.54881 4.95314 5.54841 5.64716 4.85391Z" fill="#308BC5"/>
<path d="M5.63911 13.6562C6.33313 12.9616 6.33274 11.836 5.63823 11.142C4.94372 10.448 3.81809 10.4484 3.12407 11.1429C2.43005 11.8374 2.43044 12.963 3.12495 13.657C3.81946 14.3511 4.94508 14.3507 5.63911 13.6562Z" fill="#D5465F"/>
</svg>
