<svg width="16" height="16" viewBox="0 0 16 16" fill="none" xmlns="http://www.w3.org/2000/svg">
<path fill-rule="evenodd" clip-rule="evenodd" d="M8.5 5H4.5C3.67157 5 3 5.67157 3 6.5V12.5C3 13.3284 3.67157 14 4.5 14H8.5C9.32843 14 10 13.3284 10 12.5V6.5C10 5.67157 9.32843 5 8.5 5ZM4.5 3.5C2.84315 3.5 1.5 4.84315 1.5 6.5V12.5C1.5 14.1569 2.84315 15.5 4.5 15.5H8.5C10.1569 15.5 11.5 14.1569 11.5 12.5V6.5C11.5 4.84315 10.1569 3.5 8.5 3.5H4.5Z" fill="#FF00FF"/>
<path fill-rule="evenodd" clip-rule="evenodd" d="M10 2H11.5C12.3284 2 13 2.67157 13 3.5V4.98744C13 4.99162 13 4.99581 13 5V11C13 11.4402 12.9052 11.8583 12.7349 12.2349C13.7758 11.7641 14.5 10.7166 14.5 9.5V3.5C14.5 1.84315 13.1569 0.5 11.5 0.5H7.50002C6.28336 0.5 5.23586 1.22425 4.76514 2.26514C5.14175 2.09482 5.55982 2 6.00004 2H7.50002H10Z" fill="#FF00FF"/>
</svg>
