<svg width="16" height="16" viewBox="0 0 16 16" fill="none" xmlns="http://www.w3.org/2000/svg">
<g clip-path="url(#clip0_2376_2570)">
<path opacity="0.3" fill-rule="evenodd" clip-rule="evenodd" d="M6.00004 2.07686C4.15707 2.69893 2.69898 4.15702 2.07691 5.99999H4.82735C5.12597 5.52727 5.52732 5.12592 6.00004 4.82729V2.07686ZM11.1728 5.99999C10.8741 5.52726 10.4728 5.1259 10 4.82727V2.07684C11.843 2.69891 13.3011 4.15701 13.9232 5.99999H11.1728ZM10 11.1727C10.4728 10.8741 10.8742 10.4727 11.1728 9.99999H13.9232C13.3011 11.843 11.843 13.3011 10 13.9232V11.1727ZM4.82733 9.99999C5.12596 10.4727 5.52731 10.8741 6.00004 11.1727V13.9231C4.15707 13.3011 2.69897 11.843 2.0769 9.99999H4.82733Z" fill="#FF00FF"/>
<path fill-rule="evenodd" clip-rule="evenodd" d="M8 0.25C8.41421 0.25 8.75 0.585786 8.75 1V7.25H15C15.4142 7.25 15.75 7.58579 15.75 8C15.75 8.41421 15.4142 8.75 15 8.75H8.75V15C8.75 15.4142 8.41421 15.75 8 15.75C7.58579 15.75 7.25 15.4142 7.25 15V8.75H1C0.585786 8.75 0.25 8.41421 0.25 8C0.25 7.58579 0.585786 7.25 1 7.25H7.25V1C7.25 0.585786 7.58579 0.25 8 0.25Z" fill="#FF00FF"/>
</g>
<defs>
<clipPath id="clip0_2376_2570">
<rect width="16" height="16" fill="white"/>
</clipPath>
</defs>
</svg>
