<svg width="16" height="16" viewBox="0 0 16 16" fill="none" xmlns="http://www.w3.org/2000/svg">
<g clip-path="url(#clip0_2262_3044)">
<path fill-rule="evenodd" clip-rule="evenodd" d="M10 0.5C9.72386 0.5 9.5 0.723858 9.5 1V4.29289C9.5 4.73835 10.0386 4.96143 10.3536 4.64645L11.5353 3.46473C12.8841 4.51768 13.75 6.15815 13.75 7.99999C13.75 10.2173 12.4951 12.1428 10.6534 13.1027C10.286 13.2941 10.1435 13.7471 10.3349 14.1144C10.5264 14.4817 10.9793 14.6243 11.3466 14.4329C13.6646 13.2247 15.25 10.7981 15.25 7.99999C15.25 5.74254 14.2181 3.72691 12.6022 2.39784L13.6464 1.35355C13.9614 1.03857 13.7383 0.5 13.2929 0.5H10ZM5.34664 2.89729C5.71396 2.70585 5.85653 2.25289 5.66509 1.88557C5.47364 1.51825 5.02068 1.37568 4.65336 1.56712C2.33537 2.77524 0.75 5.20186 0.75 8C0.75 10.2574 1.78188 12.2731 3.39785 13.6022L2.35355 14.6464C2.03857 14.9614 2.26165 15.5 2.70711 15.5H6C6.27614 15.5 6.5 15.2761 6.5 15V11.7071C6.5 11.2617 5.96143 11.0386 5.64645 11.3536L4.46474 12.5353C3.11585 11.4823 2.25 9.84184 2.25 8C2.25 5.78268 3.50485 3.85722 5.34664 2.89729Z" fill="#FF00FF"/>
</g>
<defs>
<clipPath id="clip0_2262_3044">
<rect width="16" height="16" fill="white"/>
</clipPath>
</defs>
</svg>
