<svg width="16" height="16" viewBox="0 0 16 16" fill="none" xmlns="http://www.w3.org/2000/svg">
<g clip-path="url(#clip0_2179_3571)">
<path d="M3.2634 12.7369L0.526647 10.0001C0.202254 9.66671 0.000244141 9.1964 0.000244141 8.73707C0.000244141 8.52447 0.120666 8.19183 0.210884 8.00042L2.73699 2.73755L3.2634 12.7369Z" fill="#01579B"/>
<path d="M12.6318 3.2634L9.89504 0.526647C9.65576 0.286589 9.15839 0.000244141 8.73711 0.000244141C8.37545 0.000244141 8.02007 0.0724187 7.78982 0.210884L2.73682 2.73699L12.6318 3.2634Z" fill="#40C4FF"/>
<path d="M6.52693 15.9995H13.158V13.1577L8.21126 11.5789L3.68506 13.1577L6.52693 15.9995Z" fill="#40C4FF"/>
<path d="M2.73755 11.2631C2.73755 12.1072 2.84346 12.3147 3.26395 12.7368L3.68484 13.1576H13.1581L8.52681 7.89479L2.73755 2.73706V11.2631Z" fill="#29B6F6"/>
<path d="M11.158 2.73706H2.73755L13.1581 13.1576H16V6.63174L12.6317 3.26346C12.1587 2.78845 11.7382 2.73706 11.158 2.73706Z" fill="#01579B"/>
<path opacity="0.2" d="M3.36908 12.8419C2.94819 12.419 2.84267 12.0029 2.84267 11.2631V2.84218L2.73755 2.73706V11.2631C2.73755 12.0029 2.73755 12.208 3.36908 12.8419L3.68484 13.1576L3.36908 12.8419Z" fill="white"/>
<path opacity="0.2" d="M15.8949 6.52637V13.0527H13.0522L13.1578 13.1578H16V6.63188L15.8949 6.52637Z" fill="#263238"/>
<path opacity="0.2" d="M12.6317 3.26346C12.11 2.74177 11.6821 2.73706 11.0529 2.73706H2.73755L2.84267 2.84218H11.0529C11.3671 2.84218 12.1595 2.78962 12.6317 3.26346Z" fill="white"/>
<path opacity="0.2" d="M15.8949 6.5263L12.6317 3.26315L9.89497 0.526403C9.6557 0.286345 9.15832 0 8.73704 0C8.37538 0 8.02 0.0721745 7.78975 0.21064L2.73675 2.73675L0.21064 7.99961C0.120422 8.19102 0 8.52365 0 8.73626C0 9.19598 0.20201 9.66589 0.526403 9.99931L3.04859 12.5031C3.109 12.5768 3.1796 12.6521 3.26315 12.7361L3.36827 12.8412L3.68404 13.1569L6.42079 15.8937L6.52591 15.9988H13.0518H13.1569V13.1569H15.9988V13.1495V6.63182L15.8949 6.5263Z" fill="url(#paint0_radial_2179_3571)"/>
</g>
<defs>
<radialGradient id="paint0_radial_2179_3571" cx="0" cy="0" r="1" gradientUnits="userSpaceOnUse" gradientTransform="translate(7.9996 7.99929) scale(7.99941)">
<stop stop-color="white" stop-opacity="0.1"/>
<stop offset="1" stop-color="white" stop-opacity="0"/>
</radialGradient>
<clipPath id="clip0_2179_3571">
<rect width="16" height="16" fill="white"/>
</clipPath>
</defs>
</svg>
