<svg width="16" height="16" viewBox="0 0 16 16" fill="none" xmlns="http://www.w3.org/2000/svg">
<path opacity="0.3" d="M2 12.375V5.36926C2 5.1924 2.17863 5.07146 2.34285 5.13715L4.5 6.00001L6.31063 6.45267C6.42193 6.48049 6.5 6.58048 6.5 6.6952V14.1951C6.5 14.3528 6.35567 14.4711 6.20097 14.4402L4.05561 14.0111C4.019 14.0038 3.9845 13.9884 3.95463 13.966L2.1 12.575C2.03705 12.5278 2 12.4537 2 12.375Z" fill="#FF00FF"/>
<path fill-rule="evenodd" clip-rule="evenodd" d="M2.99785 3.56118C2.78764 3.76826 2.75 3.91609 2.75 4C2.75 4.08391 2.78764 4.23174 2.99785 4.43882C3.2107 4.6485 3.55717 4.87186 4.04582 5.07546C5.01984 5.4813 6.41742 5.75 8 5.75C9.58258 5.75 10.9802 5.4813 11.9542 5.07546C12.4428 4.87186 12.7893 4.6485 13.0022 4.43882C13.2124 4.23174 13.25 4.08391 13.25 4C13.25 3.91609 13.2124 3.76826 13.0022 3.56118C12.7893 3.3515 12.4428 3.12814 11.9542 2.92454C10.9802 2.5187 9.58258 2.25 8 2.25C6.41742 2.25 5.01984 2.5187 4.04582 2.92454C3.55717 3.12814 3.2107 3.3515 2.99785 3.56118ZM13.25 6.10725C13.0257 6.23715 12.7843 6.35459 12.5311 6.46007C11.3335 6.95905 9.73113 7.25 8 7.25C6.26887 7.25 4.66645 6.95905 3.4689 6.46007C3.21574 6.35459 2.97426 6.23715 2.75 6.10725V7.99997C2.75 8.08388 2.78764 8.23171 2.99785 8.43879C3.2107 8.64847 3.55717 8.87183 4.04582 9.07543C5.01984 9.48127 6.41742 9.74997 8 9.74997C9.58258 9.74997 10.9802 9.48127 11.9542 9.07543C12.4428 8.87183 12.7893 8.64847 13.0022 8.43879C13.2124 8.23171 13.25 8.08388 13.25 7.99997V6.10725ZM13.25 10.1072C13.0257 10.2371 12.7843 10.3546 12.5311 10.46C11.3335 10.959 9.73113 11.25 8 11.25C6.26887 11.25 4.66645 10.959 3.4689 10.46C3.21574 10.3546 2.97426 10.2371 2.75 10.1072V12C2.75 12.0839 2.78764 12.2317 2.99785 12.4388C3.2107 12.6485 3.55717 12.8718 4.04582 13.0754C5.01984 13.4813 6.41742 13.75 8 13.75C9.58258 13.75 10.9802 13.4813 11.9542 13.0754C12.4428 12.8718 12.7893 12.6485 13.0022 12.4388C13.2124 12.2317 13.25 12.0839 13.25 12V10.1072ZM14.75 7.99997V12C14.75 12.6064 14.4519 13.1163 14.0548 13.5074C13.6604 13.8959 13.1282 14.2112 12.5311 14.46C11.3335 14.959 9.73113 15.25 8 15.25C6.26887 15.25 4.66645 14.959 3.4689 14.46C2.87176 14.2112 2.33955 13.8959 1.94517 13.5074C1.54815 13.1163 1.25 12.6064 1.25 12V7.99997V4C1.25 3.39356 1.54815 2.88371 1.94517 2.49259C2.33955 2.10408 2.87176 1.78873 3.4689 1.53993C4.66645 1.04094 6.26887 0.75 8 0.75C9.73113 0.75 11.3335 1.04094 12.5311 1.53993C13.1282 1.78873 13.6604 2.10408 14.0548 2.49259C14.4519 2.88371 14.75 3.39356 14.75 4V7.99997Z" fill="#FF00FF"/>
</svg>
