<svg width="16" height="16" viewBox="0 0 16 16" fill="none" xmlns="http://www.w3.org/2000/svg">
<g clip-path="url(#clip0_2179_3762)">
<path fill-rule="evenodd" clip-rule="evenodd" d="M13.4192 2.44114C13.5673 1.58313 13.7845 1.04355 14.0251 1.04257H14.0256C14.4743 1.04407 14.838 2.9152 14.838 5.22542C14.838 7.53559 14.4738 9.40822 14.0246 9.40822C13.8405 9.40822 13.6705 9.09026 13.5337 8.55742C13.3175 10.508 12.8689 11.8488 12.3495 11.8488C11.9476 11.8488 11.5869 11.0433 11.3448 9.77309C11.1795 12.1889 10.7634 13.9029 10.2771 13.9029C9.97183 13.9029 9.69357 13.2237 9.48757 12.1178C9.23985 14.4006 8.66753 16.0002 8.00014 16.0002C7.33275 16.0002 6.75941 14.4011 6.51272 12.1178C6.30822 13.2237 6.02996 13.9029 5.72323 13.9029C5.23689 13.9029 4.82183 12.1889 4.65548 9.77309C4.41334 11.0433 4.05366 11.8488 3.65076 11.8488C3.13192 11.8488 2.6827 10.5084 2.46655 8.55742C2.33073 9.09181 2.15982 9.40822 1.97566 9.40822C1.52649 9.40822 1.16226 7.53559 1.16226 5.22537C1.16226 2.91526 1.52643 1.04251 1.97566 1.04251C2.21676 1.04251 2.4325 1.58359 2.58203 2.44114C2.82162 0.961612 3.21075 0 3.65076 0C4.17323 0 4.62597 1.3599 4.8401 3.33464C5.04973 1.89741 5.36764 0.981147 5.72375 0.981147C6.22276 0.981147 6.64698 2.78325 6.80418 5.29693C7.09973 4.00814 7.52758 3.19963 8.00118 3.19963C8.47473 3.19963 8.90258 4.00866 9.19761 5.29699C9.35532 2.78325 9.77902 0.981147 10.2781 0.981147C10.6336 0.981147 10.9511 1.89735 11.1617 3.33464C11.3754 1.3599 11.8281 0 12.3505 0C12.789 0 13.1796 0.962189 13.4192 2.44114ZM0 4.814C0 3.78128 0.206463 2.9439 0.46133 2.9439C0.716196 2.9439 0.922717 3.78128 0.922717 4.814C0.922717 5.84666 0.716196 6.68409 0.46133 6.68409C0.206463 6.68409 0 5.84666 0 4.814ZM15.0772 4.814C15.0772 3.78128 15.2837 2.9439 15.5386 2.9439C15.7934 2.9439 16 3.78128 16 4.814C16 5.84666 15.7934 6.68409 15.5386 6.68409C15.2837 6.68409 15.0772 5.84666 15.0772 4.814Z" fill="#FF00FF"/>
</g>
<defs>
<clipPath id="clip0_2179_3762">
<rect width="16" height="16" fill="white"/>
</clipPath>
</defs>
</svg>
