<svg width="16" height="16" viewBox="0 0 16 16" fill="none" xmlns="http://www.w3.org/2000/svg">
<g clip-path="url(#clip0_2179_3602)">
<path d="M5.96347 8.45904C5.96347 8.01984 6.28747 7.65984 6.69787 7.65984C7.10827 7.65984 7.43947 8.01984 7.43227 8.45904C7.43227 8.89825 7.10827 9.25825 6.69787 9.25825C6.29467 9.25825 5.96347 8.89825 5.96347 8.45904Z" fill="#FF00FF"/>
<path d="M8.59147 8.45904C8.59147 8.01984 8.91547 7.65984 9.32587 7.65984C9.73627 7.65984 10.0603 8.01984 10.0603 8.45904C10.0603 8.89825 9.73627 9.25825 9.32587 9.25825C8.92267 9.25825 8.59147 8.89825 8.59147 8.45904Z" fill="#FF00FF"/>
<path fill-rule="evenodd" clip-rule="evenodd" d="M3.17717 1.61914H12.8252C13.6388 1.61914 14.3012 2.28154 14.3012 3.10234V16.0191L12.7532 14.6511L11.882 13.8447L10.9604 12.9879L11.342 14.3199H3.17717C2.36357 14.3199 1.70117 13.6575 1.70117 12.8367V3.10234C1.70117 2.28154 2.36357 1.61914 3.17717 1.61914ZM9.57077 10.4391C9.78677 10.7127 10.046 11.0223 10.046 11.0223C11.6372 10.9719 12.2492 9.92794 12.2492 9.92794C12.2492 7.60954 11.2124 5.73034 11.2124 5.73034C10.1756 4.95274 9.18917 4.97434 9.18917 4.97434L9.08837 5.08954C10.3124 5.46394 10.8812 6.00394 10.8812 6.00394C10.1324 5.59354 9.39797 5.39194 8.71397 5.31274C8.19557 5.25514 7.69877 5.26954 7.25957 5.32714C7.22186 5.32714 7.18963 5.33263 7.15331 5.33881C7.14803 5.33971 7.14266 5.34063 7.13717 5.34154C6.88517 5.36314 6.27317 5.45674 5.50277 5.79514C5.23637 5.91754 5.07797 6.00394 5.07797 6.00394C5.07797 6.00394 5.67557 5.43514 6.97157 5.06074L6.89957 4.97434C6.89957 4.97434 5.91317 4.95274 4.87637 5.73034C4.87637 5.73034 3.83957 7.60954 3.83957 9.92794C3.83957 9.92794 4.44437 10.9719 6.03557 11.0223C6.03557 11.0223 6.30197 10.6983 6.51797 10.4247C5.60357 10.1511 5.25797 9.57514 5.25797 9.57514C5.25797 9.57514 5.32997 9.62554 5.45957 9.69754C5.46677 9.70474 5.47397 9.71194 5.48837 9.71914C5.49917 9.72634 5.50997 9.73174 5.52077 9.73714C5.53157 9.74254 5.54237 9.74794 5.55317 9.75514C5.73317 9.85594 5.91317 9.93514 6.07877 9.99994C6.37397 10.1151 6.72677 10.2303 7.13717 10.3095C7.67717 10.4103 8.31077 10.4463 9.00197 10.3167C9.34037 10.2591 9.68597 10.1583 10.046 10.0071C10.298 9.91354 10.5788 9.77674 10.874 9.58234C10.874 9.58234 10.514 10.1727 9.57077 10.4391Z" fill="#FF00FF"/>
</g>
<defs>
<clipPath id="clip0_2179_3602">
<rect width="16" height="16" fill="white"/>
</clipPath>
</defs>
</svg>
