<svg width="16" height="16" viewBox="0 0 16 16" fill="none" xmlns="http://www.w3.org/2000/svg">
<path fill-rule="evenodd" clip-rule="evenodd" d="M8 5.00002C8.82843 5.00002 9.5 4.32844 9.5 3.50001C9.5 2.67158 8.82843 2 8 2C7.17157 2 6.5 2.67158 6.5 3.50001C6.5 4.32844 7.17157 5.00002 8 5.00002ZM1.25 8C1.25 7.58579 1.58579 7.25 2 7.25H14C14.4142 7.25 14.75 7.58579 14.75 8C14.75 8.41421 14.4142 8.75 14 8.75H2C1.58579 8.75 1.25 8.41421 1.25 8ZM9.5 12.5C9.5 13.3284 8.82843 14 8 14C7.17157 14 6.5 13.3284 6.5 12.5C6.5 11.6716 7.17157 11 8 11C8.82843 11 9.5 11.6716 9.5 12.5Z" fill="#FF00FF"/>
</svg>
