<svg width="16" height="16" viewBox="0 0 16 16" fill="none" xmlns="http://www.w3.org/2000/svg">
<path fill-rule="evenodd" clip-rule="evenodd" d="M3.5 2.25C3.36193 2.25 3.25 2.36193 3.25 2.5V13.5C3.25 13.6381 3.36193 13.75 3.5 13.75H5.5H12.5C12.6381 13.75 12.75 13.6381 12.75 13.5V5.41421C12.75 5.34791 12.7237 5.28432 12.6768 5.23744L9.76256 2.32322C9.71568 2.27634 9.65209 2.25 9.58579 2.25H5.5H3.5ZM1.75 2.5C1.75 1.5335 2.5335 0.75 3.5 0.75H5.5H9.58579C10.0499 0.75 10.495 0.934374 10.8232 1.26256L13.7374 4.17678C14.0656 4.50497 14.25 4.95008 14.25 5.41421V13.5C14.25 14.4665 13.4665 15.25 12.5 15.25H5.5H3.5C2.5335 15.25 1.75 14.4665 1.75 13.5V2.5Z" fill="#FF00FF"/>
<path fill-rule="evenodd" clip-rule="evenodd" d="M5.5 4.25C5.08579 4.25 4.75 4.58579 4.75 5C4.75 5.41421 5.08579 5.75 5.5 5.75H9.5C9.91421 5.75 10.25 5.41421 10.25 5C10.25 4.58579 9.91421 4.25 9.5 4.25H5.5ZM4.75 8C4.75 7.58579 5.08579 7.25 5.5 7.25H10.5C10.9142 7.25 11.25 7.58579 11.25 8C11.25 8.41421 10.9142 8.75 10.5 8.75H5.5C5.08579 8.75 4.75 8.41421 4.75 8ZM4.75 11C4.75 10.5858 5.08579 10.25 5.5 10.25H10.5C10.9142 10.25 11.25 10.5858 11.25 11C11.25 11.4142 10.9142 11.75 10.5 11.75H5.5C5.08579 11.75 4.75 11.4142 4.75 11Z" fill="#FF00FF"/>
</svg>
