<svg width="16" height="16" viewBox="0 0 16 16" fill="none" xmlns="http://www.w3.org/2000/svg">
<path fill-rule="evenodd" clip-rule="evenodd" d="M4.5 2.25C3.80964 2.25 3.25 2.80964 3.25 3.5V12.5C3.25 13.1904 3.80964 13.75 4.5 13.75H5.5H11.5C12.1904 13.75 12.75 13.1904 12.75 12.5V5.82843C12.75 5.49691 12.6183 5.17896 12.3839 4.94454L10.0555 2.61612C9.82104 2.3817 9.50309 2.25 9.17157 2.25H5.5H4.5ZM1.75 3.5C1.75 1.98122 2.98122 0.75 4.5 0.75H5.5H9.17157C9.90092 0.75 10.6004 1.03973 11.1161 1.55546L13.4445 3.88388C13.9603 4.39961 14.25 5.09908 14.25 5.82843V12.5C14.25 14.0188 13.0188 15.25 11.5 15.25H5.5H4.5C2.98122 15.25 1.75 14.0188 1.75 12.5V3.5Z" fill="#FF00FF"/>
<path fill-rule="evenodd" clip-rule="evenodd" d="M5.5 4.25C5.08579 4.25 4.75 4.58579 4.75 5C4.75 5.41421 5.08579 5.75 5.5 5.75H9.5C9.91421 5.75 10.25 5.41421 10.25 5C10.25 4.58579 9.91421 4.25 9.5 4.25H5.5ZM4.75 8C4.75 7.58579 5.08579 7.25 5.5 7.25H10.5C10.9142 7.25 11.25 7.58579 11.25 8C11.25 8.41421 10.9142 8.75 10.5 8.75H5.5C5.08579 8.75 4.75 8.41421 4.75 8ZM4.75 11C4.75 10.5858 5.08579 10.25 5.5 10.25H10.5C10.9142 10.25 11.25 10.5858 11.25 11C11.25 11.4142 10.9142 11.75 10.5 11.75H5.5C5.08579 11.75 4.75 11.4142 4.75 11Z" fill="#FF00FF"/>
</svg>
