<svg width="16" height="16" viewBox="0 0 16 16" fill="none" xmlns="http://www.w3.org/2000/svg">
<path fill-rule="evenodd" clip-rule="evenodd" d="M7.9999 3.99999C8.88356 3.99999 9.5999 3.28364 9.5999 2.39999C9.5999 1.51633 8.88356 0.799988 7.9999 0.799988C7.11625 0.799988 6.3999 1.51633 6.3999 2.39999C6.3999 3.28364 7.11625 3.99999 7.9999 3.99999ZM7.9999 9.59999C8.88356 9.59999 9.5999 8.88364 9.5999 7.99999C9.5999 7.11633 8.88356 6.39999 7.9999 6.39999C7.11625 6.39999 6.3999 7.11633 6.3999 7.99999C6.3999 8.88364 7.11625 9.59999 7.9999 9.59999ZM9.5999 13.6C9.5999 14.4836 8.88356 15.2 7.9999 15.2C7.11625 15.2 6.3999 14.4836 6.3999 13.6C6.3999 12.7163 7.11625 12 7.9999 12C8.88356 12 9.5999 12.7163 9.5999 13.6Z" fill="#FF00FF"/>
</svg>
