<svg width="16" height="16" viewBox="0 0 16 16" fill="none" xmlns="http://www.w3.org/2000/svg">
<path fill-rule="evenodd" clip-rule="evenodd" d="M2.69722 3.53057C2.79502 3.51053 2.89628 3.5 3 3.5H13C13.1037 3.5 13.205 3.51053 13.3028 3.53057L8 8.01754L2.69722 3.53057ZM1.57103 4.54256C1.5249 4.68678 1.5 4.84048 1.5 5V11C1.5 11.8284 2.17157 12.5 3 12.5H13C13.8284 12.5 14.5 11.8284 14.5 11V5C14.5 4.84048 14.4751 4.68678 14.429 4.54256L8.48446 9.57254C8.20482 9.80915 7.79518 9.80915 7.51554 9.57254L1.57103 4.54256ZM0 5C0 3.34315 1.34315 2 3 2H13C14.6569 2 16 3.34315 16 5V11C16 12.6569 14.6569 14 13 14H3C1.34315 14 0 12.6569 0 11V5Z" fill="#FF00FF"/>
</svg>
