<svg width="16" height="16" viewBox="0 0 16 16" fill="none" xmlns="http://www.w3.org/2000/svg">
<path opacity="0.4" fill-rule="evenodd" clip-rule="evenodd" d="M0.521023 7.42289C0.839755 7.15835 1.31259 7.20228 1.57713 7.52101C1.62601 7.5799 1.6731 7.63706 1.71908 7.69288C1.85412 7.85681 1.97966 8.00921 2.11323 8.16006L1.57427 8.63727L2.11323 8.16007C2.20403 8.26261 2.33699 8.40911 2.50563 8.5849C2.65092 8.73634 2.82316 8.91002 3.01818 9.0964C3.31763 9.38259 3.32838 9.85734 3.04219 10.1568C2.756 10.4562 2.28125 10.467 1.9818 10.1808C1.76936 9.97777 1.58174 9.78859 1.4232 9.62333C1.23915 9.43148 1.09263 9.27013 0.990186 9.15444C0.837183 8.98164 0.687693 8.80013 0.548563 8.63119C0.505623 8.57906 0.46367 8.52812 0.422904 8.479C0.158362 8.16027 0.202291 7.68743 0.521023 7.42289ZM15.479 7.42289C15.7977 7.68743 15.8417 8.16027 15.5771 8.479C15.5364 8.52812 15.4944 8.57906 15.4515 8.6312C15.3123 8.80013 15.1629 8.98163 15.0099 9.15444C14.9074 9.27013 14.7609 9.43148 14.5768 9.62333C14.2105 10.0051 13.6865 10.5173 13.0578 11.0335C11.8794 12.0008 10.0175 13.25 8.00002 13.25C7.67763 13.25 7.36068 13.2181 7.0519 13.1616C6.64447 13.0869 6.3747 12.6961 6.44935 12.2887C6.524 11.8812 6.9148 11.6115 7.32223 11.6861C7.55037 11.7279 7.7766 11.75 8.00002 11.75C9.45761 11.75 10.9646 10.8112 12.106 9.87411C12.6771 9.40529 13.1571 8.93648 13.4944 8.5849C13.6631 8.40911 13.796 8.26261 13.8868 8.16007L14.4483 8.65725L13.8868 8.16006C14.0204 8.00921 14.1459 7.85683 14.2809 7.69291C14.3269 7.63708 14.374 7.57991 14.4229 7.52101C14.6874 7.20228 15.1603 7.15835 15.479 7.42289Z" fill="#FF00FF"/>
<path fill-rule="evenodd" clip-rule="evenodd" d="M13.5303 2.46967C13.8232 2.76256 13.8232 3.23744 13.5303 3.53033L3.53033 13.5303C3.23744 13.8232 2.76256 13.8232 2.46967 13.5303C2.17678 13.2374 2.17678 12.7626 2.46967 12.4697L12.4697 2.46967C12.7626 2.17678 13.2374 2.17678 13.5303 2.46967Z" fill="#FF00FF"/>
</svg>
