<svg width="16" height="16" viewBox="0 0 16 16" fill="none" xmlns="http://www.w3.org/2000/svg">
<path opacity="0.4" fill-rule="evenodd" clip-rule="evenodd" d="M0.521034 7.42288C0.839765 7.15834 1.3126 7.20227 1.57715 7.521C1.62602 7.57989 1.67311 7.63705 1.71909 7.69287C1.85413 7.85681 1.97967 8.00921 2.11324 8.16006L1.57429 8.63726L2.11324 8.16006C2.20404 8.26261 2.337 8.4091 2.50564 8.5849C2.65093 8.73634 2.82317 8.91002 3.01819 9.0964C3.31764 9.38259 3.32839 9.85734 3.0422 10.1568C2.75601 10.4562 2.28126 10.467 1.98181 10.1808C1.76937 9.97777 1.58175 9.78859 1.42321 9.62333C1.23916 9.43148 1.09264 9.27013 0.990197 9.15443C0.837194 8.98163 0.687704 8.80012 0.548574 8.63119C0.505634 8.57905 0.463681 8.52811 0.422915 8.479C0.158373 8.16027 0.202302 7.68743 0.521034 7.42288ZM15.479 7.42289C15.7978 7.68743 15.8417 8.16027 15.5771 8.479C15.5364 8.52812 15.4944 8.57906 15.4515 8.6312C15.3124 8.80013 15.1629 8.98163 15.0099 9.15444C14.9074 9.27013 14.7609 9.43148 14.5768 9.62333C14.2106 10.0051 13.6865 10.5173 13.0578 11.0335C11.8795 12.0008 10.0175 13.25 8.00003 13.25C7.67765 13.25 7.36069 13.2181 7.05191 13.1615C6.64448 13.0869 6.37471 12.6961 6.44936 12.2887C6.52401 11.8812 6.91481 11.6115 7.32224 11.6861C7.55038 11.7279 7.77661 11.75 8.00003 11.75C9.45762 11.75 10.9646 10.8112 12.106 9.8741C12.6771 9.40528 13.1571 8.93648 13.4944 8.5849C13.6631 8.4091 13.796 8.26261 13.8868 8.16006L14.4483 8.65725L13.8868 8.16006C14.0204 8.00921 14.1459 7.85683 14.2809 7.6929C14.3269 7.63707 14.374 7.57991 14.4229 7.521C14.6875 7.20227 15.1603 7.15834 15.479 7.42289Z" fill="#FF00FF"/>
<path fill-rule="evenodd" clip-rule="evenodd" d="M13.5303 2.46967C13.8232 2.76256 13.8232 3.23744 13.5303 3.53033L3.53033 13.5303C3.23744 13.8232 2.76256 13.8232 2.46967 13.5303C2.17678 13.2374 2.17678 12.7626 2.46967 12.4697L12.4697 2.46967C12.7626 2.17678 13.2374 2.17678 13.5303 2.46967Z" fill="#FF00FF"/>
</svg>
