<svg width="16" height="16" viewBox="0 0 16 16" fill="none" xmlns="http://www.w3.org/2000/svg">
<path fill-rule="evenodd" clip-rule="evenodd" d="M7.66187 12.9877C7.2602 12.7684 7.1023 12.3038 7.04022 11.5133L8.22396 10.7523L8.28777 10.7113L8.28781 10.7112L8.28783 10.7112C8.87573 10.3334 9.416 9.9862 9.79908 9.6512C10.2104 9.29154 10.6543 8.76449 10.6543 7.99833C10.6543 7.23217 10.2104 6.70512 9.79908 6.34546C9.41599 6.01045 8.8757 5.66323 8.28778 5.28539L8.28777 5.28539L8.22395 5.24437L7.05793 4.49479C7.13048 3.82001 7.29387 3.41323 7.66187 3.21231C8.32374 2.85096 9.18786 3.40647 10.9161 4.51748L13.1631 5.962C14.6608 6.92479 15.4096 7.40618 15.4096 8.1C15.4096 8.79381 14.6608 9.2752 13.1631 10.238L10.9161 11.6825C9.18786 12.7935 8.32374 13.349 7.66187 12.9877ZM1.66187 3.21232C2.32373 2.85097 3.18785 3.40648 4.91609 4.51749L7.16312 5.96201C8.66079 6.92479 9.40963 7.40619 9.40963 8.1C9.40963 8.79381 8.66079 9.27521 7.16312 10.238L4.91609 11.6825C3.18785 12.7935 2.32373 13.349 1.66187 12.9877C1 12.6263 1 11.5991 1 9.54452V6.65548C1 4.60094 1 3.57366 1.66187 3.21232Z" fill="#FF00FF"/>
</svg>
