<svg width="16" height="16" viewBox="0 0 16 16" fill="none" xmlns="http://www.w3.org/2000/svg">
<path fill-rule="evenodd" clip-rule="evenodd" d="M8.32659 2.68952C7.95371 2.50914 7.50522 2.6652 7.32484 3.03808C7.14447 3.41096 7.30053 3.85946 7.67341 4.03983C8.11907 4.25541 8.69065 4.62129 9.51054 5.14836L11.7576 6.59287C12.5274 7.08775 13.0317 7.41431 13.3543 7.69643C13.6604 7.96414 13.6598 8.07038 13.6596 8.09829L13.6596 8.09999L13.6596 8.10168C13.6598 8.12959 13.6604 8.23584 13.3543 8.50354C13.0317 8.78566 12.5274 9.11223 11.7576 9.6071L9.51054 11.0516C8.69065 11.5787 8.11907 11.9446 7.67341 12.1601C7.30053 12.3405 7.14447 12.789 7.32484 13.1619C7.50521 13.5348 7.95371 13.6908 8.32659 13.5105C8.86409 13.2505 9.5121 12.8339 10.2806 12.3398L10.2806 12.3398L10.3217 12.3134L12.5687 10.8689L12.6185 10.8369C13.3248 10.3829 13.9253 9.9969 14.3417 9.63269C14.7778 9.25133 15.1596 8.7687 15.1596 8.09999C15.1596 7.43127 14.7778 6.94865 14.3417 6.56728C13.9253 6.20308 13.3248 5.81711 12.6185 5.36312L12.6185 5.3631L12.5687 5.33111L10.3217 3.88659L10.2806 3.86018C9.5121 3.36612 8.86409 2.94952 8.32659 2.68952ZM2.16468 2.72478C2.82935 2.36407 3.69519 2.92686 5.42685 4.05244L8.22147 5.86894C9.69981 6.82986 10.439 7.31032 10.439 7.99999C10.439 8.68965 9.69981 9.17011 8.22147 10.131L5.42685 11.9475C3.69518 13.0731 2.82935 13.6359 2.16468 13.2752C1.5 12.9145 1.5 11.8818 1.5 9.81649V6.18348C1.5 4.11815 1.5 3.08549 2.16468 2.72478Z" fill="#FF00FF"/>
</svg>
