<svg width="16" height="16" viewBox="0 0 16 16" fill="none" xmlns="http://www.w3.org/2000/svg">
<path fill-rule="evenodd" clip-rule="evenodd" d="M8.32659 2.68953C7.95371 2.50916 7.50522 2.66522 7.32484 3.0381C7.14447 3.41098 7.30053 3.85947 7.67341 4.03985C8.11907 4.25542 8.69065 4.6213 9.51054 5.14837L11.7576 6.59289C12.5274 7.08776 13.0317 7.41433 13.3543 7.69645C13.6604 7.96415 13.6598 8.0704 13.6596 8.0983L13.6596 8.1L13.6596 8.1017C13.6598 8.12961 13.6604 8.23585 13.3543 8.50356C13.0317 8.78568 12.5274 9.11224 11.7576 9.60711L9.51054 11.0516C8.69065 11.5787 8.11907 11.9446 7.67341 12.1602C7.30053 12.3405 7.14447 12.789 7.32484 13.1619C7.50521 13.5348 7.95371 13.6908 8.32659 13.5105C8.86409 13.2505 9.5121 12.8339 10.2806 12.3398L10.2806 12.3398L10.3217 12.3134L12.5687 10.8689L12.6185 10.8369C13.3248 10.3829 13.9253 9.99691 14.3417 9.63271C14.7778 9.25134 15.1596 8.76872 15.1596 8.1C15.1596 7.43128 14.7778 6.94866 14.3417 6.56729C13.9253 6.20309 13.3248 5.81713 12.6185 5.36313L12.6185 5.36312L12.5687 5.33112L10.3217 3.8866L10.2806 3.8602C9.5121 3.36614 8.86409 2.94953 8.32659 2.68953ZM2.16468 2.72479C2.82935 2.36408 3.69519 2.92687 5.42685 4.05245L8.22147 5.86896C9.69981 6.82988 10.439 7.31034 10.439 8C10.439 8.68967 9.69981 9.17013 8.22147 10.131L5.42685 11.9476C3.69518 13.0731 2.82935 13.6359 2.16468 13.2752C1.5 12.9145 1.5 11.8818 1.5 9.81651V6.1835C1.5 4.11817 1.5 3.0855 2.16468 2.72479Z" fill="#FF00FF"/>
</svg>
