<svg width="16" height="16" viewBox="0 0 16 16" fill="none" xmlns="http://www.w3.org/2000/svg">
<path d="M1.61792 0.0429974C1.62509 0.0680799 1.64301 0.128993 1.65017 0.179158C1.686 0.361899 2.0694 2.09974 2.08732 2.15707C2.10523 2.21798 2.12673 2.31472 2.15898 2.4903C2.16615 2.54763 2.19123 2.65513 2.20915 2.72321C2.22706 2.79129 2.24856 2.88803 2.25931 2.9382C2.29873 3.14602 2.42414 3.73724 2.51013 4.10272C2.61046 4.53629 2.78245 5.31383 2.80395 5.4285C2.81112 5.46791 2.8362 5.57899 2.86128 5.67932C2.88636 5.77606 2.9007 5.86922 2.9007 5.87997C2.89711 5.89072 3.1551 6.02689 3.474 6.18096C3.79291 6.33504 4.54537 6.7041 5.14734 6.99792C7.06434 7.93671 7.77022 8.27711 7.80247 8.27711C7.8168 8.27711 7.8383 8.29145 7.85263 8.30936C7.87413 8.34878 7.84547 8.34161 5.79231 7.77547C4.99327 7.5569 4.31605 7.37057 4.28738 7.3634C4.25872 7.35624 4.11181 7.31682 3.9649 7.27383C3.81799 7.23441 3.67108 7.19141 3.64241 7.18425C3.61375 7.17708 3.54208 7.16275 3.48475 7.14842L3.38442 7.11975L3.48475 7.29532C3.5385 7.39207 3.63883 7.5569 3.70333 7.66081C3.76782 7.76472 3.82157 7.8543 3.82157 7.86505C3.82157 7.87221 3.91473 8.03704 4.03298 8.23053C4.14764 8.42402 4.42713 8.897 4.65287 9.2804C4.8786 9.6638 5.18317 10.1762 5.3265 10.4198C5.46624 10.6635 5.60599 10.8713 5.63107 10.8785C5.65615 10.8892 5.84248 10.8534 6.04672 10.8032C6.25096 10.7495 6.45878 10.6993 6.50894 10.6922C6.55911 10.6814 6.64869 10.6599 6.70602 10.642C6.76693 10.6241 6.86368 10.599 6.92101 10.5883C6.98192 10.5775 7.27574 10.5094 7.57673 10.4342C7.87771 10.3553 8.10345 10.3124 8.07837 10.3374C8.05329 10.3589 7.71647 10.5703 7.33307 10.8032C6.10405 11.5485 5.81023 11.7277 5.74573 11.785C5.70632 11.8173 5.35517 12.3583 4.96102 12.989C4.35905 13.9528 3.15152 15.8806 3.07986 15.9953C3.05836 16.0275 3.31634 15.8949 3.82157 15.6154C4.91085 15.0099 7.42982 13.6196 7.56598 13.5444C7.66631 13.4906 7.89921 13.3616 8.08554 13.2577C8.27186 13.1538 8.50835 13.0248 8.6051 12.9711C8.70543 12.9173 8.93833 12.7883 9.12466 12.6844C9.31098 12.5805 9.54747 12.4515 9.64422 12.3978C9.74454 12.344 10.1889 12.0968 10.6368 11.8459C11.0882 11.5987 11.5612 11.3371 11.6938 11.2655C11.8299 11.1938 11.9554 11.1221 11.9733 11.1078C11.9948 11.0935 12.156 11.0039 12.3316 10.9107C12.5107 10.8176 12.672 10.7244 12.6899 10.7065C12.7114 10.685 12.7257 9.97912 12.7257 8.73217L12.7293 6.7901L12.973 6.41387C13.1091 6.20604 13.3026 5.90864 13.4065 5.75098C13.5069 5.59332 13.7505 5.22067 13.944 4.92685C14.4707 4.12064 14.5818 3.94148 14.5603 3.91998C14.5532 3.90923 14.3847 3.93432 14.1913 3.97731C13.9942 4.01673 13.7792 4.05973 13.7111 4.07048C13.643 4.08123 13.557 4.09556 13.5248 4.10631C13.4925 4.11706 13.428 4.13139 13.3815 4.13856C12.6935 4.27113 11.4179 4.51479 11.3426 4.5327C11.3104 4.53987 11.2208 4.5542 11.1456 4.56495C11.0631 4.57929 10.9772 4.62228 10.9342 4.66886C10.841 4.77994 10.8159 4.81219 10.1853 5.6399C9.89145 6.02688 9.64063 6.3422 9.6263 6.3422C9.61197 6.3422 9.50447 6.26696 9.38623 6.17021C9.26798 6.07705 9.11391 5.9588 9.04941 5.90506C8.98133 5.85489 8.89175 5.77965 8.84875 5.74381C8.80575 5.70798 8.68751 5.61482 8.58718 5.53599C8.48327 5.45716 8.26111 5.278 8.08912 5.14184C7.92071 5.0021 7.74872 4.86594 7.70572 4.83727C7.66631 4.80861 7.55881 4.7262 7.47282 4.65453C7.38682 4.57929 6.91384 4.20305 6.41937 3.8089C5.92847 3.41834 5.07926 2.74112 4.53462 2.31114C3.99356 1.87758 3.48834 1.47268 3.41309 1.41535C3.33784 1.35444 2.90786 1.01404 2.45638 0.652136C2.00491 0.293819 1.62867 0 1.61792 0C1.61076 0 1.61076 0.0214987 1.61792 0.0429974Z" fill="#FF00FF"/>
</svg>
