<svg width="16" height="16" viewBox="0 0 16 16" fill="none" xmlns="http://www.w3.org/2000/svg">
<g clip-path="url(#clip0_2361_2393)">
<path d="M0.00147459 7.99286C0.00435237 3.57857 3.58115 0 7.99778 0C12.4144 0 15.9956 3.58214 15.9956 8C15.9956 12.4179 12.418 15.9964 8.00136 16H1.81842C0.815488 16 0.00297061 15.1893 0.0014853 14.1857H0V7.99286H0.00147459ZM12.2323 5.73929C12.2323 4.32143 10.9612 3.29286 9.61876 3.29286C8.37268 3.29286 7.26942 4.23214 7.11589 5.43214C7.10875 5.56786 7.1016 5.61071 7.1016 5.73571C7.09803 6.48929 7.1016 7.26429 7.07304 8.03572C7.10518 8.96786 7.10875 9.89643 7.07304 10.7714C7.07304 11.7393 6.38038 12.3964 5.47705 12.3964C4.57373 12.3964 3.84179 11.675 3.84179 10.7714C3.85965 9.78214 4.64871 9.15357 5.57346 9.125H5.5806L6.51962 9.11786V7.78571L5.5806 7.79286C3.89892 7.77857 2.56072 9.09643 2.51216 10.7714C2.51216 12.4 3.8525 13.7321 5.47705 13.7321C7.01234 13.7321 8.28699 12.5321 8.42624 11.0321L8.43338 9.12143L9.59734 9.11071C10.5007 9.11786 10.49 7.76071 9.5902 7.77857L8.43338 7.78929C8.43338 7.56071 8.43695 7.33214 8.43695 7.10357C8.44052 6.65 8.44052 6.19643 8.43338 5.73929C8.43695 5.15 8.99751 4.625 9.61876 4.625C10.2436 4.625 10.9006 4.93571 10.9006 5.73929C10.9006 5.85357 10.897 5.92143 10.8898 5.96429C10.822 6.33929 11.0755 6.69286 11.4504 6.74643C11.8289 6.8 12.1716 6.52857 12.2073 6.15357C12.2288 6.00357 12.2323 5.87143 12.2323 5.73929Z" fill="#51A2DA"/>
</g>
<defs>
<clipPath id="clip0_2361_2393">
<rect width="16" height="16" fill="white"/>
</clipPath>
</defs>
</svg>
