<svg width="16" height="16" viewBox="0 0 16 16" fill="none" xmlns="http://www.w3.org/2000/svg">
<path opacity="0.25" d="M13.5 8V5C13.5 3.89543 12.6046 3 11.5 3H9.61803C8.93283 3 8.30643 2.61287 8 2C7.69357 1.38713 7.06717 1 6.38197 1H4.5C3.39543 1 2.5 1.89543 2.5 3V6C2.5 7.10457 3.39543 8 4.5 8H6.38197C7.06717 8 7.69357 8.38713 8 9C8.30643 9.61287 8.93283 10 9.61803 10H11.5C12.6046 10 13.5 9.10457 13.5 8Z" fill="#FF00FF"/>
<path fill-rule="evenodd" clip-rule="evenodd" d="M4.5 1.75C3.80964 1.75 3.25 2.30964 3.25 3V7.25H6.38197C7.35125 7.25 8.23734 7.79764 8.67082 8.66459C8.85021 9.02337 9.21691 9.25 9.61803 9.25H11.5C12.1904 9.25 12.75 8.69036 12.75 8V5C12.75 4.30964 12.1904 3.75 11.5 3.75H9.61803C8.64875 3.75 7.76266 3.20236 7.32918 2.33541C7.14979 1.97663 6.78309 1.75 6.38197 1.75H4.5ZM3.25 8.75H6.38197C6.78309 8.75 7.14979 8.97663 7.32918 9.33541C7.76266 10.2024 8.64875 10.75 9.61803 10.75H11.5C13.0188 10.75 14.25 9.51878 14.25 8V5C14.25 3.48122 13.0188 2.25 11.5 2.25H9.61803C9.21691 2.25 8.85021 2.02337 8.67082 1.66459C8.23734 0.797635 7.35125 0.25 6.38197 0.25H4.5C2.98122 0.25 1.75 1.48122 1.75 3V8V15C1.75 15.4142 2.08579 15.75 2.5 15.75C2.91421 15.75 3.25 15.4142 3.25 15V8.75Z" fill="#FF00FF"/>
</svg>
