<svg width="16" height="16" viewBox="0 0 16 16" fill="none" xmlns="http://www.w3.org/2000/svg">
<path fill-rule="evenodd" clip-rule="evenodd" d="M9.32489 0.324023C9.58474 0.448913 9.75 0.711696 9.75 1C9.75 2.99913 10.6254 4.39415 11.6015 5.70447C11.7121 5.85292 11.8264 6.00339 11.9419 6.1553C12.3204 6.6532 12.7106 7.16655 13.0172 7.67475C13.4288 8.35695 13.75 9.12001 13.75 10C13.75 12.8889 11.2005 15.75 8 15.75C4.83493 15.75 2.25 13.2931 2.25 10C2.25 8.44537 2.8104 7.06728 3.34353 6.10231C3.61261 5.61527 3.88167 5.22098 4.08483 4.9467C4.18662 4.80929 4.27246 4.70121 4.33429 4.62586C4.36523 4.58817 4.39021 4.5586 4.40823 4.53758L4.42996 4.51248L4.43669 4.50483L4.43898 4.50224L4.43986 4.50126L4.44023 4.50085C4.44039 4.50066 4.44055 4.50049 5 5L4.44055 4.50049C4.62258 4.29661 4.90112 4.2079 5.16753 4.26895C5.43393 4.33 5.64602 4.53112 5.72112 4.79389C5.72113 4.7939 5.72113 4.7939 5.72113 4.79391C5.72113 4.79392 5.72114 4.79394 5.72114 4.79396L5.7212 4.79417L5.72163 4.79564L5.72354 4.8023L5.73159 4.83006C5.73879 4.85482 5.74964 4.89183 5.76388 4.93977C5.79236 5.03567 5.83439 5.17514 5.88802 5.34751C5.98587 5.66204 6.12184 6.08452 6.28415 6.55068C6.29358 6.42834 6.30409 6.30467 6.31577 6.17999C6.41228 5.15061 6.59133 4.02806 6.91954 3.01819C7.24324 2.02216 7.74011 1.04744 8.53148 0.414348C8.75661 0.234246 9.06504 0.199133 9.32489 0.324023ZM7.74811 9.94676C7.77227 10.2862 7.56481 10.5994 7.24279 10.7096C6.9207 10.8198 6.56479 10.6993 6.37596 10.416C5.81793 9.57897 5.29169 8.2466 4.91776 7.18712C4.85554 7.01083 4.79672 6.83968 4.74184 6.67667C4.71346 6.72576 4.68496 6.77612 4.65647 6.82769C4.1896 7.67272 3.75 8.79463 3.75 10C3.75 12.4437 5.64222 14.25 8 14.25C10.3224 14.25 12.25 12.1111 12.25 10C12.25 9.49999 12.0712 9.01055 11.7328 8.44963C11.4716 8.01664 11.1504 7.59377 10.785 7.11278C10.661 6.9496 10.532 6.77974 10.3985 6.60053C9.67672 5.6315 8.90493 4.48841 8.51229 3.02218C8.45384 3.1675 8.39841 3.32082 8.34609 3.48181C8.06492 4.34694 7.90022 5.34939 7.80923 6.32001C7.71863 7.28639 7.70327 8.19637 7.71089 8.86648C7.71469 9.20078 7.72418 9.47356 7.73264 9.6616C7.73687 9.75557 7.74084 9.82826 7.74369 9.87675L7.74704 9.93094L7.7479 9.94371L7.74808 9.94639L7.74809 9.94656C7.7481 9.94663 7.7481 9.94669 7.74811 9.94676Z" fill="#FF00FF"/>
</svg>
