<svg width="16" height="16" viewBox="0 0 16 16" fill="none" xmlns="http://www.w3.org/2000/svg">
<path fill-rule="evenodd" clip-rule="evenodd" d="M9.32489 0.324007C9.58474 0.448897 9.75 0.711681 9.75 0.999985C9.75 2.99911 10.6254 4.39414 11.6015 5.70446C11.7121 5.85291 11.8264 6.00337 11.9419 6.15528C12.3204 6.65318 12.7106 7.16653 13.0172 7.67473C13.4288 8.35693 13.75 9.12 13.75 9.99998C13.75 12.8889 11.2005 15.75 8 15.75C4.83493 15.75 2.25 13.2931 2.25 9.99998C2.25 8.40167 2.96857 7.00069 3.63287 6.03879C3.96996 5.55067 4.30626 5.15657 4.55905 4.88355C4.68579 4.74667 4.79248 4.63923 4.86904 4.56459C4.90735 4.52724 4.9382 4.49803 4.96034 4.47738L4.9869 4.45284L4.995 4.44547L4.99771 4.44302L4.99873 4.44211L4.99915 4.44173C4.99934 4.44156 4.99951 4.4414 5.5 4.99998L4.99951 4.4414C5.20003 4.26174 5.48147 4.20334 5.73692 4.28839C5.99227 4.37341 6.18249 4.58872 6.23537 4.85259C6.23538 4.8526 6.23538 4.85261 6.23538 4.85262L6.23539 4.85267L6.2354 4.85273C6.23541 4.85279 6.23542 4.85284 6.23544 4.8529L6.23549 4.85315L6.23626 4.85696L6.23997 4.87489C6.24341 4.89132 6.24877 4.91656 6.25605 4.94976C6.27061 5.01619 6.29281 5.1143 6.32264 5.23735C6.33199 5.27592 6.34208 5.3169 6.3529 5.36006C6.45683 4.53639 6.63256 3.65547 6.9274 2.839C7.25741 1.92513 7.75775 1.03332 8.53148 0.414333C8.75661 0.234231 9.06504 0.199117 9.32489 0.324007ZM7.74743 8.93795C7.77571 9.27874 7.56989 9.59553 7.24698 9.70815C6.92399 9.8208 6.56571 9.70063 6.37596 9.41601C5.81453 8.57386 5.41416 7.49003 5.15817 6.65805C5.14598 6.61843 5.13407 6.57925 5.12245 6.54054C5.03857 6.65 4.95282 6.76712 4.86713 6.89118C4.28143 7.73928 3.75 8.8383 3.75 9.99998C3.75 12.4437 5.64222 14.25 8 14.25C10.3224 14.25 12.25 12.1111 12.25 9.99998C12.25 9.49997 12.0712 9.01054 11.7328 8.44961C11.4716 8.01662 11.1504 7.59375 10.785 7.11276C10.661 6.94959 10.532 6.77973 10.3985 6.60051C9.6658 5.61683 8.88158 4.45379 8.49474 2.95544C8.43959 3.08109 8.38743 3.21221 8.33823 3.34847C8.06104 4.11607 7.89829 4.98936 7.80823 5.82988C7.71856 6.66684 7.70333 7.44799 7.71087 8.02137C7.71463 8.30728 7.72403 8.53962 7.73237 8.69908C7.73654 8.77876 7.74044 8.84012 7.74323 8.88072L7.74647 8.92572L7.74727 8.93596L7.74741 8.9377L7.74743 8.9379L7.74743 8.93795Z" fill="#FF00FF"/>
</svg>
