<svg width="16" height="16" viewBox="0 0 16 16" fill="none" xmlns="http://www.w3.org/2000/svg">
<path opacity="0.4" d="M0.25 3.5C0.25 2.39543 1.14543 1.5 2.25 1.5H8.5C9.60457 1.5 10.5 2.39543 10.5 3.5V4.99999H2L1 6.99999H0.25V3.5Z" fill="#FF00FF"/>
<path fill-rule="evenodd" clip-rule="evenodd" d="M0.25 7C0.25 5.48122 1.48122 4.25 3 4.25H13C14.5188 4.25 15.75 5.48122 15.75 7V12C15.75 13.5188 14.5188 14.75 13 14.75H3C1.48122 14.75 0.25 13.5188 0.25 12V7ZM3 5.75C2.30964 5.75 1.75 6.30964 1.75 7V12C1.75 12.6904 2.30964 13.25 3 13.25H13C13.6904 13.25 14.25 12.6904 14.25 12V7C14.25 6.30964 13.6904 5.75 13 5.75H3Z" fill="#FF00FF"/>
</svg>
