<svg width="16" height="16" viewBox="0 0 16 16" fill="none" xmlns="http://www.w3.org/2000/svg">
<path opacity="0.4" fill-rule="evenodd" clip-rule="evenodd" d="M3.5 4.25C2.80964 4.25 2.25 4.80964 2.25 5.5V6.5C2.25 6.91421 1.91421 7.25 1.5 7.25C1.08579 7.25 0.75 6.91421 0.75 6.5V5.5C0.75 3.98122 1.98122 2.75 3.5 2.75H8C8.41421 2.75 8.75 3.08579 8.75 3.5C8.75 3.91421 8.41421 4.25 8 4.25H3.5ZM14.5 8.75C14.9142 8.75 15.25 9.08579 15.25 9.5V10.5C15.25 12.0188 14.0188 13.25 12.5 13.25H8C7.58579 13.25 7.25 12.9142 7.25 12.5C7.25 12.0858 7.58579 11.75 8 11.75H12.5C13.1904 11.75 13.75 11.1904 13.75 10.5V9.5C13.75 9.08579 14.0858 8.75 14.5 8.75Z" fill="#FF00FF"/>
<path fill-rule="evenodd" clip-rule="evenodd" d="M11.5 1.25C11.0858 1.25 10.75 1.58579 10.75 2C10.75 2.41421 11.0858 2.75 11.5 2.75H13.1893L10.4697 5.46967C10.1768 5.76256 10.1768 6.23744 10.4697 6.53033C10.7626 6.82322 11.2374 6.82322 11.5303 6.53033L14.25 3.81066V5.5C14.25 5.91421 14.5858 6.25 15 6.25C15.4142 6.25 15.75 5.91421 15.75 5.5V2C15.75 1.58579 15.4142 1.25 15 1.25H11.5ZM5.53033 10.5303C5.82322 10.2374 5.82322 9.76256 5.53033 9.46967C5.23744 9.17678 4.76256 9.17678 4.46967 9.46967L1.75 12.1893V10.5C1.75 10.0858 1.41421 9.75 1 9.75C0.585786 9.75 0.25 10.0858 0.25 10.5V14C0.25 14.4142 0.585786 14.75 1 14.75H4.5C4.91421 14.75 5.25 14.4142 5.25 14C5.25 13.5858 4.91421 13.25 4.5 13.25H2.81066L5.53033 10.5303Z" fill="#FF00FF"/>
</svg>
