<svg width="16" height="16" viewBox="0 0 16 16" fill="none" xmlns="http://www.w3.org/2000/svg">
<path fill-rule="evenodd" clip-rule="evenodd" d="M1.25 5C1.25 3.48122 2.48122 2.25 4 2.25H13C14.5188 2.25 15.75 3.48122 15.75 5V10C15.75 11.5188 14.5188 12.75 13 12.75H9C8.58579 12.75 8.25 12.4142 8.25 12C8.25 11.5858 8.58579 11.25 9 11.25H13C13.6904 11.25 14.25 10.6904 14.25 10V5C14.25 4.30964 13.6904 3.75 13 3.75H4C3.30964 3.75 2.75 4.30964 2.75 5V6C2.75 6.41421 2.41421 6.75 2 6.75C1.58579 6.75 1.25 6.41421 1.25 6V5Z" fill="#FF00FF"/>
<path fill-rule="evenodd" clip-rule="evenodd" d="M6.53033 8.46967C6.82322 8.76256 6.82322 9.23744 6.53033 9.53033L3.81066 12.25H5.5C5.91421 12.25 6.25 12.5858 6.25 13C6.25 13.4142 5.91421 13.75 5.5 13.75H2C1.58579 13.75 1.25 13.4142 1.25 13V9.5C1.25 9.08579 1.58579 8.75 2 8.75C2.41421 8.75 2.75 9.08579 2.75 9.5V11.1893L5.46967 8.46967C5.76256 8.17678 6.23744 8.17678 6.53033 8.46967Z" fill="#FF00FF"/>
</svg>
