<svg width="16" height="16" viewBox="0 0 16 16" fill="none" xmlns="http://www.w3.org/2000/svg">
<path d="M11.748 2.25C10.4727 2.25 10.0427 3.17133 7.99933 3.17133C5.99333 3.17133 5.502 2.25 4.25067 2.25C0.778 2.25 0 9.16667 0 11.8153C0 13.2453 0.544667 14.25 1.646 14.25C3.95133 14.25 3.59667 10.9167 6.256 10.9167H9.74267C12.402 10.9167 12.0473 14.25 14.3527 14.25C15.454 14.25 16 13.246 16 11.816C16 9.16733 15.2207 2.25 11.748 2.25ZM4.66667 8.91667C3.562 8.91667 2.66667 8.02133 2.66667 6.91667C2.66667 5.812 3.562 4.91667 4.66667 4.91667C5.77133 4.91667 6.66667 5.812 6.66667 6.91667C6.66667 8.02133 5.77133 8.91667 4.66667 8.91667ZM11.3333 4.91667C11.7013 4.91667 12 5.21467 12 5.58333C12 5.952 11.7013 6.25 11.3333 6.25C10.9653 6.25 10.6667 5.952 10.6667 5.58333C10.6667 5.21467 10.9653 4.91667 11.3333 4.91667ZM10 7.58333C9.632 7.58333 9.33333 7.28533 9.33333 6.91667C9.33333 6.548 9.632 6.25 10 6.25C10.368 6.25 10.6667 6.548 10.6667 6.91667C10.6667 7.28533 10.368 7.58333 10 7.58333ZM11.3333 8.91667C10.9653 8.91667 10.6667 8.61867 10.6667 8.25C10.6667 7.88133 10.9653 7.58333 11.3333 7.58333C11.7013 7.58333 12 7.88133 12 8.25C12 8.61867 11.7013 8.91667 11.3333 8.91667ZM12.6667 7.58333C12.2987 7.58333 12 7.28533 12 6.91667C12 6.548 12.2987 6.25 12.6667 6.25C13.0347 6.25 13.3333 6.548 13.3333 6.91667C13.3333 7.28533 13.0347 7.58333 12.6667 7.58333ZM5.83333 6.91667C5.83333 7.56 5.31 8.08333 4.66667 8.08333C4.02333 8.08333 3.5 7.56 3.5 6.91667C3.5 6.27333 4.02333 5.75 4.66667 5.75C5.31 5.75 5.83333 6.27333 5.83333 6.91667Z" fill="#FF00FF"/>
</svg>
