<svg width="16" height="16" viewBox="0 0 16 16" fill="none" xmlns="http://www.w3.org/2000/svg">
<path fill-rule="evenodd" clip-rule="evenodd" d="M1.75 6C1.75 4.75736 2.75736 3.75 4 3.75H4.81818H12C13.2426 3.75 14.25 4.75736 14.25 6V10C14.25 11.2426 13.2426 12.25 12 12.25H4.81818H4C2.75736 12.25 1.75 11.2426 1.75 10V6ZM4 2.25C1.92893 2.25 0.25 3.92893 0.25 6V10C0.25 12.0711 1.92893 13.75 4 13.75H4.81818H12C14.0711 13.75 15.75 12.0711 15.75 10V6C15.75 3.92893 14.0711 2.25 12 2.25H4.81818H4ZM6.25 6C6.25 5.58579 5.91421 5.25 5.5 5.25C5.08579 5.25 4.75 5.58579 4.75 6V7.25H3.5C3.08579 7.25 2.75 7.58579 2.75 8C2.75 8.41421 3.08579 8.75 3.5 8.75H4.75V10C4.75 10.4142 5.08579 10.75 5.5 10.75C5.91421 10.75 6.25 10.4142 6.25 10V8.75H7.5C7.91421 8.75 8.25 8.41421 8.25 8C8.25 7.58579 7.91421 7.25 7.5 7.25H6.25V6ZM13 6.25C13 6.94036 12.4404 7.5 11.75 7.5C11.0596 7.5 10.5 6.94036 10.5 6.25C10.5 5.55964 11.0596 5 11.75 5C12.4404 5 13 5.55964 13 6.25ZM10.25 11C10.9404 11 11.5 10.4404 11.5 9.75C11.5 9.05964 10.9404 8.5 10.25 8.5C9.55964 8.5 9 9.05964 9 9.75C9 10.4404 9.55964 11 10.25 11Z" fill="#FF00FF"/>
</svg>
