<svg width="16" height="16" viewBox="0 0 16 16" fill="none" xmlns="http://www.w3.org/2000/svg">
<path fill-rule="evenodd" clip-rule="evenodd" d="M1.5 6C1.5 4.75736 2.50736 3.75 3.75 3.75H4.70455H12.25C13.4926 3.75 14.5 4.75736 14.5 6V10C14.5 11.2426 13.4926 12.25 12.25 12.25H4.70455H3.75C2.50736 12.25 1.5 11.2426 1.5 10V6ZM3.75 2.25C1.67893 2.25 0 3.92893 0 6V10C0 12.0711 1.67893 13.75 3.75 13.75H4.70455H12.25C14.3211 13.75 16 12.0711 16 10V6C16 3.92893 14.3211 2.25 12.25 2.25H4.70455H3.75ZM6.25 6C6.25 5.58579 5.91421 5.25 5.5 5.25C5.08579 5.25 4.75 5.58579 4.75 6V7.25H3.5C3.08579 7.25 2.75 7.58579 2.75 8C2.75 8.41421 3.08579 8.75 3.5 8.75H4.75V10C4.75 10.4142 5.08579 10.75 5.5 10.75C5.91421 10.75 6.25 10.4142 6.25 10V8.75H7.5C7.91421 8.75 8.25 8.41421 8.25 8C8.25 7.58579 7.91421 7.25 7.5 7.25H6.25V6ZM13.25 6.25C13.25 6.94036 12.6904 7.5 12 7.5C11.3096 7.5 10.75 6.94036 10.75 6.25C10.75 5.55964 11.3096 5 12 5C12.6904 5 13.25 5.55964 13.25 6.25ZM10.25 11C10.9404 11 11.5 10.4404 11.5 9.75C11.5 9.05964 10.9404 8.5 10.25 8.5C9.55964 8.5 9 9.05964 9 9.75C9 10.4404 9.55964 11 10.25 11Z" fill="#FF00FF"/>
</svg>
