<svg width="16" height="16" viewBox="0 0 16 16" fill="none" xmlns="http://www.w3.org/2000/svg">
<path d="M13.221 3.03106L7.99369 0L1.10179 3.98511L1.07202 4.01494V12L7.9391 15.9752L7.97881 15.9751L8.01864 15.9751L14.9353 11.9851L14.9353 4.06954L14.9154 4.01492L14.7365 3.88076L11.0247 6.0174L7.97878 4.29815L4.77878 6.10186L4.72909 6.15155V9.87827L7.97885 11.7565L8.0186 11.7316L11.2136 9.84841V8.81984L12.7839 7.90871L12.7839 10.7627L12.5752 10.6137V10.6236L12.5603 10.6335L12.7679 10.7868L7.97881 13.5603L7.84465 13.4758L7.84482 13.4801L3.21367 10.7628L3.24349 10.7429L3.22858 5.25717L3.21204 5.24339L3.21364 5.2422L8.01853 2.4646L11.0893 4.26335L13.221 3.03106Z" fill="#FF00FF"/>
</svg>
