<svg width="16" height="16" viewBox="0 0 16 16" fill="none" xmlns="http://www.w3.org/2000/svg">
<g clip-path="url(#clip0_2258_3899)">
<path fill-rule="evenodd" clip-rule="evenodd" d="M8 0.249998C3.71979 0.249998 0.25 3.71979 0.25 8C0.25 12.2802 3.71979 15.75 8 15.75C12.2802 15.75 15.75 12.2802 15.75 8C15.75 3.71979 12.2802 0.249998 8 0.249998ZM7.87426 1.75124C7.91608 1.75041 7.95799 1.75 8 1.75C8.80244 1.75 9.56957 1.90122 10.2744 2.17673L9.59779 4.20662C9.54746 4.35762 9.64917 4.51657 9.80735 4.53415L13.4503 4.93893C13.9595 5.84363 14.25 6.88789 14.25 8C14.25 8.18341 14.2421 8.36497 14.2266 8.54437L13.0533 6.5888C13.0192 6.53194 12.9639 6.49097 12.8995 6.47488L11.1797 6.04493C11.073 6.01824 10.9613 6.06448 10.9047 6.15884L9.65103 8.24828C9.57182 8.38029 9.62961 8.55185 9.77256 8.60902L11.8631 9.44523C11.9476 9.47902 12.007 9.55605 12.0183 9.64634L12.3709 12.4674C11.2439 13.5702 9.70136 14.25 8 14.25C4.54822 14.25 1.75 11.4518 1.75 8C1.75 7.36462 1.84481 6.7514 2.02105 6.17369L4.26283 6.92094C4.39382 6.9646 4.46461 7.10618 4.42094 7.23717L4.02635 8.42094C4.00925 8.47226 4.00925 8.52774 4.02635 8.57906L5.33215 12.4964C5.39902 12.6971 5.66925 12.7292 5.78132 12.5499L7.89459 9.16865C7.95629 9.06993 7.94169 8.94169 7.85937 8.85937L6.57322 7.57322C6.52634 7.52634 6.5 7.46275 6.5 7.39645V6.15451C6.5 6.05982 6.5535 5.97325 6.6382 5.9309L8.18976 5.15512C8.34239 5.07881 8.3754 4.8754 8.25474 4.75474L7.12741 3.62741C7.05132 3.55132 7.03246 3.43508 7.08058 3.33883L7.87109 1.75782L7.87426 1.75124Z" fill="#FF00FF"/>
</g>
<defs>
<clipPath id="clip0_2258_3899">
<rect width="16" height="16" fill="white"/>
</clipPath>
</defs>
</svg>
