<svg width="16" height="16" viewBox="0 0 16 16" fill="none" xmlns="http://www.w3.org/2000/svg">
<path fill-rule="evenodd" clip-rule="evenodd" d="M13.2449 0C9.91637 0 9.29198 4.74087 11.1645 4.74087C13.0367 4.74087 16.5736 0 13.2449 0ZM7.71804 4.15343C8.71503 4.21431 9.80889 0.348656 7.93506 0.591781C6.0619 0.834907 6.72065 4.09254 7.71804 4.15343ZM3.14891 6.55545C3.85799 6.24333 3.24023 3.19039 2.03448 4.023C0.829273 4.85574 2.43983 6.86744 3.14891 6.55545ZM5.14683 4.95748C5.99094 4.78539 6.03721 1.32292 4.53192 1.94406C3.02635 2.56533 4.3034 5.12985 5.14683 4.95748ZM7.74699 13.6773C8.71543 14.4146 9.7043 13.8498 9.55453 12.706C9.42952 11.7517 12.9084 11.1739 12.6359 12.616C12.2791 14.5072 10.3721 16 8.71881 16C5.35808 16 2.13725 12.0919 2.76678 9.27488C3.69679 5.10996 11.8639 4.29048 12.3118 6.95227C12.5694 8.48254 10.8396 9.54922 9.29549 10.5014C7.60388 11.5445 6.13521 12.4501 7.74699 13.6773Z" fill="#FF00FF"/>
</svg>
