<svg width="16" height="16" viewBox="0 0 16 16" fill="none" xmlns="http://www.w3.org/2000/svg">
<g clip-path="url(#clip0_2179_3630)">
<path d="M3.42786 8.25649C3.42786 7.68276 3.89305 7.21731 4.46694 7.21731C5.04109 7.21731 5.50612 7.68277 5.50612 8.25649C5.50612 8.8302 5.04111 9.29519 4.46694 9.29519C3.89307 9.29519 3.42786 8.83021 3.42786 8.25649Z" fill="#FF00FF"/>
<path d="M10.4936 8.25649C10.4936 7.68276 10.9584 7.21731 11.5322 7.21731C12.1065 7.21731 12.5712 7.68277 12.5712 8.25649C12.5712 8.8302 12.1065 9.29519 11.5322 9.29519C10.9585 9.29519 10.4936 8.83021 10.4936 8.25649Z" fill="#FF00FF"/>
<path fill-rule="evenodd" clip-rule="evenodd" d="M6.37269 0.400039C5.6418 0.562526 4.91876 0.788688 4.24089 1.12988C4.25639 1.72842 4.29508 2.30193 4.37353 2.88448C4.29193 2.93676 4.20904 2.98674 4.12619 3.0367C3.94173 3.14793 3.7574 3.25909 3.58772 3.39531C3.54675 3.42683 3.50563 3.45813 3.46452 3.48942C3.25497 3.64894 3.0456 3.80831 2.8565 3.99623C2.40457 3.69731 1.9263 3.41639 1.43356 3.1684C0.902403 3.74005 0.405705 4.35706 0 5.04745C0.305233 5.54124 0.623906 6.00406 0.967982 6.44326H0.977556V10.6806C0.9838 10.6772 0.99014 10.6435 0.995625 10.6099C1.00146 10.5741 1.00729 10.5383 1.01403 10.539L3.61207 10.7895C3.81869 10.8094 3.97917 10.9742 3.99366 11.1813L4.065 12.2038L6.07394 12.3471L6.21066 11.4205C6.24109 11.2143 6.42109 11.059 6.62937 11.059H9.37011C9.57846 11.059 9.75845 11.2143 9.78888 11.4205L9.92553 12.3471L11.9345 12.2038L12.0058 11.1813C12.0203 10.9743 12.1808 10.8095 12.3874 10.7895L14.9842 10.539C14.9975 10.5377 15.0202 10.6752 15.0211 10.6806L15.0213 10.3425L15.0224 10.3421V6.44325H15.032C15.3762 6.00402 15.6946 5.54118 16 5.04743C15.5944 4.357 15.0975 3.73999 14.5663 3.16839C14.0737 3.41635 13.5952 3.69726 13.1433 3.99622C12.9528 3.80687 12.7421 3.6465 12.5308 3.48576C12.4913 3.45568 12.4517 3.42559 12.4123 3.3953C12.2433 3.25957 12.0595 3.14873 11.8758 3.03792C11.7923 2.98755 11.7088 2.93717 11.6267 2.88446C11.7049 2.30191 11.7436 1.72841 11.7592 1.12987C11.0813 0.788673 10.3583 0.562497 9.62703 0.400024C9.33508 0.890726 9.06809 1.42202 8.83556 1.94151C8.55982 1.89544 8.2828 1.87836 8.00545 1.87505L8.00254 1.87488L8.00006 1.87505L7.99476 1.87468C7.71687 1.87798 7.44005 1.89544 7.16427 1.94151C6.93188 1.42207 6.66508 0.89074 6.37269 0.400039ZM2.75246 8.16337C2.75246 7.29899 3.45351 6.59866 4.31775 6.59866C5.18241 6.59866 5.88327 7.29899 5.88327 8.16337C5.88327 9.02832 5.18241 9.72899 4.31775 9.72899C3.45346 9.72899 2.75246 9.02832 2.75246 8.16337ZM10.1172 8.16337C10.1172 7.29899 10.818 6.59866 11.6828 6.59866C12.547 6.59866 13.2479 7.29899 13.2479 8.16337C13.2479 9.02832 12.547 9.72899 11.6828 9.72899C10.818 9.72899 10.1172 9.02832 10.1172 8.16337ZM7.49605 7.97225C7.49605 7.71962 7.72161 7.51429 7.99993 7.51429C8.27827 7.51429 8.50439 7.71962 8.50439 7.97225V9.41342C8.50439 9.66626 8.27826 9.87138 7.99993 9.87138C7.72161 9.87138 7.49605 9.66626 7.49605 9.41342V7.97225Z" fill="#FF00FF"/>
<path d="M0.973184 11.2411L0.97384 11.2429L3.17415 11.5977L3.24621 12.6293C3.26078 12.8382 3.42929 13.0071 3.63828 13.0221L6.40504 13.2194C6.41552 13.2201 6.42585 13.2206 6.43619 13.2206C6.64411 13.2206 6.82381 13.0651 6.85425 12.859L6.99484 11.9055H9.00473L9.14532 12.859C9.17568 13.0651 9.35561 13.2205 9.56381 13.2205C9.574 13.2205 9.58419 13.2201 9.59417 13.2194L12.3613 13.0221C12.5702 13.0071 12.7388 12.8382 12.7534 12.6293L12.8254 11.5977L15.0247 11.2413L15.0258 11.2411C15.0251 11.3928 15.0236 11.5529 15.0225 11.6681C15.0218 11.7436 15.0213 11.7998 15.0213 11.8219C15.0213 14.2889 11.8928 15.4746 8.0046 15.4883H7.99502C4.10692 15.4746 0.977393 14.2889 0.977393 11.8219C0.977393 11.8003 0.976897 11.7446 0.97623 11.6696C0.975203 11.5542 0.973838 11.3932 0.973184 11.2411Z" fill="#FF00FF"/>
</g>
<defs>
<clipPath id="clip0_2179_3630">
<rect width="16" height="16" fill="white"/>
</clipPath>
</defs>
</svg>
