<svg width="16" height="16" viewBox="0 0 16 16" fill="none" xmlns="http://www.w3.org/2000/svg">
<g clip-path="url(#clip0_2180_4593)">
<path d="M3.77783 5.33331H12.4445V12.4444H3.77783V5.33331Z" fill="white"/>
<path d="M9.77786 4.44444L12.889 5.82222L13.7779 4L9.77786 0L8.66675 1.86667L9.77786 4.44444Z" fill="#188038"/>
<path d="M8.44436 9.33337H10.6666V10.6667H8.44436V9.33337ZM5.33325 7.11115H7.55547V8.44448H5.33325V7.11115Z" fill="#34A853"/>
<path d="M9.77772 4V0H3.5555C2.79995 0 2.22217 0.577778 2.22217 1.33333V14.6667C2.22217 15.4222 2.79995 16 3.5555 16H12.4444C13.1999 16 13.7777 15.4222 13.7777 14.6667V4H9.77772ZM11.5555 11.5556H4.44439V6.22222H11.5555V11.5556Z" fill="#34A853"/>
<path d="M5.33325 9.33337H7.55547V10.6667H5.33325V9.33337ZM8.44436 7.11115H10.6666V8.44448H8.44436V7.11115Z" fill="#34A853"/>
</g>
<defs>
<clipPath id="clip0_2180_4593">
<rect width="16" height="16" fill="white"/>
</clipPath>
</defs>
</svg>
