<svg width="16" height="16" viewBox="0 0 16 16" fill="none" xmlns="http://www.w3.org/2000/svg">
<path d="M11.6843 4.3158H4.31592V11.6842H11.6843V4.3158Z" fill="white"/>
<path d="M11.6843 15L15.0001 11.6842H11.6843V15Z" fill="#EA4335"/>
<path d="M15.0001 4.3158H11.6843V11.6842H15.0001V4.3158Z" fill="#FBBC04"/>
<path d="M11.6843 11.6842H4.31592V15H11.6843V11.6842Z" fill="#34A853"/>
<path d="M1 11.6842V13.8947C1 14.5054 1.49461 15 2.10526 15H4.31579V11.6842H1Z" fill="#188038"/>
<path d="M15.0001 4.31579V2.10526C15.0001 1.49461 14.5055 1 13.8949 1H11.6843V4.31579H15.0001Z" fill="#1967D2"/>
<path d="M11.6842 1H2.10526C1.49461 1 1 1.49461 1 2.10526V11.6842H4.31579V4.31579H11.6842V1Z" fill="#4285F4"/>
<path d="M5.82721 10.0318C5.55182 9.84577 5.36116 9.57406 5.25708 9.21485L5.89629 8.95143C5.95432 9.17248 6.05563 9.3438 6.20024 9.46537C6.34392 9.58695 6.51892 9.64682 6.7234 9.64682C6.93248 9.64682 7.11208 9.58327 7.26221 9.45616C7.41234 9.32906 7.48787 9.16695 7.48787 8.97077C7.48787 8.76998 7.40866 8.60603 7.25024 8.47893C7.09181 8.35182 6.89287 8.28827 6.65524 8.28827H6.2859V7.6555H6.61747C6.82195 7.6555 6.99419 7.60024 7.13419 7.48972C7.27419 7.37919 7.34419 7.22814 7.34419 7.03564C7.34419 6.86432 7.28155 6.72801 7.15629 6.62577C7.03103 6.52353 6.87261 6.47195 6.68011 6.47195C6.49221 6.47195 6.343 6.52169 6.23247 6.62208C6.12202 6.72275 6.03898 6.84984 5.99116 6.99143L5.3584 6.72801C5.44221 6.49037 5.59603 6.28037 5.82169 6.09893C6.04734 5.91748 6.33563 5.82629 6.68563 5.82629C6.94445 5.82629 7.17747 5.87603 7.38379 5.97643C7.59011 6.07682 7.75221 6.2159 7.86918 6.39274C7.98616 6.57051 8.04419 6.76945 8.04419 6.9905C8.04419 7.21616 7.98984 7.40682 7.88116 7.5634C7.77247 7.71998 7.63892 7.83972 7.4805 7.92353V7.9613C7.68506 8.04563 7.86275 8.18415 7.99445 8.36195C8.128 8.54156 8.19524 8.75616 8.19524 9.00669C8.19524 9.25722 8.13168 9.48103 8.00458 9.67722C7.87747 9.8734 7.70155 10.0281 7.47866 10.1405C7.25484 10.2529 7.00339 10.31 6.72432 10.31C6.40103 10.3109 6.10261 10.2179 5.82721 10.0318ZM9.75366 6.85972L9.05182 7.36722L8.70089 6.83485L9.95997 5.92669H10.4426V10.2105H9.75366V6.85972Z" fill="#4285F4"/>
</svg>
