<svg width="16" height="16" viewBox="0 0 16 16" fill="none" xmlns="http://www.w3.org/2000/svg">
<path fill-rule="evenodd" clip-rule="evenodd" d="M14.72 8.15899C14.72 7.66263 14.6754 7.18535 14.5927 6.72717H8V9.4349H11.7673C11.605 10.3099 11.1118 11.0513 10.3705 11.5476V13.304H12.6327C13.9564 12.0853 14.72 10.2908 14.72 8.15899Z" fill="#4285F4"/>
<path fill-rule="evenodd" clip-rule="evenodd" d="M8.00007 14.9999C9.89007 14.9999 11.4746 14.3731 12.6328 13.304L10.3705 11.5477C9.74371 11.9677 8.94189 12.2159 8.00007 12.2159C6.1769 12.2159 4.63372 10.9845 4.08326 9.32996H1.74463V11.1436C2.89645 13.4313 5.26372 14.9999 8.00007 14.9999Z" fill="#34A853"/>
<path fill-rule="evenodd" clip-rule="evenodd" d="M4.08318 9.32983C3.94318 8.90983 3.86363 8.4612 3.86363 7.99983C3.86363 7.53847 3.94318 7.08983 4.08318 6.66983V4.8562H1.74454C1.27045 5.8012 1 6.87029 1 7.99983C1 9.12938 1.27045 10.1985 1.74454 11.1435L4.08318 9.32983Z" fill="#FBBC05"/>
<path fill-rule="evenodd" clip-rule="evenodd" d="M8.00008 3.78409C9.0278 3.78409 9.95053 4.13727 10.676 4.8309L12.6837 2.82318C11.4714 1.69364 9.88689 1 8.00008 1C5.26372 1 2.89645 2.56863 1.74463 4.85636L4.08326 6.66999C4.63372 5.01545 6.1769 3.78409 8.00008 3.78409Z" fill="#EA4335"/>
</svg>
