<svg width="16" height="16" viewBox="0 0 16 16" fill="none" xmlns="http://www.w3.org/2000/svg">
<path fill-rule="evenodd" clip-rule="evenodd" d="M3.52326 0.252234L11.8005 4.95382L11.8096 4.94476L12.1394 5.14632L15.0133 6.77976L15.014 6.78018C15.5033 7.05601 15.8461 7.48089 15.8461 7.9955C15.8461 8.50961 15.5038 8.93584 15.0153 9.21453L12.1397 10.8489L11.8096 11.0507L11.8007 11.0418L3.51922 15.7528C3.08432 15.995 2.60231 16.0773 2.19791 15.9181L2.16129 15.9547L2.0085 15.8216C1.92819 15.7705 1.85234 15.7077 1.78216 15.6326L1.50444 15.3351L1.5541 15.2855C1.44709 15.0568 1.3999 14.7918 1.3999 14.5147V1.48207C1.3999 1.2029 1.44766 0.940865 1.55053 0.713944L1.50508 0.668545L1.70951 0.448398C1.73212 0.419178 1.75605 0.390923 1.78132 0.363693L1.79654 0.347288L2.15532 0.0348038L2.2022 0.081655C2.60461 -0.0762577 3.08593 0.00247448 3.52326 0.252234ZM3.10537 0.983541L11.1827 5.5716L9.43961 7.3147L3.10364 0.982551L3.10537 0.983541ZM11.9967 6.03406L10.0331 7.99769L11.9967 9.96134L14.5979 8.4829C14.9337 8.29131 15.0039 8.09867 15.0039 7.9955C15.0039 7.89306 14.9348 7.70227 14.5999 7.51363L14.5985 7.51283L11.9967 6.03406ZM8.84172 7.99785L2.24397 1.4067C2.2428 1.43082 2.24218 1.45594 2.24218 1.48207V14.5147C2.24218 14.5428 2.24289 14.5697 2.24424 14.5953L8.84172 7.99785ZM3.08656 15.0294L3.1078 15.0178L11.183 10.4241L9.43745 8.67854L3.08656 15.0294Z" fill="#FF00FF"/>
</svg>
