<svg width="16" height="16" viewBox="0 0 16 16" fill="none" xmlns="http://www.w3.org/2000/svg">
<g clip-path="url(#clip0_2180_4594)">
<path d="M3.77783 5.33331H12.4445V12.4444H3.77783V5.33331Z" fill="white"/>
<path d="M9.77786 4.44444L12.889 5.82222L13.7779 4L9.77786 0L8.66675 1.86667L9.77786 4.44444Z" fill="#1967D2"/>
<path d="M9.77772 4V0H3.5555C2.79995 0 2.22217 0.577778 2.22217 1.33333V14.6667C2.22217 15.4222 2.79995 16 3.5555 16H12.4444C13.1999 16 13.7777 15.4222 13.7777 14.6667V4H9.77772ZM10.2222 11.5556H4.88883V10.6667H10.2222V11.5556ZM11.1111 9.33333H4.88883V8.44444H11.1111V9.33333ZM11.1111 7.11111H4.88883V6.22222H11.1111V7.11111Z" fill="#4285F4"/>
</g>
<defs>
<clipPath id="clip0_2180_4594">
<rect width="16" height="16" fill="white"/>
</clipPath>
</defs>
</svg>
