<svg width="16" height="16" viewBox="0 0 16 16" fill="none" xmlns="http://www.w3.org/2000/svg">
<g clip-path="url(#clip0_2180_4592)">
<path d="M9.37866 4L11.5721 4.41455L13.3787 4L9.37866 0L8.82666 1.896L9.37866 4Z" fill="#56368A"/>
<path d="M9.37855 4V0H2.9156C2.31287 0 1.82227 0.488182 1.82227 1.09091V14.9091C1.82227 15.5118 2.31287 16 2.9156 16H12.2876C12.8904 16 13.3786 15.5118 13.3786 14.9091V4H9.37855Z" fill="#7248B9"/>
<path d="M4.83305 11.5455C4.53214 11.5455 4.2876 11.3009 4.2876 11C4.2876 10.6991 4.53214 10.4546 4.83305 10.4546C5.13396 10.4546 5.37851 10.6991 5.37851 11C5.37851 11.3009 5.13396 11.5455 4.83305 11.5455ZM4.83305 9.36367C4.53214 9.36367 4.2876 9.11912 4.2876 8.81822C4.2876 8.51731 4.53214 8.27276 4.83305 8.27276C5.13396 8.27276 5.37851 8.51731 5.37851 8.81822C5.37851 9.11912 5.13396 9.36367 4.83305 9.36367ZM4.83305 7.18185C4.53214 7.18185 4.2876 6.93731 4.2876 6.6364C4.2876 6.33549 4.53214 6.09094 4.83305 6.09094C5.13396 6.09094 5.37851 6.33549 5.37851 6.6364C5.37851 6.93731 5.13396 7.18185 4.83305 7.18185ZM10.8331 11.4546H6.2876V10.5455H10.8331V11.4546ZM10.8331 9.27276H6.2876V8.36367H10.8331V9.27276ZM10.8331 7.09094H6.2876V6.18185H10.8331V7.09094Z" fill="white"/>
</g>
<defs>
<clipPath id="clip0_2180_4592">
<rect width="16" height="16" fill="white"/>
</clipPath>
</defs>
</svg>
