<svg width="16" height="16" viewBox="0 0 16 16" fill="none" xmlns="http://www.w3.org/2000/svg">
<g opacity="0.6">
<path d="M15 4.31579H11.6842V11.6842H15V4.31579Z" fill="#FF00FF"/>
<path d="M11.6842 11.6842H4.31579V15H11.6842V11.6842Z" fill="#FF00FF"/>
<path d="M11.6842 1H2.10526C1.49461 1 1 1.49461 1 2.10526V11.6842H4.31579V4.31579H11.6842V1Z" fill="#FF00FF"/>
</g>
<path d="M11.6842 15L15 11.6842H11.6842V15Z" fill="#FF00FF"/>
<path d="M1 11.6842V13.8947C1 14.5054 1.49461 15 2.10526 15H4.31579V11.6842H1Z" fill="#FF00FF"/>
<path d="M15 4.31579V2.10526C15 1.49461 14.5054 1 13.8947 1H11.6842V4.31579H15Z" fill="#FF00FF"/>
<path d="M5.82724 10.0318C5.55185 9.84578 5.36119 9.57407 5.25711 9.21486L5.89632 8.95144C5.95435 9.17249 6.05567 9.34381 6.20027 9.46539C6.34395 9.58697 6.51896 9.64684 6.72343 9.64684C6.93251 9.64684 7.11211 9.58328 7.26224 9.45618C7.41237 9.32907 7.4879 9.16697 7.4879 8.97078C7.4879 8.76999 7.40869 8.60605 7.25027 8.47894C7.09185 8.35184 6.8929 8.28828 6.65527 8.28828H6.28593V7.65552H6.61751C6.82198 7.65552 6.99422 7.60026 7.13422 7.48973C7.27422 7.3792 7.34422 7.22815 7.34422 7.03565C7.34422 6.86433 7.28159 6.72802 7.15632 6.62578C7.03106 6.52355 6.87264 6.47197 6.68014 6.47197C6.49225 6.47197 6.34303 6.5217 6.23251 6.6221C6.12205 6.72276 6.03901 6.84986 5.99119 6.99144L5.35843 6.72802C5.44225 6.49039 5.59606 6.28039 5.82172 6.09894C6.04738 5.91749 6.33567 5.82631 6.68567 5.82631C6.94448 5.82631 7.17751 5.87604 7.38382 5.97644C7.59014 6.07683 7.75224 6.21591 7.86922 6.39276C7.98619 6.57052 8.04422 6.76947 8.04422 6.99052C8.04422 7.21618 7.98988 7.40683 7.88119 7.56341C7.77251 7.71999 7.63895 7.83973 7.48053 7.92355V7.96131C7.68509 8.04565 7.86278 8.18417 7.99448 8.36197C8.12803 8.54157 8.19527 8.75618 8.19527 9.0067C8.19527 9.25723 8.13172 9.48105 8.00461 9.67723C7.87751 9.87342 7.70159 10.0282 7.47869 10.1405C7.25488 10.2529 7.00343 10.31 6.72435 10.31C6.40106 10.3109 6.10264 10.2179 5.82724 10.0318ZM9.75369 6.85973L9.05185 7.36723L8.70093 6.83486L9.96001 5.9267H10.4426V10.2105H9.75369V6.85973Z" fill="#FF00FF"/>
</svg>
