<svg width="16" height="16" viewBox="0 0 16 16" fill="none" xmlns="http://www.w3.org/2000/svg">
<g clip-path="url(#clip0_2179_3575)">
<path fill-rule="evenodd" clip-rule="evenodd" d="M1.6 0C0.716344 0 0 0.716345 0 1.6V14.4C0 15.2837 0.716345 16 1.6 16H14.4C15.2837 16 16 15.2837 16 14.4V1.6C16 0.716344 15.2837 0 14.4 0H1.6Z" fill="#0E1A45"/>
<path fill-rule="evenodd" clip-rule="evenodd" d="M9.95968 3.30676L8.46976 4.1601L6.97984 5.01343L5.48992 5.86676V10.9868L6.97984 10.1334L8.46976 9.2801V7.57343L6.97984 8.42676V6.7201L8.46976 5.86676L9.95968 5.01343V10.1334L8.46976 10.9868L6.97984 11.8401L5.48992 12.6934L4 13.5468L5.48992 14.4001L6.97984 13.5468L8.46976 12.6934L9.95968 11.8401L11.4496 10.9868V2.45343L9.95968 1.6001V3.30676Z" fill="white"/>
</g>
<defs>
<clipPath id="clip0_2179_3575">
<rect width="16" height="16" fill="white"/>
</clipPath>
</defs>
</svg>
