<svg width="16" height="16" viewBox="0 0 16 16" fill="none" xmlns="http://www.w3.org/2000/svg">
<path fill-rule="evenodd" clip-rule="evenodd" d="M14 9.98066V8C14 4.68629 11.3137 2 8 2C4.68629 2 2 4.68629 2 8V10H2.00006C2.00006 11.6569 3.34321 13 5.00006 13H6.00006V7H5.00006C4.47119 7 3.97428 7.13685 3.54281 7.37708C3.84613 5.18661 5.72613 3.5 8.00005 3.5C10.274 3.5 12.154 5.1866 12.4573 7.37707C12.0258 7.13685 11.5289 7 11.0001 7H10.0001V13H11.0001C12.6569 13 14.0001 11.6569 14.0001 10C14.0001 9.99355 14 9.9871 14 9.98066Z" fill="#FF00FF"/>
</svg>
