<svg width="16" height="16" viewBox="0 0 16 16" fill="none" xmlns="http://www.w3.org/2000/svg">
<g clip-path="url(#clip0_2376_2660)">
<path fill-rule="evenodd" clip-rule="evenodd" d="M8 2.25C4.54822 2.25 1.75 5.04822 1.75 8.5C1.75 8.81757 1.77363 9.12923 1.81913 9.43342L4.26692 9.71633C5.58846 9.86907 6.63093 10.9115 6.78367 12.2331C6.8965 13.2093 6.50086 14.1239 5.81634 14.648C5.09697 15.1988 4.08978 15.2813 3.22791 14.6069C1.86612 13.5414 0.868688 12.029 0.457399 10.2878C0.321657 9.71315 0.25 9.11446 0.25 8.5C0.25 4.21979 3.71979 0.75 8 0.75C12.2802 0.75 15.75 4.21979 15.75 8.5C15.75 9.11446 15.6783 9.71315 15.5426 10.2878C15.1313 12.029 14.1339 13.5414 12.7721 14.6069C11.9102 15.2813 10.903 15.1988 10.1837 14.648C9.49914 14.1239 9.1035 13.2093 9.21633 12.2331C9.36907 10.9115 10.4115 9.86907 11.7331 9.71633L14.1809 9.43342C14.2264 9.12923 14.25 8.81757 14.25 8.5C14.25 5.04822 11.4518 2.25 8 2.25ZM13.7322 10.9953L11.9053 11.2064C11.2758 11.2792 10.7792 11.7758 10.7064 12.4053C10.6509 12.8853 10.8523 13.2708 11.0955 13.457C11.3039 13.6166 11.5551 13.6545 11.8478 13.4256C12.6624 12.7882 13.3143 11.9539 13.7322 10.9953ZM2.26779 10.9953C2.68574 11.9539 3.33763 12.7882 4.15224 13.4256C4.44488 13.6545 4.69612 13.6166 4.90447 13.457C5.14769 13.2708 5.34906 12.8853 5.29359 12.4053C5.22083 11.7758 4.72424 11.2792 4.0947 11.2064L2.26779 10.9953Z" fill="#FF00FF"/>
</g>
<defs>
<clipPath id="clip0_2376_2660">
<rect width="16" height="16" fill="white"/>
</clipPath>
</defs>
</svg>
