<svg width="16" height="16" viewBox="0 0 16 16" fill="none" xmlns="http://www.w3.org/2000/svg">
<path d="M5 13C3.34315 13 2 11.6569 2 10C2 8.34315 3.34315 7 5 7H6V13H5Z" fill="#FF00FF"/>
<path d="M14 10C14 11.6569 12.6569 13 11 13H10V7H11C12.6569 7 14 8.34315 14 10Z" fill="#FF00FF"/>
<path fill-rule="evenodd" clip-rule="evenodd" d="M14 8V10H13.6586C13.3999 10.7318 13.0033 11.3985 12.5 11.9687V8.02135C12.5 8.01424 12.5 8.00712 12.5 8C12.5 5.51472 10.4853 3.5 8.00005 3.5C5.51477 3.5 3.50005 5.51472 3.50005 8H3.5V11.9687C2.99668 11.3985 2.60007 10.7318 2.34141 10H2V8C2 4.68629 4.68629 2 8 2C11.3137 2 14 4.68629 14 8Z" fill="#FF00FF"/>
</svg>
