<svg width="16" height="16" viewBox="0 0 16 16" fill="none" xmlns="http://www.w3.org/2000/svg">
<path fill-rule="evenodd" clip-rule="evenodd" d="M2.63028 3.28967C2.1426 3.78896 1.75 4.64521 1.75 6C1.75 7.6524 2.64387 9.25169 3.86531 10.6505C5.076 12.0369 6.52765 13.1334 7.46091 13.7677C7.79211 13.9929 8.20789 13.9929 8.53909 13.7677C9.47235 13.1334 10.924 12.0369 12.1347 10.6505C13.3561 9.25169 14.25 7.6524 14.25 6C14.25 4.64522 13.8574 3.78897 13.3697 3.28968C12.8826 2.79097 12.2308 2.57471 11.5534 2.62309C10.1943 2.72017 8.75 3.89509 8.75 6C8.75 6.41421 8.41421 6.75 8 6.75C7.58579 6.75 7.25 6.41421 7.25 6C7.25 3.89509 5.8057 2.72017 4.44656 2.62309C3.76925 2.57471 3.11739 2.79096 2.63028 3.28967ZM8 3.24748C7.21098 1.97971 5.89903 1.22301 4.55344 1.1269C3.48075 1.05028 2.38261 1.39652 1.55722 2.24157C0.732396 3.08603 0.25 4.35478 0.25 6C0.25 8.1841 1.41676 10.1269 2.73545 11.6371C4.0649 13.1596 5.63289 14.3389 6.61766 15.0083C7.45781 15.5794 8.54219 15.5794 9.38234 15.0083C10.3671 14.3389 11.9351 13.1596 13.2645 11.6371C14.5832 10.1269 15.75 8.1841 15.75 6C15.75 4.35478 15.2676 3.08603 14.4428 2.24157C13.6174 1.39653 12.5192 1.05028 11.4466 1.1269C10.101 1.22302 8.78903 1.97971 8 3.24748Z" fill="#FF00FF"/>
</svg>
