<svg width="16" height="16" viewBox="0 0 16 16" fill="none" xmlns="http://www.w3.org/2000/svg">
<g clip-path="url(#clip0_2258_3201)">
<path opacity="0.2" d="M8 16C12.4183 16 16 12.4183 16 8C16 3.58172 12.4183 0 8 0C3.58172 0 0 3.58172 0 8C0 12.4183 3.58172 16 8 16Z" fill="#FF00FF"/>
<path fill-rule="evenodd" clip-rule="evenodd" d="M7.04942 8.74128C7.04942 9.22093 7.2093 9.65698 7.55814 9.99128L8.85174 9.55523C8.64826 9.40988 8.53198 9.13372 8.53198 8.90116C8.53198 8.33616 9.02553 7.98466 9.5815 7.5887C10.2984 7.0781 11.1192 6.49358 11.1192 5.28198C11.1192 3.97384 10 3 8.1686 3C6.86046 3 5.74128 3.52326 5 4.43895L5.98837 5.52907C6.46802 4.90407 7.10756 4.51163 8.00872 4.51163C8.93895 4.51163 9.38953 4.99128 9.38953 5.55814C9.38953 6.12022 8.90518 6.46268 8.37718 6.83599C7.74462 7.28324 7.04942 7.77477 7.04942 8.74128ZM7.06394 11.968C7.06394 12.5203 7.52905 13 8.08138 13C8.63371 13 9.09882 12.5203 9.09882 11.968C9.09882 11.4302 8.63371 10.9651 8.08138 10.9651C7.52905 10.9651 7.06394 11.4302 7.06394 11.968Z" fill="#FF00FF"/>
</g>
<defs>
<clipPath id="clip0_2258_3201">
<rect width="16" height="16" fill="white"/>
</clipPath>
</defs>
</svg>
