<svg width="16" height="16" viewBox="0 0 16 16" fill="none" xmlns="http://www.w3.org/2000/svg">
<g clip-path="url(#clip0_2266_3974)">
<path opacity="0.2" d="M8 16C12.4183 16 16 12.4183 16 8C16 3.58172 12.4183 0 8 0C3.58172 0 0 3.58172 0 8C0 12.4183 3.58172 16 8 16Z" fill="#FF00FF"/>
<path fill-rule="evenodd" clip-rule="evenodd" d="M6.75 5.25C6.75 4.55964 7.30964 4 8 4C8.69036 4 9.25 4.55964 9.25 5.25C9.25 5.72217 8.98849 6.13435 8.59884 6.34765C8.30559 6.50818 7.98452 6.73334 7.72851 7.03185C7.46923 7.33417 7.25 7.74568 7.25 8.25V9.25C7.25 9.66421 7.58579 10 8 10C8.41421 10 8.75 9.66421 8.75 9.25V8.25C8.75 8.20203 8.76803 8.1239 8.86712 8.00836C8.96949 7.889 9.12791 7.76807 9.31911 7.66341C10.1702 7.19752 10.75 6.29201 10.75 5.25C10.75 3.73122 9.51878 2.5 8 2.5C6.48122 2.5 5.25 3.73122 5.25 5.25C5.25 5.66421 5.58579 6 6 6C6.41421 6 6.75 5.66421 6.75 5.25ZM8 13.25C8.55228 13.25 9 12.8023 9 12.25C9 11.6977 8.55228 11.25 8 11.25C7.44772 11.25 7 11.6977 7 12.25C7 12.8023 7.44772 13.25 8 13.25Z" fill="#FF00FF"/>
</g>
<defs>
<clipPath id="clip0_2266_3974">
<rect width="16" height="16" fill="white"/>
</clipPath>
</defs>
</svg>
