<svg width="16" height="16" viewBox="0 0 16 16" fill="none" xmlns="http://www.w3.org/2000/svg">
<g clip-path="url(#clip0_2262_3137)">
<path opacity="0.2" d="M8 16C12.4183 16 16 12.4183 16 8C16 3.58172 12.4183 0 8 0C3.58172 0 0 3.58172 0 8C0 12.4183 3.58172 16 8 16Z" fill="#FF00FF"/>
<path fill-rule="evenodd" clip-rule="evenodd" d="M6.75 5.5C6.75 4.80964 7.30964 4.25 8 4.25C8.69036 4.25 9.25 4.80964 9.25 5.5C9.25 5.97217 8.98849 6.38435 8.59884 6.59765C8.30559 6.75818 7.98452 6.98334 7.72851 7.28185C7.46923 7.58417 7.25 7.99568 7.25 8.5V9.5C7.25 9.91421 7.58579 10.25 8 10.25C8.41421 10.25 8.75 9.91421 8.75 9.5V8.5C8.75 8.45203 8.76803 8.3739 8.86712 8.25836C8.96949 8.139 9.12791 8.01807 9.31911 7.91341C10.1702 7.44752 10.75 6.54201 10.75 5.5C10.75 3.98122 9.51878 2.75 8 2.75C6.48122 2.75 5.25 3.98122 5.25 5.5C5.25 5.91421 5.58579 6.25 6 6.25C6.41421 6.25 6.75 5.91421 6.75 5.5ZM8 13C8.55228 13 9 12.5523 9 12C9 11.4477 8.55228 11 8 11C7.44772 11 7 11.4477 7 12C7 12.5523 7.44772 13 8 13Z" fill="#FF00FF"/>
</g>
<defs>
<clipPath id="clip0_2262_3137">
<rect width="16" height="16" fill="white"/>
</clipPath>
</defs>
</svg>
