<svg width="16" height="16" viewBox="0 0 16 16" fill="none" xmlns="http://www.w3.org/2000/svg">
<path fill-rule="evenodd" clip-rule="evenodd" d="M6.94992 1.85001C7.57214 1.38334 8.42769 1.38333 9.04992 1.84999L12.4333 4.38752L15.4159 6.37596C15.7606 6.60573 15.8537 7.07138 15.624 7.41603C15.3942 7.76067 14.9285 7.8538 14.5839 7.62403L12.75 6.40141V12.5C12.75 13.4665 11.9665 14.25 11 14.25H4.99998C4.03348 14.25 3.24998 13.4665 3.24998 12.5V6.40138L1.41594 7.62404C1.07129 7.8538 0.605637 7.76066 0.375877 7.41601C0.146117 7.07137 0.239254 6.60571 0.583903 6.37595L3.56663 4.38752L6.94992 1.85001ZM4.74998 6.75V12.5C4.74998 12.6381 4.86191 12.75 4.99998 12.75H11C11.1381 12.75 11.25 12.6381 11.25 12.5V6.75H4.74998ZM11.0833 5.25L8.14993 3.05C8.06104 2.98333 7.93882 2.98333 7.84993 3.05L4.91666 5.25H11.0833Z" fill="#FF00FF"/>
</svg>
