<svg width="16" height="16" viewBox="0 0 16 16" fill="none" xmlns="http://www.w3.org/2000/svg">
<path opacity="0.4" d="M4 10.5L5.5 9V8H10.5V9L12 10.5V14H4V10.5Z" fill="#FF00FF"/>
<path fill-rule="evenodd" clip-rule="evenodd" d="M2.75 3.5C2.75 1.98122 3.98122 0.75 5.5 0.75H10.5C12.0188 0.75 13.25 1.98122 13.25 3.5V3.67157C13.25 4.40092 12.9603 5.10039 12.4445 5.61612L10.9445 7.11612C10.4564 7.60427 10.4564 8.39573 10.9445 8.88388L12.4445 10.3839C12.9603 10.8996 13.25 11.5991 13.25 12.3284V12.5C13.25 14.0188 12.0188 15.25 10.5 15.25H5.5C3.98122 15.25 2.75 14.0188 2.75 12.5V12.3284C2.75 11.5991 3.03973 10.8996 3.55546 10.3839L5.05546 8.88388C5.54361 8.39573 5.54361 7.60427 5.05546 7.11612L3.55546 5.61612C3.03973 5.10039 2.75 4.40092 2.75 3.67157V3.5ZM5.5 2.25C4.80964 2.25 4.25 2.80964 4.25 3.5V3.67157C4.25 4.00309 4.3817 4.32104 4.61612 4.55546L6.11612 6.05546C7.19006 7.1294 7.19006 8.8706 6.11612 9.94454L4.61612 11.4445C4.3817 11.679 4.25 11.9969 4.25 12.3284V12.5C4.25 13.1904 4.80964 13.75 5.5 13.75H10.5C11.1904 13.75 11.75 13.1904 11.75 12.5V12.3284C11.75 11.9969 11.6183 11.679 11.3839 11.4445L9.88388 9.94454C8.80994 8.8706 8.80994 7.1294 9.88388 6.05546L11.3839 4.55546C11.6183 4.32104 11.75 4.00309 11.75 3.67157V3.5C11.75 2.80964 11.1904 2.25 10.5 2.25H5.5Z" fill="#FF00FF"/>
</svg>
