<svg width="16" height="16" viewBox="0 0 16 16" fill="none" xmlns="http://www.w3.org/2000/svg">
<g clip-path="url(#clip0_2389_2484)">
<rect width="16" height="16" rx="4" fill="#FF6B40"/>
<path d="M13.1584 9.66602C13.6977 9.66662 14.14 10.1058 14.1418 10.6416C14.1436 11.1787 13.6842 11.6428 13.1545 11.6396C12.6238 11.6362 12.1629 11.1681 12.1682 10.6377C12.1736 10.1048 12.621 9.66547 13.1584 9.66602ZM4.39673 4.35938C4.47751 4.35938 4.54321 4.42789 4.54321 4.51172V11.2764C4.5432 11.3602 4.4775 11.4287 4.39673 11.4287H3.21802C3.13752 11.4287 3.0719 11.3608 3.07153 11.2773C3.07153 11.2743 3.06862 4.54292 3.0686 4.51172C3.0686 4.42801 3.1335 4.35958 3.21411 4.35938H4.39673ZM8.49438 4.36035C10.3505 4.3606 11.8606 5.94159 11.8606 7.88477C11.8604 9.83868 10.3504 11.4285 8.49438 11.4287H6.15454C6.07376 11.4287 6.00806 11.3602 6.00806 11.2764V4.51172C6.0081 4.42792 6.07379 4.36035 6.15454 4.36035H8.49438ZM7.48364 9.94629H8.38403C8.98473 9.94623 9.51193 9.69186 9.86841 9.23047C10.2589 8.72486 10.3929 8.01808 10.2366 7.29199C10.0546 6.44664 9.30924 5.83301 8.46411 5.83301H7.48364V9.94629Z" fill="white"/>
</g>
<defs>
<clipPath id="clip0_2389_2484">
<rect width="16" height="16" fill="white"/>
</clipPath>
</defs>
</svg>
