<svg width="16" height="16" viewBox="0 0 16 16" fill="none" xmlns="http://www.w3.org/2000/svg">
<g clip-path="url(#clip0_2389_2485)">
<path d="M9.59961 1.63272e-09C11.8398 1.63272e-09 12.9608 -0.000427061 13.8164 0.435547C14.5689 0.819016 15.181 1.43109 15.5645 2.18359C16.0004 3.03924 16 4.16018 16 6.40039V9.59961C16 11.8398 16.0004 12.9608 15.5645 13.8164C15.181 14.5689 14.5689 15.181 13.8164 15.5645C12.9608 16.0004 11.8398 16 9.59961 16H6.40039C4.16018 16 3.03924 16.0004 2.18359 15.5645C1.43109 15.181 0.819016 14.5689 0.435547 13.8164C-0.000427061 12.9608 1.63272e-09 11.8398 1.63272e-09 9.59961V6.40039C1.63272e-09 4.16018 -0.000427061 3.03924 0.435547 2.18359C0.819016 1.43109 1.43109 0.819016 2.18359 0.435547C3.03924 -0.000427061 4.16018 1.63272e-09 6.40039 1.63272e-09H9.59961ZM13.1582 9.66602C12.6209 9.6656 12.1734 10.1048 12.168 10.6377C12.1627 11.1681 12.6237 11.6361 13.1543 11.6396C13.6839 11.6428 14.1433 11.1787 14.1416 10.6416C14.1397 10.1058 13.6975 9.66662 13.1582 9.66602ZM3.21387 4.36035C3.13337 4.3607 3.06836 4.4281 3.06836 4.51172C3.06837 4.54292 3.07129 11.2743 3.07129 11.2773C3.07165 11.3607 3.13738 11.4286 3.21777 11.4287H4.39648C4.47726 11.4287 4.54296 11.3602 4.54297 11.2764V4.51172C4.54297 4.42789 4.47726 4.36035 4.39648 4.36035H3.21387ZM6.1543 4.36035C6.07366 4.36049 6.00786 4.42801 6.00781 4.51172V11.2764C6.00781 11.3601 6.07363 11.4286 6.1543 11.4287H8.49414C10.3501 11.4285 11.8602 9.83868 11.8604 7.88477C11.8604 5.94159 10.3502 4.3606 8.49414 4.36035H6.1543ZM8.46387 5.83301C9.30898 5.83301 10.0543 6.44667 10.2363 7.29199C10.3926 8.01808 10.2587 8.72486 9.86816 9.23047C9.51169 9.69179 8.98443 9.94623 8.38379 9.94629H7.4834V5.83301H8.46387Z" fill="#FF00FF"/>
</g>
<defs>
<clipPath id="clip0_2389_2485">
<rect width="16" height="16" fill="white"/>
</clipPath>
</defs>
</svg>
