<svg width="16" height="16" viewBox="0 0 16 16" fill="none" xmlns="http://www.w3.org/2000/svg">
<path opacity="0.4" fill-rule="evenodd" clip-rule="evenodd" d="M15 12.5762V12L11.7059 8.7059C11.316 8.31604 10.6144 8.22894 10.1402 8.51046L9.85979 8.67696C9.38494 8.95889 8.74422 8.83042 8.42157 8.38005L6.57843 5.80737C6.25897 5.36147 5.62467 5.26193 5.17831 5.57346L0.5 8.83848V11.0554C0.5 12.4111 1.52869 13.5 2.80441 13.5H13.1956C13.9264 13.5 14.5778 13.1392 15 12.5762Z" fill="#FF00FF"/>
<path fill-rule="evenodd" clip-rule="evenodd" d="M10 3.5H6C5.04759 3.5 4.40841 3.50081 3.91348 3.53458C3.43203 3.56743 3.1976 3.62639 3.04329 3.6903C2.43072 3.94404 1.94404 4.43072 1.6903 5.04329C1.62639 5.1976 1.56743 5.43203 1.53458 5.91348C1.50081 6.40841 1.5 7.04759 1.5 8C1.5 8.95241 1.50081 9.59159 1.53458 10.0865C1.56743 10.568 1.62639 10.8024 1.6903 10.9567C1.94404 11.5693 2.43072 12.056 3.04329 12.3097C3.1976 12.3736 3.43203 12.4326 3.91348 12.4654C4.40841 12.4992 5.04759 12.5 6 12.5H10C10.9524 12.5 11.5916 12.4992 12.0865 12.4654C12.568 12.4326 12.8024 12.3736 12.9567 12.3097C13.5693 12.056 14.056 11.5693 14.3097 10.9567C14.3736 10.8024 14.4326 10.568 14.4654 10.0865C14.4992 9.59159 14.5 8.95241 14.5 8C14.5 7.04759 14.4992 6.40841 14.4654 5.91348C14.4326 5.43203 14.3736 5.1976 14.3097 5.04329C14.056 4.43072 13.5693 3.94404 12.9567 3.6903C12.8024 3.62639 12.568 3.56743 12.0865 3.53458C11.5916 3.50081 10.9524 3.5 10 3.5ZM0.304482 4.46927C0 5.20435 0 6.13623 0 8C0 9.86377 0 10.7956 0.304482 11.5307C0.710458 12.5108 1.48915 13.2895 2.46927 13.6955C3.20435 14 4.13623 14 6 14H10C11.8638 14 12.7956 14 13.5307 13.6955C14.5108 13.2895 15.2895 12.5108 15.6955 11.5307C16 10.7956 16 9.86377 16 8C16 6.13623 16 5.20435 15.6955 4.46927C15.2895 3.48915 14.5108 2.71046 13.5307 2.30448C12.7956 2 11.8638 2 10 2H6C4.13623 2 3.20435 2 2.46927 2.30448C1.48915 2.71046 0.710458 3.48915 0.304482 4.46927Z" fill="#FF00FF"/>
</svg>
