<svg width="16" height="16" viewBox="0 0 16 16" fill="none" xmlns="http://www.w3.org/2000/svg">
<path opacity="0.3" fill-rule="evenodd" clip-rule="evenodd" d="M15 12.5762V12L11.7059 8.70591C11.316 8.31605 10.6144 8.22896 10.1402 8.51048L9.85979 8.67697C9.38494 8.9589 8.74422 8.83043 8.42157 8.38007L6.57843 5.80739C6.25897 5.36148 5.62467 5.26195 5.17831 5.57347L0.5 8.8385V11.0554C0.5 12.4111 1.52869 13.5 2.80441 13.5H13.1956C13.9264 13.5 14.5778 13.1392 15 12.5762Z" fill="#FF00FF"/>
<path fill-rule="evenodd" clip-rule="evenodd" d="M10 3.5H6C4.54338 3.5 3.60182 3.50319 2.90806 3.59646C2.25745 3.68393 2.05353 3.82515 1.93934 3.93934C1.82515 4.05353 1.68393 4.25745 1.59646 4.90806C1.50319 5.60182 1.5 6.54338 1.5 8C1.5 9.45662 1.50319 10.3982 1.59646 11.0919C1.68393 11.7426 1.82515 11.9465 1.93934 12.0607C2.05353 12.1748 2.25745 12.3161 2.90806 12.4035C3.60182 12.4968 4.54338 12.5 6 12.5H10C11.4566 12.5 12.3982 12.4968 13.0919 12.4035C13.7426 12.3161 13.9465 12.1748 14.0607 12.0607C14.1748 11.9465 14.3161 11.7426 14.4035 11.0919C14.4968 10.3982 14.5 9.45662 14.5 8C14.5 6.54338 14.4968 5.60182 14.4035 4.90806C14.3161 4.25745 14.1748 4.05353 14.0607 3.93934C13.9465 3.82515 13.7426 3.68393 13.0919 3.59646C12.3982 3.50319 11.4566 3.5 10 3.5ZM0.87868 2.87868C0 3.75736 0 5.17157 0 8C0 10.8284 0 12.2426 0.87868 13.1213C1.75736 14 3.17157 14 6 14H10C12.8284 14 14.2426 14 15.1213 13.1213C16 12.2426 16 10.8284 16 8C16 5.17157 16 3.75736 15.1213 2.87868C14.2426 2 12.8284 2 10 2H6C3.17157 2 1.75736 2 0.87868 2.87868Z" fill="#FF00FF"/>
</svg>
