<svg width="16" height="16" viewBox="0 0 16 16" fill="none" xmlns="http://www.w3.org/2000/svg">
<path opacity="0.3" d="M2 10H4L6 12H10L12 10H14L13.5 15H2.5L2 10Z" fill="#FF00FF"/>
<path d="M2 10V13.5C2 14.3284 2.67157 15 3.5 15H12.5C13.3284 15 14 14.3284 14 13.5V10M2 10V2.5C2 1.67157 2.67157 1 3.5 1H12.5C13.3284 1 14 1.67157 14 2.5V10M2 10H3.37868C3.7765 10 4.15804 10.158 4.43934 10.4393L5.56066 11.5607C5.84197 11.842 6.2235 12 6.62132 12H9.37868C9.7765 12 10.158 11.842 10.4393 11.5607L11.5607 10.4393C11.842 10.158 12.2235 10 12.6213 10H14" stroke="#FF00FF" stroke-width="1.5"/>
</svg>
