<svg width="16" height="16" viewBox="0 0 16 16" fill="none" xmlns="http://www.w3.org/2000/svg">
<rect x="1" y="1" width="14" height="14" fill="#FF5BA2"/>
<path fill-rule="evenodd" clip-rule="evenodd" d="M14.0156 1.98438H1.98438V14.0156H14.0156V1.98438ZM5.18571 10.7719H6.32875V10.7721C6.35083 10.772 6.37248 10.7499 6.3725 10.7283V4.70221C6.37248 4.68068 6.35083 4.65847 6.32875 4.65862H5.18571C5.16394 4.65846 5.14178 4.68068 5.14196 4.70198V10.7281C5.14178 10.7497 5.16394 10.7717 5.18571 10.7719ZM10.8263 4.70198V9.87615C10.8322 10.0549 10.851 10.1772 10.8643 10.2634C10.8808 10.3709 10.8887 10.4224 10.8525 10.4571C10.1369 10.8886 8.4312 11.0566 7.77308 10.4568C5.9315 8.73013 7.26033 5.62388 9.60708 6.05496V4.70201C9.60702 4.68048 9.62646 4.65826 9.65083 4.65841H10.7828C10.8051 4.65827 10.8262 4.68048 10.8263 4.70187V4.70198ZM9.60708 7.02831V9.84348C8.47367 10.1017 8.20225 9.24953 8.17477 8.41087C8.17042 8.09144 8.25801 6.65043 9.60708 7.02831Z" fill="#422F36"/>
</svg>
