<svg width="16" height="16" viewBox="0 0 16 16" fill="none" xmlns="http://www.w3.org/2000/svg">
<g clip-path="url(#clip0_2258_3202)">
<path opacity="0.2" d="M8 16C12.4183 16 16 12.4183 16 8C16 3.58172 12.4183 0 8 0C3.58172 0 0 3.58172 0 8C0 12.4183 3.58172 16 8 16Z" fill="#FF00FF"/>
<path fill-rule="evenodd" clip-rule="evenodd" d="M9 4C9 4.55228 8.55228 5 8 5C7.44772 5 7 4.55228 7 4C7 3.44772 7.44772 3 8 3C8.55228 3 9 3.44772 9 4ZM9 7.5C9 6.94772 8.55228 6.5 8 6.5C7.44772 6.5 7 6.94772 7 7.5V12C7 12.5523 7.44772 13 8 13C8.55228 13 9 12.5523 9 12V7.5Z" fill="#FF00FF"/>
</g>
<defs>
<clipPath id="clip0_2258_3202">
<rect width="16" height="16" fill="white"/>
</clipPath>
</defs>
</svg>
