<svg width="16" height="16" viewBox="0 0 16 16" fill="none" xmlns="http://www.w3.org/2000/svg">
<g clip-path="url(#clip0_2179_3749)">
<path d="M8.00002 0C5.82733 0 5.5549 0.00920925 4.70161 0.0481422C3.8501 0.0870116 3.26856 0.222229 2.75966 0.420006C2.23359 0.624451 1.78745 0.897998 1.34271 1.34274C0.897966 1.78748 0.624419 2.23363 0.419974 2.7597C0.222197 3.26856 0.0869798 3.8501 0.0481104 4.70161C0.0091775 5.5549 0 5.82733 0 8.00002C0 10.1727 0.0091775 10.4451 0.0481104 11.2984C0.0869798 12.1499 0.222197 12.7314 0.419974 13.2403C0.624419 13.7664 0.897966 14.2125 1.34271 14.6573C1.78745 15.102 2.23359 15.3756 2.75966 15.58C3.26856 15.7778 3.8501 15.913 4.70161 15.9519C5.5549 15.9908 5.82733 16 8.00002 16C10.1727 16 10.4451 15.9908 11.2984 15.9519C12.1499 15.913 12.7314 15.7778 13.2403 15.58C13.7664 15.3756 14.2125 15.102 14.6573 14.6573C15.102 14.2125 15.3756 13.7664 15.58 13.2403C15.7778 12.7314 15.913 12.1499 15.9519 11.2984C15.9908 10.4451 16 10.1727 16 8.00002C16 5.82733 15.9908 5.5549 15.9519 4.70161C15.913 3.8501 15.7778 3.26856 15.58 2.7597C15.3756 2.23363 15.102 1.78748 14.6573 1.34274C14.2125 0.897998 13.7664 0.624451 13.2403 0.420006C12.7314 0.222229 12.1499 0.0870116 11.2984 0.0481422C10.4451 0.00920925 10.1727 0 8.00002 0Z" fill="url(#paint0_radial_2179_3749)"/>
<path d="M8.00002 0C5.82733 0 5.5549 0.00920925 4.70161 0.0481422C3.8501 0.0870116 3.26856 0.222229 2.75966 0.420006C2.23359 0.624451 1.78745 0.897998 1.34271 1.34274C0.897966 1.78748 0.624419 2.23363 0.419974 2.7597C0.222197 3.26856 0.0869798 3.8501 0.0481104 4.70161C0.0091775 5.5549 0 5.82733 0 8.00002C0 10.1727 0.0091775 10.4451 0.0481104 11.2984C0.0869798 12.1499 0.222197 12.7314 0.419974 13.2403C0.624419 13.7664 0.897966 14.2125 1.34271 14.6573C1.78745 15.102 2.23359 15.3756 2.75966 15.58C3.26856 15.7778 3.8501 15.913 4.70161 15.9519C5.5549 15.9908 5.82733 16 8.00002 16C10.1727 16 10.4451 15.9908 11.2984 15.9519C12.1499 15.913 12.7314 15.7778 13.2403 15.58C13.7664 15.3756 14.2125 15.102 14.6573 14.6573C15.102 14.2125 15.3756 13.7664 15.58 13.2403C15.7778 12.7314 15.913 12.1499 15.9519 11.2984C15.9908 10.4451 16 10.1727 16 8.00002C16 5.82733 15.9908 5.5549 15.9519 4.70161C15.913 3.8501 15.7778 3.26856 15.58 2.7597C15.3756 2.23363 15.102 1.78748 14.6573 1.34274C14.2125 0.897998 13.7664 0.624451 13.2403 0.420006C12.7314 0.222229 12.1499 0.0870116 11.2984 0.0481422C10.4451 0.00920925 10.1727 0 8.00002 0Z" fill="url(#paint1_radial_2179_3749)"/>
<path fill-rule="evenodd" clip-rule="evenodd" d="M7.99991 2.40002C6.47903 2.40002 6.28833 2.40647 5.69103 2.43372C5.09497 2.46093 4.68789 2.55558 4.33167 2.69403C3.96342 2.83714 3.65112 3.02862 3.3398 3.33994C3.02848 3.65126 2.837 3.96356 2.69388 4.33181C2.55544 4.68801 2.46079 5.0951 2.43358 5.69115C2.40633 6.28845 2.3999 6.47916 2.3999 8.00004C2.3999 9.52089 2.40633 9.7116 2.43358 10.3089C2.46079 10.905 2.55544 11.312 2.69388 11.6682C2.837 12.0365 3.02848 12.3488 3.3398 12.6601C3.65112 12.9714 3.96342 13.1629 4.33167 13.306C4.68789 13.4445 5.09497 13.5391 5.69103 13.5663C6.28833 13.5936 6.47903 13.6 7.99991 13.6C9.52077 13.6 9.71148 13.5936 10.3088 13.5663C10.9048 13.5391 11.3119 13.4445 11.6681 13.306C12.0364 13.1629 12.3487 12.9714 12.66 12.6601C12.9713 12.3488 13.1628 12.0365 13.3059 11.6682C13.4443 11.312 13.539 10.905 13.5662 10.3089C13.5935 9.7116 13.5999 9.52089 13.5999 8.00004C13.5999 6.47916 13.5935 6.28845 13.5662 5.69115C13.539 5.0951 13.4443 4.68801 13.3059 4.33181C13.1628 3.96356 12.9713 3.65126 12.66 3.33994C12.3487 3.02862 12.0364 2.83714 11.6681 2.69403C11.3119 2.55558 10.9048 2.46093 10.3088 2.43372C9.71148 2.40647 9.52077 2.40002 7.99991 2.40002ZM7.99989 3.40905C9.49514 3.40905 9.67226 3.41474 10.2628 3.44169C10.8088 3.46661 11.1053 3.55783 11.3026 3.6345C11.564 3.73609 11.7505 3.85746 11.9465 4.05341C12.1425 4.24936 12.2638 4.43593 12.3654 4.6973C12.4421 4.89463 12.5333 5.19115 12.5582 5.73714C12.5852 6.32764 12.5909 6.50476 12.5909 8.00004C12.5909 9.49528 12.5852 9.67241 12.5582 10.2629C12.5333 10.8089 12.4421 11.1054 12.3654 11.3027C12.2638 11.5641 12.1425 11.7507 11.9465 11.9466C11.7505 12.1426 11.564 12.264 11.3026 12.3655C11.1053 12.4422 10.8088 12.5335 10.2628 12.5584C9.67235 12.5853 9.49525 12.591 7.99989 12.591C6.50451 12.591 6.32743 12.5853 5.737 12.5584C5.191 12.5335 4.89449 12.4422 4.69716 12.3655C4.43577 12.264 4.24922 12.1426 4.05325 11.9466C3.85729 11.7507 3.73592 11.5641 3.63436 11.3027C3.55767 11.1054 3.46644 10.8089 3.44152 10.2629C3.41458 9.67241 3.40889 9.49528 3.40889 8.00004C3.40889 6.50476 3.41458 6.32764 3.44152 5.73714C3.46644 5.19115 3.55767 4.89463 3.63436 4.6973C3.73592 4.43593 3.85729 4.24936 4.05325 4.05341C4.24922 3.85746 4.43577 3.73609 4.69716 3.6345C4.89449 3.55783 5.191 3.46661 5.737 3.44169C6.3275 3.41474 6.50462 3.40905 7.99989 3.40905ZM5.12425 8.00004C5.12425 6.41182 6.41172 5.12435 7.99994 5.12435C9.58813 5.12435 10.8756 6.41182 10.8756 8.00004C10.8756 9.58823 9.58813 10.8757 7.99994 10.8757C6.41172 10.8757 5.12425 9.58823 5.12425 8.00004ZM7.99991 9.86669C6.96897 9.86669 6.13324 9.03096 6.13324 8.00003C6.13324 6.96909 6.96897 6.13336 7.99991 6.13336C9.03084 6.13336 9.86657 6.96909 9.86657 8.00003C9.86657 9.03096 9.03084 9.86669 7.99991 9.86669ZM10.9892 5.68272C11.3603 5.68272 11.6612 5.38187 11.6612 5.01073C11.6612 4.63959 11.3603 4.33874 10.9892 4.33874C10.6181 4.33874 10.3172 4.63959 10.3172 5.01073C10.3172 5.38187 10.6181 5.68272 10.9892 5.68272Z" fill="white"/>
</g>
<defs>
<radialGradient id="paint0_radial_2179_3749" cx="0" cy="0" r="1" gradientUnits="userSpaceOnUse" gradientTransform="translate(4.25002 17.2323) rotate(-90) scale(15.8572 14.7484)">
<stop stop-color="#FFDD55"/>
<stop offset="0.1" stop-color="#FFDD55"/>
<stop offset="0.5" stop-color="#FF543E"/>
<stop offset="1" stop-color="#C837AB"/>
</radialGradient>
<radialGradient id="paint1_radial_2179_3749" cx="0" cy="0" r="1" gradientUnits="userSpaceOnUse" gradientTransform="translate(-2.68008 1.15261) rotate(78.6806) scale(7.08823 29.218)">
<stop stop-color="#3771C8"/>
<stop offset="0.128" stop-color="#3771C8"/>
<stop offset="1" stop-color="#6600FF" stop-opacity="0"/>
</radialGradient>
<clipPath id="clip0_2179_3749">
<rect width="16" height="16" fill="white"/>
</clipPath>
</defs>
</svg>
