<svg width="16" height="16" viewBox="0 0 16 16" fill="none" xmlns="http://www.w3.org/2000/svg">
<path fill-rule="evenodd" clip-rule="evenodd" d="M15 1H1V15H15V1ZM4.43004 4.60579C4.43004 4.49252 4.47229 4.38389 4.54752 4.3038C4.62275 4.22371 4.72478 4.17871 4.83116 4.17871H6.07066C6.17705 4.17871 6.27908 4.22371 6.3543 4.3038C6.42953 4.38389 6.47179 4.49252 6.47179 4.60579V6.98394H4.83116C4.72485 6.98394 4.62288 6.93901 4.54766 6.85901C4.47245 6.77901 4.43014 6.6705 4.43004 6.55731V4.60579ZM9.61277 8.34115H9.55699V4.17871H9.61277C9.86948 4.17871 10.1237 4.23255 10.3608 4.33714C10.598 4.44173 10.8135 4.59503 10.995 4.78829C11.1766 4.98155 11.3205 5.21097 11.4188 5.46348C11.517 5.71599 11.5676 5.98662 11.5676 6.25992C11.5676 6.53324 11.517 6.80387 11.4188 7.05638C11.3205 7.30888 11.1766 7.53831 10.995 7.73157C10.8135 7.92483 10.598 8.07813 10.3608 8.18272C10.1237 8.28731 9.86948 8.34115 9.61277 8.34115ZM4.43687 7.56934H6.47125L6.46919 11.7924H6.413C5.88886 11.7923 5.38623 11.5706 5.01564 11.176C4.64505 10.7814 4.43687 10.2461 4.43687 9.68811V7.56934ZM7.37331 11.7855H8.60378C8.71017 11.7855 8.8122 11.7405 8.88743 11.6605C8.96265 11.5803 9.00491 11.4717 9.00491 11.3584V4.18554H7.37413C7.26775 4.18554 7.16572 4.23055 7.09049 4.31063C7.01527 4.39072 6.97301 4.49935 6.97301 4.61262V11.3584C6.973 11.4716 7.01516 11.5801 7.0902 11.6601C7.16525 11.7402 7.26707 11.7853 7.37331 11.7855Z" fill="#FF00FF"/>
</svg>
