<svg width="16" height="16" viewBox="0 0 16 16" fill="none" xmlns="http://www.w3.org/2000/svg">
<rect x="1" y="1" width="14" height="14" fill="#050D1A"/>
<path fill-rule="evenodd" clip-rule="evenodd" d="M9.55712 8.34115H9.61291C9.86961 8.34115 10.1238 8.28731 10.3609 8.18272C10.5982 8.07813 10.8137 7.92483 10.9951 7.73157C11.1767 7.53831 11.3206 7.30888 11.4189 7.05638C11.5172 6.80387 11.5677 6.53324 11.5677 6.25992C11.5677 5.98662 11.5172 5.71599 11.4189 5.46348C11.3206 5.21097 11.1767 4.98155 10.9951 4.78829C10.8137 4.59503 10.5982 4.44173 10.3609 4.33714C10.1238 4.23255 9.86961 4.17871 9.61291 4.17871H9.55712V8.34115Z" fill="#FAFDFF"/>
<path fill-rule="evenodd" clip-rule="evenodd" d="M6.47138 7.56934H4.43701V9.68811C4.43701 10.2461 4.64519 10.7814 5.01578 11.176C5.38637 11.5706 5.889 11.7923 6.41314 11.7924H6.46933L6.47138 7.56934Z" fill="#FAFDFF"/>
<path d="M4.43018 4.60579C4.43018 4.49252 4.47243 4.38389 4.54766 4.3038C4.62289 4.22371 4.72492 4.17871 4.8313 4.17871H6.0708C6.17718 4.17871 6.27922 4.22371 6.35444 4.3038C6.42966 4.38389 6.47193 4.49252 6.47193 4.60579V6.98394H4.8313C4.72499 6.98394 4.62302 6.93901 4.5478 6.85901C4.47259 6.77901 4.43028 6.6705 4.43018 6.55731V4.60579Z" fill="#FAFDFF"/>
<path d="M8.60392 11.7855H7.37345C7.26721 11.7853 7.16539 11.7402 7.09034 11.6601C7.01529 11.5801 6.97314 11.4716 6.97314 11.3584V4.61262C6.97314 4.49935 7.01541 4.39072 7.09063 4.31063C7.16585 4.23055 7.26789 4.18554 7.37427 4.18554H9.00505V11.3584C9.00505 11.4717 8.96279 11.5803 8.88757 11.6605C8.81233 11.7405 8.71031 11.7855 8.60392 11.7855Z" fill="#FAFDFF"/>
</svg>
