<svg width="16" height="16" viewBox="0 0 16 16" fill="none" xmlns="http://www.w3.org/2000/svg">
<path d="M12.9872 8.75223C12.9872 8.87702 12.9394 8.99671 12.8543 9.08496C12.7692 9.1732 12.6538 9.22278 12.5335 9.22278C12.4131 9.22278 12.2977 9.1732 12.2126 9.08496C12.1275 8.99671 12.0797 8.87702 12.0797 8.75223V4.54837C12.0797 4.42356 12.1275 4.30387 12.2126 4.21563C12.2977 4.12738 12.4131 4.0778 12.5335 4.0778C12.6538 4.0778 12.7692 4.12738 12.8543 4.21563C12.9394 4.30387 12.9872 4.42356 12.9872 4.54837V8.75223ZM12.8297 11.665C12.7697 11.7272 11.0822 13.1855 7.98841 13.1855C4.89461 13.1855 3.21835 11.735 3.1471 11.6728C3.10218 11.6335 3.06521 11.5854 3.03825 11.5313C3.0113 11.4772 2.99493 11.4181 2.99004 11.3574C2.98516 11.2967 2.99188 11.2356 3.00982 11.1776C3.02776 11.1196 3.05656 11.0659 3.09459 11.0194C3.17291 10.9255 3.28387 10.8674 3.4033 10.858C3.52272 10.8485 3.64092 10.8884 3.73209 10.9689C3.75835 10.9883 5.26587 12.2561 7.98466 12.2561C10.7034 12.2561 12.2222 10.9806 12.2372 10.9689C12.3294 10.8891 12.448 10.8497 12.5678 10.8592C12.6875 10.8686 12.799 10.9261 12.8785 11.0194C12.955 11.112 12.9932 11.2321 12.9847 11.3538C12.9763 11.4754 12.922 11.5886 12.8335 11.6689L12.8297 11.665ZM2.98584 4.54837C2.99261 4.42317 3.04691 4.30585 3.13687 4.22204C3.2268 4.13824 3.34509 4.09477 3.46585 4.10113C3.57779 4.10772 3.68343 4.15708 3.76237 4.23966C3.84131 4.32224 3.88797 4.4322 3.89335 4.54837V8.74445C3.89335 8.86925 3.84554 8.98894 3.76044 9.07718C3.67536 9.16543 3.55995 9.21499 3.4396 9.21499C3.31926 9.21499 3.20384 9.16543 3.11874 9.07718C3.03364 8.98894 2.98584 8.86925 2.98584 8.74445V4.54837ZM5.26212 3.61504C5.26891 3.48984 5.32319 3.37252 5.41315 3.28871C5.50308 3.20491 5.62137 3.16144 5.74213 3.1678C5.85407 3.17439 5.9597 3.22375 6.03864 3.30633C6.11759 3.38891 6.16425 3.49887 6.16963 3.61504V9.83723C6.16963 9.96201 6.12182 10.0817 6.03674 10.17C5.95164 10.2582 5.83622 10.3078 5.71588 10.3078C5.59554 10.3078 5.48012 10.2582 5.39502 10.17C5.30992 10.0817 5.26212 9.96201 5.26212 9.83723V3.61504ZM7.54965 3.3817C7.54965 3.2569 7.59745 3.13721 7.68256 3.04897C7.76766 2.96072 7.88307 2.91114 8.00342 2.91114C8.12376 2.91114 8.23917 2.96072 8.32426 3.04897C8.40936 3.13721 8.45716 3.2569 8.45716 3.3817V10.1483C8.45716 10.2731 8.40936 10.3928 8.32426 10.4811C8.23917 10.5693 8.12376 10.6189 8.00342 10.6189C7.88307 10.6189 7.76766 10.5693 7.68256 10.4811C7.59745 10.3928 7.54965 10.2731 7.54965 10.1483V3.3817ZM9.79968 3.61504C9.79968 3.49023 9.84749 3.37054 9.93259 3.2823C10.0177 3.19405 10.1331 3.14447 10.2534 3.14447C10.3738 3.14447 10.4892 3.19405 10.5743 3.2823C10.6594 3.37054 10.7072 3.49023 10.7072 3.61504V9.83723C10.7072 9.96201 10.6594 10.0817 10.5743 10.17C10.4892 10.2582 10.3738 10.3078 10.2534 10.3078C10.1331 10.3078 10.0177 10.2582 9.93259 10.17C9.84749 10.0817 9.79968 9.96201 9.79968 9.83723V3.61504ZM13.111 1.04838H2.88084C2.65792 1.04683 2.43691 1.0909 2.23046 1.17808C2.02398 1.26523 1.83614 1.39377 1.67764 1.55632C1.51915 1.71888 1.39313 1.91225 1.30681 2.12539C1.22048 2.3385 1.17555 2.56721 1.17456 2.79837V13.2983C1.17555 13.5295 1.22048 13.7582 1.30681 13.9713C1.39313 14.1844 1.51915 14.3778 1.67764 14.5404C1.83614 14.7029 2.02398 14.8315 2.23046 14.9186C2.43691 15.0058 2.65792 15.0498 2.88084 15.0483H13.111C13.3336 15.0498 13.5543 15.0059 13.7605 14.919C13.9667 14.8321 14.1544 14.7039 14.3129 14.5417C14.4713 14.3796 14.5974 14.1867 14.6839 13.974C14.7705 13.7613 14.8158 13.533 14.8173 13.3022V2.79837C14.8163 2.56752 14.7715 2.33916 14.6854 2.12628C14.5993 1.91341 14.4736 1.72021 14.3155 1.5577C14.1574 1.3952 13.97 1.26659 13.764 1.17919C13.5579 1.0918 13.3373 1.04735 13.1147 1.04838" fill="black"/>
</svg>
