<svg width="16" height="16" viewBox="0 0 16 16" fill="none" xmlns="http://www.w3.org/2000/svg">
<path fill-rule="evenodd" clip-rule="evenodd" d="M13.7309 1H2.26912C1.56822 1 1 1.56822 1 2.26912V13.7309C1 14.4318 1.56822 15 2.26912 15H13.7309C14.4318 15 15 14.4318 15 13.7309V2.26912C15 1.56822 14.4318 1 13.7309 1ZM5.67881 5.4048C6.1442 5.4048 6.53403 5.04001 6.53403 4.56194C6.53403 4.08419 6.1442 3.7195 5.67881 3.7195C5.21342 3.7195 4.82364 4.08419 4.82364 4.56194C4.82364 5.04001 5.21342 5.4048 5.67881 5.4048ZM3.83002 10.5507C3.83002 10.3623 3.85526 10.1314 3.90548 9.91763L4.54688 7.2973H3.55336L3.85526 6.18366H6.2448L5.30145 9.92558C5.23855 10.1648 5.21342 10.3631 5.21342 10.5012C5.21342 10.7405 5.3312 10.8104 5.51537 10.852C5.62753 10.8771 6.5213 10.8596 7.00791 9.77795L7.62746 7.2973H6.62127L6.92317 6.18366H9.07376L8.79715 7.44801C9.17436 6.74361 9.92903 6.07431 10.671 6.07431C11.4634 6.07431 12.1174 6.63877 12.1174 7.72037C12.1174 7.99698 12.0796 8.29803 11.9791 8.63753L11.5765 10.0834C11.5389 10.2346 11.5136 10.3603 11.5136 10.4734C11.5136 10.7249 11.6143 10.8505 11.803 10.8505C11.9916 10.8505 12.2305 10.7119 12.5073 9.9451L13.0606 10.1588C12.7336 11.3033 12.1425 11.781 11.4005 11.781C10.5326 11.781 10.1177 11.2657 10.1177 10.5611C10.1177 10.3601 10.1427 10.1461 10.2056 9.93227L10.6208 8.44821C10.671 8.28467 10.6837 8.1339 10.6837 7.99544C10.6837 7.51769 10.3944 7.2283 9.92903 7.2283C9.33785 7.2283 8.94797 7.6526 8.74677 8.47011L7.94177 11.6988H6.53329L6.78608 10.6842C6.37208 11.3643 5.79707 11.7856 5.08774 11.7856C4.23246 11.7856 3.83002 11.2929 3.83002 10.5507Z" fill="#FF00FF"/>
</svg>
