<svg width="16" height="16" viewBox="0 0 16 16" fill="none" xmlns="http://www.w3.org/2000/svg">
<path fill-rule="evenodd" clip-rule="evenodd" d="M13.7309 1H2.26912C1.56822 1 1 1.56822 1 2.26912V13.7309C1 14.4318 1.56822 15 2.26912 15H13.7309C14.4318 15 15 14.4318 15 13.7309V2.26912C15 1.56822 14.4318 1 13.7309 1Z" fill="#F42156"/>
<path fill-rule="evenodd" clip-rule="evenodd" d="M5.67868 5.40479C6.14407 5.40479 6.5339 5.03999 6.5339 4.56192C6.5339 4.08417 6.14407 3.71948 5.67868 3.71948C5.21328 3.71948 4.82351 4.08417 4.82351 4.56192C4.82351 5.03999 5.21328 5.40479 5.67868 5.40479Z" fill="white"/>
<path fill-rule="evenodd" clip-rule="evenodd" d="M3.90534 9.91761C3.85512 10.1314 3.82988 10.3623 3.82988 10.5507C3.82988 11.2928 4.23233 11.7856 5.0876 11.7856C5.79693 11.7856 6.37194 11.3643 6.78595 10.6842L6.53315 11.6988H7.94164L8.74664 8.4701C8.94784 7.65258 9.33772 7.22829 9.9289 7.22829C10.3942 7.22829 10.6835 7.51767 10.6835 7.99542C10.6835 8.13388 10.6709 8.28465 10.6206 8.44819L10.2055 9.93225C10.1426 10.1461 10.1176 10.36 10.1176 10.5611C10.1176 11.2656 10.5325 11.781 11.4003 11.781C12.1424 11.781 12.7335 11.3033 13.0605 10.1587L12.5072 9.94508C12.2304 10.7119 11.9915 10.8505 11.8028 10.8505C11.6141 10.8505 11.5135 10.7248 11.5135 10.4734C11.5135 10.3603 11.5387 10.2346 11.5764 10.0834L11.9789 8.63751C12.0795 8.29801 12.1173 7.99696 12.1173 7.72035C12.1173 6.63875 11.4632 6.07429 10.6709 6.07429C9.9289 6.07429 9.17422 6.74359 8.79702 7.44799L9.07362 6.18364H6.92303L6.62113 7.29728H7.62733L7.00778 9.77793C6.52117 10.8595 5.6274 10.8771 5.51524 10.852C5.33106 10.8104 5.21328 10.7405 5.21328 10.5012C5.21328 10.3631 5.23842 10.1647 5.30131 9.92557L6.24467 6.18364H3.85512L3.55322 7.29728H4.54675L3.90534 9.91761Z" fill="white"/>
</svg>
