<svg width="16" height="16" viewBox="0 0 16 16" fill="none" xmlns="http://www.w3.org/2000/svg">
<rect x="1" y="1" width="14" height="14" fill="#F7DF1E"/>
<path fill-rule="evenodd" clip-rule="evenodd" d="M10.4045 11.9376C10.6865 12.398 11.0534 12.7365 11.7023 12.7365C12.2474 12.7365 12.5956 12.464 12.5956 12.0876C12.5956 11.6365 12.2378 11.4767 11.6378 11.2143L11.3089 11.0731C10.3596 10.6687 9.72895 10.162 9.72895 9.09093C9.72895 8.10426 10.4807 7.35315 11.6556 7.35315C12.4921 7.35315 13.0934 7.64426 13.5267 8.40648L12.5023 9.06426C12.2767 8.65982 12.0334 8.50048 11.6556 8.50048C11.2703 8.50048 11.0261 8.74493 11.0261 9.06426C11.0261 9.45893 11.2705 9.61871 11.8349 9.86315L12.1638 10.004C13.2816 10.4834 13.9127 10.972 13.9127 12.0707C13.9127 13.2551 12.9823 13.904 11.7327 13.904C10.5109 13.904 9.72161 13.3218 9.33539 12.5587L10.4045 11.9376ZM5.75717 12.0516C5.96383 12.4183 6.15183 12.7283 6.60383 12.7283C7.03606 12.7283 7.30872 12.5591 7.30872 11.9016V7.42826H8.62428V11.9194C8.62428 13.2816 7.82561 13.9016 6.65983 13.9016C5.6065 13.9016 4.9965 13.3565 4.68628 12.6999L5.75717 12.0516Z" fill="black"/>
</svg>
