<svg width="16" height="16" viewBox="0 0 16 16" fill="none" xmlns="http://www.w3.org/2000/svg">
<path fill-rule="evenodd" clip-rule="evenodd" d="M15 1H1V15H15V1ZM11.7022 12.7364C11.0533 12.7364 10.6864 12.398 10.4044 11.9376L9.33533 12.5587C9.72155 13.3218 10.5109 13.904 11.7327 13.904C12.9822 13.904 13.9127 13.2551 13.9127 12.0707C13.9127 10.972 13.2816 10.4833 12.1638 10.004L11.8349 9.86311C11.2704 9.61867 11.026 9.45889 11.026 9.06422C11.026 8.74489 11.2702 8.50044 11.6556 8.50044C12.0333 8.50044 12.2767 8.65978 12.5022 9.06422L13.5267 8.40644C13.0933 7.64422 12.492 7.35311 11.6556 7.35311C10.4807 7.35311 9.72889 8.10422 9.72889 9.09089C9.72889 10.162 10.3596 10.6687 11.3089 11.0731L11.6378 11.2142C12.2378 11.4767 12.5956 11.6364 12.5956 12.0876C12.5956 12.464 12.2473 12.7364 11.7022 12.7364ZM6.60378 12.7282C6.15178 12.7282 5.96378 12.4182 5.75711 12.0516L4.68622 12.6999C4.99644 13.3564 5.60644 13.9016 6.65978 13.9016C7.82555 13.9016 8.62422 13.2816 8.62422 11.9193V7.42822H7.30867V11.9016C7.30867 12.5591 7.036 12.7282 6.60378 12.7282Z" fill="#FF00FF"/>
</svg>
