<svg width="16" height="16" viewBox="0 0 16 16" fill="none" xmlns="http://www.w3.org/2000/svg">
<path fill-rule="evenodd" clip-rule="evenodd" d="M11.75 5.25C10.9567 5.25 10.2586 5.66002 9.85696 6.28325C9.68149 6.55551 9.37088 6.75 9.00717 6.75H7.25H2.25C2.11193 6.75 2 6.86193 2 7V8.25C2.82843 8.25 3.5 8.92157 3.5 9.75V10C3.5 10.1381 3.61193 10.25 3.75 10.25C3.88807 10.25 4 10.1381 4 10C4 9.0335 4.7835 8.25 5.75 8.25H7.25H9.00717C9.37088 8.25 9.68149 8.44449 9.85696 8.71675C10.2586 9.33998 10.9567 9.75 11.75 9.75C12.9927 9.75 14 8.74264 14 7.5C14 6.25736 12.9927 5.25 11.75 5.25ZM8.74982 5.25C9.43298 4.34043 10.5224 3.75 11.75 3.75C13.8211 3.75 15.5 5.42893 15.5 7.5C15.5 9.57107 13.8211 11.25 11.75 11.25C10.5224 11.25 9.43298 10.6596 8.74982 9.75H7.25H5.75C5.61193 9.75 5.5 9.86193 5.5 10C5.5 10.9665 4.7165 11.75 3.75 11.75C2.7835 11.75 2 10.9665 2 10V9.75C1.17157 9.75 0.5 9.07843 0.5 8.25V7C0.5 6.0335 1.2835 5.25 2.25 5.25H7.25H8.74982Z" fill="#FF00FF"/>
</svg>
