<svg width="16" height="16" viewBox="0 0 16 16" fill="none" xmlns="http://www.w3.org/2000/svg">
<path fill-rule="evenodd" clip-rule="evenodd" d="M11.75 12C13.9591 12 15.75 10.2091 15.75 8C15.75 5.79086 13.9591 4 11.75 4C9.79721 4 8.17125 5.39935 7.8202 7.25H4.75H2.25H0.75C0.335786 7.25 0 7.58579 0 8C0 8.41421 0.335786 8.75 0.75 8.75H1.5V10.5C1.5 10.9142 1.83579 11.25 2.25 11.25C2.66421 11.25 3 10.9142 3 10.5V8.75H4V10.5C4 10.9142 4.33579 11.25 4.75 11.25C5.16421 11.25 5.5 10.9142 5.5 10.5V8.75H7.8202C8.17125 10.6006 9.79721 12 11.75 12ZM14.25 8C14.25 9.38071 13.1307 10.5 11.75 10.5C10.3693 10.5 9.25 9.38071 9.25 8C9.25 6.61929 10.3693 5.5 11.75 5.5C13.1307 5.5 14.25 6.61929 14.25 8Z" fill="#FF00FF"/>
</svg>
