<svg width="16" height="16" viewBox="0 0 16 16" fill="none" xmlns="http://www.w3.org/2000/svg">
<path fill-rule="evenodd" clip-rule="evenodd" d="M12 11.5C13.933 11.5 15.5 9.933 15.5 8C15.5 6.067 13.933 4.5 12 4.5C10.3244 4.5 8.92388 5.67741 8.58054 7.25H5H2.5H1C0.585786 7.25 0.25 7.58579 0.25 8C0.25 8.41421 0.585786 8.75 1 8.75H1.75V10.5C1.75 10.9142 2.08579 11.25 2.5 11.25C2.91421 11.25 3.25 10.9142 3.25 10.5V8.75H4.25V10.5C4.25 10.9142 4.58579 11.25 5 11.25C5.41421 11.25 5.75 10.9142 5.75 10.5V8.75H8.58054C8.92388 10.3226 10.3244 11.5 12 11.5ZM14 8C14 9.10457 13.1046 10 12 10C10.8954 10 10 9.10457 10 8C10 6.89543 10.8954 6 12 6C13.1046 6 14 6.89543 14 8Z" fill="#FF00FF"/>
</svg>
