<svg width="16" height="16" viewBox="0 0 16 16" fill="none" xmlns="http://www.w3.org/2000/svg">
<path fill-rule="evenodd" clip-rule="evenodd" d="M11.75 5.5C10.9567 5.5 10.2586 5.91002 9.85696 6.53325C9.68149 6.80551 9.37088 7 9.00717 7H2.25C2.11193 7 2 7.11193 2 7.25V8.375C2 8.44404 2.05596 8.5 2.125 8.5C3.02246 8.5 3.75 9.22754 3.75 10.125V10.25C3.75 10.3881 3.86193 10.5 4 10.5C4.13807 10.5 4.25 10.3881 4.25 10.25C4.25 9.2835 5.0335 8.5 6 8.5H9.00717C9.37088 8.5 9.68149 8.69449 9.85696 8.96675C10.2586 9.58998 10.9567 10 11.75 10C12.9927 10 14 8.99264 14 7.75C14 6.50736 12.9927 5.5 11.75 5.5ZM8.74982 5.5C9.43298 4.59043 10.5224 4 11.75 4C13.8211 4 15.5 5.67893 15.5 7.75C15.5 9.82107 13.8211 11.5 11.75 11.5C10.5224 11.5 9.43298 10.9096 8.74982 10H6C5.86193 10 5.75 10.1119 5.75 10.25C5.75 11.2165 4.9665 12 4 12C3.0335 12 2.25 11.2165 2.25 10.25V10.125C2.25 10.056 2.19404 10 2.125 10C1.22754 10 0.5 9.27246 0.5 8.375V7.25C0.5 6.2835 1.2835 5.5 2.25 5.5H8.74982Z" fill="#FF00FF"/>
</svg>
