<svg width="16" height="16" viewBox="0 0 16 16" fill="none" xmlns="http://www.w3.org/2000/svg">
<g clip-path="url(#clip0_2376_2585)">
<path fill-rule="evenodd" clip-rule="evenodd" d="M9.32829 0.25C8.59894 0.25 7.89947 0.53973 7.38374 1.05546L1.38374 7.05546C0.309802 8.1294 0.309803 9.8706 1.38374 10.9445L5.05532 14.6161C6.12926 15.6901 7.87046 15.6901 8.9444 14.6161L14.9444 8.61608C15.4601 8.10038 15.7499 7.40096 15.7499 6.67166L15.7501 3.00013C15.7501 1.4813 14.5189 0.25 13.0001 0.25H9.32829ZM8.4444 2.11612C8.67883 1.8817 8.99677 1.75 9.32829 1.75H13.0001C13.6905 1.75 14.2501 2.30968 14.2501 3.00006L14.2499 6.67159C14.2499 7.00309 14.1182 7.32101 13.8838 7.55542L7.88374 13.5555C7.39559 14.0436 6.60413 14.0436 6.11598 13.5555L2.4444 9.88388C1.95625 9.39573 1.95625 8.60427 2.4444 8.11612L8.4444 2.11612ZM10.9999 6.5C11.8283 6.5 12.4999 5.82843 12.4999 5C12.4999 4.17157 11.8283 3.5 10.9999 3.5C10.1715 3.5 9.49988 4.17157 9.49988 5C9.49988 5.82843 10.1715 6.5 10.9999 6.5Z" fill="#FF00FF"/>
</g>
<defs>
<clipPath id="clip0_2376_2585">
<rect width="16" height="16" fill="white"/>
</clipPath>
</defs>
</svg>
