<svg width="16" height="16" viewBox="0 0 16 16" fill="none" xmlns="http://www.w3.org/2000/svg">
<path fill-rule="evenodd" clip-rule="evenodd" d="M4.90192 2.71064C7.71356 1.23787 11.7589 0.997736 14.5678 1.25309C14.8576 1.27944 15.1061 1.47106 15.2051 1.74469C15.3042 2.01832 15.236 2.32456 15.0302 2.53034C14.0295 3.53111 13.4183 4.86643 12.9298 6.32424C12.7341 6.90829 12.5636 7.49371 12.3932 8.07888C12.3511 8.22368 12.3089 8.36848 12.2664 8.51323C12.0552 9.23165 11.835 9.94838 11.5688 10.5972C11.0426 11.8798 10.2615 13.0831 8.78973 13.4817C7.49328 13.8329 5.8591 13.4984 3.73734 12.4617C3.30344 13.1466 2.93861 13.7997 2.67074 14.3354C2.4855 14.7059 2.03499 14.8561 1.66451 14.6708C1.29403 14.4856 1.14386 14.0351 1.3291 13.6646C1.63843 13.0459 2.08072 12.2563 2.62028 11.4248C1.62358 9.38204 1.39204 7.62754 1.82727 6.14776C2.29379 4.56159 3.47728 3.45687 4.90192 2.71064ZM4.59075 11.2077C5.3202 10.2116 6.15789 9.25615 7.02086 8.59555C7.34977 8.34377 7.41229 7.87303 7.16051 7.54412C6.90873 7.21521 6.43799 7.15269 6.10909 7.40447C5.21453 8.08926 4.36799 9.02007 3.62561 9.99359C3.05302 8.54673 3.01379 7.42962 3.26632 6.57101C3.58105 5.50093 4.39756 4.66814 5.59793 4.03938C7.62363 2.9783 10.5233 2.61938 12.9897 2.66856C12.3194 3.66663 11.8667 4.77579 11.5075 5.84766C11.3013 6.46306 11.1204 7.08469 10.9493 7.67228C10.9081 7.81378 10.8675 7.95331 10.8272 8.0903C10.6165 8.80743 10.4149 9.45788 10.181 10.0278C9.70726 11.1827 9.17587 11.8231 8.39761 12.0339C7.65366 12.2354 6.48572 12.1051 4.59075 11.2077Z" fill="#FF00FF"/>
</svg>
