<svg width="16" height="16" viewBox="0 0 16 16" fill="none" xmlns="http://www.w3.org/2000/svg">
<path fill-rule="evenodd" clip-rule="evenodd" d="M4.90192 2.71063C7.71356 1.23786 11.7589 0.997728 14.5678 1.25308C14.8576 1.27943 15.1061 1.47105 15.2051 1.74468C15.3042 2.01832 15.236 2.32456 15.0302 2.53033C14.0295 3.53111 13.4183 4.86642 12.9298 6.32423C12.7341 6.90829 12.5636 7.4937 12.3932 8.07887C12.3511 8.22368 12.3089 8.36847 12.2664 8.51323C12.0552 9.23164 11.835 9.94838 11.5688 10.5972C11.0426 11.8798 10.2615 13.0831 8.78973 13.4817C7.49328 13.8329 5.8591 13.4984 3.73734 12.4617C3.30344 13.1466 2.93861 13.7997 2.67074 14.3354C2.4855 14.7059 2.03499 14.8561 1.66451 14.6708C1.29403 14.4856 1.14386 14.0351 1.3291 13.6646C1.63843 13.0459 2.08072 12.2562 2.62028 11.4248C1.62358 9.38203 1.39204 7.62753 1.82727 6.14775C2.29379 4.56158 3.47728 3.45687 4.90192 2.71063ZM4.59075 11.2077C5.3202 10.2116 6.15789 9.25615 7.02086 8.59554C7.34977 8.34376 7.41229 7.87302 7.16051 7.54411C6.90873 7.21521 6.43799 7.15268 6.10909 7.40446C5.21453 8.08925 4.36799 9.02006 3.62561 9.99358C3.05302 8.54672 3.01379 7.42961 3.26632 6.571C3.58105 5.50092 4.39756 4.66814 5.59793 4.03938C7.62363 2.9783 10.5233 2.61937 12.9897 2.66855C12.3194 3.66663 11.8667 4.77578 11.5075 5.84765C11.3013 6.46305 11.1204 7.08469 10.9493 7.67228C10.9081 7.81378 10.8675 7.9533 10.8272 8.09029C10.6165 8.80743 10.4149 9.45788 10.181 10.0278C9.70726 11.1827 9.17587 11.8231 8.39761 12.0339C7.65366 12.2354 6.48572 12.1051 4.59075 11.2077Z" fill="#FF00FF"/>
</svg>
