<svg width="16" height="16" viewBox="0 0 16 16" fill="none" xmlns="http://www.w3.org/2000/svg">
<path fill-rule="evenodd" clip-rule="evenodd" d="M4.63848 2.71785C7.33264 1.23606 11.2622 0.998033 14.0678 1.25309C14.3576 1.27944 14.6061 1.47106 14.7051 1.74469C14.8042 2.01832 14.736 2.32456 14.5302 2.53034C13.5358 3.52476 12.9553 4.85203 12.5144 6.30387C12.323 6.93419 12.1632 7.56859 12.0038 8.20129C11.9799 8.29616 11.9561 8.39099 11.9321 8.48576C11.7509 9.20164 11.5634 9.91804 11.3308 10.5659C10.8734 11.8401 10.164 13.0713 8.71951 13.4796C7.45841 13.836 5.84744 13.4953 3.73719 12.4619C3.30335 13.1468 2.93858 13.7997 2.67074 14.3354C2.4855 14.7059 2.03499 14.8561 1.66451 14.6708C1.29403 14.4856 1.14386 14.0351 1.3291 13.6646C1.63839 13.046 2.0806 12.2565 2.62006 11.4252C1.62284 9.38912 1.36144 7.6441 1.7426 6.17146C2.15323 4.58491 3.2683 3.47145 4.63848 2.71785ZM4.59046 11.2081C5.31998 10.2119 6.15778 9.25624 7.02086 8.59555C7.34977 8.34377 7.41229 7.87303 7.16051 7.54412C6.90873 7.21522 6.43799 7.15269 6.10909 7.40447C5.21358 8.08999 4.36619 9.02205 3.62324 9.99671C3.03678 8.54027 2.97061 7.41328 3.19474 6.54731C3.47161 5.47761 4.23154 4.65357 5.36136 4.03217C7.27655 2.97882 10.0641 2.61964 12.4976 2.66851C11.835 3.6731 11.4066 4.78979 11.0792 5.86802C10.8764 6.53558 10.7071 7.20793 10.5485 7.83812C10.5247 7.93233 10.5012 8.0256 10.4779 8.11777C10.2958 8.83744 10.124 9.48822 9.91902 10.0591C9.50141 11.2225 9.02335 11.8349 8.31158 12.0361C7.61699 12.2324 6.48513 12.108 4.59046 11.2081Z" fill="#FF00FF"/>
</svg>
