<svg width="16" height="16" viewBox="0 0 16 16" fill="none" xmlns="http://www.w3.org/2000/svg">
<path d="M4.15903 9.2238H4.34039C4.39409 9.3718 4.42098 9.51914 4.42098 9.66687C4.42098 9.81421 4.41424 9.91022 4.40079 9.95508C4.13224 9.99953 3.8927 10.0217 3.68218 10.0217C3.37775 10.0217 3.16182 9.94756 3.03401 9.79905C2.90635 9.65027 2.83459 9.41652 2.83459 9.09706L2.83498 4.50647L2.88326 4.5074L3.29901 4.5074C3.50611 4.50739 3.65177 4.50738 3.73601 4.59933C3.82111 4.69244 3.88758 4.85403 3.88758 5.08419V8.91186C3.88758 9.12012 3.96184 9.2238 4.15903 9.2238Z" fill="#FF00FF"/>
<path d="M13.6222 9.00394C13.6222 8.49874 13.3245 8.14168 12.7289 7.93328L12.3119 7.78647C12.1417 7.72435 12.0567 7.6402 12.0567 7.53375C12.0567 7.47161 12.0798 7.42072 12.1268 7.38074C12.1743 7.34065 12.2419 7.32072 12.3318 7.32072C12.5826 7.32072 12.8958 7.40501 13.2721 7.57358C13.3574 7.51144 13.4289 7.40619 13.4872 7.25754C13.5451 7.10902 13.57 6.97263 13.5611 6.84839C13.5208 6.82849 13.4775 6.80427 13.4312 6.77839C13.3027 6.7065 13.1512 6.62174 12.9769 6.5809C12.7394 6.5255 12.5225 6.49779 12.3254 6.49779C11.927 6.49779 11.6102 6.66769 11.3752 6.86501C11.1401 7.06261 11.0226 7.32971 11.0226 7.66672C11.0226 8.12826 11.3024 8.46052 11.8619 8.66444L12.2317 8.80413C12.4376 8.8706 12.5409 8.97033 12.5409 9.10368C12.5409 9.17463 12.5074 9.2311 12.44 9.27317C12.3727 9.31538 12.2761 9.33635 12.1511 9.33635C11.8868 9.33635 11.5754 9.24321 11.2175 9.05724C11.1417 9.13691 11.0755 9.24599 11.0195 9.3833C10.9636 9.5206 10.9331 9.64708 10.9289 9.76237C11.3183 9.97976 11.741 10.1122 12.1981 10.1122C12.6551 10.1122 13.0062 9.99096 13.2524 9.79561C13.4988 9.6004 13.6222 9.33647 13.6222 9.00394Z" fill="#FF00FF"/>
<path d="M9.75366 7.93328C10.3493 8.14168 10.6469 8.49874 10.6469 9.00394C10.6469 9.33647 10.5234 9.6004 10.2775 9.79561C10.0311 9.99096 9.67981 10.1122 9.22291 10.1122C8.76626 10.1122 8.34298 9.97976 7.95374 9.76237C7.95795 9.64708 7.98842 9.5206 8.04447 9.3833C8.10041 9.24599 8.16635 9.13691 8.24247 9.05724C8.60073 9.24321 8.91201 9.33635 9.17621 9.33635C9.30125 9.33635 9.39793 9.31538 9.46495 9.27317C9.53209 9.2311 9.56585 9.17463 9.56585 9.10368C9.56585 8.97033 9.46257 8.8706 9.25668 8.80413L8.88708 8.66444C8.32742 8.46052 8.04753 8.12826 8.04753 7.66672C8.04753 7.32971 8.16505 7.06261 8.40036 6.86501C8.63528 6.66769 8.95197 6.49779 9.35032 6.49779C9.54726 6.49779 9.76476 6.5255 10.0017 6.5809C10.1761 6.62171 10.3274 6.70638 10.4558 6.77823C10.5022 6.80418 10.5456 6.82845 10.586 6.84839C10.595 6.97263 10.57 7.10902 10.5121 7.25754C10.454 7.40619 10.3823 7.51144 10.2971 7.57358C9.92068 7.40501 9.60754 7.32072 9.35654 7.32072C9.26685 7.32072 9.19892 7.34065 9.15169 7.38074C9.10486 7.42072 9.08152 7.47161 9.08152 7.53375C9.08152 7.6402 9.16659 7.72435 9.33688 7.78647L9.75366 7.93328Z" fill="#FF00FF"/>
<path fill-rule="evenodd" clip-rule="evenodd" d="M7.48666 7.41475C7.55155 7.58781 7.584 7.77631 7.584 7.98023C7.584 8.25076 7.55485 8.50282 7.49718 8.68933H5.75101C5.76008 8.88626 5.81132 9.01592 5.90473 9.12553C5.99824 9.23553 6.1523 9.29 6.36638 9.29C6.47335 9.29 6.59721 9.27498 6.73768 9.24515C6.87802 9.21493 7.03987 9.16572 7.22282 9.09702C7.36989 9.24779 7.46143 9.45211 7.49691 9.70906C7.13867 9.96165 6.69996 10.112 6.18066 10.112C5.89864 10.112 5.66241 10.044 5.47208 9.95531C5.28174 9.86681 5.12729 9.74268 5.00858 9.58309C4.88998 9.42321 4.80597 9.23485 4.75677 9.01787C4.70744 8.80063 4.6829 8.56296 4.6829 8.306C4.6829 8.05776 4.71311 7.82826 4.77353 7.61761C4.83394 7.40697 4.92574 7.22413 5.04907 7.06876C5.17214 6.91352 5.32885 6.79164 5.51905 6.70299L5.56554 6.68115C5.74527 6.5964 5.95253 6.49867 6.18726 6.49867C6.36193 6.49867 6.52257 6.56928 6.66924 6.63375C6.703 6.64859 6.73602 6.6631 6.7683 6.67635C6.94057 6.74732 7.08711 6.84481 7.20807 6.96905C7.3289 7.0933 7.4219 7.2417 7.48666 7.41475ZM5.86769 7.45804C5.79896 7.55775 5.75766 7.79993 5.74436 8.02627H6.62413L6.624 7.9528C6.624 7.78873 6.58736 7.57426 6.514 7.46781C6.4408 7.36137 6.3308 7.30833 6.18424 7.30833C6.04193 7.30833 5.93655 7.3582 5.86769 7.45804Z" fill="#FF00FF"/>
<path d="M15.4645 8.4688C15.2747 8.6346 15.1646 8.87321 15.1646 9.18517V10.347C15.1646 10.7332 15.0459 11.0269 14.7777 11.2289C14.5098 11.4305 14.1975 11.5304 13.8409 11.54L13.6296 11.5384V10.9595C13.8159 10.9052 13.8924 10.842 13.9665 10.7702C14.1008 10.6489 14.2037 10.4514 14.2037 10.1772V9.23924C14.2087 8.92043 14.2332 8.67061 14.3493 8.49017C14.4658 8.30972 14.6925 8.15196 15.0295 8.01571C14.6573 7.8453 14.4073 7.62276 14.2799 7.34828C14.205 7.18525 14.2035 6.96524 14.2035 6.68849V5.82836C14.2035 5.54423 14.1105 5.34521 13.9962 5.23163C13.9218 5.15749 13.8352 5.09827 13.6294 5.05357V4.51012C13.7951 4.51185 13.9068 4.5112 14.0056 4.51062C14.057 4.51032 14.1048 4.51003 14.155 4.51012C14.3808 4.50828 14.57 4.63174 14.7346 4.76034C14.9138 4.90134 15.0412 5.09195 15.1159 5.33187C15.1584 5.4705 15.1644 5.60294 15.1644 5.72903V6.72384C15.1644 7.07522 15.2682 7.3364 15.4457 7.50694C15.5457 7.60588 15.6868 7.69635 15.9291 7.77801V8.22741C15.7144 8.28678 15.5796 8.36723 15.4645 8.4688Z" fill="#FF00FF"/>
<path d="M2.10765 4.5112L2.64414 4.51037V5.07991L2.40196 5.07822C2.2488 5.11936 2.13854 5.17015 2.07655 5.23188C1.96231 5.34557 1.89637 5.5446 1.89637 5.82872V6.68886C1.89637 6.96559 1.86789 7.1856 1.79283 7.34876C1.66541 7.62311 1.41559 7.84551 1.04322 8.01606C1.38062 8.15218 1.60737 8.3102 1.72357 8.49038C1.83977 8.67096 1.89121 8.92053 1.89635 9.23959V10.1777C1.89635 10.4518 1.97233 10.6491 2.10648 10.7706C2.18101 10.8421 2.2844 10.9053 2.47052 10.9597V11.539L2.23192 11.5406C1.87538 11.5309 1.56318 11.4306 1.29528 11.2291C1.02739 11.0274 0.93531 10.7334 0.93531 10.3475V9.18566C0.93531 8.87374 0.798406 8.63498 0.60847 8.46905C0.493729 8.36721 0.28689 8.28703 0.0720215 8.22779V7.77841C0.314459 7.69676 0.527619 7.60642 0.627481 7.50751C0.80476 7.33668 0.935476 7.07565 0.935476 6.72439V5.72957C0.935476 5.71087 0.935348 5.69216 0.93522 5.67339C0.934485 5.56549 0.933736 5.45556 0.957107 5.33242C1.00525 5.0859 1.1589 4.90188 1.33842 4.76088C1.50289 4.63216 1.69203 4.50869 1.91798 4.51067C1.9702 4.51053 2.03551 4.5108 2.10765 4.5112Z" fill="#FF00FF"/>
</svg>
