<svg width="16" height="16" viewBox="0 0 16 16" fill="none" xmlns="http://www.w3.org/2000/svg">
<path fill-rule="evenodd" clip-rule="evenodd" d="M8 0.25C4.82436 0.25 2.25 2.82436 2.25 6C2.25 6.59971 2.34206 7.17933 2.51336 7.72474C2.87803 8.88579 3.59996 9.88658 4.54901 10.5996C4.88017 10.8484 5.35032 10.7817 5.59913 10.4505C5.84794 10.1193 5.78118 9.64919 5.45002 9.40038C4.74662 8.8719 4.21325 8.13114 3.94444 7.27526C3.81829 6.87362 3.75 6.4455 3.75 6C3.75 3.65279 5.65279 1.75 8 1.75C10.3472 1.75 12.25 3.65279 12.25 6C12.25 6.4455 12.1817 6.87362 12.0556 7.27526C11.7867 8.13114 11.2534 8.8719 10.55 9.40038C10.2188 9.64919 10.1521 10.1193 10.4009 10.4505C10.6497 10.7817 11.1198 10.8484 11.451 10.5996C12.4 9.88658 13.122 8.88579 13.4866 7.72474C13.6579 7.17933 13.75 6.59971 13.75 6C13.75 2.82436 11.1756 0.25 8 0.25ZM5.25 12.5C5.25 12.0858 5.58579 11.75 6 11.75H10C10.4142 11.75 10.75 12.0858 10.75 12.5C10.75 12.9142 10.4142 13.25 10 13.25H6C5.58579 13.25 5.25 12.9142 5.25 12.5ZM5.25 15C5.25 14.5858 5.58579 14.25 6 14.25H10C10.4142 14.25 10.75 14.5858 10.75 15C10.75 15.4142 10.4142 15.75 10 15.75H6C5.58579 15.75 5.25 15.4142 5.25 15Z" fill="#FF00FF"/>
<path opacity="0.4" fill-rule="evenodd" clip-rule="evenodd" d="M4.25 6C4.25 3.92893 5.92893 2.25 8 2.25C8.41421 2.25 8.75 2.58579 8.75 3C8.75 3.41421 8.41421 3.75 8 3.75C6.75736 3.75 5.75 4.75736 5.75 6C5.75 6.41421 5.41421 6.75 5 6.75C4.58579 6.75 4.25 6.41421 4.25 6Z" fill="#FF00FF"/>
</svg>
