<svg width="16" height="16" viewBox="0 0 16 16" fill="none" xmlns="http://www.w3.org/2000/svg">
<g clip-path="url(#clip0_2376_2558)">
<path fill-rule="evenodd" clip-rule="evenodd" d="M11.9881 2.43057C11.7907 2.26141 11.5199 2.20649 11.2722 2.28544C11.0246 2.36439 10.8354 2.56594 10.7724 2.81811L9.51791 7.8361L5.38588 5.35689C5.10665 5.18935 4.7512 5.22114 4.50613 5.43558L0.506132 8.93558C0.194404 9.20834 0.162816 9.68216 0.435578 9.99389C0.708339 10.3056 1.18216 10.3372 1.49389 10.0644L5.08268 6.92425L9.61414 9.64313C9.81788 9.76538 10.0675 9.78385 10.287 9.69292C10.5065 9.60199 10.67 9.41242 10.7276 9.18191L11.9333 4.35921L14.5119 6.56945C14.8264 6.83902 15.2999 6.8026 15.5695 6.4881C15.839 6.17361 15.8026 5.70014 15.4881 5.43057L11.9881 2.43057ZM1.00001 12.75C0.585797 12.75 0.25001 13.0858 0.25001 13.5C0.25001 13.9142 0.585797 14.25 1.00001 14.25H15C15.4142 14.25 15.75 13.9142 15.75 13.5C15.75 13.0858 15.4142 12.75 15 12.75H1.00001Z" fill="#FF00FF"/>
</g>
<defs>
<clipPath id="clip0_2376_2558">
<rect width="16" height="16" fill="white"/>
</clipPath>
</defs>
</svg>
