<svg width="16" height="16" viewBox="0 0 16 16" fill="none" xmlns="http://www.w3.org/2000/svg">
<path fill-rule="evenodd" clip-rule="evenodd" d="M2.03336 1H13.9637C14.5348 1 15 1.45188 15 2.00906V13.9896C15 14.5472 14.5348 14.9998 13.9637 14.9998H2.03336C1.46326 14.9998 1 14.5472 1 13.9896V2.00906C1 1.45188 1.46326 1 2.03336 1ZM2.9101 4.131C2.9101 4.7956 3.4488 5.33527 4.11437 5.33527C4.7782 5.33527 5.31768 4.7956 5.31768 4.131C5.31768 3.46688 4.7782 2.9274 4.11437 2.9274C3.4488 2.9274 2.9101 3.46688 2.9101 4.131ZM10.8545 12.9297H12.9296V9.26494C12.9296 7.46606 12.5414 6.08232 10.4387 6.08232C9.42847 6.08232 8.75113 6.63619 8.47405 7.16137H8.44644V6.24857H6.45448V12.9297H8.52946V9.62456C8.52946 8.75307 8.69493 7.909 9.77555 7.909C10.8403 7.909 10.8545 8.90552 10.8545 9.68066V12.9297ZM3.07567 12.9297H5.15221V6.24857H3.07567V12.9297Z" fill="#FF00FF"/>
</svg>
