<svg width="16" height="16" viewBox="0 0 16 16" fill="none" xmlns="http://www.w3.org/2000/svg">
<path d="M15 2.02941V13.9706C15 14.2436 14.8915 14.5054 14.6985 14.6985C14.5054 14.8915 14.2436 15 13.9706 15H2.02941C1.75639 15 1.49456 14.8915 1.30151 14.6985C1.10846 14.5054 1 14.2436 1 13.9706V2.02941C1 1.75639 1.10846 1.49456 1.30151 1.30151C1.49456 1.10846 1.75639 1 2.02941 1L13.9706 1C14.2436 1 14.5054 1.10846 14.6985 1.30151C14.8915 1.49456 15 1.75639 15 2.02941Z" fill="#0A66C2"/>
<path d="M5.11757 6.35311H3.05875V12.9413H5.11757V6.35311ZM5.30287 4.0884C5.30395 3.93267 5.27435 3.77825 5.21576 3.63396C5.15716 3.48966 5.07072 3.35832 4.96136 3.24744C4.85201 3.13655 4.72188 3.0483 4.57841 2.9877C4.43495 2.92711 4.28095 2.89536 4.12522 2.89429H4.08816C3.77146 2.89429 3.46773 3.0201 3.24379 3.24404C3.01985 3.46798 2.89404 3.77171 2.89404 4.0884C2.89404 4.4051 3.01985 4.70883 3.24379 4.93277C3.46773 5.15671 3.77146 5.28252 4.08816 5.28252C4.2439 5.28635 4.39888 5.25946 4.54422 5.20338C4.68957 5.1473 4.82244 5.06312 4.93525 4.95567C5.04805 4.84822 5.13858 4.71959 5.20166 4.57714C5.26474 4.43469 5.29913 4.28121 5.30287 4.12546V4.0884ZM12.9411 8.93899C12.9411 6.95841 11.6811 6.1884 10.4293 6.1884C10.0195 6.16788 9.61141 6.25518 9.24583 6.44158C8.88024 6.62799 8.56992 6.90699 8.34581 7.25076H8.28816V6.35311H6.35287V12.9413H8.41169V9.43723C8.38193 9.07835 8.49498 8.72222 8.72627 8.4462C8.95757 8.17019 9.28843 7.99659 9.64698 7.96311H9.72522C10.3799 7.96311 10.8658 8.37488 10.8658 9.41252V12.9413H12.9246L12.9411 8.93899Z" fill="white"/>
</svg>
