<svg width="16" height="16" viewBox="0 0 16 16" fill="none" xmlns="http://www.w3.org/2000/svg">
<g clip-path="url(#clip0_2288_3489)">
<path fill-rule="evenodd" clip-rule="evenodd" d="M13.2198 2.78033C12.27 1.83059 10.7302 1.83059 9.78043 2.78033L9.53043 3.03033C9.23753 3.32323 8.76266 3.32323 8.46977 3.03033C8.17687 2.73744 8.17687 2.26257 8.46977 1.96967L8.71977 1.71967C10.2553 0.18414 12.7449 0.18414 14.2804 1.71967C15.816 3.25521 15.816 5.7448 14.2804 7.28034L11.5304 10.0303C10.133 11.4278 7.86723 11.4278 6.46977 10.0303C6.17687 9.73744 6.17687 9.26257 6.46977 8.96968C6.76266 8.67678 7.23753 8.67678 7.53043 8.96968C8.3421 9.78135 9.65809 9.78135 10.4698 8.96968L13.2198 6.21968C14.1695 5.26993 14.1695 3.73008 13.2198 2.78033ZM4.46977 5.96968C5.86723 4.57221 8.13296 4.57221 9.53043 5.96967C9.82332 6.26257 9.82332 6.73744 9.53043 7.03033C9.23753 7.32323 8.76266 7.32323 8.46977 7.03033C7.65809 6.21866 6.3421 6.21866 5.53043 7.03033L2.78043 9.78034C1.83068 10.7301 1.83068 12.2699 2.78043 13.2197C3.73017 14.1694 5.27002 14.1694 6.21977 13.2197L6.46977 12.9697C6.76266 12.6768 7.23753 12.6768 7.53043 12.9697C7.82332 13.2626 7.82332 13.7374 7.53043 14.0303L7.28043 14.2803C5.74489 15.8159 3.2553 15.8159 1.71977 14.2803C0.184232 12.7448 0.184231 10.2552 1.71977 8.71968L4.46977 5.96968Z" fill="#FF00FF"/>
</g>
<defs>
<clipPath id="clip0_2288_3489">
<rect width="16" height="16" fill="white"/>
</clipPath>
</defs>
</svg>
