<svg width="16" height="16" viewBox="0 0 16 16" fill="none" xmlns="http://www.w3.org/2000/svg">
<path fill-rule="evenodd" clip-rule="evenodd" d="M6.75 4C6.75 3.30964 7.30964 2.75 8 2.75C8.69036 2.75 9.25 3.30964 9.25 4C9.25 4.41421 9.58579 4.75 10 4.75C10.4142 4.75 10.75 4.41421 10.75 4C10.75 2.48122 9.51878 1.25 8 1.25C6.48122 1.25 5.25 2.48122 5.25 4V7H5C3.89543 7 3 7.89543 3 9V13C3 14.1046 3.89543 15 5 15H11C12.1046 15 13 14.1046 13 13V9C13 7.89543 12.1046 7 11 7H6.75V4ZM8 9.25C8.41421 9.25 8.75 9.58579 8.75 10V12C8.75 12.4142 8.41421 12.75 8 12.75C7.58579 12.75 7.25 12.4142 7.25 12V10C7.25 9.58579 7.58579 9.25 8 9.25Z" fill="#FF00FF"/>
</svg>
