<svg width="16" height="16" viewBox="0 0 16 16" fill="none" xmlns="http://www.w3.org/2000/svg">
<g clip-path="url(#clip0_2179_3677)">
<path d="M15.1377 9.83224C15.3521 10.1089 15.4624 10.4522 15.4493 10.802C15.4268 11.3476 15.3127 11.8856 15.1118 12.3933L15.1071 12.4052C14.6529 13.4973 13.86 14.4147 12.8451 15.0221C11.7889 15.6365 10.5854 15.952 9.36353 15.935C9.28446 15.935 9.20389 15.9338 9.12449 15.9314C7.91859 15.9062 6.7414 15.5588 5.71511 14.9251C4.81174 14.3589 4.08069 13.5562 3.60131 12.6039C3.04903 12.5182 2.53343 12.2742 2.11684 11.9016C1.5989 11.4591 1.26711 10.8374 1.18783 10.1608C1.15251 9.83208 1.17156 9.49977 1.24424 9.17722L1.01718 8.98522C0.833396 8.82648 0.684038 8.63181 0.578303 8.41319C0.472569 8.19457 0.412696 7.95663 0.402369 7.714C0.38374 7.21036 0.470782 6.7084 0.657892 6.24044C1.12399 4.96792 2.19623 3.45266 3.52634 2.18704C4.1199 1.61105 4.77834 1.10595 5.48844 0.681871C6.0807 0.303063 6.76091 0.0839736 7.46292 0.0459094C7.91569 0.0341005 8.35669 0.190986 8.70027 0.486096C8.71988 0.503204 9.01383 0.790689 9.23678 1.00909C9.29273 0.98548 9.33298 0.968496 9.33416 0.968049C9.99374 0.680748 10.7026 0.523443 11.4218 0.504763C12.7543 0.504763 13.6165 1.21936 13.6182 2.32532C13.6192 3.00772 13.2842 3.77272 12.6665 4.51328C12.8345 4.77312 12.9617 5.05724 13.0434 5.35569C13.1312 5.66121 13.1792 5.97676 13.1864 6.29455C13.1924 6.43127 13.1985 6.65065 13.2034 6.84428C13.6591 6.95962 14.0803 7.18326 14.431 7.49618C14.6688 7.73211 14.8248 8.03804 14.876 8.36909C14.9275 8.69586 14.877 9.03057 14.7314 9.32761C14.7444 9.36481 14.7579 9.4052 14.7713 9.448C14.783 9.48533 14.794 9.5213 14.8043 9.55544C14.9325 9.62487 15.0458 9.71894 15.1377 9.83224Z" fill="white"/>
<path d="M4.60498 10.5497C4.61376 10.5603 4.61911 10.5733 4.62034 10.5871C4.62156 10.6008 4.6186 10.6146 4.61185 10.6266C4.579 10.6799 4.53191 10.723 4.4759 10.7509C4.41988 10.7789 4.35716 10.7907 4.29481 10.7849C4.18369 10.773 4.08126 10.7193 4.00822 10.6347C3.93518 10.5501 3.89698 10.4409 3.90133 10.3292C3.89945 10.177 3.92723 10.0259 3.98314 9.88438C4.01843 9.79567 4.02211 9.69752 3.99356 9.60643C3.96502 9.51533 3.90599 9.43683 3.8264 9.38412C3.77929 9.35295 3.72642 9.33153 3.67089 9.32113C3.61537 9.31074 3.55833 9.31157 3.50314 9.32359C3.44906 9.33496 3.39781 9.35704 3.35239 9.38851C3.30697 9.41999 3.26831 9.46023 3.23867 9.50687C3.19674 9.57864 3.16415 9.65548 3.14167 9.7355C3.13733 9.74959 3.13383 9.76065 3.13118 9.7678C3.09434 9.86715 3.03562 9.89611 2.99584 9.89079C2.97703 9.88819 2.95116 9.87561 2.93459 9.83014C2.91378 9.69868 2.92322 9.56421 2.9622 9.43696C3.00117 9.3097 3.06866 9.193 3.15951 9.09575C3.23582 9.01381 3.33053 8.95122 3.43582 8.91314C3.54111 8.87507 3.65395 8.8626 3.76502 8.87678C3.88267 8.89295 3.99449 8.93805 4.09044 9.00804C4.18639 9.07803 4.26348 9.17072 4.31482 9.27781C4.36681 9.40944 4.38779 9.55127 4.37614 9.69231C4.36448 9.83335 4.3205 9.96981 4.2476 10.0911C4.23838 10.1117 4.22994 10.1307 4.22282 10.1478C4.19661 10.1952 4.18222 10.2482 4.18086 10.3023C4.17951 10.3564 4.19124 10.4101 4.21505 10.4587C4.23518 10.4877 4.26219 10.5113 4.29366 10.5273C4.32512 10.5433 4.36007 10.5512 4.39536 10.5504C4.42863 10.5499 4.46171 10.5452 4.49381 10.5365C4.53559 10.5267 4.57875 10.5166 4.60498 10.5497L4.60498 10.5497ZM14.9034 10.8068C14.8801 11.2863 14.7787 11.7589 14.6034 12.2058C13.7289 14.3079 11.6417 15.4782 9.15538 15.4041C6.83753 15.335 4.86065 14.1082 3.99543 12.1083C3.44923 12.093 2.9267 11.882 2.52308 11.5137C2.10614 11.1582 1.83825 10.6588 1.7727 10.1149C1.7304 9.74066 1.77668 9.36173 1.90781 9.00868L1.42191 8.5958C-0.801416 6.7128 6.15255 -1.04024 8.37673 0.905641C8.38795 0.915436 9.13331 1.64905 9.13518 1.65086C9.13815 1.64934 9.54644 1.47568 9.54852 1.47483C11.4993 0.664553 13.0823 1.05579 13.0843 2.34861C13.0853 3.02096 12.6582 3.80463 11.974 4.51599C12.2474 4.79429 12.441 5.14098 12.5345 5.51977C12.6099 5.78403 12.6507 6.05697 12.6558 6.33174C12.6677 6.60572 12.6808 7.24403 12.6821 7.2554C12.6995 7.26066 12.897 7.31502 12.9569 7.33189C13.3549 7.41919 13.7253 7.60319 14.0353 7.86764C14.1989 8.02765 14.3061 8.23653 14.3406 8.46278C14.3828 8.75633 14.3095 9.05481 14.1362 9.29549C14.1813 9.39832 14.2205 9.50367 14.2534 9.61101C14.311 9.79617 14.3529 9.94982 14.3594 9.97262C14.571 9.97261 14.9034 10.217 14.9034 10.8068L14.9034 10.8068ZM5.07798 9.65328C4.92678 8.67169 4.26479 8.32575 3.8156 8.30107C3.70285 8.29509 3.58979 8.30315 3.47903 8.32508C2.67729 8.48731 2.22449 9.17139 2.31359 10.0603C2.37848 10.459 2.57592 10.8242 2.874 11.0968C3.17209 11.3695 3.55339 11.5336 3.95631 11.5628C4.03341 11.5649 4.11054 11.5594 4.1866 11.5466C4.99918 11.4076 5.21193 10.5226 5.07798 9.65328ZM6.44832 3.42217C7.12746 2.86383 7.85192 2.36303 8.61418 1.92496C8.61418 1.92496 8.00893 1.22104 7.82615 1.16916C6.70194 0.86434 4.27341 2.54428 2.72287 4.76372C2.09548 5.66174 1.19735 7.25206 1.62676 8.06996C1.77931 8.25354 1.95139 8.41996 2.13997 8.56629C2.42706 8.16162 2.86024 7.88444 3.34797 7.79332C3.95815 6.07803 5.03122 4.56512 6.44832 3.42217ZM8.89169 11.1899C8.92148 11.3204 8.98596 11.4403 9.07831 11.5372C9.17066 11.634 9.28746 11.7041 9.41635 11.74C9.55044 11.79 9.68878 11.8277 9.82969 11.8526C11.608 12.1595 13.2705 11.1396 13.6448 10.8827C13.6729 10.8634 13.6915 10.8822 13.6689 10.9163C13.6576 10.9344 13.6454 10.9519 13.6323 10.9687C13.1742 11.5614 11.9426 12.2478 10.3403 12.2476C9.64143 12.2474 8.94296 12.0005 8.68651 11.621C8.28862 11.0323 8.66679 10.1729 9.32977 10.2624C9.33055 10.2626 9.55662 10.2883 9.62016 10.2953C10.6507 10.3944 11.6895 10.2277 12.6373 9.81104C13.5418 9.38987 13.8835 8.92638 13.8323 8.55118C13.8151 8.43466 13.7604 8.32694 13.6763 8.24443C13.4289 8.04082 13.1352 7.90128 12.8212 7.83814C12.6775 7.79769 12.58 7.77187 12.475 7.73716C12.2883 7.67548 12.196 7.62583 12.1751 7.27366C12.166 7.11965 12.1392 6.58311 12.1295 6.36137C12.1124 5.97286 12.0659 5.44182 11.7373 5.22256C11.6537 5.16751 11.5566 5.13638 11.4565 5.13252C11.4004 5.12911 11.3441 5.13464 11.2898 5.14891C11.1234 5.18742 10.9717 5.27342 10.8532 5.39647C10.6997 5.53525 10.5191 5.6408 10.3228 5.70651C10.1266 5.77222 9.91887 5.79668 9.71272 5.77833C9.48285 5.76872 9.23924 5.7328 8.95999 5.71617C8.90568 5.71296 8.85112 5.70958 8.79668 5.7068C8.43714 5.71623 8.09293 5.85447 7.82674 6.09634C7.56054 6.33821 7.39006 6.66764 7.34633 7.02464C7.18645 8.12801 7.98307 8.69817 8.21306 9.03275C8.24859 9.07536 8.27063 9.12758 8.27636 9.18277C8.27029 9.24397 8.24099 9.30052 8.19449 9.34077V9.34114C7.87637 9.69554 7.65279 10.1245 7.54444 10.5882C7.43608 11.0519 7.44644 11.5355 7.57457 11.9942C7.60498 12.1043 7.64394 12.2119 7.6911 12.316C8.27238 13.6785 10.0756 14.3129 11.8372 13.7358C12.0679 13.6603 12.2918 13.5655 12.5065 13.4523C12.8923 13.2611 13.2397 13.0007 13.5314 12.684C13.9851 12.228 14.2837 11.6407 14.3847 11.0055C14.4377 10.6543 14.3601 10.5185 14.2543 10.4531C14.1794 10.4114 14.0929 10.3955 14.0082 10.408C13.9633 10.1322 13.8846 9.863 13.7738 9.60647C13.2707 9.98612 12.702 10.2699 12.096 10.4435C11.367 10.6495 10.6086 10.7317 9.85241 10.6868C9.36591 10.6474 9.04404 10.5049 8.92299 10.8996C9.6589 11.1456 10.4402 11.2254 11.2107 11.133C11.2161 11.1324 11.2216 11.1329 11.2268 11.1345C11.232 11.1361 11.2369 11.1386 11.2411 11.1421C11.2453 11.1455 11.2488 11.1498 11.2514 11.1546C11.254 11.1594 11.2556 11.1647 11.2561 11.1701C11.2569 11.1792 11.2549 11.1883 11.2503 11.1963C11.2457 11.2042 11.2387 11.2104 11.2304 11.2142C11.2304 11.2142 10.3268 11.6351 8.89169 11.1899ZM6.24522 4.79154C6.84291 4.37193 7.51682 4.07316 8.22909 3.91202C9.0326 3.72582 9.86779 3.72356 10.6723 3.90543C10.7004 3.9119 10.7184 3.86298 10.6932 3.84884C10.2757 3.63147 9.81489 3.51031 9.3445 3.49425C9.33996 3.49417 9.33554 3.49284 9.33172 3.4904C9.32789 3.48797 9.32481 3.48453 9.32282 3.48046C9.32083 3.47639 9.31999 3.47185 9.32041 3.46734C9.32083 3.46282 9.32249 3.45851 9.3252 3.45488C9.39827 3.35897 9.48362 3.27308 9.57906 3.1994C9.58334 3.19607 9.58644 3.19145 9.58791 3.18623C9.58938 3.18101 9.58915 3.17545 9.58725 3.17037C9.58535 3.1653 9.58187 3.16096 9.57733 3.15799C9.57279 3.15502 9.56742 3.15358 9.562 3.15387C8.98596 3.21082 8.43238 3.40686 7.94889 3.72513C7.94476 3.72793 7.93988 3.72942 7.93489 3.72941C7.9299 3.72939 7.92503 3.72788 7.92091 3.72506C7.9168 3.72224 7.91362 3.71825 7.91181 3.71361C7.90999 3.70896 7.90961 3.70387 7.91073 3.69901C7.94966 3.55306 8.00701 3.41265 8.08139 3.28117C8.08386 3.27668 8.08482 3.27151 8.08413 3.26642C8.08344 3.26134 8.08114 3.25661 8.07756 3.25294C8.07398 3.24926 8.06932 3.24683 8.06426 3.246C8.0592 3.24518 8.054 3.24599 8.04944 3.24834C7.3502 3.63429 6.72741 4.14481 6.21176 4.75473C6.20772 4.75936 6.20552 4.76531 6.20558 4.77145C6.20565 4.77759 6.20796 4.7835 6.21209 4.78804C6.21623 4.79259 6.22188 4.79545 6.22799 4.7961C6.2341 4.79674 6.24023 4.79512 6.24522 4.79154ZM10.9281 8.53689C10.9768 8.56771 11.0351 8.57952 11.092 8.57008C11.1488 8.56063 11.2001 8.53059 11.2362 8.48569C11.2811 8.39888 11.216 8.28113 11.0907 8.22264C11.042 8.19183 10.9837 8.18003 10.9269 8.1895C10.87 8.19897 10.8187 8.22903 10.7826 8.27396C10.7377 8.36071 10.8029 8.47846 10.9281 8.53689ZM11.3123 7.12907C11.3424 7.28538 11.4072 7.43292 11.502 7.56077C11.6 7.54873 11.6991 7.54873 11.797 7.56077C11.8543 7.3892 11.8593 7.20448 11.8114 7.03005C11.7406 6.70821 11.6448 6.51342 11.4468 6.54371C11.2489 6.57405 11.2416 6.80723 11.3123 7.12907ZM11.7335 7.86839C11.6836 7.85406 11.6304 7.85574 11.5815 7.87318C11.5326 7.89062 11.4903 7.92296 11.4607 7.96564C11.4311 8.00832 11.4156 8.05921 11.4164 8.11115C11.4172 8.16308 11.4343 8.21346 11.4652 8.25521C11.4961 8.29695 11.5393 8.32796 11.5888 8.34388C11.6382 8.3598 11.6914 8.35983 11.7409 8.34396C11.7903 8.3281 11.8336 8.29713 11.8646 8.25542C11.8955 8.21371 11.9126 8.16335 11.9135 8.11141C11.9207 8.0555 11.9059 7.99899 11.8724 7.95369C11.8388 7.9084 11.7891 7.87783 11.7335 7.86839Z" fill="black"/>
<path d="M8.44667 7.83963C8.41509 7.83519 8.40163 7.82168 8.39766 7.80378C8.3854 7.74826 8.47079 7.65688 8.5608 7.59092C8.69217 7.49488 8.84604 7.43424 9.00762 7.41484C9.16919 7.39545 9.33304 7.41794 9.48341 7.48017C9.62391 7.53812 9.74473 7.63536 9.83138 7.76023C9.86356 7.81273 9.86978 7.85344 9.84898 7.87477C9.81657 7.90897 9.7339 7.8698 9.59932 7.81077C9.43766 7.73145 9.25901 7.69297 9.07903 7.69871C8.86577 7.7338 8.65465 7.78085 8.44667 7.83963ZM9.788 8.11578C9.72986 8.05465 9.65745 8.0089 9.57728 7.98262C9.49711 7.95634 9.41168 7.95036 9.32863 7.9652C9.20615 7.97823 9.09011 8.02659 8.99464 8.1044C8.95015 8.13633 8.91957 8.18409 8.90919 8.23786C8.90895 8.24384 8.91002 8.2498 8.91234 8.25531C8.91465 8.26083 8.91815 8.26578 8.92258 8.2698C8.93047 8.27696 8.94078 8.28088 8.95144 8.28076C8.9955 8.2743 9.03858 8.26235 9.07968 8.2452C9.2596 8.1774 9.45399 8.15721 9.644 8.1866C9.73206 8.19649 9.77366 8.202 9.79298 8.17178C9.79794 8.16305 9.80012 8.15301 9.79923 8.143C9.79834 8.133 9.79442 8.1235 9.788 8.11578Z" fill="black"/>
</g>
<defs>
<clipPath id="clip0_2179_3677">
<rect width="16" height="16" fill="white"/>
</clipPath>
</defs>
</svg>
