<svg width="16" height="16" viewBox="0 0 16 16" fill="none" xmlns="http://www.w3.org/2000/svg">
<g clip-path="url(#clip0_2288_3307)">
<path fill-rule="evenodd" clip-rule="evenodd" d="M2.29137 3.06763C2.39571 2.94469 2.51136 2.78078 2.43669 2.63547C2.85402 2.3896 3.22282 2.06528 3.5245 1.68542C3.36059 1.8159 3.18185 1.92023 2.99178 2.00219C4.41875 0.593826 6.56472 -0.0470015 8.53546 0.347955C6.94836 0.288374 5.3316 0.709212 4.02002 1.60346C2.70493 2.49393 1.70662 3.86105 1.32299 5.4034C1.90397 3.71574 3.12981 2.25911 4.69454 1.40234C4.65526 1.44283 4.61596 1.48367 4.57653 1.52464L4.57649 1.52468C4.49253 1.61193 4.40799 1.69976 4.32196 1.78597C4.63342 1.6575 4.92957 1.49547 5.22591 1.33333L5.22591 1.33333L5.22592 1.33332C5.49672 1.18516 5.76767 1.03691 6.05061 0.914104C7.7903 0.154116 9.88398 0.440966 11.5045 1.432C13.1251 2.42303 14.2913 4.04734 14.9693 5.82073C15.2673 6.59555 15.4759 7.4561 15.2114 8.24224C15.1519 7.21778 14.8165 6.23052 14.3806 5.30284C13.6578 3.75672 12.6223 2.30764 11.1656 1.42094C9.70901 0.538019 7.78275 0.303202 6.2927 1.13409C7.05647 1.05214 7.82751 1.00738 8.58372 1.11549C10.0069 1.31661 11.322 2.06177 12.3203 3.09351C13.3151 4.1293 14.0045 5.43683 14.4105 6.8115C14.8054 8.15651 14.9356 9.63928 14.4291 10.9506C15.9081 8.55874 15.6622 5.22843 13.8554 3.07868C13.0992 2.18093 12.1192 1.49158 11.0613 0.992557C9.83922 0.418858 8.49799 0.0872566 7.14948 0.124461C5.80096 0.161665 4.45218 0.582773 3.37568 1.39479C4.26966 0.604879 5.43566 0.15789 6.62053 0.034955C7.80891 -0.0842065 9.01211 0.109633 10.1412 0.489492C12.488 1.28669 14.6264 3.04525 15.3158 5.42578C15.4907 6.03668 15.5689 6.66996 15.6398 7.30351C15.6994 7.85106 15.7479 8.3986 15.7366 8.94992C15.6846 11.6734 13.9446 14.3335 11.4077 15.328C10.6887 15.6076 9.92873 15.7602 9.16497 15.8683C7.94289 16.0395 6.67634 16.0918 5.49902 15.7267C4.89189 15.5367 4.32547 15.2423 3.8003 14.881C1.62467 13.3907 0.25 10.7942 0.25 8.15651C0.25 7.68714 0.290978 7.22155 0.354333 6.75946C0.410139 6.33485 0.484548 5.91374 0.607483 5.50396C0.793773 4.90034 1.0844 4.33041 1.4683 3.82762C1.53516 3.78664 1.60229 3.74189 1.66564 3.69713C0.78272 5.56354 0.257279 7.7691 1.06579 9.67271C0.775171 8.4323 0.756569 7.13204 1.01376 5.88759C1.09572 5.85794 1.17768 5.82451 1.25586 5.79081L1.26691 5.54871C1.2467 5.57149 1.22692 5.59424 1.20727 5.61683L1.20724 5.61686L1.20722 5.61688L1.2072 5.61692L1.20717 5.61695L1.20714 5.61698L1.20711 5.61702L1.20708 5.61705L1.20705 5.61708L1.20703 5.61711L1.207 5.61714L1.20698 5.61716L1.20695 5.61719L1.20693 5.61722L1.2069 5.61725L1.20688 5.61728C1.16877 5.66111 1.13117 5.70434 1.09195 5.74606C1.22971 4.7588 1.65432 3.82384 2.29137 3.06763ZM2.89122 3.0191L3.58435 2.54974C3.43904 2.84413 3.17079 3.07491 2.85779 3.17924C1.40495 4.68062 0.957687 6.9196 1.12915 8.99845C1.19628 9.78459 1.35642 10.6004 1.86299 11.204C1.50928 9.75089 1.49041 8.21609 1.81473 6.75569C1.87808 6.75191 1.90019 6.83387 1.90019 6.89723C1.91191 7.33653 1.88468 7.77577 1.85746 8.21499C1.82395 8.75556 1.79044 9.29609 1.82956 9.83662C1.90019 10.8128 2.26549 11.8448 3.08506 12.3776C3.72589 12.7946 4.36294 13.212 4.99999 13.6293C4.75648 13.5514 4.51805 13.4585 4.28602 13.3519C4.30771 13.4398 4.23135 13.5383 4.13945 13.5622C4.03862 13.5921 3.93078 13.5622 3.83022 13.5322C4.28098 13.8566 4.75035 14.1545 5.23454 14.4265C5.16391 14.4375 5.14153 14.5419 5.18629 14.6014C5.22705 14.6563 5.29317 14.6733 5.3583 14.6901L5.37608 14.6947C7.15325 15.0784 9.04581 14.9368 10.7445 14.2812C9.28413 14.6238 7.72695 14.7023 6.31131 14.2068C5.11538 13.7894 4.06854 12.9661 3.38296 11.9044C3.16324 11.5615 2.98073 11.2002 2.81304 10.8314C2.27277 9.6169 1.93012 8.29076 2.0269 6.96436C2.12396 5.63822 2.70493 4.31559 3.74827 3.49602C3.8561 3.41029 3.99036 3.32833 4.12435 3.36176C3.09611 4.10692 2.48521 5.34005 2.32507 6.59932C2.16493 7.86211 2.42563 9.14376 2.88394 10.3284C3.21177 11.1668 3.64744 11.9788 4.24729 12.6493C4.50448 12.9362 4.7951 13.1971 5.12644 13.3945C5.73383 13.7595 6.45284 13.8975 7.15702 13.9868C8.11436 14.1097 9.07924 14.162 10.0441 14.1396C8.82582 14.4265 7.55171 14.2216 6.31858 14.0167C8.41253 14.8028 10.8675 14.3221 12.667 12.9995C13.0245 12.735 13.3636 12.4409 13.6354 12.0869C14.0527 11.5429 14.3024 10.88 14.4291 10.2054C14.7569 8.44713 14.2875 6.61038 13.4343 5.0346C12.842 3.93923 12.0558 2.92609 11.0203 2.23674C10.0517 1.59591 8.9005 1.25703 7.74178 1.19367C5.9611 1.08934 4.07609 1.67787 2.89122 3.0191ZM1.40495 10.7756C2.07331 11.8897 3.08389 12.7931 4.26136 13.3405C3.97821 13.5636 3.55688 13.3078 3.28618 13.0556C3.13793 12.9176 2.98913 12.7803 2.84022 12.6428C2.6111 12.4313 2.38171 12.2195 2.15361 12.005C2.17523 12.0664 2.1961 12.1277 2.21687 12.1888C2.24271 12.2648 2.26839 12.3403 2.29515 12.4148C1.92257 11.9155 1.62089 11.3604 1.40495 10.7756ZM6.38949 15.1193C7.19045 15.3205 7.99897 15.4658 8.81854 15.5628C7.81268 15.7936 6.7769 15.4399 5.80474 15.0935C5.23077 14.8921 4.64979 14.6834 4.11707 14.3855C2.82787 13.6703 1.85921 12.4444 1.29684 11.0811C1.20302 10.8464 1.11604 10.6115 1.04303 10.3733C1.06507 10.3583 1.06075 10.3185 1.04719 10.2912C0.711816 9.48291 0.506923 8.61482 0.443569 7.74295C0.380214 9.06181 0.708042 10.3879 1.30412 11.569C1.95249 12.8542 2.92492 13.9833 4.14673 14.7468C5.36503 15.5105 6.8327 15.8979 8.26344 15.7602C10.2752 15.5628 12.041 14.3893 13.6615 13.1858C12.9463 14.1321 11.8623 14.7171 10.8079 15.2684C12.6295 14.7581 14.0899 13.3163 14.9693 11.6399C14.5334 12.3848 13.8516 12.9699 13.1102 13.4093C12.3651 13.849 11.5493 14.1545 10.7335 14.4489C10.3757 14.5793 10.0145 14.7058 9.64566 14.8101C8.59127 15.1121 7.48108 15.2164 6.38949 15.1193ZM1.04303 10.3733C1.04097 10.3748 1.03867 10.3759 1.03614 10.3769C1.00621 10.3917 1.02859 10.3211 1.03614 10.3507L1.04303 10.3733ZM13.8403 12.601C14.0266 12.4258 14.2094 12.2471 14.3582 12.046C14.593 11.7219 14.7494 11.3455 14.8984 10.973L14.9062 10.9533C15.1048 10.4532 15.3051 9.94876 15.3568 9.41201C15.2656 9.49254 15.2306 9.60922 15.1958 9.72497L15.1891 9.74739C14.6936 11.4647 13.468 12.9623 11.8771 13.7819C12.626 13.6142 13.2704 13.1262 13.8403 12.601ZM4.73552 14.4265C4.8137 14.4451 4.91049 14.4785 4.91426 14.557C4.94392 14.5047 5.03342 14.5047 5.06685 14.557C5.08195 14.5532 5.07063 14.527 5.05203 14.5195L5.0296 14.5075C4.92545 14.4519 4.82129 14.3963 4.72043 14.3407C4.26966 14.0986 3.8561 13.797 3.4873 13.4468C3.44254 13.5436 3.47624 13.6665 3.56198 13.7261L3.56229 13.7263L3.56261 13.7265L3.56292 13.7268L3.56324 13.727L3.56355 13.7272L3.56386 13.7274L3.56418 13.7277L3.56449 13.7279L3.56481 13.7281L3.56512 13.7284L3.56543 13.7286L3.56575 13.7288L3.56606 13.729L3.56637 13.7293C3.72882 13.8474 3.89127 13.9655 4.05372 14.0838C4.25106 14.2477 4.48588 14.3669 4.73552 14.4265ZM15.4945 8.79356C15.4797 9.06935 15.4646 9.34865 15.446 9.62445C15.4425 9.66163 15.4425 9.69882 15.4425 9.736V9.73606L15.4425 9.73621C15.4387 9.80329 15.4349 9.87037 15.4274 9.93368L15.4272 9.93843C15.4235 10.0185 15.4201 10.0916 15.4201 10.172C15.5765 9.53872 15.6323 8.87552 15.584 8.22741C15.5654 8.21986 15.5466 8.20881 15.5317 8.19748C15.5264 8.29312 15.5201 8.38882 15.5137 8.48495L15.5137 8.48522C15.507 8.58737 15.5002 8.69 15.4945 8.79356ZM1.01376 4.71054C0.987612 4.7588 0.965236 4.80733 0.942859 4.85585C0.96901 4.88928 1.01727 4.84831 1.02859 4.80733L1.03144 4.79752C1.04179 4.76156 1.05446 4.71752 1.09195 4.71432C1.07342 4.69552 1.05489 4.67699 1.03636 4.65846L1.0363 4.6584L1.03614 4.65824C1.02859 4.67334 1.02104 4.69544 1.02859 4.71054H1.01376ZM3.72211 1.61829C3.75932 1.58863 3.79652 1.55871 3.83373 1.52528C3.77037 1.49913 3.68842 1.53256 3.66253 1.59968C3.68114 1.60723 3.69974 1.61451 3.72211 1.61829ZM3.8375 1.44332C3.91946 1.46192 4.01274 1.43954 4.0796 1.38374C3.99414 1.37996 3.9084 1.39857 3.8375 1.44332ZM0.872225 5.22466C0.86845 5.20606 0.864677 5.18746 0.864677 5.17236C0.793773 5.19851 0.760343 5.29529 0.801322 5.35865C0.816149 5.31039 0.838526 5.26564 0.872225 5.22466ZM0.451118 7.1245C0.432516 7.15065 0.447343 7.1954 0.481043 7.19917C0.499646 7.13959 0.49587 7.07624 0.477267 7.01288C0.440062 7.03149 0.428739 7.08352 0.451116 7.11722L0.451118 7.1245ZM2.96212 2.02084C2.96566 2.02621 2.96926 2.03246 2.97289 2.03877L2.97289 2.03878C2.97673 2.04547 2.98062 2.05222 2.9845 2.05805C2.9508 2.1063 2.88745 2.12868 2.83164 2.11385C2.86157 2.07287 2.90632 2.04322 2.95458 2.0319L2.96212 2.02084ZM2.83165 2.23309C2.77584 2.22932 2.72004 2.24064 2.66774 2.25925H2.64914C2.68256 2.33743 2.8206 2.31505 2.83165 2.23309ZM2.48146 2.08772C2.51516 2.03569 2.57824 1.99849 2.64537 2.00576C2.6602 2.04324 2.64915 2.08772 2.61922 2.11387C2.56719 2.12142 2.50383 2.1287 2.46663 2.08772H2.48146ZM12.965 2.37451C12.9687 2.35213 12.9464 2.33002 12.924 2.33353V2.32625C12.9164 2.28149 12.8496 2.25534 12.8124 2.28527C12.8458 2.32625 12.8792 2.36723 12.9129 2.40443C12.9353 2.41198 12.9612 2.39688 12.965 2.37451ZM2.81688 1.78212C2.84303 1.75247 2.89506 1.75246 2.92499 1.77834C2.87646 1.82687 2.81311 1.8603 2.74598 1.88268C2.7387 1.8417 2.7759 1.79344 2.81688 1.79695V1.78212ZM2.33986 5.27671C2.3288 5.21713 2.2393 5.19853 2.20587 5.24706L2.20937 5.25056C2.18727 5.24706 2.16489 5.26943 2.16839 5.28804C2.16839 5.31041 2.19832 5.32524 2.21692 5.31769C2.24685 5.28426 2.2951 5.26943 2.33986 5.27671ZM4.33681 2.86288C4.35541 2.85533 4.38157 2.84778 4.40017 2.85533C4.42254 2.86288 4.4336 2.89631 4.41877 2.91113C4.34787 2.95589 4.26591 2.98204 4.18395 2.98581C4.22143 2.93351 4.27723 2.89253 4.33681 2.86288ZM5.49487 14.5446C5.47491 14.5313 5.4549 14.518 5.43579 14.5047L5.43142 14.5021C5.40656 14.4878 5.37812 14.4714 5.34656 14.475C5.32041 14.475 5.29075 14.5122 5.30558 14.5384C5.37271 14.5979 5.46949 14.6165 5.55145 14.5828C5.53321 14.5701 5.51407 14.5574 5.49487 14.5446ZM3.73307 2.5199C3.71447 2.4641 3.72929 2.39697 3.77405 2.35599C3.80397 2.34871 3.83363 2.32633 3.84495 2.29263C3.86831 2.30164 3.89085 2.31071 3.91339 2.31978L3.9134 2.31978L3.9134 2.31978L3.9134 2.31978L3.9134 2.31978L3.91341 2.31978L3.91341 2.31978L3.91343 2.31979C3.93744 2.32945 3.96146 2.33912 3.98649 2.34871C3.95374 2.37101 3.92038 2.39331 3.88667 2.41585L3.88655 2.41593L3.88642 2.41602L3.88638 2.41605C3.83582 2.44985 3.78444 2.4842 3.73307 2.5199ZM1.91523 6.45405V6.52118L1.91901 6.52469C1.87803 6.55839 1.83705 6.59181 1.79957 6.62174C1.83354 6.64424 1.8675 6.66908 1.89981 6.6927L1.93006 6.71475C1.92251 6.61797 1.95998 6.52118 2.02684 6.45028C1.99341 6.43545 1.95244 6.43545 1.91523 6.45405ZM1.66946 3.23156C1.68429 3.11591 1.75142 3.01157 1.84443 2.94094C1.87058 2.92234 1.91156 2.91101 1.92638 2.93716C1.84443 3.01912 1.7773 3.11213 1.72904 3.21647C1.71772 3.23534 1.68806 3.24639 1.66946 3.23156ZM2.16851 5.45311C2.13027 5.48253 2.09208 5.5119 2.05292 5.54127C2.06314 5.55149 2.07337 5.56066 2.08301 5.5693L2.09719 5.58215C2.07933 5.57429 2.05135 5.60467 2.06424 5.627C2.08284 5.65315 2.12005 5.64938 2.1462 5.63455C2.15915 5.62713 2.17027 5.61688 2.18143 5.60659L2.18144 5.60659C2.19258 5.59632 2.20376 5.58602 2.21683 5.57847C2.22596 5.54381 2.23509 5.51089 2.24422 5.47798L2.24423 5.47795C2.2537 5.44381 2.26317 5.40968 2.27264 5.37358C2.2374 5.40013 2.20295 5.42663 2.16855 5.45309L2.16854 5.45309L2.16851 5.45311ZM4.89195 2.65422C4.88441 2.67282 4.87713 2.69142 4.88441 2.7138C4.82483 2.72485 4.76902 2.73617 4.71672 2.74723L4.69461 2.81436C4.64987 2.81058 4.60512 2.81058 4.56415 2.81058H4.56413C4.52692 2.79198 4.56413 2.73995 4.60133 2.72135C4.67574 2.68387 4.75419 2.6615 4.83615 2.65044C4.83049 2.64114 4.82489 2.63279 4.8193 2.62443C4.81371 2.61607 4.80811 2.60771 4.80245 2.59841C4.86203 2.54988 4.93293 2.51645 5.01112 2.49408C5.02594 2.51996 5.02972 2.54988 5.02244 2.57954C4.99629 2.59086 4.97014 2.59464 4.94399 2.58709C4.94776 2.60569 4.95154 2.62429 4.95531 2.64667C4.92916 2.65422 4.91056 2.65799 4.89195 2.65422ZM2.08291 2.98576C2.04921 2.97821 2.00823 2.98576 1.97858 3.00436C2.00446 3.02296 2.03061 3.04156 2.04921 3.05262L1.91522 3.13107C1.919 3.19065 1.85915 3.24646 1.79957 3.2354C1.80712 3.26883 1.84055 3.29121 1.87047 3.28366C1.84432 3.31359 1.80334 3.32841 1.76236 3.32464C1.75508 3.37694 1.72893 3.42897 1.68796 3.4624C1.72516 3.4624 1.75131 3.52225 1.72139 3.54813C1.68796 3.52225 1.62083 3.51093 1.6246 3.55191C1.64698 3.55946 1.66935 3.56674 1.69523 3.57428C1.66935 3.59289 1.66558 3.63386 1.68418 3.65624C1.74497 3.65624 1.77193 3.58904 1.7959 3.5293L1.80334 3.51093C1.8376 3.42931 1.89907 3.3613 1.96015 3.29373C2.03848 3.20707 2.11616 3.12114 2.13494 3.00813C2.15732 3.01541 2.18725 3.01164 2.20585 3.00059C2.20946 2.98214 2.21406 2.96369 2.21867 2.94521L2.21867 2.94521C2.22336 2.92642 2.22806 2.9076 2.23173 2.8887C2.25411 2.88142 2.27648 2.87388 2.29508 2.86633C2.29886 2.84773 2.29508 2.82535 2.28403 2.81052C2.24683 2.79569 2.20207 2.78814 2.1611 2.79192C2.17592 2.82912 2.17592 2.87388 2.1611 2.91108C2.12285 2.9146 2.08789 2.92141 2.05292 2.92823L2.04544 2.92968L2.04861 2.93491L2.04861 2.93491C2.05887 2.95181 2.06923 2.9689 2.08291 2.98576ZM13.6801 3.20175C13.5981 3.09014 13.5124 2.98203 13.4083 2.88875C13.3808 2.86407 13.3517 2.83991 13.3226 2.81564C13.198 2.71189 13.071 2.60619 13.0468 2.44931C13.9224 3.1907 14.5967 4.17041 14.9728 5.25445C15.0065 5.28437 14.9693 5.3515 14.9283 5.34018C14.6005 4.58397 14.1793 3.86118 13.6801 3.20175ZM3.90857 2.563C3.88724 2.57971 3.86599 2.59635 3.84516 2.61313C3.41797 2.96476 3.13286 3.44771 2.85273 3.92224C2.84205 3.94033 2.83138 3.95841 2.8207 3.97647C2.70516 4.177 2.59103 4.37753 2.47748 4.57704C2.41165 4.69269 2.34603 4.80799 2.28043 4.92275C2.31036 4.97883 2.39232 4.97883 2.44057 4.94135C2.49288 4.90415 2.51525 4.84457 2.53385 4.78499C2.55732 4.72155 2.57995 4.65728 2.60259 4.59299C2.62652 4.52505 2.65046 4.45708 2.67539 4.39003C2.94034 4.07606 3.20694 3.76362 3.47308 3.45169C3.61098 3.29007 3.74877 3.12859 3.88614 2.96711C4.35173 2.42306 4.85857 1.85314 5.54766 1.67062C5.7793 1.60821 6.00998 1.54689 6.24071 1.48556C6.45145 1.42955 6.66222 1.37353 6.87379 1.31665C5.98737 1.33147 5.10795 1.59217 4.35551 2.06531C4.30698 2.09524 4.25495 2.13622 4.23635 2.18825C4.18164 2.34911 4.04351 2.45731 3.90857 2.563Z" fill="#FF00FF"/>
</g>
<defs>
<clipPath id="clip0_2288_3307">
<rect width="16" height="16" fill="white"/>
</clipPath>
</defs>
</svg>
