<svg width="16" height="16" viewBox="0 0 16 16" fill="none" xmlns="http://www.w3.org/2000/svg">
<path fill-rule="evenodd" clip-rule="evenodd" d="M0.25 5C0.25 2.92893 1.92893 1.25 4 1.25H12C14.0711 1.25 15.75 2.92893 15.75 5V8C15.75 10.0711 14.0711 11.75 12 11.75H4.56619C4.47837 11.75 4.397 11.7961 4.35182 11.8714L2.57187 14.838C1.9196 15.9251 0.25 15.4626 0.25 14.1948V5ZM4 2.75C2.75736 2.75 1.75 3.75736 1.75 5V13.2923L3.06558 11.0996C3.38184 10.5725 3.95148 10.25 4.56619 10.25H12C13.2426 10.25 14.25 9.24264 14.25 8V5C14.25 3.75736 13.2426 2.75 12 2.75H4Z" fill="#FF00FF"/>
</svg>
