<svg width="16" height="16" viewBox="0 0 16 16" fill="none" xmlns="http://www.w3.org/2000/svg">
<path fill-rule="evenodd" clip-rule="evenodd" d="M0.25 5C0.25 2.92893 1.92893 1.25 4 1.25H12C14.0711 1.25 15.75 2.92893 15.75 5V8C15.75 10.0711 14.0711 11.75 12 11.75H5C4.60655 11.75 4.23607 11.9352 4 12.25L2.5 14.25C1.77924 15.211 0.25 14.7013 0.25 13.5V5ZM4 2.75C2.75736 2.75 1.75 3.75736 1.75 5V12.75L2.8 11.35C3.31935 10.6575 4.13442 10.25 5 10.25H12C13.2426 10.25 14.25 9.24264 14.25 8V5C14.25 3.75736 13.2426 2.75 12 2.75H4Z" fill="#FF00FF"/>
</svg>
