<svg width="16" height="16" viewBox="0 0 16 16" fill="none" xmlns="http://www.w3.org/2000/svg">
<path fill-rule="evenodd" clip-rule="evenodd" d="M8 0.500008C9.38071 0.500008 10.5 1.6193 10.5 3.00001V8.00001C10.5 9.38072 9.38071 10.5 8 10.5C6.61929 10.5 5.5 9.38072 5.5 8.00001V3.00001C5.5 1.6193 6.61929 0.500008 8 0.500008ZM3 7.25001C3.41421 7.25001 3.75 7.58579 3.75 8.00001C3.75 10.3472 5.65279 12.25 8 12.25C10.3472 12.25 12.25 10.3472 12.25 8.00001C12.25 7.58579 12.5858 7.25001 13 7.25001C13.4142 7.25001 13.75 7.58579 13.75 8.00001C13.75 10.9215 11.5713 13.334 8.75 13.7015V15C8.75 15.4142 8.41421 15.75 8 15.75C7.58579 15.75 7.25 15.4142 7.25 15V13.7015C4.42873 13.334 2.25 10.9215 2.25 8.00001C2.25 7.58579 2.58579 7.25001 3 7.25001Z" fill="#FF00FF"/>
</svg>
