<svg width="16" height="16" viewBox="0 0 16 16" fill="none" xmlns="http://www.w3.org/2000/svg">
<path fill-rule="evenodd" clip-rule="evenodd" d="M8 0.5C9.38071 0.5 10.5 1.61929 10.5 3V8C10.5 9.38071 9.38071 10.5 8 10.5C6.61929 10.5 5.5 9.38071 5.5 8V3C5.5 1.61929 6.61929 0.5 8 0.5ZM3 7.25C3.41421 7.25 3.75 7.58579 3.75 8C3.75 10.3472 5.65279 12.25 8 12.25C10.3472 12.25 12.25 10.3472 12.25 8C12.25 7.58579 12.5858 7.25 13 7.25C13.4142 7.25 13.75 7.58579 13.75 8C13.75 10.9214 11.5713 13.334 8.75 13.7015V15C8.75 15.4142 8.41421 15.75 8 15.75C7.58579 15.75 7.25 15.4142 7.25 15V13.7015C4.42873 13.334 2.25 10.9214 2.25 8C2.25 7.58579 2.58579 7.25 3 7.25Z" fill="#FF00FF"/>
</svg>
