<svg width="16" height="16" viewBox="0 0 16 16" fill="none" xmlns="http://www.w3.org/2000/svg">
<path fill-rule="evenodd" clip-rule="evenodd" d="M4 4.5C4 5.32843 3.32843 6 2.5 6H1.5V10H2.5C3.32843 10 4 10.6716 4 11.5H12C12 10.6716 12.6716 10 13.5 10H14.5V6H13.5C12.6716 6 12 5.32843 12 4.5H4ZM14.5 3H13.5H2.5H1.5H1C0.447715 3 0 3.44772 0 4V4.5V11.5V12C0 12.5523 0.447715 13 1 13H1.5H2.5H13.5H14.5H15C15.5523 13 16 12.5523 16 12V11.5V4.5V4C16 3.44772 15.5523 3 15 3H14.5ZM8 10C9.10457 10 10 9.10457 10 8C10 6.89543 9.10457 6 8 6C6.89543 6 6 6.89543 6 8C6 9.10457 6.89543 10 8 10Z" fill="#FF00FF"/>
</svg>
