<svg width="16" height="16" viewBox="0 0 16 16" fill="none" xmlns="http://www.w3.org/2000/svg">
<path fill-rule="evenodd" clip-rule="evenodd" d="M5.5 3.5H10.5C11.4622 3.5 12.0836 3.50144 12.5545 3.54412C13.0048 3.58493 13.1683 3.65378 13.25 3.70096C13.478 3.83261 13.6674 4.02197 13.799 4.25C13.8462 4.33173 13.9151 4.4952 13.9559 4.94549C13.9986 5.4164 14 6.03778 14 7C14 7.96222 13.9986 8.5836 13.9559 9.05451C13.9151 9.5048 13.8462 9.66827 13.799 9.75C13.6674 9.97803 13.478 10.1674 13.25 10.299C13.1683 10.3462 13.0048 10.4151 12.5545 10.4559C12.0836 10.4986 11.4622 10.5 10.5 10.5H5.5C4.53778 10.5 3.9164 10.4986 3.44549 10.4559C2.9952 10.4151 2.83173 10.3462 2.75 10.299C2.52197 10.1674 2.33261 9.97803 2.20096 9.75C2.15378 9.66827 2.08493 9.5048 2.04412 9.05451C2.00144 8.5836 2 7.96222 2 7C2 6.03778 2.00144 5.4164 2.04412 4.94549C2.08493 4.4952 2.15378 4.33173 2.20096 4.25C2.33261 4.02197 2.52197 3.83261 2.75 3.70096C2.83173 3.65378 2.9952 3.58493 3.44549 3.54412C3.9164 3.50144 4.53778 3.5 5.5 3.5ZM0.5 7C0.5 5.13077 0.5 4.19615 0.901924 3.5C1.16523 3.04394 1.54394 2.66523 2 2.40192C2.69615 2 3.63077 2 5.5 2H10.5C12.3692 2 13.3038 2 14 2.40192C14.4561 2.66523 14.8348 3.04394 15.0981 3.5C15.5 4.19615 15.5 5.13077 15.5 7C15.5 8.86923 15.5 9.80385 15.0981 10.5C14.8348 10.9561 14.4561 11.3348 14 11.5981C13.3038 12 12.3692 12 10.5 12H5.5C3.63077 12 2.69615 12 2 11.5981C1.54394 11.3348 1.16523 10.9561 0.901924 10.5C0.5 9.80385 0.5 8.86923 0.5 7ZM6 12.75C5.58579 12.75 5.25 13.0858 5.25 13.5C5.25 13.9142 5.58579 14.25 6 14.25H10C10.4142 14.25 10.75 13.9142 10.75 13.5C10.75 13.0858 10.4142 12.75 10 12.75H6Z" fill="#FF00FF"/>
</svg>
