<svg width="16" height="16" viewBox="0 0 16 16" fill="none" xmlns="http://www.w3.org/2000/svg">
<g clip-path="url(#clip0_2179_3593)">
<path d="M6.94761 15.3787C3.13722 14.6995 0.44005 12.0902 0.0397409 8.69594C-0.14153 7.15926 0.304115 5.44539 1.23763 4.08864C2.1537 2.75712 3.77118 1.57475 5.43244 1.02233C6.54819 0.65133 7.17503 0.55027 8.39451 0.54515C10.3705 0.536766 12.0266 1.02485 13.5885 2.07575C14.6704 2.80365 16 4.37149 16 4.91931C16 5.40465 15.3916 5.75584 14.7888 5.61828C14.431 5.53665 14.3021 5.41831 13.817 4.72661C12.8487 3.34553 11.3923 2.37292 9.57673 1.89492C9.00339 1.74392 8.74866 1.72107 7.68961 1.72575C6.61816 1.73042 6.37619 1.75498 5.75158 1.92238C3.12817 2.62572 1.27168 4.41475 0.704498 6.78626C0.486054 7.69936 0.534506 8.9592 0.820547 9.80694C1.5664 12.0169 3.29883 13.5609 5.79565 14.241C6.30496 14.3797 6.5844 14.4031 7.72671 14.4031C8.8863 14.4031 9.14541 14.3807 9.69301 14.233C11.3957 13.7737 13.0114 12.6634 13.8386 11.3843C14.5311 10.3132 14.4817 10.3634 14.8444 10.3634C15.4725 10.3634 16 10.7173 16 11.1386C16 11.665 14.651 13.2275 13.5863 13.9345C12.6024 14.5877 11.5462 15.0385 10.3848 15.3007C9.6792 15.4601 7.66111 15.5059 6.94761 15.3788V15.3787ZM6.53951 13.6208C5.37717 13.4994 4.09685 12.9828 3.20103 12.2738C1.80904 11.1721 0.988832 9.41108 1.11334 7.79167C1.21396 6.48278 1.71963 5.42446 2.72081 4.42744C5.96839 1.19321 11.8559 2.41944 13.2302 6.61634C13.4779 7.37266 13.5133 8.63895 13.3078 9.39045C12.5553 12.143 9.66822 13.9476 6.53951 13.6208ZM8.49386 12.5165C10.2453 12.0216 11.5513 10.7771 12.038 9.13914C12.2305 8.49145 12.2184 7.43202 12.011 6.76474C11.4369 4.91746 9.58683 3.49912 7.52896 3.32854C4.43913 3.07255 1.88658 4.99492 1.70531 7.7145C1.61879 9.01263 2.07074 10.1658 3.04981 11.145C3.86846 11.9638 4.80442 12.4395 6.04467 12.667C6.5962 12.7682 7.8829 12.6892 8.49386 12.5165ZM5.37375 11.7366C3.8183 11.3438 2.57983 10.0759 2.35077 8.6417C2.2555 8.04565 2.35233 7.22804 2.56833 6.80466C2.86335 6.22649 3.42363 6.04856 3.91298 6.37779C4.21134 6.5785 4.39031 6.92226 4.46206 7.43254L4.51422 7.80354L4.76657 7.13574C5.11977 6.20126 5.17987 6.10028 5.39809 6.0746C5.68324 6.04107 5.76731 6.21017 5.82199 6.92783L5.87171 7.58094L6.15797 6.89103C6.45433 6.17685 6.6698 5.93459 6.93418 6.01844C7.2706 6.12528 7.31749 6.27999 7.39763 7.54844C7.43978 8.21646 7.48778 8.77645 7.50418 8.79285C7.52051 8.80924 7.64294 8.60171 7.77612 8.33162C8.03018 7.81645 8.17799 7.70485 8.42879 7.83908C8.64909 7.95698 8.6203 8.10553 8.2191 8.92314C7.71988 9.94027 7.44126 10.1546 7.0526 9.82029C6.87927 9.67115 6.83712 9.56096 6.78941 9.13127C6.75825 8.84991 6.73094 8.30416 6.72887 7.91855C6.72664 7.51416 6.69755 7.24719 6.66016 7.28785C6.62454 7.32658 6.43963 7.87588 6.24939 8.50844C5.88232 9.72828 5.77154 9.93397 5.55495 9.79796C5.42465 9.71611 5.40707 9.61298 5.25956 8.06316L5.19946 7.43246L4.95786 8.21156C4.54412 9.54538 4.46911 9.72925 4.3279 9.75641C4.03214 9.81347 3.97961 9.65112 3.97961 8.68058C3.97961 7.6561 3.8876 7.14642 3.65677 6.89147C3.45019 6.66338 3.24013 6.70983 3.05589 7.02444C3.03163 7.06822 2.90378 7.41191 2.90378 8.02614C2.90378 8.67784 2.99297 8.9313 3.10472 9.19701C3.36301 9.74832 4.01597 10.4314 4.56364 10.7233C6.40009 11.7022 8.68789 11.039 9.55566 9.27641C9.71022 8.98599 9.86953 8.72466 9.86634 8.02762C9.86337 7.38564 9.71838 7.1281 9.60189 6.85971C9.26376 6.12573 8.46069 5.3953 7.63737 5.07291C6.48579 4.62192 5.05017 4.83769 4.09929 5.60455C3.94065 5.73254 3.76769 5.83724 3.71501 5.83724C3.59941 5.83724 3.38601 5.6349 3.38601 5.5253C3.38601 5.37883 3.88263 4.97711 4.39617 4.70829C5.17512 4.30041 5.68339 4.17442 6.53951 4.17716C7.16776 4.17917 7.37871 4.21345 7.91547 4.40065C9.45163 4.93653 10.5143 6.09597 10.7449 7.48811C11.0279 9.19568 9.85988 10.9832 8.04005 11.6277C7.44215 11.8394 6.01224 11.8977 5.37375 11.7366Z" fill="#FFAD14"/>
</g>
<defs>
<clipPath id="clip0_2179_3593">
<rect width="16" height="16" fill="white"/>
</clipPath>
</defs>
</svg>
