<svg width="16" height="16" viewBox="0 0 16 16" fill="none" xmlns="http://www.w3.org/2000/svg">
<g clip-path="url(#clip0_2283_3287)">
<path fill-rule="evenodd" clip-rule="evenodd" d="M7.69591 0.66995C7.87126 0.889485 7.9092 1.18862 7.79421 1.44498C7.44475 2.22404 7.25 3.08827 7.25 4C7.25 7.45178 10.0482 10.25 13.5 10.25C13.9259 10.25 14.3412 10.2075 14.742 10.1268C15.0174 10.0713 15.3008 10.1744 15.4761 10.3939C15.6515 10.6134 15.6894 10.9126 15.5744 11.1689C14.3638 13.8678 11.6525 15.75 8.5 15.75C4.21979 15.75 0.75 12.2802 0.75 8C0.75 4.24588 3.41851 1.11669 6.96177 0.402797C7.23721 0.347303 7.52056 0.450414 7.69591 0.66995ZM5.93778 2.2974C3.76365 3.27581 2.25 5.46173 2.25 8C2.25 11.4518 5.04822 14.25 8.5 14.25C10.544 14.25 12.3598 13.2688 13.5006 11.75C13.5004 11.75 13.5002 11.75 13.5 11.75C9.21979 11.75 5.75 8.28021 5.75 4C5.75 3.41553 5.81483 2.84565 5.93778 2.2974Z" fill="#FF00FF"/>
</g>
<defs>
<clipPath id="clip0_2283_3287">
<rect width="16" height="16" fill="white"/>
</clipPath>
</defs>
</svg>
