<svg width="16" height="16" viewBox="0 0 16 16" fill="none" xmlns="http://www.w3.org/2000/svg">
<g clip-path="url(#clip0_2376_2741)">
<path fill-rule="evenodd" clip-rule="evenodd" d="M7.46967 0.46967C7.76256 0.176777 8.23744 0.176777 8.53033 0.46967L11.0303 2.96967C11.3232 3.26256 11.3232 3.73744 11.0303 4.03033C10.7374 4.32322 10.2626 4.32322 9.96967 4.03033L8.75 2.81066V5.5V7.25H10.5H13.1893L11.9697 6.03033C11.6768 5.73744 11.6768 5.26256 11.9697 4.96967C12.2626 4.67678 12.7374 4.67678 13.0303 4.96967L15.5303 7.46967C15.8232 7.76256 15.8232 8.23744 15.5303 8.53033L13.0303 11.0303C12.7374 11.3232 12.2626 11.3232 11.9697 11.0303C11.6768 10.7374 11.6768 10.2626 11.9697 9.96967L13.1893 8.75H10.5H8.75V10.5V13.1893L9.96967 11.9697C10.2626 11.6768 10.7374 11.6768 11.0303 11.9697C11.3232 12.2626 11.3232 12.7374 11.0303 13.0303L8.53033 15.5303C8.23744 15.8232 7.76256 15.8232 7.46967 15.5303L4.96967 13.0303C4.67678 12.7374 4.67678 12.2626 4.96967 11.9697C5.26256 11.6768 5.73744 11.6768 6.03033 11.9697L7.25 13.1893V10.5V8.75H5.5H2.81066L4.03033 9.96967C4.32322 10.2626 4.32322 10.7374 4.03033 11.0303C3.73744 11.3232 3.26256 11.3232 2.96967 11.0303L0.46967 8.53033C0.176777 8.23744 0.176777 7.76256 0.46967 7.46967L2.96967 4.96967C3.26256 4.67678 3.73744 4.67678 4.03033 4.96967C4.32322 5.26256 4.32322 5.73744 4.03033 6.03033L2.81066 7.25H5.5H7.25V5.5V2.81066L6.03033 4.03033C5.73744 4.32322 5.26256 4.32322 4.96967 4.03033C4.67678 3.73744 4.67678 3.26256 4.96967 2.96967L7.46967 0.46967Z" fill="#FF00FF"/>
</g>
<defs>
<clipPath id="clip0_2376_2741">
<rect width="16" height="16" fill="white"/>
</clipPath>
</defs>
</svg>
