<svg width="16" height="16" viewBox="0 0 16 16" fill="none" xmlns="http://www.w3.org/2000/svg">
<path opacity="0.4" fill-rule="evenodd" clip-rule="evenodd" d="M9 0.25C9.41421 0.25 9.75 0.585786 9.75 1C9.75 2.62723 10.7488 3.67466 11.8859 4.35688C12.4507 4.69579 13.0221 4.92512 13.4559 5.06974C13.6715 5.14161 13.8498 5.19145 13.9719 5.22285C14.0329 5.23853 14.0796 5.24954 14.1096 5.25635L14.1418 5.26345L14.1471 5.26456L14.1476 5.26466C14.5535 5.34612 14.8166 5.74108 14.7354 6.14709C14.6542 6.55326 14.2591 6.81667 13.8529 6.73544L14 6C13.8529 6.73544 13.8526 6.73538 13.8523 6.73531L13.8516 6.73517L13.8498 6.7348L13.8448 6.73379L13.8295 6.73057C13.8169 6.72789 13.7997 6.72414 13.7781 6.71924C13.7349 6.70945 13.6741 6.69507 13.5984 6.67559C13.447 6.63667 13.2347 6.57714 12.9816 6.49276C12.4779 6.32488 11.7993 6.05421 11.1141 5.64312C10.6542 5.36714 10.1784 5.01885 9.75 4.5873V7.87813C9.2656 7.70729 8.7344 7.70729 8.25 7.87813V1C8.25 0.585786 8.58579 0.25 9 0.25ZM6.84979 9.33583C6.57297 9.27943 6.28786 9.25 6 9.25C4.06278 9.25 2.25 10.5828 2.25 12.5C2.25 14.4172 4.06278 15.75 6 15.75C6.46502 15.75 6.92287 15.6732 7.35019 15.53C6.98677 15.1386 6.78839 14.6493 6.75505 14.1511C6.52497 14.2145 6.27233 14.25 6 14.25C4.62351 14.25 3.75 13.3443 3.75 12.5C3.75 11.6557 4.62351 10.75 6 10.75C6.34758 10.75 6.66308 10.8077 6.94055 10.9077C6.72159 10.4106 6.69134 9.85038 6.84979 9.33583Z" fill="#FF00FF"/>
<path fill-rule="evenodd" clip-rule="evenodd" d="M8.46967 9.46967C8.76256 9.17678 9.23744 9.17678 9.53033 9.46967L11 10.9393L12.4697 9.46967C12.7626 9.17678 13.2374 9.17678 13.5303 9.46967C13.8232 9.76256 13.8232 10.2374 13.5303 10.5303L12.0607 12L13.5303 13.4697C13.8232 13.7626 13.8232 14.2374 13.5303 14.5303C13.2374 14.8232 12.7626 14.8232 12.4697 14.5303L11 13.0607L9.53033 14.5303C9.23744 14.8232 8.76256 14.8232 8.46967 14.5303C8.17678 14.2374 8.17678 13.7626 8.46967 13.4697L9.93934 12L8.46967 10.5303C8.17678 10.2374 8.17678 9.76256 8.46967 9.46967Z" fill="#FF00FF"/>
</svg>
