<svg width="16" height="16" viewBox="0 0 16 16" fill="none" xmlns="http://www.w3.org/2000/svg">
<path fill-rule="evenodd" clip-rule="evenodd" d="M9.75 1C9.75 0.585786 9.41421 0.25 9 0.25C8.58579 0.25 8.25 0.585786 8.25 1V9.89991C7.60535 9.48512 6.81365 9.25 6 9.25C4.06278 9.25 2.25 10.5828 2.25 12.5C2.25 14.4172 4.06278 15.75 6 15.75C7.93722 15.75 9.75 14.4172 9.75 12.5V4.5873C10.1784 5.01885 10.6542 5.36714 11.1141 5.64312C11.7993 6.05421 12.4779 6.32488 12.9816 6.49276C13.2347 6.57714 13.447 6.63667 13.5984 6.67559C13.6741 6.69507 13.7349 6.70945 13.7781 6.71924C13.7997 6.72414 13.8169 6.72789 13.8295 6.73057L13.8448 6.73379L13.8498 6.7348L13.8516 6.73517L13.8523 6.73531C13.8526 6.73538 13.8529 6.73544 14 6L13.8529 6.73544C14.2591 6.81667 14.6542 6.55326 14.7354 6.14709C14.8166 5.74108 14.5535 5.34612 14.1476 5.26466L14.1471 5.26456L14.1418 5.26345L14.1096 5.25635C14.0796 5.24954 14.0329 5.23853 13.9719 5.22285C13.8498 5.19145 13.6715 5.14161 13.4559 5.06974C13.0221 4.92512 12.4507 4.69579 11.8859 4.35688C10.7488 3.67466 9.75 2.62723 9.75 1ZM8.25 12.5C8.25 11.6557 7.37649 10.75 6 10.75C4.62351 10.75 3.75 11.6557 3.75 12.5C3.75 13.3443 4.62351 14.25 6 14.25C7.37649 14.25 8.25 13.3443 8.25 12.5Z" fill="#FF00FF"/>
</svg>
