<svg width="16" height="16" viewBox="0 0 16 16" fill="none" xmlns="http://www.w3.org/2000/svg">
<g clip-path="url(#clip0_2179_3738)">
<path fill-rule="evenodd" clip-rule="evenodd" d="M7.36727 4.34272V1.05159L7.4589 0.959961H8.55842L8.65005 1.05159V4.34272L8.55842 4.43434H7.4589L7.36727 4.34272ZM3.41866 4.03565V4.18671L4.57144 5.33947H5.37008L5.47655 5.23298V4.43434L4.32379 3.28158H4.17273L3.41866 4.03565ZM4.17273 12.7154H4.32379L5.47655 11.5627V10.764L5.37008 10.6575H4.57144L3.41866 11.8103V11.9613L4.17273 12.7154ZM4.4798 8.6405H0.0916266L0 8.54887V7.44936L0.0916266 7.35773H4.4798L4.57143 7.44936V8.54887L4.4798 8.6405ZM11.5202 8.6405H15.9084L16 8.54887V7.44936L15.9084 7.35773H11.5202L11.4286 7.44936V8.54887L11.5202 8.6405ZM7.36727 11.6555V14.9466L7.4589 15.0382H8.55842L8.65005 14.9466V11.6555L8.55842 11.5639H7.4589L7.36727 11.6555ZM8.95959 10.2848H10.0566L10.1483 10.1932V7.45057C10.1483 6.49097 9.37067 5.71338 8.41107 5.71338H5.94209L5.85046 5.80501V10.1919L5.94209 10.2836H7.03913L7.13076 10.1919V6.86861L7.18277 6.81537C7.52946 6.80176 7.85387 6.79432 8.13742 6.80176C8.68842 6.81413 8.86795 7.16827 8.86795 7.62516V10.1932L8.95959 10.2848Z" fill="#FF00FF"/>
</g>
<defs>
<clipPath id="clip0_2179_3738">
<rect width="16" height="16" fill="white"/>
</clipPath>
</defs>
</svg>
