<svg width="16" height="16" viewBox="0 0 16 16" fill="none" xmlns="http://www.w3.org/2000/svg">
<g clip-path="url(#clip0_2179_3737)">
<path d="M4.32379 12.7154H4.17273L3.41866 11.9613V11.8103L4.57144 10.6575H5.37008L5.47655 10.764V11.5627L4.32379 12.7154Z" fill="#05BDBA"/>
<path d="M3.41866 4.18671V4.03565L4.17273 3.28158H4.32379L5.47655 4.43434V5.23298L5.37008 5.33947H4.57144L3.41866 4.18671Z" fill="#05BDBA"/>
<path d="M4.4798 8.6405H0.0916266L0 8.54887V7.44936L0.0916266 7.35773H4.4798L4.57143 7.44936V8.54887L4.4798 8.6405Z" fill="#05BDBA"/>
<path d="M15.9084 8.6405H11.5202L11.4286 8.54887V7.44936L11.5202 7.35773H15.9084L16 7.44936V8.54887L15.9084 8.6405Z" fill="#05BDBA"/>
<path d="M7.36727 4.34272V1.05159L7.4589 0.959961H8.55842L8.65005 1.05159V4.34272L8.55842 4.43434H7.4589L7.36727 4.34272Z" fill="#05BDBA"/>
<path d="M7.36727 14.9466V11.6555L7.4589 11.5639H8.55842L8.65005 11.6555V14.9466L8.55842 15.0382H7.4589L7.36727 14.9466Z" fill="#05BDBA"/>
<path d="M10.0567 10.2848H8.95971L8.86808 10.1932V7.62516C8.86808 7.16827 8.68854 6.81413 8.13755 6.80176C7.85399 6.79432 7.52958 6.80176 7.1829 6.81537L7.13089 6.86861V10.1919L7.03926 10.2836H5.94222L5.85059 10.1919V5.80501L5.94222 5.71338H8.41119C9.37079 5.71338 10.1484 6.49097 10.1484 7.45057V10.1932L10.0567 10.2848Z" fill="#014847"/>
</g>
<defs>
<clipPath id="clip0_2179_3737">
<rect width="16" height="16" fill="white"/>
</clipPath>
</defs>
</svg>
