<svg width="16" height="16" viewBox="0 0 16 16" fill="none" xmlns="http://www.w3.org/2000/svg">
<g clip-path="url(#clip0_2179_3729)">
<path d="M3.97101 1.00657C2.57173 1.25675 1.44591 2.29239 1.09101 3.65384C0.963005 4.14548 0.954278 4.43348 0.968824 8.2473C0.977551 11.7498 0.98046 11.8313 1.03864 12.1018C1.36155 13.5593 2.39719 14.5978 3.86919 14.9411C4.06119 14.9848 4.30555 14.9935 5.87937 15.0022C7.50846 15.0138 7.67719 15.0109 7.72082 14.9673C7.76446 14.9237 7.76737 14.3622 7.76737 7.99712C7.76737 3.27857 7.75864 1.05603 7.73828 1.0153C7.70919 0.962934 7.65973 0.960026 5.95501 0.962934C4.57028 0.965844 4.15428 0.974571 3.97101 1.00657ZM6.60373 7.98839V13.8822L5.41973 13.8677C4.32882 13.856 4.21246 13.8502 3.99428 13.7949C3.05755 13.5535 2.36228 12.832 2.16737 11.8924C2.10337 11.5986 2.10337 4.36075 2.16446 4.07275C2.33901 3.2553 2.90628 2.57748 3.67137 2.27203C4.05537 2.11784 4.23282 2.10039 5.47791 2.09748L6.60373 2.09457V7.98839Z" fill="#E60012"/>
<path d="M4.22102 3.87197C4.03774 3.90688 3.75847 4.04652 3.61011 4.17743C3.30465 4.44215 3.15338 4.81743 3.17665 5.25961C3.18829 5.48943 3.20283 5.55052 3.29592 5.7367C3.43265 6.01888 3.6392 6.22543 3.92138 6.36506C4.11629 6.46106 4.16574 6.4727 4.41883 6.48143C4.64865 6.49015 4.73011 6.48143 4.88429 6.42906C5.51556 6.2167 5.89666 5.60288 5.78902 4.97452C5.66393 4.22688 4.95411 3.72652 4.22102 3.87197Z" fill="#E60012"/>
<path d="M9.18394 0.980313C9.1723 0.989041 9.16357 4.1425 9.16357 7.98831C9.16357 14.333 9.16648 14.9759 9.21012 14.9934C9.28867 15.0225 11.5461 15.0109 11.8254 14.9818C13.0065 14.8479 14.048 14.1294 14.6152 13.0618C14.688 12.925 14.784 12.6952 14.8334 12.5527C15.0167 12.0058 15.0109 12.1512 15.0109 7.97086C15.0109 4.63413 15.0051 4.13668 14.9643 3.92431C14.6763 2.40868 13.5214 1.2654 12.0029 1.00359C11.7992 0.968678 11.485 0.95995 10.4727 0.95995C9.77449 0.95995 9.19267 0.968678 9.18394 0.980313ZM12.2909 7.31631C12.7447 7.43559 13.117 7.78177 13.2683 8.22395C13.3643 8.4974 13.3614 8.89886 13.2654 9.14904C13.088 9.60868 12.7389 9.93159 12.2909 10.0509C11.5636 10.2399 10.7898 9.80068 10.5774 9.07922C10.5134 8.85813 10.5163 8.48577 10.589 8.25886C10.8072 7.54613 11.5636 7.12722 12.2909 7.31631Z" fill="#E60012"/>
</g>
<defs>
<clipPath id="clip0_2179_3729">
<rect width="16" height="16" fill="white"/>
</clipPath>
</defs>
</svg>
