<svg width="16" height="16" viewBox="0 0 16 16" fill="none" xmlns="http://www.w3.org/2000/svg">
<g clip-path="url(#clip0_2179_3740)">
<path fill-rule="evenodd" clip-rule="evenodd" d="M6.25032 11.197C5.91932 11.1962 5.6021 11.0644 5.36805 10.8303C5.134 10.5963 5.00216 10.279 5.00136 9.94805V1.24945C5.00203 0.918367 5.13381 0.601024 5.36787 0.366864C5.60194 0.132703 5.91923 0.000793947 6.25032 0C6.58132 0.000793448 6.89853 0.132634 7.13258 0.366686C7.36664 0.600738 7.49848 0.917953 7.49927 1.24895V9.94805C7.4994 10.1121 7.46719 10.2746 7.40447 10.4262C7.34175 10.5777 7.24976 10.7155 7.13375 10.8315C7.01775 10.9475 6.88002 11.0395 6.72843 11.1022C6.57684 11.1649 6.41437 11.1971 6.25032 11.197ZM2.29571 8.60333C2.48343 8.79115 2.73806 8.89673 3.0036 8.89686L3.0041 8.89736C3.55396 8.89736 3.99966 8.44566 4.00567 7.8958V4.89711C4.00567 4.63148 3.90015 4.37673 3.71232 4.1889C3.52449 4.00107 3.26973 3.89555 3.0041 3.89555C2.73847 3.89555 2.48372 4.00107 2.29589 4.1889C2.10806 4.37673 2.00254 4.63148 2.00254 4.89711V7.8953C2.00254 8.16084 2.10799 8.41552 2.29571 8.60333ZM0.17601 8.61665C0.288444 8.72909 0.440854 8.79238 0.599856 8.79266C0.930181 8.79244 1.19937 8.52811 1.19937 8.19273V7.38947C1.19911 7.23044 1.13582 7.078 1.02336 6.96554C0.910912 6.85309 0.758469 6.7898 0.599437 6.78953C0.440492 6.78993 0.288178 6.85328 0.175833 6.96572C0.0634883 7.07816 0.000264413 7.23053 0 7.38947V8.19273C0.000264833 8.35176 0.0635574 8.5042 0.17601 8.61665ZM8.86728 15.2265C9.10123 15.4605 9.41832 15.5924 9.74923 15.5933H9.74973C9.91382 15.5935 10.0763 15.5612 10.228 15.4985C10.3796 15.4357 10.5173 15.3437 10.6333 15.2276C10.7494 15.1116 10.8413 14.9738 10.904 14.8221C10.9667 14.6705 10.9989 14.508 10.9987 14.3439V5.64528C10.9979 5.31428 10.866 4.99707 10.632 4.76301C10.3979 4.52896 10.0807 4.39712 9.74973 4.39633C9.41873 4.39712 9.10151 4.52896 8.86746 4.76301C8.63341 4.99707 8.50157 5.31428 8.50078 5.64528V14.3444C8.50157 14.6753 8.63334 14.9924 8.86728 15.2265ZM13.0014 11.6924C12.7357 11.6924 12.481 11.5868 12.2932 11.399C12.1053 11.2112 11.9998 10.9564 11.9998 10.6908V7.69211C11.9998 7.42648 12.1053 7.17173 12.2932 6.9839C12.481 6.79607 12.7357 6.69055 13.0014 6.69055C13.267 6.69055 13.5217 6.79607 13.7096 6.9839C13.8974 7.17173 14.0029 7.42648 14.0029 7.69211V10.6908C13.9974 11.2467 13.5517 11.6924 13.0014 11.6924ZM14.9767 8.61665C15.0891 8.72911 15.2416 8.7924 15.4006 8.79266C15.7306 8.79266 16 8.52825 16 8.19273V7.38947C15.9998 7.23053 15.9365 7.07816 15.8242 6.96572C15.7119 6.85328 15.5595 6.78993 15.4006 6.78953C15.2416 6.7898 15.0891 6.85309 14.9767 6.96554C14.8642 7.078 14.8009 7.23044 14.8007 7.38947V8.19273C14.8009 8.35176 14.8642 8.5042 14.9767 8.61665Z" fill="#FF00FF"/>
</g>
<defs>
<clipPath id="clip0_2179_3740">
<rect width="16" height="16" fill="white"/>
</clipPath>
</defs>
</svg>
