<svg width="16" height="16" viewBox="0 0 16 16" fill="none" xmlns="http://www.w3.org/2000/svg">
<g clip-path="url(#clip0_2179_3645)">
<path fill-rule="evenodd" clip-rule="evenodd" d="M0.275879 8.00002C0.275879 12.2661 3.73409 15.7242 8.00002 15.7242C12.2659 15.7242 15.7242 12.2661 15.7242 8.00002C15.7242 3.73409 12.2659 0.275879 8.00002 0.275879C3.73409 0.275879 0.275879 3.73409 0.275879 8.00002Z" fill="white"/>
<path fill-rule="evenodd" clip-rule="evenodd" d="M8.00012 1.93103C11.3519 1.93103 14.0691 4.64823 14.0691 8C14.0691 11.3519 11.3519 14.069 8.00012 14.069C4.64835 14.069 1.93115 11.3519 1.93115 8C1.93115 4.64823 4.64835 1.93103 8.00012 1.93103Z" fill="#1A8CFF"/>
<path opacity="0.5" d="M0 8C0 12.4184 3.58172 16 8 16C12.4183 16 16 12.4184 16 8C16 3.58172 12.4183 0 8 0C3.58172 0 0 3.58172 0 8ZM0.275862 8C0.275862 3.73454 3.7336 0.275862 8 0.275862C12.2664 0.275862 15.7241 3.73454 15.7241 8C15.7241 12.2655 12.2664 15.7241 8 15.7241C3.73355 15.7241 0.275862 12.2655 0.275862 8Z" fill="black"/>
<path fill-rule="evenodd" clip-rule="evenodd" d="M15.7133 7.58615C15.7205 7.72317 15.7242 7.86113 15.7242 7.99995C15.7242 12.2659 12.2659 15.7241 8.00002 15.7241C3.73409 15.7241 0.275879 12.2659 0.275879 7.99995C0.275879 7.86113 0.279541 7.72317 0.286774 7.58615C0.501783 11.6597 3.8729 14.8965 8.00002 14.8965C12.0953 14.8965 15.4462 11.7094 15.7077 7.68022L15.7133 7.58615ZM8.00002 1.10339C11.7327 1.10339 14.7586 4.12933 14.7586 7.86201C14.7586 9.94881 13.8129 11.8147 12.3266 13.0545C13.5684 11.8963 14.3448 10.2457 14.3448 8.41374C14.3448 4.90959 11.5042 2.06891 8.00002 2.06891C4.49587 2.06891 1.65519 4.90959 1.65519 8.41374C1.65519 10.2457 2.4316 11.8963 3.67332 13.0545C2.18715 11.8147 1.2414 9.94881 1.2414 7.86201C1.2414 4.12933 4.26733 1.10339 8.00002 1.10339Z" fill="black" fill-opacity="0.0524476"/>
<path opacity="0.256138" d="M8.00012 1.93103C11.3523 1.93103 14.0691 4.64867 14.0691 8C14.0691 11.3514 11.3524 14.069 8.00012 14.069C4.68138 14.069 1.98555 11.4055 1.93197 8.10035L1.93115 8C1.93115 4.64867 4.6479 1.93103 8.00012 1.93103ZM8.00012 2.20689C4.8007 2.20689 2.20701 4.80058 2.20701 8C2.20701 11.1995 4.8007 13.7931 8.00012 13.7931C11.1995 13.7931 13.7932 11.1995 13.7932 8C13.7932 4.80058 11.1995 2.20689 8.00012 2.20689Z" fill="black"/>
<path d="M8.03069 3.17249C5.33378 3.17249 3.17236 5.3339 3.17236 8.03081C3.17236 10.6763 5.3438 12.8277 8.03069 12.8277C10.6662 12.8277 12.8275 10.6663 12.8275 8.03081C12.8275 5.34396 10.6761 3.17249 8.03069 3.17249ZM8.0305 3.44835C10.5138 3.44835 12.5517 5.48626 12.5517 8.03062C12.5517 10.514 10.5138 12.5518 8.0305 12.5518C5.48613 12.5518 3.44823 10.514 3.44823 8.03062C3.44823 5.48626 5.48613 3.44835 8.0305 3.44835Z" fill="black" fill-opacity="0.25"/>
<path fill-rule="evenodd" clip-rule="evenodd" d="M8.03052 3.44824C10.5138 3.44824 12.5517 5.48615 12.5517 8.03052C12.5517 10.5139 10.5138 12.5517 8.03052 12.5517C5.48615 12.5517 3.44824 10.5139 3.44824 8.03052C3.44824 5.48615 5.48615 3.44824 8.03052 3.44824Z" fill="#F7F7F7"/>
<path fill-rule="evenodd" clip-rule="evenodd" d="M10.0691 8C10.0691 9.14264 9.14278 10.069 8.00012 10.069C6.85746 10.069 5.93115 9.14264 5.93115 8C5.93115 6.85735 6.85746 5.93103 8.00012 5.93103C9.14278 5.93103 10.0691 6.85735 10.0691 8Z" fill="black" fill-opacity="0.05"/>
<path d="M8.0001 5.65515C6.70509 5.65515 5.65527 6.70498 5.65527 7.99998C5.65527 9.29498 6.70509 10.3448 8.0001 10.3448C9.29511 10.3448 10.3449 9.29498 10.3449 7.99998C10.3449 6.70498 9.29511 5.65515 8.0001 5.65515ZM8.0001 5.93101C9.14276 5.93101 10.0691 6.85733 10.0691 7.99998C10.0691 9.14262 9.14276 10.0689 8.0001 10.0689C6.85744 10.0689 5.93114 9.14262 5.93114 7.99998C5.93114 6.85733 6.85744 5.93101 8.0001 5.93101Z" fill="white"/>
<path d="M8.00012 5.93103C9.14278 5.93103 10.0691 6.85735 10.0691 8C10.0691 9.14264 9.14278 10.069 8.00012 10.069C6.85746 10.069 5.93115 9.14264 5.93115 8C5.93115 6.85735 6.85746 5.93103 8.00012 5.93103ZM8.00012 6.20689C7.00982 6.20689 6.20701 7.0097 6.20701 8C6.20701 8.99029 7.00982 9.7931 8.00012 9.7931C8.99042 9.7931 9.79322 8.99029 9.79322 8C9.79322 7.0097 8.99042 6.20689 8.00012 6.20689Z" fill="black" fill-opacity="0.15"/>
<path d="M8.76914 4.41394H7.2307C6.88972 4.41394 6.62061 4.7125 6.62061 5.07218V6.56071C6.62061 6.6961 6.66944 6.8269 6.75795 6.92509L6.98408 7.17597C6.98935 7.18182 6.98935 7.19824 6.98408 7.20409L6.75795 7.45497C6.66944 7.55316 6.62061 7.68396 6.62061 7.81935V10.9281C6.62061 11.2878 6.88972 11.5864 7.2307 11.5864H8.76914C9.11011 11.5864 9.37923 11.2878 9.37923 10.9281V9.43958C9.37923 9.3042 9.33039 9.17339 9.24188 9.0752L9.01575 8.82433C9.01048 8.81848 9.01048 8.80205 9.01575 8.7962L9.24188 8.54532C9.33039 8.44714 9.37923 8.31633 9.37923 8.18095V5.07218C9.37923 4.7125 9.11011 4.41394 8.76914 4.41394ZM8.7516 4.69501C8.94587 4.69501 9.10336 4.87346 9.10336 5.0936V8.17968C9.10336 8.25016 9.07866 8.31775 9.03468 8.36758L8.81483 8.6167C8.72324 8.72048 8.72324 8.88873 8.81483 8.9925L9.03468 9.24162C9.07866 9.29146 9.10336 9.35905 9.10336 9.42952V10.9067C9.10336 11.1268 8.94587 11.3053 8.7516 11.3053H7.24823C7.05396 11.3053 6.89647 11.1268 6.89647 10.9067V7.82061C6.89647 7.75014 6.92117 7.68255 6.96515 7.63271L7.18501 7.38359C7.27659 7.27982 7.27659 7.11157 7.18501 7.00779L6.96515 6.75867C6.92117 6.70884 6.89647 6.64125 6.89647 6.57077V5.0936C6.89647 4.87346 7.05396 4.69501 7.24823 4.69501H8.7516Z" fill="white"/>
<path fill-rule="evenodd" clip-rule="evenodd" d="M6.89648 6.56854V5.08904C6.89648 4.86856 7.05397 4.68982 7.24825 4.68982H8.75162C8.94589 4.68982 9.10338 4.86856 9.10338 5.08904V8.17998C9.10338 8.25057 9.07867 8.31826 9.03469 8.36818L8.81484 8.61769C8.72326 8.72163 8.72326 8.89014 8.81484 8.99408L9.03469 9.2436C9.07867 9.29351 9.10338 9.3612 9.10338 9.43179V10.9113C9.10338 11.1318 8.94589 11.3105 8.75162 11.3105H7.24825C7.05397 11.3105 6.89648 11.1318 6.89648 10.9113V7.82035C6.89648 7.74976 6.92119 7.68206 6.96517 7.63215L7.18502 7.38264C7.2766 7.2787 7.2766 7.11018 7.18502 7.00625L6.96517 6.75673C6.92119 6.70682 6.89648 6.63912 6.89648 6.56854Z" fill="#0A2D4D"/>
<path d="M8.75162 4.68982C8.94589 4.68982 9.10338 4.86856 9.10338 5.08904V8.17998C9.10338 8.25057 9.07867 8.31826 9.03469 8.36818L8.81484 8.61769C8.72326 8.72163 8.72326 8.89014 8.81484 8.99408L9.03469 9.2436C9.07867 9.29351 9.10338 9.3612 9.10338 9.43179V10.9113C9.10338 11.1318 8.94589 11.3105 8.75162 11.3105H7.24825C7.05397 11.3105 6.89648 11.1318 6.89648 10.9113V7.82035C6.89648 7.74976 6.92119 7.68206 6.96517 7.63215L7.18502 7.38264C7.2766 7.2787 7.2766 7.11018 7.18502 7.00625L6.96517 6.75673C6.92119 6.70682 6.89648 6.63912 6.89648 6.56854V5.08904C6.89648 4.86856 7.05397 4.68982 7.24825 4.68982H8.75162ZM8.71188 4.97318L7.28799 4.97133C7.23221 4.97133 7.17981 5.02363 7.17308 5.09773L7.17235 5.11393V6.58022C7.17235 6.58454 7.17325 6.58831 7.17444 6.59098L7.17637 6.5941L7.4067 6.84157C7.58678 7.03507 7.59299 7.33826 7.42533 7.53932L7.4067 7.56046L7.17637 7.80794C7.17504 7.80938 7.17369 7.81219 7.17295 7.81582L7.17235 7.82181V10.8864C7.17235 10.9635 7.22102 11.0209 7.2761 11.0282L7.28799 11.029L8.71188 11.0308C8.76766 11.0308 8.82005 10.9785 8.82679 10.9044L8.82752 10.8882V9.42196C8.82752 9.41764 8.82662 9.41387 8.82543 9.4112L8.82349 9.40808L8.59317 9.1606C8.41309 8.96711 8.40688 8.66392 8.57454 8.46286L8.59317 8.44172L8.82349 8.19424C8.82483 8.1928 8.82617 8.18999 8.82692 8.18636L8.82752 8.18036V5.11578C8.82752 5.03872 8.77884 4.98128 8.72376 4.97397L8.71188 4.97318Z" fill="black" fill-opacity="0.4"/>
</g>
<defs>
<clipPath id="clip0_2179_3645">
<rect width="16" height="16" fill="white"/>
</clipPath>
</defs>
</svg>
