<svg width="16" height="16" viewBox="0 0 16 16" fill="none" xmlns="http://www.w3.org/2000/svg">
<g clip-path="url(#clip0_2179_3852)">
<path fill-rule="evenodd" clip-rule="evenodd" d="M2.34315 2.34315C3.84344 0.842855 5.87827 0 8 0C10.1217 0 12.1566 0.842855 13.6569 2.34315C15.1571 3.84344 16 5.87827 16 8C16 10.1217 15.1571 12.1566 13.6569 13.6569C12.1566 15.1571 10.1217 16 8 16C5.87827 16 3.84344 15.1571 2.34315 13.6569C0.842855 12.1566 0 10.1217 0 8C0 5.87827 0.842855 3.84344 2.34315 2.34315ZM7.20001 14.24H8.80001V10.944C9.34401 11.296 10.016 11.52 10.72 11.52C12.672 11.52 14.24 9.95201 14.24 8.00001C14.24 6.04801 12.672 4.48001 10.72 4.48001C10.016 4.48001 9.34401 4.70401 8.80001 5.05601V1.76001H7.20001V5.05601C6.65601 4.70401 5.98401 4.48001 5.28001 4.48001C3.32801 4.48001 1.76001 6.04801 1.76001 8.00001C1.76001 9.95201 3.32801 11.52 5.28001 11.52C5.98401 11.52 6.65601 11.296 7.20001 10.944V14.24ZM8.80001 8.00001C8.80001 6.94401 9.66401 6.08001 10.72 6.08001C11.776 6.08001 12.64 6.94401 12.64 8.00001C12.64 9.05601 11.776 9.92001 10.72 9.92001C9.66401 9.92001 8.80001 9.05601 8.80001 8.00001ZM3.36001 8.00001C3.36001 6.94401 4.22401 6.08001 5.28001 6.08001C6.33601 6.08001 7.20001 6.94401 7.20001 8.00001C7.20001 9.05601 6.33601 9.92001 5.28001 9.92001C4.22401 9.92001 3.36001 9.05601 3.36001 8.00001Z" fill="#FF00FF"/>
</g>
<defs>
<clipPath id="clip0_2179_3852">
<rect width="16" height="16" fill="white"/>
</clipPath>
</defs>
</svg>
