<svg width="16" height="16" viewBox="0 0 16 16" fill="none" xmlns="http://www.w3.org/2000/svg">
<g clip-path="url(#clip0_2179_3613)">
<path d="M0 0.888889C0 0.39797 0.397969 0 0.888889 0H15.1111C15.602 0 16 0.397969 16 0.888889V15.1111C16 15.602 15.602 16 15.1111 16H0.888889C0.39797 16 0 15.602 0 15.1111V0.888889Z" fill="#7451EB"/>
<path fill-rule="evenodd" clip-rule="evenodd" d="M8.36559 2.1689C10.8241 2.80924 12.6376 4.99868 12.8355 7.56557C12.971 9.32279 12.3741 10.9327 11.1114 12.2159C9.89136 13.4559 8.58581 13.9951 6.79859 13.9975C5.62025 13.999 4.66392 13.7487 3.83225 13.2209C3.35436 12.9178 3.31092 12.8583 3.44336 12.6896C3.52536 12.5851 3.9837 12.0378 4.46181 11.4733L5.33114 10.4471L5.73959 10.6222C6.29281 10.8595 7.36714 10.855 7.95448 10.6132C8.54036 10.372 9.3397 9.50202 9.51592 8.9139C9.84936 7.80102 9.51236 6.59779 8.66403 5.87157C7.90336 5.22046 6.69681 5.02546 5.75681 5.40157C5.50859 5.5009 5.29047 5.56346 5.27225 5.54046C5.25403 5.51757 4.80603 4.98424 4.27692 4.35524C3.7477 3.72624 3.3147 3.18946 3.3147 3.16235C3.3147 3.01757 4.29159 2.5019 5.00092 2.27224C5.98003 1.95524 7.38003 1.91224 8.36559 2.1689Z" fill="white"/>
</g>
<defs>
<clipPath id="clip0_2179_3613">
<rect width="16" height="16" fill="white"/>
</clipPath>
</defs>
</svg>
