<svg width="16" height="16" viewBox="0 0 16 16" fill="none" xmlns="http://www.w3.org/2000/svg">
<path fill-rule="evenodd" clip-rule="evenodd" d="M1.77778 1C1.34822 1 1 1.34822 1 1.77778V14.2222C1 14.6518 1.34822 15 1.77778 15H14.2222C14.6518 15 15 14.6518 15 14.2222V1.77778C15 1.34822 14.6518 1 14.2222 1H1.77778ZM12.231 7.61987C12.0578 5.37385 10.4711 3.45808 8.31983 2.89779C7.45747 2.67321 6.23247 2.71083 5.37575 2.98821C4.75508 3.18917 3.90031 3.64037 3.90031 3.76706C3.90031 3.79078 4.27918 4.26046 4.74225 4.81083C5.20522 5.36121 5.59722 5.82787 5.61317 5.8479C5.62911 5.86803 5.81996 5.81329 6.03715 5.72637C6.85965 5.39728 7.91539 5.5679 8.58097 6.13762C9.32327 6.77307 9.61814 7.82589 9.32638 8.79967C9.17218 9.31426 8.47277 10.0755 7.96011 10.2866C7.4462 10.4981 6.50615 10.502 6.02208 10.2945L5.6647 10.1412L4.90403 11.0392C4.48568 11.5331 4.08464 12.012 4.01289 12.1034C3.897 12.2511 3.93502 12.3031 4.35317 12.5683C5.08088 13.0301 5.91767 13.2491 6.94871 13.2478C8.51253 13.2457 9.65489 12.7739 10.7224 11.6889C11.8273 10.5661 12.3496 9.15744 12.231 7.61987Z" fill="#FF00FF"/>
</svg>
