<svg width="16" height="16" viewBox="0 0 16 16" fill="none" xmlns="http://www.w3.org/2000/svg">
<path d="M1 1.77778C1 1.34822 1.34822 1 1.77778 1H14.2222C14.6518 1 15 1.34822 15 1.77778V14.2222C15 14.6518 14.6518 15 14.2222 15H1.77778C1.34822 15 1 14.6518 1 14.2222V1.77778Z" fill="#7451EB"/>
<path fill-rule="evenodd" clip-rule="evenodd" d="M8.31992 2.89779C10.4712 3.45808 12.0579 5.37385 12.2311 7.61987C12.3497 9.15744 11.8274 10.5661 10.7225 11.6889C9.65497 12.7739 8.51261 13.2457 6.94879 13.2478C5.91775 13.2491 5.08096 13.0301 4.35325 12.5683C3.9351 12.3031 3.89709 12.2511 4.01297 12.1034C4.08472 12.012 4.48577 11.5331 4.90411 11.0392L5.66478 10.1412L6.02217 10.2945C6.50624 10.502 7.44628 10.4981 7.9602 10.2866C8.47285 10.0755 9.17227 9.31426 9.32646 8.79967C9.61822 7.82589 9.32335 6.77307 8.58106 6.13762C7.91547 5.5679 6.85974 5.39728 6.03724 5.72637C5.82004 5.81329 5.6292 5.86803 5.61325 5.8479C5.59731 5.82787 5.20531 5.36121 4.74234 4.81083C4.27927 4.26046 3.90039 3.79078 3.90039 3.76706C3.90039 3.64037 4.75517 3.18917 5.37583 2.98821C6.23256 2.71083 7.45756 2.67321 8.31992 2.89779Z" fill="white"/>
</svg>
