<svg width="16" height="16" viewBox="0 0 16 16" fill="none" xmlns="http://www.w3.org/2000/svg">
<path fill-rule="evenodd" clip-rule="evenodd" d="M1.61563 1.61508C1.85005 1.38066 2.16799 1.24896 2.49951 1.24896H8.49951C8.83103 1.24896 9.14897 1.38066 9.3834 1.61508C9.61782 1.8495 9.74951 2.16744 9.74951 2.49896V5.24896H13.4995C13.831 5.24896 14.149 5.38066 14.3834 5.61508C14.6178 5.8495 14.7495 6.16744 14.7495 6.49896V13.999V14.749H13.2495V13.999V6.74896H9.74951V13.999V14.749H8.24951V13.999V6.74896V5.24896V2.74896H2.74951V13.999V14.749H1.24951V13.999V2.49896C1.24951 2.16744 1.38121 1.8495 1.61563 1.61508ZM3.99951 5.24896H5.99951V3.74896H3.99951V5.24896ZM4.99951 10.249V8.74896H6.99951V10.249H4.99951ZM3.99951 11.249V12.749H5.99951V11.249H3.99951ZM11.9995 11.749H10.9995V10.249H11.9995V11.749ZM10.9995 9.24896H11.9995V7.74896H10.9995V9.24896Z" fill="#FF00FF"/>
</svg>
