<svg width="16" height="16" viewBox="0 0 16 16" fill="none" xmlns="http://www.w3.org/2000/svg">
<path fill-rule="evenodd" clip-rule="evenodd" d="M1.61563 1.61506C1.85005 1.38064 2.16799 1.24895 2.49951 1.24895H8.49951C8.83103 1.24895 9.14897 1.38064 9.3834 1.61506C9.61782 1.84949 9.74951 2.16743 9.74951 2.49895V5.24895H13.4995C13.831 5.24895 14.149 5.38064 14.3834 5.61506C14.6178 5.84948 14.7495 6.16743 14.7495 6.49895V13.9989V14.7489H13.2495V13.9989V6.74895H9.74951V13.9989V14.7489H8.24951V13.9989V6.74895V5.24895V2.74895H2.74951V13.9989V14.7489H1.24951V13.9989V2.49895C1.24951 2.16743 1.38121 1.84948 1.61563 1.61506ZM3.99951 5.24895H5.99951V3.74895H3.99951V5.24895ZM4.99951 10.2489V8.74895H6.99951V10.2489H4.99951ZM3.99951 11.2489V12.7489H5.99951V11.2489H3.99951ZM11.9995 11.7489H10.9995V10.2489H11.9995V11.7489ZM10.9995 9.24895H11.9995V7.74895H10.9995V9.24895Z" fill="#FF00FF"/>
</svg>
