<svg width="16" height="16" viewBox="0 0 16 16" fill="none" xmlns="http://www.w3.org/2000/svg">
<path fill-rule="evenodd" clip-rule="evenodd" d="M2.75 3.5C2.75 3.08579 3.08579 2.75 3.5 2.75H7.5C7.91421 2.75 8.25 3.08579 8.25 3.5V6V14C8.25 14.4142 8.58579 14.75 9 14.75C9.41421 14.75 9.75 14.4142 9.75 14V6.75H12.5C12.9142 6.75 13.25 7.08579 13.25 7.5V14C13.25 14.4142 13.5858 14.75 14 14.75C14.4142 14.75 14.75 14.4142 14.75 14V7.5C14.75 6.25736 13.7426 5.25 12.5 5.25H9.75V3.5C9.75 2.25736 8.74264 1.25 7.5 1.25H3.5C2.25736 1.25 1.25 2.25736 1.25 3.5V14C1.25 14.4142 1.58579 14.75 2 14.75C2.41421 14.75 2.75 14.4142 2.75 14V3.5ZM3.99963 4.74895C3.58542 4.74895 3.24963 5.08473 3.24963 5.49895C3.24963 5.91316 3.58542 6.24895 3.99963 6.24895H5.99963C6.41385 6.24895 6.74963 5.91316 6.74963 5.49895C6.74963 5.08473 6.41385 4.74895 5.99963 4.74895H3.99963ZM4.24963 9.49895C4.24963 9.08473 4.58542 8.74895 4.99963 8.74895H6.99963C7.41385 8.74895 7.74963 9.08473 7.74963 9.49895C7.74963 9.91316 7.41385 10.2489 6.99963 10.2489H4.99963C4.58542 10.2489 4.24963 9.91316 4.24963 9.49895ZM3.99963 11.2489C3.58542 11.2489 3.24963 11.5847 3.24963 11.9989C3.24963 12.4132 3.58542 12.7489 3.99963 12.7489H5.99963C6.41385 12.7489 6.74963 12.4132 6.74963 11.9989C6.74963 11.5847 6.41385 11.2489 5.99963 11.2489H3.99963ZM10.2496 10.9989C10.2496 10.5847 10.5854 10.2489 10.9996 10.2489H11.9996C12.4138 10.2489 12.7496 10.5847 12.7496 10.9989C12.7496 11.4132 12.4138 11.7489 11.9996 11.7489H10.9996C10.5854 11.7489 10.2496 11.4132 10.2496 10.9989ZM10.9996 7.74895C10.5854 7.74895 10.2496 8.08473 10.2496 8.49895C10.2496 8.91316 10.5854 9.24895 10.9996 9.24895H11.9996C12.4138 9.24895 12.7496 8.91316 12.7496 8.49895C12.7496 8.08473 12.4138 7.74895 11.9996 7.74895H10.9996Z" fill="#FF00FF"/>
</svg>
