<svg width="16" height="16" viewBox="0 0 16 16" fill="none" xmlns="http://www.w3.org/2000/svg">
<path d="M1.93083 7.7412V5.10937H3.43123C3.6526 5.10937 3.86577 5.12576 4.07074 5.15856C4.27571 5.19136 4.45609 5.25695 4.61186 5.35533C4.76764 5.44552 4.89063 5.5767 4.98081 5.74888C5.0792 5.92105 5.12839 6.14652 5.12839 6.42529C5.12839 6.70405 5.0792 6.92952 4.98081 7.10169C4.89063 7.27387 4.76764 7.40915 4.61186 7.50754C4.45609 7.59772 4.27571 7.65922 4.07074 7.69201C3.86577 7.72481 3.6526 7.7412 3.43123 7.7412H1.93083ZM0 3.60897V12.39H1.93083V9.2416H3.96006C4.50938 9.2416 4.97671 9.16371 5.36206 9.00793C5.74741 8.84395 6.05897 8.63078 6.29673 8.36842C6.5427 8.10605 6.71898 7.8068 6.82556 7.47064C6.94034 7.12629 6.99774 6.77784 6.99774 6.42529C6.99774 6.06453 6.94034 5.71608 6.82556 5.37993C6.71898 5.04378 6.5427 4.74452 6.29673 4.48215C6.05897 4.21979 5.74741 4.01072 5.36206 3.85494C4.97671 3.69096 4.50938 3.60897 3.96006 3.60897H0Z" fill="#FF00FF"/>
<path d="M14.0569 6.56057H15.9262C15.8688 6.05224 15.7294 5.6013 15.5081 5.20775C15.2867 4.81421 15.0038 4.48625 14.6595 4.22389C14.3233 3.95333 13.938 3.74835 13.5034 3.60897C13.0771 3.46959 12.6221 3.3999 12.1383 3.3999C11.466 3.3999 10.8593 3.51879 10.3182 3.75655C9.78526 3.99432 9.33432 4.32228 8.96537 4.74042C8.59642 5.15856 8.31356 5.65049 8.11679 6.21621C7.92001 6.77374 7.82163 7.38045 7.82163 8.03636C7.82163 8.67588 7.92001 9.27439 8.11679 9.83192C8.31356 10.3812 8.59642 10.8609 8.96537 11.2708C9.33432 11.6808 9.78526 12.0046 10.3182 12.2424C10.8593 12.472 11.466 12.5867 12.1383 12.5867C12.6795 12.5867 13.1755 12.5047 13.6264 12.3408C14.0774 12.1768 14.4709 11.939 14.8071 11.6275C15.1432 11.3159 15.4138 10.9388 15.6188 10.496C15.8237 10.0533 15.9508 9.55725 16 9.00793H14.1307C14.0569 9.59825 13.8519 10.0738 13.5157 10.4345C13.1878 10.7953 12.7287 10.9757 12.1383 10.9757C11.7038 10.9757 11.3348 10.8937 11.0315 10.7297C10.7281 10.5575 10.4822 10.332 10.2936 10.0533C10.105 9.77452 9.96563 9.46297 9.87544 9.11861C9.79345 8.76606 9.75246 8.40531 9.75246 8.03636C9.75246 7.65102 9.79345 7.27797 9.87544 6.91722C9.96563 6.55647 10.105 6.23671 10.2936 5.95795C10.4822 5.67099 10.7281 5.44552 11.0315 5.28154C11.3348 5.10937 11.7038 5.02328 12.1383 5.02328C12.3761 5.02328 12.6016 5.06427 12.8147 5.14626C13.0361 5.22005 13.2329 5.32664 13.4051 5.46602C13.5772 5.6054 13.7207 5.76938 13.8355 5.95795C13.9503 6.13832 14.0241 6.3392 14.0569 6.56057Z" fill="#FF00FF"/>
</svg>
