<svg width="16" height="16" viewBox="0 0 16 16" fill="none" xmlns="http://www.w3.org/2000/svg">
<path d="M4.94304 7.46758H3.45007V11.2H4.18835V9.94765H4.93757C5.74421 9.94765 6.20359 9.41445 6.20359 8.71172C6.20359 8.01445 5.74968 7.46758 4.94304 7.46758ZM5.45164 8.71172C5.45164 9.12734 5.20828 9.36797 4.80085 9.36797H4.18562V8.05547H4.80085C5.20828 8.05547 5.45164 8.29336 5.45164 8.71172Z" fill="#FF00FF"/>
<path d="M6.75604 7.46758V11.2H8.11776C9.24432 11.2 9.78846 10.5109 9.78846 9.32422C9.78846 8.1457 9.25253 7.46758 8.11776 7.46758H6.75604ZM7.49432 8.06914H8.01932C8.71112 8.06914 9.02831 8.4957 9.02831 9.33789C9.02831 10.1801 8.71385 10.5957 8.01932 10.5957H7.49432V8.06914Z" fill="#FF00FF"/>
<path d="M11.1558 11.2V9.71523H12.6542V9.11914H11.1558V8.07734H12.7964V7.46758H10.4175V11.2H11.1558Z" fill="#FF00FF"/>
<path fill-rule="evenodd" clip-rule="evenodd" d="M9.73736 0C10.1617 0 10.5687 0.168571 10.8687 0.468629L13.9315 3.53137C14.2315 3.83143 14.4001 4.2384 14.4001 4.66274V14.4C14.4001 15.2837 13.6838 16 12.8001 16H3.2001C2.31644 16 1.6001 15.2837 1.6001 14.4V1.6C1.6001 0.716344 2.31644 0 3.2001 0H9.73736ZM13.6001 4.8H11.2001C10.3164 4.8 9.6001 4.08366 9.6001 3.2V0.8H3.2001C2.75827 0.8 2.4001 1.15817 2.4001 1.6V14.4C2.4001 14.8418 2.75827 15.2 3.2001 15.2H12.8001C13.2419 15.2 13.6001 14.8418 13.6001 14.4V4.8Z" fill="#FF00FF"/>
</svg>
