<svg width="16" height="16" viewBox="0 0 16 16" fill="none" xmlns="http://www.w3.org/2000/svg">
<path fill-rule="evenodd" clip-rule="evenodd" d="M3.25 4.5C3.25 3.80964 3.80964 3.25 4.5 3.25C5.19036 3.25 5.75 3.80964 5.75 4.5C5.75 5.19036 5.19036 5.75 4.5 5.75C3.80964 5.75 3.25 5.19036 3.25 4.5ZM4.5 1.75C2.98122 1.75 1.75 2.98122 1.75 4.5C1.75 6.01878 2.98122 7.25 4.5 7.25C6.01878 7.25 7.25 6.01878 7.25 4.5C7.25 2.98122 6.01878 1.75 4.5 1.75ZM13.5303 2.46967C13.8232 2.76257 13.8232 3.23744 13.5303 3.53033L3.53033 13.5303C3.23744 13.8232 2.76256 13.8232 2.46967 13.5303C2.17678 13.2374 2.17678 12.7626 2.46967 12.4697L12.4697 2.46967C12.7626 2.17678 13.2374 2.17678 13.5303 2.46967ZM11.5 10.25C10.8096 10.25 10.25 10.8096 10.25 11.5C10.25 12.1904 10.8096 12.75 11.5 12.75C12.1904 12.75 12.75 12.1904 12.75 11.5C12.75 10.8096 12.1904 10.25 11.5 10.25ZM8.75 11.5C8.75 9.98122 9.98122 8.75 11.5 8.75C13.0188 8.75 14.25 9.98122 14.25 11.5C14.25 13.0188 13.0188 14.25 11.5 14.25C9.98122 14.25 8.75 13.0188 8.75 11.5Z" fill="#FF00FF"/>
</svg>
