<svg width="16" height="16" viewBox="0 0 16 16" fill="none" xmlns="http://www.w3.org/2000/svg">
<path fill-rule="evenodd" clip-rule="evenodd" d="M11.5 5V11C11.5 11.9622 11.4986 12.5836 11.4559 13.0545C11.4151 13.5048 11.3462 13.6683 11.299 13.75C11.1674 13.978 10.978 14.1674 10.75 14.299C10.6683 14.3462 10.5048 14.4151 10.0545 14.4559C9.5836 14.4986 8.96222 14.5 8 14.5C7.03778 14.5 6.4164 14.4986 5.94549 14.4559C5.4952 14.4151 5.33173 14.3462 5.25 14.299C5.02197 14.1674 4.83261 13.978 4.70096 13.75C4.65378 13.6683 4.58493 13.5048 4.54412 13.0545C4.50144 12.5836 4.5 11.9622 4.5 11V5C4.5 4.03778 4.50144 3.4164 4.54412 2.94549C4.58493 2.4952 4.65378 2.33173 4.70096 2.25C4.83261 2.02197 5.02197 1.83261 5.25 1.70096C5.33173 1.65378 5.4952 1.58493 5.94549 1.54412C6.4164 1.50144 7.03778 1.5 8 1.5C8.96222 1.5 9.5836 1.50144 10.0545 1.54412C10.5048 1.58493 10.6683 1.65378 10.75 1.70096C10.978 1.83261 11.1674 2.02197 11.299 2.25C11.3462 2.33173 11.4151 2.4952 11.4559 2.94549C11.4986 3.4164 11.5 4.03778 11.5 5ZM3 5C3 3.13077 3 2.19615 3.40192 1.5C3.66523 1.04394 4.04394 0.665229 4.5 0.401924C5.19615 0 6.13077 0 8 0C9.86923 0 10.8038 0 11.5 0.401924C11.9561 0.665229 12.3348 1.04394 12.5981 1.5C13 2.19615 13 3.13077 13 5V11C13 12.8692 13 13.8038 12.5981 14.5C12.3348 14.9561 11.9561 15.3348 11.5 15.5981C10.8038 16 9.86923 16 8 16C6.13077 16 5.19615 16 4.5 15.5981C4.04394 15.3348 3.66523 14.9561 3.40192 14.5C3 13.8038 3 12.8692 3 11V5ZM9.5 11.5C9.5 12.3284 8.82843 13 8 13C7.17157 13 6.5 12.3284 6.5 11.5C6.5 10.6716 7.17157 10 8 10C8.82843 10 9.5 10.6716 9.5 11.5Z" fill="#FF00FF"/>
</svg>
