<svg width="16" height="16" viewBox="0 0 16 16" fill="none" xmlns="http://www.w3.org/2000/svg">
<path fill-rule="evenodd" clip-rule="evenodd" d="M1.62545 4.20372C1.23544 2.56987 2.58946 1.25 4.09425 1.25C5.56102 1.25 6.75006 2.43905 6.75006 3.90581V4.12132C6.75006 4.88284 6.44755 5.61317 5.90907 6.15165L4.90911 7.15162C4.80494 7.25578 4.69069 7.34753 4.56865 7.42593C5.573 9.05265 6.94742 10.4271 8.57414 11.4314C8.65253 11.3094 8.74428 11.1951 8.84845 11.091L9.84841 10.091C10.3869 9.55251 11.1172 9.25 11.8787 9.25H12.0942C13.561 9.25 14.7501 10.439 14.7501 11.9058C14.7501 13.4106 13.4302 14.7646 11.7963 14.3746C10.6908 14.1107 9.63714 13.7134 8.65342 13.2007C6.1524 11.8971 4.10292 9.84767 2.7994 7.34664C2.28669 6.36292 1.88934 5.30926 1.62545 4.20372ZM9.9133 12.1474C10.6233 12.472 11.3697 12.7306 12.1446 12.9156C12.6691 13.0408 13.2501 12.62 13.2501 11.9058C13.2501 11.2675 12.7326 10.75 12.0942 10.75H11.8787C11.515 10.75 11.1662 10.8945 10.9091 11.1517L9.9133 12.1474ZM3.85264 6.08676L4.84841 5.09099C5.10559 4.83382 5.25006 4.48502 5.25006 4.12132V3.90581C5.25006 3.26748 4.73259 2.75 4.09425 2.75C3.38001 2.75 2.95925 3.33092 3.08446 3.85545C3.26943 4.63036 3.52808 5.37672 3.85264 6.08676Z" fill="#FF00FF"/>
</svg>
