<svg width="16" height="16" viewBox="0 0 16 16" fill="none" xmlns="http://www.w3.org/2000/svg">
<path fill-rule="evenodd" clip-rule="evenodd" d="M9.19934 1.59892C9.81191 0.680065 11.112 0.551333 11.8929 1.33221L14.6678 4.10715C15.4487 4.88803 15.3199 6.1881 14.4011 6.80067L11.3613 8.82718C11.2918 8.87355 11.25 8.95161 11.25 9.0352V12.0858C11.25 13.6449 9.36501 14.4257 8.26256 13.3232L6 11.0607L2.53033 14.5303C2.23744 14.8232 1.76256 14.8232 1.46967 14.5303C1.17678 14.2374 1.17678 13.7626 1.46967 13.4697L4.93934 10L2.67678 7.73745C1.57434 6.63501 2.35513 4.75001 3.91421 4.75001H6.96482C7.0484 4.75001 7.12646 4.70824 7.17283 4.63869L9.19934 1.59892ZM10.8322 2.39287C10.7206 2.28132 10.5349 2.29971 10.4474 2.43097L8.4209 5.47074C8.09634 5.95758 7.54993 6.25001 6.96482 6.25001H3.91421C3.69149 6.25001 3.57995 6.5193 3.73744 6.67679L6.53033 9.46968L9.32323 12.2626C9.48071 12.4201 9.75 12.3085 9.75 12.0858V9.0352C9.75 8.45008 10.0424 7.90367 10.5293 7.57911L13.569 5.5526C13.7003 5.46509 13.7187 5.27936 13.6071 5.16781L10.8322 2.39287Z" fill="#FF00FF"/>
</svg>
