<svg width="16" height="16" viewBox="0 0 16 16" fill="none" xmlns="http://www.w3.org/2000/svg">
<path fill-rule="evenodd" clip-rule="evenodd" d="M9.19934 1.59891C9.81191 0.68005 11.112 0.551318 11.8929 1.3322L14.6678 4.10714C15.4487 4.88802 15.3199 6.18809 14.4011 6.80066L11.3613 8.82717C11.2918 8.87353 11.25 8.95159 11.25 9.03518V12.0858C11.25 13.6449 9.36501 14.4257 8.26256 13.3232L6 11.0607L2.53033 14.5303C2.23744 14.8232 1.76256 14.8232 1.46967 14.5303C1.17678 14.2374 1.17678 13.7626 1.46967 13.4697L4.93934 10L2.67678 7.73743C1.57434 6.63499 2.35513 4.75 3.91421 4.75H6.96482C7.0484 4.75 7.12646 4.70822 7.17283 4.63867L9.19934 1.59891ZM10.8322 2.39286C10.7206 2.2813 10.5349 2.29969 10.4474 2.43096L8.4209 5.47072C8.09634 5.95757 7.54993 6.25 6.96482 6.25H3.91421C3.69149 6.25 3.57995 6.51928 3.73744 6.67677L6.53033 9.46967L9.32323 12.2626C9.48071 12.42 9.75 12.3085 9.75 12.0858V9.03518C9.75 8.45006 10.0424 7.90366 10.5293 7.57909L13.569 5.55258C13.7003 5.46507 13.7187 5.27935 13.6071 5.1678L10.8322 2.39286Z" fill="#FF00FF"/>
</svg>
