<svg width="16" height="16" viewBox="0 0 16 16" fill="none" xmlns="http://www.w3.org/2000/svg">
<path fill-rule="evenodd" clip-rule="evenodd" d="M11.1768 11.6869C11.1833 11.6735 11.1884 11.6593 11.1936 11.645C11.1973 11.6347 11.201 11.6243 11.2053 11.614C11.2473 11.5214 11.2845 11.4288 11.3146 11.3314C11.3165 11.3244 11.318 11.3174 11.3195 11.3104C11.3218 11.3002 11.324 11.2902 11.3273 11.2807C11.3581 11.1731 11.3843 11.067 11.4048 10.9577V10.9411C11.5592 10.0156 11.29 8.98326 10.6741 8.05066L11.5529 6.6937C12.5655 6.82275 13.4411 6.56782 13.8622 5.91627C14.593 4.7897 13.7039 2.91419 11.8791 1.72587C10.0526 0.536751 7.98159 0.486875 7.25244 1.61186C6.82968 2.26421 6.95319 3.16911 7.48441 4.04472L6.60405 5.40167C5.5044 5.21721 4.45383 5.389 3.67243 5.90835L3.671 5.90882C3.66661 5.91026 3.66183 5.91183 3.65897 5.91468C3.56793 5.97643 3.47926 6.04452 3.39613 6.11577C3.39114 6.11989 3.38581 6.12389 3.38052 6.12787L3.38051 6.12788C3.37156 6.13461 3.36272 6.14127 3.35576 6.14823C3.27817 6.21473 3.2085 6.28915 3.14121 6.36357C3.13396 6.37227 3.12538 6.38047 3.11677 6.38871L3.11677 6.38871C3.10657 6.39846 3.09632 6.40826 3.08817 6.41899C3.00425 6.51478 2.92666 6.61612 2.85858 6.72379C1.76288 8.41246 2.69787 10.968 4.94309 12.4311C7.1899 13.8941 9.89905 13.7088 10.9924 12.0202C11.0613 11.9133 11.1246 11.8017 11.1768 11.6869ZM4.12132 12.5854L2.45482 15.1584L2.63216 16L3.47134 15.8203L5.13705 13.2489C4.95972 13.1539 4.78396 13.0525 4.61375 12.9401C4.44116 12.8285 4.27649 12.7089 4.12132 12.5854ZM9.76763 2.19138C9.48658 2.62601 9.82939 3.34645 10.5316 3.80325C11.2346 4.26006 12.0303 4.27985 12.3097 3.8468C12.5892 3.41374 12.2496 2.69172 11.5458 2.23492C10.8451 1.77812 10.0479 1.75832 9.76763 2.19138Z" fill="#FF00FF"/>
</svg>
