<svg width="16" height="16" viewBox="0 0 16 16" fill="none" xmlns="http://www.w3.org/2000/svg">
<path fill-rule="evenodd" clip-rule="evenodd" d="M8.63297 4.12798L8.62247 13.7565L6.04272 12.9174V1.6001L9.33562 2.47069C11.4434 3.03719 12.7334 4.13838 12.7124 6.06831C12.6914 8.31295 11.6532 9.21488 9.62922 8.62751V4.20126C9.62922 3.66631 8.63297 3.63499 8.63297 4.12798Z" fill="#DE0029"/>
<path fill-rule="evenodd" clip-rule="evenodd" d="M4.85752 11.0502L3.64101 11.4594C2.85438 11.7321 2.18331 11.0924 2.9069 10.83L3.49413 10.6204L1.28136 9.91748C0.59966 10.1483 -0.0400854 10.6413 0.00196424 11.3336C0.0439164 12.0362 1.64837 12.2041 2.88594 12.4034C4.03944 12.5921 5.08815 12.4873 6.04258 12.1516V11.4279L4.85752 11.0502ZM8.64332 13.7564L10.898 12.9697L8.62236 12.2461V13.7039L8.64332 13.7564Z" fill="#F3C202"/>
<path fill-rule="evenodd" clip-rule="evenodd" d="M14.642 11.6483L14.684 11.6378C15.6698 11.2917 16.0892 10.8091 15.9844 10.3582C15.8166 9.6031 14.6106 9.19395 12.7544 9.05756C11.4226 8.96323 10.1117 9.25683 8.83228 9.69731L8.62252 9.77082L10.9192 10.484L12.2615 10.033C13.6668 9.77082 14.2332 10.2323 12.8803 10.6623L12.2091 10.893L14.642 11.6483ZM6.04274 8.31299L5.02539 8.659L6.04274 8.97369V8.31299Z" fill="#326DB3"/>
<path fill-rule="evenodd" clip-rule="evenodd" d="M10.8981 12.9697L14.642 11.6483L12.209 10.8929L8.62247 12.1201V12.2461L10.8981 12.9697ZM6.04272 10.6517L4.85766 11.0502L6.04272 11.4278V10.6517ZM8.62247 11.2707V9.77075L10.9191 10.484L8.62247 11.2707ZM3.49427 10.6203L6.04269 9.70783V8.97362L5.02537 8.65894L1.33391 9.9071C1.32341 9.9071 1.30245 9.91747 1.28149 9.91747L3.49427 10.6203Z" fill="#00AA9E"/>
</svg>
