<svg width="16" height="16" viewBox="0 0 16 16" fill="none" xmlns="http://www.w3.org/2000/svg">
<path fill-rule="evenodd" clip-rule="evenodd" d="M13.75 3C13.75 2.30964 13.1904 1.75 12.5 1.75C11.8096 1.75 11.25 2.30964 11.25 3V6.84578C10.8081 6.46236 10.1496 6.03904 9.2745 5.47647L6.62227 3.77146C4.58238 2.4601 3.56244 1.80443 2.78122 2.23093C2 2.65744 2 3.86996 2 6.295V9.705C2 12.13 2 13.3426 2.78122 13.7691C3.56244 14.1956 4.58238 13.5399 6.62227 12.2285L9.2745 10.5235C10.1496 9.96097 10.8081 9.53765 11.25 9.15422V13C11.25 13.6904 11.8096 14.25 12.5 14.25C13.1904 14.25 13.75 13.6904 13.75 13V3Z" fill="#FF00FF"/>
</svg>
