<svg width="16" height="16" viewBox="0 0 16 16" fill="none" xmlns="http://www.w3.org/2000/svg">
<path fill-rule="evenodd" clip-rule="evenodd" d="M4.75 3C4.75 2.30964 4.19036 1.75 3.5 1.75C2.80964 1.75 2.25 2.30964 2.25 3V13C2.25 13.6904 2.80964 14.25 3.5 14.25C4.19036 14.25 4.75 13.6904 4.75 13V9.15422C5.19189 9.53765 5.85039 9.96097 6.7255 10.5235L9.37773 12.2285C11.4176 13.5399 12.4376 14.1956 13.2188 13.7691C14 13.3426 14 12.13 14 9.705V6.295C14 3.86996 14 2.65744 13.2188 2.23093C12.4376 1.80443 11.4176 2.4601 9.37773 3.77146L6.7255 5.47647L6.7255 5.47647C5.85039 6.03904 5.19189 6.46236 4.75 6.84578V3Z" fill="#FF00FF"/>
</svg>
