<svg width="16" height="16" viewBox="0 0 16 16" fill="none" xmlns="http://www.w3.org/2000/svg">
<path fill-rule="evenodd" clip-rule="evenodd" d="M15.8577 11.0516C15.5452 11.4459 14.7794 11.7272 14.7794 11.7272L9.08319 13.7732V12.2643L13.2752 10.7706C13.751 10.6002 13.824 10.3593 13.4373 10.2328C13.0514 10.1059 12.3525 10.1423 11.8764 10.3135L9.08319 11.2972V9.73126L9.24419 9.67675C9.24419 9.67675 10.0513 9.3911 11.1863 9.26536C12.3213 9.14034 13.711 9.28244 14.802 9.69601C16.0314 10.0845 16.1699 10.6573 15.8577 11.0516ZM9.62541 8.48219V4.62339C9.62541 4.17021 9.54183 3.753 9.11663 3.63489C8.791 3.53059 8.58894 3.83295 8.58894 4.28577V13.9491L5.98285 13.122V1.6001C7.09092 1.80579 8.70523 2.29205 9.57308 2.5846C11.7801 3.34233 12.5284 4.28541 12.5284 6.41033C12.5284 8.48146 11.2499 9.26645 9.62541 8.48219ZM1.20097 12.1066C-0.0611885 11.7512 -0.271245 11.0105 0.304049 10.5838C0.835733 10.1899 1.73992 9.89335 1.73992 9.89335L5.47661 8.56468V10.0794L2.78766 11.0418C2.31267 11.2122 2.23962 11.4535 2.62558 11.58C3.01189 11.7065 3.71111 11.6705 4.18683 11.4997L5.47661 11.0316V12.3868C5.39484 12.4013 5.30362 12.4158 5.21931 12.43C3.92917 12.6408 2.55507 12.5529 1.20097 12.1066Z" fill="#FF00FF"/>
</svg>
