<svg width="16" height="16" viewBox="0 0 16 16" fill="none" xmlns="http://www.w3.org/2000/svg">
<path opacity="0.3" d="M10.75 1.75H14.25C15.0784 1.75 15.75 2.42157 15.75 3.25V12.75C15.75 13.5784 15.0784 14.25 14.25 14.25H10.75V13.625L12 13V8V3L10.75 2.375V1.75Z" fill="#FF00FF"/>
<path fill-rule="evenodd" clip-rule="evenodd" d="M1.75 3.5C1.75 3.36193 1.86193 3.25 2 3.25H11C11.1381 3.25 11.25 3.36193 11.25 3.5V12.5C11.25 12.6381 11.1381 12.75 11 12.75H2C1.86193 12.75 1.75 12.6381 1.75 12.5V3.5ZM2 1.75C1.0335 1.75 0.25 2.5335 0.25 3.5V12.5C0.25 13.4665 1.0335 14.25 2 14.25H11C11.9665 14.25 12.75 13.4665 12.75 12.5V3.5C12.75 2.5335 11.9665 1.75 11 1.75H2ZM6.03033 4.46967C5.73744 4.17678 5.26256 4.17678 4.96967 4.46967C4.67678 4.76256 4.67678 5.23744 4.96967 5.53033L7.43934 8L4.96967 10.4697C4.67678 10.7626 4.67678 11.2374 4.96967 11.5303C5.26256 11.8232 5.73744 11.8232 6.03033 11.5303L9.03033 8.53033C9.32323 8.23744 9.32323 7.76256 9.03033 7.46967L6.03033 4.46967Z" fill="#FF00FF"/>
</svg>
