<svg width="16" height="16" viewBox="0 0 16 16" fill="none" xmlns="http://www.w3.org/2000/svg">
<g clip-path="url(#clip0_2376_2713)">
<path opacity="0.25" d="M10.75 0.75H14.25C15.0784 0.75 15.75 1.42157 15.75 2.25V13.75C15.75 14.5784 15.0784 15.25 14.25 15.25H10.75V14.625L12 14V2L10.75 1.375V0.75Z" fill="#FF00FF"/>
<path fill-rule="evenodd" clip-rule="evenodd" d="M1.75 2.5C1.75 2.36193 1.86193 2.25 2 2.25H11C11.1381 2.25 11.25 2.36193 11.25 2.5V13.5C11.25 13.6381 11.1381 13.75 11 13.75H2C1.86193 13.75 1.75 13.6381 1.75 13.5V2.5ZM2 0.75C1.0335 0.75 0.25 1.5335 0.25 2.5V13.5C0.25 14.4665 1.0335 15.25 2 15.25H11C11.9665 15.25 12.75 14.4665 12.75 13.5V2.5C12.75 1.5335 11.9665 0.75 11 0.75H2ZM6.03033 4.46967C5.73744 4.17678 5.26256 4.17678 4.96967 4.46967C4.67678 4.76256 4.67678 5.23744 4.96967 5.53033L7.43934 8L4.96967 10.4697C4.67678 10.7626 4.67678 11.2374 4.96967 11.5303C5.26256 11.8232 5.73744 11.8232 6.03033 11.5303L9.03033 8.53033C9.32323 8.23744 9.32323 7.76256 9.03033 7.46967L6.03033 4.46967Z" fill="#FF00FF"/>
</g>
<defs>
<clipPath id="clip0_2376_2713">
<rect width="16" height="16" fill="white"/>
</clipPath>
</defs>
</svg>
