<svg width="16" height="16" viewBox="0 0 16 16" fill="none" xmlns="http://www.w3.org/2000/svg">
<path opacity="0.25" fill-rule="evenodd" clip-rule="evenodd" d="M0 5V11C0 12.1046 0.895431 13 2 13H5C3.89543 13 3 12.1046 3 11V5C3 3.89543 3.89543 3 5 3H2C0.895431 3 0 3.89543 0 5ZM11 3C12.1046 3 13 3.89543 13 5V11C13 12.1046 12.1046 13 11 13H14C15.1046 13 16 12.1046 16 11V5C16 3.89543 15.1046 3 14 3H11Z" fill="#FF00FF"/>
<path fill-rule="evenodd" clip-rule="evenodd" d="M6 5.25C5.86193 5.25 5.75 5.36193 5.75 5.5V10.5C5.75 10.6381 5.86193 10.75 6 10.75H10C10.1381 10.75 10.25 10.6381 10.25 10.5V5.5C10.25 5.36193 10.1381 5.25 10 5.25H6ZM4.25 5.5C4.25 4.5335 5.0335 3.75 6 3.75H10C10.9665 3.75 11.75 4.5335 11.75 5.5V10.5C11.75 11.4665 10.9665 12.25 10 12.25H6C5.0335 12.25 4.25 11.4665 4.25 10.5V5.5Z" fill="#FF00FF"/>
</svg>
