<svg width="16" height="16" viewBox="0 0 16 16" fill="none" xmlns="http://www.w3.org/2000/svg">
<path fill-rule="evenodd" clip-rule="evenodd" d="M8.75 2C8.75 1.58579 8.41421 1.25 8 1.25C7.58579 1.25 7.25 1.58579 7.25 2V7C7.25 7.41421 7.58579 7.75 8 7.75C8.41421 7.75 8.75 7.41421 8.75 7V2ZM4.05357 3.81536C4.35476 3.53101 4.36842 3.05633 4.08407 2.75514C3.79972 2.45394 3.32504 2.44029 3.02385 2.72464C1.62473 4.04551 0.75 5.91984 0.75 7.99727C0.75 12.0013 3.99594 15.2473 8 15.2473C12.0041 15.2473 15.25 12.0013 15.25 7.99727C15.25 5.91984 14.3753 4.04551 12.9762 2.72464C12.675 2.44029 12.2003 2.45394 11.9159 2.75514C11.6316 3.05633 11.6452 3.53101 11.9464 3.81536C13.0579 4.86467 13.75 6.34954 13.75 7.99727C13.75 11.1729 11.1756 13.7473 8 13.7473C4.82436 13.7473 2.25 11.1729 2.25 7.99727C2.25 6.34954 2.9421 4.86467 4.05357 3.81536Z" fill="#FF00FF"/>
</svg>
