<svg width="16" height="16" viewBox="0 0 16 16" fill="none" xmlns="http://www.w3.org/2000/svg">
<path fill-rule="evenodd" clip-rule="evenodd" d="M8.75 3C8.75 2.58579 8.41421 2.25 8 2.25C7.58579 2.25 7.25 2.58579 7.25 3V8C7.25 8.41421 7.58579 8.75 8 8.75C8.41421 8.75 8.75 8.41421 8.75 8V3ZM4.73992 4.54536C5.04112 4.26101 5.05477 3.78633 4.77042 3.48514C4.48607 3.18394 4.0114 3.17029 3.7102 3.45464C2.50421 4.59319 1.75 6.20912 1.75 8C1.75 11.4518 4.54822 14.25 8 14.25C11.4518 14.25 14.25 11.4518 14.25 8C14.25 6.20912 13.4958 4.59319 12.2898 3.45464C11.9886 3.17029 11.5139 3.18394 11.2296 3.48514C10.9452 3.78633 10.9589 4.26101 11.2601 4.54536C12.1784 5.41235 12.75 6.63882 12.75 8C12.75 10.6234 10.6234 12.75 8 12.75C5.37665 12.75 3.25 10.6234 3.25 8C3.25 6.63882 3.82157 5.41235 4.73992 4.54536Z" fill="#FF00FF"/>
</svg>
