<svg width="16" height="16" viewBox="0 0 16 16" fill="none" xmlns="http://www.w3.org/2000/svg">
<g clip-path="url(#clip0_2283_3263)">
<path opacity="0.25" d="M15 8.5V3H12V1H4V3H1V8.5H4V6L5 5H11L12 6V8.5H15Z" fill="#FF00FF"/>
<path fill-rule="evenodd" clip-rule="evenodd" d="M4.75 2C4.75 1.86193 4.86193 1.75 5 1.75H11C11.1381 1.75 11.25 1.86193 11.25 2C11.25 2.9665 12.0335 3.75 13 3.75H13.5C13.9142 3.75 14.25 4.08579 14.25 4.5V7C14.25 7.41421 13.9142 7.75 13.5 7.75H12.75V6.5C12.75 5.25736 11.7426 4.25 10.5 4.25H5.5C4.25736 4.25 3.25 5.25736 3.25 6.5V7.75H2.5C2.08579 7.75 1.75 7.41421 1.75 7V4.5C1.75 4.08579 2.08579 3.75 2.5 3.75H3C3.9665 3.75 4.75 2.9665 4.75 2ZM3.25 9.25H2.5C1.25736 9.25 0.25 8.24264 0.25 7V4.5C0.25 3.25736 1.25736 2.25 2.5 2.25H3C3.13807 2.25 3.25 2.13807 3.25 2C3.25 1.0335 4.0335 0.25 5 0.25H11C11.9665 0.25 12.75 1.0335 12.75 2C12.75 2.13807 12.8619 2.25 13 2.25H13.5C14.7426 2.25 15.75 3.25736 15.75 4.5V7C15.75 8.24264 14.7426 9.25 13.5 9.25H12.75V13.5C12.75 14.7426 11.7426 15.75 10.5 15.75H5.5C4.25736 15.75 3.25 14.7426 3.25 13.5V9.25ZM4.75 6.5C4.75 6.08579 5.08579 5.75 5.5 5.75H10.5C10.9142 5.75 11.25 6.08579 11.25 6.5V13.5C11.25 13.9142 10.9142 14.25 10.5 14.25H5.5C5.08579 14.25 4.75 13.9142 4.75 13.5V6.5Z" fill="#FF00FF"/>
</g>
<defs>
<clipPath id="clip0_2283_3263">
<rect width="16" height="16" fill="white"/>
</clipPath>
</defs>
</svg>
