<svg width="16" height="16" viewBox="0 0 16 16" fill="none" xmlns="http://www.w3.org/2000/svg">
<g clip-path="url(#clip0_2283_3263)">
<path opacity="0.25" d="M15 7V4.5C15 3.67157 14.3284 3 13.5 3H13C12.4477 3 12 2.55228 12 2C12 1.44772 11.5523 1 11 1H5C4.44772 1 4 1.44772 4 2C4 2.55228 3.55228 3 3 3H2.5C1.67157 3 1 3.67157 1 4.5V7C1 7.82843 1.67157 8.5 2.5 8.5H2.93934C3.52513 8.5 4 8.02513 4 7.43934C4 7.15804 4.11175 6.88825 4.31066 6.68934L4.56066 6.43934C4.84196 6.15803 5.2235 6 5.62132 6H10.3787C10.7765 6 11.158 6.15804 11.4393 6.43934L11.6893 6.68934C11.8883 6.88825 12 7.15804 12 7.43934C12 8.02513 12.4749 8.5 13.0607 8.5H13.5C14.3284 8.5 15 7.82843 15 7Z" fill="#FF00FF"/>
<path fill-rule="evenodd" clip-rule="evenodd" d="M4.75 2C4.75 1.86193 4.86193 1.75 5 1.75H11C11.1381 1.75 11.25 1.86193 11.25 2C11.25 2.9665 12.0335 3.75 13 3.75H13.5C13.9142 3.75 14.25 4.08579 14.25 4.5V7C14.25 7.41421 13.9142 7.75 13.5 7.75H12.25V7.5C12.25 6.25736 11.2426 5.25 10 5.25H6C4.75736 5.25 3.75 6.25736 3.75 7.5V7.75H2.5C2.08579 7.75 1.75 7.41421 1.75 7V4.5C1.75 4.08579 2.08579 3.75 2.5 3.75H3C3.9665 3.75 4.75 2.9665 4.75 2ZM3.75 9.25H2.5C1.25736 9.25 0.25 8.24264 0.25 7V4.5C0.25 3.25736 1.25736 2.25 2.5 2.25H3C3.13807 2.25 3.25 2.13807 3.25 2C3.25 1.0335 4.0335 0.25 5 0.25H11C11.9665 0.25 12.75 1.0335 12.75 2C12.75 2.13807 12.8619 2.25 13 2.25H13.5C14.7426 2.25 15.75 3.25736 15.75 4.5V7C15.75 8.24264 14.7426 9.25 13.5 9.25H12.25V13.5C12.25 14.7426 11.2426 15.75 10 15.75H6C4.75736 15.75 3.75 14.7426 3.75 13.5V9.25ZM5.25 7.5C5.25 7.08579 5.58579 6.75 6 6.75H10C10.4142 6.75 10.75 7.08579 10.75 7.5V13.5C10.75 13.9142 10.4142 14.25 10 14.25H6C5.58579 14.25 5.25 13.9142 5.25 13.5V7.5Z" fill="#FF00FF"/>
</g>
<defs>
<clipPath id="clip0_2283_3263">
<rect width="16" height="16" fill="white"/>
</clipPath>
</defs>
</svg>
