<svg width="16" height="16" viewBox="0 0 16 16" fill="none" xmlns="http://www.w3.org/2000/svg">
<g clip-path="url(#clip0_2376_2581)">
<path opacity="0.25" d="M15 9V3.5H12V1.5H4V3.5H1V9H4V6.5L5 5.5H11L12 6.5V9H15Z" fill="#FF00FF"/>
<path fill-rule="evenodd" clip-rule="evenodd" d="M4.75 2.5C4.75 2.36193 4.86193 2.25 5 2.25H11C11.1381 2.25 11.25 2.36193 11.25 2.5C11.25 3.4665 12.0335 4.25 13 4.25H13.5C13.9142 4.25 14.25 4.58579 14.25 5V7.5C14.25 7.91421 13.9142 8.25 13.5 8.25H12.75V7C12.75 5.75736 11.7426 4.75 10.5 4.75H5.5C4.25736 4.75 3.25 5.75736 3.25 7V8.25H2.5C2.08579 8.25 1.75 7.91421 1.75 7.5V5C1.75 4.58579 2.08579 4.25 2.5 4.25H3C3.9665 4.25 4.75 3.4665 4.75 2.5ZM3.25 9.75H2.5C1.25736 9.75 0.25 8.74264 0.25 7.5V5C0.25 3.75736 1.25736 2.75 2.5 2.75H3C3.13807 2.75 3.25 2.63807 3.25 2.5C3.25 1.5335 4.0335 0.75 5 0.75H11C11.9665 0.75 12.75 1.5335 12.75 2.5C12.75 2.63807 12.8619 2.75 13 2.75H13.5C14.7426 2.75 15.75 3.75736 15.75 5V7.5C15.75 8.74264 14.7426 9.75 13.5 9.75H12.75V13C12.75 14.2426 11.7426 15.25 10.5 15.25H5.5C4.25736 15.25 3.25 14.2426 3.25 13V9.75ZM4.75 7C4.75 6.58579 5.08579 6.25 5.5 6.25H10.5C10.9142 6.25 11.25 6.58579 11.25 7V13C11.25 13.4142 10.9142 13.75 10.5 13.75H5.5C5.08579 13.75 4.75 13.4142 4.75 13V7Z" fill="#FF00FF"/>
</g>
<defs>
<clipPath id="clip0_2376_2581">
<rect width="16" height="16" fill="white"/>
</clipPath>
</defs>
</svg>
