<svg width="16" height="16" viewBox="0 0 16 16" fill="none" xmlns="http://www.w3.org/2000/svg">
<path fill-rule="evenodd" clip-rule="evenodd" d="M4.3651 1L11.6349 1C12.805 1 13.2293 1.12183 13.6571 1.35061C14.0849 1.57939 14.4206 1.91511 14.6494 2.34289C14.8782 2.77067 15 3.19498 15 4.3651V11.6349C15 12.805 14.8782 13.2293 14.6494 13.6571C14.4206 14.0849 14.0849 14.4206 13.6571 14.6494C13.2293 14.8782 12.805 15 11.6349 15H4.3651C3.19498 15 2.77067 14.8782 2.34289 14.6494C1.91511 14.4206 1.57939 14.0849 1.35061 13.6571C1.12183 13.2293 1 12.805 1 11.6349L1 4.3651C1 3.19498 1.12183 2.77067 1.35061 2.34289C1.57939 1.91511 1.91511 1.57939 2.34289 1.35061C2.77067 1.12183 3.19498 1 4.3651 1Z" fill="black"/>
<path fill-rule="evenodd" clip-rule="evenodd" d="M3.33325 4.5H6.39909C7.9029 4.5 8.92161 5.4799 8.92161 6.98371C8.92161 8.47297 7.84954 9.44803 6.29236 9.44803H5.11357V11.5H3.33325V4.5ZM5.11357 5.86798V8.1043H5.91884C6.67559 8.1043 7.12189 7.71622 7.12189 6.98857C7.12189 6.25121 6.68045 5.86798 5.92854 5.86798H5.11357ZM10.7647 11.5H7.40294V4.5H10.6677C12.0648 4.5 12.8894 5.15974 12.8894 6.24636C12.8894 6.99827 12.3267 7.63375 11.5845 7.73562V7.82779C12.5013 7.8763 13.2096 8.5894 13.2096 9.48198C13.2096 10.7093 12.2636 11.5 10.7647 11.5ZM9.18326 5.75641V7.35239H10.1244C10.7744 7.35239 11.1528 7.05163 11.1528 6.55683C11.1528 6.05717 10.7986 5.75641 10.1923 5.75641H9.18326ZM9.18326 10.2436H10.2602C10.9975 10.2436 11.4002 9.91857 11.4002 9.32675C11.4002 8.75433 10.9878 8.43416 10.2505 8.43416H9.18326V10.2436Z" fill="white"/>
</svg>
