<svg width="16" height="16" viewBox="0 0 16 16" fill="none" xmlns="http://www.w3.org/2000/svg">
<path d="M5.11365 8.1043V5.86798H5.92862C6.68053 5.86798 7.12197 6.25121 7.12197 6.98857C7.12197 7.71622 6.67568 8.1043 5.91892 8.1043H5.11365Z" fill="#FF00FF"/>
<path d="M9.18334 7.35239V5.75641H10.1923C10.7987 5.75641 11.1528 6.05717 11.1528 6.55683C11.1528 7.05163 10.7745 7.35239 10.1244 7.35239H9.18334Z" fill="#FF00FF"/>
<path d="M10.2603 10.2436H9.18334V8.43416H10.2506C10.9879 8.43416 11.4002 8.75433 11.4002 9.32675C11.4002 9.91857 10.9976 10.2436 10.2603 10.2436Z" fill="#FF00FF"/>
<path fill-rule="evenodd" clip-rule="evenodd" d="M11.6349 1H4.3651C3.19498 1 2.77067 1.12183 2.34289 1.35061C1.91511 1.57939 1.57939 1.91511 1.35061 2.34289C1.12183 2.77067 1 3.19498 1 4.3651V11.6349C1 12.805 1.12183 13.2293 1.35061 13.6571C1.57939 14.0849 1.91511 14.4206 2.34289 14.6494C2.77067 14.8782 3.19498 15 4.3651 15H11.6349C12.805 15 13.2293 14.8782 13.6571 14.6494C14.0849 14.4206 14.4206 14.0849 14.6494 13.6571C14.8782 13.2293 15 12.805 15 11.6349V4.3651C15 3.19498 14.8782 2.77067 14.6494 2.34289C14.4206 1.91511 14.0849 1.57939 13.6571 1.35061C13.2293 1.12183 12.805 1 11.6349 1ZM6.39917 4.5H3.33333V11.5H5.11365V9.44802H6.29245C6.69923 9.44802 7.07291 9.38148 7.40302 9.25662V11.5H10.7648C12.2637 11.5 13.2097 10.7093 13.2097 9.48198C13.2097 8.5894 12.5014 7.8763 11.5846 7.82779V7.73562C12.3268 7.63375 12.8895 6.99827 12.8895 6.24636C12.8895 5.15974 12.0648 4.5 10.6677 4.5H7.40302V4.66747C7.10225 4.55801 6.76507 4.5 6.39917 4.5ZM7.40302 4.66747V9.25662C8.33658 8.9035 8.92169 8.08393 8.92169 6.98371C8.92169 5.8458 8.3384 5.00786 7.40302 4.66747Z" fill="#FF00FF"/>
</svg>
