<svg width="16" height="16" viewBox="0 0 16 16" fill="none" xmlns="http://www.w3.org/2000/svg">
<path fill-rule="evenodd" clip-rule="evenodd" d="M1.75 2.5C1.75 1.25736 2.75736 0.25 4 0.25H12C13.2426 0.25 14.25 1.25736 14.25 2.5V4.26373V5.10121L13.4176 5.00919C13.3628 5.00314 13.3069 5 13.25 5C12.4216 5 11.75 5.67157 11.75 6.5C11.75 7.32843 12.4216 8 13.25 8C13.3069 8 13.3628 7.99686 13.4176 7.99081L14.25 7.89879V8.73627V10.5C14.25 11.7426 13.2426 12.75 12 12.75H11C11 14.4069 9.65685 15.75 8 15.75C6.34315 15.75 5 14.4069 5 12.75H4C2.75736 12.75 1.75 11.7426 1.75 10.5V2.5ZM4 1.75C3.58579 1.75 3.25 2.08579 3.25 2.5V10.5C3.25 10.9142 3.58579 11.25 4 11.25H5.87803H6.93859L6.58516 12.2499C6.53022 12.4054 6.5 12.5733 6.5 12.75C6.5 13.5784 7.17157 14.25 8 14.25C8.82843 14.25 9.5 13.5784 9.5 12.75C9.5 12.5733 9.46978 12.4054 9.41484 12.2499L9.06141 11.25H10.122H12C12.4142 11.25 12.75 10.9142 12.75 10.5V9.45852C11.3311 9.22048 10.25 7.9865 10.25 6.5C10.25 5.0135 11.3311 3.77952 12.75 3.54148V2.5C12.75 2.08579 12.4142 1.75 12 1.75H4Z" fill="#FF00FF"/>
</svg>
