<svg width="16" height="16" viewBox="0 0 16 16" fill="none" xmlns="http://www.w3.org/2000/svg">
<g clip-path="url(#clip0_2376_2566)">
<path fill-rule="evenodd" clip-rule="evenodd" d="M2 1.75C1.86193 1.75 1.75 1.86193 1.75 2V3.5C1.75 3.91421 1.41421 4.25 1 4.25C0.585786 4.25 0.25 3.91421 0.25 3.5V2C0.25 1.0335 1.0335 0.25 2 0.25H3.5C3.91421 0.25 4.25 0.585786 4.25 1C4.25 1.41421 3.91421 1.75 3.5 1.75H2ZM4.5 4.5V6H6V4.5H4.5ZM3.5 3C3.22386 3 3 3.22386 3 3.5V7C3 7.27614 3.22386 7.5 3.5 7.5H7C7.27614 7.5 7.5 7.27614 7.5 7V3.5C7.5 3.22386 7.27614 3 7 3H3.5ZM10 10V11.5H11.5V10H10ZM9 8.5C8.72386 8.5 8.5 8.72386 8.5 9V12.5C8.5 12.7761 8.72386 13 9 13H12.5C12.7761 13 13 12.7761 13 12.5V9C13 8.72386 12.7761 8.5 12.5 8.5H9ZM4.5 9.25C4.5 8.83579 4.16421 8.5 3.75 8.5C3.33579 8.5 3 8.83579 3 9.25V10.25C3 10.6642 3.33579 11 3.75 11C4.16421 11 4.5 10.6642 4.5 10.25V9.25ZM3 12.25C3 11.8358 3.33579 11.5 3.75 11.5H3.7501C4.16431 11.5 4.5001 11.8358 4.5001 12.25C4.5001 12.6642 4.16431 13 3.7501 13H3.75C3.33579 13 3 12.6642 3 12.25ZM12 5.25C11.5858 5.25 11.25 5.58579 11.25 6C11.25 6.41421 11.5858 6.75 12 6.75H12.0001C12.4143 6.75 12.7501 6.41421 12.7501 6C12.7501 5.58579 12.4143 5.25 12.0001 5.25H12ZM6 8.5C6.41421 8.5 6.75 8.83579 6.75 9.25V11.5H7C7.41421 11.5 7.75 11.8358 7.75 12.25C7.75 12.6642 7.41421 13 7 13H6C5.58579 13 5.25 12.6642 5.25 12.25V9.25C5.25 8.83579 5.58579 8.5 6 8.5ZM9 3.25C8.58579 3.25 8.25 3.58579 8.25 4C8.25 4.41421 8.58579 4.75 9 4.75H10.5C10.9142 4.75 11.25 4.41421 11.25 4C11.25 3.58579 10.9142 3.25 10.5 3.25H9ZM9 6.25C8.58579 6.25 8.25 6.58579 8.25 7C8.25 7.41421 8.58579 7.75 9 7.75H10C10.4142 7.75 10.75 7.41421 10.75 7C10.75 6.58579 10.4142 6.25 10 6.25H9ZM1.75 12.5C1.75 12.0858 1.41421 11.75 1 11.75C0.585786 11.75 0.25 12.0858 0.25 12.5V14C0.25 14.9665 1.0335 15.75 2 15.75H3.5C3.91421 15.75 4.25 15.4142 4.25 15C4.25 14.5858 3.91421 14.25 3.5 14.25H2C1.86193 14.25 1.75 14.1381 1.75 14V12.5ZM11.75 1C11.75 0.585786 12.0858 0.25 12.5 0.25H14C14.9665 0.25 15.75 1.0335 15.75 2V3.5C15.75 3.91421 15.4142 4.25 15 4.25C14.5858 4.25 14.25 3.91421 14.25 3.5V2C14.25 1.86193 14.1381 1.75 14 1.75H12.5C12.0858 1.75 11.75 1.41421 11.75 1ZM15.75 12.5C15.75 12.0858 15.4142 11.75 15 11.75C14.5858 11.75 14.25 12.0858 14.25 12.5V14C14.25 14.1381 14.1381 14.25 14 14.25H12.5C12.0858 14.25 11.75 14.5858 11.75 15C11.75 15.4142 12.0858 15.75 12.5 15.75H14C14.9665 15.75 15.75 14.9665 15.75 14V12.5Z" fill="#FF00FF"/>
</g>
<defs>
<clipPath id="clip0_2376_2566">
<rect width="16" height="16" fill="white"/>
</clipPath>
</defs>
</svg>
