<svg width="16" height="16" viewBox="0 0 16 16" fill="none" xmlns="http://www.w3.org/2000/svg">
<g clip-path="url(#clip0_2179_3741)">
<path d="M9.48287 7.99998C9.48287 8.82077 8.81748 9.48616 7.99669 9.48616C7.1759 9.48616 6.51051 8.82077 6.51051 7.99998C6.51051 7.17918 7.1759 6.5138 7.99669 6.5138C8.81748 6.5138 9.48287 7.17918 9.48287 7.99998Z" fill="#61DAFB"/>
<path fill-rule="evenodd" clip-rule="evenodd" d="M15.9772 7.99998C15.9772 6.94307 14.6536 5.94144 12.6243 5.3203C13.0926 3.25201 12.8845 1.60648 11.9674 1.07965C11.7569 0.956572 11.5109 0.898011 11.2422 0.897542V0.894287C10.3479 0.894287 9.17718 1.53169 7.99344 2.63738C6.8097 1.53819 5.63897 0.907295 4.74466 0.907295V0.910547C4.47149 0.910547 4.22433 0.969084 4.0097 1.09266C3.09588 1.61949 2.891 3.26177 3.36254 5.32355C1.33978 5.94795 0.0227051 6.94632 0.0227051 7.99998C0.0227051 9.05689 1.34628 10.0585 3.37555 10.6797C2.90726 12.7479 3.11539 14.3935 4.03246 14.9203C4.24384 15.0439 4.491 15.1024 4.76417 15.1024C5.65848 15.1024 6.82921 14.465 8.01295 13.3593C9.19669 14.4585 10.3674 15.0894 11.2617 15.0894C11.5349 15.0894 11.7821 15.0309 11.9967 14.9073C12.9105 14.3805 13.1154 12.7382 12.6438 10.6764C14.6601 10.0553 15.9772 9.05364 15.9772 7.99998ZM8.51051 3.14469C9.56898 2.16091 10.5626 1.62122 11.239 1.61949V1.62274C11.3886 1.62274 11.5089 1.65201 11.6097 1.7073C12.052 1.96095 12.2438 2.92681 12.0943 4.16908C12.0585 4.47477 11.9999 4.79673 11.9284 5.12518C11.291 4.96908 10.5951 4.84876 9.86336 4.77071C9.42433 4.16908 8.96905 3.62274 8.51051 3.14469ZM4.74466 1.6325C5.41783 1.6325 6.4162 2.16908 7.47636 3.14795C7.02108 3.62599 6.56579 4.16908 6.13327 4.77071C5.39831 4.84876 4.70238 4.96908 4.06498 5.12843C3.99018 4.80323 3.9349 4.48778 3.89588 4.18534C3.74303 2.94307 3.93165 1.97721 4.37067 1.7203C4.46823 1.66177 4.59506 1.63575 4.74466 1.63575V1.6325ZM11.743 5.83087C11.6227 6.25038 11.4731 6.6829 11.304 7.11543C11.1707 6.85526 11.0308 6.5951 10.878 6.33494C10.7284 6.07478 10.569 5.82112 10.4097 5.57396C10.8715 5.64225 11.317 5.72681 11.743 5.83087ZM9.46986 10.5366C9.73978 10.1496 9.99994 9.73331 10.2536 9.29429C10.4975 8.86827 10.7219 8.4325 10.9268 7.99673C10.7219 7.56095 10.4975 7.12843 10.2503 6.70242C9.99669 6.26665 9.73327 5.85364 9.46336 5.46665C8.98206 5.42762 8.491 5.40486 7.99994 5.40486C7.50563 5.40486 7.01458 5.42762 6.53002 5.4699C6.2601 5.85689 5.99994 6.27315 5.74628 6.71217C5.50238 7.13819 5.27474 7.57396 5.07311 8.00973C5.27799 8.44551 5.50238 8.87803 5.74953 9.30404C6.00319 9.73982 6.26661 10.1528 6.53653 10.5398C7.01783 10.5788 7.50888 10.6016 7.99994 10.6016C8.49425 10.6016 8.98531 10.5788 9.46986 10.5366ZM11.304 8.87152C11.4796 9.30729 11.6292 9.74307 11.7528 10.1658C11.3268 10.2699 10.878 10.3577 10.4129 10.426C10.5723 10.1756 10.7316 9.91868 10.8812 9.65526C11.0308 9.3951 11.1707 9.13168 11.304 8.87152ZM7.10238 11.3008C7.40157 11.6813 7.70401 12.0292 8.00644 12.3414C8.30563 12.0292 8.60807 11.6813 8.90075 11.3008C8.60482 11.3171 8.30238 11.3236 7.99669 11.3236C7.69425 11.3236 7.39506 11.3138 7.10238 11.3008ZM5.58693 10.426C5.12514 10.3577 4.67962 10.2731 4.2536 10.1691C4.37392 9.74957 4.52352 9.31705 4.69262 8.88453C4.82596 9.14469 4.96579 9.40485 5.11864 9.66502C5.27149 9.92518 5.42758 10.1788 5.58693 10.426ZM8.89425 4.69917C8.59506 4.31868 8.29262 3.97071 7.99018 3.65851C7.691 3.97071 7.38856 4.31868 7.09588 4.69917C7.39181 4.6829 7.69425 4.6764 7.99994 4.6764C8.30238 4.6764 8.60157 4.68616 8.89425 4.69917ZM5.58368 5.57396C5.42433 5.82437 5.26498 6.08128 5.11539 6.34469C4.96579 6.60486 4.82596 6.86502 4.69262 7.12518C4.51701 6.68941 4.36742 6.25364 4.24384 5.83087C4.66986 5.73006 5.11864 5.64225 5.58368 5.57396ZM0.744656 7.99998C0.744656 8.51055 1.48937 9.15445 2.64059 9.64551C2.92352 9.76583 3.22921 9.8764 3.55116 9.97721C3.73327 9.34307 3.97392 8.6829 4.27311 8.00648C3.97067 7.32681 3.72677 6.66339 3.5414 6.02599C3.22596 6.12681 2.92027 6.23412 2.64059 6.35445C1.48937 6.84225 0.744656 7.48941 0.744656 7.99998ZM4.39018 14.2927C3.94791 14.039 3.75604 13.0731 3.90563 11.8309C3.9414 11.5252 3.99994 11.2032 4.07149 10.8748C4.70888 11.0309 5.40482 11.1512 6.13653 11.2292C6.57555 11.8309 7.03084 12.3772 7.48937 12.8553C6.42921 13.8406 5.43409 14.3805 4.75766 14.3805C4.61132 14.3772 4.48775 14.3479 4.39018 14.2927ZM11.6292 14.2797C12.0682 14.0227 12.2569 13.0569 12.104 11.8146C12.0682 11.5122 12.0097 11.1967 11.9349 10.8683C11.2975 11.0276 10.6016 11.1479 9.86661 11.226C9.43409 11.8276 8.9788 12.3707 8.52352 12.8488C9.58368 13.8276 10.5821 14.3642 11.2552 14.3642C11.4048 14.3642 11.5316 14.3382 11.6292 14.2797ZM13.356 9.64551C13.0764 9.76583 12.7707 9.87315 12.4552 9.97396C12.2699 9.33656 12.026 8.67315 11.7235 7.99347C12.0227 7.31705 12.2634 6.65689 12.4455 6.02274C12.7674 6.12356 13.0731 6.23412 13.3593 6.35445C14.5105 6.84551 15.2552 7.48941 15.2552 7.99998C15.252 8.51055 14.5073 9.1577 13.356 9.64551Z" fill="#61DAFB"/>
</g>
<defs>
<clipPath id="clip0_2179_3741">
<rect width="16" height="16" fill="white"/>
</clipPath>
</defs>
</svg>
