<svg width="16" height="16" viewBox="0 0 16 16" fill="none" xmlns="http://www.w3.org/2000/svg">
<path fill-rule="evenodd" clip-rule="evenodd" d="M8.79458 6.02062L12.2459 3.50401C12.5198 3.3043 12.5198 2.89571 12.2459 2.696L8.79458 0.179392C8.46417 -0.0615367 8 0.174468 8 0.583396L8 1.75C4.27208 1.75 1.25 4.77208 1.25 8.5C1.25 12.2279 4.27208 15.25 8 15.25C11.7279 15.25 14.75 12.2279 14.75 8.5C14.75 8.08578 14.4142 7.75 14 7.75C13.5858 7.75 13.25 8.08578 13.25 8.5C13.25 11.3995 10.8995 13.75 8 13.75C5.1005 13.75 2.75 11.3995 2.75 8.5C2.75 5.6005 5.1005 3.25 8 3.25L8 5.61662C8 6.02554 8.46417 6.26155 8.79458 6.02062Z" fill="#FF00FF"/>
</svg>
