<svg width="16" height="16" viewBox="0 0 16 16" fill="none" xmlns="http://www.w3.org/2000/svg">
<path fill-rule="evenodd" clip-rule="evenodd" d="M8.79458 6.02061L12.2459 3.504C12.5198 3.30429 12.5198 2.8957 12.2459 2.69599L8.79458 0.179378C8.46417 -0.0615504 8 0.174455 8 0.583382L8 1.74998C4.27208 1.74998 1.25 4.77206 1.25 8.49998C1.25 12.2279 4.27208 15.25 8 15.25C11.7279 15.25 14.75 12.2279 14.75 8.49998C14.75 8.08577 14.4142 7.74998 14 7.74998C13.5858 7.74998 13.25 8.08577 13.25 8.49998C13.25 11.3995 10.8995 13.75 8 13.75C5.1005 13.75 2.75 11.3995 2.75 8.49998C2.75 5.60049 5.1005 3.24998 8 3.24998L8 5.6166C8 6.02553 8.46417 6.26154 8.79458 6.02061Z" fill="#FF00FF"/>
</svg>
