<svg width="16" height="16" viewBox="0 0 16 16" fill="none" xmlns="http://www.w3.org/2000/svg">
<g clip-path="url(#clip0_2372_2348)">
<g clip-path="url(#clip1_2372_2348)">
<path fill-rule="evenodd" clip-rule="evenodd" d="M0.46967 7.46967C0.176777 7.76256 0.176777 8.23744 0.46967 8.53033L2.96967 11.0303C3.26256 11.3232 3.73744 11.3232 4.03033 11.0303C4.32322 10.7374 4.32322 10.2626 4.03033 9.96967L2.81066 8.75L5.5 8.75C5.91421 8.75 6.25 8.41421 6.25 8C6.25 7.58579 5.91421 7.25 5.5 7.25L2.81066 7.25L4.03033 6.03033C4.32322 5.73744 4.32322 5.26256 4.03033 4.96967C3.73744 4.67678 3.26256 4.67678 2.96967 4.96967L0.46967 7.46967ZM8 14.75C7.58579 14.75 7.25 14.4142 7.25 14L7.25 2C7.25 1.58579 7.58579 1.25 8 1.25C8.41421 1.25 8.75 1.58579 8.75 2L8.75 14C8.75 14.4142 8.41421 14.75 8 14.75ZM9.75 8C9.75 7.58579 10.0858 7.25 10.5 7.25L13.1893 7.25L11.9697 6.03033C11.6768 5.73744 11.6768 5.26256 11.9697 4.96967C12.2626 4.67678 12.7374 4.67678 13.0303 4.96967L15.5303 7.46967C15.8232 7.76256 15.8232 8.23744 15.5303 8.53033L13.0303 11.0303C12.7374 11.3232 12.2626 11.3232 11.9697 11.0303C11.6768 10.7374 11.6768 10.2626 11.9697 9.96967L13.1893 8.75L10.5 8.75C10.0858 8.75 9.75 8.41421 9.75 8Z" fill="#FF00FF"/>
</g>
</g>
<defs>
<clipPath id="clip0_2372_2348">
<rect width="16" height="16" fill="white"/>
</clipPath>
<clipPath id="clip1_2372_2348">
<rect width="16" height="16" fill="white" transform="translate(0 16) rotate(-90)"/>
</clipPath>
</defs>
</svg>
