<svg width="16" height="16" viewBox="0 0 16 16" fill="none" xmlns="http://www.w3.org/2000/svg">
<path fill-rule="evenodd" clip-rule="evenodd" d="M7.46973 0.469665C7.76262 0.176771 8.2375 0.176771 8.53039 0.469665L12.0304 3.96966C12.3233 4.26256 12.3233 4.73743 12.0304 5.03032C11.7375 5.32322 11.2626 5.32322 10.9697 5.03032L8.75006 2.81065V5.49999V10.5V13.1893L10.9697 10.9697C11.2626 10.6768 11.7375 10.6768 12.0304 10.9697C12.3233 11.2626 12.3233 11.7374 12.0304 12.0303L8.53039 15.5303C8.2375 15.8232 7.76262 15.8232 7.46973 15.5303L3.96973 12.0303C3.67684 11.7374 3.67684 11.2626 3.96973 10.9697C4.26262 10.6768 4.7375 10.6768 5.03039 10.9697L7.25006 13.1893V10.5V5.49999V2.81065L5.03039 5.03032C4.7375 5.32322 4.26262 5.32322 3.96973 5.03032C3.67684 4.73743 3.67684 4.26256 3.96973 3.96966L7.46973 0.469665Z" fill="#FF00FF"/>
</svg>
