<svg width="16" height="16" viewBox="0 0 16 16" fill="none" xmlns="http://www.w3.org/2000/svg">
<g clip-path="url(#clip0_2376_2742)">
<path fill-rule="evenodd" clip-rule="evenodd" d="M0.46968 8.53033C0.176786 8.23744 0.176786 7.76257 0.46968 7.46967L3.96968 3.96967C4.26257 3.67678 4.73745 3.67678 5.03034 3.96967C5.32323 4.26257 5.32323 4.73744 5.03034 5.03033L2.81067 7.25L5.50001 7.25L10.5 7.25L13.1894 7.25L10.9697 5.03033C10.6768 4.73744 10.6768 4.26257 10.9697 3.96967C11.2626 3.67678 11.7374 3.67678 12.0303 3.96967L15.5303 7.46967C15.8232 7.76257 15.8232 8.23744 15.5303 8.53033L12.0303 12.0303C11.7374 12.3232 11.2626 12.3232 10.9697 12.0303C10.6768 11.7374 10.6768 11.2626 10.9697 10.9697L13.1894 8.75L10.5 8.75L5.50001 8.75L2.81067 8.75L5.03034 10.9697C5.32323 11.2626 5.32323 11.7374 5.03034 12.0303C4.73745 12.3232 4.26257 12.3232 3.96968 12.0303L0.46968 8.53033Z" fill="#FF00FF"/>
</g>
<defs>
<clipPath id="clip0_2376_2742">
<rect width="16" height="16" fill="white"/>
</clipPath>
</defs>
</svg>
