<svg width="16" height="16" viewBox="0 0 16 16" fill="none" xmlns="http://www.w3.org/2000/svg">
<g clip-path="url(#clip0_2372_2350)">
<path fill-rule="evenodd" clip-rule="evenodd" d="M0.46967 8.53039C0.176777 8.2375 0.176776 7.76262 0.46967 7.46973L3.96967 3.96973C4.26256 3.67684 4.73744 3.67684 5.03033 3.96973C5.32322 4.26262 5.32322 4.7375 5.03033 5.03039L2.81066 7.25006L5.5 7.25006L10.5 7.25006L13.1893 7.25006L10.9697 5.03039C10.6768 4.7375 10.6768 4.26262 10.9697 3.96973C11.2626 3.67684 11.7374 3.67684 12.0303 3.96973L15.5303 7.46973C15.8232 7.76262 15.8232 8.2375 15.5303 8.53039L12.0303 12.0304C11.7374 12.3233 11.2626 12.3233 10.9697 12.0304C10.6768 11.7375 10.6768 11.2626 10.9697 10.9697L13.1893 8.75006L10.5 8.75006L5.5 8.75006L2.81066 8.75006L5.03033 10.9697C5.32322 11.2626 5.32322 11.7375 5.03033 12.0304C4.73744 12.3233 4.26256 12.3233 3.96967 12.0304L0.46967 8.53039Z" fill="#FF00FF"/>
</g>
<defs>
<clipPath id="clip0_2372_2350">
<rect width="16" height="16" fill="white"/>
</clipPath>
</defs>
</svg>
