<svg width="16" height="16" viewBox="0 0 16 16" fill="none" xmlns="http://www.w3.org/2000/svg">
<path fill-rule="evenodd" clip-rule="evenodd" d="M8.53033 0.46967C8.23744 0.176777 7.76256 0.176777 7.46967 0.46967L4.96967 2.96967C4.67678 3.26256 4.67678 3.73744 4.96967 4.03033C5.26256 4.32322 5.73744 4.32322 6.03033 4.03033L7.25 2.81066V5.5C7.25 5.91421 7.58579 6.25 8 6.25C8.41421 6.25 8.75 5.91421 8.75 5.5V2.81066L9.96967 4.03033C10.2626 4.32322 10.7374 4.32322 11.0303 4.03033C11.3232 3.73744 11.3232 3.26256 11.0303 2.96967L8.53033 0.46967ZM1.25 8C1.25 7.58579 1.58579 7.25 2 7.25H14C14.4142 7.25 14.75 7.58579 14.75 8C14.75 8.41421 14.4142 8.75 14 8.75H2C1.58579 8.75 1.25 8.41421 1.25 8ZM8 9.75C8.41421 9.75 8.75 10.0858 8.75 10.5V13.1893L9.96967 11.9697C10.2626 11.6768 10.7374 11.6768 11.0303 11.9697C11.3232 12.2626 11.3232 12.7374 11.0303 13.0303L8.53033 15.5303C8.23744 15.8232 7.76256 15.8232 7.46967 15.5303L4.96967 13.0303C4.67678 12.7374 4.67678 12.2626 4.96967 11.9697C5.26256 11.6768 5.73744 11.6768 6.03033 11.9697L7.25 13.1893V10.5C7.25 10.0858 7.58579 9.75 8 9.75Z" fill="#FF00FF"/>
</svg>
