<svg width="16" height="16" viewBox="0 0 16 16" fill="none" xmlns="http://www.w3.org/2000/svg">
<path fill-rule="evenodd" clip-rule="evenodd" d="M7.67338 2.68952C8.04626 2.50914 8.49476 2.6652 8.67513 3.03808C8.8555 3.41096 8.69945 3.85946 8.32657 4.03983C7.88091 4.25541 7.30932 4.62129 6.48944 5.14836L4.24241 6.59287C3.47261 7.08775 2.96828 7.41431 2.64567 7.69643C2.33954 7.96414 2.34016 8.07038 2.34033 8.09829L2.34033 8.09999L2.34033 8.10168C2.34016 8.12959 2.33954 8.23584 2.64567 8.50354C2.96828 8.78566 3.47261 9.11223 4.2424 9.6071L6.48943 11.0516C7.30932 11.5787 7.88091 11.9446 8.32657 12.1601C8.69944 12.3405 8.8555 12.789 8.67513 13.1619C8.49476 13.5348 8.04626 13.6908 7.67338 13.5105C7.13589 13.2505 6.48787 12.8339 5.71938 12.3398L5.71935 12.3398L5.6783 12.3134L3.43127 10.8689L3.38149 10.8369C2.67518 10.3829 2.07472 9.9969 1.65824 9.63269C1.22214 9.25133 0.840332 8.7687 0.840332 8.09999C0.840332 7.43127 1.22214 6.94865 1.65824 6.56728C2.07472 6.20308 2.67517 5.81711 3.38148 5.36312L3.38149 5.3631L3.43127 5.33111L5.6783 3.88659L5.71938 3.86018C6.48787 3.36612 7.13589 2.94952 7.67338 2.68952ZM13.8353 2.72478C13.1706 2.36407 12.3048 2.92686 10.5731 4.05244L7.7785 5.86894C6.30016 6.82986 5.561 7.31032 5.561 7.99999C5.561 8.68965 6.30017 9.17011 7.77851 10.131L10.5731 11.9475C12.3048 13.0731 13.1706 13.6359 13.8353 13.2752C14.5 12.9145 14.5 11.8818 14.5 9.81649V6.18348C14.5 4.11815 14.5 3.08549 13.8353 2.72478Z" fill="#FF00FF"/>
</svg>
