<svg width="16" height="16" viewBox="0 0 16 16" fill="none" xmlns="http://www.w3.org/2000/svg">
<g clip-path="url(#clip0_2278_4829)">
<path fill-rule="evenodd" clip-rule="evenodd" d="M3.4375 0H12.5625C14.461 0 16 1.53902 16 3.4375V12.5625C16 14.461 14.461 16 12.5625 16H3.4375C1.53902 16 0 14.461 0 12.5625V3.4375C0 1.53902 1.53902 0 3.4375 0ZM11.5 13.3125C11.5 10.9919 10.5781 8.76626 8.93718 7.12532C7.29624 5.48437 5.07064 4.5625 2.75 4.5625V2.375C5.65081 2.375 8.4328 3.52734 10.484 5.57852C12.5352 7.6297 13.6875 10.4117 13.6875 13.3125H11.5ZM7.875 13.3125H10C10 12.3604 9.81247 11.4177 9.44813 10.538C9.08378 9.65843 8.54975 8.8592 7.87652 8.18598C7.2033 7.51275 6.40407 6.97872 5.52446 6.61437C4.64484 6.25003 3.70208 6.0625 2.75 6.0625V8.1875C4.10923 8.1875 5.4128 8.72745 6.37392 9.68858C7.33505 10.6497 7.875 11.9533 7.875 13.3125ZM5.75 11.8125C5.75 12.6409 5.07843 13.3125 4.25 13.3125C3.42157 13.3125 2.75 12.6409 2.75 11.8125C2.75 10.9841 3.42157 10.3125 4.25 10.3125C5.07843 10.3125 5.75 10.9841 5.75 11.8125Z" fill="#FF00FF"/>
</g>
<defs>
<clipPath id="clip0_2278_4829">
<rect width="16" height="16" fill="white"/>
</clipPath>
</defs>
</svg>
