<svg width="16" height="16" viewBox="0 0 16 16" fill="none" xmlns="http://www.w3.org/2000/svg">
<g clip-path="url(#clip0_2278_4828)">
<path d="M12.5625 0H3.4375C1.53902 0 0 1.53902 0 3.4375V12.5625C0 14.461 1.53902 16 3.4375 16H12.5625C14.461 16 16 14.461 16 12.5625V3.4375C16 1.53902 14.461 0 12.5625 0Z" fill="#CC5D15"/>
<path d="M12.5625 0.3125H3.4375C1.71161 0.3125 0.3125 1.71161 0.3125 3.4375V12.5625C0.3125 14.2884 1.71161 15.6875 3.4375 15.6875H12.5625C14.2884 15.6875 15.6875 14.2884 15.6875 12.5625V3.4375C15.6875 1.71161 14.2884 0.3125 12.5625 0.3125Z" fill="#F49C52"/>
<path d="M12.4375 0.625H3.5625C1.94016 0.625 0.625 1.94016 0.625 3.5625V12.4375C0.625 14.0598 1.94016 15.375 3.5625 15.375H12.4375C14.0598 15.375 15.375 14.0598 15.375 12.4375V3.5625C15.375 1.94016 14.0598 0.625 12.4375 0.625Z" fill="url(#paint0_linear_2278_4828)"/>
<path d="M4.25 13.3125C5.07843 13.3125 5.75 12.6409 5.75 11.8125C5.75 10.9841 5.07843 10.3125 4.25 10.3125C3.42157 10.3125 2.75 10.9841 2.75 11.8125C2.75 12.6409 3.42157 13.3125 4.25 13.3125Z" fill="white"/>
<path d="M10 13.3125H7.875C7.875 11.9533 7.33505 10.6497 6.37392 9.68858C5.4128 8.72745 4.10923 8.1875 2.75 8.1875V6.0625C3.70208 6.0625 4.64484 6.25003 5.52446 6.61437C6.40407 6.97872 7.2033 7.51275 7.87652 8.18598C8.54975 8.8592 9.08378 9.65843 9.44813 10.538C9.81247 11.4177 10 12.3604 10 13.3125Z" fill="white"/>
<path d="M11.5 13.3125C11.5 10.9919 10.5781 8.76626 8.93718 7.12532C7.29624 5.48437 5.07064 4.5625 2.75 4.5625V2.375C5.65081 2.375 8.4328 3.52734 10.484 5.57852C12.5352 7.6297 13.6875 10.4117 13.6875 13.3125H11.5Z" fill="white"/>
</g>
<defs>
<linearGradient id="paint0_linear_2278_4828" x1="1.87875" y1="1.87875" x2="14.1212" y2="14.1212" gradientUnits="userSpaceOnUse">
<stop stop-color="#E3702D"/>
<stop offset="0.1071" stop-color="#EA7D31"/>
<stop offset="0.3503" stop-color="#F69537"/>
<stop offset="0.5" stop-color="#FB9E3A"/>
<stop offset="0.7016" stop-color="#EA7C31"/>
<stop offset="0.8866" stop-color="#DE642B"/>
<stop offset="1" stop-color="#D95B29"/>
</linearGradient>
<clipPath id="clip0_2278_4828">
<rect width="16" height="16" fill="white"/>
</clipPath>
</defs>
</svg>
