<svg width="16" height="16" viewBox="0 0 16 16" fill="none" xmlns="http://www.w3.org/2000/svg">
<path fill-rule="evenodd" clip-rule="evenodd" d="M2 8.75C2.41421 8.75 2.75 9.08579 2.75 9.5V11.5C2.75 12.1904 3.30964 12.75 4 12.75H12C12.6904 12.75 13.25 12.1904 13.25 11.5V9.5C13.25 9.08579 13.5858 8.75 14 8.75C14.4142 8.75 14.75 9.08579 14.75 9.5V11.5C14.75 13.0188 13.5188 14.25 12 14.25H4C2.48122 14.25 1.25 13.0188 1.25 11.5V9.5C1.25 9.08579 1.58579 8.75 2 8.75Z" fill="#FF00FF"/>
<path fill-rule="evenodd" clip-rule="evenodd" d="M8 0.75C8.41421 0.75 8.75 1.08579 8.75 1.5V7.68934L10.4697 5.96967C10.7626 5.67678 11.2374 5.67678 11.5303 5.96967C11.8232 6.26256 11.8232 6.73744 11.5303 7.03033L8.53033 10.0303C8.23744 10.3232 7.76256 10.3232 7.46967 10.0303L4.46967 7.03033C4.17678 6.73744 4.17678 6.26256 4.46967 5.96967C4.76256 5.67678 5.23744 5.67678 5.53033 5.96967L7.25 7.68934V1.5C7.25 1.08579 7.58579 0.75 8 0.75Z" fill="#FF00FF"/>
</svg>
