<svg width="16" height="16" viewBox="0 0 16 16" fill="none" xmlns="http://www.w3.org/2000/svg">
<path fill-rule="evenodd" clip-rule="evenodd" d="M4.18292 0.820358C4.55827 0.645194 5.00456 0.807478 5.17972 1.18283L8.00008 7.22647L10.8204 1.18283C10.9956 0.807478 11.4419 0.645194 11.8172 0.820358C12.1926 0.995523 12.3549 1.44181 12.1797 1.81716L8.8258 9.00412L9.47853 10.4401C10.4642 9.60013 12.0334 9.61339 12.9816 10.697L13.0991 10.8313C14.1579 12.0415 13.728 13.9326 12.25 14.566C11.0668 15.0731 9.69519 14.5417 9.16248 13.3697L8.68094 12.3103L8.00008 10.8125L7.31922 12.3103L6.83769 13.3697C6.30498 14.5417 4.93338 15.0731 3.75013 14.566C2.27214 13.9326 1.84222 12.0415 2.9011 10.8313L3.01859 10.697C3.96679 9.61339 5.53596 9.60013 6.52164 10.4401L7.17436 9.00412L3.82045 1.81716C3.64528 1.44181 3.80757 0.995523 4.18292 0.820358ZM5.82445 11.9739C5.55095 11.2822 4.63965 11.1223 4.14745 11.6848L4.02997 11.8191C3.64205 12.2624 3.79955 12.9552 4.34101 13.1873C4.77449 13.3731 5.27698 13.1784 5.47214 12.749L5.82445 11.9739ZM10.1757 11.9739L10.528 12.749C10.7232 13.1784 11.2257 13.3731 11.6592 13.1873C12.2006 12.9552 12.3581 12.2624 11.9702 11.8191L11.8527 11.6848C11.3605 11.1223 10.4492 11.2822 10.1757 11.9739Z" fill="#FF00FF"/>
</svg>
