<svg width="16" height="16" viewBox="0 0 16 16" fill="none" xmlns="http://www.w3.org/2000/svg">
<g clip-path="url(#clip0_2376_2551)">
<path opacity="0.3" d="M15 8C15 7.16737 5.29424 2.8684 2.04529 1.45267C1.64515 1.27831 1.2386 1.66808 1.3854 2.07913L3.37988 7.66366C3.45756 7.88116 3.45756 8.11884 3.37988 8.33634L1.3854 13.9209C1.2386 14.3319 1.64515 14.7217 2.04529 14.5473C5.29424 13.1316 15 8.83263 15 8Z" fill="#FF00FF"/>
<path fill-rule="evenodd" clip-rule="evenodd" d="M0.679221 2.33138C0.319855 1.32515 1.31999 0.318457 2.34502 0.765111C3.97145 1.47383 7.22 2.90679 10.0649 4.2685C11.4852 4.94831 12.8183 5.6167 13.8015 6.17166C14.2901 6.44742 14.7129 6.70667 15.0213 6.93365C15.1731 7.04539 15.322 7.16722 15.4405 7.29504C15.4999 7.35915 15.568 7.4422 15.6248 7.54234C15.6787 7.63756 15.7501 7.79696 15.7501 8C15.7501 8.20304 15.6787 8.36244 15.6248 8.45766C15.568 8.5578 15.4999 8.64085 15.4405 8.70496C15.322 8.83279 15.1731 8.95461 15.0213 9.06635C14.7129 9.29333 14.2901 9.55258 13.8015 9.82834C12.8183 10.3833 11.4852 11.0517 10.0649 11.7315C7.22 13.0932 3.97146 14.5262 2.34502 15.2349C1.32 15.6815 0.319855 14.6748 0.679221 13.6686L2.70373 8L0.679221 2.33138ZM4.02866 8.75L2.28841 13.6227C4.02068 12.8639 6.88388 11.5911 9.41732 10.3785C10.8296 9.70252 12.126 9.05157 13.0642 8.52206C13.4163 8.32331 13.7065 8.14804 13.9288 8C13.7065 7.85196 13.4163 7.67669 13.0642 7.47795C12.126 6.94843 10.8296 6.29748 9.41732 5.6215C6.88388 4.40888 4.02068 3.13612 2.28841 2.3773L4.02866 7.25H7.25013C7.66434 7.25 8.00013 7.58579 8.00013 8C8.00013 8.41421 7.66434 8.75 7.25013 8.75H4.02866ZM14.3451 8.32006C14.345 8.32004 14.3446 8.31951 14.3437 8.31848C14.3447 8.31956 14.3451 8.32008 14.3451 8.32006Z" fill="#FF00FF"/>
</g>
<defs>
<clipPath id="clip0_2376_2551">
<rect width="16" height="16" fill="white"/>
</clipPath>
</defs>
</svg>
