<svg width="16" height="16" viewBox="0 0 16 16" fill="none" xmlns="http://www.w3.org/2000/svg">
<g clip-path="url(#clip0_2376_2637)">
<path fill-rule="evenodd" clip-rule="evenodd" d="M6.86573 0.650419C7.54862 0.227122 8.45133 0.227123 9.13422 0.650419C9.91269 1.13296 11.2298 1.70604 12.7439 1.38579C13.3227 1.26337 13.9279 1.39284 14.3916 1.70393C14.8648 2.02143 15.2408 2.5708 15.2012 3.27047C14.9107 8.3967 13.367 11.5071 11.7565 13.3487C10.9551 14.2651 10.1476 14.8549 9.49316 15.2189C9.16664 15.4005 8.8757 15.5273 8.63958 15.6106C8.43635 15.6823 8.19634 15.75 7.99998 15.75C7.80362 15.75 7.5636 15.6823 7.36037 15.6106C7.12425 15.5273 6.83332 15.4005 6.5068 15.2189C5.85239 14.8549 5.0449 14.2651 4.24347 13.3487C2.63293 11.5071 1.08921 8.3967 0.798802 3.27047C0.759164 2.5708 1.13515 2.02143 1.60839 1.70393C2.07208 1.39284 2.67722 1.26337 3.25604 1.38579C4.77017 1.70604 6.08727 1.13296 6.86573 0.650419ZM8.34394 1.92535C8.14517 1.80215 7.85478 1.80215 7.65602 1.92535C6.72498 2.50247 5.00067 3.28798 2.94564 2.85332C2.77326 2.81686 2.58007 2.85834 2.44408 2.94957C2.31765 3.03439 2.29261 3.11871 2.2964 3.18563C2.57114 8.03515 4.01669 10.8108 5.37259 12.3612C6.05438 13.1408 6.7244 13.6235 7.23594 13.908C7.49239 14.0507 7.70652 14.1421 7.85935 14.196C7.92436 14.219 7.97063 14.2325 7.99998 14.2403C8.02933 14.2325 8.0756 14.219 8.1406 14.196C8.29343 14.1421 8.50757 14.0507 8.76402 13.908C9.27555 13.6235 9.94558 13.1408 10.6274 12.3612C11.9833 10.8108 13.4288 8.03515 13.7036 3.18563C13.7073 3.11872 13.6823 3.0344 13.5559 2.94957C13.4199 2.85834 13.2267 2.81686 13.0543 2.85332C10.9993 3.28798 9.27498 2.50247 8.34394 1.92535Z" fill="#FF00FF"/>
</g>
<defs>
<clipPath id="clip0_2376_2637">
<rect width="16" height="16" fill="white"/>
</clipPath>
</defs>
</svg>
