<svg width="16" height="16" viewBox="0 0 16 16" fill="none" xmlns="http://www.w3.org/2000/svg">
<g clip-path="url(#clip0_2288_3470)">
<path fill-rule="evenodd" clip-rule="evenodd" d="M6.86573 0.650434C7.54862 0.227138 8.45133 0.227138 9.13422 0.650435C9.91269 1.13298 11.2298 1.70606 12.7439 1.38581C13.3227 1.26338 13.9279 1.39286 14.3916 1.70395C14.8648 2.02144 15.2408 2.57081 15.2012 3.27049C14.9107 8.39671 13.367 11.5071 11.7565 13.3487C10.9551 14.2651 10.1476 14.8549 9.49316 15.2189C9.16664 15.4005 8.8757 15.5273 8.63958 15.6106C8.43635 15.6823 8.19634 15.75 7.99998 15.75C7.80362 15.75 7.5636 15.6823 7.36037 15.6106C7.12425 15.5273 6.83332 15.4005 6.5068 15.2189C5.85239 14.8549 5.0449 14.2651 4.24347 13.3487C2.63293 11.5071 1.08921 8.39671 0.798802 3.27049C0.759164 2.57081 1.13515 2.02144 1.60839 1.70395C2.07208 1.39286 2.67722 1.26338 3.25604 1.38581C4.77017 1.70606 6.08727 1.13298 6.86573 0.650434ZM8.34394 1.92537C8.14517 1.80216 7.85478 1.80216 7.65602 1.92537C6.72498 2.50248 5.00067 3.288 2.94564 2.85334C2.77326 2.81688 2.58007 2.85835 2.44408 2.94959C2.31765 3.03441 2.29261 3.11873 2.2964 3.18565C2.57114 8.03516 4.01669 10.8108 5.37259 12.3612C6.05438 13.1408 6.7244 13.6235 7.23594 13.908C7.49239 14.0507 7.70652 14.1421 7.85935 14.1961C7.92436 14.219 7.97063 14.2325 7.99998 14.2403C8.02933 14.2325 8.0756 14.219 8.1406 14.1961C8.29343 14.1421 8.50757 14.0507 8.76402 13.908C9.27555 13.6235 9.94558 13.1408 10.6274 12.3612C11.9833 10.8108 13.4288 8.03516 13.7036 3.18565C13.7073 3.11873 13.6823 3.03441 13.5559 2.94959C13.4199 2.85835 13.2267 2.81688 13.0543 2.85334C10.9993 3.288 9.27498 2.50248 8.34394 1.92537Z" fill="#FF00FF"/>
</g>
<defs>
<clipPath id="clip0_2288_3470">
<rect width="16" height="16" fill="white"/>
</clipPath>
</defs>
</svg>
