<svg width="16" height="16" viewBox="0 0 16 16" fill="none" xmlns="http://www.w3.org/2000/svg">
<path fill-rule="evenodd" clip-rule="evenodd" d="M8.03973 1.39209H7.96027L3.55834 1.85902L0 6.65178L8 15.9989L16 6.65178L12.4417 1.85902L8.03973 1.39209ZM7.04759 2.24647L3.96585 2.57277L1.23066 6.25674H3.36296L7.04759 2.24647ZM3.31885 7.05674H1.33743L6.22856 12.771L3.31885 7.05674ZM4.16387 7.05674H11.8352L7.99937 14.589L4.16387 7.05674ZM11.6142 6.25674H4.3858L7.99937 2.32341L11.6142 6.25674ZM12.6811 7.05674L9.77311 12.7676L14.6613 7.05674H12.6811ZM14.7681 6.25674H12.637L8.95234 2.24646L12.0336 2.57277L14.7681 6.25674Z" fill="#FF00FF"/>
</svg>
