<svg width="16" height="16" viewBox="0 0 16 16" fill="none" xmlns="http://www.w3.org/2000/svg">
<g clip-path="url(#clip0_2179_3638)">
<path fill-rule="evenodd" clip-rule="evenodd" d="M1.30955 7.09753C1.27016 7.39276 1.24983 7.69403 1.24983 8.00004C1.24983 11.7335 4.27638 14.76 8.00983 14.76C8.31585 14.76 8.61711 14.7397 8.91236 14.7003C9.51581 15.0255 10.2062 15.21 10.9398 15.21C13.3036 15.21 15.2198 13.2938 15.2198 10.93C15.2198 10.1965 15.0353 9.50609 14.7101 8.90265C14.7495 8.60739 14.7698 8.30609 14.7698 8.00004C14.7698 4.26659 11.7433 1.24004 8.00983 1.24004C7.7038 1.24004 7.40251 1.26037 7.10726 1.29977C6.50381 0.97458 5.81336 0.790039 5.0798 0.790039C2.71603 0.790039 0.799805 2.70626 0.799805 5.07004C0.799805 5.8036 0.984352 6.49406 1.30955 7.09753ZM5.54481 7.17005C5.70855 7.45067 5.93431 7.69011 6.20481 7.87005L6.21481 7.83005C6.57654 8.06322 6.95999 8.26081 7.35981 8.42005C7.80481 8.61005 8.15481 8.76505 8.39981 8.89505C8.60759 9.00026 8.79676 9.13875 8.95981 9.30505C9.08637 9.44029 9.15462 9.6199 9.14981 9.80505C9.15557 9.93073 9.13084 10.0559 9.07773 10.17C9.02462 10.284 8.94471 10.3836 8.84481 10.46C8.58033 10.639 8.26326 10.7235 7.94481 10.7001C7.76491 10.7034 7.58527 10.6849 7.40981 10.6451C7.26763 10.6151 7.12866 10.5716 6.99481 10.515C6.87343 10.4701 6.73183 10.4009 6.55548 10.3147C6.5357 10.305 6.51548 10.2951 6.49481 10.2851C6.32945 10.1989 6.14624 10.1527 5.95981 10.1501C5.79308 10.142 5.62981 10.1994 5.50481 10.3101C5.4446 10.3667 5.39769 10.436 5.36743 10.5129C5.33717 10.5899 5.32432 10.6726 5.32981 10.755C5.32678 10.9116 5.37219 11.0653 5.45981 11.1951C5.57116 11.3328 5.71332 11.4424 5.87481 11.515C6.50518 11.788 7.18825 11.9178 7.87481 11.8951C8.37696 11.9051 8.87675 11.8238 9.34981 11.6551C9.74982 11.5194 10.0988 11.2647 10.3498 10.925C10.5945 10.5719 10.719 10.1494 10.7048 9.72005C10.714 9.36954 10.6257 9.02337 10.4498 8.72005C10.2709 8.43089 10.0301 8.18499 9.74481 8.00005C9.38671 7.77218 9.00644 7.58121 8.60981 7.43005L8.47981 7.38005C8.05981 7.21005 7.76481 7.07505 7.55981 6.97505C7.37278 6.88839 7.20329 6.76806 7.05981 6.62005C6.94253 6.4958 6.87801 6.3309 6.87981 6.16005C6.8733 6.02872 6.90238 5.89806 6.96399 5.78189C7.0256 5.66571 7.11744 5.56834 7.22981 5.50005C7.49683 5.34594 7.80169 5.26973 8.10981 5.28005C8.34758 5.27626 8.58476 5.30485 8.81481 5.36505C9.06209 5.4372 9.30429 5.52573 9.53981 5.63005C9.6372 5.67455 9.74275 5.69838 9.84981 5.70005C9.9263 5.70238 10.0024 5.68843 10.0731 5.65912C10.1438 5.62981 10.2074 5.58582 10.2598 5.53005C10.316 5.46883 10.3594 5.39712 10.3878 5.31903C10.4161 5.24094 10.4287 5.15802 10.4248 5.07505C10.4269 4.91679 10.3699 4.76343 10.2648 4.64505C10.1272 4.4975 9.95553 4.38591 9.76481 4.32005C9.55484 4.247 9.33907 4.1918 9.11981 4.15505C8.81225 4.10629 8.50121 4.08287 8.18981 4.08505C7.71475 4.08247 7.24281 4.16197 6.79481 4.32005C6.38241 4.45952 6.01358 4.70426 5.72481 5.03005C5.45036 5.35718 5.30459 5.77316 5.31481 6.20005C5.3066 6.5378 5.38583 6.87194 5.54481 7.17005Z" fill="#FF00FF"/>
</g>
<defs>
<clipPath id="clip0_2179_3638">
<rect width="16" height="16" fill="white"/>
</clipPath>
</defs>
</svg>
