<svg width="16" height="16" viewBox="0 0 16 16" fill="none" xmlns="http://www.w3.org/2000/svg">
<g clip-path="url(#clip0_2179_3638)">
<path fill-rule="evenodd" clip-rule="evenodd" d="M0.565601 6.99861C0.521896 7.32619 0.499334 7.66047 0.499334 8.00001C0.499334 12.1425 3.85751 15.5007 8.00004 15.5007C8.33958 15.5007 8.67386 15.4782 9.00145 15.4344C9.67103 15.7953 10.4371 16 11.251 16C13.8738 16 16 13.8738 16 11.2511C16 10.4372 15.7953 9.67108 15.4345 9.00153C15.4782 8.6739 15.5007 8.33959 15.5007 8.00001C15.5007 3.85749 12.1426 0.499307 8.00004 0.499307C7.66047 0.499307 7.32618 0.521871 6.99857 0.565582C6.329 0.204761 5.56289 0 4.74897 0C2.12618 0 0 2.12618 0 4.74897C0 5.56291 0.204768 6.32902 0.565601 6.99861ZM5.26493 7.07908C5.4466 7.39044 5.69709 7.65612 5.99724 7.85578L6.00834 7.81139C6.4097 8.07012 6.83517 8.28936 7.2788 8.46604C7.77256 8.67686 8.16091 8.84884 8.43275 8.99309C8.6633 9.10983 8.87319 9.2635 9.05411 9.44801C9.19453 9.59807 9.27026 9.79736 9.26493 10.0028C9.27132 10.1423 9.24388 10.2812 9.18495 10.4077C9.12602 10.5343 9.03735 10.6447 8.92651 10.7296C8.63305 10.9281 8.28124 11.0219 7.9279 10.9959C7.72828 10.9996 7.52895 10.9791 7.33428 10.9348C7.17651 10.9016 7.02231 10.8533 6.8738 10.7906C6.73912 10.7407 6.582 10.6639 6.38633 10.5683C6.36438 10.5575 6.34195 10.5466 6.31902 10.5354C6.13554 10.4398 5.93225 10.3885 5.7254 10.3856C5.5404 10.3767 5.35924 10.4404 5.22054 10.5631C5.15374 10.626 5.10168 10.7029 5.0681 10.7882C5.03453 10.8736 5.02028 10.9654 5.02637 11.0569C5.02301 11.2306 5.07338 11.4011 5.17061 11.5451C5.29416 11.6979 5.45189 11.8195 5.63108 11.9002C6.33052 12.2031 7.08843 12.3471 7.85023 12.3218C8.40739 12.3329 8.96194 12.2427 9.48685 12.0555C9.93068 11.905 10.3179 11.6224 10.5964 11.2455C10.8679 10.8537 11.006 10.3849 10.9903 9.90848C11.0005 9.51957 10.9025 9.13547 10.7074 8.79891C10.5089 8.47807 10.2417 8.20522 9.92513 8.00002C9.52779 7.74719 9.10584 7.53528 8.66576 7.36757L8.52152 7.31209C8.0555 7.12346 7.72817 6.97367 7.50071 6.86271C7.29318 6.76656 7.10512 6.63304 6.94593 6.46881C6.81579 6.33095 6.7442 6.14798 6.7462 5.95841C6.73898 5.81269 6.77125 5.66771 6.8396 5.53881C6.90796 5.40991 7.00987 5.30187 7.13455 5.22609C7.43083 5.0551 7.76909 4.97054 8.11098 4.98199C8.3748 4.97778 8.63796 5.00951 8.89322 5.0763C9.1676 5.15636 9.43634 5.25459 9.69766 5.37034C9.80572 5.41971 9.92284 5.44616 10.0416 5.44801C10.1265 5.45059 10.2109 5.43511 10.2894 5.40259C10.3678 5.37008 10.4384 5.32126 10.4966 5.25938C10.5588 5.19145 10.6071 5.11188 10.6385 5.02524C10.6699 4.93859 10.6839 4.84659 10.6796 4.75453C10.682 4.57892 10.6187 4.40877 10.5021 4.27741C10.3494 4.11369 10.1589 3.98988 9.94732 3.9168C9.71434 3.83574 9.47493 3.7745 9.23164 3.73372C8.89038 3.67961 8.54526 3.65364 8.19974 3.65605C7.67263 3.65319 7.14898 3.7414 6.65189 3.9168C6.1943 4.07155 5.78505 4.3431 5.46465 4.7046C5.16012 5.06757 4.99838 5.52913 5.00972 6.00279C5.00061 6.37755 5.08852 6.74831 5.26493 7.07908Z" fill="#FF00FF"/>
</g>
<defs>
<clipPath id="clip0_2179_3638">
<rect width="16" height="16" fill="white"/>
</clipPath>
</defs>
</svg>
