<svg width="16" height="16" viewBox="0 0 16 16" fill="none" xmlns="http://www.w3.org/2000/svg">
<path opacity="0.4" fill-rule="evenodd" clip-rule="evenodd" d="M9.13101 2.47929C9.09185 2.2835 8.85028 2.21035 8.70909 2.35155L5.75 5.31063V10.6893L8.70909 13.6484C8.85028 13.7896 9.09185 13.7165 9.13101 13.5207L9.26456 12.8529C9.3458 12.4467 9.74092 12.1833 10.1471 12.2645C10.5533 12.3458 10.8167 12.7409 10.7354 13.1471L10.6019 13.8148C10.3278 15.1854 8.63677 15.6974 7.64843 14.7091L4.68934 11.75H2.5C1.5335 11.75 0.75 10.9665 0.75 9.99997V5.99997C0.75 5.03348 1.5335 4.24997 2.5 4.24997H4.68934L7.64843 1.29089C8.63676 0.30255 10.3278 0.814545 10.6019 2.18512L10.7354 2.85289C10.8167 3.25906 10.5533 3.65418 10.1471 3.73541C9.74092 3.81664 9.3458 3.55323 9.26456 3.14706L9.13101 2.47929ZM4.25 5.74997H2.5C2.36193 5.74997 2.25 5.8619 2.25 5.99997V9.99997C2.25 10.138 2.36193 10.25 2.5 10.25H4.25V5.74997Z" fill="#FF00FF"/>
<path fill-rule="evenodd" clip-rule="evenodd" d="M9.46967 5.46967C9.76256 5.17678 10.2374 5.17678 10.5303 5.46967L12 6.93934L13.4697 5.46967C13.7626 5.17678 14.2374 5.17678 14.5303 5.46967C14.8232 5.76256 14.8232 6.23744 14.5303 6.53033L13.0607 8L14.5303 9.46967C14.8232 9.76256 14.8232 10.2374 14.5303 10.5303C14.2374 10.8232 13.7626 10.8232 13.4697 10.5303L12 9.06066L10.5303 10.5303C10.2374 10.8232 9.76256 10.8232 9.46967 10.5303C9.17678 10.2374 9.17678 9.76256 9.46967 9.46967L10.9393 8L9.46967 6.53033C9.17678 6.23744 9.17678 5.76256 9.46967 5.46967Z" fill="#242320"/>
</svg>
