<svg width="16" height="16" viewBox="0 0 16 16" fill="none" xmlns="http://www.w3.org/2000/svg">
<path fill-rule="evenodd" clip-rule="evenodd" d="M8.70909 2.35155C8.85028 2.21035 9.09185 2.2835 9.13101 2.47929L9.26456 3.14706C9.3458 3.55323 9.74092 3.81664 10.1471 3.73541C10.5533 3.65418 10.8167 3.25906 10.7354 2.85289L10.6019 2.18512C10.3278 0.814545 8.63676 0.30255 7.64843 1.29089L4.68934 4.24997H2.5C1.5335 4.24997 0.75 5.03348 0.75 5.99997V9.99997C0.75 10.9665 1.5335 11.75 2.5 11.75H4.68934L7.64843 14.7091C8.63677 15.6974 10.3278 15.1854 10.6019 13.8148L10.7354 13.1471C10.8167 12.7409 10.5533 12.3458 10.1471 12.2645C9.74092 12.1833 9.3458 12.4467 9.26456 12.8529L9.13101 13.5207C9.09185 13.7165 8.85028 13.7896 8.70909 13.6484L5.75 10.6893V5.31063L8.70909 2.35155ZM2.5 5.74997H4.25V10.25H2.5C2.36193 10.25 2.25 10.138 2.25 9.99997V5.99997C2.25 5.8619 2.36193 5.74997 2.5 5.74997ZM10.5303 5.46967C10.2374 5.17678 9.76256 5.17678 9.46967 5.46967C9.17678 5.76257 9.17678 6.23744 9.46967 6.53033L10.9393 8L9.46967 9.46967C9.17678 9.76257 9.17678 10.2374 9.46967 10.5303C9.76256 10.8232 10.2374 10.8232 10.5303 10.5303L12 9.06066L13.4697 10.5303C13.7626 10.8232 14.2374 10.8232 14.5303 10.5303C14.8232 10.2374 14.8232 9.76257 14.5303 9.46967L13.0607 8L14.5303 6.53033C14.8232 6.23744 14.8232 5.76257 14.5303 5.46967C14.2374 5.17678 13.7626 5.17678 13.4697 5.46967L12 6.93934L10.5303 5.46967Z" fill="#FF00FF"/>
</svg>
