<svg width="16" height="16" viewBox="0 0 16 16" fill="none" xmlns="http://www.w3.org/2000/svg">
<g clip-path="url(#clip0_2250_5612)">
<path fill-rule="evenodd" clip-rule="evenodd" d="M10.25 1.49998C10.25 1.21353 10.0868 0.952091 9.82951 0.826239C9.57219 0.700386 9.26565 0.732098 9.03955 0.907961L4.74267 4.24998H1.5C1.08579 4.24998 0.75 4.58576 0.75 4.99998V11C0.75 11.4142 1.08579 11.75 1.5 11.75H4.74267L9.03955 15.092C9.26565 15.2679 9.57219 15.2996 9.82951 15.1737C10.0868 15.0479 10.25 14.7864 10.25 14.5V1.49998ZM2.25 5.74998H4.25V10.25H2.25V5.74998ZM8.75 12.9665L5.75 10.6332V5.36679L8.75 3.03346V12.9665ZM14.5 8C14.5 9.26553 14.1383 10.4466 13.5127 11.4455L14.7849 12.2406C15.5549 11.0112 16 9.55757 16 8C16 6.44242 15.5549 4.98882 14.7849 3.75944L13.5127 4.55455C14.1383 5.55341 14.5 6.73447 14.5 8ZM13 8C13 7.02652 12.7218 6.11801 12.2406 5.34965L10.9684 6.14475C11.3053 6.68261 11.5 7.31856 11.5 8C11.5 8.68144 11.3053 9.31739 10.9684 9.85524L12.2406 10.6503C12.7218 9.88199 13 8.97348 13 8Z" fill="#FF00FF"/>
</g>
<defs>
<clipPath id="clip0_2250_5612">
<rect width="16" height="16" fill="white"/>
</clipPath>
</defs>
</svg>
