<svg width="16" height="16" viewBox="0 0 16 16" fill="none" xmlns="http://www.w3.org/2000/svg">
<path fill-rule="evenodd" clip-rule="evenodd" d="M8.75 2.9142C8.75 2.69147 8.48071 2.57993 8.32322 2.73742L5.75 5.31065V10.6893L8.32323 13.2625C8.48071 13.42 8.75 13.3085 8.75 13.0858V2.9142ZM4.25 10.25V5.74998H2.5C2.36193 5.74998 2.25 5.86191 2.25 5.99998V9.99998C2.25 10.1381 2.36193 10.25 2.5 10.25H4.25ZM4.68934 4.24998L7.26256 1.67676C8.365 0.574324 10.25 1.35511 10.25 2.9142V13.0858C10.25 14.6449 8.36501 15.4257 7.26256 14.3232L4.68934 11.75H2.5C1.5335 11.75 0.75 10.9665 0.75 9.99998V5.99998C0.75 5.03349 1.5335 4.24998 2.5 4.24998H4.68934ZM12 5.25C12.4142 5.25 12.75 5.58579 12.75 6V10C12.75 10.4142 12.4142 10.75 12 10.75C11.5858 10.75 11.25 10.4142 11.25 10V6C11.25 5.58579 11.5858 5.25 12 5.25ZM15.75 4C15.75 3.58579 15.4142 3.25 15 3.25C14.5858 3.25 14.25 3.58579 14.25 4V12C14.25 12.4142 14.5858 12.75 15 12.75C15.4142 12.75 15.75 12.4142 15.75 12V4Z" fill="#FF00FF"/>
</svg>
