<svg width="16" height="16" viewBox="0 0 16 16" fill="none" xmlns="http://www.w3.org/2000/svg">
<path fill-rule="evenodd" clip-rule="evenodd" d="M10.2115 1.26281C10.1345 1.03189 9.9503 0.852693 9.71734 0.782158C9.48438 0.711623 9.23168 0.758527 9.03955 0.907963L4.74267 4.24998H1.5C1.08579 4.24998 0.75 4.58576 0.75 4.99998V11C0.75 11.4142 1.08579 11.75 1.5 11.75H4.74267L9.03955 15.092C9.23168 15.2414 9.48438 15.2883 9.71734 15.2178C9.9503 15.1473 10.1345 14.9681 10.2115 14.7371L10.7115 13.2371C10.8425 12.8442 10.6301 12.4195 10.2372 12.2885C9.84421 12.1575 9.41947 12.3698 9.28849 12.7628L9.1237 13.2572L5.75 10.6332V5.36679L9.1237 2.7428L9.28849 3.23715C9.41947 3.63011 9.84421 3.84248 10.2372 3.71149C10.6301 3.5805 10.8425 3.15576 10.7115 2.76281L10.2115 1.26281ZM2.25 5.74998H4.25V10.25H2.25V5.74998ZM10.5303 5.46968C10.2374 5.17678 9.76256 5.17678 9.46967 5.46968C9.17678 5.76257 9.17678 6.23744 9.46967 6.53034L10.9393 8.00001L9.46967 9.46968C9.17678 9.76257 9.17678 10.2374 9.46967 10.5303C9.76256 10.8232 10.2374 10.8232 10.5303 10.5303L12 9.06067L13.4697 10.5303C13.7626 10.8232 14.2374 10.8232 14.5303 10.5303C14.8232 10.2374 14.8232 9.76257 14.5303 9.46968L13.0607 8.00001L14.5303 6.53034C14.8232 6.23744 14.8232 5.76257 14.5303 5.46968C14.2374 5.17678 13.7626 5.17678 13.4697 5.46968L12 6.93935L10.5303 5.46968Z" fill="#FF00FF"/>
</svg>
