<svg width="16" height="16" viewBox="0 0 16 16" fill="none" xmlns="http://www.w3.org/2000/svg">
<path fill-rule="evenodd" clip-rule="evenodd" d="M8.75 2.91418C8.75 2.69146 8.48071 2.57992 8.32322 2.73741L5.75 5.31063V10.6893L8.32323 13.2625C8.48071 13.42 8.75 13.3085 8.75 13.0858V2.91418ZM4.25 10.25V5.74997H2.5C2.36193 5.74997 2.25 5.8619 2.25 5.99997V9.99997C2.25 10.138 2.36193 10.25 2.5 10.25H4.25ZM4.68934 4.24997L7.26256 1.67675C8.365 0.574308 10.25 1.3551 10.25 2.91418V13.0858C10.25 14.6448 8.36501 15.4256 7.26256 14.3232L4.68934 11.75H2.5C1.5335 11.75 0.75 10.9665 0.75 9.99997V5.99997C0.75 5.03347 1.5335 4.24997 2.5 4.24997H4.68934ZM12 5.24998C12.4142 5.24998 12.75 5.58577 12.75 5.99998V9.99998C12.75 10.4142 12.4142 10.75 12 10.75C11.5858 10.75 11.25 10.4142 11.25 9.99998V5.99998C11.25 5.58577 11.5858 5.24998 12 5.24998ZM15.75 3.99998C15.75 3.58577 15.4142 3.24998 15 3.24998C14.5858 3.24998 14.25 3.58577 14.25 3.99998V12C14.25 12.4142 14.5858 12.75 15 12.75C15.4142 12.75 15.75 12.4142 15.75 12V3.99998Z" fill="#FF00FF"/>
</svg>
