<svg width="16" height="16" viewBox="0 0 16 16" fill="none" xmlns="http://www.w3.org/2000/svg">
<g clip-path="url(#clip0_2179_3719)">
<path d="M7.99969 0.0263672C3.59503 0.0263672 0.0241699 3.59713 0.0241699 8.0018C0.0241699 12.4067 3.59503 15.9771 7.99969 15.9771C12.4048 15.9771 15.9753 12.4067 15.9753 8.0018C15.9753 3.59741 12.4049 0.0263672 7.99969 0.0263672Z" fill="#1ED760"/>
<path d="M11.6572 11.5292C11.5143 11.7635 11.2077 11.8378 10.9734 11.694C9.10081 10.5502 6.74348 10.2911 3.96729 10.9254C3.69976 10.9864 3.4331 10.8187 3.37215 10.5511C3.31091 10.2835 3.47786 10.0168 3.74605 9.95588C6.78415 9.2615 9.39015 9.56064 11.4924 10.8454C11.7267 10.9892 11.801 11.2949 11.6572 11.5292ZM12.6334 9.35731C12.4534 9.65017 12.0705 9.74255 11.7781 9.56255C9.63434 8.24455 6.36643 7.86293 3.83072 8.63264C3.50186 8.73198 3.15453 8.54664 3.05472 8.21836C2.95567 7.8895 3.1411 7.54283 3.46938 7.44283C6.36586 6.56398 9.96672 6.98969 12.4286 8.50255C12.721 8.68255 12.8134 9.06531 12.6334 9.35731ZM12.7172 7.09598C10.1467 5.56922 5.90577 5.42883 3.45157 6.17369C3.05748 6.29322 2.64072 6.07074 2.52129 5.67664C2.40186 5.28236 2.62415 4.86588 3.01853 4.74607C5.83576 3.89083 10.5191 4.05607 13.4785 5.81293C13.8338 6.02331 13.95 6.48112 13.7395 6.83512C13.53 7.1896 13.0705 7.30645 12.7172 7.09598Z" fill="black"/>
</g>
<defs>
<clipPath id="clip0_2179_3719">
<rect width="16" height="16" fill="white"/>
</clipPath>
</defs>
</svg>
