<svg width="16" height="16" viewBox="0 0 16 16" fill="none" xmlns="http://www.w3.org/2000/svg">
<g clip-path="url(#clip0_2179_3719)">
<path d="M7.99969 0.0263672C3.59503 0.0263672 0.0241699 3.59713 0.0241699 8.0018C0.0241699 12.4067 3.59503 15.9771 7.99969 15.9771C12.4048 15.9771 15.9753 12.4067 15.9753 8.0018C15.9753 3.59741 12.4049 0.0263672 7.99969 0.0263672Z" fill="#1ED760"/>
<path d="M11.6572 11.5293C11.5143 11.7636 11.2077 11.8379 10.9734 11.6941C9.10081 10.5503 6.74348 10.2912 3.96729 10.9255C3.69976 10.9865 3.4331 10.8189 3.37215 10.5512C3.31091 10.2836 3.47786 10.017 3.74605 9.95601C6.78415 9.26162 9.39015 9.56077 11.4924 10.8455C11.7267 10.9893 11.801 11.2951 11.6572 11.5293ZM12.6334 9.35743C12.4534 9.65029 12.0705 9.74267 11.7781 9.56267C9.63434 8.24467 6.36643 7.86305 3.83072 8.63277C3.50186 8.7321 3.15453 8.54677 3.05472 8.21848C2.95567 7.88962 3.1411 7.54296 3.46938 7.44296C6.36586 6.5641 9.96672 6.98981 12.4286 8.50267C12.721 8.68267 12.8134 9.06543 12.6334 9.35743ZM12.7172 7.0961C10.1467 5.56934 5.90577 5.42896 3.45157 6.17381C3.05748 6.29334 2.64072 6.07086 2.52129 5.67677C2.40186 5.28248 2.62415 4.866 3.01853 4.74619C5.83576 3.89096 10.5191 4.0562 13.4785 5.81305C13.8338 6.02343 13.95 6.48124 13.7395 6.83524C13.53 7.18972 13.0705 7.30658 12.7172 7.0961Z" fill="black"/>
</g>
<defs>
<clipPath id="clip0_2179_3719">
<rect width="16" height="16" fill="white"/>
</clipPath>
</defs>
</svg>
