<svg width="16" height="16" viewBox="0 0 16 16" fill="none" xmlns="http://www.w3.org/2000/svg">
<path fill-rule="evenodd" clip-rule="evenodd" d="M8.2704 2.82628C8.35084 2.48843 8.6527 2.25 9 2.25H14C14.4142 2.25 14.75 2.58579 14.75 3C14.75 3.41421 14.4142 3.75 14 3.75H9.59239L7.2296 13.6737C7.15537 13.9855 6.89123 14.2157 6.57222 14.2465C6.25321 14.2774 5.94985 14.1021 5.81723 13.8104L3.51706 8.75H2C1.58579 8.75 1.25 8.41421 1.25 8C1.25 7.58579 1.58579 7.25 2 7.25H4C4.29411 7.25 4.56107 7.4219 4.68277 7.68965L6.27725 11.1975L8.2704 2.82628Z" fill="#FF00FF"/>
</svg>
