<svg width="16" height="16" viewBox="0 0 16 16" fill="none" xmlns="http://www.w3.org/2000/svg">
<path fill-rule="evenodd" clip-rule="evenodd" d="M7.11821 0.646087C7.66309 0.328237 8.33687 0.328237 8.88176 0.646086L12.8971 2.98838C14.0548 3.66367 14.0548 5.33632 12.8971 6.01161L8.88176 8.35391C8.33687 8.67175 7.66309 8.67175 7.11821 8.35391L3.10285 6.01161C1.94521 5.33632 1.94521 3.66367 3.10284 2.98838L7.11821 0.646087ZM8.12595 1.94175C8.04811 1.89635 7.95186 1.89635 7.87402 1.94175L3.85865 4.28405C3.69328 4.38052 3.69327 4.61947 3.85865 4.71594L7.87402 7.05824C7.95186 7.10364 8.04811 7.10364 8.12595 7.05824L12.1413 4.71594C12.3067 4.61947 12.3067 4.38052 12.1413 4.28405L8.12595 1.94175ZM2.35215 8.20543C2.56086 7.84764 3.0201 7.72679 3.37789 7.9355L6.86627 9.97039C7.56684 10.3791 8.43313 10.3791 9.13369 9.97039L12.6221 7.9355C12.9799 7.72679 13.4391 7.84764 13.6478 8.20543C13.8565 8.56322 13.7357 9.02246 13.3779 9.23117L9.8895 11.2661C8.72189 11.9472 7.27808 11.9472 6.11047 11.2661L2.62208 9.23117C2.26429 9.02246 2.14344 8.56322 2.35215 8.20543ZM3.3779 11.3522C3.02011 11.1435 2.56088 11.2643 2.35217 11.6221C2.14346 11.9799 2.26431 12.4391 2.6221 12.6478L6.11048 14.6827C7.27809 15.3638 8.72191 15.3638 9.88952 14.6827L13.3779 12.6478C13.7357 12.4391 13.8565 11.9799 13.6478 11.6221C13.4391 11.2643 12.9799 11.1435 12.6221 11.3522L9.13371 13.3871C8.43314 13.7957 7.56685 13.7957 6.86629 13.3871L3.3779 11.3522Z" fill="#FF00FF"/>
</svg>
