<svg width="16" height="16" viewBox="0 0 16 16" fill="none" xmlns="http://www.w3.org/2000/svg">
<g clip-path="url(#clip0_2179_3746)">
<path d="M11.5528 11.408L4.57098 9.94053L4.86447 8.54417L11.8463 10.0123L11.5528 11.408Z" fill="#FF00FF"/>
<path d="M11.9624 9.60957L5.49486 6.59741L6.09722 5.30392L12.5649 8.31608L11.9624 9.60957Z" fill="#FF00FF"/>
<path d="M12.7676 7.99028L7.28448 3.42436L8.19764 2.32795L13.6807 6.89374L12.7676 7.99028Z" fill="#FF00FF"/>
<path d="M9.67877 0.90096L10.8238 0.0493164L15.0817 5.77446L13.9367 6.62597L9.67877 0.90096Z" fill="#FF00FF"/>
<path d="M11.5511 13.2062H4.44331V11.7847H11.5511V13.2062Z" fill="#FF00FF"/>
<path d="M14.3941 10.3631H12.9726V14.6278H3.02166V10.3631H1.6001V16.0493H14.3941V10.3631Z" fill="#FF00FF"/>
</g>
<defs>
<clipPath id="clip0_2179_3746">
<rect width="16" height="16" fill="white"/>
</clipPath>
</defs>
</svg>
