<svg width="16" height="16" viewBox="0 0 16 16" fill="none" xmlns="http://www.w3.org/2000/svg">
<g clip-path="url(#clip0_2179_3745)">
<path fill-rule="evenodd" clip-rule="evenodd" d="M12.9726 10.3633H14.3941V16.0495H1.6001V10.3633H3.02166V14.628H12.9726V10.3633Z" fill="#BBBBBB"/>
<path d="M4.57078 9.94053L11.5526 11.408L11.8461 10.0123L4.86427 8.54417L4.57078 9.94053ZM5.49467 6.59741L11.9623 9.60957L12.5647 8.31608L6.09702 5.30392L5.49467 6.59741ZM7.28428 3.42436L12.7674 7.99028L13.6805 6.89374L8.19744 2.32795L7.28428 3.42436ZM10.8236 0.0493164L9.67858 0.90096L13.9365 6.62597L15.0815 5.77446L10.8236 0.0493164ZM4.44312 13.2062H11.5509V11.7847H4.44312V13.2062Z" fill="#F58025"/>
</g>
<defs>
<clipPath id="clip0_2179_3745">
<rect width="16" height="16" fill="white"/>
</clipPath>
</defs>
</svg>
