<svg width="16" height="16" viewBox="0 0 16 16" fill="none" xmlns="http://www.w3.org/2000/svg">
<g clip-path="url(#clip0_2262_3113)">
<path fill-rule="evenodd" clip-rule="evenodd" d="M6.6222 5.18122L8.00008 2.38933L9.37796 5.18122C9.63287 5.69772 10.1256 6.05572 10.6956 6.13854L13.7766 6.58624L11.5472 8.75943C11.1347 9.16147 10.9465 9.74072 11.0439 10.3084L11.5121 13.0385L6.37748 5.55045C6.47329 5.4395 6.55581 5.31574 6.6222 5.18122ZM7.10335 0.816985C7.47016 0.0737394 8.53 0.0737418 8.89682 0.816988L10.7231 4.51737C10.7595 4.59116 10.8299 4.6423 10.9113 4.65413L14.9949 5.24752C15.8151 5.3667 16.1426 6.37467 15.5491 6.95321L12.5942 9.83356C12.5353 9.89099 12.5084 9.97374 12.5223 10.0548L13.2199 14.122C13.36 14.9389 12.5025 15.5618 11.7689 15.1761L8.11642 13.2559C8.04358 13.2176 7.95658 13.2176 7.88375 13.2559L4.23125 15.1761C3.49762 15.5618 2.64019 14.9389 2.7803 14.122L3.47786 10.0548C3.49177 9.97374 3.46489 9.89099 3.40596 9.83356L0.45103 6.95321C-0.142487 6.37467 0.185025 5.3667 1.00525 5.24752L5.08886 4.65413C5.17029 4.6423 5.24068 4.59116 5.2771 4.51737L7.10335 0.816985Z" fill="#FF00FF"/>
</g>
<defs>
<clipPath id="clip0_2262_3113">
<rect width="16" height="16" fill="white"/>
</clipPath>
</defs>
</svg>
