<svg width="16" height="16" viewBox="0 0 16 16" fill="none" xmlns="http://www.w3.org/2000/svg">
<path fill-rule="evenodd" clip-rule="evenodd" d="M8.00008 3.38933L6.93122 5.55508C6.67631 6.07159 6.18357 6.42958 5.61358 6.5124L3.22352 6.8597L4.95298 8.5455C5.36543 8.94755 5.55364 9.5268 5.45627 10.0945L5.04801 12.4749L7.18573 11.351C7.69555 11.083 8.30461 11.083 8.81443 11.351L10.9522 12.4749L10.5439 10.0945C10.4465 9.52679 10.6347 8.94754 11.0472 8.5455L12.7766 6.8597L10.3866 6.5124C9.81659 6.42958 9.32385 6.07158 9.06894 5.55508L8.00008 3.38933ZM8.89682 1.81699C8.53 1.07374 7.47016 1.07374 7.10334 1.81699L5.58611 4.89123C5.5497 4.96502 5.47931 5.01616 5.39788 5.02799L2.00524 5.52097C1.18502 5.64016 0.857513 6.64813 1.45103 7.22667L3.90596 9.61963C3.96489 9.67707 3.99177 9.75982 3.97786 9.84092L3.39833 13.2198C3.25822 14.0367 4.11565 14.6597 4.84928 14.274L7.88375 12.6787C7.95658 12.6404 8.04358 12.6404 8.11641 12.6787L11.1509 14.274C11.8845 14.6597 12.7419 14.0367 12.6018 13.2198L12.0223 9.84092C12.0084 9.75982 12.0353 9.67707 12.0942 9.61963L14.5491 7.22667C15.1426 6.64813 14.8151 5.64016 13.9949 5.52097L10.6023 5.02799C10.5209 5.01616 10.4505 4.96502 10.414 4.89123L8.89682 1.81699Z" fill="#FF00FF"/>
</svg>
