<svg width="16" height="16" viewBox="0 0 16 16" fill="none" xmlns="http://www.w3.org/2000/svg">
<path fill-rule="evenodd" clip-rule="evenodd" d="M8.00006 3.38937L8.00008 3.38933L9.06894 5.55508C9.32385 6.07158 9.81659 6.42958 10.3866 6.5124L12.7766 6.8597L11.0472 8.5455C10.6347 8.94754 10.4465 9.52679 10.5439 10.0945L10.9522 12.4749L8.81443 11.351C8.55951 11.217 8.27979 11.15 8.00006 11.15V3.38937ZM7.10334 1.81699C7.47016 1.07374 8.53 1.07374 8.89682 1.81699L10.414 4.89123C10.4505 4.96502 10.5209 5.01616 10.6023 5.02799L13.9949 5.52097C14.8151 5.64016 15.1426 6.64813 14.5491 7.22667L12.0942 9.61963C12.0353 9.67707 12.0084 9.75982 12.0223 9.84092L12.6018 13.2198C12.7419 14.0367 11.8845 14.6597 11.1509 14.274L8.11642 12.6787C8.04358 12.6404 7.95658 12.6404 7.88375 12.6787L4.84928 14.274C4.11565 14.6597 3.25822 14.0367 3.39833 13.2198L3.97786 9.84092C3.99177 9.75982 3.96489 9.67707 3.90596 9.61963L1.45103 7.22667C0.857513 6.64813 1.18502 5.64016 2.00524 5.52097L5.39788 5.02799C5.47931 5.01616 5.5497 4.96502 5.58611 4.89123L7.10334 1.81699Z" fill="#FF00FF"/>
</svg>
