<svg width="16" height="16" viewBox="0 0 16 16" fill="none" xmlns="http://www.w3.org/2000/svg">
<g clip-path="url(#clip0_2371_2439)">
<path fill-rule="evenodd" clip-rule="evenodd" d="M8.00008 2.38933L6.6222 5.18122C6.36729 5.69772 5.87455 6.05572 5.30456 6.13854L2.22352 6.58624L4.45298 8.75943C4.86543 9.16147 5.05364 9.74072 4.95628 10.3084L4.42997 13.377L7.18573 11.9282C7.69555 11.6602 8.30461 11.6602 8.81443 11.9282L11.5702 13.377L11.0439 10.3084C10.9465 9.74072 11.1347 9.16147 11.5472 8.75943L13.7766 6.58624L10.6956 6.13854C10.1256 6.05572 9.63287 5.69772 9.37796 5.18122L8.00008 2.38933ZM8.89682 0.816988C8.53 0.0737418 7.47016 0.0737394 7.10335 0.816985L5.2771 4.51737C5.24068 4.59116 5.17029 4.6423 5.08886 4.65413L1.00525 5.24752C0.185025 5.3667 -0.142487 6.37467 0.45103 6.95321L3.40596 9.83356C3.46489 9.89099 3.49177 9.97374 3.47786 10.0548L2.7803 14.122C2.64019 14.9389 3.49762 15.5618 4.23125 15.1761L7.88375 13.2559C7.95658 13.2176 8.04358 13.2176 8.11642 13.2559L11.7689 15.1761C12.5025 15.5618 13.36 14.9389 13.2199 14.122L12.5223 10.0548C12.5084 9.97374 12.5353 9.89099 12.5942 9.83356L15.5491 6.95321C16.1426 6.37467 15.8151 5.3667 14.9949 5.24752L10.9113 4.65413C10.8299 4.6423 10.7595 4.59116 10.7231 4.51737L8.89682 0.816988Z" fill="#FF00FF"/>
</g>
<defs>
<clipPath id="clip0_2371_2439">
<rect width="16" height="16" fill="white"/>
</clipPath>
</defs>
</svg>
