<svg width="16" height="16" viewBox="0 0 16 16" fill="none" xmlns="http://www.w3.org/2000/svg">
<g clip-path="url(#clip0_2266_3949)">
<path d="M7.10335 0.816985C7.47016 0.0737394 8.53 0.0737418 8.89682 0.816988L10.5486 4.16379C10.6942 4.45893 10.9758 4.6635 11.3015 4.71083L14.9949 5.24752C15.8151 5.3667 16.1426 6.37467 15.5491 6.95321L12.8765 9.55833C12.6409 9.78807 12.5333 10.1191 12.589 10.4435L13.2199 14.122C13.36 14.9389 12.5025 15.5618 11.7689 15.1761L8.46542 13.4394C8.1741 13.2862 7.82606 13.2862 7.53474 13.4394L4.23125 15.1761C3.49762 15.5618 2.64019 14.9389 2.7803 14.122L3.41121 10.4435C3.46685 10.1191 3.3593 9.78807 3.12361 9.55833L0.45103 6.95321C-0.142487 6.37467 0.185024 5.3667 1.00524 5.24752L4.69866 4.71083C5.02437 4.6635 5.30594 4.45893 5.4516 4.16379L7.10335 0.816985Z" fill="#FF00FF"/>
</g>
<defs>
<clipPath id="clip0_2266_3949">
<rect width="16" height="16" fill="white"/>
</clipPath>
</defs>
</svg>
