<svg width="16" height="16" viewBox="0 0 16 16" fill="none" xmlns="http://www.w3.org/2000/svg">
<path d="M7.10334 1.81699C7.47016 1.07374 8.53 1.07374 8.89682 1.81699L10.2395 4.53765C10.3852 4.8328 10.6668 5.03737 10.9925 5.08469L13.9949 5.52097C14.8151 5.64016 15.1426 6.64813 14.5491 7.22667L12.3765 9.34441C12.1409 9.57415 12.0333 9.90515 12.089 10.2295L12.6018 13.2198C12.7419 14.0367 11.8845 14.6597 11.1509 14.274L8.46542 12.8622C8.1741 12.709 7.82606 12.709 7.53474 12.8622L4.84928 14.274C4.11565 14.6597 3.25822 14.0367 3.39833 13.2198L3.91121 10.2295C3.96685 9.90515 3.8593 9.57415 3.62361 9.34441L1.45103 7.22667C0.857513 6.64813 1.18502 5.64016 2.00524 5.52097L5.00768 5.08469C5.33339 5.03737 5.61495 4.8328 5.76062 4.53765L7.10334 1.81699Z" fill="#FF00FF"/>
</svg>
