<svg width="16" height="16" viewBox="0 0 16 16" fill="none" xmlns="http://www.w3.org/2000/svg">
<g clip-path="url(#clip0_2288_3496)">
<path fill-rule="evenodd" clip-rule="evenodd" d="M10.7763 0.447202L10.0372 1.92545C10.013 1.97384 9.97373 2.01307 9.92535 2.03726L8.4471 2.77638C8.26284 2.86851 8.26284 3.13146 8.4471 3.2236L9.92535 3.96272C9.97373 3.98691 10.013 4.02614 10.0372 4.07452L10.7763 5.55278C10.8684 5.73704 11.1314 5.73704 11.2235 5.55278L11.9626 4.07452C11.9868 4.02614 12.026 3.98691 12.0744 3.96272L13.5527 3.2236C13.7369 3.13146 13.7369 2.86851 13.5527 2.77638L12.0744 2.03726C12.026 2.01307 11.9868 1.97383 11.9626 1.92545L11.2235 0.447202C11.1314 0.26294 10.8684 0.26294 10.7763 0.447202ZM3.78839 6.66761L5.2734 3.48545C5.36317 3.29308 5.63671 3.29308 5.72649 3.48545L7.2115 6.66761C7.23633 6.72083 7.27911 6.7636 7.33232 6.78844L10.5144 8.27345C10.7068 8.36322 10.7068 8.63676 10.5144 8.72654L7.33232 10.2115C7.27911 10.2364 7.23633 10.2792 7.2115 10.3324L5.72649 13.5145C5.63671 13.7069 5.36317 13.7069 5.2734 13.5145L3.78839 10.3324C3.76355 10.2792 3.72078 10.2364 3.66756 10.2115L0.485344 8.72654C0.292971 8.63677 0.292971 8.36322 0.485345 8.27345L3.66756 6.78844C3.72078 6.7636 3.76355 6.72083 3.78839 6.66761ZM12.0372 11.9255L12.7763 10.4472C12.8684 10.263 13.1314 10.263 13.2235 10.4472L13.9626 11.9255C13.9868 11.9738 14.026 12.0131 14.0744 12.0373L15.5527 12.7764C15.7369 12.8685 15.7369 13.1315 15.5527 13.2236L14.0744 13.9627C14.026 13.9869 13.9868 14.0262 13.9626 14.0745L13.2235 15.5528C13.1314 15.737 12.8684 15.737 12.7763 15.5528L12.0372 14.0745C12.013 14.0262 11.9737 13.9869 11.9254 13.9627L10.4471 13.2236C10.2628 13.1315 10.2628 12.8685 10.4471 12.7764L11.9254 12.0373C11.9737 12.0131 12.013 11.9738 12.0372 11.9255Z" fill="#FF00FF"/>
</g>
<defs>
<clipPath id="clip0_2288_3496">
<rect width="16" height="16" fill="white"/>
</clipPath>
</defs>
</svg>
