<svg width="16" height="16" viewBox="0 0 16 16" fill="none" xmlns="http://www.w3.org/2000/svg">
<g clip-path="url(#clip0_2265_3797)">
<path d="M0.326086 10.3005C1.31459 13.5965 4.37184 16 7.98959 16C12.4078 16 15.9896 12.4183 15.9896 8C15.9896 3.58175 12.4078 0 7.98959 0C3.75009 0 0.280836 3.29825 0.00683594 7.4685C0.525336 8.33775 0.726586 8.8755 0.325586 10.3005H0.326086Z" fill="url(#paint0_linear_2265_3797)"/>
<path d="M7.57747 5.99614L7.57822 6.03564L5.62072 8.87939C5.30372 8.86489 4.98572 8.92064 4.68372 9.04489C4.55225 9.09831 4.42674 9.16534 4.30922 9.24489L0.0104689 7.47314C0.0104689 7.47314 -0.0890311 9.10964 0.325469 10.3291L3.36447 11.5831C3.51447 12.2651 3.98447 12.8631 4.67497 13.1506C5.21821 13.3764 5.82882 13.3772 6.3727 13.1531C6.91659 12.9289 7.34927 12.4981 7.57572 11.9551C7.69653 11.6659 7.7548 11.3545 7.74672 11.0411L10.545 9.03989L10.6137 9.04114C12.29 9.04114 13.6525 7.67464 13.6525 5.99614C13.6525 4.31764 12.2925 2.95614 10.6137 2.95264C8.93822 2.95264 7.57497 4.31764 7.57497 5.99614H7.57747ZM7.10747 11.7586C6.74397 12.6336 5.74097 13.0454 4.86922 12.6821C4.48237 12.5196 4.16881 12.2204 3.98822 11.8416L4.97747 12.2516C5.13029 12.3152 5.29414 12.3481 5.45967 12.3484C5.62521 12.3487 5.78917 12.3163 5.94219 12.2532C6.09521 12.19 6.23429 12.0974 6.35149 11.9805C6.46868 11.8636 6.5617 11.7247 6.62522 11.5719C6.75384 11.263 6.7546 10.9157 6.62734 10.6063C6.50007 10.2969 6.25518 10.0506 5.94647 9.92164L4.92147 9.49789C5.31597 9.34789 5.76447 9.34289 6.18397 9.51714C6.60897 9.69289 6.93397 10.0239 7.10797 10.4471C7.28197 10.8704 7.28097 11.3371 7.10547 11.7586M10.6165 8.02489C10.0793 8.02343 9.56467 7.80916 9.18521 7.42899C8.80575 7.04883 8.59243 6.53377 8.59197 5.99664C8.59256 5.45959 8.80594 4.94466 9.18539 4.5646C9.56484 4.18455 10.0794 3.97034 10.6165 3.96889C11.1536 3.97021 11.6683 4.18436 12.0479 4.56443C12.4274 4.9445 12.6409 5.4595 12.6415 5.99664C12.641 6.53386 12.4276 7.04899 12.048 7.42917C11.6685 7.80935 11.1537 8.02356 10.6165 8.02489ZM9.09947 5.99339C9.09914 5.58981 9.25905 5.20261 9.54407 4.91689C9.82909 4.63117 10.2159 4.4703 10.6195 4.46964C11.4582 4.46964 12.1405 5.15214 12.1405 5.99339C12.1407 6.39705 11.9806 6.78427 11.6953 7.06991C11.4101 7.35556 11.0231 7.51624 10.6195 7.51664C10.2159 7.51604 9.82915 7.35527 9.54409 7.06965C9.25903 6.78403 9.09927 6.39692 9.09947 5.99339Z" fill="white"/>
</g>
<defs>
<linearGradient id="paint0_linear_2265_3797" x1="7.99821" y1="0" x2="7.99821" y2="16" gradientUnits="userSpaceOnUse">
<stop stop-color="#111D2E"/>
<stop offset="0.2" stop-color="#051839"/>
<stop offset="0.21" stop-color="#05183A"/>
<stop offset="0.4" stop-color="#0A1B48"/>
<stop offset="0.58" stop-color="#132E62"/>
<stop offset="0.74" stop-color="#144B7E"/>
<stop offset="0.87" stop-color="#136497"/>
<stop offset="1" stop-color="#1387B8"/>
</linearGradient>
<clipPath id="clip0_2265_3797">
<rect width="16" height="16" fill="white"/>
</clipPath>
</defs>
</svg>
