<svg width="16" height="16" viewBox="0 0 16 16" fill="none" xmlns="http://www.w3.org/2000/svg">
<g clip-path="url(#clip0_2265_3796)">
<path fill-rule="evenodd" clip-rule="evenodd" d="M7.97242 0C3.76992 0 0.327151 3.2404 0 7.35845L4.28786 9.13128C4.65118 8.8828 5.09009 8.73722 5.56228 8.73722C5.6046 8.73722 5.64674 8.73867 5.68851 8.74102L7.59536 5.97715L7.59518 5.93808C7.59518 4.27448 8.94845 2.92103 10.6122 2.92103C12.2758 2.92103 13.6291 4.27448 13.6291 5.93808C13.6291 7.60169 12.2758 8.95532 10.6122 8.95532C10.5893 8.95532 10.5665 8.95478 10.5437 8.95423L7.82413 10.8947C7.82557 10.93 7.82684 10.966 7.82684 11.0018C7.82684 12.2507 6.81103 13.2663 5.56228 13.2663C4.46618 13.2663 3.54965 12.484 3.34204 11.4479L0.275609 10.1802C1.22505 13.5381 4.31011 16 7.97242 16C12.3909 16 15.9725 12.4182 15.9725 8.00027C15.9725 3.58166 12.3907 0 7.97242 0ZM5.01363 12.1388L4.03092 11.7328C4.20507 12.0954 4.50636 12.399 4.90639 12.5657C5.7712 12.926 6.7682 12.5156 7.12863 11.6501C7.30314 11.2316 7.30423 10.7696 7.13116 10.35C6.95845 9.93026 6.63257 9.60293 6.21355 9.42824C5.79778 9.25517 5.35236 9.2615 4.96101 9.40925L5.9761 9.82899C6.61394 10.0948 6.91559 10.8273 6.64975 11.4651C6.38445 12.1031 5.65148 12.4048 5.01363 12.1388ZM10.6118 3.92785C11.7204 3.92785 12.6221 4.82973 12.6221 5.93813C12.6221 7.04654 11.7204 7.94806 10.6118 7.94824C9.50338 7.94824 8.6015 7.04672 8.6015 5.93813C8.6015 4.82973 9.50338 3.92785 10.6118 3.92785ZM10.6152 4.42463C9.78116 4.42463 9.10498 5.10064 9.10498 5.9347C9.10498 6.76858 9.78116 7.44476 10.6152 7.44476C11.4493 7.44476 12.1255 6.76876 12.1255 5.9347C12.1255 5.10064 11.4493 4.42463 10.6152 4.42463Z" fill="#FF00FF"/>
</g>
<defs>
<clipPath id="clip0_2265_3796">
<rect width="16" height="16" fill="white"/>
</clipPath>
</defs>
</svg>
