<svg width="16" height="16" viewBox="0 0 16 16" fill="none" xmlns="http://www.w3.org/2000/svg">
<path d="M15.1997 7.65878C15.8071 4.32393 13.7773 1.34077 10.599 0.35018C4.95372 -1.40862 0.95475 3.76649 1.00039 8.98243C1.03842 13.1972 1.93933 15.9994 1.93993 16C1.9001 15.8753 3.00638 15.2916 3.13408 15.2262C3.24277 15.1709 3.35325 15.1181 3.46434 15.0671C3.57543 15.016 3.68712 14.9674 3.80041 14.9209C3.9133 14.8741 4.02739 14.8303 4.14188 14.788C4.25657 14.7458 4.37226 14.7062 4.48815 14.6681C5.43951 14.3509 6.42469 14.1515 7.40167 13.933C10.4565 13.2352 13.7375 11.9158 14.9062 8.74364C15.035 8.39118 15.133 8.02819 15.1991 7.65878H15.1997Z" fill="#FF5C28"/>
</svg>
