<svg width="16" height="16" viewBox="0 0 16 16" fill="none" xmlns="http://www.w3.org/2000/svg">
<g clip-path="url(#clip0_2262_3105)">
<path fill-rule="evenodd" clip-rule="evenodd" d="M5.25 4.88556C6.26428 4.56699 7 3.61942 7 2.50001C7 1.11929 5.88071 0 4.5 0C3.11929 0 2 1.11929 2 2.50001C2 3.61942 2.73572 4.56699 3.75 4.88556V7V11.5C3.75 13.0188 4.98122 14.25 6.5 14.25H9.11445C9.43301 15.2643 10.3806 16 11.5 16C12.8807 16 14 14.8807 14 13.5C14 12.1193 12.8807 11 11.5 11C10.3806 11 9.43302 11.7357 9.11445 12.75H6.5C5.80964 12.75 5.25 12.1904 5.25 11.5V7.75H9.11445C9.43301 8.76428 10.3806 9.50001 11.5 9.50001C12.8807 9.50001 14 8.38072 14 7.00001C14 5.61929 12.8807 4.5 11.5 4.5C10.3806 4.5 9.43302 5.23572 9.11445 6.25H5.25V4.88556Z" fill="#FF00FF"/>
</g>
<defs>
<clipPath id="clip0_2262_3105">
<rect width="16" height="16" fill="white"/>
</clipPath>
</defs>
</svg>
