<svg width="16" height="16" viewBox="0 0 16 16" fill="none" xmlns="http://www.w3.org/2000/svg">
<g clip-path="url(#clip0_2262_3063)">
<path fill-rule="evenodd" clip-rule="evenodd" d="M8.75 1.5C8.75 1.08579 8.41421 0.75 8 0.75C7.58579 0.75 7.25 1.08579 7.25 1.5V3C7.25 3.41421 7.58579 3.75 8 3.75C8.41421 3.75 8.75 3.41421 8.75 3V1.5ZM8.75 13C8.75 12.5858 8.41421 12.25 8 12.25C7.58579 12.25 7.25 12.5858 7.25 13V14.5C7.25 14.9142 7.58579 15.25 8 15.25C8.41421 15.25 8.75 14.9142 8.75 14.5V13ZM0.75 8C0.75 7.58579 1.08579 7.25 1.5 7.25H3C3.41421 7.25 3.75 7.58579 3.75 8C3.75 8.41421 3.41421 8.75 3 8.75H1.5C1.08579 8.75 0.75 8.41421 0.75 8ZM13 7.25C12.5858 7.25 12.25 7.58579 12.25 8C12.25 8.41421 12.5858 8.75 13 8.75H14.5C14.9142 8.75 15.25 8.41421 15.25 8C15.25 7.58579 14.9142 7.25 14.5 7.25H13ZM10.5 8.00001C10.5 9.38072 9.38071 10.5 8 10.5C6.61929 10.5 5.5 9.38072 5.5 8.00001C5.5 6.61929 6.61929 5.5 8 5.5C9.38071 5.5 10.5 6.61929 10.5 8.00001ZM13.1265 2.87348C13.4194 3.16637 13.4194 3.64124 13.1265 3.93414L12.0659 4.9948C11.773 5.28769 11.2981 5.28769 11.0052 4.9948C10.7123 4.7019 10.7123 4.22703 11.0052 3.93414L12.0659 2.87348C12.3588 2.58058 12.8336 2.58058 13.1265 2.87348ZM4.9948 11.0052C5.28769 11.2981 5.28769 11.773 4.9948 12.0659L3.93414 13.1265C3.64124 13.4194 3.16637 13.4194 2.87348 13.1265C2.58058 12.8336 2.58058 12.3588 2.87348 12.0659L3.93414 11.0052C4.22703 10.7123 4.7019 10.7123 4.9948 11.0052ZM3.93414 2.87348C3.64124 2.58058 3.16637 2.58058 2.87348 2.87348C2.58058 3.16637 2.58058 3.64124 2.87348 3.93414L3.93414 4.9948C4.22703 5.28769 4.7019 5.28769 4.9948 4.9948C5.28769 4.7019 5.28769 4.22703 4.9948 3.93414L3.93414 2.87348ZM11.0052 11.0052C11.2981 10.7123 11.773 10.7123 12.0659 11.0052L13.1265 12.0659C13.4194 12.3588 13.4194 12.8336 13.1265 13.1265C12.8336 13.4194 12.3588 13.4194 12.0659 13.1265L11.0052 12.0659C10.7123 11.773 10.7123 11.2981 11.0052 11.0052Z" fill="#FF00FF"/>
</g>
<defs>
<clipPath id="clip0_2262_3063">
<rect width="16" height="16" fill="white"/>
</clipPath>
</defs>
</svg>
