<svg width="16" height="16" viewBox="0 0 16 16" fill="none" xmlns="http://www.w3.org/2000/svg">
<path d="M14.999 4.87772C14.9982 4.73692 14.9966 4.59619 14.9927 4.45523C14.9845 4.14859 14.9664 3.83918 14.9119 3.53582C14.8566 3.22775 14.7662 2.9413 14.6237 2.66145C14.4839 2.38661 14.301 2.13512 14.083 1.91702C13.8649 1.69893 13.6134 1.51612 13.3385 1.3762C13.0588 1.23389 12.7723 1.14351 12.4646 1.08821C12.161 1.03354 11.8516 1.01553 11.5448 1.00724C11.4039 1.00342 11.2631 1.00182 11.1223 1.00094C10.9551 1 10.7878 1 10.6207 1H6.91466H5.37935C5.21206 1 5.04495 1 4.87782 1.00097C4.73693 1.00184 4.59601 1.00344 4.45533 1.00726C4.37863 1.00933 4.30176 1.01202 4.22484 1.01572C3.99411 1.02685 3.76303 1.04724 3.5355 1.08823C3.30466 1.12972 3.08576 1.19091 2.87281 1.27896C2.80183 1.30828 2.73149 1.34062 2.66157 1.3762C2.45536 1.48114 2.2623 1.6102 2.08671 1.76017C2.02818 1.81017 1.97158 1.86248 1.91708 1.917C1.69894 2.13509 1.51611 2.38659 1.37625 2.66142C1.23378 2.94128 1.1435 3.22773 1.08815 3.5358C1.03369 3.83916 1.01559 4.14857 1.00734 4.4552C1.00347 4.59617 1.00185 4.7369 1.00093 4.8777C0.999868 5.04492 1.00001 5.21217 1.00001 5.37934V7.66162V10.6206C1.00001 10.7879 0.999844 10.955 1.00093 11.1223C1.00185 11.2631 1.00347 11.4039 1.00734 11.5446C1.01559 11.8514 1.03367 12.1609 1.08815 12.4641C1.1435 12.7721 1.23378 13.0588 1.37625 13.3386C1.51611 13.6135 1.69894 13.8649 1.91708 14.0829C2.13505 14.3011 2.38662 14.4839 2.6616 14.6239C2.94124 14.7662 3.22772 14.8565 3.53557 14.9118C3.83891 14.9664 4.14856 14.9845 4.45535 14.9927C4.59604 14.9965 4.73695 14.9982 4.87785 14.999C5.04498 15.0002 5.21208 15 5.37938 15H10.6207C10.7878 15 10.9551 15.0002 11.1222 14.999C11.2631 14.9982 11.4038 14.9965 11.5447 14.9927C11.8516 14.9845 12.161 14.9664 12.4645 14.9118C12.7723 14.8565 13.0588 14.7662 13.3384 14.6239C13.6134 14.4839 13.8649 14.3011 14.0829 14.0829C14.301 13.8649 14.4839 13.6135 14.6237 13.3386C14.7662 13.0588 14.8566 12.7721 14.9119 12.4641C14.9664 12.1609 14.9845 11.8514 14.9927 11.5446C14.9966 11.4039 14.9981 11.2632 14.999 11.1223C15.0001 10.955 15 10.7879 15 10.6206V5.37934C15 5.21217 15.0001 5.04492 14.999 4.87772Z" fill="#F05138"/>
<path d="M12.0932 9.6417C12.0928 9.64128 12.0925 9.64097 12.0922 9.64057C12.1077 9.58786 12.1236 9.53548 12.1372 9.48145C12.7183 7.16641 11.3001 4.42939 8.9003 2.98828C9.95195 4.41393 10.4169 6.14072 10.0038 7.65083C9.96696 7.78552 9.92267 7.91479 9.87371 8.04044C9.82057 8.00553 9.75363 7.9659 9.66372 7.91633C9.66372 7.91633 7.27655 6.4424 4.68924 3.83539C4.62135 3.76696 6.0689 5.90436 7.7117 7.63998C6.93771 7.20561 4.78073 5.63622 3.41521 4.38642C3.58298 4.6662 3.78252 4.93562 4.00186 5.19499C5.14219 6.64114 6.62931 8.42547 8.41096 9.79563C7.15916 10.5617 5.39034 10.6213 3.6292 9.79643C3.1936 9.59229 2.7841 9.34598 2.40503 9.06613C3.15051 10.2585 4.29867 11.2874 5.69607 11.888C7.36254 12.6041 9.01972 12.5556 10.254 11.8997L10.253 11.9011C10.2586 11.8976 10.2658 11.8937 10.2717 11.8901C10.3223 11.8628 10.3726 11.8351 10.4218 11.8058C11.0149 11.4979 12.1862 11.1857 12.8149 12.4089C12.9689 12.7083 13.2961 11.1218 12.0932 9.6417Z" fill="white"/>
</svg>
