<svg width="16" height="16" viewBox="0 0 16 16" fill="none" xmlns="http://www.w3.org/2000/svg">
<path fill-rule="evenodd" clip-rule="evenodd" d="M11.5303 0.96967C11.2374 0.676777 10.7626 0.676777 10.4697 0.96967L7.96967 3.46967C7.67678 3.76256 7.67678 4.23744 7.96967 4.53033C8.26256 4.82322 8.73744 4.82322 9.03033 4.53033L10.25 3.31066V8C10.25 8.41421 10.5858 8.75 11 8.75C11.4142 8.75 11.75 8.41421 11.75 8V3.31066L12.9697 4.53033C13.2626 4.82322 13.7374 4.82322 14.0303 4.53033C14.3232 4.23744 14.3232 3.76256 14.0303 3.46967L11.5303 0.96967ZM5.75 8C5.75 7.58579 5.41421 7.25 5 7.25C4.58579 7.25 4.25 7.58579 4.25 8V12.6893L3.03033 11.4697C2.73744 11.1768 2.26256 11.1768 1.96967 11.4697C1.67678 11.7626 1.67678 12.2374 1.96967 12.5303L4.46967 15.0303C4.76256 15.3232 5.23744 15.3232 5.53033 15.0303L8.03033 12.5303C8.32322 12.2374 8.32322 11.7626 8.03033 11.4697C7.73744 11.1768 7.26256 11.1768 6.96967 11.4697L5.75 12.6893V8Z" fill="#FF00FF"/>
</svg>
