<svg width="16" height="16" viewBox="0 0 16 16" fill="none" xmlns="http://www.w3.org/2000/svg">
<path fill-rule="evenodd" clip-rule="evenodd" d="M7.5 1.5H8.5C9.95662 1.5 10.8982 1.50319 11.5919 1.59646C12.2426 1.68393 12.4465 1.82515 12.5607 1.93934C12.6748 2.05353 12.8161 2.25745 12.9035 2.90806C12.9968 3.60182 13 4.54338 13 6V10C13 11.4566 12.9968 12.3982 12.9035 13.0919C12.8161 13.7426 12.6748 13.9465 12.5607 14.0607C12.4465 14.1748 12.2426 14.3161 11.5919 14.4035C10.8982 14.4968 9.95662 14.5 8.5 14.5H7.5C6.04338 14.5 5.10182 14.4968 4.40806 14.4035C3.75745 14.3161 3.55353 14.1748 3.43934 14.0607C3.32515 13.9465 3.18393 13.7426 3.09646 13.0919C3.00319 12.3982 3 11.4566 3 10V6C3 4.54338 3.00319 3.60182 3.09646 2.90806C3.18393 2.25745 3.32515 2.05353 3.43934 1.93934C3.55353 1.82515 3.75745 1.68393 4.40806 1.59646C5.10182 1.50319 6.04338 1.5 7.5 1.5ZM1.5 6C1.5 3.17157 1.5 1.75736 2.37868 0.87868C3.25736 0 4.67157 0 7.5 0H8.5C11.3284 0 12.7426 0 13.6213 0.87868C14.5 1.75736 14.5 3.17157 14.5 6V10C14.5 12.8284 14.5 14.2426 13.6213 15.1213C12.7426 16 11.3284 16 8.5 16H7.5C4.67157 16 3.25736 16 2.37868 15.1213C1.5 14.2426 1.5 12.8284 1.5 10V6ZM6 11.75C5.58579 11.75 5.25 12.0858 5.25 12.5C5.25 12.9142 5.58579 13.25 6 13.25H10C10.4142 13.25 10.75 12.9142 10.75 12.5C10.75 12.0858 10.4142 11.75 10 11.75H6Z" fill="#FF00FF"/>
</svg>
