<svg width="16" height="16" viewBox="0 0 16 16" fill="none" xmlns="http://www.w3.org/2000/svg">
<g clip-path="url(#clip0_2179_3775)">
<path d="M8 16C12.4183 16 16 12.4183 16 8C16 3.58172 12.4183 0 8 0C3.58172 0 0 3.58172 0 8C0 12.4183 3.58172 16 8 16Z" fill="url(#paint0_linear_2179_3775)"/>
<path fill-rule="evenodd" clip-rule="evenodd" d="M3.62118 7.91546C5.95334 6.89938 7.50848 6.22951 8.2866 5.90587C10.5083 4.9818 10.9699 4.82127 11.2708 4.81597C11.337 4.81481 11.485 4.83121 11.5808 4.90898C11.6618 4.97466 11.684 5.06337 11.6947 5.12563C11.7053 5.1879 11.7186 5.32974 11.7081 5.44057C11.5877 6.70555 11.0667 9.77534 10.8017 11.1921C10.6896 11.7916 10.4687 11.9927 10.255 12.0123C9.7904 12.0551 9.43762 11.7053 8.98766 11.4103C8.28356 10.9488 7.88578 10.6615 7.20233 10.2111C6.41248 9.6906 6.9245 9.40453 7.37464 8.937C7.49244 8.81465 9.53937 6.95281 9.57898 6.78392C9.58394 6.76279 9.58854 6.68406 9.54176 6.64248C9.49498 6.6009 9.42595 6.61512 9.37612 6.62643C9.30551 6.64245 8.18069 7.38591 6.00168 8.8568C5.6824 9.07604 5.39321 9.18286 5.13411 9.17726C4.84847 9.17109 4.29901 9.01576 3.89054 8.88298C3.38954 8.72013 2.99136 8.63403 3.02603 8.35745C3.04409 8.21339 3.24247 8.06606 3.62118 7.91546Z" fill="white"/>
</g>
<defs>
<linearGradient id="paint0_linear_2179_3775" x1="8" y1="0" x2="8" y2="15.8813" gradientUnits="userSpaceOnUse">
<stop stop-color="#2AABEE"/>
<stop offset="1" stop-color="#229ED9"/>
</linearGradient>
<clipPath id="clip0_2179_3775">
<rect width="16" height="16" fill="white"/>
</clipPath>
</defs>
</svg>
