<svg width="16" height="16" viewBox="0 0 16 16" fill="none" xmlns="http://www.w3.org/2000/svg">
<path fill-rule="evenodd" clip-rule="evenodd" d="M3 3.25C2.58579 3.25 2.25 3.58579 2.25 4C2.25 4.41421 2.58579 4.75 3 4.75H13C13.4142 4.75 13.75 4.41421 13.75 4C13.75 3.58579 13.4142 3.25 13 3.25H3ZM2.25 8C2.25 7.58579 2.58579 7.25 3 7.25H13C13.4142 7.25 13.75 7.58579 13.75 8C13.75 8.41421 13.4142 8.75 13 8.75H3C2.58579 8.75 2.25 8.41421 2.25 8ZM2.25 12C2.25 11.5858 2.58579 11.25 3 11.25H7C7.41421 11.25 7.75 11.5858 7.75 12C7.75 12.4142 7.41421 12.75 7 12.75H3C2.58579 12.75 2.25 12.4142 2.25 12Z" fill="#FF00FF"/>
</svg>
