<svg width="16" height="16" viewBox="0 0 16 16" fill="none" xmlns="http://www.w3.org/2000/svg">
<path d="M12.3977 7.39773C12.3777 5.07403 11.118 3.67378 8.98997 3.67378C7.56964 3.67378 6.37517 4.31618 5.74781 5.34003L7.12296 6.29862C7.4793 5.73652 7.97114 5.26976 8.87453 5.26976C9.89335 5.26976 10.4203 5.83689 10.5709 6.89084C10.079 6.81557 9.5872 6.77542 9.0803 6.77542C6.32998 6.77542 5.03513 8.02009 5.03513 9.66625C5.03513 11.3425 6.32999 12.3262 8.23714 12.3262C10.33 12.3262 11.5797 10.9159 12.0916 9.16939C12.6236 9.4103 12.99 9.9724 12.99 10.8156C12.99 13.074 10.3852 14.3036 8.17692 14.3036C4.9197 14.3036 2.79172 12.1656 2.79172 8.68758C2.79172 4.42661 5.60727 1.69637 9.39147 1.69637C11.931 1.69637 13.1857 2.81055 14.0389 4.30615L15.4442 3.32246C14.5157 1.3852 12.4429 0 9.33124 0C4.37265 0 1 3.51819 1 8.62234C1 13.2899 4.30239 16 8.23714 16C11.4893 16 14.7767 14.1029 14.7767 10.8557C14.7767 9.15935 13.803 8.03513 12.3977 7.39773ZM8.17692 10.6349C7.45923 10.6349 6.82686 10.2936 6.82686 9.66624C6.82686 8.67753 8.04142 8.3764 9.23087 8.3764C9.68256 8.3764 10.1242 8.4065 10.5157 8.49184C10.2346 9.77665 9.40151 10.6349 8.17692 10.6349Z" fill="black"/>
</svg>
