<svg width="16" height="16" viewBox="0 0 16 16" fill="none" xmlns="http://www.w3.org/2000/svg">
<path fill-rule="evenodd" clip-rule="evenodd" d="M5.75 12.25C5.75 12.8023 6.19772 13.25 6.75 13.25C7.30228 13.25 7.75 12.8023 7.75 12.25V11V9C7.75 8.58579 8.08579 8.25 8.5 8.25C8.91421 8.25 9.25 8.58579 9.25 9V10.25H11.7602C13.1996 10.25 14.2688 8.91706 13.9566 7.51191L13.2899 4.51191C13.0611 3.48245 12.1481 2.75 11.0935 2.75H7C6.30964 2.75 5.75 3.30964 5.75 4V12.25ZM9.25 12.25V11.75H11.7602C14.1592 11.75 15.9413 9.52844 15.4209 7.18651L14.7542 4.18651C14.3729 2.47075 12.8511 1.25 11.0935 1.25H7C5.48122 1.25 4.25 2.48122 4.25 4V12.25C4.25 13.6307 5.36929 14.75 6.75 14.75C8.13071 14.75 9.25 13.6307 9.25 12.25ZM2.75 3C2.75 2.58579 2.41421 2.25 2 2.25C1.58579 2.25 1.25 2.58579 1.25 3V9C1.25 9.41421 1.58579 9.75 2 9.75C2.41421 9.75 2.75 9.41421 2.75 9V3Z" fill="#FF00FF"/>
</svg>
