<svg width="16" height="16" viewBox="0 0 16 16" fill="none" xmlns="http://www.w3.org/2000/svg">
<path fill-rule="evenodd" clip-rule="evenodd" d="M5.75 3.75C5.75 3.19772 6.19772 2.75 6.75 2.75C7.30228 2.75 7.75 3.19772 7.75 3.75V5V7C7.75 7.41421 8.08579 7.75 8.5 7.75C8.91421 7.75 9.25 7.41421 9.25 7V5.75H11.7602C13.1996 5.75 14.2688 7.08294 13.9566 8.48809L13.2899 11.4881C13.0611 12.5176 12.1481 13.25 11.0935 13.25H7C6.30964 13.25 5.75 12.6904 5.75 12V3.75ZM9.25 3.75V4.25H11.7602C14.1592 4.25 15.9413 6.47156 15.4209 8.81349L14.7542 11.8135C14.3729 13.5293 12.8511 14.75 11.0935 14.75H7C5.48122 14.75 4.25 13.5188 4.25 12V3.75C4.25 2.36929 5.36929 1.25 6.75 1.25C8.13071 1.25 9.25 2.36929 9.25 3.75ZM2.75 7C2.75 6.58579 2.41421 6.25 2 6.25C1.58579 6.25 1.25 6.58579 1.25 7V13C1.25 13.4142 1.58579 13.75 2 13.75C2.41421 13.75 2.75 13.4142 2.75 13V7Z" fill="#FF00FF"/>
</svg>
