<svg width="16" height="16" viewBox="0 0 16 16" fill="none" xmlns="http://www.w3.org/2000/svg">
<g clip-path="url(#clip0_2282_3193)">
<path opacity="0.4" d="M0.5 2C0.5 1.17157 1.17157 0.5 2 0.5H5C5.82843 0.5 6.5 1.17157 6.5 2V5C6.5 5.82843 5.82843 6.5 5 6.5H2C1.17157 6.5 0.5 5.82843 0.5 5V2Z" fill="#FF00FF"/>
<path fill-rule="evenodd" clip-rule="evenodd" d="M14.5 1.5H10.5V5.5H14.5V1.5ZM10.5 0C9.67157 0 9 0.671573 9 1.5V5.5C9 6.32843 9.67157 7 10.5 7H14.5C15.3284 7 16 6.32843 16 5.5V1.5C16 0.671573 15.3284 0 14.5 0H10.5ZM1.5 10.5H5.5V14.5H1.5L1.5 10.5ZM0 10.5C0 9.67157 0.671573 9 1.5 9H5.5C6.32843 9 7 9.67157 7 10.5V14.5C7 15.3284 6.32843 16 5.5 16H1.5C0.671573 16 0 15.3284 0 14.5V10.5ZM10.5 10.5H14.5V14.5H10.5V10.5ZM9 10.5C9 9.67157 9.67157 9 10.5 9H14.5C15.3284 9 16 9.67157 16 10.5V14.5C16 15.3284 15.3284 16 14.5 16H10.5C9.67157 16 9 15.3284 9 14.5V10.5ZM1.5 1.5H5.5V5.5H1.5L1.5 1.5ZM0 1.5C0 0.671573 0.671573 0 1.5 0H5.5C6.32843 0 7 0.671573 7 1.5V5.5C7 6.32843 6.32843 7 5.5 7H1.5C0.671573 7 0 6.32843 0 5.5V1.5Z" fill="#FF00FF"/>
</g>
<defs>
<clipPath id="clip0_2282_3193">
<rect width="16" height="16" fill="white"/>
</clipPath>
</defs>
</svg>
