<svg width="16" height="16" viewBox="0 0 16 16" fill="none" xmlns="http://www.w3.org/2000/svg">
<g clip-path="url(#clip0_2288_3358)">
<path opacity="0.4" d="M0.5 2C0.5 1.17157 1.17157 0.5 2 0.5H5C5.82843 0.5 6.5 1.17157 6.5 2V5C6.5 5.82843 5.82843 6.5 5 6.5H2C1.17157 6.5 0.5 5.82843 0.5 5V2Z" fill="#FF00FF"/>
<path fill-rule="evenodd" clip-rule="evenodd" d="M14.5 1.5H10.25V5.75H14.5V1.5ZM10.25 0C9.42157 0 8.75 0.671573 8.75 1.5V5.75C8.75 6.57843 9.42157 7.25 10.25 7.25H14.5C15.3284 7.25 16 6.57843 16 5.75V1.5C16 0.671573 15.3284 0 14.5 0H10.25ZM1.5 10.25H5.75V14.5H1.5L1.5 10.25ZM0 10.25C0 9.42157 0.671573 8.75 1.5 8.75H5.75C6.57843 8.75 7.25 9.42157 7.25 10.25V14.5C7.25 15.3284 6.57843 16 5.75 16H1.5C0.671573 16 0 15.3284 0 14.5V10.25ZM10.25 10.25H14.5V14.5H10.25V10.25ZM8.75 10.25C8.75 9.42157 9.42157 8.75 10.25 8.75H14.5C15.3284 8.75 16 9.42157 16 10.25V14.5C16 15.3284 15.3284 16 14.5 16H10.25C9.42157 16 8.75 15.3284 8.75 14.5V10.25ZM1.5 1.5H5.75V5.75H1.5L1.5 1.5ZM0 1.5C0 0.671573 0.671573 0 1.5 0H5.75C6.57843 0 7.25 0.671573 7.25 1.5V5.75C7.25 6.57843 6.57843 7.25 5.75 7.25H1.5C0.671573 7.25 0 6.57843 0 5.75V1.5Z" fill="#FF00FF"/>
</g>
<defs>
<clipPath id="clip0_2288_3358">
<rect width="16" height="16" fill="white"/>
</clipPath>
</defs>
</svg>
