<svg width="16" height="16" viewBox="0 0 16 16" fill="none" xmlns="http://www.w3.org/2000/svg">
<path fill-rule="evenodd" clip-rule="evenodd" d="M5 4.5H11C12.933 4.5 14.5 6.067 14.5 8C14.5 9.933 12.933 11.5 11 11.5H5C3.067 11.5 1.5 9.933 1.5 8C1.5 6.067 3.067 4.5 5 4.5ZM0 8C0 5.23858 2.23858 3 5 3H11C13.7614 3 16 5.23858 16 8C16 10.7614 13.7614 13 11 13H5C2.23858 13 0 10.7614 0 8ZM5 10C6.10457 10 7 9.10457 7 8C7 6.89543 6.10457 6 5 6C3.89543 6 3 6.89543 3 8C3 9.10457 3.89543 10 5 10Z" fill="#FF00FF"/>
</svg>
