<svg width="16" height="16" viewBox="0 0 16 16" fill="none" xmlns="http://www.w3.org/2000/svg">
<path fill-rule="evenodd" clip-rule="evenodd" d="M7.35407 2.25C6.84294 2.25 6.3833 2.56119 6.19347 3.03576L6.10777 3.25H9.89223L9.80653 3.03576C9.6167 2.56119 9.15706 2.25 8.64593 2.25H7.35407ZM11.5078 3.25L11.1992 2.47868C10.7816 1.43461 9.77042 0.75 8.64593 0.75H7.35407C6.22958 0.75 5.21838 1.43462 4.80075 2.47868L4.49223 3.25H3.5H2C1.58579 3.25 1.25 3.58579 1.25 4C1.25 4.41421 1.58579 4.75 2 4.75H2.75V12.5C2.75 14.0188 3.98122 15.25 5.5 15.25H10.5C12.0188 15.25 13.25 14.0188 13.25 12.5V4.75H14C14.4142 4.75 14.75 4.41421 14.75 4C14.75 3.58579 14.4142 3.25 14 3.25H12.5H11.5078ZM11.75 4.75H11H5H4.25V12.5C4.25 13.1904 4.80964 13.75 5.5 13.75H10.5C11.1904 13.75 11.75 13.1904 11.75 12.5V4.75Z" fill="#FF00FF"/>
<path fill-rule="evenodd" clip-rule="evenodd" d="M7.25 7C7.25 6.58579 6.91421 6.25 6.5 6.25C6.08579 6.25 5.75 6.58579 5.75 7V11.5C5.75 11.9142 6.08579 12.25 6.5 12.25C6.91421 12.25 7.25 11.9142 7.25 11.5V7ZM10.25 7C10.25 6.58579 9.91421 6.25 9.5 6.25C9.08579 6.25 8.75 6.58579 8.75 7V11.5C8.75 11.9142 9.08579 12.25 9.5 12.25C9.91421 12.25 10.25 11.9142 10.25 11.5V7Z" fill="#FF00FF"/>
</svg>
