<svg width="16" height="16" viewBox="0 0 16 16" fill="none" xmlns="http://www.w3.org/2000/svg">
<path fill-rule="evenodd" clip-rule="evenodd" d="M14.3713 5.48484C14.3713 9.82397 11.0696 14.8257 5.03217 14.8257C3.17739 14.8257 1.45304 14.2822 0 13.3501C0.257391 13.3805 0.518261 13.3961 0.782609 13.3961C2.32174 13.3961 3.73652 12.8709 4.85913 11.9918C3.42348 11.9648 2.21043 11.017 1.79304 9.71267C1.99304 9.75006 2.19913 9.77006 2.41043 9.77006C2.71043 9.77006 3.00087 9.73093 3.27565 9.65615C1.77391 9.35354 0.642609 8.02745 0.642609 6.43615C0.642609 6.42224 0.642609 6.40919 0.642609 6.39528C1.08522 6.64137 1.59217 6.78919 2.12957 6.80658C1.2487 6.21702 0.668696 5.21354 0.668696 4.07354C0.668696 3.47267 0.830435 2.90832 1.11391 2.42311C2.73217 4.41006 5.15217 5.71615 7.88 5.85354C7.82435 5.61267 7.79565 5.36311 7.79565 5.10484C7.79565 3.29267 9.26435 1.82397 11.0774 1.82397C12.0217 1.82397 12.8748 2.22137 13.4739 2.85963C14.2209 2.7118 14.9235 2.43876 15.5583 2.06311C15.313 2.82919 14.7922 3.47267 14.1148 3.87876C14.7791 3.79876 15.4104 3.62397 16 3.36224C15.56 4.02137 15.0035 4.59876 14.3617 5.0605C14.3687 5.20137 14.3713 5.34397 14.3713 5.48484Z" fill="#1DA1F2"/>
</svg>
