<svg width="16" height="16" viewBox="0 0 16 16" fill="none" xmlns="http://www.w3.org/2000/svg">
<path fill-rule="evenodd" clip-rule="evenodd" d="M1.53145 1H14.4693C14.7625 1 15.0003 1.23505 15.0003 1.525V14.475C15.0003 14.765 14.7625 15 14.4693 15H1.53145C1.23821 15 1.00049 14.765 1.00049 14.475V1.525C1.00049 1.23505 1.23821 1 1.53145 1ZM8.71211 8.44822V7.3H3.67297V8.44822H5.47203V13.5607H6.90423V8.44822H8.71211ZM9.2831 13.4257C9.51404 13.5421 9.7872 13.6295 10.1025 13.6877C10.4179 13.7459 10.7502 13.775 11.0997 13.775C11.4402 13.775 11.7636 13.743 12.0701 13.6789C12.3766 13.6149 12.6453 13.5094 12.8762 13.3624C13.1071 13.2154 13.29 13.0233 13.4247 12.7861C13.5595 12.5488 13.6268 12.2556 13.6268 11.9063C13.6268 11.653 13.5883 11.4311 13.5113 11.2405C13.4344 11.0498 13.3233 10.8802 13.1782 10.7318C13.0332 10.5833 12.8592 10.4502 12.6563 10.3323C12.4535 10.2144 12.2248 10.1031 11.9702 9.99828C11.7836 9.92258 11.6163 9.84908 11.4683 9.77778C11.3202 9.70649 11.1944 9.63369 11.0908 9.55949C10.9871 9.48524 10.9072 9.40668 10.8509 9.3237C10.7947 9.24078 10.7666 9.14687 10.7666 9.04208C10.7666 8.94602 10.7917 8.85944 10.842 8.78233C10.8924 8.70517 10.9634 8.63894 11.0552 8.58364C11.147 8.52834 11.2595 8.48542 11.3928 8.45484C11.526 8.42431 11.6741 8.40902 11.8369 8.40902C11.9554 8.40902 12.0805 8.41774 12.2122 8.43518C12.344 8.45268 12.4765 8.47961 12.6097 8.51595C12.743 8.55235 12.8725 8.59818 12.9984 8.65353C13.1242 8.70883 13.2404 8.77285 13.347 8.8456V7.54015C13.1308 7.45863 12.8947 7.39821 12.6386 7.35896C12.3825 7.31965 12.0886 7.3 11.7569 7.3C11.4194 7.3 11.0997 7.33565 10.7976 7.40699C10.4956 7.47828 10.2299 7.58964 10.0004 7.741C9.77089 7.89236 9.58953 8.08518 9.45632 8.31947C9.32305 8.55381 9.25644 8.83397 9.25644 9.15995C9.25644 9.57624 9.37856 9.93135 9.62286 10.2253C9.86717 10.5193 10.238 10.7682 10.7354 10.9719C10.9309 11.0505 11.1129 11.1277 11.2818 11.2034C11.4505 11.279 11.5963 11.3576 11.7192 11.4391C11.8421 11.5206 11.9391 11.6094 12.0101 11.7054C12.0812 11.8015 12.1167 11.9106 12.1167 12.0329C12.1167 12.1232 12.0945 12.2068 12.0501 12.2839C12.0057 12.3611 11.9383 12.428 11.848 12.4848C11.7577 12.5415 11.6452 12.586 11.5105 12.618C11.3758 12.65 11.2181 12.666 11.0375 12.666C10.7295 12.666 10.4245 12.6129 10.1225 12.5067C9.82053 12.4004 9.5407 12.241 9.2831 12.0286V13.4257Z" fill="#3178C6"/>
</svg>
