<svg width="16" height="16" viewBox="0 0 16 16" fill="none" xmlns="http://www.w3.org/2000/svg">
<path fill-rule="evenodd" clip-rule="evenodd" d="M7.20541 6.02061L3.75406 3.504C3.48017 3.30429 3.48017 2.8957 3.75406 2.69599L7.20541 0.179378C7.53583 -0.0615504 8 0.174455 8 0.583382L8 1.74998C11.7279 1.74998 14.75 4.77206 14.75 8.49998C14.75 12.2279 11.7279 15.25 8 15.25C4.27208 15.25 1.25 12.2279 1.25 8.49998C1.25 8.08577 1.58579 7.74998 2 7.74998C2.41421 7.74998 2.75 8.08577 2.75 8.49998C2.75 11.3995 5.1005 13.75 8 13.75C10.8995 13.75 13.25 11.3995 13.25 8.49998C13.25 5.60049 10.8995 3.24998 8 3.24998L8 5.6166C8 6.02553 7.53583 6.26154 7.20541 6.02061Z" fill="#FF00FF"/>
</svg>
