<svg width="16" height="16" viewBox="0 0 16 16" fill="none" xmlns="http://www.w3.org/2000/svg">
<path fill-rule="evenodd" clip-rule="evenodd" d="M7.20541 6.02062L3.75406 3.50401C3.48017 3.3043 3.48017 2.89571 3.75406 2.696L7.20541 0.179392C7.53583 -0.0615367 8 0.174468 8 0.583396L8 1.75C11.7279 1.75 14.75 4.77208 14.75 8.5C14.75 12.2279 11.7279 15.25 8 15.25C4.27208 15.25 1.25 12.2279 1.25 8.5C1.25 8.08578 1.58579 7.75 2 7.75C2.41421 7.75 2.75 8.08578 2.75 8.5C2.75 11.3995 5.1005 13.75 8 13.75C10.8995 13.75 13.25 11.3995 13.25 8.5C13.25 5.6005 10.8995 3.25 8 3.25L8 5.61662C8 6.02554 7.53583 6.26155 7.20541 6.02062Z" fill="#FF00FF"/>
</svg>
