<svg width="16" height="16" viewBox="0 0 16 16" fill="none" xmlns="http://www.w3.org/2000/svg">
<g clip-path="url(#clip0_2179_3839)">
<path fill-rule="evenodd" clip-rule="evenodd" d="M0 8.00007C0 3.58171 3.58169 0 8 0C12.4182 0 16 3.58171 16 8.00007C16 12.4183 12.4182 16 8 16C3.58169 16 0 12.4183 0 8.00007ZM0.5 8.00006C0.5 3.85785 3.85783 0.5 8 0.5C12.142 0.5 15.5 3.85785 15.5 8.00006C15.5 12.1421 12.142 15.5 8 15.5C3.85783 15.5 0.5 12.1421 0.5 8.00006Z" fill="#2B2C2A"/>
<path fill-rule="evenodd" clip-rule="evenodd" d="M11.582 10.3839C11.2933 10.3824 11.1799 10.2143 11.1799 10.2143C11.1643 10.1363 11.1374 9.00777 11.1278 7.87868C11.118 6.70907 11.1266 5.53839 11.1858 5.5349C11.5188 4.91607 12.5812 3.66808 12.5812 3.66808C10.5971 4.0554 9.51501 5.34271 9.51501 5.34271C9.19581 5.09349 8.54388 5.13496 8.54388 5.13496C8.84901 5.30124 9.15427 5.78559 9.15427 6.18687V10.1313C9.15427 10.1313 8.48827 10.7125 7.9749 10.7125C7.67153 10.7125 7.4844 10.5481 7.3821 10.4136C7.31133 10.3204 7.28116 10.2419 7.28116 10.2419V5.37036C7.21824 5.41532 7.12866 5.45303 7.03679 5.45249C6.92773 5.45196 6.81501 5.39787 6.73829 5.23857C6.68038 5.11886 6.64317 4.93942 6.64317 4.67825C6.64317 3.7788 7.66991 3.18359 7.66991 3.18359C6.36564 3.52958 5.15853 4.1939 3.54914 6.02086C1.93975 7.84768 2.24501 9.3563 2.24501 9.3563C2.24501 9.3563 2.68897 8.31821 3.75739 7.22496C4.26331 6.70706 4.64164 6.5338 4.89968 6.53326C5.18668 6.53246 5.32497 6.7449 5.32497 6.93427V10.6433C5.32497 11.0092 5.08695 11.089 4.86748 11.0852C4.68007 11.0817 4.5066 11.0172 4.5066 11.0172C5.60249 12.5948 8.22468 12.8163 8.22468 12.8163L9.37632 11.5984L9.40324 11.6213L10.4584 12.5116C12.387 11.3769 13.3166 9.27323 13.3166 9.27323C12.4563 10.1754 11.9076 10.3857 11.582 10.3839Z" fill="#2B2C2A"/>
</g>
<defs>
<clipPath id="clip0_2179_3839">
<rect width="16" height="16" fill="white"/>
</clipPath>
</defs>
</svg>
