<svg width="16" height="16" viewBox="0 0 16 16" fill="none" xmlns="http://www.w3.org/2000/svg">
<path fill-rule="evenodd" clip-rule="evenodd" d="M2 8.75C2.41421 8.75 2.75 9.08579 2.75 9.5V11.5C2.75 12.1904 3.30964 12.75 4 12.75H12C12.6904 12.75 13.25 12.1904 13.25 11.5V9.5C13.25 9.08579 13.5858 8.75 14 8.75C14.4142 8.75 14.75 9.08579 14.75 9.5V11.5C14.75 13.0188 13.5188 14.25 12 14.25H4C2.48122 14.25 1.25 13.0188 1.25 11.5V9.5C1.25 9.08579 1.58579 8.75 2 8.75Z" fill="#FF00FF"/>
<path fill-rule="evenodd" clip-rule="evenodd" d="M7.46967 0.96967C7.76256 0.676777 8.23744 0.676777 8.53033 0.96967L11.5303 3.96967C11.8232 4.26256 11.8232 4.73744 11.5303 5.03033C11.2374 5.32322 10.7626 5.32322 10.4697 5.03033L8.75 3.31066V9.5C8.75 9.91421 8.41421 10.25 8 10.25C7.58579 10.25 7.25 9.91421 7.25 9.5V3.31066L5.53033 5.03033C5.23744 5.32322 4.76256 5.32322 4.46967 5.03033C4.17678 4.73744 4.17678 4.26256 4.46967 3.96967L7.46967 0.96967Z" fill="#FF00FF"/>
</svg>
