<svg width="16" height="16" viewBox="0 0 16 16" fill="none" xmlns="http://www.w3.org/2000/svg">
<path fill-rule="evenodd" clip-rule="evenodd" d="M8.00002 0.75C10.2092 0.75 12 2.54086 12 4.75C12 5.74828 11.6343 6.66115 11.0296 7.36195C12.6627 8.37627 13.75 10.1862 13.75 12.25C13.75 13.2961 13.47 14.279 12.9803 15.1256C12.7729 15.4841 12.3141 15.6066 11.9555 15.3992C11.597 15.1918 11.4745 14.733 11.6819 14.3745C12.0431 13.7501 12.25 13.0254 12.25 12.25C12.25 10.515 11.2103 9.02274 9.7199 8.36241C9.1989 8.6109 8.61571 8.75 8.00002 8.75C5.79089 8.75 4.00002 6.95914 4.00002 4.75C4.00002 2.54086 5.79089 0.75 8.00002 0.75ZM8.00002 2.25C6.61931 2.25 5.50002 3.36929 5.50002 4.75C5.50002 6.13071 6.61931 7.25 8.00002 7.25C9.38074 7.25 10.5 6.13071 10.5 4.75C10.5 3.36929 9.38074 2.25 8.00002 2.25ZM2.25 12.25C2.25 10.1862 3.33735 8.37626 4.97043 7.36194C5.33097 7.77976 5.77647 8.12219 6.28011 8.36241C4.78972 9.02273 3.75 10.515 3.75 12.25C3.75 13.0254 3.95695 13.7501 4.31812 14.3745C4.52552 14.733 4.403 15.1918 4.04446 15.3992C3.68591 15.6066 3.22711 15.4841 3.01971 15.1256C2.53003 14.279 2.25 13.2961 2.25 12.25Z" fill="#FF00FF"/>
</svg>
