<svg width="16" height="16" viewBox="0 0 16 16" fill="none" xmlns="http://www.w3.org/2000/svg">
<path fill-rule="evenodd" clip-rule="evenodd" d="M8.00002 1C10.2092 1 12 2.79086 12 5C12 5.99828 11.6343 6.91115 11.0296 7.61195C12.6627 8.62627 13.75 10.4362 13.75 12.5C13.75 13.5461 13.47 14.529 12.9803 15.3756C12.7729 15.7341 12.3141 15.8566 11.9555 15.6492C11.597 15.4418 11.4745 14.983 11.6819 14.6245C12.0431 14.0001 12.25 13.2754 12.25 12.5C12.25 10.765 11.2103 9.27273 9.7199 8.61241C9.1989 8.8609 8.61571 9 8.00002 9C5.79089 9 4.00002 7.20914 4.00002 5C4.00002 2.79086 5.79089 1 8.00002 1ZM8.00002 2.5C6.61931 2.5 5.50002 3.61929 5.50002 5C5.50002 6.38071 6.61931 7.5 8.00002 7.5C9.38074 7.5 10.5 6.38071 10.5 5C10.5 3.61929 9.38074 2.5 8.00002 2.5ZM2.25 12.5C2.25 10.4362 3.33735 8.62626 4.97043 7.61194C5.33097 8.02976 5.77647 8.37219 6.28011 8.61241C4.78972 9.27273 3.75 10.765 3.75 12.5C3.75 13.2754 3.95695 14.0001 4.31812 14.6245C4.52552 14.983 4.403 15.4418 4.04446 15.6492C3.68591 15.8566 3.22711 15.7341 3.01971 15.3756C2.53003 14.529 2.25 13.5461 2.25 12.5Z" fill="#FF00FF"/>
</svg>
