<svg width="16" height="16" viewBox="0 0 16 16" fill="none" xmlns="http://www.w3.org/2000/svg">
<g clip-path="url(#clip0_2254_6690)">
<path fill-rule="evenodd" clip-rule="evenodd" d="M8.73677 0.802694C8.3405 0.370944 7.65958 0.370945 7.26331 0.802695L6.26639 1.88887C6.04616 2.12882 5.72287 2.24649 5.39993 2.20424L3.93807 2.01298C3.35698 1.93696 2.83537 2.37465 2.80933 2.96011L2.74383 4.43298C2.72936 4.75835 2.55734 5.05629 2.2828 5.2315L1.04001 6.02466C0.546003 6.33994 0.427763 7.01052 0.784143 7.47574L1.68071 8.64613C1.87877 8.90468 1.93851 9.24348 1.84082 9.55418L1.39862 10.9606C1.22285 11.5197 1.56331 12.1094 2.13535 12.2367L3.57447 12.5569C3.89239 12.6277 4.15593 12.8488 4.28081 13.1496L4.84611 14.5113C5.07082 15.0525 5.71067 15.2854 6.23071 15.0152L7.53901 14.3355C7.82802 14.1854 8.17205 14.1854 8.46107 14.3355L9.76936 15.0152C10.2894 15.2854 10.9293 15.0525 11.154 14.5113L11.7193 13.1496C11.8441 12.8488 12.1077 12.6277 12.4256 12.5569L13.8647 12.2367C14.4368 12.1094 14.7772 11.5197 14.6015 10.9606L14.1593 9.55418C14.0616 9.24348 14.1213 8.90468 14.3194 8.64613L15.2159 7.47574C15.5723 7.01052 15.4541 6.33994 14.9601 6.02466L13.7173 5.2315C13.4427 5.05629 13.2707 4.75835 13.2562 4.43297L13.1907 2.96011C13.1647 2.37465 12.6431 1.93696 12.062 2.01298L10.6001 2.20424C10.2772 2.24649 9.95392 2.12882 9.73369 1.88887L8.73677 0.802694ZM11.5303 6.53033C11.8232 6.23744 11.8232 5.76256 11.5303 5.46967C11.2374 5.17678 10.7626 5.17678 10.4697 5.46967L6.99999 8.93934L5.53032 7.46967C5.23743 7.17678 4.76256 7.17678 4.46966 7.46967C4.17677 7.76256 4.17677 8.23744 4.46966 8.53033L6.46966 10.5303C6.76256 10.8232 7.23743 10.8232 7.53032 10.5303L11.5303 6.53033Z" fill="#FF00FF"/>
</g>
<defs>
<clipPath id="clip0_2254_6690">
<rect width="16" height="16" fill="white"/>
</clipPath>
</defs>
</svg>
