<svg width="16" height="16" viewBox="0 0 16 16" fill="none" xmlns="http://www.w3.org/2000/svg">
<path opacity="0.2" d="M15.5 12L14 13.5H2L0.5 11.5V9.64093C0.5 9.22408 0.630246 8.81766 0.872533 8.47845L1.87442 7.07581C2.50185 6.19742 3.71312 5.97541 4.61129 6.57419L10.956 10.804C11.563 11.2087 12.3713 11.1287 12.8872 10.6128C13.8514 9.64859 15.5 10.3315 15.5 11.695V12Z" fill="#FF00FF"/>
<path fill-rule="evenodd" clip-rule="evenodd" d="M6 3.5H10C10.9524 3.5 11.5916 3.50081 12.0865 3.53458C12.568 3.56743 12.8024 3.62639 12.9567 3.6903C13.5693 3.94404 14.056 4.43072 14.3097 5.04329C14.3736 5.1976 14.4326 5.43203 14.4654 5.91348C14.4992 6.40841 14.5 7.04759 14.5 8C14.5 8.95241 14.4992 9.59159 14.4654 10.0865C14.4326 10.568 14.3736 10.8024 14.3097 10.9567C14.056 11.5693 13.5693 12.056 12.9567 12.3097C12.8024 12.3736 12.568 12.4326 12.0865 12.4654C11.5916 12.4992 10.9524 12.5 10 12.5H6C5.04759 12.5 4.40841 12.4992 3.91348 12.4654C3.43203 12.4326 3.1976 12.3736 3.04329 12.3097C2.43072 12.056 1.94404 11.5693 1.6903 10.9567C1.62639 10.8024 1.56743 10.568 1.53458 10.0865C1.50081 9.59159 1.5 8.95241 1.5 8C1.5 7.04759 1.50081 6.40841 1.53458 5.91348C1.56743 5.43203 1.62639 5.1976 1.6903 5.04329C1.94404 4.43072 2.43072 3.94404 3.04329 3.6903C3.1976 3.62639 3.43203 3.56743 3.91348 3.53458C4.40841 3.50081 5.04759 3.5 6 3.5ZM0 8C0 6.13623 0 5.20435 0.304482 4.46927C0.710458 3.48915 1.48915 2.71046 2.46927 2.30448C3.20435 2 4.13623 2 6 2H10C11.8638 2 12.7956 2 13.5307 2.30448C14.5108 2.71046 15.2895 3.48915 15.6955 4.46927C16 5.20435 16 6.13623 16 8C16 9.86377 16 10.7956 15.6955 11.5307C15.2895 12.5108 14.5108 13.2895 13.5307 13.6955C12.7956 14 11.8638 14 10 14H6C4.13623 14 3.20435 14 2.46927 13.6955C1.48915 13.2895 0.710458 12.5108 0.304482 11.5307C0 10.7956 0 9.86377 0 8ZM6.41665 5.16316C6.8333 4.93569 7.37727 5.28538 8.46521 5.98477L9.5064 6.65411C10.4492 7.26019 10.9206 7.56323 10.9206 8C10.9206 8.43676 10.4492 8.7398 9.5064 9.34588L8.46521 10.0152C7.37727 10.7146 6.8333 11.0643 6.41665 10.8368C6 10.6094 6 9.96269 6 8.66933V7.33066C6 6.03731 6 5.39063 6.41665 5.16316Z" fill="#FF00FF"/>
</svg>
