<svg width="16" height="16" viewBox="0 0 16 16" fill="none" xmlns="http://www.w3.org/2000/svg">
<path opacity="0.25" d="M1 8.5C1 6.84315 2.34315 5.5 4 5.5H12C13.6569 5.5 15 6.84315 15 8.5V11C15 12.3807 13.8807 13.5 12.5 13.5H11.25C10.4631 13.5 9.72214 13.1295 9.25 12.5L8.8 11.9C8.61115 11.6482 8.31476 11.5 8 11.5V11.5C7.68524 11.5 7.38885 11.6482 7.2 11.9L6.75 12.5C6.27786 13.1295 5.53689 13.5 4.75 13.5H3.5C2.11929 13.5 1 12.3807 1 11V8.5Z" fill="#FF00FF"/>
<path fill-rule="evenodd" clip-rule="evenodd" d="M4 1.75C3.58579 1.75 3.25 2.08579 3.25 2.5C3.25 2.91421 3.58579 3.25 4 3.25H12C12.4142 3.25 12.75 2.91421 12.75 2.5C12.75 2.08579 12.4142 1.75 12 1.75H4ZM4 4.75C1.92893 4.75 0.25 6.42893 0.25 8.5V11C0.25 12.7949 1.70507 14.25 3.5 14.25H4.75C5.77296 14.25 6.73622 13.7684 7.35 12.95L7.8 12.35C7.84721 12.287 7.92131 12.25 8 12.25C8.07869 12.25 8.15279 12.287 8.2 12.35L8.65 12.95C9.26378 13.7684 10.227 14.25 11.25 14.25H12.5C14.2949 14.25 15.75 12.7949 15.75 11V8.5C15.75 6.42893 14.0711 4.75 12 4.75H4ZM1.75 8.5C1.75 7.25736 2.75736 6.25 4 6.25H12C13.2426 6.25 14.25 7.25736 14.25 8.5V11C14.25 11.9665 13.4665 12.75 12.5 12.75H11.25C10.6992 12.75 10.1805 12.4907 9.85 12.05L9.4 11.45C9.0695 11.0093 8.55083 10.75 8 10.75C7.44917 10.75 6.9305 11.0093 6.6 11.45L6.15 12.05C5.8195 12.4907 5.30083 12.75 4.75 12.75H3.5C2.5335 12.75 1.75 11.9665 1.75 11V8.5Z" fill="#FF00FF"/>
</svg>
