<svg width="16" height="16" viewBox="0 0 16 16" fill="none" xmlns="http://www.w3.org/2000/svg">
<path fill-rule="evenodd" clip-rule="evenodd" d="M9.70658 2.29255C8.92672 1.01642 7.07331 1.01642 6.29345 2.29255L0.859563 11.1844C0.0451313 12.5171 1.00427 14.2273 2.56613 14.2273H13.4339C14.9958 14.2273 15.9549 12.5171 15.1405 11.1844L9.70658 2.29255ZM8.62325 9.8288L8.84725 4.8H7.13365L7.36885 9.8288H8.62325ZM7.99605 12.3824C7.50325 12.3824 7.10005 11.968 7.10005 11.4864C7.10005 10.9936 7.50325 10.5792 7.99605 10.5792C8.48885 10.5792 8.90325 10.9936 8.90325 11.4864C8.90325 11.968 8.48885 12.3824 7.99605 12.3824Z" fill="#FF00FF"/>
</svg>
