<svg width="16" height="16" viewBox="0 0 16 16" fill="none" xmlns="http://www.w3.org/2000/svg">
<g clip-path="url(#clip0_2179_3744)">
<path fill-rule="evenodd" clip-rule="evenodd" d="M1.0591 3.78144L7.72493 0.0107422V2.77805L3.4536 5.12781L3.41952 5.14699L1.0591 3.78144ZM0.780029 4.27994V11.9683L3.15749 10.5964V5.65401L0.780029 4.27994ZM15.2408 4.27994V11.9683L12.8633 10.5964V5.65401L15.2408 4.27994ZM8.29586 16.0479L14.7955 12.371L12.3456 10.9564L8.29586 13.1847V16.0479ZM1.22527 12.371L7.72493 16.0479V13.1847L3.67303 10.9564L1.22527 12.371ZM8.29586 0.0107422L14.9617 3.78144L12.6013 5.14486L12.5672 5.12568L8.29586 2.77805V0.0107422Z" fill="#FF00FF"/>
<path fill-rule="evenodd" clip-rule="evenodd" d="M8.0104 3.27442L3.99897 5.47932L8.0104 7.795L12.0218 5.47932L8.0104 3.27442ZM7.72493 12.5329L3.72842 10.3344V5.98208L7.72493 8.28923V12.5329ZM8.29586 12.5329L12.2924 10.3365V5.98208L8.29586 8.28923V12.5329Z" fill="#FF00FF"/>
</g>
<defs>
<clipPath id="clip0_2179_3744">
<rect width="16" height="16" fill="white"/>
</clipPath>
</defs>
</svg>
