<svg width="16" height="16" viewBox="0 0 16 16" fill="none" xmlns="http://www.w3.org/2000/svg">
<g clip-path="url(#clip0_2179_3743)">
<path fill-rule="evenodd" clip-rule="evenodd" d="M1.0591 3.78132L7.72493 0.0106201V2.77793L3.4536 5.12769L3.41952 5.14686L1.0591 3.78132ZM0.780029 4.27982V11.9682L3.15749 10.5963V5.65388L0.780029 4.27982ZM15.2408 4.27982V11.9682L12.8633 10.5963V5.65388L15.2408 4.27982ZM8.29586 16.0478L14.7955 12.3708L12.3456 10.9563L8.29586 13.1846V16.0478ZM1.22527 12.3708L7.72493 16.0478V13.1846L3.67303 10.9563L1.22527 12.3708ZM8.29586 0.0106201L14.9617 3.78132L12.6013 5.14473L12.5672 5.12556L8.29586 2.77793V0.0106201Z" fill="#8ED6FB"/>
<path fill-rule="evenodd" clip-rule="evenodd" d="M8.01025 3.27429L3.99882 5.47919L8.01025 7.79487L12.0217 5.47919L8.01025 3.27429ZM7.72478 12.5327L3.72827 10.3342V5.98195L7.72478 8.28911V12.5327ZM8.29572 12.5327L12.2922 10.3364V5.98195L8.29572 8.28911V12.5327Z" fill="#1C78C0"/>
</g>
<defs>
<clipPath id="clip0_2179_3743">
<rect width="16" height="16" fill="white"/>
</clipPath>
</defs>
</svg>
