<svg width="16" height="16" viewBox="0 0 16 16" fill="none" xmlns="http://www.w3.org/2000/svg">
<path d="M7.99998 5.89999C6.36218 5.89999 4.7325 6.10434 3.51778 6.3068C2.90904 6.40825 2.40143 6.50976 2.04521 6.58609C1.86704 6.62427 1.72659 6.65619 1.63011 6.6787C1.58187 6.68995 1.54461 6.69886 1.51912 6.70503L1.4898 6.71218L1.48194 6.71412L1.47974 6.71467C1.47974 6.71467 1.47871 6.71492 1.59998 7.19999C1.72124 7.68507 1.72117 7.68508 1.72117 7.68508L1.72268 7.68471L1.72871 7.68322L1.75427 7.67699C1.77722 7.67144 1.81183 7.66316 1.85734 7.65254C1.94837 7.6313 2.08291 7.60072 2.25474 7.5639C2.59852 7.49023 3.09091 7.39174 3.68217 7.29319C4.86745 7.09564 6.43777 6.89999 7.99998 6.89999C9.56218 6.89999 11.1325 7.09564 12.3178 7.29319C12.909 7.39174 13.4014 7.49023 13.7452 7.5639C13.917 7.60072 14.0516 7.6313 14.1426 7.65254C14.1881 7.66316 14.2227 7.67144 14.2457 7.67699L14.2712 7.68322L14.2773 7.68471L14.2786 7.68503L14.4 7.19999C14.5212 6.71492 14.5211 6.71489 14.5211 6.71489L14.518 6.71412L14.5102 6.71218L14.4808 6.70503C14.4553 6.69886 14.4181 6.68995 14.3698 6.6787C14.2734 6.65619 14.1329 6.62427 13.9547 6.58609C13.5985 6.50976 13.0909 6.40825 12.4822 6.3068C11.2675 6.10434 9.63777 5.89999 7.99998 5.89999Z" fill="#FF00FF"/>
<path d="M2.79996 9.7C4.73295 9.7 6.29996 11.267 6.29996 13.2V14H7.29996V13.2C7.29996 10.7147 5.28524 8.7 2.79996 8.7H1.59996V9.7H2.79996Z" fill="#FF00FF"/>
<path d="M12.8 9.7C10.867 9.7 9.29996 11.267 9.29996 13.2V14H8.29996V13.2C8.29996 10.7147 10.3147 8.7 12.8 8.7H14V9.7H12.8Z" fill="#FF00FF"/>
<path fill-rule="evenodd" clip-rule="evenodd" d="M8 14C11.3137 14 14 11.3137 14 8C14 4.68629 11.3137 2 8 2C4.68629 2 2 4.68629 2 8C2 11.3137 4.68629 14 8 14ZM8 15C11.866 15 15 11.866 15 8C15 4.13401 11.866 1 8 1C4.13401 1 1 4.13401 1 8C1 11.866 4.13401 15 8 15Z" fill="#FF00FF"/>
</svg>
