<svg width="16" height="16" viewBox="0 0 16 16" fill="none" xmlns="http://www.w3.org/2000/svg">
<g clip-path="url(#clip0_2288_3394)">
<path fill-rule="evenodd" clip-rule="evenodd" d="M1.87226 6.76368C2.10163 6.6723 2.36055 6.57643 2.64744 6.4808C3.92163 6.05607 5.75216 5.63462 8 5.63462C10.2478 5.63462 12.0784 6.05607 13.3526 6.4808C13.6395 6.57643 13.8984 6.6723 14.1277 6.76368C13.554 3.90407 11.0285 1.75 8 1.75C4.97147 1.75 2.44605 3.90407 1.87226 6.76368ZM14.2344 8.4461C14.2203 8.43933 14.2058 8.43243 14.191 8.4254C13.8956 8.28551 13.4525 8.09525 12.8782 7.90382C11.7293 7.52086 10.0599 7.13462 8 7.13462C5.94015 7.13462 4.27067 7.52086 3.12179 7.90382C2.5475 8.09525 2.10437 8.28551 1.80905 8.4254C1.7942 8.43243 1.77973 8.43933 1.76564 8.4461C1.77722 8.61047 1.79513 8.77298 1.81913 8.93342L2.78207 9.04471C4.97342 9.29798 6.70202 11.0266 6.95529 13.2179L7.06658 14.1809C7.37077 14.2264 7.68243 14.25 8 14.25C8.31757 14.25 8.62923 14.2264 8.93342 14.1809L9.04471 13.2179C9.29799 11.0266 11.0266 9.29799 13.2179 9.04471L14.1809 8.93342C14.2049 8.77298 14.2228 8.61047 14.2344 8.4461ZM13.7322 10.4953L13.3902 10.5348C11.8908 10.7081 10.7081 11.8908 10.5348 13.3902L10.4953 13.7322C11.9406 13.102 13.102 11.9406 13.7322 10.4953ZM5.50474 13.7322L5.46521 13.3902C5.29192 11.8908 4.10919 10.7081 2.60985 10.5348L2.2678 10.4953C2.89798 11.9406 4.05939 13.102 5.50474 13.7322ZM0.25 8C0.25 3.71979 3.71979 0.25 8 0.25C12.2802 0.25 15.75 3.71979 15.75 8C15.75 8.61446 15.6783 9.21315 15.5426 9.7878C14.8706 12.6329 12.6329 14.8706 9.7878 15.5426C9.21315 15.6783 8.61446 15.75 8 15.75C7.38554 15.75 6.78685 15.6783 6.2122 15.5426C3.36715 14.8706 1.12945 12.6329 0.457399 9.7878C0.321657 9.21315 0.25 8.61446 0.25 8Z" fill="#FF00FF"/>
</g>
<defs>
<clipPath id="clip0_2288_3394">
<rect width="16" height="16" fill="white"/>
</clipPath>
</defs>
</svg>
