<svg width="16" height="16" viewBox="0 0 16 16" fill="none" xmlns="http://www.w3.org/2000/svg">
<g clip-path="url(#clip0_2257_3131)">
<path fill-rule="evenodd" clip-rule="evenodd" d="M2.38279 6.76573C2.57302 6.69166 2.78334 6.61498 3.01283 6.53849C4.20048 6.1426 5.90601 5.75 8 5.75C10.094 5.75 11.7995 6.1426 12.9872 6.53849C13.2167 6.61498 13.427 6.69166 13.6172 6.76573C13.0524 4.18325 10.7519 2.25 8 2.25C5.24805 2.25 2.94764 4.18325 2.38279 6.76573ZM13.7329 8.44681C13.7306 8.44568 13.7282 8.44456 13.7258 8.44343C13.4533 8.31436 13.0438 8.13852 12.5128 7.96151C11.4505 7.6074 9.90601 7.25 8 7.25C6.09399 7.25 4.54952 7.6074 3.48717 7.96151C2.95615 8.13852 2.54668 8.31436 2.27419 8.44343C2.2718 8.44456 2.26943 8.44568 2.26707 8.44681C2.27666 8.57185 2.29024 8.6957 2.30768 8.81825L2.93591 8.89086C5.12727 9.14414 6.85586 10.8727 7.10914 13.0641L7.18175 13.6923C7.44872 13.7303 7.72188 13.75 8 13.75C8.27812 13.75 8.55128 13.7303 8.81826 13.6923L8.89087 13.0641C9.14414 10.8727 10.8727 9.14414 13.0641 8.89086L13.6923 8.81825C13.7098 8.6957 13.7233 8.57185 13.7329 8.44681ZM10.381 13.2356C10.5546 11.7368 11.7368 10.5546 13.2356 10.381C12.6607 11.6427 11.6427 12.6607 10.381 13.2356ZM2.76443 10.381C4.26318 10.5546 5.4454 11.7368 5.61897 13.2356C4.35729 12.6607 3.33928 11.6427 2.76443 10.381ZM1.88546 8.64337L1.88455 8.64391L1.8851 8.64358L1.88546 8.64337ZM0.75 8C0.75 3.99594 3.99594 0.75 8 0.75C12.0041 0.75 15.25 3.99594 15.25 8C15.25 8.57475 15.183 9.13481 15.056 9.67242C14.4273 12.334 12.334 14.4273 9.67242 15.056C9.13481 15.183 8.57475 15.25 8 15.25C7.42525 15.25 6.86519 15.183 6.32758 15.056C3.66601 14.4273 1.57273 12.334 0.944019 9.67242C0.817027 9.13481 0.75 8.57475 0.75 8Z" fill="#FF00FF"/>
</g>
<defs>
<clipPath id="clip0_2257_3131">
<rect width="16" height="16" fill="white"/>
</clipPath>
</defs>
</svg>
