<svg width="16" height="16" viewBox="0 0 16 16" fill="none" xmlns="http://www.w3.org/2000/svg">
<path opacity="0.4" fill-rule="evenodd" clip-rule="evenodd" d="M8.00043 3.60974C8.15361 3.60963 8.30679 3.61367 8.45979 3.62186C8.87341 3.644 9.22667 3.32664 9.24881 2.91302C9.27095 2.4994 8.95359 2.14614 8.53997 2.124C8.35989 2.11436 8.17961 2.10961 7.99933 2.10974C5.46399 2.11161 2.92677 3.08033 0.991643 5.01546C0.698749 5.30835 0.698749 5.78322 0.991643 6.07612C1.28454 6.36901 1.75941 6.36901 2.0523 6.07612C3.69512 4.4333 5.8463 3.61133 8.00043 3.60974ZM14.9906 4.93281C14.6773 4.6618 14.2037 4.69604 13.9327 5.00929C13.6617 5.32255 13.6959 5.79618 14.0092 6.06719C14.1635 6.20072 14.3142 6.34086 14.461 6.48762C14.7539 6.78052 15.2288 6.78052 15.5217 6.48762C15.8146 6.19473 15.8146 5.71986 15.5217 5.42696C15.3494 5.25465 15.1722 5.08993 14.9906 4.93281ZM6.70322 6.39486C6.84704 6.78331 6.64872 7.21479 6.26027 7.3586C5.60851 7.5999 4.99659 7.98242 4.47113 8.50788C4.17823 8.80077 3.70336 8.80077 3.41047 8.50788C3.11757 8.21498 3.11757 7.74011 3.41047 7.44722C4.0919 6.76578 4.88903 6.26677 5.73948 5.95191C6.12793 5.8081 6.55941 6.00641 6.70322 6.39486ZM11.4077 7.53977C11.6619 7.21272 12.1331 7.15365 12.4601 7.40784C12.6724 7.57282 12.8765 7.75265 13.0711 7.94723C13.364 8.24012 13.364 8.715 13.0711 9.00789C12.7782 9.30078 12.3034 9.30078 12.0105 9.00789C11.8601 8.85752 11.7028 8.71899 11.5396 8.59219C11.2126 8.338 11.1535 7.86682 11.4077 7.53977ZM6.42754 12.4008C6.79374 12.8659 7.36193 13.1646 7.99988 13.1646C9.10445 13.1646 9.99988 12.2692 9.99988 11.1646C9.99988 10.5267 9.70119 9.95848 9.23603 9.59227L6.42754 12.4008Z" fill="#FF00FF"/>
<path fill-rule="evenodd" clip-rule="evenodd" d="M13.5303 2.46967C13.8232 2.76256 13.8232 3.23744 13.5303 3.53033L3.53033 13.5303C3.23744 13.8232 2.76256 13.8232 2.46967 13.5303C2.17678 13.2374 2.17678 12.7626 2.46967 12.4697L12.4697 2.46967C12.7626 2.17678 13.2374 2.17678 13.5303 2.46967Z" fill="#FF00FF"/>
</svg>
