<svg width="16" height="16" viewBox="0 0 16 16" fill="none" xmlns="http://www.w3.org/2000/svg">
<path opacity="0.3" fill-rule="evenodd" clip-rule="evenodd" d="M2.0523 6.07612C5.3408 2.78762 10.6725 2.78762 13.961 6.07612C14.2539 6.36901 14.7288 6.36901 15.0217 6.07612C15.3146 5.78322 15.3146 5.30835 15.0217 5.01546C11.1474 1.14117 4.86593 1.14117 0.991643 5.01546C0.698749 5.30835 0.698749 5.78322 0.991643 6.07612C1.28454 6.36901 1.75941 6.36901 2.0523 6.07612ZM11.5163 8.50788C9.57085 6.5624 6.4166 6.5624 4.47113 8.50788C4.17823 8.80077 3.70336 8.80077 3.41047 8.50788C3.11757 8.21498 3.11757 7.74011 3.41047 7.44722C5.94173 4.91595 10.0457 4.91595 12.577 7.44722C12.8699 7.74011 12.8699 8.21498 12.577 8.50788C12.2841 8.80077 11.8092 8.80077 11.5163 8.50788ZM9.99988 11.1646C9.99988 12.2692 9.10445 13.1646 7.99988 13.1646C6.89531 13.1646 5.99988 12.2692 5.99988 11.1646C5.99988 10.06 6.89531 9.16461 7.99988 9.16461C9.10445 9.16461 9.99988 10.06 9.99988 11.1646Z" fill="#FF00FF"/>
</svg>
