<svg width="16" height="16" viewBox="0 0 16 16" fill="none" xmlns="http://www.w3.org/2000/svg">
<path fill-rule="evenodd" clip-rule="evenodd" d="M2.05255 6.07613C5.34105 2.78763 10.6728 2.78763 13.9613 6.07613C14.2542 6.36903 14.729 6.36903 15.0219 6.07613C15.3148 5.78324 15.3148 5.30836 15.0219 5.01547C11.1476 1.14118 4.86617 1.14118 0.991887 5.01547C0.698994 5.30836 0.698994 5.78324 0.991887 6.07613C1.28478 6.36903 1.75965 6.36903 2.05255 6.07613ZM11.5165 8.50789C9.57103 6.56241 6.41679 6.56241 4.47131 8.50789C4.17842 8.80078 3.70354 8.80078 3.41065 8.50789C3.11776 8.215 3.11776 7.74012 3.41065 7.44723C5.94192 4.91596 10.0459 4.91596 12.5772 7.44723C12.8701 7.74012 12.8701 8.215 12.5772 8.50789C12.2843 8.80078 11.8094 8.80078 11.5165 8.50789ZM10.0001 11.1646C10.0001 12.2692 9.10469 13.1646 8.00012 13.1646C6.89555 13.1646 6.00012 12.2692 6.00012 11.1646C6.00012 10.0601 6.89555 9.16463 8.00012 9.16463C9.10469 9.16463 10.0001 10.0601 10.0001 11.1646Z" fill="#FF00FF"/>
</svg>
