<svg width="16" height="16" viewBox="0 0 16 16" fill="none" xmlns="http://www.w3.org/2000/svg">
<path d="M10 11.1646C10 12.2692 9.10457 13.1646 8 13.1646C6.89543 13.1646 6 12.2692 6 11.1646C6 10.06 6.89543 9.16461 8 9.16461C9.10457 9.16461 10 10.06 10 11.1646Z" fill="#FF00FF"/>
<path opacity="0.3" fill-rule="evenodd" clip-rule="evenodd" d="M2.05255 6.07613C5.34105 2.78763 10.6728 2.78763 13.9613 6.07613C14.2542 6.36903 14.729 6.36903 15.0219 6.07613C15.3148 5.78324 15.3148 5.30836 15.0219 5.01547C11.1476 1.14118 4.86617 1.14118 0.991887 5.01547C0.698993 5.30836 0.698993 5.78324 0.991887 6.07613C1.28478 6.36903 1.75965 6.36903 2.05255 6.07613ZM4.47131 8.50789C6.41679 6.56241 9.57103 6.56241 11.5165 8.50789C11.8094 8.80078 12.2843 8.80078 12.5772 8.50789C12.8701 8.215 12.8701 7.74012 12.5772 7.44723C10.0459 4.91596 5.94192 4.91596 3.41065 7.44723C3.11776 7.74012 3.11776 8.215 3.41065 8.50789C3.70354 8.80078 4.17842 8.80078 4.47131 8.50789Z" fill="#FF00FF"/>
</svg>
