<svg width="16" height="16" viewBox="0 0 16 16" fill="none" xmlns="http://www.w3.org/2000/svg">
<path fill-rule="evenodd" clip-rule="evenodd" d="M4.47125 8.50789C6.41673 6.56241 9.57097 6.56241 11.5164 8.50789C11.8093 8.80078 12.2842 8.80078 12.5771 8.50789C12.87 8.215 12.87 7.74012 12.5771 7.44723C10.0458 4.91597 5.94185 4.91597 3.41059 7.44723C3.11769 7.74012 3.11769 8.215 3.41059 8.50789C3.70348 8.80078 4.17835 8.80078 4.47125 8.50789ZM8.00006 13.1646C9.10463 13.1646 10.0001 12.2692 10.0001 11.1646C10.0001 10.0601 9.10463 9.16463 8.00006 9.16463C6.89549 9.16463 6.00006 10.0601 6.00006 11.1646C6.00006 12.2692 6.89549 13.1646 8.00006 13.1646Z" fill="#FF00FF"/>
<path opacity="0.3" fill-rule="evenodd" clip-rule="evenodd" d="M13.961 6.07612C10.6725 2.78762 5.3408 2.78762 2.0523 6.07612C1.75941 6.36901 1.28454 6.36901 0.991643 6.07612C0.698749 5.78322 0.698749 5.30835 0.991643 5.01546C4.86593 1.14117 11.1474 1.14117 15.0217 5.01546C15.3146 5.30835 15.3146 5.78322 15.0217 6.07612C14.7288 6.36901 14.2539 6.36901 13.961 6.07612Z" fill="#FF00FF"/>
</svg>
