<svg width="16" height="16" viewBox="0 0 16 16" fill="none" xmlns="http://www.w3.org/2000/svg">
<path d="M11.0227 4.86941C11.0227 5.34138 11.4201 5.73883 11.9169 5.73883C12.4386 5.73883 12.8484 5.35379 12.8484 4.86941C12.8484 4.38502 12.4386 4 11.9169 4C11.4201 4 11.0227 4.38502 11.0227 4.86941Z" fill="#FF00FF"/>
<path d="M12.7119 11.5763V6.5958H11.1717V11.5763H12.7119Z" fill="#FF00FF"/>
<path d="M15.0468 5.73883C14.55 5.73883 14.1401 5.34138 14.1401 4.86941C14.1401 4.38502 14.55 4 15.0468 4C15.556 4 15.9659 4.38502 15.9659 4.86941C15.9659 5.35379 15.556 5.73883 15.0468 5.73883Z" fill="#FF00FF"/>
<path d="M15.8293 11.5763V6.5958H14.2892V11.5763H15.8293Z" fill="#FF00FF"/>
<path d="M7.38353 9.70088L8.72493 4.42226H10.352C10.352 4.42226 8.79943 10.0486 8.5883 10.7069C8.41442 11.2161 8.02939 11.626 7.44564 11.626C6.78735 11.626 6.47686 11.1416 6.32781 10.7069C6.19118 10.2598 5.18514 6.54612 5.18514 6.54612C5.18514 6.54612 4.1791 10.2598 4.03005 10.7069C3.89344 11.1416 3.58292 11.626 2.91224 11.626C2.34091 11.626 1.94345 11.2161 1.782 10.7069C1.57085 10.0486 0.0183105 4.42226 0.0183105 4.42226H1.63295L2.98676 9.70088C2.98676 9.70088 4.01765 5.73881 4.1791 5.16746C4.35299 4.60856 4.68834 4.36016 5.18514 4.36016C5.66954 4.36016 6.01731 4.60856 6.17877 5.16746C6.35266 5.73881 7.38353 9.70088 7.38353 9.70088Z" fill="#FF00FF"/>
</svg>
