<svg width="16" height="16" viewBox="0 0 16 16" fill="none" xmlns="http://www.w3.org/2000/svg">
<path d="M11.0229 4.86941C11.0229 5.34138 11.4203 5.73883 11.9172 5.73883C12.4388 5.73883 12.8487 5.35379 12.8487 4.86941C12.8487 4.38502 12.4388 4 11.9172 4C11.4203 4 11.0229 4.38502 11.0229 4.86941Z" fill="#FF00FF"/>
<path d="M12.7121 11.5763V6.5958H11.1719V11.5763H12.7121Z" fill="#FF00FF"/>
<path d="M15.0471 5.73883C14.5502 5.73883 14.1404 5.34138 14.1404 4.86941C14.1404 4.38502 14.5502 4 15.0471 4C15.5563 4 15.9662 4.38502 15.9662 4.86941C15.9662 5.35379 15.5563 5.73883 15.0471 5.73883Z" fill="#FF00FF"/>
<path d="M15.8296 11.5763V6.5958H14.2895V11.5763H15.8296Z" fill="#FF00FF"/>
<path d="M7.38377 9.70088L8.72517 4.42226H10.3522C10.3522 4.42226 8.79968 10.0486 8.58855 10.7069C8.41466 11.2161 8.02963 11.626 7.44589 11.626C6.7876 11.626 6.4771 11.1416 6.32806 10.7069C6.19142 10.2598 5.18539 6.54612 5.18539 6.54612C5.18539 6.54612 4.17934 10.2598 4.0303 10.7069C3.89369 11.1416 3.58316 11.626 2.91248 11.626C2.34116 11.626 1.94369 11.2161 1.78224 10.7069C1.5711 10.0486 0.0185547 4.42226 0.0185547 4.42226H1.6332L2.987 9.70088C2.987 9.70088 4.01789 5.73881 4.17934 5.16746C4.35324 4.60856 4.68859 4.36016 5.18539 4.36016C5.66978 4.36016 6.01755 4.60856 6.17901 5.16746C6.3529 5.73881 7.38377 9.70088 7.38377 9.70088Z" fill="#FF00FF"/>
</svg>
