<svg width="16" height="16" viewBox="0 0 16 16" fill="none" xmlns="http://www.w3.org/2000/svg">
<g clip-path="url(#clip0_2179_3598)">
<path d="M12.538 9.99007C13.5688 11.3191 14.7158 12.6096 15.9989 13.8677C15.4286 13.5184 14.8921 13.1809 14.3894 12.8559C12.0378 11.3058 9.88672 9.68185 7.9464 7.96292C6.03784 9.85071 3.91827 11.5272 1.56677 12.9931C1.06432 13.3085 0.52272 13.6307 -0.059082 13.963C0.593552 13.3748 1.31729 12.6071 2.11948 11.6564C3.39532 10.1483 4.68185 8.37671 6.01065 6.33116L4.11261 4.4962L4.10284 4.48643C3.42184 3.8053 2.84492 3.22826 2.39369 2.72461C2.03511 2.33984 1.68843 1.9445 1.3532 1.53906C1.93686 1.98141 2.65146 2.41269 3.49699 2.82997C4.11903 3.14633 4.85727 3.47324 5.73233 3.82106L5.74843 3.82742L5.74944 3.82784C6.1046 3.96785 6.84703 4.26054 7.94687 4.68573C10.0138 3.8951 11.585 3.23076 12.6712 2.66139C13.36 2.31189 13.9306 1.96721 14.3854 1.63065C12.2083 3.9911 10.7138 5.55771 9.90184 6.32027C10.9775 7.88101 11.8524 9.10434 12.538 9.99007Z" fill="#FF00FF"/>
</g>
<defs>
<clipPath id="clip0_2179_3598">
<rect width="16" height="16" fill="white"/>
</clipPath>
</defs>
</svg>
