<svg width="16" height="16" viewBox="0 0 16 16" fill="none" xmlns="http://www.w3.org/2000/svg">
<path d="M11.2513 6.55645C11.8826 6.55645 12.0868 7.0096 12.0868 7.57391H10.3616C10.3616 7.03198 10.5729 6.55645 11.2513 6.55645Z" fill="#FF00FF"/>
<path fill-rule="evenodd" clip-rule="evenodd" d="M14.3935 1H1.60651C1.2705 1 1 1.2705 1 1.60651V14.3935C1 14.7295 1.2705 15 1.60651 15H14.3935C14.7295 15 15 14.7295 15 14.3935V1.60651C15 1.2705 14.7295 1 14.3935 1ZM7.72113 9.62981V4.80373H7.53173C7.34483 4.80373 7.1752 4.72789 7.1752 4.54005V4.24666C7.1752 4.10055 7.28956 3.99969 7.48345 3.99969H8.17236C8.5413 3.99969 8.5493 4.36588 8.5493 4.64033V9.62795C8.5493 9.75218 8.52191 9.9492 8.22806 9.9492H8.03309C7.84139 9.9492 7.72113 9.87494 7.72113 9.62981ZM11.2384 5.92134C10.2457 5.92134 9.50038 6.36059 9.50038 7.87355V8.21086C9.50038 9.57047 10.1988 10.0031 11.1382 10.0031H11.5776C12.252 10.0031 12.6769 9.84379 12.6769 9.64285V9.4048C12.6769 9.26958 12.5901 9.16399 12.4489 9.16399C12.3761 9.16399 12.3011 9.17823 12.2072 9.19607C12.0498 9.22598 11.8391 9.26601 11.4958 9.26601C10.677 9.26601 10.3451 9.16911 10.3451 8.25038H12.3074C12.5567 8.25038 12.8441 8.15133 12.8441 7.76509V7.58494C12.8441 6.50027 12.2977 5.92134 11.2384 5.92134ZM3.54469 10.9034C3.46361 10.9034 3.29311 10.9072 3.29311 11.1451V11.3808C3.29311 11.67 3.7221 11.7201 4.35352 11.7201C5.36435 11.7201 5.57854 11.1051 5.63831 10.9335C5.64218 10.9224 5.64541 10.9131 5.64816 10.906L6.65131 6.84876C6.65131 6.84876 6.74322 6.47233 6.74322 6.32355C6.74322 6.13883 6.6466 6.02943 6.45961 6.02943H6.22589C6.02031 6.02943 5.93554 6.14814 5.89764 6.3078L5.23062 9.1912C4.81535 9.1912 4.79005 9.09204 4.738 8.88807C4.73002 8.85678 4.72141 8.82303 4.71066 8.78679L4.1093 6.48899C3.99638 6.09946 3.94712 6.02943 3.72327 6.02943H3.53419C3.3763 6.02943 3.20331 6.07912 3.20331 6.3288C3.20331 6.46722 3.26108 6.67282 3.26108 6.67282L3.88871 8.92334C3.90169 8.96878 3.91388 9.01716 3.92648 9.06715C4.02122 9.44317 4.13902 9.91074 4.79207 9.91074H5.08881C5.07692 9.96531 5.06583 10.0176 5.05522 10.0676C4.92446 10.684 4.86624 10.9585 4.27474 10.9585C4.11078 10.9585 3.97888 10.9427 3.85642 10.928C3.75032 10.9153 3.65131 10.9034 3.54469 10.9034Z" fill="#FF00FF"/>
</svg>
