<svg width="16" height="16" viewBox="0 0 16 16" fill="none" xmlns="http://www.w3.org/2000/svg">
<path d="M1.60651 1H14.3935C14.7295 1 15 1.2705 15 1.60651V14.3935C15 14.7295 14.7295 15 14.3935 15H1.60651C1.2705 15 1 14.7295 1 14.3935V1.60651C1 1.2705 1.2705 1 1.60651 1Z" fill="#00B8CD"/>
<path d="M11.2385 5.9214C10.2457 5.9214 9.50044 6.36065 9.50044 7.87361V8.21092C9.50044 9.57053 10.1989 10.0032 11.1383 10.0032H11.5776C12.2521 10.0032 12.6769 9.84385 12.6769 9.64291V9.40486C12.6769 9.26964 12.5902 9.16405 12.449 9.16405C12.254 9.16405 12.044 9.26607 11.4958 9.26607C10.677 9.26607 10.3451 9.16918 10.3451 8.25045H12.3074C12.5568 8.25045 12.8442 8.15139 12.8442 7.76515V7.585C12.8442 6.50033 12.2978 5.9214 11.2385 5.9214ZM11.2514 6.55651C11.8827 6.55651 12.0868 7.00966 12.0868 7.57398H10.3617C10.3617 7.03204 10.5729 6.55651 11.2514 6.55651Z" fill="white"/>
<path d="M7.72119 9.62987V4.80379H7.53179C7.34489 4.80379 7.17526 4.72795 7.17526 4.54011V4.24672C7.17526 4.10061 7.28962 3.99976 7.48351 3.99976H8.17242C8.54136 3.99976 8.54937 4.36594 8.54937 4.64039V9.62802C8.54937 9.75224 8.52197 9.94926 8.22812 9.94926H8.03315C7.84145 9.94926 7.72119 9.87501 7.72119 9.62987Z" fill="white"/>
<path d="M3.29317 11.1451C3.29317 10.9073 3.46367 10.9034 3.54476 10.9034C3.77444 10.9034 3.9688 10.9586 4.2748 10.9586C4.91431 10.9586 4.93046 10.6377 5.08887 9.9108H4.79213C4.05226 9.9108 3.99941 9.31063 3.88877 8.9234L3.26114 6.67288C3.26114 6.67288 3.20337 6.46728 3.20337 6.32886C3.20337 6.07918 3.37636 6.0295 3.53425 6.0295H3.72333C3.94718 6.0295 3.99644 6.09952 4.10936 6.48905L4.71072 8.78685C4.79152 9.05935 4.75171 9.19126 5.23068 9.19126L5.8977 6.30786C5.9356 6.1482 6.02037 6.0295 6.22595 6.0295H6.45967C6.64666 6.0295 6.74329 6.1389 6.74329 6.32361C6.74329 6.47239 6.65137 6.84882 6.65137 6.84882L5.64822 10.9061C5.60303 11.0229 5.42993 11.7201 4.35358 11.7201C3.72216 11.7201 3.29317 11.67 3.29317 11.3809V11.1451Z" fill="white"/>
</svg>
