<svg width="16" height="16" viewBox="0 0 16 16" fill="none" xmlns="http://www.w3.org/2000/svg">
<g clip-path="url(#clip0_2179_3821)">
<path d="M0.69315 0H15.3069C15.6909 0 16 0.309144 16 0.693149V15.3069C16 15.6909 15.6909 16 15.3069 16H0.69315C0.309147 16 0 15.6909 0 15.3069V0.693149C0 0.309144 0.309147 0 0.69315 0Z" fill="#00B8CD"/>
<path d="M11.7011 5.62439C10.5665 5.62439 9.71472 6.12639 9.71472 7.85548V8.24099C9.71472 9.79483 10.5129 10.2893 11.5866 10.2893H12.0887C12.8595 10.2893 13.345 10.1072 13.345 9.87754V9.60548C13.345 9.45095 13.2459 9.33027 13.0845 9.33027C12.8616 9.33027 12.6216 9.44687 11.9952 9.44687C11.0594 9.44687 10.6801 9.33613 10.6801 8.28615H12.9227C13.2077 8.28615 13.5361 8.17295 13.5361 7.73153V7.52565C13.5361 6.28603 12.9117 5.62439 11.7011 5.62439ZM11.7158 6.35023C12.4373 6.35023 12.6706 6.86812 12.6706 7.51304H10.699C10.699 6.89369 10.9404 6.35023 11.7158 6.35023Z" fill="white"/>
<path d="M7.68129 9.86264V4.34712H7.46483C7.25123 4.34712 7.05737 4.26044 7.05737 4.04577V3.71047C7.05737 3.54348 7.18806 3.42822 7.40965 3.42822H8.19698C8.61863 3.42822 8.62778 3.84672 8.62778 4.16037V9.86052C8.62778 10.0025 8.59647 10.2277 8.26064 10.2277H8.03782C7.81873 10.2277 7.68129 10.1428 7.68129 9.86264Z" fill="white"/>
<path d="M2.6207 11.5944C2.6207 11.3226 2.81555 11.3182 2.90822 11.3182C3.17072 11.3182 3.39284 11.3812 3.74256 11.3812C4.47343 11.3812 4.49188 11.0145 4.67293 10.1837H4.33379C3.48822 10.1837 3.42783 9.4978 3.30138 9.05525L2.58409 6.48322C2.58409 6.48322 2.51807 6.24825 2.51807 6.09006C2.51807 5.80471 2.71577 5.74792 2.89622 5.74792H3.1123C3.36813 5.74792 3.42443 5.82796 3.55348 6.27313L4.24076 8.89919C4.3331 9.21062 4.2876 9.36137 4.83499 9.36137L5.5973 6.06605C5.64062 5.88359 5.7375 5.74792 5.97245 5.74792H6.23956C6.45325 5.74792 6.56368 5.87295 6.56368 6.08406C6.56368 6.25409 6.45864 6.6843 6.45864 6.6843L5.31218 11.3212C5.26053 11.4546 5.06271 12.2515 3.83259 12.2515C3.11097 12.2515 2.6207 12.1942 2.6207 11.8638V11.5944Z" fill="white"/>
</g>
<defs>
<clipPath id="clip0_2179_3821">
<rect width="16" height="16" fill="white"/>
</clipPath>
</defs>
</svg>
