<svg width="16" height="16" viewBox="0 0 16 16" fill="none" xmlns="http://www.w3.org/2000/svg">
<path fill-rule="evenodd" clip-rule="evenodd" d="M14.2511 2.73417C14.9395 2.91816 15.4816 3.46038 15.6656 4.14866C16 5.39655 16 7.9998 16 7.9998C16 7.9998 16 10.6032 15.6656 11.8509C15.4816 12.5392 14.9395 13.0816 14.2511 13.2654C13.0033 13.5998 7.99993 13.5998 7.99993 13.5998C7.99993 13.5998 2.99665 13.5998 1.74889 13.2654C1.06048 13.0816 0.518385 12.5392 0.334395 11.8509C0 10.6032 0 7.9998 0 7.9998C0 7.9998 0 5.39655 0.334395 4.14866C0.518385 3.46038 1.06048 2.91816 1.74889 2.73417C2.99665 2.3999 7.99993 2.3999 7.99993 2.3999C7.99993 2.3999 13.0033 2.3999 14.2511 2.73417ZM10.5565 7.99996L6.39979 10.3999V5.59979L10.5565 7.99996Z" fill="#FF00FF"/>
</svg>
