<svg width="16" height="16" viewBox="0 0 16 16" fill="none" xmlns="http://www.w3.org/2000/svg">
<path fill-rule="evenodd" clip-rule="evenodd" d="M15.6656 4.14866C15.4816 3.46038 14.9395 2.91816 14.2511 2.73417C13.0033 2.3999 7.99993 2.3999 7.99993 2.3999C7.99993 2.3999 2.99665 2.3999 1.74889 2.73417C1.06048 2.91816 0.518385 3.46038 0.334395 4.14866C0 5.39655 0 7.9998 0 7.9998C0 7.9998 0 10.6032 0.334395 11.8509C0.518385 12.5392 1.06048 13.0816 1.74889 13.2654C2.99665 13.5998 7.99993 13.5998 7.99993 13.5998C7.99993 13.5998 13.0033 13.5998 14.2511 13.2654C14.9395 13.0816 15.4816 12.5392 15.6656 11.8509C16 10.6032 16 7.9998 16 7.9998C16 7.9998 16 5.39655 15.6656 4.14866Z" fill="#D9252A"/>
<path fill-rule="evenodd" clip-rule="evenodd" d="M6.3999 10.3999L10.5566 8.00002L6.3999 5.59985V10.3999Z" fill="#FFFFFE"/>
</svg>
